;TYPE=PLATED
;Layer: PTH_Through_Via
;EasyEDA Pro Client v2.2.47.7, 2026-04-29 23:34:45
;Gerber Generator version 0.3
M48
METRIC,LZ,0000.00000
;Hole size 1 = 0.30500 METRIC
T01C0.30500
%
G05
G90
T01
X28.63646Y-0.98265
X27.68282Y-0.98265
X28.66746Y-6.15721
X27.725Y-6.1039
X24.87408Y-2.159
X20.32Y-6.858
X20.32Y-7.57733
X19.558Y-6.858
X19.558Y-7.58908
X20.76594Y-15.55344
X20.76594Y-16.27276
X20.00394Y-15.55344
X20.00394Y-16.28452
X24.32488Y-20.70101
X27.18087Y-16.80452
X28.15083Y-16.80452
X27.178Y-21.844
X28.194Y-21.844
X14.478Y-8.763
X14.478Y-8.001
X14.478Y-9.525
X17.526Y-4.191
X16.764Y-4.191
X15.97623Y-4.191
X28.194Y-19.33903
X28.67082Y-3.66858
X27.71718Y-3.66858
X27.17334Y-19.31884
X1.08966Y-2.413
X1.34915Y-4.572
X1.524Y-6.858
X11.176Y-7.874
X10.414Y-7.874
X14.3257Y-29.00945
X14.3257Y-24.96145
X25.96149Y-29.20294
X25.96149Y-25.13894
X35.03709Y-30.47294
X15.42241Y-30.69162
X26.75475Y-30.69568
X26.39608Y-33.77494
X14.93863Y-33.85248
X23.84787Y-30.41302
X30.988Y-31.75
X32.004Y-31.75
X19.79878Y-31.69008
X20.81478Y-31.69008
X17.09123Y-51.13754
X12.46068Y-51.51806
X13.16191Y-51.51806
X23.368Y-52.324
X20.32Y-49.0904
X22.352Y-49.10391
X13.86891Y-46.736
X10.54211Y-48.26
X10.51811Y-50.292
X4.496Y-46.51129
X23.54189Y-56.89599
X23.54972Y-54.61
X17.769Y-59.4468
X15.81899Y-59.46502
X13.219Y-59.47023
X12.569Y-59.47023
X7.62Y-51.562
X12.55675Y-40.77295
X4.572Y-33.44124
X5.842Y-31.22989
X14.986Y-41.656
X13.14075Y-34.59655
X11.684Y-29.48605
X27.48086Y-40.18894
X28.702Y-37.5956
X26.035Y-41.46444
X36.068Y-52.07
X35.052Y-48.79778
X28.95599Y-48.79777
X25.90801Y-52.57611
X33.02Y-48.7868
X30.988Y-48.75967
X42.13205Y-43.46595
X42.164Y-38.65517
X42.418Y-51.84221
X31.12599Y-45.949
X32.258Y-38.82462
X1.016Y-28.956
X1.778Y-28.956
X32.258Y-42.91727
X28.956Y-53.0176
X22.31779Y-60.198
X19.05Y-61.214
X30.26689Y-65.024
X32.258Y-67.056
X34.036Y-85.09
X35.306Y-86.106
X33.274Y-84.074
X33.02Y-82.804
X34.036Y-87.376
X33.02Y-86.106
X32.004Y-85.344
X31.496Y-84.328
X40.99814Y-2.9464
X3.35814Y-33.86442
X3.35814Y-30.86442
X3.35814Y-28.62642
X3.35814Y-25.62643
X3.35814Y-22.62643
X3.35814Y-19.62643
X3.35814Y-16.62643
X3.35814Y-13.62643
X3.35814Y-10.62643
X3.35814Y-61.62641
X3.35814Y-58.62642
X3.35814Y-55.62642
X3.35814Y-52.62642
X3.35814Y-49.62642
X3.35814Y-46.62642
X3.35814Y-106.6264
X3.35814Y-103.6264
X3.35814Y-100.6264
X3.35814Y-94.6264
X3.35814Y-91.62641
X3.35814Y-88.62641
X3.35814Y-85.62641
X3.35814Y-82.62641
X6.35814Y-1.62643
X6.35814Y-22.62643
X6.35814Y-19.62643
X6.35814Y-16.62643
X6.35814Y-13.62643
X6.35814Y-10.62643
X6.35814Y-28.62642
X6.35814Y-25.62643
X6.35814Y-100.6264
X6.35814Y-94.6264
X6.35814Y-91.62641
X6.35814Y-88.62641
X6.35814Y-85.62641
X6.35814Y-82.62641
X6.35814Y-79.62641
X6.35814Y-76.62641
X6.35814Y-73.62641
X6.35814Y-64.62641
X6.35814Y-61.62641
X6.35814Y-58.62642
X6.35814Y-106.6264
X9.35814Y-1.62643
X9.35814Y-19.62643
X9.35814Y-16.62643
X9.35814Y-13.62643
X9.35814Y-10.62643
X9.35814Y-28.62642
X9.35814Y-25.62643
X9.35814Y-22.62643
X9.35814Y-103.6264
X9.35814Y-61.62641
X12.35814Y-16.62643
X12.35814Y-13.62643
X12.35814Y-10.62643
X12.35814Y-7.62643
X12.35814Y-22.62643
X12.35814Y-19.62643
X12.35814Y-46.62642
X12.35814Y-43.62642
X12.35814Y-106.6264
X12.35814Y-103.6264
X12.35814Y-100.6264
X12.35814Y-61.62641
X15.35814Y-13.62643
X15.35814Y-10.62643
X15.35814Y-46.62642
X15.35814Y-43.62642
X15.35814Y-40.62642
X15.35814Y-37.62642
X15.35814Y-25.62643
X15.35814Y-22.62643
X15.35814Y-19.62643
X15.35814Y-16.62643
X15.35814Y-88.62641
X15.35814Y-82.62641
X15.35814Y-79.62641
X15.35814Y-55.62642
X18.35813Y-10.62643
X18.35813Y-46.62642
X18.35813Y-43.62642
X18.35813Y-40.62642
X18.35813Y-37.62642
X18.35813Y-28.62642
X18.35813Y-25.62643
X18.35813Y-22.62643
X18.35813Y-16.62643
X18.35813Y-13.62643
X18.35813Y-85.62641
X18.35813Y-82.62641
X18.35813Y-79.62641
X18.35813Y-76.62641
X18.35813Y-73.62641
X18.35813Y-70.62641
X18.35813Y-67.62641
X18.35813Y-64.62641
X18.35813Y-55.62642
X21.35813Y-4.62643
X21.35813Y-49.62642
X21.35813Y-46.62642
X21.35813Y-43.62642
X21.35813Y-40.62642
X21.35813Y-37.62642
X21.35813Y-34.62642
X21.35813Y-28.62642
X21.35813Y-25.62643
X21.35813Y-22.62643
X21.35813Y-13.62643
X21.35813Y-82.62641
X21.35813Y-79.62641
X21.35813Y-76.62641
X21.35813Y-73.62641
X21.35813Y-70.62641
X21.35813Y-67.62641
X21.35813Y-64.62641
X21.35813Y-61.62641
X21.35813Y-58.62642
X24.35813Y-1.62643
X24.35813Y-79.62641
X24.35813Y-76.62641
X24.35813Y-73.62641
X24.35813Y-70.62641
X24.35813Y-67.62641
X24.35813Y-64.62641
X24.35813Y-61.62641
X24.35813Y-58.62642
X24.35813Y-55.62642
X24.35813Y-52.62642
X24.35813Y-49.62642
X24.35813Y-46.62642
X24.35813Y-43.62642
X24.35813Y-40.62642
X24.35813Y-22.62643
X24.35813Y-13.62643
X27.35813Y-103.6264
X26.59613Y-76.62641
X27.35813Y-73.62641
X27.35813Y-70.62641
X27.35813Y-67.62641
X27.35813Y-64.62641
X27.35813Y-61.62641
X27.35813Y-58.62642
X27.35813Y-55.62642
X27.35813Y-52.62642
X27.35813Y-37.62642
X27.35813Y-28.62642
X27.35813Y-25.62643
X27.35813Y-13.62643
X27.35813Y-10.62643
X30.35813Y-103.6264
X30.35813Y-100.6264
X30.35813Y-97.6264
X30.35813Y-94.6264
X30.35813Y-43.62642
X30.35813Y-40.62642
X30.35813Y-37.62642
X30.35813Y-28.62642
X30.35813Y-25.62643
X30.35813Y-22.62643
X30.35813Y-16.62643
X30.35813Y-106.6264
X33.35813Y-100.6264
X33.35813Y-97.6264
X33.35813Y-94.6264
X33.35813Y-91.62641
X30.31013Y-73.88041
X34.12013Y-70.37241
X33.35813Y-67.62641
X33.35813Y-64.62641
X33.35813Y-61.62641
X33.35813Y-58.62642
X33.35813Y-37.62642
X33.35813Y-34.62642
X33.35813Y-31.62642
X33.35813Y-28.62642
X33.35813Y-25.62643
X33.35813Y-22.62643
X33.35813Y-4.62643
X33.35813Y-1.62643
X33.35813Y-103.6264
X36.35813Y-61.62641
X36.35813Y-58.62642
X36.35813Y-37.62642
X36.35813Y-34.62642
X36.35813Y-31.62642
X36.35813Y-28.62642
X36.35813Y-25.62643
X36.35813Y-22.62643
X36.35813Y-16.62643
X36.35813Y-10.62643
X36.35813Y-7.62643
X36.35813Y-100.6264
X36.10413Y-106.1184
X39.35813Y-61.62641
X39.35813Y-58.62642
X39.35813Y-55.62642
X39.35813Y-52.62642
X39.35813Y-49.62642
X39.35813Y-40.62642
X39.35813Y-37.62642
X39.35813Y-34.62642
X39.35813Y-31.62642
X39.35813Y-28.62642
X39.35813Y-25.62643
X39.35813Y-13.62643
X39.35813Y-10.62643
X39.35813Y-106.6264
X39.35813Y-103.6264
X42.35813Y-106.6264
X42.35813Y-103.6264
X42.35813Y-100.6264
X42.35813Y-97.6264
X42.35813Y-94.6264
X42.35813Y-91.62641
X42.35813Y-88.62641
X42.35813Y-67.62641
X42.35813Y-64.62641
X42.35813Y-61.62641
X42.35813Y-58.62642
X42.35813Y-55.62642
X42.35813Y-52.62642
X42.35813Y-22.62643
X42.35813Y-10.62643
X45.35813Y-106.6264
X45.35813Y-103.6264
X45.35813Y-100.6264
X45.35813Y-97.6264
X45.35813Y-94.6264
X45.35813Y-61.62641
X45.35813Y-58.62642
X45.35813Y-55.62642
X45.35813Y-52.62642
X45.35813Y-49.62642
X45.35813Y-46.62642
X45.35813Y-34.62642
X45.35813Y-13.62643
X45.35813Y-10.62643
X18.59213Y-89.83986
X21.59213Y-86.83986
X24.59213Y-83.83986
X26.57613Y-80.33186
X30.59213Y-77.83986
X15.83827Y-104.97286
X15.83827Y-101.97286
X15.83827Y-98.97286
X15.83827Y-95.97286
X26.85314Y-97.50654
X26.85314Y-94.50654
X21.59Y-97.536
X21.59Y-103.632
X19.05Y-98.806
X19.05Y-103.632
X35.56Y-82.296
X35.484Y-77.47
X35.814Y-54.61
X18.542Y-94.488
X21.082Y-92.202
X23.876Y-89.662
X30.734Y-82.55
X28.448Y-84.836
X25.908Y-87.376
X21.59Y-100.584
X24.638Y-97.028
X24.406Y-99.98408
X24.384Y-105.664
X22.606Y-108.458
X26.416Y-108.458
X14.224Y-91.948
X23.622Y-36.068
X25.4Y-36.068
X5.842Y-69.596
X1.524Y-97.536
X1.778Y-92.456
X1.778Y-89.408
X1.778Y-86.63107
X1.524Y-102.108
X1.524Y-105.18543
X1.524Y-108.204
X4.826Y-108.204
X8.636Y-108.204
X13.97Y-71.374
X13.97Y-74.422
X8.382Y-53.34
X11.176Y-52.07
X7.95339Y-39.35319
X10.922Y-39.116
X5.08Y-36.83
X42.164Y-33.02
X42.164Y-28.194
X46.482Y-18.034
X46.482Y-3.556
X43.688Y-0.762
X40.132Y-0.762
X36.576Y-0.762
X17.018Y-0.762
X22.098Y-0.762
X11.938Y-0.762
X6.35Y-3.302
X8.89Y-3.048
X37.846Y-44.704
X37.53816Y-42.40492
X40.894Y-80.518
X35.56Y-80.518
X35.56Y-75.692
X32.766Y-108.458
X36.068Y-108.458
X33.02Y-87.122
X29.21Y-90.932
X32.258Y-15.24
X31.496Y-11.43
X22.352Y-9.398
X26.162Y-4.572
X14.478Y-59.69
X14.478Y-69.85
X41.516Y-76.46876
X46.99Y-72.39
X46.99Y-75.184
X42.418Y-70.08726
X41.146Y-70.08726
X33.58057Y-72.2829
M30