G04 Layer: BottomLayer*
G04 EasyEDA Pro v2.2.47.7, 2026-04-30 22:47:31*
G04 Gerber Generator version 0.3*
G04 Scale: 100 percent, Rotated: No, Reflected: No*
G04 Dimensions in millimeters*
G04 Leading zeros omitted, absolute positions, 4 integers and 5 decimals*
G04 Generated by one-click*
G04 Object Configs: Pad,Via,Track,Text,Image,Dimension,BoardOutline,BoardCutout,CopperFilled,SolidRegion,FPCStiffener,Line,PlaneZone,ComponentProperty,ComponentSilkscreen,TearDrop*
G04 Layer Configs: 1,15,16,2,3,4,5,6,7,8,9,10,11,13,14,71,72,56*
G04 Copper Areas: 1*
%FSLAX45Y45*%
%MOMM*%
%ADD10C,0.2032*%
%ADD11C,1.524*%
%ADD12R,1.5X1.5*%
%ADD13C,1.5*%
%ADD14C,1.7*%
%ADD15R,1.7X1.7*%
%ADD16R,1.524X1.524*%
%ADD17R,1.41X1.35001*%
%ADD18R,0.8X1.0*%
%ADD19R,1.0063X0.8*%
%ADD20R,1.0X0.8*%
%ADD21C,0.61*%
%ADD22C,0.254*%
%ADD23C,1.0*%
%ADD24C,0.5*%
G75*


G04 Copper Start*
G36*
G01X40920Y-2834920D02*
G01X35814Y-2840027D01*
G01X35814Y-457200D01*
G01X68601Y-457200D01*
G01X70528Y-473070D01*
G01X76197Y-488018D01*
G01X85279Y-501174D01*
G01X97245Y-511775D01*
G01X111400Y-519205D01*
G01X126922Y-523031D01*
G01X142909Y-523031D01*
G01X158431Y-519205D01*
G01X172586Y-511775D01*
G01X184552Y-501174D01*
G01X193634Y-488018D01*
G01X199303Y-473070D01*
G01X201229Y-457200D01*
G01X199303Y-441330D01*
G01X193634Y-426382D01*
G01X188607Y-419100D01*
G01X1531309Y-419100D01*
G01X1533293Y-435198D01*
G01X1539124Y-450332D01*
G01X1548456Y-463599D01*
G01X1560728Y-474203D01*
G01X1575208Y-481511D01*
G01X1591028Y-485085D01*
G01X1607244Y-484713D01*
G01X1622883Y-480415D01*
G01X1637012Y-472449D01*
G01X1648878Y-479433D01*
G01X1661930Y-483816D01*
G01X1675606Y-485409D01*
G01X1689317Y-484144D01*
G01X1702470Y-480075D01*
G01X1714500Y-473377D01*
G01X1728651Y-480938D01*
G01X1744203Y-484880D01*
G01X1760247Y-484972D01*
G01X1775843Y-481207D01*
G01X1790079Y-473807D01*
G01X1802121Y-463205D01*
G01X1811264Y-450021D01*
G01X1816973Y-435026D01*
G01X1818914Y-419100D01*
G01X1816973Y-403174D01*
G01X1811264Y-388179D01*
G01X1802121Y-374995D01*
G01X1790079Y-364393D01*
G01X1775843Y-356993D01*
G01X1760247Y-353228D01*
G01X1744203Y-353320D01*
G01X1728651Y-357262D01*
G01X1714500Y-364823D01*
G01X1702470Y-358125D01*
G01X1689317Y-354056D01*
G01X1675606Y-352791D01*
G01X1661930Y-354384D01*
G01X1648878Y-358767D01*
G01X1637012Y-365751D01*
G01X1622883Y-357785D01*
G01X1607244Y-353487D01*
G01X1591028Y-353115D01*
G01X1575208Y-356689D01*
G01X1560728Y-363997D01*
G01X1548456Y-374601D01*
G01X1539124Y-387868D01*
G01X1533293Y-403002D01*
G01X1531309Y-419100D01*
G01X1531309Y-419100D01*
G01X188607Y-419100D01*
G01X184552Y-413226D01*
G01X172586Y-402625D01*
G01X158431Y-395195D01*
G01X142909Y-391369D01*
G01X126922Y-391369D01*
G01X111400Y-395195D01*
G01X97245Y-402625D01*
G01X85279Y-413226D01*
G01X76197Y-426382D01*
G01X70528Y-441330D01*
G01X68601Y-457200D01*
G01X68601Y-457200D01*
G01X35814Y-457200D01*
G01X35814Y-241300D01*
G01X42652Y-241300D01*
G01X44579Y-257170D01*
G01X50248Y-272118D01*
G01X59329Y-285274D01*
G01X71295Y-295875D01*
G01X85451Y-303305D01*
G01X100973Y-307131D01*
G01X116959Y-307131D01*
G01X132481Y-303305D01*
G01X146637Y-295875D01*
G01X158603Y-285274D01*
G01X167684Y-272118D01*
G01X173353Y-257170D01*
G01X175280Y-241300D01*
G01X173353Y-225430D01*
G01X167684Y-210482D01*
G01X158603Y-197326D01*
G01X146637Y-186725D01*
G01X132481Y-179295D01*
G01X116959Y-175469D01*
G01X100973Y-175469D01*
G01X85451Y-179295D01*
G01X71295Y-186725D01*
G01X59329Y-197326D01*
G01X50248Y-210482D01*
G01X44579Y-225430D01*
G01X42652Y-241300D01*
G01X42652Y-241300D01*
G01X35814Y-241300D01*
G01X35814Y-35814D01*
G01X2685272Y-35814D01*
G01X2682817Y-43129D01*
G01X2681986Y-50800D01*
G01X2681986Y-682917D01*
G01X2683739Y-693984D01*
G01X2688826Y-703968D01*
G01X2696749Y-711891D01*
G01X2706733Y-716978D01*
G01X2717800Y-718731D01*
G01X2756371Y-718731D01*
G01X4332986Y-2295345D01*
G01X4332986Y-2459027D01*
G01X3772583Y-1898623D01*
G01X3759579Y-1887951D01*
G01X3744743Y-1880021D01*
G01X3728644Y-1875138D01*
G01X3711903Y-1873489D01*
G01X2906014Y-1873489D01*
G01X2906014Y-1615825D01*
G01X2904261Y-1604758D01*
G01X2899174Y-1594774D01*
G01X2891251Y-1586851D01*
G01X2881267Y-1581764D01*
G01X2870200Y-1580011D01*
G01X2667000Y-1580011D01*
G01X2655933Y-1581764D01*
G01X2645949Y-1586851D01*
G01X2638026Y-1594774D01*
G01X2632939Y-1604758D01*
G01X2631186Y-1615825D01*
G01X2631186Y-1907286D01*
G01X1752600Y-1907286D01*
G01X1740044Y-1908939D01*
G01X1728343Y-1913786D01*
G01X1718295Y-1921495D01*
G01X1221370Y-2418421D01*
G01X1213660Y-2428468D01*
G01X1208814Y-2440169D01*
G01X1207161Y-2452725D01*
G01X1207161Y-4032085D01*
G01X1198062Y-4044456D01*
G01X1192054Y-4058588D01*
G01X1189457Y-4073724D01*
G01X1190411Y-4089051D01*
G01X1194865Y-4103747D01*
G01X1202580Y-4117025D01*
G01X1213143Y-4128173D01*
G01X1225986Y-4136592D01*
G01X1240421Y-4141831D01*
G01X1255675Y-4143609D01*
G01X1270928Y-4141831D01*
G01X1285363Y-4136592D01*
G01X1298207Y-4128173D01*
G01X1308769Y-4117025D01*
G01X1316484Y-4103747D01*
G01X1320938Y-4089051D01*
G01X1321893Y-4073724D01*
G01X1319296Y-4058588D01*
G01X1313287Y-4044456D01*
G01X1304189Y-4032085D01*
G01X1304189Y-3169008D01*
G01X1913564Y-3169008D01*
G01X1915533Y-3185051D01*
G01X1921326Y-3200140D01*
G01X1930597Y-3213381D01*
G01X1942796Y-3223985D01*
G01X1957197Y-3231323D01*
G01X1972946Y-3234958D01*
G01X1989107Y-3234676D01*
G01X2004720Y-3230493D01*
G01X2018857Y-3222656D01*
G01X2030678Y-3211633D01*
G01X2042499Y-3222656D01*
G01X2056635Y-3230493D01*
G01X2072248Y-3234676D01*
G01X2088409Y-3234958D01*
G01X2104158Y-3231323D01*
G01X2118560Y-3223985D01*
G01X2130758Y-3213381D01*
G01X2140029Y-3200140D01*
G01X2145822Y-3185051D01*
G01X2147792Y-3169008D01*
G01X2145822Y-3152965D01*
G01X2140029Y-3137875D01*
G01X2130758Y-3124635D01*
G01X2118560Y-3114031D01*
G01X2104158Y-3106693D01*
G01X2088409Y-3103057D01*
G01X2072248Y-3103339D01*
G01X2056635Y-3107523D01*
G01X2042499Y-3115359D01*
G01X2030678Y-3126382D01*
G01X2018857Y-3115359D01*
G01X2004720Y-3107523D01*
G01X1989107Y-3103339D01*
G01X1972946Y-3103057D01*
G01X1957197Y-3106693D01*
G01X1942796Y-3114031D01*
G01X1930597Y-3124635D01*
G01X1921326Y-3137875D01*
G01X1915533Y-3152965D01*
G01X1913564Y-3169008D01*
G01X1913564Y-3169008D01*
G01X1304189Y-3169008D01*
G01X1304189Y-2900945D01*
G01X1366256Y-2900945D01*
G01X1368183Y-2916815D01*
G01X1373852Y-2931763D01*
G01X1382933Y-2944920D01*
G01X1394899Y-2955521D01*
G01X1409055Y-2962950D01*
G01X1424577Y-2966776D01*
G01X1440563Y-2966776D01*
G01X1456085Y-2962950D01*
G01X1470241Y-2955521D01*
G01X1482207Y-2944920D01*
G01X1491288Y-2931763D01*
G01X1496957Y-2916815D01*
G01X1498884Y-2900945D01*
G01X1496957Y-2885075D01*
G01X1491288Y-2870127D01*
G01X1482207Y-2856971D01*
G01X1470241Y-2846370D01*
G01X1456085Y-2838940D01*
G01X1440563Y-2835115D01*
G01X1424577Y-2835115D01*
G01X1409055Y-2838940D01*
G01X1394899Y-2846370D01*
G01X1382933Y-2856971D01*
G01X1373852Y-2870127D01*
G01X1368183Y-2885075D01*
G01X1366256Y-2900945D01*
G01X1366256Y-2900945D01*
G01X1304189Y-2900945D01*
G01X1304189Y-2472821D01*
G01X1772695Y-2004314D01*
G01X2631186Y-2004314D01*
G01X2631186Y-2177005D01*
G01X2404095Y-2404095D01*
G01X2396386Y-2414143D01*
G01X2391539Y-2425844D01*
G01X2389886Y-2438400D01*
G01X2389886Y-3012324D01*
G01X2391098Y-3023100D01*
G01X2394673Y-3033337D01*
G01X2394673Y-3903541D01*
G01X2396326Y-3916097D01*
G01X2401173Y-3927798D01*
G01X2408882Y-3937845D01*
G01X3048593Y-4577556D01*
G01X3046295Y-4593764D01*
G01X3048037Y-4610040D01*
G01X3053713Y-4625395D01*
G01X3062977Y-4638891D01*
G01X3075265Y-4649706D01*
G01X3089828Y-4657181D01*
G01X3105779Y-4660862D01*
G01X3122145Y-4660523D01*
G01X3137929Y-4656185D01*
G01X3152170Y-4648113D01*
G01X3164000Y-4636798D01*
G01X3172698Y-4622931D01*
G01X3177733Y-4607355D01*
G01X3178800Y-4591020D01*
G01X3175832Y-4574921D01*
G01X3169012Y-4560040D01*
G01X3158754Y-4547283D01*
G01X3145683Y-4537428D01*
G01X2627150Y-4018894D01*
G01X2681772Y-4018894D01*
G01X2683699Y-4034764D01*
G01X2689368Y-4049712D01*
G01X2698450Y-4062869D01*
G01X2710416Y-4073470D01*
G01X2724571Y-4080899D01*
G01X2740093Y-4084725D01*
G01X2756080Y-4084725D01*
G01X2771602Y-4080899D01*
G01X2785757Y-4073470D01*
G01X2797723Y-4062869D01*
G01X2806805Y-4049712D01*
G01X2812474Y-4034764D01*
G01X2814401Y-4018894D01*
G01X2812474Y-4003024D01*
G01X2806805Y-3988077D01*
G01X2797723Y-3974920D01*
G01X2785757Y-3964319D01*
G01X2771602Y-3956890D01*
G01X2756080Y-3953064D01*
G01X2740093Y-3953064D01*
G01X2724571Y-3956890D01*
G01X2710416Y-3964319D01*
G01X2698450Y-3974920D01*
G01X2689368Y-3988077D01*
G01X2683699Y-4003024D01*
G01X2681772Y-4018894D01*
G01X2681772Y-4018894D01*
G01X2627150Y-4018894D01*
G01X2491701Y-3883445D01*
G01X2491701Y-3175000D01*
G01X3032486Y-3175000D01*
G01X3034456Y-3191043D01*
G01X3040248Y-3206133D01*
G01X3049519Y-3219373D01*
G01X3061718Y-3229977D01*
G01X3076120Y-3237315D01*
G01X3091869Y-3240951D01*
G01X3108030Y-3240669D01*
G01X3123642Y-3236485D01*
G01X3137779Y-3228649D01*
G01X3149600Y-3217625D01*
G01X3161421Y-3228649D01*
G01X3175558Y-3236485D01*
G01X3191170Y-3240669D01*
G01X3207331Y-3240951D01*
G01X3223080Y-3237315D01*
G01X3237482Y-3229977D01*
G01X3249681Y-3219373D01*
G01X3258952Y-3206133D01*
G01X3264744Y-3191043D01*
G01X3266714Y-3175000D01*
G01X3264744Y-3158957D01*
G01X3258952Y-3143867D01*
G01X3249681Y-3130627D01*
G01X3237482Y-3120023D01*
G01X3223080Y-3112685D01*
G01X3207331Y-3109049D01*
G01X3191170Y-3109331D01*
G01X3175558Y-3113515D01*
G01X3161421Y-3121351D01*
G01X3149600Y-3132375D01*
G01X3137779Y-3121351D01*
G01X3123642Y-3113515D01*
G01X3108030Y-3109331D01*
G01X3091869Y-3109049D01*
G01X3076120Y-3112685D01*
G01X3061718Y-3120023D01*
G01X3049519Y-3130627D01*
G01X3040248Y-3143867D01*
G01X3034456Y-3158957D01*
G01X3032486Y-3175000D01*
G01X3032486Y-3175000D01*
G01X2491701Y-3175000D01*
G01X2491701Y-3017111D01*
G01X2490489Y-3006336D01*
G01X2486914Y-2996098D01*
G01X2486914Y-2920294D01*
G01X2529835Y-2920294D01*
G01X2531762Y-2936164D01*
G01X2537431Y-2951112D01*
G01X2546512Y-2964268D01*
G01X2558478Y-2974870D01*
G01X2572634Y-2982299D01*
G01X2588156Y-2986125D01*
G01X2604142Y-2986125D01*
G01X2619664Y-2982299D01*
G01X2633820Y-2974870D01*
G01X2645786Y-2964268D01*
G01X2654867Y-2951112D01*
G01X2660536Y-2936164D01*
G01X2662463Y-2920294D01*
G01X2660536Y-2904424D01*
G01X2654867Y-2889476D01*
G01X2645786Y-2876320D01*
G01X2633820Y-2865719D01*
G01X2619664Y-2858289D01*
G01X2604142Y-2854464D01*
G01X2588156Y-2854464D01*
G01X2572634Y-2858289D01*
G01X2558478Y-2865719D01*
G01X2546512Y-2876320D01*
G01X2537431Y-2889476D01*
G01X2531762Y-2904424D01*
G01X2529835Y-2920294D01*
G01X2529835Y-2920294D01*
G01X2486914Y-2920294D01*
G01X2486914Y-2458495D01*
G01X2662003Y-2283406D01*
G01X2667000Y-2283756D01*
G01X2870200Y-2283756D01*
G01X2881267Y-2282003D01*
G01X2891251Y-2276916D01*
G01X2899174Y-2268993D01*
G01X2904261Y-2259009D01*
G01X2906014Y-2247942D01*
G01X2906014Y-2045117D01*
G01X3676358Y-2045117D01*
G01X4282720Y-2651480D01*
G01X4295724Y-2662152D01*
G01X4310560Y-2670082D01*
G01X4326659Y-2674965D01*
G01X4343400Y-2676614D01*
G01X4425688Y-2676614D01*
G01X4439169Y-2686050D01*
G01X4453898Y-2693386D01*
G01X4453178Y-2693386D01*
G01X4442022Y-2694686D01*
G01X4394200Y-2694686D01*
G01X4381644Y-2696339D01*
G01X4369943Y-2701186D01*
G01X4359895Y-2708895D01*
G01X4258295Y-2810495D01*
G01X4250586Y-2820543D01*
G01X4245739Y-2832244D01*
G01X4244086Y-2844800D01*
G01X4244086Y-3891505D01*
G01X4178900Y-3956690D01*
G01X4171191Y-3966738D01*
G01X4166344Y-3978439D01*
G01X4164691Y-3990995D01*
G01X4164691Y-4301385D01*
G01X4155593Y-4313756D01*
G01X4149584Y-4327889D01*
G01X4146987Y-4343024D01*
G01X4147941Y-4358351D01*
G01X4152395Y-4373048D01*
G01X4160110Y-4386326D01*
G01X4170673Y-4397473D01*
G01X4183516Y-4405892D01*
G01X4197952Y-4411131D01*
G01X4213205Y-4412909D01*
G01X4228458Y-4411131D01*
G01X4242894Y-4405892D01*
G01X4255737Y-4397473D01*
G01X4266299Y-4386326D01*
G01X4274015Y-4373048D01*
G01X4278469Y-4358351D01*
G01X4279423Y-4343024D01*
G01X4276826Y-4327889D01*
G01X4270817Y-4313756D01*
G01X4261719Y-4301385D01*
G01X4261719Y-4011090D01*
G01X4326905Y-3945905D01*
G01X4334614Y-3935857D01*
G01X4339461Y-3924156D01*
G01X4341114Y-3911600D01*
G01X4341114Y-3850575D01*
G01X4385459Y-3850575D01*
G01X4385459Y-3871025D01*
G01X4389216Y-3891126D01*
G01X4396604Y-3910194D01*
G01X4407369Y-3927580D01*
G01X4421145Y-3942692D01*
G01X4437464Y-3955016D01*
G01X4455769Y-3964131D01*
G01X4475438Y-3969727D01*
G01X4495800Y-3971614D01*
G01X4516162Y-3969727D01*
G01X4535831Y-3964131D01*
G01X4554136Y-3955016D01*
G01X4570455Y-3942692D01*
G01X4584231Y-3927580D01*
G01X4594996Y-3910194D01*
G01X4602384Y-3891126D01*
G01X4606141Y-3871025D01*
G01X4606141Y-3850575D01*
G01X4602384Y-3830474D01*
G01X4594996Y-3811406D01*
G01X4584231Y-3794020D01*
G01X4570455Y-3778908D01*
G01X4554136Y-3766584D01*
G01X4535831Y-3757469D01*
G01X4516162Y-3751873D01*
G01X4495800Y-3749986D01*
G01X4495800Y-3749986D01*
G01X4475438Y-3751873D01*
G01X4455769Y-3757469D01*
G01X4437464Y-3766584D01*
G01X4421145Y-3778908D01*
G01X4407369Y-3794020D01*
G01X4396604Y-3811406D01*
G01X4389216Y-3830474D01*
G01X4385459Y-3850575D01*
G01X4341114Y-3850575D01*
G01X4341114Y-3596575D01*
G01X4385459Y-3596575D01*
G01X4385459Y-3617025D01*
G01X4389216Y-3637126D01*
G01X4396604Y-3656194D01*
G01X4407369Y-3673580D01*
G01X4421145Y-3688692D01*
G01X4437464Y-3701016D01*
G01X4455769Y-3710131D01*
G01X4475438Y-3715727D01*
G01X4495800Y-3717614D01*
G01X4516162Y-3715727D01*
G01X4535831Y-3710131D01*
G01X4554136Y-3701016D01*
G01X4570455Y-3688692D01*
G01X4584231Y-3673580D01*
G01X4594996Y-3656194D01*
G01X4602384Y-3637126D01*
G01X4606141Y-3617025D01*
G01X4606141Y-3596575D01*
G01X4602384Y-3576474D01*
G01X4594996Y-3557406D01*
G01X4584231Y-3540020D01*
G01X4570455Y-3524908D01*
G01X4554136Y-3512584D01*
G01X4535831Y-3503469D01*
G01X4516162Y-3497873D01*
G01X4495800Y-3495986D01*
G01X4495800Y-3495986D01*
G01X4475438Y-3497873D01*
G01X4455769Y-3503469D01*
G01X4437464Y-3512584D01*
G01X4421145Y-3524908D01*
G01X4407369Y-3540020D01*
G01X4396604Y-3557406D01*
G01X4389216Y-3576474D01*
G01X4385459Y-3596575D01*
G01X4341114Y-3596575D01*
G01X4341114Y-3088575D01*
G01X4385459Y-3088575D01*
G01X4385459Y-3109025D01*
G01X4389216Y-3129126D01*
G01X4396604Y-3148194D01*
G01X4407369Y-3165580D01*
G01X4421145Y-3180692D01*
G01X4437464Y-3193016D01*
G01X4455769Y-3202131D01*
G01X4475438Y-3207727D01*
G01X4495800Y-3209614D01*
G01X4516162Y-3207727D01*
G01X4535831Y-3202131D01*
G01X4554136Y-3193016D01*
G01X4570455Y-3180692D01*
G01X4584231Y-3165580D01*
G01X4594996Y-3148194D01*
G01X4602384Y-3129126D01*
G01X4606141Y-3109025D01*
G01X4606141Y-3088575D01*
G01X4602384Y-3068474D01*
G01X4594996Y-3049406D01*
G01X4584231Y-3032020D01*
G01X4570455Y-3016908D01*
G01X4554136Y-3004584D01*
G01X4535831Y-2995469D01*
G01X4516162Y-2989873D01*
G01X4495800Y-2987986D01*
G01X4495800Y-2987986D01*
G01X4475438Y-2989873D01*
G01X4455769Y-2995469D01*
G01X4437464Y-3004584D01*
G01X4421145Y-3016908D01*
G01X4407369Y-3032020D01*
G01X4396604Y-3049406D01*
G01X4389216Y-3068474D01*
G01X4385459Y-3088575D01*
G01X4341114Y-3088575D01*
G01X4341114Y-2864895D01*
G01X4414295Y-2791714D01*
G01X4451878Y-2791714D01*
G01X4463033Y-2790414D01*
G01X4528567Y-2790414D01*
G01X4539722Y-2791714D01*
G01X4546600Y-2791714D01*
G01X4559156Y-2790061D01*
G01X4570857Y-2785214D01*
G01X4580905Y-2777505D01*
G01X4682505Y-2675905D01*
G01X4690214Y-2665857D01*
G01X4695061Y-2654156D01*
G01X4696714Y-2641600D01*
G01X4696714Y-2489200D01*
G01X4695061Y-2476644D01*
G01X4690214Y-2464943D01*
G01X4682505Y-2454895D01*
G01X4656612Y-2429003D01*
G01X4656612Y-2209800D01*
G01X4654860Y-2198733D01*
G01X4649773Y-2188749D01*
G01X4641849Y-2180826D01*
G01X4631866Y-2175739D01*
G01X4620798Y-2173986D01*
G01X4454345Y-2173986D01*
G01X4055541Y-1775181D01*
G01X4076652Y-1775249D01*
G01X4097401Y-1771353D01*
G01X4117050Y-1763634D01*
G01X4134902Y-1752365D01*
G01X4150323Y-1737947D01*
G01X4162765Y-1720891D01*
G01X4171785Y-1701804D01*
G01X4177064Y-1681364D01*
G01X4178413Y-1660296D01*
G01X4177544Y-1653365D01*
G01X4208915Y-1653365D01*
G01X4208915Y-1674035D01*
G01X4212713Y-1694354D01*
G01X4220180Y-1713629D01*
G01X4231062Y-1731204D01*
G01X4244988Y-1746479D01*
G01X4261483Y-1758936D01*
G01X4279987Y-1768150D01*
G01X4299869Y-1773807D01*
G01X4320451Y-1775714D01*
G01X4341034Y-1773807D01*
G01X4360915Y-1768150D01*
G01X4379419Y-1758936D01*
G01X4395914Y-1746479D01*
G01X4409840Y-1731204D01*
G01X4420722Y-1713629D01*
G01X4428189Y-1694354D01*
G01X4431987Y-1674035D01*
G01X4431987Y-1653365D01*
G01X4428189Y-1633046D01*
G01X4420722Y-1613771D01*
G01X4409840Y-1596196D01*
G01X4395914Y-1580921D01*
G01X4379419Y-1568464D01*
G01X4360915Y-1559250D01*
G01X4341034Y-1553593D01*
G01X4320451Y-1551686D01*
G01X4320451Y-1551686D01*
G01X4299869Y-1553593D01*
G01X4279987Y-1559250D01*
G01X4261483Y-1568464D01*
G01X4244988Y-1580921D01*
G01X4231062Y-1596196D01*
G01X4220180Y-1613771D01*
G01X4212713Y-1633046D01*
G01X4208915Y-1653365D01*
G01X4177544Y-1653365D01*
G01X4175786Y-1639348D01*
G01X4169275Y-1619266D01*
G01X4159112Y-1600762D01*
G01X4145657Y-1584494D01*
G01X4129389Y-1571039D01*
G01X4110885Y-1560876D01*
G01X4090803Y-1554365D01*
G01X4069856Y-1551738D01*
G01X4048787Y-1553087D01*
G01X4028347Y-1558366D01*
G01X4009260Y-1567387D01*
G01X3992204Y-1579828D01*
G01X3977786Y-1595249D01*
G01X3966517Y-1613101D01*
G01X3958798Y-1632750D01*
G01X3954903Y-1653499D01*
G01X3954970Y-1674610D01*
G01X2956814Y-676455D01*
G01X2956814Y-637365D01*
G01X3954915Y-637365D01*
G01X3954915Y-658035D01*
G01X3958713Y-678354D01*
G01X3966180Y-697629D01*
G01X3977062Y-715204D01*
G01X3990988Y-730479D01*
G01X4007483Y-742936D01*
G01X4025987Y-752150D01*
G01X4045869Y-757807D01*
G01X4066451Y-759714D01*
G01X4087034Y-757807D01*
G01X4106915Y-752150D01*
G01X4125419Y-742936D01*
G01X4141914Y-730479D01*
G01X4155840Y-715204D01*
G01X4166722Y-697629D01*
G01X4174189Y-678354D01*
G01X4177987Y-658035D01*
G01X4177987Y-637365D01*
G01X4177987Y-637365D01*
G01X4208915Y-637365D01*
G01X4208915Y-658035D01*
G01X4212713Y-678354D01*
G01X4220180Y-697629D01*
G01X4231062Y-715204D01*
G01X4244988Y-730479D01*
G01X4261483Y-742936D01*
G01X4279987Y-752150D01*
G01X4299869Y-757807D01*
G01X4320451Y-759714D01*
G01X4341034Y-757807D01*
G01X4360915Y-752150D01*
G01X4379419Y-742936D01*
G01X4395914Y-730479D01*
G01X4409840Y-715204D01*
G01X4420722Y-697629D01*
G01X4428189Y-678354D01*
G01X4431987Y-658035D01*
G01X4431987Y-637365D01*
G01X4428189Y-617046D01*
G01X4420722Y-597771D01*
G01X4409840Y-580196D01*
G01X4395914Y-564921D01*
G01X4379419Y-552464D01*
G01X4360915Y-543250D01*
G01X4341034Y-537593D01*
G01X4320451Y-535686D01*
G01X4320451Y-535686D01*
G01X4299869Y-537593D01*
G01X4279987Y-543250D01*
G01X4261483Y-552464D01*
G01X4244988Y-564921D01*
G01X4231062Y-580196D01*
G01X4220180Y-597771D01*
G01X4212713Y-617046D01*
G01X4208915Y-637365D01*
G01X4177987Y-637365D01*
G01X4174189Y-617046D01*
G01X4166722Y-597771D01*
G01X4155840Y-580196D01*
G01X4141914Y-564921D01*
G01X4125419Y-552464D01*
G01X4106915Y-543250D01*
G01X4087034Y-537593D01*
G01X4066451Y-535686D01*
G01X4066451Y-535686D01*
G01X4045869Y-537593D01*
G01X4025987Y-543250D01*
G01X4007483Y-552464D01*
G01X3990988Y-564921D01*
G01X3977062Y-580196D01*
G01X3966180Y-597771D01*
G01X3958713Y-617046D01*
G01X3954915Y-637365D01*
G01X2956814Y-637365D01*
G01X2956814Y-50800D01*
G01X2955983Y-43129D01*
G01X2953528Y-35814D01*
G01X4764186Y-35814D01*
G01X4764186Y-10962640D01*
G01X35814Y-10962640D01*
G01X35814Y-10718800D01*
G01X1691386Y-10718800D01*
G01X1693150Y-10738599D01*
G01X1698385Y-10757774D01*
G01X1706927Y-10775722D01*
G01X1718507Y-10791877D01*
G01X1732760Y-10805732D01*
G01X1749237Y-10816849D01*
G01X1767420Y-10824878D01*
G01X1786736Y-10829568D01*
G01X1806577Y-10830769D01*
G01X1826317Y-10828445D01*
G01X1845336Y-10822668D01*
G01X1863035Y-10813620D01*
G01X1878855Y-10801587D01*
G01X1892300Y-10786946D01*
G01X1906215Y-10802013D01*
G01X1922645Y-10814290D01*
G01X1941037Y-10823366D01*
G01X1960776Y-10828936D01*
G01X1981200Y-10830814D01*
G01X2001624Y-10828936D01*
G01X2021363Y-10823366D01*
G01X2039755Y-10814290D01*
G01X2056185Y-10802013D01*
G01X2070100Y-10786946D01*
G01X2084015Y-10802013D01*
G01X2100445Y-10814290D01*
G01X2118837Y-10823366D01*
G01X2138576Y-10828936D01*
G01X2159000Y-10830814D01*
G01X2179424Y-10828936D01*
G01X2199163Y-10823366D01*
G01X2217555Y-10814290D01*
G01X2233985Y-10802013D01*
G01X2247900Y-10786946D01*
G01X2261815Y-10802013D01*
G01X2278245Y-10814290D01*
G01X2296637Y-10823366D01*
G01X2316376Y-10828936D01*
G01X2336800Y-10830814D01*
G01X2357224Y-10828936D01*
G01X2376963Y-10823366D01*
G01X2395355Y-10814290D01*
G01X2411785Y-10802013D01*
G01X2425700Y-10786946D01*
G01X2439145Y-10801587D01*
G01X2454965Y-10813620D01*
G01X2472664Y-10822668D01*
G01X2491683Y-10828445D01*
G01X2511423Y-10830769D01*
G01X2531264Y-10829568D01*
G01X2550580Y-10824878D01*
G01X2568763Y-10816849D01*
G01X2585240Y-10805732D01*
G01X2599493Y-10791877D01*
G01X2611073Y-10775722D01*
G01X2619615Y-10757774D01*
G01X2624850Y-10738599D01*
G01X2626614Y-10718800D01*
G01X2758186Y-10718800D01*
G01X2760093Y-10739383D01*
G01X2765750Y-10759264D01*
G01X2774964Y-10777768D01*
G01X2787421Y-10794263D01*
G01X2802696Y-10808189D01*
G01X2820271Y-10819071D01*
G01X2839546Y-10826538D01*
G01X2859865Y-10830336D01*
G01X2880535Y-10830336D01*
G01X2900854Y-10826538D01*
G01X2920129Y-10819071D01*
G01X2937704Y-10808189D01*
G01X2952979Y-10794263D01*
G01X2965436Y-10777768D01*
G01X2974650Y-10759264D01*
G01X2980307Y-10739383D01*
G01X2982214Y-10718800D01*
G01X2982214Y-10718800D01*
G01X2980307Y-10698217D01*
G01X2974650Y-10678336D01*
G01X2965436Y-10659832D01*
G01X2952979Y-10643337D01*
G01X2937704Y-10629411D01*
G01X2920129Y-10618529D01*
G01X2900854Y-10611062D01*
G01X2880535Y-10607264D01*
G01X2859865Y-10607264D01*
G01X2839546Y-10611062D01*
G01X2820271Y-10618529D01*
G01X2802696Y-10629411D01*
G01X2787421Y-10643337D01*
G01X2774964Y-10659832D01*
G01X2765750Y-10678336D01*
G01X2760093Y-10698217D01*
G01X2758186Y-10718800D01*
G01X2626614Y-10718800D01*
G01X2624850Y-10699001D01*
G01X2619615Y-10679826D01*
G01X2611073Y-10661878D01*
G01X2599493Y-10645723D01*
G01X2585240Y-10631868D01*
G01X2568763Y-10620751D01*
G01X2550580Y-10612722D01*
G01X2531264Y-10608032D01*
G01X2511423Y-10606831D01*
G01X2491683Y-10609155D01*
G01X2472664Y-10614932D01*
G01X2454965Y-10623980D01*
G01X2439145Y-10636013D01*
G01X2425700Y-10650654D01*
G01X2411785Y-10635587D01*
G01X2395355Y-10623310D01*
G01X2376963Y-10614234D01*
G01X2357224Y-10608664D01*
G01X2336800Y-10606786D01*
G01X2316376Y-10608664D01*
G01X2296637Y-10614234D01*
G01X2278245Y-10623310D01*
G01X2261815Y-10635587D01*
G01X2247900Y-10650654D01*
G01X2247900Y-10650654D01*
G01X2233985Y-10635587D01*
G01X2217555Y-10623310D01*
G01X2199163Y-10614234D01*
G01X2179424Y-10608664D01*
G01X2159000Y-10606786D01*
G01X2138576Y-10608664D01*
G01X2118837Y-10614234D01*
G01X2100445Y-10623310D01*
G01X2084015Y-10635587D01*
G01X2070100Y-10650654D01*
G01X2056185Y-10635587D01*
G01X2039755Y-10623310D01*
G01X2021363Y-10614234D01*
G01X2001624Y-10608664D01*
G01X1981200Y-10606786D01*
G01X1960776Y-10608664D01*
G01X1941037Y-10614234D01*
G01X1922645Y-10623310D01*
G01X1906215Y-10635587D01*
G01X1892300Y-10650654D01*
G01X1878855Y-10636013D01*
G01X1863035Y-10623980D01*
G01X1845336Y-10614932D01*
G01X1826317Y-10609155D01*
G01X1806577Y-10606831D01*
G01X1786736Y-10608032D01*
G01X1767420Y-10612722D01*
G01X1749237Y-10620751D01*
G01X1732760Y-10631868D01*
G01X1718507Y-10645723D01*
G01X1706927Y-10661878D01*
G01X1698385Y-10679826D01*
G01X1693150Y-10699001D01*
G01X1691386Y-10718800D01*
G01X35814Y-10718800D01*
G01X35814Y-9956400D01*
G01X3853786Y-9956400D01*
G01X3855621Y-9977379D01*
G01X3861072Y-9997721D01*
G01X3869972Y-10016807D01*
G01X3882051Y-10034058D01*
G01X3896942Y-10048949D01*
G01X3914193Y-10061028D01*
G01X3933279Y-10069928D01*
G01X3953621Y-10075378D01*
G01X3974600Y-10077214D01*
G01X3995579Y-10075378D01*
G01X4015921Y-10069928D01*
G01X4035007Y-10061028D01*
G01X4052258Y-10048949D01*
G01X4067149Y-10034058D01*
G01X4079228Y-10016807D01*
G01X4088128Y-9997721D01*
G01X4093578Y-9977379D01*
G01X4095414Y-9956400D01*
G01X4095414Y-9956400D01*
G01X4093578Y-9935421D01*
G01X4088128Y-9915079D01*
G01X4079228Y-9895993D01*
G01X4067149Y-9878742D01*
G01X4052258Y-9863851D01*
G01X4035007Y-9851772D01*
G01X4015921Y-9842872D01*
G01X3995579Y-9837421D01*
G01X3974600Y-9835586D01*
G01X3953621Y-9837421D01*
G01X3933279Y-9842872D01*
G01X3914193Y-9851772D01*
G01X3896942Y-9863851D01*
G01X3882051Y-9878742D01*
G01X3869972Y-9895993D01*
G01X3861072Y-9915079D01*
G01X3855621Y-9935421D01*
G01X3853786Y-9956400D01*
G01X35814Y-9956400D01*
G01X35814Y-9529773D01*
G01X266120Y-9760080D01*
G01X279124Y-9770752D01*
G01X293960Y-9778682D01*
G01X310058Y-9783565D01*
G01X326800Y-9785214D01*
G01X842559Y-9785214D01*
G01X858653Y-9798608D01*
G01X876817Y-9809023D01*
G01X896507Y-9816144D01*
G01X917131Y-9819759D01*
G01X938069Y-9819759D01*
G01X958693Y-9816144D01*
G01X978383Y-9809023D01*
G01X996547Y-9798608D01*
G01X1012641Y-9785214D01*
G01X1096559Y-9785214D01*
G01X1113386Y-9799114D01*
G01X1132438Y-9809759D01*
G01X1153096Y-9816803D01*
G01X1174683Y-9820016D01*
G01X1196496Y-9819292D01*
G01X1217823Y-9814656D01*
G01X1237968Y-9806258D01*
G01X1256274Y-9794373D01*
G01X1272142Y-9779388D01*
G01X1285055Y-9761794D01*
G01X1294593Y-9742163D01*
G01X1300442Y-9721136D01*
G01X1302142Y-9702400D01*
G01X3853786Y-9702400D01*
G01X3855621Y-9723379D01*
G01X3861072Y-9743721D01*
G01X3869972Y-9762807D01*
G01X3882051Y-9780058D01*
G01X3896942Y-9794949D01*
G01X3914193Y-9807028D01*
G01X3933279Y-9815928D01*
G01X3953621Y-9821378D01*
G01X3974600Y-9823214D01*
G01X3995579Y-9821378D01*
G01X4015921Y-9815928D01*
G01X4035007Y-9807028D01*
G01X4052258Y-9794949D01*
G01X4067149Y-9780058D01*
G01X4079228Y-9762807D01*
G01X4088128Y-9743721D01*
G01X4093578Y-9723379D01*
G01X4095414Y-9702400D01*
G01X4095414Y-9702400D01*
G01X4093578Y-9681421D01*
G01X4088128Y-9661079D01*
G01X4079228Y-9641993D01*
G01X4067149Y-9624742D01*
G01X4052258Y-9609851D01*
G01X4035007Y-9597772D01*
G01X4015921Y-9588872D01*
G01X3995579Y-9583421D01*
G01X3974600Y-9581586D01*
G01X3953621Y-9583421D01*
G01X3933279Y-9588872D01*
G01X3914193Y-9597772D01*
G01X3896942Y-9609851D01*
G01X3882051Y-9624742D01*
G01X3869972Y-9641993D01*
G01X3861072Y-9661079D01*
G01X3855621Y-9681421D01*
G01X3853786Y-9702400D01*
G01X1302142Y-9702400D01*
G01X1302414Y-9699400D01*
G01X1300442Y-9677664D01*
G01X1294593Y-9656637D01*
G01X1285055Y-9637006D01*
G01X1272142Y-9619411D01*
G01X1256274Y-9604427D01*
G01X1237968Y-9592542D01*
G01X1217823Y-9584144D01*
G01X1196496Y-9579508D01*
G01X1174683Y-9578784D01*
G01X1153096Y-9581997D01*
G01X1132438Y-9589041D01*
G01X1113386Y-9599686D01*
G01X1096559Y-9613586D01*
G01X1012641Y-9613586D01*
G01X996547Y-9600192D01*
G01X978383Y-9589777D01*
G01X958693Y-9582656D01*
G01X938069Y-9579040D01*
G01X917131Y-9579040D01*
G01X896507Y-9582656D01*
G01X876817Y-9589777D01*
G01X858653Y-9600192D01*
G01X842559Y-9613586D01*
G01X362345Y-9613586D01*
G01X194160Y-9445400D01*
G01X806786Y-9445400D01*
G01X808621Y-9466379D01*
G01X814072Y-9486721D01*
G01X822972Y-9505807D01*
G01X835051Y-9523058D01*
G01X849942Y-9537949D01*
G01X867193Y-9550028D01*
G01X886279Y-9558928D01*
G01X906621Y-9564378D01*
G01X927600Y-9566214D01*
G01X948579Y-9564378D01*
G01X968921Y-9558928D01*
G01X988007Y-9550028D01*
G01X1005258Y-9537949D01*
G01X1020149Y-9523058D01*
G01X1032228Y-9505807D01*
G01X1041128Y-9486721D01*
G01X1046578Y-9466379D01*
G01X1048414Y-9445400D01*
G01X1048414Y-9445400D01*
G01X1060786Y-9445400D01*
G01X1062621Y-9466379D01*
G01X1068072Y-9486721D01*
G01X1076972Y-9505807D01*
G01X1089051Y-9523058D01*
G01X1103942Y-9537949D01*
G01X1121193Y-9550028D01*
G01X1140279Y-9558928D01*
G01X1160621Y-9564378D01*
G01X1181600Y-9566214D01*
G01X1202579Y-9564378D01*
G01X1222921Y-9558928D01*
G01X1242007Y-9550028D01*
G01X1259258Y-9537949D01*
G01X1274149Y-9523058D01*
G01X1286228Y-9505807D01*
G01X1295128Y-9486721D01*
G01X1300578Y-9466379D01*
G01X1302414Y-9445400D01*
G01X1302414Y-9445400D01*
G01X1300578Y-9424421D01*
G01X1295128Y-9404079D01*
G01X1286228Y-9384993D01*
G01X1274149Y-9367742D01*
G01X1259258Y-9352851D01*
G01X1242007Y-9340772D01*
G01X1222921Y-9331872D01*
G01X1202579Y-9326421D01*
G01X1181600Y-9324586D01*
G01X1160621Y-9326421D01*
G01X1140279Y-9331872D01*
G01X1121193Y-9340772D01*
G01X1103942Y-9352851D01*
G01X1089051Y-9367742D01*
G01X1076972Y-9384993D01*
G01X1068072Y-9404079D01*
G01X1062621Y-9424421D01*
G01X1060786Y-9445400D01*
G01X1048414Y-9445400D01*
G01X1046578Y-9424421D01*
G01X1041128Y-9404079D01*
G01X1032228Y-9384993D01*
G01X1020149Y-9367742D01*
G01X1005258Y-9352851D01*
G01X988007Y-9340772D01*
G01X968921Y-9331872D01*
G01X948579Y-9326421D01*
G01X927600Y-9324586D01*
G01X906621Y-9326421D01*
G01X886279Y-9331872D01*
G01X867193Y-9340772D01*
G01X849942Y-9352851D01*
G01X835051Y-9367742D01*
G01X822972Y-9384993D01*
G01X814072Y-9404079D01*
G01X808621Y-9424421D01*
G01X806786Y-9445400D01*
G01X194160Y-9445400D01*
G01X165814Y-9417055D01*
G01X165814Y-9191400D01*
G01X806786Y-9191400D01*
G01X808621Y-9212379D01*
G01X814072Y-9232721D01*
G01X822972Y-9251807D01*
G01X835051Y-9269058D01*
G01X849942Y-9283949D01*
G01X867193Y-9296028D01*
G01X886279Y-9304928D01*
G01X906621Y-9310378D01*
G01X927600Y-9312214D01*
G01X948579Y-9310378D01*
G01X968921Y-9304928D01*
G01X988007Y-9296028D01*
G01X1005258Y-9283949D01*
G01X1020149Y-9269058D01*
G01X1032228Y-9251807D01*
G01X1041128Y-9232721D01*
G01X1046578Y-9212379D01*
G01X1048414Y-9191400D01*
G01X1048414Y-9191400D01*
G01X1060786Y-9191400D01*
G01X1062621Y-9212379D01*
G01X1068072Y-9232721D01*
G01X1076972Y-9251807D01*
G01X1089051Y-9269058D01*
G01X1103942Y-9283949D01*
G01X1121193Y-9296028D01*
G01X1140279Y-9304928D01*
G01X1160621Y-9310378D01*
G01X1181600Y-9312214D01*
G01X1202579Y-9310378D01*
G01X1222921Y-9304928D01*
G01X1242007Y-9296028D01*
G01X1259258Y-9283949D01*
G01X1274149Y-9269058D01*
G01X1286228Y-9251807D01*
G01X1295128Y-9232721D01*
G01X1300578Y-9212379D01*
G01X1302414Y-9191400D01*
G01X1302414Y-9191400D01*
G01X1300578Y-9170421D01*
G01X1295128Y-9150079D01*
G01X1286228Y-9130993D01*
G01X1274149Y-9113742D01*
G01X1259258Y-9098851D01*
G01X1242007Y-9086772D01*
G01X1222921Y-9077872D01*
G01X1202579Y-9072421D01*
G01X1181600Y-9070586D01*
G01X1160621Y-9072421D01*
G01X1140279Y-9077872D01*
G01X1121193Y-9086772D01*
G01X1103942Y-9098851D01*
G01X1089051Y-9113742D01*
G01X1076972Y-9130993D01*
G01X1068072Y-9150079D01*
G01X1062621Y-9170421D01*
G01X1060786Y-9191400D01*
G01X1048414Y-9191400D01*
G01X1046578Y-9170421D01*
G01X1041128Y-9150079D01*
G01X1032228Y-9130993D01*
G01X1020149Y-9113742D01*
G01X1005258Y-9098851D01*
G01X988007Y-9086772D01*
G01X968921Y-9077872D01*
G01X948579Y-9072421D01*
G01X927600Y-9070586D01*
G01X906621Y-9072421D01*
G01X886279Y-9077872D01*
G01X867193Y-9086772D01*
G01X849942Y-9098851D01*
G01X835051Y-9113742D01*
G01X822972Y-9130993D01*
G01X814072Y-9150079D01*
G01X808621Y-9170421D01*
G01X806786Y-9191400D01*
G01X165814Y-9191400D01*
G01X165814Y-8937400D01*
G01X806786Y-8937400D01*
G01X808621Y-8958379D01*
G01X814072Y-8978721D01*
G01X822972Y-8997807D01*
G01X835051Y-9015058D01*
G01X849942Y-9029949D01*
G01X867193Y-9042028D01*
G01X886279Y-9050928D01*
G01X906621Y-9056378D01*
G01X927600Y-9058214D01*
G01X948579Y-9056378D01*
G01X968921Y-9050928D01*
G01X988007Y-9042028D01*
G01X1005258Y-9029949D01*
G01X1020149Y-9015058D01*
G01X1032228Y-8997807D01*
G01X1041128Y-8978721D01*
G01X1046578Y-8958379D01*
G01X1048414Y-8937400D01*
G01X1048414Y-8937400D01*
G01X1060786Y-8937400D01*
G01X1062621Y-8958379D01*
G01X1068072Y-8978721D01*
G01X1076972Y-8997807D01*
G01X1089051Y-9015058D01*
G01X1103942Y-9029949D01*
G01X1121193Y-9042028D01*
G01X1140279Y-9050928D01*
G01X1160621Y-9056378D01*
G01X1181600Y-9058214D01*
G01X1202579Y-9056378D01*
G01X1222921Y-9050928D01*
G01X1242007Y-9042028D01*
G01X1259258Y-9029949D01*
G01X1274149Y-9015058D01*
G01X1286228Y-8997807D01*
G01X1295128Y-8978721D01*
G01X1300578Y-8958379D01*
G01X1302414Y-8937400D01*
G01X1302414Y-8937400D01*
G01X1300578Y-8916421D01*
G01X1295128Y-8896079D01*
G01X1286228Y-8876993D01*
G01X1274149Y-8859742D01*
G01X1259258Y-8844851D01*
G01X1242007Y-8832772D01*
G01X1222921Y-8823872D01*
G01X1202579Y-8818421D01*
G01X1181600Y-8816586D01*
G01X1160621Y-8818421D01*
G01X1140279Y-8823872D01*
G01X1121193Y-8832772D01*
G01X1103942Y-8844851D01*
G01X1089051Y-8859742D01*
G01X1076972Y-8876993D01*
G01X1068072Y-8896079D01*
G01X1062621Y-8916421D01*
G01X1060786Y-8937400D01*
G01X1048414Y-8937400D01*
G01X1046578Y-8916421D01*
G01X1041128Y-8896079D01*
G01X1032228Y-8876993D01*
G01X1020149Y-8859742D01*
G01X1005258Y-8844851D01*
G01X988007Y-8832772D01*
G01X968921Y-8823872D01*
G01X948579Y-8818421D01*
G01X927600Y-8816586D01*
G01X906621Y-8818421D01*
G01X886279Y-8823872D01*
G01X867193Y-8832772D01*
G01X849942Y-8844851D01*
G01X835051Y-8859742D01*
G01X822972Y-8876993D01*
G01X814072Y-8896079D01*
G01X808621Y-8916421D01*
G01X806786Y-8937400D01*
G01X165814Y-8937400D01*
G01X165814Y-8683400D01*
G01X806786Y-8683400D01*
G01X808621Y-8704379D01*
G01X814072Y-8724721D01*
G01X822972Y-8743807D01*
G01X835051Y-8761058D01*
G01X849942Y-8775949D01*
G01X867193Y-8788028D01*
G01X886279Y-8796928D01*
G01X906621Y-8802378D01*
G01X927600Y-8804214D01*
G01X948579Y-8802378D01*
G01X968921Y-8796928D01*
G01X988007Y-8788028D01*
G01X1005258Y-8775949D01*
G01X1020149Y-8761058D01*
G01X1032228Y-8743807D01*
G01X1041128Y-8724721D01*
G01X1046578Y-8704379D01*
G01X1048414Y-8683400D01*
G01X1048414Y-8683400D01*
G01X1060786Y-8683400D01*
G01X1062621Y-8704379D01*
G01X1068072Y-8724721D01*
G01X1076972Y-8743807D01*
G01X1089051Y-8761058D01*
G01X1103942Y-8775949D01*
G01X1121193Y-8788028D01*
G01X1140279Y-8796928D01*
G01X1160621Y-8802378D01*
G01X1181600Y-8804214D01*
G01X1202579Y-8802378D01*
G01X1222921Y-8796928D01*
G01X1242007Y-8788028D01*
G01X1259258Y-8775949D01*
G01X1274149Y-8761058D01*
G01X1286228Y-8743807D01*
G01X1295128Y-8724721D01*
G01X1300578Y-8704379D01*
G01X1302414Y-8683400D01*
G01X1302414Y-8683400D01*
G01X1300578Y-8662421D01*
G01X1295128Y-8642079D01*
G01X1286228Y-8622993D01*
G01X1274149Y-8605742D01*
G01X1259258Y-8590851D01*
G01X1242007Y-8578772D01*
G01X1222921Y-8569872D01*
G01X1202579Y-8564421D01*
G01X1181600Y-8562586D01*
G01X1160621Y-8564421D01*
G01X1140279Y-8569872D01*
G01X1121193Y-8578772D01*
G01X1103942Y-8590851D01*
G01X1089051Y-8605742D01*
G01X1076972Y-8622993D01*
G01X1068072Y-8642079D01*
G01X1062621Y-8662421D01*
G01X1060786Y-8683400D01*
G01X1048414Y-8683400D01*
G01X1046578Y-8662421D01*
G01X1041128Y-8642079D01*
G01X1032228Y-8622993D01*
G01X1020149Y-8605742D01*
G01X1005258Y-8590851D01*
G01X988007Y-8578772D01*
G01X968921Y-8569872D01*
G01X948579Y-8564421D01*
G01X927600Y-8562586D01*
G01X906621Y-8564421D01*
G01X886279Y-8569872D01*
G01X867193Y-8578772D01*
G01X849942Y-8590851D01*
G01X835051Y-8605742D01*
G01X822972Y-8622993D01*
G01X814072Y-8642079D01*
G01X808621Y-8662421D01*
G01X806786Y-8683400D01*
G01X165814Y-8683400D01*
G01X165814Y-8429400D01*
G01X806786Y-8429400D01*
G01X808621Y-8450379D01*
G01X814072Y-8470721D01*
G01X822972Y-8489807D01*
G01X835051Y-8507058D01*
G01X849942Y-8521949D01*
G01X867193Y-8534028D01*
G01X886279Y-8542928D01*
G01X906621Y-8548378D01*
G01X927600Y-8550214D01*
G01X948579Y-8548378D01*
G01X968921Y-8542928D01*
G01X988007Y-8534028D01*
G01X1005258Y-8521949D01*
G01X1020149Y-8507058D01*
G01X1032228Y-8489807D01*
G01X1041128Y-8470721D01*
G01X1046578Y-8450379D01*
G01X1048414Y-8429400D01*
G01X1048414Y-8429400D01*
G01X1060786Y-8429400D01*
G01X1062621Y-8450379D01*
G01X1068072Y-8470721D01*
G01X1076972Y-8489807D01*
G01X1089051Y-8507058D01*
G01X1103942Y-8521949D01*
G01X1121193Y-8534028D01*
G01X1140279Y-8542928D01*
G01X1160621Y-8548378D01*
G01X1181600Y-8550214D01*
G01X1202579Y-8548378D01*
G01X1222921Y-8542928D01*
G01X1242007Y-8534028D01*
G01X1259258Y-8521949D01*
G01X1274149Y-8507058D01*
G01X1286228Y-8489807D01*
G01X1295128Y-8470721D01*
G01X1300578Y-8450379D01*
G01X1302414Y-8429400D01*
G01X1302414Y-8429400D01*
G01X1300578Y-8408421D01*
G01X1295128Y-8388079D01*
G01X1286228Y-8368993D01*
G01X1274149Y-8351742D01*
G01X1259258Y-8336851D01*
G01X1242007Y-8324772D01*
G01X1222921Y-8315872D01*
G01X1202579Y-8310421D01*
G01X1181600Y-8308586D01*
G01X1160621Y-8310421D01*
G01X1140279Y-8315872D01*
G01X1121193Y-8324772D01*
G01X1103942Y-8336851D01*
G01X1089051Y-8351742D01*
G01X1076972Y-8368993D01*
G01X1068072Y-8388079D01*
G01X1062621Y-8408421D01*
G01X1060786Y-8429400D01*
G01X1048414Y-8429400D01*
G01X1046578Y-8408421D01*
G01X1041128Y-8388079D01*
G01X1032228Y-8368993D01*
G01X1020149Y-8351742D01*
G01X1005258Y-8336851D01*
G01X988007Y-8324772D01*
G01X968921Y-8315872D01*
G01X948579Y-8310421D01*
G01X927600Y-8308586D01*
G01X906621Y-8310421D01*
G01X886279Y-8315872D01*
G01X867193Y-8324772D01*
G01X849942Y-8336851D01*
G01X835051Y-8351742D01*
G01X822972Y-8368993D01*
G01X814072Y-8388079D01*
G01X808621Y-8408421D01*
G01X806786Y-8429400D01*
G01X165814Y-8429400D01*
G01X165814Y-8175400D01*
G01X806786Y-8175400D01*
G01X808621Y-8196379D01*
G01X814072Y-8216721D01*
G01X822972Y-8235807D01*
G01X835051Y-8253058D01*
G01X849942Y-8267949D01*
G01X867193Y-8280028D01*
G01X886279Y-8288928D01*
G01X906621Y-8294378D01*
G01X927600Y-8296214D01*
G01X948579Y-8294378D01*
G01X968921Y-8288928D01*
G01X988007Y-8280028D01*
G01X1005258Y-8267949D01*
G01X1020149Y-8253058D01*
G01X1032228Y-8235807D01*
G01X1041128Y-8216721D01*
G01X1046578Y-8196379D01*
G01X1048414Y-8175400D01*
G01X1048414Y-8175400D01*
G01X1060786Y-8175400D01*
G01X1062621Y-8196379D01*
G01X1068072Y-8216721D01*
G01X1076972Y-8235807D01*
G01X1089051Y-8253058D01*
G01X1103942Y-8267949D01*
G01X1121193Y-8280028D01*
G01X1140279Y-8288928D01*
G01X1160621Y-8294378D01*
G01X1181600Y-8296214D01*
G01X1202579Y-8294378D01*
G01X1222921Y-8288928D01*
G01X1242007Y-8280028D01*
G01X1259258Y-8267949D01*
G01X1274149Y-8253058D01*
G01X1286228Y-8235807D01*
G01X1295128Y-8216721D01*
G01X1300578Y-8196379D01*
G01X1302414Y-8175400D01*
G01X1302414Y-8175400D01*
G01X1300578Y-8154421D01*
G01X1295128Y-8134079D01*
G01X1286228Y-8114993D01*
G01X1274149Y-8097742D01*
G01X1259258Y-8082851D01*
G01X1242007Y-8070772D01*
G01X1222921Y-8061872D01*
G01X1202579Y-8056421D01*
G01X1181600Y-8054586D01*
G01X1160621Y-8056421D01*
G01X1140279Y-8061872D01*
G01X1121193Y-8070772D01*
G01X1103942Y-8082851D01*
G01X1089051Y-8097742D01*
G01X1076972Y-8114993D01*
G01X1068072Y-8134079D01*
G01X1062621Y-8154421D01*
G01X1060786Y-8175400D01*
G01X1048414Y-8175400D01*
G01X1046578Y-8154421D01*
G01X1041128Y-8134079D01*
G01X1032228Y-8114993D01*
G01X1020149Y-8097742D01*
G01X1005258Y-8082851D01*
G01X988007Y-8070772D01*
G01X968921Y-8061872D01*
G01X948579Y-8056421D01*
G01X927600Y-8054586D01*
G01X906621Y-8056421D01*
G01X886279Y-8061872D01*
G01X867193Y-8070772D01*
G01X849942Y-8082851D01*
G01X835051Y-8097742D01*
G01X822972Y-8114993D01*
G01X814072Y-8134079D01*
G01X808621Y-8154421D01*
G01X806786Y-8175400D01*
G01X165814Y-8175400D01*
G01X165814Y-7889175D01*
G01X194459Y-7889175D01*
G01X194459Y-7909625D01*
G01X198216Y-7929726D01*
G01X205604Y-7948794D01*
G01X216369Y-7966180D01*
G01X230145Y-7981292D01*
G01X246464Y-7993616D01*
G01X264769Y-8002731D01*
G01X284438Y-8008327D01*
G01X304800Y-8010214D01*
G01X325162Y-8008327D01*
G01X344831Y-8002731D01*
G01X363136Y-7993616D01*
G01X379455Y-7981292D01*
G01X393231Y-7966180D01*
G01X403996Y-7948794D01*
G01X411384Y-7929726D01*
G01X412940Y-7921400D01*
G01X806786Y-7921400D01*
G01X808621Y-7942379D01*
G01X814072Y-7962721D01*
G01X822972Y-7981807D01*
G01X835051Y-7999058D01*
G01X849942Y-8013949D01*
G01X867193Y-8026028D01*
G01X886279Y-8034928D01*
G01X906621Y-8040378D01*
G01X927600Y-8042214D01*
G01X948579Y-8040378D01*
G01X968921Y-8034928D01*
G01X988007Y-8026028D01*
G01X1005258Y-8013949D01*
G01X1020149Y-7999058D01*
G01X1032228Y-7981807D01*
G01X1041128Y-7962721D01*
G01X1046578Y-7942379D01*
G01X1048414Y-7921400D01*
G01X1048414Y-7921400D01*
G01X1060786Y-7921400D01*
G01X1062621Y-7942379D01*
G01X1068072Y-7962721D01*
G01X1076972Y-7981807D01*
G01X1089051Y-7999058D01*
G01X1103942Y-8013949D01*
G01X1121193Y-8026028D01*
G01X1140279Y-8034928D01*
G01X1160621Y-8040378D01*
G01X1181600Y-8042214D01*
G01X1202579Y-8040378D01*
G01X1222921Y-8034928D01*
G01X1242007Y-8026028D01*
G01X1259258Y-8013949D01*
G01X1274149Y-7999058D01*
G01X1286228Y-7981807D01*
G01X1295128Y-7962721D01*
G01X1300578Y-7942379D01*
G01X1302414Y-7921400D01*
G01X1302414Y-7921400D01*
G01X1300578Y-7900421D01*
G01X1295128Y-7880079D01*
G01X1286228Y-7860993D01*
G01X1274149Y-7843742D01*
G01X1259258Y-7828851D01*
G01X1242007Y-7816772D01*
G01X1222921Y-7807872D01*
G01X1202579Y-7802421D01*
G01X1181600Y-7800586D01*
G01X1160621Y-7802421D01*
G01X1140279Y-7807872D01*
G01X1121193Y-7816772D01*
G01X1103942Y-7828851D01*
G01X1089051Y-7843742D01*
G01X1076972Y-7860993D01*
G01X1068072Y-7880079D01*
G01X1062621Y-7900421D01*
G01X1060786Y-7921400D01*
G01X1048414Y-7921400D01*
G01X1046578Y-7900421D01*
G01X1041128Y-7880079D01*
G01X1032228Y-7860993D01*
G01X1020149Y-7843742D01*
G01X1005258Y-7828851D01*
G01X988007Y-7816772D01*
G01X968921Y-7807872D01*
G01X948579Y-7802421D01*
G01X927600Y-7800586D01*
G01X906621Y-7802421D01*
G01X886279Y-7807872D01*
G01X867193Y-7816772D01*
G01X849942Y-7828851D01*
G01X835051Y-7843742D01*
G01X822972Y-7860993D01*
G01X814072Y-7880079D01*
G01X808621Y-7900421D01*
G01X806786Y-7921400D01*
G01X412940Y-7921400D01*
G01X415141Y-7909625D01*
G01X415141Y-7889175D01*
G01X411384Y-7869074D01*
G01X403996Y-7850006D01*
G01X393231Y-7832620D01*
G01X379455Y-7817508D01*
G01X363136Y-7805184D01*
G01X344831Y-7796069D01*
G01X325162Y-7790473D01*
G01X304800Y-7788586D01*
G01X304800Y-7788586D01*
G01X284438Y-7790473D01*
G01X264769Y-7796069D01*
G01X246464Y-7805184D01*
G01X230145Y-7817508D01*
G01X216369Y-7832620D01*
G01X205604Y-7850006D01*
G01X198216Y-7869074D01*
G01X194459Y-7889175D01*
G01X165814Y-7889175D01*
G01X165814Y-7667400D01*
G01X806786Y-7667400D01*
G01X808621Y-7688379D01*
G01X814072Y-7708721D01*
G01X822972Y-7727807D01*
G01X835051Y-7745058D01*
G01X849942Y-7759949D01*
G01X867193Y-7772028D01*
G01X886279Y-7780928D01*
G01X906621Y-7786378D01*
G01X927600Y-7788214D01*
G01X948579Y-7786378D01*
G01X968921Y-7780928D01*
G01X988007Y-7772028D01*
G01X1005258Y-7759949D01*
G01X1020149Y-7745058D01*
G01X1032228Y-7727807D01*
G01X1041128Y-7708721D01*
G01X1046578Y-7688379D01*
G01X1048414Y-7667400D01*
G01X1048414Y-7667400D01*
G01X1060786Y-7667400D01*
G01X1062621Y-7688379D01*
G01X1068072Y-7708721D01*
G01X1076972Y-7727807D01*
G01X1089051Y-7745058D01*
G01X1103942Y-7759949D01*
G01X1121193Y-7772028D01*
G01X1140279Y-7780928D01*
G01X1160621Y-7786378D01*
G01X1181600Y-7788214D01*
G01X1202579Y-7786378D01*
G01X1222921Y-7780928D01*
G01X1242007Y-7772028D01*
G01X1259258Y-7759949D01*
G01X1274149Y-7745058D01*
G01X1286228Y-7727807D01*
G01X1295128Y-7708721D01*
G01X1300578Y-7688379D01*
G01X1302414Y-7667400D01*
G01X1302414Y-7667400D01*
G01X1300578Y-7646421D01*
G01X1295128Y-7626079D01*
G01X1286228Y-7606993D01*
G01X1274149Y-7589742D01*
G01X1259258Y-7574851D01*
G01X1242007Y-7562772D01*
G01X1222921Y-7553872D01*
G01X1202579Y-7548421D01*
G01X1181600Y-7546586D01*
G01X1160621Y-7548421D01*
G01X1140279Y-7553872D01*
G01X1121193Y-7562772D01*
G01X1103942Y-7574851D01*
G01X1089051Y-7589742D01*
G01X1076972Y-7606993D01*
G01X1068072Y-7626079D01*
G01X1062621Y-7646421D01*
G01X1060786Y-7667400D01*
G01X1048414Y-7667400D01*
G01X1046578Y-7646421D01*
G01X1041128Y-7626079D01*
G01X1032228Y-7606993D01*
G01X1020149Y-7589742D01*
G01X1005258Y-7574851D01*
G01X988007Y-7562772D01*
G01X968921Y-7553872D01*
G01X948579Y-7548421D01*
G01X927600Y-7546586D01*
G01X906621Y-7548421D01*
G01X886279Y-7553872D01*
G01X867193Y-7562772D01*
G01X849942Y-7574851D01*
G01X835051Y-7589742D01*
G01X822972Y-7606993D01*
G01X814072Y-7626079D01*
G01X808621Y-7646421D01*
G01X806786Y-7667400D01*
G01X165814Y-7667400D01*
G01X165814Y-7381175D01*
G01X194459Y-7381175D01*
G01X194459Y-7401625D01*
G01X198216Y-7421726D01*
G01X205604Y-7440794D01*
G01X216369Y-7458180D01*
G01X230145Y-7473292D01*
G01X246464Y-7485616D01*
G01X264769Y-7494731D01*
G01X284438Y-7500327D01*
G01X304800Y-7502214D01*
G01X325162Y-7500327D01*
G01X344831Y-7494731D01*
G01X363136Y-7485616D01*
G01X379455Y-7473292D01*
G01X393231Y-7458180D01*
G01X403996Y-7440794D01*
G01X411384Y-7421726D01*
G01X412940Y-7413400D01*
G01X806786Y-7413400D01*
G01X808621Y-7434379D01*
G01X814072Y-7454721D01*
G01X822972Y-7473807D01*
G01X835051Y-7491058D01*
G01X849942Y-7505949D01*
G01X867193Y-7518028D01*
G01X886279Y-7526928D01*
G01X906621Y-7532378D01*
G01X927600Y-7534214D01*
G01X948579Y-7532378D01*
G01X968921Y-7526928D01*
G01X988007Y-7518028D01*
G01X1005258Y-7505949D01*
G01X1020149Y-7491058D01*
G01X1032228Y-7473807D01*
G01X1041128Y-7454721D01*
G01X1046578Y-7434379D01*
G01X1048414Y-7413400D01*
G01X1048414Y-7413400D01*
G01X1060786Y-7413400D01*
G01X1062621Y-7434379D01*
G01X1068072Y-7454721D01*
G01X1076972Y-7473807D01*
G01X1089051Y-7491058D01*
G01X1103942Y-7505949D01*
G01X1121193Y-7518028D01*
G01X1140279Y-7526928D01*
G01X1160621Y-7532378D01*
G01X1181600Y-7534214D01*
G01X1202579Y-7532378D01*
G01X1222921Y-7526928D01*
G01X1242007Y-7518028D01*
G01X1259258Y-7505949D01*
G01X1274149Y-7491058D01*
G01X1286228Y-7473807D01*
G01X1295128Y-7454721D01*
G01X1300578Y-7434379D01*
G01X1302414Y-7413400D01*
G01X1302414Y-7413400D01*
G01X1300578Y-7392421D01*
G01X1295128Y-7372079D01*
G01X1286228Y-7352993D01*
G01X1274149Y-7335742D01*
G01X1259258Y-7320851D01*
G01X1242007Y-7308772D01*
G01X1222921Y-7299872D01*
G01X1202579Y-7294421D01*
G01X1181600Y-7292586D01*
G01X1160621Y-7294421D01*
G01X1140279Y-7299872D01*
G01X1121193Y-7308772D01*
G01X1103942Y-7320851D01*
G01X1089051Y-7335742D01*
G01X1076972Y-7352993D01*
G01X1068072Y-7372079D01*
G01X1062621Y-7392421D01*
G01X1060786Y-7413400D01*
G01X1048414Y-7413400D01*
G01X1046578Y-7392421D01*
G01X1041128Y-7372079D01*
G01X1032228Y-7352993D01*
G01X1020149Y-7335742D01*
G01X1005258Y-7320851D01*
G01X988007Y-7308772D01*
G01X968921Y-7299872D01*
G01X948579Y-7294421D01*
G01X927600Y-7292586D01*
G01X906621Y-7294421D01*
G01X886279Y-7299872D01*
G01X867193Y-7308772D01*
G01X849942Y-7320851D01*
G01X835051Y-7335742D01*
G01X822972Y-7352993D01*
G01X814072Y-7372079D01*
G01X808621Y-7392421D01*
G01X806786Y-7413400D01*
G01X412940Y-7413400D01*
G01X415141Y-7401625D01*
G01X415141Y-7381175D01*
G01X411384Y-7361074D01*
G01X403996Y-7342006D01*
G01X393231Y-7324620D01*
G01X379455Y-7309508D01*
G01X363136Y-7297184D01*
G01X344831Y-7288069D01*
G01X325162Y-7282473D01*
G01X304800Y-7280586D01*
G01X304800Y-7280586D01*
G01X284438Y-7282473D01*
G01X264769Y-7288069D01*
G01X246464Y-7297184D01*
G01X230145Y-7309508D01*
G01X216369Y-7324620D01*
G01X205604Y-7342006D01*
G01X198216Y-7361074D01*
G01X194459Y-7381175D01*
G01X165814Y-7381175D01*
G01X165814Y-6875817D01*
G01X194246Y-6875817D01*
G01X194665Y-6895648D01*
G01X198613Y-6915085D01*
G01X205962Y-6933508D01*
G01X216478Y-6950325D01*
G01X229824Y-6964998D01*
G01X245572Y-6977057D01*
G01X263217Y-6986116D01*
G01X282194Y-6991884D01*
G01X301896Y-6994176D01*
G01X321691Y-6992919D01*
G01X340944Y-6988154D01*
G01X422895Y-7070105D01*
G01X432943Y-7077814D01*
G01X444644Y-7082661D01*
G01X457200Y-7084314D01*
G01X832953Y-7084314D01*
G01X820996Y-7102552D01*
G01X812513Y-7122643D01*
G01X807780Y-7143931D01*
G01X806951Y-7165723D01*
G01X810054Y-7187309D01*
G01X816986Y-7207986D01*
G01X827522Y-7227079D01*
G01X841320Y-7243968D01*
G01X857928Y-7258101D01*
G01X876807Y-7269018D01*
G01X897341Y-7276363D01*
G01X918860Y-7279897D01*
G01X940665Y-7279505D01*
G01X962043Y-7275200D01*
G01X982300Y-7267122D01*
G01X1000774Y-7255533D01*
G01X1016864Y-7240812D01*
G01X1030045Y-7223439D01*
G01X1039889Y-7203979D01*
G01X1046073Y-7183066D01*
G01X1048398Y-7161383D01*
G01X1048251Y-7159400D01*
G01X1060786Y-7159400D01*
G01X1062621Y-7180379D01*
G01X1068072Y-7200721D01*
G01X1076972Y-7219807D01*
G01X1089051Y-7237058D01*
G01X1103942Y-7251949D01*
G01X1121193Y-7264028D01*
G01X1140279Y-7272928D01*
G01X1160621Y-7278378D01*
G01X1181600Y-7280214D01*
G01X1202579Y-7278378D01*
G01X1222921Y-7272928D01*
G01X1242007Y-7264028D01*
G01X1259258Y-7251949D01*
G01X1274149Y-7237058D01*
G01X1286228Y-7219807D01*
G01X1295128Y-7200721D01*
G01X1300578Y-7180379D01*
G01X1302414Y-7159400D01*
G01X1302414Y-7159400D01*
G01X1300578Y-7138421D01*
G01X1295128Y-7118079D01*
G01X1286228Y-7098993D01*
G01X1274149Y-7081742D01*
G01X1259258Y-7066851D01*
G01X1242007Y-7054772D01*
G01X1222921Y-7045872D01*
G01X1202579Y-7040421D01*
G01X1181600Y-7038586D01*
G01X1160621Y-7040421D01*
G01X1140279Y-7045872D01*
G01X1121193Y-7054772D01*
G01X1103942Y-7066851D01*
G01X1089051Y-7081742D01*
G01X1076972Y-7098993D01*
G01X1068072Y-7118079D01*
G01X1062621Y-7138421D01*
G01X1060786Y-7159400D01*
G01X1048251Y-7159400D01*
G01X1046786Y-7139634D01*
G01X1041291Y-7118530D01*
G01X1032091Y-7098757D01*
G01X1019487Y-7080961D01*
G01X1003889Y-7065720D01*
G01X1075705Y-6993905D01*
G01X1081465Y-6986956D01*
G01X1085840Y-6979061D01*
G01X1100186Y-6994662D01*
G01X1117037Y-7007516D01*
G01X1135876Y-7017227D01*
G01X1156121Y-7023497D01*
G01X1177151Y-7026132D01*
G01X1198318Y-7025052D01*
G01X1218970Y-7020289D01*
G01X1238472Y-7011991D01*
G01X1256224Y-7000412D01*
G01X1271679Y-6985909D01*
G01X1284362Y-6968929D01*
G01X1293883Y-6949993D01*
G01X1299948Y-6929685D01*
G01X1302371Y-6908630D01*
G01X1301077Y-6887475D01*
G01X1296106Y-6866872D01*
G01X1287611Y-6847455D01*
G01X1275854Y-6829821D01*
G01X1261196Y-6814513D01*
G01X1244088Y-6802002D01*
G01X1225058Y-6792673D01*
G01X1204690Y-6786813D01*
G01X1183611Y-6784603D01*
G01X1162470Y-6786110D01*
G01X1141919Y-6791289D01*
G01X1122588Y-6799979D01*
G01X1105073Y-6811914D01*
G01X1089914Y-6826725D01*
G01X1089914Y-6811695D01*
G01X1137666Y-6763943D01*
G01X1158749Y-6770033D01*
G01X1180586Y-6772210D01*
G01X1202456Y-6770400D01*
G01X1223638Y-6764664D01*
G01X1243432Y-6755192D01*
G01X1261187Y-6742295D01*
G01X1276316Y-6726399D01*
G01X1288320Y-6708028D01*
G01X1296803Y-6687789D01*
G01X1301485Y-6666350D01*
G01X1302212Y-6644417D01*
G01X1298959Y-6622715D01*
G01X1291834Y-6601959D01*
G01X1281072Y-6582834D01*
G01X1267028Y-6565972D01*
G01X1250166Y-6551928D01*
G01X1231041Y-6541166D01*
G01X1210285Y-6534041D01*
G01X1188583Y-6530788D01*
G01X1166650Y-6531515D01*
G01X1145211Y-6536196D01*
G01X1124972Y-6544679D01*
G01X1106601Y-6556683D01*
G01X1090705Y-6571812D01*
G01X1077808Y-6589567D01*
G01X1068335Y-6609362D01*
G01X1062600Y-6630544D01*
G01X1060790Y-6652414D01*
G01X1062967Y-6674251D01*
G01X1069057Y-6695333D01*
G01X1007095Y-6757295D01*
G01X1007095Y-6757295D01*
G01X999386Y-6767343D01*
G01X994539Y-6779043D01*
G01X992886Y-6791600D01*
G01X992886Y-6803745D01*
G01X973587Y-6793681D01*
G01X952795Y-6787242D01*
G01X931186Y-6784639D01*
G01X909460Y-6785956D01*
G01X888323Y-6791149D01*
G01X868461Y-6800050D01*
G01X850518Y-6812371D01*
G01X835077Y-6827711D01*
G01X822640Y-6845572D01*
G01X813608Y-6865376D01*
G01X808277Y-6886478D01*
G01X806818Y-6908195D01*
G01X809280Y-6929821D01*
G01X815582Y-6950654D01*
G01X825519Y-6970019D01*
G01X838770Y-6987286D01*
G01X477295Y-6987286D01*
G01X409554Y-6919544D01*
G01X414319Y-6900291D01*
G01X415576Y-6880496D01*
G01X413284Y-6860794D01*
G01X407516Y-6841817D01*
G01X398457Y-6824172D01*
G01X386398Y-6808424D01*
G01X371725Y-6795078D01*
G01X354908Y-6784562D01*
G01X336485Y-6777213D01*
G01X317048Y-6773265D01*
G01X297217Y-6772846D01*
G01X277630Y-6775969D01*
G01X258914Y-6782533D01*
G01X241667Y-6792329D01*
G01X226443Y-6805043D01*
G01X213729Y-6820267D01*
G01X203933Y-6837514D01*
G01X197369Y-6856230D01*
G01X194246Y-6875817D01*
G01X165814Y-6875817D01*
G01X165814Y-6619175D01*
G01X194459Y-6619175D01*
G01X194459Y-6639625D01*
G01X198216Y-6659726D01*
G01X205604Y-6678794D01*
G01X216369Y-6696180D01*
G01X230145Y-6711292D01*
G01X246464Y-6723616D01*
G01X264769Y-6732731D01*
G01X284438Y-6738327D01*
G01X304800Y-6740214D01*
G01X325162Y-6738327D01*
G01X344831Y-6732731D01*
G01X363136Y-6723616D01*
G01X379455Y-6711292D01*
G01X393231Y-6696180D01*
G01X403996Y-6678794D01*
G01X411384Y-6659726D01*
G01X412940Y-6651400D01*
G01X806786Y-6651400D01*
G01X808621Y-6672379D01*
G01X814072Y-6692721D01*
G01X822972Y-6711807D01*
G01X835051Y-6729058D01*
G01X849942Y-6743949D01*
G01X867193Y-6756028D01*
G01X886279Y-6764928D01*
G01X906621Y-6770378D01*
G01X927600Y-6772214D01*
G01X948579Y-6770378D01*
G01X968921Y-6764928D01*
G01X988007Y-6756028D01*
G01X1005258Y-6743949D01*
G01X1020149Y-6729058D01*
G01X1032228Y-6711807D01*
G01X1041128Y-6692721D01*
G01X1046578Y-6672379D01*
G01X1048414Y-6651400D01*
G01X1048414Y-6651400D01*
G01X1046578Y-6630421D01*
G01X1041128Y-6610079D01*
G01X1032228Y-6590993D01*
G01X1020149Y-6573742D01*
G01X1005258Y-6558851D01*
G01X988007Y-6546772D01*
G01X968921Y-6537872D01*
G01X948579Y-6532421D01*
G01X927600Y-6530586D01*
G01X906621Y-6532421D01*
G01X886279Y-6537872D01*
G01X867193Y-6546772D01*
G01X849942Y-6558851D01*
G01X835051Y-6573742D01*
G01X822972Y-6590993D01*
G01X814072Y-6610079D01*
G01X808621Y-6630421D01*
G01X806786Y-6651400D01*
G01X412940Y-6651400D01*
G01X415141Y-6639625D01*
G01X415141Y-6619175D01*
G01X411384Y-6599074D01*
G01X403996Y-6580006D01*
G01X393231Y-6562620D01*
G01X379455Y-6547508D01*
G01X363136Y-6535184D01*
G01X344831Y-6526069D01*
G01X325162Y-6520473D01*
G01X304800Y-6518586D01*
G01X304800Y-6518586D01*
G01X284438Y-6520473D01*
G01X264769Y-6526069D01*
G01X246464Y-6535184D01*
G01X230145Y-6547508D01*
G01X216369Y-6562620D01*
G01X205604Y-6580006D01*
G01X198216Y-6599074D01*
G01X194459Y-6619175D01*
G01X165814Y-6619175D01*
G01X165814Y-6397400D01*
G01X1060786Y-6397400D01*
G01X1062621Y-6418379D01*
G01X1068072Y-6438721D01*
G01X1076972Y-6457807D01*
G01X1089051Y-6475058D01*
G01X1103942Y-6489949D01*
G01X1121193Y-6502028D01*
G01X1140279Y-6510928D01*
G01X1160621Y-6516378D01*
G01X1181600Y-6518214D01*
G01X1202579Y-6516378D01*
G01X1222921Y-6510928D01*
G01X1242007Y-6502028D01*
G01X1259258Y-6489949D01*
G01X1274149Y-6475058D01*
G01X1286228Y-6457807D01*
G01X1295128Y-6438721D01*
G01X1300578Y-6418379D01*
G01X1302414Y-6397400D01*
G01X1302414Y-6397400D01*
G01X1300578Y-6376421D01*
G01X1295128Y-6356079D01*
G01X1286228Y-6336993D01*
G01X1274149Y-6319742D01*
G01X1259258Y-6304851D01*
G01X1242007Y-6292772D01*
G01X1222921Y-6283872D01*
G01X1202579Y-6278421D01*
G01X1181600Y-6276586D01*
G01X1160621Y-6278421D01*
G01X1140279Y-6283872D01*
G01X1121193Y-6292772D01*
G01X1103942Y-6304851D01*
G01X1089051Y-6319742D01*
G01X1076972Y-6336993D01*
G01X1068072Y-6356079D01*
G01X1062621Y-6376421D01*
G01X1060786Y-6397400D01*
G01X165814Y-6397400D01*
G01X165814Y-6124971D01*
G01X1838782Y-6124971D01*
G01X1841379Y-6140106D01*
G01X1847388Y-6154239D01*
G01X1856486Y-6166610D01*
G01X1856486Y-7924800D01*
G01X1858139Y-7937356D01*
G01X1862986Y-7949057D01*
G01X1870695Y-7959105D01*
G01X2699086Y-8787495D01*
G01X2699086Y-8787495D01*
G01X2702276Y-8800196D01*
G01X2708110Y-8811920D01*
G01X2716319Y-8822123D01*
G01X3258998Y-9364802D01*
G01X3268214Y-9372365D01*
G01X3278728Y-9377985D01*
G01X3290136Y-9381445D01*
G01X3302000Y-9382614D01*
G01X3797410Y-9382614D01*
G01X3854127Y-9439331D01*
G01X3854372Y-9460286D01*
G01X3858235Y-9480883D01*
G01X3865598Y-9500503D01*
G01X3876242Y-9518555D01*
G01X3889845Y-9534496D01*
G01X3905998Y-9547847D01*
G01X3924215Y-9558206D01*
G01X3943948Y-9565261D01*
G01X3964604Y-9568800D01*
G01X3985560Y-9568716D01*
G01X4006186Y-9565012D01*
G01X4025862Y-9557799D01*
G01X4043996Y-9547295D01*
G01X4060041Y-9533815D01*
G01X4073516Y-9517766D01*
G01X4084015Y-9499629D01*
G01X4091221Y-9479950D01*
G01X4094919Y-9459323D01*
G01X4094997Y-9438367D01*
G01X4091451Y-9417712D01*
G01X4084391Y-9397982D01*
G01X4074026Y-9379768D01*
G01X4060670Y-9363619D01*
G01X4044725Y-9350021D01*
G01X4026669Y-9339383D01*
G01X4007047Y-9332025D01*
G01X3986449Y-9328168D01*
G01X3965494Y-9327930D01*
G01X3944813Y-9331316D01*
G01X3925028Y-9338224D01*
G01X3865602Y-9278798D01*
G01X3856386Y-9271235D01*
G01X3845872Y-9265615D01*
G01X3834464Y-9262155D01*
G01X3822600Y-9260986D01*
G01X3821408Y-9260986D01*
G01X3831679Y-9241913D01*
G01X3838378Y-9221313D01*
G01X3841291Y-9199847D01*
G01X3841048Y-9194400D01*
G01X3853786Y-9194400D01*
G01X3855621Y-9215379D01*
G01X3861072Y-9235721D01*
G01X3869972Y-9254807D01*
G01X3882051Y-9272058D01*
G01X3896942Y-9286949D01*
G01X3914193Y-9299028D01*
G01X3933279Y-9307928D01*
G01X3953621Y-9313378D01*
G01X3974600Y-9315214D01*
G01X3995579Y-9313378D01*
G01X4015921Y-9307928D01*
G01X4035007Y-9299028D01*
G01X4052258Y-9286949D01*
G01X4067149Y-9272058D01*
G01X4079228Y-9254807D01*
G01X4088128Y-9235721D01*
G01X4093578Y-9215379D01*
G01X4095414Y-9194400D01*
G01X4095414Y-9194400D01*
G01X4093578Y-9173421D01*
G01X4088128Y-9153079D01*
G01X4079228Y-9133993D01*
G01X4067149Y-9116742D01*
G01X4052258Y-9101851D01*
G01X4035007Y-9089772D01*
G01X4015921Y-9080872D01*
G01X3995579Y-9075421D01*
G01X3974600Y-9073586D01*
G01X3953621Y-9075421D01*
G01X3933279Y-9080872D01*
G01X3914193Y-9089772D01*
G01X3896942Y-9101851D01*
G01X3882051Y-9116742D01*
G01X3869972Y-9133993D01*
G01X3861072Y-9153079D01*
G01X3855621Y-9173421D01*
G01X3853786Y-9194400D01*
G01X3841048Y-9194400D01*
G01X3840324Y-9178206D01*
G01X3835508Y-9157086D01*
G01X3826997Y-9137166D01*
G01X3815066Y-9119085D01*
G01X3800097Y-9103426D01*
G01X3782573Y-9090692D01*
G01X3763057Y-9081292D01*
G01X3742175Y-9075528D01*
G01X3720600Y-9073586D01*
G01X3699025Y-9075528D01*
G01X3678144Y-9081292D01*
G01X3658627Y-9090692D01*
G01X3641103Y-9103426D01*
G01X3626135Y-9119085D01*
G01X3614203Y-9137166D01*
G01X3605693Y-9157086D01*
G01X3600876Y-9178206D01*
G01X3599909Y-9199847D01*
G01X3602822Y-9221313D01*
G01X3609521Y-9241913D01*
G01X3619792Y-9260986D01*
G01X3327190Y-9260986D01*
G01X3006604Y-8940400D01*
G01X3599786Y-8940400D01*
G01X3601622Y-8961379D01*
G01X3607072Y-8981721D01*
G01X3615972Y-9000807D01*
G01X3628051Y-9018058D01*
G01X3642942Y-9032949D01*
G01X3660193Y-9045028D01*
G01X3679279Y-9053928D01*
G01X3699621Y-9059378D01*
G01X3720600Y-9061214D01*
G01X3741579Y-9059378D01*
G01X3761921Y-9053928D01*
G01X3781007Y-9045028D01*
G01X3798258Y-9032949D01*
G01X3813149Y-9018058D01*
G01X3825228Y-9000807D01*
G01X3834128Y-8981721D01*
G01X3839579Y-8961379D01*
G01X3841414Y-8940400D01*
G01X3841414Y-8940400D01*
G01X3853786Y-8940400D01*
G01X3855621Y-8961379D01*
G01X3861072Y-8981721D01*
G01X3869972Y-9000807D01*
G01X3882051Y-9018058D01*
G01X3896942Y-9032949D01*
G01X3914193Y-9045028D01*
G01X3933279Y-9053928D01*
G01X3953621Y-9059378D01*
G01X3974600Y-9061214D01*
G01X3995579Y-9059378D01*
G01X4015921Y-9053928D01*
G01X4035007Y-9045028D01*
G01X4052258Y-9032949D01*
G01X4067149Y-9018058D01*
G01X4079228Y-9000807D01*
G01X4088128Y-8981721D01*
G01X4093578Y-8961379D01*
G01X4095414Y-8940400D01*
G01X4095414Y-8940400D01*
G01X4093578Y-8919421D01*
G01X4089732Y-8905065D01*
G01X4384264Y-8905065D01*
G01X4384264Y-8925735D01*
G01X4388062Y-8946054D01*
G01X4395529Y-8965329D01*
G01X4406411Y-8982904D01*
G01X4420337Y-8998179D01*
G01X4436832Y-9010636D01*
G01X4455336Y-9019850D01*
G01X4475217Y-9025507D01*
G01X4495800Y-9027414D01*
G01X4516383Y-9025507D01*
G01X4536264Y-9019850D01*
G01X4554768Y-9010636D01*
G01X4571263Y-8998179D01*
G01X4585189Y-8982904D01*
G01X4596071Y-8965329D01*
G01X4603538Y-8946054D01*
G01X4607336Y-8925735D01*
G01X4607336Y-8905065D01*
G01X4603538Y-8884746D01*
G01X4596071Y-8865471D01*
G01X4585189Y-8847896D01*
G01X4571263Y-8832621D01*
G01X4554768Y-8820164D01*
G01X4536264Y-8810950D01*
G01X4516383Y-8805293D01*
G01X4495800Y-8803386D01*
G01X4495800Y-8803386D01*
G01X4475217Y-8805293D01*
G01X4455336Y-8810950D01*
G01X4436832Y-8820164D01*
G01X4420337Y-8832621D01*
G01X4406411Y-8847896D01*
G01X4395529Y-8865471D01*
G01X4388062Y-8884746D01*
G01X4384264Y-8905065D01*
G01X4089732Y-8905065D01*
G01X4088128Y-8899079D01*
G01X4079228Y-8879993D01*
G01X4067149Y-8862742D01*
G01X4052258Y-8847851D01*
G01X4035007Y-8835772D01*
G01X4015921Y-8826872D01*
G01X3995579Y-8821421D01*
G01X3974600Y-8819586D01*
G01X3953621Y-8821421D01*
G01X3933279Y-8826872D01*
G01X3914193Y-8835772D01*
G01X3896942Y-8847851D01*
G01X3882051Y-8862742D01*
G01X3869972Y-8879993D01*
G01X3861072Y-8899079D01*
G01X3855621Y-8919421D01*
G01X3853786Y-8940400D01*
G01X3841414Y-8940400D01*
G01X3839579Y-8919421D01*
G01X3834128Y-8899079D01*
G01X3825228Y-8879993D01*
G01X3813149Y-8862742D01*
G01X3798258Y-8847851D01*
G01X3781007Y-8835772D01*
G01X3761921Y-8826872D01*
G01X3741579Y-8821421D01*
G01X3720600Y-8819586D01*
G01X3699621Y-8821421D01*
G01X3679279Y-8826872D01*
G01X3660193Y-8835772D01*
G01X3642942Y-8847851D01*
G01X3628051Y-8862742D01*
G01X3615972Y-8879993D01*
G01X3607072Y-8899079D01*
G01X3601622Y-8919421D01*
G01X3599786Y-8940400D01*
G01X3006604Y-8940400D01*
G01X2809705Y-8743501D01*
G01X3337549Y-8743501D01*
G01X3340678Y-8758536D01*
G01X3347180Y-8772448D01*
G01X3356709Y-8784491D01*
G01X3368752Y-8794020D01*
G01X3382664Y-8800522D01*
G01X3397699Y-8803651D01*
G01X3413050Y-8803237D01*
G01X3427894Y-8799304D01*
G01X3441436Y-8792061D01*
G01X3452948Y-8781898D01*
G01X3461814Y-8769359D01*
G01X3467559Y-8755118D01*
G01X3469873Y-8739936D01*
G01X3523409Y-8686400D01*
G01X3599786Y-8686400D01*
G01X3601622Y-8707379D01*
G01X3607072Y-8727721D01*
G01X3615972Y-8746807D01*
G01X3628051Y-8764058D01*
G01X3642942Y-8778949D01*
G01X3660193Y-8791028D01*
G01X3679279Y-8799928D01*
G01X3699621Y-8805378D01*
G01X3720600Y-8807214D01*
G01X3741579Y-8805378D01*
G01X3761921Y-8799928D01*
G01X3781007Y-8791028D01*
G01X3798258Y-8778949D01*
G01X3813149Y-8764058D01*
G01X3825228Y-8746807D01*
G01X3834128Y-8727721D01*
G01X3839579Y-8707379D01*
G01X3841414Y-8686400D01*
G01X3841414Y-8686400D01*
G01X3853786Y-8686400D01*
G01X3855621Y-8707379D01*
G01X3861072Y-8727721D01*
G01X3869972Y-8746807D01*
G01X3882051Y-8764058D01*
G01X3896942Y-8778949D01*
G01X3914193Y-8791028D01*
G01X3933279Y-8799928D01*
G01X3953621Y-8805378D01*
G01X3974600Y-8807214D01*
G01X3995579Y-8805378D01*
G01X4015921Y-8799928D01*
G01X4035007Y-8791028D01*
G01X4052258Y-8778949D01*
G01X4067149Y-8764058D01*
G01X4079228Y-8746807D01*
G01X4088128Y-8727721D01*
G01X4093578Y-8707379D01*
G01X4095414Y-8686400D01*
G01X4095414Y-8686400D01*
G01X4093578Y-8665421D01*
G01X4089732Y-8651065D01*
G01X4384264Y-8651065D01*
G01X4384264Y-8671735D01*
G01X4388062Y-8692054D01*
G01X4395529Y-8711329D01*
G01X4406411Y-8728904D01*
G01X4420337Y-8744179D01*
G01X4436832Y-8756636D01*
G01X4455336Y-8765850D01*
G01X4475217Y-8771507D01*
G01X4495800Y-8773414D01*
G01X4516383Y-8771507D01*
G01X4536264Y-8765850D01*
G01X4554768Y-8756636D01*
G01X4571263Y-8744179D01*
G01X4585189Y-8728904D01*
G01X4596071Y-8711329D01*
G01X4603538Y-8692054D01*
G01X4607336Y-8671735D01*
G01X4607336Y-8651065D01*
G01X4603538Y-8630746D01*
G01X4596071Y-8611471D01*
G01X4585189Y-8593896D01*
G01X4571263Y-8578621D01*
G01X4554768Y-8566164D01*
G01X4536264Y-8556950D01*
G01X4516383Y-8551293D01*
G01X4495800Y-8549386D01*
G01X4495800Y-8549386D01*
G01X4475217Y-8551293D01*
G01X4455336Y-8556950D01*
G01X4436832Y-8566164D01*
G01X4420337Y-8578621D01*
G01X4406411Y-8593896D01*
G01X4395529Y-8611471D01*
G01X4388062Y-8630746D01*
G01X4384264Y-8651065D01*
G01X4089732Y-8651065D01*
G01X4088128Y-8645079D01*
G01X4079228Y-8625993D01*
G01X4067149Y-8608742D01*
G01X4052258Y-8593851D01*
G01X4035007Y-8581772D01*
G01X4015921Y-8572872D01*
G01X3995579Y-8567421D01*
G01X3974600Y-8565586D01*
G01X3953621Y-8567421D01*
G01X3933279Y-8572872D01*
G01X3914193Y-8581772D01*
G01X3896942Y-8593851D01*
G01X3882051Y-8608742D01*
G01X3869972Y-8625993D01*
G01X3861072Y-8645079D01*
G01X3855621Y-8665421D01*
G01X3853786Y-8686400D01*
G01X3841414Y-8686400D01*
G01X3839579Y-8665421D01*
G01X3834128Y-8645079D01*
G01X3825228Y-8625993D01*
G01X3813149Y-8608742D01*
G01X3798258Y-8593851D01*
G01X3781007Y-8581772D01*
G01X3761921Y-8572872D01*
G01X3741579Y-8567421D01*
G01X3720600Y-8565586D01*
G01X3699621Y-8567421D01*
G01X3679279Y-8572872D01*
G01X3660193Y-8581772D01*
G01X3642942Y-8593851D01*
G01X3628051Y-8608742D01*
G01X3615972Y-8625993D01*
G01X3607072Y-8645079D01*
G01X3601622Y-8665421D01*
G01X3599786Y-8686400D01*
G01X3523409Y-8686400D01*
G01X3532936Y-8676873D01*
G01X3548118Y-8674559D01*
G01X3562359Y-8668814D01*
G01X3574898Y-8659948D01*
G01X3585061Y-8648436D01*
G01X3592304Y-8634894D01*
G01X3596237Y-8620050D01*
G01X3596651Y-8604699D01*
G01X3593522Y-8589664D01*
G01X3587020Y-8575752D01*
G01X3577491Y-8563709D01*
G01X3565448Y-8554180D01*
G01X3551536Y-8547678D01*
G01X3536501Y-8544549D01*
G01X3521150Y-8544963D01*
G01X3506306Y-8548896D01*
G01X3492764Y-8556139D01*
G01X3481252Y-8566302D01*
G01X3472386Y-8578841D01*
G01X3466641Y-8593082D01*
G01X3464327Y-8608264D01*
G01X3401264Y-8671327D01*
G01X3401264Y-8671327D01*
G01X3386082Y-8673641D01*
G01X3371841Y-8679386D01*
G01X3359302Y-8688252D01*
G01X3349139Y-8699764D01*
G01X3341896Y-8713306D01*
G01X3337963Y-8728150D01*
G01X3337549Y-8743501D01*
G01X2809705Y-8743501D01*
G01X2807835Y-8741631D01*
G01X2807835Y-8443164D01*
G01X3061086Y-8189912D01*
G01X3156590Y-8189912D01*
G01X3156590Y-8216798D01*
G01X3158343Y-8227866D01*
G01X3163430Y-8237849D01*
G01X3171353Y-8245773D01*
G01X3181337Y-8250860D01*
G01X3192404Y-8252612D01*
G01X3241789Y-8252612D01*
G01X3237490Y-8265036D01*
G01X3235727Y-8278064D01*
G01X3147264Y-8366527D01*
G01X3133098Y-8368572D01*
G01X3119700Y-8373609D01*
G01X3107696Y-8381404D01*
G01X3097643Y-8391592D01*
G01X3090011Y-8403701D01*
G01X3085155Y-8417165D01*
G01X3083302Y-8431357D01*
G01X3084536Y-8445617D01*
G01X3088802Y-8459279D01*
G01X3095900Y-8471708D01*
G01X3105500Y-8482325D01*
G01X3117154Y-8490634D01*
G01X3130319Y-8496249D01*
G01X3144383Y-8498909D01*
G01X3137748Y-8512668D01*
G01X3134437Y-8527582D01*
G01X3134627Y-8542857D01*
G01X3138308Y-8557683D01*
G01X3145283Y-8571273D01*
G01X3155183Y-8582907D01*
G01X3167482Y-8591967D01*
G01X3181529Y-8597972D01*
G01X3196577Y-8600604D01*
G01X3211827Y-8599722D01*
G01X3226471Y-8595374D01*
G01X3239732Y-8587790D01*
G01X3236045Y-8603704D01*
G01X3236361Y-8620037D01*
G01X3240659Y-8635797D01*
G01X3248680Y-8650028D01*
G01X3259936Y-8661866D01*
G01X3273745Y-8670594D01*
G01X3289269Y-8675680D01*
G01X3305564Y-8676818D01*
G01X3321644Y-8673938D01*
G01X3336532Y-8667214D01*
G01X3349324Y-8657054D01*
G01X3359244Y-8644076D01*
G01X3365691Y-8629066D01*
G01X3368273Y-8612936D01*
G01X3405936Y-8575273D01*
G01X3422066Y-8572691D01*
G01X3437076Y-8566244D01*
G01X3450054Y-8556324D01*
G01X3460214Y-8543532D01*
G01X3466938Y-8528644D01*
G01X3469818Y-8512564D01*
G01X3468680Y-8496269D01*
G01X3463594Y-8480745D01*
G01X3454866Y-8466936D01*
G01X3443028Y-8455680D01*
G01X3428797Y-8447659D01*
G01X3413037Y-8443361D01*
G01X3396704Y-8443045D01*
G01X3380790Y-8446732D01*
G01X3388050Y-8434218D01*
G01X3388626Y-8432400D01*
G01X3599786Y-8432400D01*
G01X3601622Y-8453379D01*
G01X3607072Y-8473721D01*
G01X3615972Y-8492807D01*
G01X3628051Y-8510058D01*
G01X3642942Y-8524949D01*
G01X3660193Y-8537028D01*
G01X3679279Y-8545928D01*
G01X3699621Y-8551378D01*
G01X3720600Y-8553214D01*
G01X3741579Y-8551378D01*
G01X3761921Y-8545928D01*
G01X3781007Y-8537028D01*
G01X3798258Y-8524949D01*
G01X3813149Y-8510058D01*
G01X3825228Y-8492807D01*
G01X3834128Y-8473721D01*
G01X3839579Y-8453379D01*
G01X3841414Y-8432400D01*
G01X3841414Y-8432400D01*
G01X3853786Y-8432400D01*
G01X3855621Y-8453379D01*
G01X3861072Y-8473721D01*
G01X3869972Y-8492807D01*
G01X3882051Y-8510058D01*
G01X3896942Y-8524949D01*
G01X3914193Y-8537028D01*
G01X3933279Y-8545928D01*
G01X3953621Y-8551378D01*
G01X3974600Y-8553214D01*
G01X3995579Y-8551378D01*
G01X4015921Y-8545928D01*
G01X4035007Y-8537028D01*
G01X4052258Y-8524949D01*
G01X4067149Y-8510058D01*
G01X4079228Y-8492807D01*
G01X4088128Y-8473721D01*
G01X4093578Y-8453379D01*
G01X4095414Y-8432400D01*
G01X4095414Y-8432400D01*
G01X4093578Y-8411421D01*
G01X4088128Y-8391079D01*
G01X4079228Y-8371993D01*
G01X4067149Y-8354742D01*
G01X4052258Y-8339851D01*
G01X4035007Y-8327772D01*
G01X4015921Y-8318872D01*
G01X3995579Y-8313421D01*
G01X3974600Y-8311586D01*
G01X3953621Y-8313421D01*
G01X3933279Y-8318872D01*
G01X3914193Y-8327772D01*
G01X3896942Y-8339851D01*
G01X3882051Y-8354742D01*
G01X3869972Y-8371993D01*
G01X3861072Y-8391079D01*
G01X3855621Y-8411421D01*
G01X3853786Y-8432400D01*
G01X3841414Y-8432400D01*
G01X3839579Y-8411421D01*
G01X3834128Y-8391079D01*
G01X3825228Y-8371993D01*
G01X3813149Y-8354742D01*
G01X3798258Y-8339851D01*
G01X3781007Y-8327772D01*
G01X3761921Y-8318872D01*
G01X3741579Y-8313421D01*
G01X3720600Y-8311586D01*
G01X3699621Y-8313421D01*
G01X3679279Y-8318872D01*
G01X3660193Y-8327772D01*
G01X3642942Y-8339851D01*
G01X3628051Y-8354742D01*
G01X3615972Y-8371993D01*
G01X3607072Y-8391079D01*
G01X3601622Y-8411421D01*
G01X3599786Y-8432400D01*
G01X3388626Y-8432400D01*
G01X3392422Y-8420427D01*
G01X3393700Y-8406015D01*
G01X3391822Y-8391670D01*
G01X3386877Y-8378074D01*
G01X3379102Y-8365873D01*
G01X3368866Y-8355649D01*
G01X3356656Y-8347888D01*
G01X3343053Y-8342960D01*
G01X3328706Y-8341099D01*
G01X3341278Y-8333830D01*
G01X3351967Y-8323999D01*
G01X3360259Y-8312077D01*
G01X3365758Y-8298635D01*
G01X3368198Y-8284320D01*
G01X3367464Y-8269816D01*
G01X3363590Y-8255820D01*
G01X3356763Y-8243002D01*
G01X3347309Y-8231978D01*
G01X3335682Y-8223277D01*
G01X3322440Y-8217315D01*
G01X3308218Y-8214378D01*
G01X3308218Y-8178400D01*
G01X3599786Y-8178400D01*
G01X3601622Y-8199379D01*
G01X3607072Y-8219721D01*
G01X3615972Y-8238807D01*
G01X3628051Y-8256058D01*
G01X3642942Y-8270949D01*
G01X3660193Y-8283028D01*
G01X3679279Y-8291928D01*
G01X3699621Y-8297378D01*
G01X3720600Y-8299214D01*
G01X3741579Y-8297378D01*
G01X3761921Y-8291928D01*
G01X3781007Y-8283028D01*
G01X3798258Y-8270949D01*
G01X3813149Y-8256058D01*
G01X3825228Y-8238807D01*
G01X3834128Y-8219721D01*
G01X3839579Y-8199379D01*
G01X3841414Y-8178400D01*
G01X3841414Y-8178400D01*
G01X3853786Y-8178400D01*
G01X3855621Y-8199379D01*
G01X3861072Y-8219721D01*
G01X3869972Y-8238807D01*
G01X3882051Y-8256058D01*
G01X3896942Y-8270949D01*
G01X3914193Y-8283028D01*
G01X3933279Y-8291928D01*
G01X3953621Y-8297378D01*
G01X3974600Y-8299214D01*
G01X3995579Y-8297378D01*
G01X4015921Y-8291928D01*
G01X4035007Y-8283028D01*
G01X4052258Y-8270949D01*
G01X4067149Y-8256058D01*
G01X4079228Y-8238807D01*
G01X4088128Y-8219721D01*
G01X4093578Y-8199379D01*
G01X4095414Y-8178400D01*
G01X4095414Y-8178400D01*
G01X4093578Y-8157421D01*
G01X4088128Y-8137079D01*
G01X4079228Y-8117993D01*
G01X4067149Y-8100742D01*
G01X4052258Y-8085851D01*
G01X4035007Y-8073772D01*
G01X4015921Y-8064872D01*
G01X3995579Y-8059421D01*
G01X3974600Y-8057586D01*
G01X3953621Y-8059421D01*
G01X3933279Y-8064872D01*
G01X3914193Y-8073772D01*
G01X3896942Y-8085851D01*
G01X3882051Y-8100742D01*
G01X3869972Y-8117993D01*
G01X3861072Y-8137079D01*
G01X3855621Y-8157421D01*
G01X3853786Y-8178400D01*
G01X3841414Y-8178400D01*
G01X3839579Y-8157421D01*
G01X3834128Y-8137079D01*
G01X3825228Y-8117993D01*
G01X3813149Y-8100742D01*
G01X3798258Y-8085851D01*
G01X3781007Y-8073772D01*
G01X3761921Y-8064872D01*
G01X3741579Y-8059421D01*
G01X3720600Y-8057586D01*
G01X3699621Y-8059421D01*
G01X3679279Y-8064872D01*
G01X3660193Y-8073772D01*
G01X3642942Y-8085851D01*
G01X3628051Y-8100742D01*
G01X3615972Y-8117993D01*
G01X3607072Y-8137079D01*
G01X3601622Y-8157421D01*
G01X3599786Y-8178400D01*
G01X3308218Y-8178400D01*
G01X3308218Y-8116799D01*
G01X3306465Y-8105731D01*
G01X3301378Y-8095748D01*
G01X3293455Y-8087824D01*
G01X3283471Y-8082737D01*
G01X3272404Y-8080985D01*
G01X3192404Y-8080985D01*
G01X3182511Y-8082378D01*
G01X3173387Y-8086450D01*
G01X3165744Y-8092884D01*
G01X3040991Y-8092884D01*
G01X3028435Y-8094538D01*
G01X3016734Y-8099384D01*
G01X3006686Y-8107094D01*
G01X2807835Y-8305945D01*
G01X2807835Y-8304377D01*
G01X3215199Y-7897012D01*
G01X3251586Y-7897012D01*
G01X3251586Y-7986801D01*
G01X3253339Y-7997869D01*
G01X3258426Y-8007852D01*
G01X3266349Y-8015776D01*
G01X3276333Y-8020863D01*
G01X3287400Y-8022615D01*
G01X3367400Y-8022615D01*
G01X3378467Y-8020863D01*
G01X3388451Y-8015776D01*
G01X3396374Y-8007852D01*
G01X3401461Y-7997869D01*
G01X3403214Y-7986801D01*
G01X3403214Y-7985315D01*
G01X3454199Y-7985315D01*
G01X3466755Y-7983662D01*
G01X3478456Y-7978816D01*
G01X3488503Y-7971106D01*
G01X3535209Y-7924400D01*
G01X3599786Y-7924400D01*
G01X3601622Y-7945379D01*
G01X3607072Y-7965721D01*
G01X3615972Y-7984807D01*
G01X3628051Y-8002058D01*
G01X3642942Y-8016949D01*
G01X3660193Y-8029028D01*
G01X3679279Y-8037928D01*
G01X3699621Y-8043378D01*
G01X3720600Y-8045214D01*
G01X3741579Y-8043378D01*
G01X3761921Y-8037928D01*
G01X3781007Y-8029028D01*
G01X3798258Y-8016949D01*
G01X3813149Y-8002058D01*
G01X3825228Y-7984807D01*
G01X3834128Y-7965721D01*
G01X3839579Y-7945379D01*
G01X3841414Y-7924400D01*
G01X3841414Y-7924400D01*
G01X3853786Y-7924400D01*
G01X3855621Y-7945379D01*
G01X3861072Y-7965721D01*
G01X3869972Y-7984807D01*
G01X3882051Y-8002058D01*
G01X3896942Y-8016949D01*
G01X3914193Y-8029028D01*
G01X3933279Y-8037928D01*
G01X3953621Y-8043378D01*
G01X3974600Y-8045214D01*
G01X3995579Y-8043378D01*
G01X4015921Y-8037928D01*
G01X4035007Y-8029028D01*
G01X4052258Y-8016949D01*
G01X4067149Y-8002058D01*
G01X4079228Y-7984807D01*
G01X4088128Y-7965721D01*
G01X4093578Y-7945379D01*
G01X4095414Y-7924400D01*
G01X4095414Y-7924400D01*
G01X4093578Y-7903421D01*
G01X4088128Y-7883079D01*
G01X4079228Y-7863993D01*
G01X4067149Y-7846742D01*
G01X4052258Y-7831851D01*
G01X4035007Y-7819772D01*
G01X4015921Y-7810872D01*
G01X3995579Y-7805421D01*
G01X3974600Y-7803586D01*
G01X3953621Y-7805421D01*
G01X3933279Y-7810872D01*
G01X3914193Y-7819772D01*
G01X3896942Y-7831851D01*
G01X3882051Y-7846742D01*
G01X3869972Y-7863993D01*
G01X3861072Y-7883079D01*
G01X3855621Y-7903421D01*
G01X3853786Y-7924400D01*
G01X3841414Y-7924400D01*
G01X3839579Y-7903421D01*
G01X3834128Y-7883079D01*
G01X3825228Y-7863993D01*
G01X3813149Y-7846742D01*
G01X3798258Y-7831851D01*
G01X3781007Y-7819772D01*
G01X3761921Y-7810872D01*
G01X3741579Y-7805421D01*
G01X3720600Y-7803586D01*
G01X3699621Y-7805421D01*
G01X3679279Y-7810872D01*
G01X3660193Y-7819772D01*
G01X3642942Y-7831851D01*
G01X3628051Y-7846742D01*
G01X3615972Y-7863993D01*
G01X3607072Y-7883079D01*
G01X3601622Y-7903421D01*
G01X3599786Y-7924400D01*
G01X3535209Y-7924400D01*
G01X3676667Y-7782943D01*
G01X3697749Y-7789033D01*
G01X3719586Y-7791210D01*
G01X3741456Y-7789400D01*
G01X3762638Y-7783664D01*
G01X3782433Y-7774192D01*
G01X3800188Y-7761295D01*
G01X3815317Y-7745399D01*
G01X3827321Y-7727028D01*
G01X3835804Y-7706789D01*
G01X3840486Y-7685350D01*
G01X3841212Y-7663417D01*
G01X3837959Y-7641715D01*
G01X3830834Y-7620959D01*
G01X3820072Y-7601834D01*
G01X3806028Y-7584972D01*
G01X3789166Y-7570928D01*
G01X3770041Y-7560166D01*
G01X3749285Y-7553041D01*
G01X3727583Y-7549788D01*
G01X3705650Y-7550515D01*
G01X3684211Y-7555196D01*
G01X3663972Y-7563679D01*
G01X3645602Y-7575683D01*
G01X3629705Y-7590812D01*
G01X3616808Y-7608567D01*
G01X3607336Y-7628362D01*
G01X3601600Y-7649544D01*
G01X3599790Y-7671414D01*
G01X3601967Y-7693251D01*
G01X3608057Y-7714333D01*
G01X3434103Y-7888287D01*
G01X3403214Y-7888287D01*
G01X3403214Y-7886802D01*
G01X3401461Y-7875734D01*
G01X3396374Y-7865751D01*
G01X3388451Y-7857827D01*
G01X3378467Y-7852740D01*
G01X3367400Y-7850988D01*
G01X3308218Y-7850988D01*
G01X3308218Y-7761199D01*
G01X3306465Y-7750131D01*
G01X3301378Y-7740148D01*
G01X3293455Y-7732224D01*
G01X3283471Y-7727137D01*
G01X3272404Y-7725385D01*
G01X3192404Y-7725385D01*
G01X3181337Y-7727137D01*
G01X3171353Y-7732224D01*
G01X3163430Y-7740148D01*
G01X3158343Y-7750131D01*
G01X3156590Y-7761199D01*
G01X3156590Y-7818403D01*
G01X2807835Y-8167158D01*
G01X2807835Y-7566380D01*
G01X2843013Y-7531202D01*
G01X3251586Y-7531202D01*
G01X3251586Y-7631201D01*
G01X3253339Y-7642269D01*
G01X3258426Y-7652252D01*
G01X3266349Y-7660176D01*
G01X3276333Y-7665263D01*
G01X3287400Y-7667015D01*
G01X3367400Y-7667015D01*
G01X3378467Y-7665263D01*
G01X3388451Y-7660176D01*
G01X3396374Y-7652252D01*
G01X3401461Y-7642269D01*
G01X3403214Y-7631201D01*
G01X3403214Y-7585795D01*
G01X3468894Y-7520114D01*
G01X3523300Y-7520114D01*
G01X3534367Y-7518362D01*
G01X3544351Y-7513275D01*
G01X3552274Y-7505351D01*
G01X3557361Y-7495368D01*
G01X3559114Y-7484300D01*
G01X3559114Y-7464914D01*
G01X3609955Y-7464914D01*
G01X3619756Y-7482931D01*
G01X3632463Y-7499031D01*
G01X3647711Y-7512749D01*
G01X3665059Y-7523690D01*
G01X3684008Y-7531539D01*
G01X3704012Y-7536070D01*
G01X3724494Y-7537151D01*
G01X3744863Y-7534752D01*
G01X3764534Y-7528943D01*
G01X3813696Y-7578105D01*
G01X3823743Y-7585814D01*
G01X3835444Y-7590661D01*
G01X3848000Y-7592314D01*
G01X3882412Y-7592314D01*
G01X3870231Y-7609546D01*
G01X3861235Y-7628634D01*
G01X3855697Y-7648997D01*
G01X3853787Y-7670012D01*
G01X3855562Y-7691040D01*
G01X3860969Y-7711437D01*
G01X3869843Y-7730583D01*
G01X3881913Y-7747893D01*
G01X3896810Y-7762838D01*
G01X3914081Y-7774963D01*
G01X3933198Y-7783898D01*
G01X3953578Y-7789371D01*
G01X3974600Y-7791214D01*
G01X3995621Y-7789371D01*
G01X4016002Y-7783898D01*
G01X4035119Y-7774963D01*
G01X4052390Y-7762838D01*
G01X4067287Y-7747893D01*
G01X4079357Y-7730583D01*
G01X4088231Y-7711437D01*
G01X4093638Y-7691040D01*
G01X4095413Y-7670012D01*
G01X4093503Y-7648997D01*
G01X4087965Y-7628634D01*
G01X4078968Y-7609546D01*
G01X4066788Y-7592314D01*
G01X4120105Y-7592314D01*
G01X4218686Y-7690895D01*
G01X4218686Y-7848600D01*
G01X4220339Y-7861156D01*
G01X4225186Y-7872857D01*
G01X4232895Y-7882905D01*
G01X4420481Y-8070490D01*
G01X4406491Y-8085790D01*
G01X4395562Y-8103406D01*
G01X4388065Y-8122735D01*
G01X4384259Y-8143114D01*
G01X4384274Y-8163845D01*
G01X4388109Y-8184219D01*
G01X4395633Y-8203537D01*
G01X4406588Y-8221137D01*
G01X4420599Y-8236417D01*
G01X4437185Y-8248854D01*
G01X4455780Y-8258021D01*
G01X4475745Y-8263604D01*
G01X4496398Y-8265412D01*
G01X4517030Y-8263384D01*
G01X4517030Y-8263384D01*
G01X4536934Y-8257588D01*
G01X4555430Y-8248223D01*
G01X4571883Y-8235610D01*
G01X4585730Y-8220181D01*
G01X4596497Y-8202465D01*
G01X4603814Y-8183067D01*
G01X4607431Y-8162654D01*
G01X4607225Y-8141924D01*
G01X4603201Y-8121586D01*
G01X4595499Y-8102339D01*
G01X4584382Y-8084840D01*
G01X4570230Y-8069690D01*
G01X4553529Y-8057408D01*
G01X4534850Y-8048413D01*
G01X4530105Y-8042895D01*
G01X4315714Y-7828505D01*
G01X4315714Y-7670800D01*
G01X4314061Y-7658244D01*
G01X4309214Y-7646543D01*
G01X4301505Y-7636495D01*
G01X4300074Y-7635065D01*
G01X4384264Y-7635065D01*
G01X4384264Y-7655735D01*
G01X4388062Y-7676054D01*
G01X4395529Y-7695329D01*
G01X4406411Y-7712904D01*
G01X4420337Y-7728179D01*
G01X4436832Y-7740636D01*
G01X4455336Y-7749850D01*
G01X4475217Y-7755507D01*
G01X4495800Y-7757414D01*
G01X4516383Y-7755507D01*
G01X4536264Y-7749850D01*
G01X4554768Y-7740636D01*
G01X4571263Y-7728179D01*
G01X4585189Y-7712904D01*
G01X4596071Y-7695329D01*
G01X4603538Y-7676054D01*
G01X4607336Y-7655735D01*
G01X4607336Y-7635065D01*
G01X4603538Y-7614746D01*
G01X4596071Y-7595471D01*
G01X4585189Y-7577896D01*
G01X4571263Y-7562621D01*
G01X4554768Y-7550164D01*
G01X4536264Y-7540950D01*
G01X4516383Y-7535293D01*
G01X4495800Y-7533386D01*
G01X4495800Y-7533386D01*
G01X4475217Y-7535293D01*
G01X4455336Y-7540950D01*
G01X4436832Y-7550164D01*
G01X4420337Y-7562621D01*
G01X4406411Y-7577896D01*
G01X4395529Y-7595471D01*
G01X4388062Y-7614746D01*
G01X4384264Y-7635065D01*
G01X4300074Y-7635065D01*
G01X4174505Y-7509495D01*
G01X4164457Y-7501786D01*
G01X4152756Y-7496939D01*
G01X4140200Y-7495286D01*
G01X4066104Y-7495286D01*
G01X4078562Y-7477946D01*
G01X4087773Y-7458683D01*
G01X4093449Y-7438099D01*
G01X4095413Y-7416838D01*
G01X4093603Y-7395563D01*
G01X4089718Y-7381065D01*
G01X4384264Y-7381065D01*
G01X4384264Y-7401735D01*
G01X4388062Y-7422054D01*
G01X4395529Y-7441329D01*
G01X4406411Y-7458904D01*
G01X4420337Y-7474179D01*
G01X4436832Y-7486636D01*
G01X4455336Y-7495850D01*
G01X4475217Y-7501507D01*
G01X4495800Y-7503414D01*
G01X4516383Y-7501507D01*
G01X4536264Y-7495850D01*
G01X4554768Y-7486636D01*
G01X4571263Y-7474179D01*
G01X4585189Y-7458904D01*
G01X4596071Y-7441329D01*
G01X4603538Y-7422054D01*
G01X4607336Y-7401735D01*
G01X4607336Y-7381065D01*
G01X4603538Y-7360746D01*
G01X4596071Y-7341471D01*
G01X4585189Y-7323896D01*
G01X4571263Y-7308621D01*
G01X4554768Y-7296164D01*
G01X4536264Y-7286950D01*
G01X4516383Y-7281293D01*
G01X4495800Y-7279386D01*
G01X4495800Y-7279386D01*
G01X4475217Y-7281293D01*
G01X4455336Y-7286950D01*
G01X4436832Y-7296164D01*
G01X4420337Y-7308621D01*
G01X4406411Y-7323896D01*
G01X4395529Y-7341471D01*
G01X4388062Y-7360746D01*
G01X4384264Y-7381065D01*
G01X4089718Y-7381065D01*
G01X4088077Y-7374939D01*
G01X4079006Y-7355610D01*
G01X4066673Y-7338179D01*
G01X4051465Y-7323192D01*
G01X4033857Y-7311116D01*
G01X4014397Y-7302329D01*
G01X3993694Y-7297104D01*
G01X3972395Y-7295606D01*
G01X3951165Y-7297881D01*
G01X3930666Y-7303857D01*
G01X3882305Y-7255495D01*
G01X3872257Y-7247786D01*
G01X3860556Y-7242939D01*
G01X3848000Y-7241286D01*
G01X3812104Y-7241286D01*
G01X3824476Y-7224091D01*
G01X3833654Y-7205000D01*
G01X3839357Y-7184600D01*
G01X3841409Y-7163516D01*
G01X3841321Y-7162400D01*
G01X3853786Y-7162400D01*
G01X3855621Y-7183379D01*
G01X3861072Y-7203721D01*
G01X3869972Y-7222807D01*
G01X3882051Y-7240058D01*
G01X3896942Y-7254949D01*
G01X3914193Y-7267028D01*
G01X3933279Y-7275928D01*
G01X3953621Y-7281378D01*
G01X3974600Y-7283214D01*
G01X3995579Y-7281378D01*
G01X4015921Y-7275928D01*
G01X4035007Y-7267028D01*
G01X4052258Y-7254949D01*
G01X4067149Y-7240058D01*
G01X4079228Y-7222807D01*
G01X4088128Y-7203721D01*
G01X4093578Y-7183379D01*
G01X4095414Y-7162400D01*
G01X4095414Y-7162400D01*
G01X4093578Y-7141421D01*
G01X4089732Y-7127065D01*
G01X4384264Y-7127065D01*
G01X4384264Y-7147735D01*
G01X4388062Y-7168054D01*
G01X4395529Y-7187329D01*
G01X4406411Y-7204904D01*
G01X4420337Y-7220179D01*
G01X4436832Y-7232636D01*
G01X4455336Y-7241850D01*
G01X4475217Y-7247507D01*
G01X4495800Y-7249414D01*
G01X4516383Y-7247507D01*
G01X4536264Y-7241850D01*
G01X4554768Y-7232636D01*
G01X4571263Y-7220179D01*
G01X4585189Y-7204904D01*
G01X4596071Y-7187329D01*
G01X4603538Y-7168054D01*
G01X4607336Y-7147735D01*
G01X4607336Y-7127065D01*
G01X4603538Y-7106746D01*
G01X4596071Y-7087471D01*
G01X4585189Y-7069896D01*
G01X4571263Y-7054621D01*
G01X4554768Y-7042164D01*
G01X4536264Y-7032950D01*
G01X4516383Y-7027293D01*
G01X4495800Y-7025386D01*
G01X4495800Y-7025386D01*
G01X4475217Y-7027293D01*
G01X4455336Y-7032950D01*
G01X4436832Y-7042164D01*
G01X4420337Y-7054621D01*
G01X4406411Y-7069896D01*
G01X4395529Y-7087471D01*
G01X4388062Y-7106746D01*
G01X4384264Y-7127065D01*
G01X4089732Y-7127065D01*
G01X4088128Y-7121079D01*
G01X4079228Y-7101993D01*
G01X4067149Y-7084742D01*
G01X4052258Y-7069851D01*
G01X4035007Y-7057772D01*
G01X4015921Y-7048872D01*
G01X3995579Y-7043421D01*
G01X3974600Y-7041586D01*
G01X3953621Y-7043421D01*
G01X3933279Y-7048872D01*
G01X3914193Y-7057772D01*
G01X3896942Y-7069851D01*
G01X3882051Y-7084742D01*
G01X3869972Y-7101993D01*
G01X3861072Y-7121079D01*
G01X3855621Y-7141421D01*
G01X3853786Y-7162400D01*
G01X3841321Y-7162400D01*
G01X3839747Y-7142399D01*
G01X3834422Y-7121896D01*
G01X3825598Y-7102639D01*
G01X3813546Y-7085218D01*
G01X3798637Y-7070171D01*
G01X3781329Y-7057959D01*
G01X3762154Y-7048957D01*
G01X3741701Y-7043443D01*
G01X3720600Y-7041586D01*
G01X3699499Y-7043443D01*
G01X3679046Y-7048957D01*
G01X3659871Y-7057959D01*
G01X3642563Y-7070171D01*
G01X3627654Y-7085218D01*
G01X3615602Y-7102639D01*
G01X3606778Y-7121896D01*
G01X3601453Y-7142399D01*
G01X3599791Y-7163516D01*
G01X3601843Y-7184600D01*
G01X3607546Y-7205000D01*
G01X3616724Y-7224091D01*
G01X3629096Y-7241286D01*
G01X3601495Y-7241286D01*
G01X3565573Y-7205364D01*
G01X3572811Y-7197543D01*
G01X3577427Y-7187938D01*
G01X3579012Y-7177400D01*
G01X3579012Y-7097400D01*
G01X3577260Y-7086333D01*
G01X3572173Y-7076349D01*
G01X3564249Y-7068426D01*
G01X3554266Y-7063339D01*
G01X3543198Y-7061586D01*
G01X3443199Y-7061586D01*
G01X3432131Y-7063339D01*
G01X3422148Y-7068426D01*
G01X3414224Y-7076349D01*
G01X3409137Y-7086333D01*
G01X3407385Y-7097400D01*
G01X3407385Y-7177400D01*
G01X3409137Y-7188467D01*
G01X3414224Y-7198451D01*
G01X3422148Y-7206374D01*
G01X3432131Y-7211461D01*
G01X3443199Y-7213214D01*
G01X3446096Y-7213214D01*
G01X3450943Y-7225434D01*
G01X3458894Y-7235903D01*
G01X3541368Y-7318377D01*
G01X3532659Y-7314730D01*
G01X3523300Y-7313485D01*
G01X3382300Y-7313485D01*
G01X3371232Y-7315238D01*
G01X3361249Y-7320325D01*
G01X3353325Y-7328249D01*
G01X3348238Y-7338232D01*
G01X3346486Y-7349299D01*
G01X3346486Y-7484300D01*
G01X3348245Y-7495388D01*
G01X3287400Y-7495388D01*
G01X3276333Y-7497140D01*
G01X3266349Y-7502227D01*
G01X3258426Y-7510151D01*
G01X3253339Y-7520134D01*
G01X3251586Y-7531202D01*
G01X2843013Y-7531202D01*
G01X3255997Y-7118218D01*
G01X3313201Y-7118218D01*
G01X3324269Y-7116465D01*
G01X3334252Y-7111378D01*
G01X3342176Y-7103455D01*
G01X3347263Y-7093471D01*
G01X3349015Y-7082404D01*
G01X3349015Y-7002404D01*
G01X3347263Y-6991337D01*
G01X3342176Y-6981353D01*
G01X3334252Y-6973430D01*
G01X3324269Y-6968343D01*
G01X3313201Y-6966590D01*
G01X3213202Y-6966590D01*
G01X3202134Y-6968343D01*
G01X3192151Y-6973430D01*
G01X3184227Y-6981353D01*
G01X3179140Y-6991337D01*
G01X3177388Y-7002404D01*
G01X3177388Y-7059609D01*
G01X2725016Y-7511980D01*
G01X2717307Y-7522028D01*
G01X2712460Y-7533728D01*
G01X2710807Y-7546285D01*
G01X2710807Y-8661998D01*
G01X1953514Y-7904705D01*
G01X1953514Y-6908400D01*
G01X3599786Y-6908400D01*
G01X3601622Y-6929379D01*
G01X3607072Y-6949721D01*
G01X3615972Y-6968807D01*
G01X3628051Y-6986058D01*
G01X3642942Y-7000949D01*
G01X3660193Y-7013028D01*
G01X3679279Y-7021928D01*
G01X3699621Y-7027378D01*
G01X3720600Y-7029214D01*
G01X3741579Y-7027378D01*
G01X3761921Y-7021928D01*
G01X3781007Y-7013028D01*
G01X3798258Y-7000949D01*
G01X3813149Y-6986058D01*
G01X3825228Y-6968807D01*
G01X3834128Y-6949721D01*
G01X3839579Y-6929379D01*
G01X3841414Y-6908400D01*
G01X3841414Y-6908400D01*
G01X3853786Y-6908400D01*
G01X3855621Y-6929379D01*
G01X3861072Y-6949721D01*
G01X3869972Y-6968807D01*
G01X3882051Y-6986058D01*
G01X3896942Y-7000949D01*
G01X3914193Y-7013028D01*
G01X3933279Y-7021928D01*
G01X3953621Y-7027378D01*
G01X3974600Y-7029214D01*
G01X3995579Y-7027378D01*
G01X4015921Y-7021928D01*
G01X4035007Y-7013028D01*
G01X4052258Y-7000949D01*
G01X4067149Y-6986058D01*
G01X4079228Y-6968807D01*
G01X4088128Y-6949721D01*
G01X4093578Y-6929379D01*
G01X4095414Y-6908400D01*
G01X4095414Y-6908400D01*
G01X4093578Y-6887421D01*
G01X4088128Y-6867079D01*
G01X4079228Y-6847993D01*
G01X4067149Y-6830742D01*
G01X4052258Y-6815851D01*
G01X4035007Y-6803772D01*
G01X4015921Y-6794872D01*
G01X3995579Y-6789421D01*
G01X3974600Y-6787586D01*
G01X3953621Y-6789421D01*
G01X3933279Y-6794872D01*
G01X3914193Y-6803772D01*
G01X3896942Y-6815851D01*
G01X3882051Y-6830742D01*
G01X3869972Y-6847993D01*
G01X3861072Y-6867079D01*
G01X3855621Y-6887421D01*
G01X3853786Y-6908400D01*
G01X3841414Y-6908400D01*
G01X3839579Y-6887421D01*
G01X3834128Y-6867079D01*
G01X3825228Y-6847993D01*
G01X3813149Y-6830742D01*
G01X3798258Y-6815851D01*
G01X3781007Y-6803772D01*
G01X3761921Y-6794872D01*
G01X3741579Y-6789421D01*
G01X3720600Y-6787586D01*
G01X3699621Y-6789421D01*
G01X3679279Y-6794872D01*
G01X3660193Y-6803772D01*
G01X3642942Y-6815851D01*
G01X3628051Y-6830742D01*
G01X3615972Y-6847993D01*
G01X3607072Y-6867079D01*
G01X3601622Y-6887421D01*
G01X3599786Y-6908400D01*
G01X1953514Y-6908400D01*
G01X1953514Y-6496499D01*
G01X2960638Y-6496499D01*
G01X2961052Y-6511850D01*
G01X2964986Y-6526694D01*
G01X2972228Y-6540236D01*
G01X2982391Y-6551748D01*
G01X2994930Y-6560614D01*
G01X3009172Y-6566359D01*
G01X3024353Y-6568673D01*
G01X3159510Y-6703829D01*
G01X3160877Y-6719110D01*
G01X3165719Y-6733668D01*
G01X3173777Y-6746724D01*
G01X3184620Y-6757578D01*
G01X3197666Y-6765650D01*
G01X3212219Y-6770509D01*
G01X3227499Y-6771892D01*
G01X3242687Y-6769728D01*
G01X3256972Y-6764131D01*
G01X3269588Y-6755401D01*
G01X3279861Y-6744006D01*
G01X3287240Y-6730554D01*
G01X3291330Y-6715768D01*
G01X3291913Y-6700437D01*
G01X3288957Y-6685382D01*
G01X3282620Y-6671409D01*
G01X3273243Y-6659267D01*
G01X3267240Y-6654400D01*
G01X3599786Y-6654400D01*
G01X3601622Y-6675379D01*
G01X3607072Y-6695721D01*
G01X3615972Y-6714807D01*
G01X3628051Y-6732058D01*
G01X3642942Y-6746949D01*
G01X3660193Y-6759028D01*
G01X3679279Y-6767928D01*
G01X3699621Y-6773378D01*
G01X3720600Y-6775214D01*
G01X3741579Y-6773378D01*
G01X3761921Y-6767928D01*
G01X3781007Y-6759028D01*
G01X3798258Y-6746949D01*
G01X3813149Y-6732058D01*
G01X3825228Y-6714807D01*
G01X3834128Y-6695721D01*
G01X3839579Y-6675379D01*
G01X3841414Y-6654400D01*
G01X3841414Y-6654400D01*
G01X3853786Y-6654400D01*
G01X3855621Y-6675379D01*
G01X3861072Y-6695721D01*
G01X3869972Y-6714807D01*
G01X3882051Y-6732058D01*
G01X3896942Y-6746949D01*
G01X3914193Y-6759028D01*
G01X3933279Y-6767928D01*
G01X3953621Y-6773378D01*
G01X3974600Y-6775214D01*
G01X3995579Y-6773378D01*
G01X4015921Y-6767928D01*
G01X4035007Y-6759028D01*
G01X4052258Y-6746949D01*
G01X4067149Y-6732058D01*
G01X4079228Y-6714807D01*
G01X4088128Y-6695721D01*
G01X4093578Y-6675379D01*
G01X4095414Y-6654400D01*
G01X4095414Y-6654400D01*
G01X4093578Y-6633421D01*
G01X4088128Y-6613079D01*
G01X4079228Y-6593993D01*
G01X4067149Y-6576742D01*
G01X4052258Y-6561851D01*
G01X4035007Y-6549772D01*
G01X4015921Y-6540872D01*
G01X3995579Y-6535421D01*
G01X3974600Y-6533586D01*
G01X3953621Y-6535421D01*
G01X3933279Y-6540872D01*
G01X3914193Y-6549772D01*
G01X3896942Y-6561851D01*
G01X3882051Y-6576742D01*
G01X3869972Y-6593993D01*
G01X3861072Y-6613079D01*
G01X3855621Y-6633421D01*
G01X3853786Y-6654400D01*
G01X3841414Y-6654400D01*
G01X3839579Y-6633421D01*
G01X3834128Y-6613079D01*
G01X3825228Y-6593993D01*
G01X3813149Y-6576742D01*
G01X3798258Y-6561851D01*
G01X3781007Y-6549772D01*
G01X3761921Y-6540872D01*
G01X3741579Y-6535421D01*
G01X3720600Y-6533586D01*
G01X3699621Y-6535421D01*
G01X3679279Y-6540872D01*
G01X3660193Y-6549772D01*
G01X3642942Y-6561851D01*
G01X3628051Y-6576742D01*
G01X3615972Y-6593993D01*
G01X3607072Y-6613079D01*
G01X3601622Y-6633421D01*
G01X3599786Y-6654400D01*
G01X3267240Y-6654400D01*
G01X3261326Y-6649605D01*
G01X3247507Y-6642939D01*
G01X3232527Y-6639628D01*
G01X3092962Y-6500064D01*
G01X3092962Y-6500064D01*
G01X3090648Y-6484882D01*
G01X3084904Y-6470641D01*
G01X3076037Y-6458102D01*
G01X3064525Y-6447939D01*
G01X3050983Y-6440696D01*
G01X3036139Y-6436763D01*
G01X3020788Y-6436349D01*
G01X3005753Y-6439478D01*
G01X2991841Y-6445980D01*
G01X2979798Y-6455509D01*
G01X2970270Y-6467552D01*
G01X2963767Y-6481464D01*
G01X2960638Y-6496499D01*
G01X1953514Y-6496499D01*
G01X1953514Y-6400400D01*
G01X3853786Y-6400400D01*
G01X3855621Y-6421379D01*
G01X3861072Y-6441721D01*
G01X3869972Y-6460807D01*
G01X3882051Y-6478058D01*
G01X3896942Y-6492949D01*
G01X3914193Y-6505028D01*
G01X3933279Y-6513928D01*
G01X3953621Y-6519378D01*
G01X3974600Y-6521214D01*
G01X3995579Y-6519378D01*
G01X4015921Y-6513928D01*
G01X4035007Y-6505028D01*
G01X4052258Y-6492949D01*
G01X4067149Y-6478058D01*
G01X4079228Y-6460807D01*
G01X4088128Y-6441721D01*
G01X4093578Y-6421379D01*
G01X4095414Y-6400400D01*
G01X4095414Y-6400400D01*
G01X4093578Y-6379421D01*
G01X4088128Y-6359079D01*
G01X4079228Y-6339993D01*
G01X4067149Y-6322742D01*
G01X4052258Y-6307851D01*
G01X4035007Y-6295772D01*
G01X4015921Y-6286872D01*
G01X3995579Y-6281421D01*
G01X3974600Y-6279586D01*
G01X3953621Y-6281421D01*
G01X3933279Y-6286872D01*
G01X3914193Y-6295772D01*
G01X3896942Y-6307851D01*
G01X3882051Y-6322742D01*
G01X3869972Y-6339993D01*
G01X3861072Y-6359079D01*
G01X3855621Y-6379421D01*
G01X3853786Y-6400400D01*
G01X1953514Y-6400400D01*
G01X1953514Y-6166610D01*
G01X1962612Y-6154239D01*
G01X1968621Y-6140106D01*
G01X1971218Y-6124971D01*
G01X1970264Y-6109644D01*
G01X1965810Y-6094947D01*
G01X1958094Y-6081669D01*
G01X1947532Y-6070522D01*
G01X1934689Y-6062103D01*
G01X1920253Y-6056864D01*
G01X1905000Y-6055086D01*
G01X1889747Y-6056864D01*
G01X1875311Y-6062103D01*
G01X1862468Y-6070522D01*
G01X1851906Y-6081669D01*
G01X1844190Y-6094947D01*
G01X1839736Y-6109644D01*
G01X1838782Y-6124971D01*
G01X165814Y-6124971D01*
G01X165814Y-5301434D01*
G01X2829287Y-5301434D01*
G01X2830852Y-5316084D01*
G01X2835613Y-5330028D01*
G01X2843335Y-5342575D01*
G01X2853637Y-5353108D01*
G01X2866011Y-5361107D01*
G01X2879845Y-5366175D01*
G01X2894457Y-5368064D01*
G01X3563798Y-6037402D01*
G01X3573014Y-6044965D01*
G01X3583528Y-6050585D01*
G01X3594936Y-6054045D01*
G01X3606800Y-6055214D01*
G01X3886410Y-6055214D01*
G01X4168286Y-6337090D01*
G01X4168286Y-6362700D01*
G01X4169455Y-6374564D01*
G01X4172915Y-6385972D01*
G01X4178535Y-6396486D01*
G01X4186098Y-6405702D01*
G01X4386282Y-6605886D01*
G01X4383830Y-6626254D01*
G01X4385134Y-6646728D01*
G01X4390151Y-6666620D01*
G01X4398711Y-6685264D01*
G01X4410528Y-6702035D01*
G01X4425205Y-6716368D01*
G01X4442250Y-6727785D01*
G01X4461092Y-6735901D01*
G01X4481098Y-6740445D01*
G01X4501597Y-6741264D01*
G01X4521901Y-6738331D01*
G01X4541330Y-6731743D01*
G01X4559232Y-6721723D01*
G01X4575006Y-6708606D01*
G01X4588123Y-6692832D01*
G01X4598143Y-6674930D01*
G01X4604731Y-6655501D01*
G01X4607664Y-6635197D01*
G01X4606845Y-6614698D01*
G01X4602301Y-6594692D01*
G01X4594185Y-6575850D01*
G01X4582768Y-6558805D01*
G01X4568435Y-6544128D01*
G01X4551664Y-6532311D01*
G01X4533020Y-6523751D01*
G01X4513128Y-6518734D01*
G01X4492654Y-6517430D01*
G01X4472286Y-6519882D01*
G01X4289914Y-6337510D01*
G01X4289914Y-6311900D01*
G01X4288745Y-6300036D01*
G01X4285285Y-6288628D01*
G01X4279665Y-6278114D01*
G01X4272102Y-6268898D01*
G01X3954602Y-5951398D01*
G01X3945386Y-5943835D01*
G01X3934872Y-5938215D01*
G01X3923464Y-5934755D01*
G01X3911600Y-5933586D01*
G01X3631990Y-5933586D01*
G01X2957159Y-5258758D01*
G01X2947292Y-5250766D01*
G01X2935981Y-5244997D01*
G01X2923718Y-5241702D01*
G01X2909763Y-5236976D01*
G01X2895109Y-5235448D01*
G01X2880479Y-5237193D01*
G01X2866596Y-5242125D01*
G01X2854144Y-5250001D01*
G01X2843738Y-5260433D01*
G01X2835893Y-5272904D01*
G01X2830995Y-5286800D01*
G01X2830995Y-5286800D01*
G01X2829287Y-5301434D01*
G01X165814Y-5301434D01*
G01X165814Y-5232400D01*
G01X2270486Y-5232400D01*
G01X2272413Y-5248270D01*
G01X2278082Y-5263218D01*
G01X2287163Y-5276374D01*
G01X2299129Y-5286975D01*
G01X2313285Y-5294405D01*
G01X2328807Y-5298231D01*
G01X2344793Y-5298231D01*
G01X2360315Y-5294405D01*
G01X2374471Y-5286975D01*
G01X2386437Y-5276374D01*
G01X2395518Y-5263218D01*
G01X2401187Y-5248270D01*
G01X2403114Y-5232400D01*
G01X2401187Y-5216530D01*
G01X2397573Y-5207000D01*
G01X3540486Y-5207000D01*
G01X3542413Y-5222870D01*
G01X3548082Y-5237818D01*
G01X3557163Y-5250974D01*
G01X3569129Y-5261575D01*
G01X3583285Y-5269005D01*
G01X3598807Y-5272831D01*
G01X3614793Y-5272831D01*
G01X3630315Y-5269005D01*
G01X3644471Y-5261575D01*
G01X3656437Y-5250974D01*
G01X3665518Y-5237818D01*
G01X3671187Y-5222870D01*
G01X3673114Y-5207000D01*
G01X3671187Y-5191130D01*
G01X3665518Y-5176182D01*
G01X3656437Y-5163026D01*
G01X3644471Y-5152425D01*
G01X3630315Y-5144995D01*
G01X3614793Y-5141169D01*
G01X3598807Y-5141169D01*
G01X3583285Y-5144995D01*
G01X3569129Y-5152425D01*
G01X3557163Y-5163026D01*
G01X3548082Y-5176182D01*
G01X3542413Y-5191130D01*
G01X3540486Y-5207000D01*
G01X3540486Y-5207000D01*
G01X2397573Y-5207000D01*
G01X2395518Y-5201582D01*
G01X2386437Y-5188426D01*
G01X2374471Y-5177825D01*
G01X2360315Y-5170395D01*
G01X2344793Y-5166569D01*
G01X2328807Y-5166569D01*
G01X2313285Y-5170395D01*
G01X2299129Y-5177825D01*
G01X2287163Y-5188426D01*
G01X2278082Y-5201582D01*
G01X2272413Y-5216530D01*
G01X2270486Y-5232400D01*
G01X2270486Y-5232400D01*
G01X165814Y-5232400D01*
G01X165814Y-4673600D01*
G01X1320577Y-4673600D01*
G01X1322504Y-4689470D01*
G01X1328173Y-4704418D01*
G01X1337254Y-4717574D01*
G01X1349220Y-4728175D01*
G01X1363376Y-4735605D01*
G01X1378898Y-4739431D01*
G01X1394884Y-4739431D01*
G01X1410406Y-4735605D01*
G01X1424561Y-4728175D01*
G01X1436528Y-4717574D01*
G01X1445609Y-4704418D01*
G01X1451278Y-4689470D01*
G01X1453205Y-4673600D01*
G01X1451278Y-4657730D01*
G01X1445609Y-4642782D01*
G01X1436528Y-4629626D01*
G01X1424561Y-4619025D01*
G01X1410406Y-4611595D01*
G01X1394884Y-4607769D01*
G01X1378898Y-4607769D01*
G01X1363376Y-4611595D01*
G01X1349220Y-4619025D01*
G01X1337254Y-4629626D01*
G01X1328173Y-4642782D01*
G01X1322504Y-4657730D01*
G01X1320577Y-4673600D01*
G01X1320577Y-4673600D01*
G01X165814Y-4673600D01*
G01X165814Y-4089400D01*
G01X183986Y-4089400D01*
G01X185822Y-4110379D01*
G01X191272Y-4130721D01*
G01X200172Y-4149807D01*
G01X212251Y-4167058D01*
G01X227142Y-4181949D01*
G01X244393Y-4194028D01*
G01X263479Y-4202928D01*
G01X283821Y-4208378D01*
G01X304800Y-4210214D01*
G01X325779Y-4208378D01*
G01X346121Y-4202928D01*
G01X365207Y-4194028D01*
G01X382458Y-4181949D01*
G01X397349Y-4167058D01*
G01X409428Y-4149807D01*
G01X418328Y-4130721D01*
G01X423778Y-4110379D01*
G01X425614Y-4089400D01*
G01X423778Y-4068421D01*
G01X418328Y-4048079D01*
G01X409428Y-4028993D01*
G01X397349Y-4011742D01*
G01X382458Y-3996851D01*
G01X365207Y-3984772D01*
G01X346121Y-3975872D01*
G01X325779Y-3970422D01*
G01X304800Y-3968586D01*
G01X304800Y-3968586D01*
G01X283821Y-3970422D01*
G01X263479Y-3975872D01*
G01X244393Y-3984772D01*
G01X227142Y-3996851D01*
G01X212251Y-4011742D01*
G01X200172Y-4028993D01*
G01X191272Y-4048079D01*
G01X185822Y-4068421D01*
G01X183986Y-4089400D01*
G01X165814Y-4089400D01*
G01X165814Y-3835400D01*
G01X183986Y-3835400D01*
G01X185822Y-3856379D01*
G01X191272Y-3876721D01*
G01X200172Y-3895807D01*
G01X212251Y-3913058D01*
G01X227142Y-3927949D01*
G01X244393Y-3940028D01*
G01X263479Y-3948928D01*
G01X283821Y-3954378D01*
G01X304800Y-3956214D01*
G01X325779Y-3954378D01*
G01X346121Y-3948928D01*
G01X365207Y-3940028D01*
G01X382458Y-3927949D01*
G01X397349Y-3913058D01*
G01X409428Y-3895807D01*
G01X418328Y-3876721D01*
G01X423778Y-3856379D01*
G01X425614Y-3835400D01*
G01X423778Y-3814421D01*
G01X418328Y-3794079D01*
G01X409428Y-3774993D01*
G01X397349Y-3757742D01*
G01X382458Y-3742851D01*
G01X365207Y-3730772D01*
G01X346121Y-3721872D01*
G01X325779Y-3716422D01*
G01X304800Y-3714586D01*
G01X304800Y-3714586D01*
G01X283821Y-3716422D01*
G01X263479Y-3721872D01*
G01X244393Y-3730772D01*
G01X227142Y-3742851D01*
G01X212251Y-3757742D01*
G01X200172Y-3774993D01*
G01X191272Y-3794079D01*
G01X185822Y-3814421D01*
G01X183986Y-3835400D01*
G01X165814Y-3835400D01*
G01X165814Y-3344124D01*
G01X390886Y-3344124D01*
G01X392813Y-3359994D01*
G01X398482Y-3374942D01*
G01X407563Y-3388098D01*
G01X419529Y-3398700D01*
G01X433685Y-3406129D01*
G01X449207Y-3409955D01*
G01X465193Y-3409955D01*
G01X480715Y-3406129D01*
G01X494871Y-3398700D01*
G01X506837Y-3388098D01*
G01X515918Y-3374942D01*
G01X521587Y-3359994D01*
G01X523514Y-3344124D01*
G01X521587Y-3328254D01*
G01X515918Y-3313306D01*
G01X506837Y-3300150D01*
G01X494871Y-3289549D01*
G01X480715Y-3282119D01*
G01X465193Y-3278294D01*
G01X449207Y-3278294D01*
G01X433685Y-3282119D01*
G01X419529Y-3289549D01*
G01X407563Y-3300150D01*
G01X398482Y-3313306D01*
G01X392813Y-3328254D01*
G01X390886Y-3344124D01*
G01X390886Y-3344124D01*
G01X165814Y-3344124D01*
G01X165814Y-2981414D01*
G01X177800Y-2981414D01*
G01X195642Y-2979539D01*
G01X212704Y-2973995D01*
G01X228240Y-2965025D01*
G01X241572Y-2953021D01*
G01X252117Y-2938507D01*
G01X259414Y-2922118D01*
G01X263144Y-2904570D01*
G01X263144Y-2886630D01*
G01X259414Y-2869082D01*
G01X252117Y-2852693D01*
G01X241572Y-2838179D01*
G01X228240Y-2826175D01*
G01X212704Y-2817205D01*
G01X195642Y-2811661D01*
G01X177800Y-2809786D01*
G01X101600Y-2809786D01*
G01X84859Y-2811435D01*
G01X68760Y-2816318D01*
G01X53924Y-2824248D01*
G01X40920Y-2834920D01*
G37*
G54D10*
G01X40920Y-2834920D02*
G01X35814Y-2840027D01*
G01X35814Y-35814D01*
G01X2685272Y-35814D01*
G03X2681986Y-50800I32528J-14986D01*
G01X2681986Y-682917D01*
G03X2717800Y-718731I35814J0D01*
G01X2756371Y-718731D01*
G01X4332986Y-2295345D01*
G01X4332986Y-2459027D01*
G01X3772583Y-1898623D01*
G03X3711903Y-1873489I-60680J-60680D01*
G01X2906014Y-1873489D01*
G01X2906014Y-1615825D01*
G03X2870200Y-1580011I-35814J0D01*
G01X2667000Y-1580011D01*
G03X2631186Y-1615825I0J-35814D01*
G01X2631186Y-1907286D01*
G01X1752600Y-1907286D01*
G03X1718295Y-1921495I0J-48514D01*
G01X1221370Y-2418421D01*
G03X1207161Y-2452725I34305J-34305D01*
G01X1207161Y-4032085D01*
G03X1255675Y-4143609I48514J-45210D01*
G03X1304189Y-4032085I0J66314D01*
G01X1304189Y-2472821D01*
G01X1772695Y-2004314D01*
G01X2631186Y-2004314D01*
G01X2631186Y-2177005D01*
G01X2404095Y-2404095D01*
G03X2389886Y-2438400I34305J-34305D01*
G01X2389886Y-3012324D01*
G03X2394673Y-3033337I48514J0D01*
G01X2394673Y-3903541D01*
G03X2408882Y-3937845I48514J0D01*
G01X3048593Y-4577556D01*
G03X3137929Y-4656185I64006J-17343D01*
G03X3145683Y-4537428I-25330J61286D01*
G01X2491701Y-3883445D01*
G01X2491701Y-3017111D01*
G03X2486914Y-2996098I-48514J0D01*
G01X2486914Y-2458495D01*
G01X2662003Y-2283406D01*
G03X2667000Y-2283756I4997J35464D01*
G01X2870200Y-2283756D01*
G03X2906014Y-2247942I0J35814D01*
G01X2906014Y-2045117D01*
G01X3676358Y-2045117D01*
G01X4282720Y-2651480D01*
G03X4343400Y-2676614I60680J60680D01*
G01X4425688Y-2676614D01*
G03X4453898Y-2693386I70112J85814D01*
G01X4453178Y-2693386D01*
G03X4442022Y-2694686I0J-48514D01*
G01X4394200Y-2694686D01*
G03X4359895Y-2708895I0J-48514D01*
G01X4258295Y-2810495D01*
G03X4244086Y-2844800I34305J-34305D01*
G01X4244086Y-3891505D01*
G01X4178900Y-3956690D01*
G03X4164691Y-3990995I34305J-34305D01*
G01X4164691Y-4301385D01*
G03X4213205Y-4412909I48514J-45210D01*
G03X4261719Y-4301385I0J66314D01*
G01X4261719Y-4011090D01*
G01X4326905Y-3945905D01*
G03X4341114Y-3911600I-34305J34305D01*
G01X4341114Y-2864895D01*
G01X4414295Y-2791714D01*
G01X4451878Y-2791714D01*
G03X4463033Y-2790414I0J48514D01*
G01X4528567Y-2790414D01*
G03X4539722Y-2791714I11155J47214D01*
G01X4546600Y-2791714D01*
G03X4580905Y-2777505I0J48514D01*
G01X4682505Y-2675905D01*
G03X4696714Y-2641600I-34305J34305D01*
G01X4696714Y-2489200D01*
G03X4682505Y-2454895I-48514J0D01*
G01X4656612Y-2429003D01*
G01X4656612Y-2209800D01*
G03X4620798Y-2173986I-35814J0D01*
G01X4454345Y-2173986D01*
G01X4055541Y-1775181D01*
G03X4145657Y-1584494I10910J111481D01*
G03X3954970Y-1674610I-79206J-79206D01*
G01X2956814Y-676455D01*
G01X2956814Y-50800D01*
G03X2953528Y-35814I-35814J0D01*
G01X4764186Y-35814D01*
G01X4764186Y-10962640D01*
G01X35814Y-10962640D01*
G01X35814Y-9529773D01*
G01X266120Y-9760080D01*
G03X326800Y-9785214I60680J60680D01*
G01X842559Y-9785214D01*
G03X1012641Y-9785214I85041J85814D01*
G01X1096559Y-9785214D01*
G03X1302414Y-9699400I85041J85814D01*
G03X1096559Y-9613586I-120814J0D01*
G01X1012641Y-9613586D01*
G03X842559Y-9613586I-85041J-85814D01*
G01X362345Y-9613586D01*
G01X165814Y-9417055D01*
G01X165814Y-2981414D01*
G01X177800Y-2981414D01*
G03X177800Y-2809786I0J85814D01*
G01X101600Y-2809786D01*
G03X40920Y-2834920I0J-85814D01*
G01X42652Y-241300D02*
G03X175280Y-241300I66314J0D01*
G03X42652Y-241300I-66314J0D01*
G01X68601Y-457200D02*
G03X201229Y-457200I66314J0D01*
G03X68601Y-457200I-66314J0D01*
G01X304800Y-3968586D02*
G03X304800Y-4210214I0J-120814D01*
G03X304800Y-3968586I0J120814D01*
G01X304800Y-3714586D02*
G03X304800Y-3956214I0J-120814D01*
G03X304800Y-3714586I0J120814D01*
G01X304800Y-6518586D02*
G03X304800Y-6740214I0J-110814D01*
G03X304800Y-6518586I0J110814D01*
G01X1007095Y-6757295D02*
G03X992886Y-6791600I34305J-34305D01*
G01X992886Y-6803745D01*
G03X835077Y-6827711I-65286J-101655D01*
G03X838770Y-6987286I92522J-77689D01*
G01X477295Y-6987286D01*
G01X409554Y-6919544D01*
G03X226443Y-6805043I-104754J36144D01*
G03X340944Y-6988154I78357J-78357D01*
G01X422895Y-7070105D01*
G03X457200Y-7084314I34305J34305D01*
G01X832953Y-7084314D01*
G03X940665Y-7279505I94647J-75086D01*
G03X1003889Y-7065720I-13065J120105D01*
G01X1075705Y-6993905D01*
G03X1085840Y-6979061I-34305J34305D01*
G03X1302371Y-6908630I95760J73661D01*
G03X1089914Y-6826725I-120771J3230D01*
G01X1089914Y-6811695D01*
G01X1137666Y-6763943D01*
G03X1267028Y-6565972I43934J112543D01*
G03X1069057Y-6695333I-85428J-85428D01*
G01X1007095Y-6757295D01*
G01X304800Y-7280586D02*
G03X304800Y-7502214I0J-110814D01*
G03X304800Y-7280586I0J110814D01*
G01X304800Y-7788586D02*
G03X304800Y-8010214I0J-110814D01*
G03X304800Y-7788586I0J110814D01*
G01X390886Y-3344124D02*
G03X523514Y-3344124I66314J0D01*
G03X390886Y-3344124I-66314J0D01*
G01X1048414Y-7921400D02*
G03X806786Y-7921400I-120814J0D01*
G03X1048414Y-7921400I120814J0D01*
G01X1048414Y-9445400D02*
G03X806786Y-9445400I-120814J0D01*
G03X1048414Y-9445400I120814J0D01*
G01X1048414Y-9191400D02*
G03X806786Y-9191400I-120814J0D01*
G03X1048414Y-9191400I120814J0D01*
G01X1048414Y-6651400D02*
G03X806786Y-6651400I-120814J0D01*
G03X1048414Y-6651400I120814J0D01*
G01X1048414Y-7413400D02*
G03X806786Y-7413400I-120814J0D01*
G03X1048414Y-7413400I120814J0D01*
G01X1048414Y-7667400D02*
G03X806786Y-7667400I-120814J0D01*
G03X1048414Y-7667400I120814J0D01*
G01X1048414Y-8683400D02*
G03X806786Y-8683400I-120814J0D01*
G03X1048414Y-8683400I120814J0D01*
G01X1048414Y-8429400D02*
G03X806786Y-8429400I-120814J0D01*
G03X1048414Y-8429400I120814J0D01*
G01X1048414Y-8175400D02*
G03X806786Y-8175400I-120814J0D01*
G03X1048414Y-8175400I120814J0D01*
G01X1048414Y-8937400D02*
G03X806786Y-8937400I-120814J0D01*
G03X1048414Y-8937400I120814J0D01*
G01X1302414Y-6397400D02*
G03X1060786Y-6397400I-120814J0D01*
G03X1302414Y-6397400I120814J0D01*
G01X1302414Y-7921400D02*
G03X1060786Y-7921400I-120814J0D01*
G03X1302414Y-7921400I120814J0D01*
G01X1302414Y-9445400D02*
G03X1060786Y-9445400I-120814J0D01*
G03X1302414Y-9445400I120814J0D01*
G01X1302414Y-9191400D02*
G03X1060786Y-9191400I-120814J0D01*
G03X1302414Y-9191400I120814J0D01*
G01X1302414Y-7667400D02*
G03X1060786Y-7667400I-120814J0D01*
G03X1302414Y-7667400I120814J0D01*
G01X1302414Y-7413400D02*
G03X1060786Y-7413400I-120814J0D01*
G03X1302414Y-7413400I120814J0D01*
G01X1302414Y-7159400D02*
G03X1060786Y-7159400I-120814J0D01*
G03X1302414Y-7159400I120814J0D01*
G01X1302414Y-8175400D02*
G03X1060786Y-8175400I-120814J0D01*
G03X1302414Y-8175400I120814J0D01*
G01X1302414Y-8683400D02*
G03X1060786Y-8683400I-120814J0D01*
G03X1302414Y-8683400I120814J0D01*
G01X1302414Y-8429400D02*
G03X1060786Y-8429400I-120814J0D01*
G03X1302414Y-8429400I120814J0D01*
G01X1302414Y-8937400D02*
G03X1060786Y-8937400I-120814J0D01*
G03X1302414Y-8937400I120814J0D01*
G01X1320577Y-4673600D02*
G03X1453205Y-4673600I66314J0D01*
G03X1320577Y-4673600I-66314J0D01*
G01X1366256Y-2900945D02*
G03X1498884Y-2900945I66314J0D01*
G03X1366256Y-2900945I-66314J0D01*
G01X1531309Y-419100D02*
G03X1637012Y-472449I66314J0D01*
G03X1714500Y-473377I39388J53349D01*
G03X1818914Y-419100I38100J54277D01*
G03X1714500Y-364823I-66314J0D01*
G03X1637012Y-365751I-38100J-54277D01*
G03X1531309Y-419100I-39388J-53349D01*
G01X2247900Y-10650654D02*
G03X2070100Y-10650654I-88900J-68146D01*
G03X1892300Y-10650654I-88900J-68146D01*
G03X1691386Y-10718800I-88900J-68146D01*
G03X1892300Y-10786946I112014J0D01*
G03X2070100Y-10786946I88900J68146D01*
G03X2247900Y-10786946I88900J68146D01*
G03X2425700Y-10786946I88900J68146D01*
G03X2626614Y-10718800I88900J68146D01*
G03X2425700Y-10650654I-112014J0D01*
G03X2247900Y-10650654I-88900J-68146D01*
G01X2699086Y-8787495D02*
G03X2716319Y-8822123I60235J8375D01*
G01X3258998Y-9364802D01*
G03X3302000Y-9382614I43002J43002D01*
G01X3797410Y-9382614D01*
G01X3854127Y-9439331D01*
G03X4073516Y-9517766I120473J-9069D01*
G03X3925028Y-9338224I-98916J69366D01*
G01X3865602Y-9278798D01*
G03X3822600Y-9260986I-43002J-43002D01*
G01X3821408Y-9260986D01*
G03X3720600Y-9073586I-100808J66586D01*
G03X3619792Y-9260986I0J-120814D01*
G01X3327190Y-9260986D01*
G01X2807835Y-8741631D01*
G01X2807835Y-8443164D01*
G01X3061086Y-8189912D01*
G01X3156590Y-8189912D01*
G01X3156590Y-8216798D01*
G03X3192404Y-8252612I35814J0D01*
G01X3241789Y-8252612D01*
G03X3235727Y-8278064I60211J-27788D01*
G01X3147264Y-8366527D01*
G03X3083302Y-8431357I2336J-66273D01*
G03X3144383Y-8498909I66298J-1443D01*
G03X3155183Y-8582907I56017J-35491D01*
G03X3239732Y-8587790I45217J48507D01*
G03X3289269Y-8675680I62268J-22810D01*
G03X3368273Y-8612936I12731J65080D01*
G01X3405936Y-8575273D01*
G03X3468680Y-8496269I-2336J66273D01*
G03X3380790Y-8446732I-65080J-12731D01*
G03X3386877Y-8378074I-53390J39332D01*
G03X3328706Y-8341099I-59477J-29326D01*
G03X3367464Y-8269816I-26706J60699D01*
G03X3308218Y-8214378I-65464J-10584D01*
G01X3308218Y-8116799D01*
G03X3272404Y-8080985I-35814J0D01*
G01X3192404Y-8080985D01*
G03X3165744Y-8092884I0J-35814D01*
G01X3040991Y-8092884D01*
G03X3006686Y-8107094I0J-48514D01*
G01X2807835Y-8305945D01*
G01X2807835Y-8304377D01*
G01X3215199Y-7897012D01*
G01X3251586Y-7897012D01*
G01X3251586Y-7986801D01*
G03X3287400Y-8022615I35814J0D01*
G01X3367400Y-8022615D01*
G03X3403214Y-7986801I0J35814D01*
G01X3403214Y-7985315D01*
G01X3454199Y-7985315D01*
G03X3488503Y-7971106I0J48514D01*
G01X3676667Y-7782943D01*
G03X3806028Y-7584972I43934J112543D01*
G03X3608057Y-7714333I-85428J-85428D01*
G01X3434103Y-7888287D01*
G01X3403214Y-7888287D01*
G01X3403214Y-7886802D01*
G03X3367400Y-7850988I-35814J0D01*
G01X3308218Y-7850988D01*
G01X3308218Y-7761199D01*
G03X3272404Y-7725385I-35814J0D01*
G01X3192404Y-7725385D01*
G03X3156590Y-7761199I0J-35814D01*
G01X3156590Y-7818403D01*
G01X2807835Y-8167158D01*
G01X2807835Y-7566380D01*
G01X3255997Y-7118218D01*
G01X3313201Y-7118218D01*
G03X3349015Y-7082404I0J35814D01*
G01X3349015Y-7002404D01*
G03X3313201Y-6966590I-35814J0D01*
G01X3213202Y-6966590D01*
G03X3177388Y-7002404I0J-35814D01*
G01X3177388Y-7059609D01*
G01X2725016Y-7511980D01*
G03X2710807Y-7546285I34305J-34305D01*
G01X2710807Y-8661998D01*
G01X1953514Y-7904705D01*
G01X1953514Y-6166610D01*
G03X1905000Y-6055086I-48514J45210D01*
G03X1856486Y-6166610I0J-66314D01*
G01X1856486Y-7924800D01*
G03X1870695Y-7959105I48514J0D01*
G01X2699086Y-8787495D01*
G01X1913564Y-3169008D02*
G03X2030678Y-3211633I66314J0D01*
G03X2147792Y-3169008I50800J42625D01*
G03X2030678Y-3126382I-66314J0D01*
G03X1913564Y-3169008I-50800J-42625D01*
G01X2270486Y-5232400D02*
G03X2403114Y-5232400I66314J0D01*
G03X2270486Y-5232400I-66314J0D01*
G01X2529835Y-2920294D02*
G03X2662463Y-2920294I66314J0D01*
G03X2529835Y-2920294I-66314J0D01*
G01X2681772Y-4018894D02*
G03X2814401Y-4018894I66314J0D01*
G03X2681772Y-4018894I-66314J0D01*
G01X2982214Y-10718800D02*
G03X2758186Y-10718800I-112014J0D01*
G03X2982214Y-10718800I112014J0D01*
G01X2830995Y-5286800D02*
G03X2894457Y-5368064I64605J-14960D01*
G01X3563798Y-6037402D01*
G03X3606800Y-6055214I43002J43002D01*
G01X3886410Y-6055214D01*
G01X4168286Y-6337090D01*
G01X4168286Y-6362700D01*
G03X4186098Y-6405702I60814J0D01*
G01X4386282Y-6605886D01*
G03X4575006Y-6708606I109518J-23514D01*
G03X4472286Y-6519882I-79206J79206D01*
G01X4289914Y-6337510D01*
G01X4289914Y-6311900D01*
G03X4272102Y-6268898I-60814J0D01*
G01X3954602Y-5951398D01*
G03X3911600Y-5933586I-43002J-43002D01*
G01X3631990Y-5933586D01*
G01X2957159Y-5258758D01*
G03X2923718Y-5241702I-43002J-43002D01*
G03X2830995Y-5286800I-28118J-60058D01*
G01X3092962Y-6500064D02*
G03X2979798Y-6455509I-66273J-2336D01*
G03X3024353Y-6568673I46891J-46891D01*
G01X3159510Y-6703829D01*
G03X3269588Y-6755401I66290J-1771D01*
G03X3232527Y-6639628I-43788J49801D01*
G01X3092962Y-6500064D01*
G01X3032486Y-3175000D02*
G03X3149600Y-3217625I66314J0D01*
G03X3266714Y-3175000I50800J42625D01*
G03X3149600Y-3132375I-66314J0D01*
G03X3032486Y-3175000I-50800J-42625D01*
G01X4517030Y-8263384D02*
G03X4534850Y-8048413I-21230J109984D01*
G03X4530105Y-8042895I-39050J-28787D01*
G01X4315714Y-7828505D01*
G01X4315714Y-7670800D01*
G03X4301505Y-7636495I-48514J0D01*
G01X4174505Y-7509495D01*
G03X4140200Y-7495286I-34305J-34305D01*
G01X4066104Y-7495286D01*
G03X3930666Y-7303857I-91504J78886D01*
G01X3882305Y-7255495D01*
G03X3848000Y-7241286I-34305J-34305D01*
G01X3812104Y-7241286D01*
G03X3720600Y-7041586I-91504J78886D01*
G03X3629096Y-7241286I0J-120814D01*
G01X3601495Y-7241286D01*
G01X3565573Y-7205364D01*
G03X3579012Y-7177400I-22375J27964D01*
G01X3579012Y-7097400D01*
G03X3543198Y-7061586I-35814J0D01*
G01X3443199Y-7061586D01*
G03X3407385Y-7097400I0J-35814D01*
G01X3407385Y-7177400D01*
G03X3443199Y-7213214I35814J0D01*
G01X3446096Y-7213214D01*
G03X3458894Y-7235903I47103J11615D01*
G01X3541368Y-7318377D01*
G03X3523300Y-7313485I-18068J-30922D01*
G01X3382300Y-7313485D01*
G03X3346486Y-7349299I0J-35814D01*
G01X3346486Y-7484300D01*
G03X3348245Y-7495388I35814J0D01*
G01X3287400Y-7495388D01*
G03X3251586Y-7531202I0J-35814D01*
G01X3251586Y-7631201D01*
G03X3287400Y-7667015I35814J0D01*
G01X3367400Y-7667015D01*
G03X3403214Y-7631201I0J35814D01*
G01X3403214Y-7585795D01*
G01X3468894Y-7520114D01*
G01X3523300Y-7520114D01*
G03X3559114Y-7484300I0J35814D01*
G01X3559114Y-7464914D01*
G01X3609955Y-7464914D01*
G03X3764534Y-7528943I110645J48514D01*
G01X3813696Y-7578105D01*
G03X3848000Y-7592314I34305J34305D01*
G01X3882412Y-7592314D01*
G03X3974600Y-7791214I92188J-78086D01*
G03X4066788Y-7592314I0J120814D01*
G01X4120105Y-7592314D01*
G01X4218686Y-7690895D01*
G01X4218686Y-7848600D01*
G03X4232895Y-7882905I48514J0D01*
G01X4420481Y-8070490D01*
G03X4517030Y-8263384I75319J-82910D01*
G01X3401264Y-8671327D02*
G03X3356709Y-8784491I2336J-66273D01*
G03X3469873Y-8739936I46891J46891D01*
G01X3532936Y-8676873D01*
G03X3577491Y-8563709I-2336J66273D01*
G03X3464327Y-8608264I-46891J-46891D01*
G01X3401264Y-8671327D01*
G01X3540486Y-5207000D02*
G03X3673114Y-5207000I66314J0D01*
G03X3540486Y-5207000I-66314J0D01*
G01X3841414Y-6908400D02*
G03X3599786Y-6908400I-120814J0D01*
G03X3841414Y-6908400I120814J0D01*
G01X3841414Y-6654400D02*
G03X3599786Y-6654400I-120814J0D01*
G03X3841414Y-6654400I120814J0D01*
G01X3841414Y-7924400D02*
G03X3599786Y-7924400I-120814J0D01*
G03X3841414Y-7924400I120814J0D01*
G01X3841414Y-8178400D02*
G03X3599786Y-8178400I-120814J0D01*
G03X3841414Y-8178400I120814J0D01*
G01X3841414Y-8432400D02*
G03X3599786Y-8432400I-120814J0D01*
G03X3841414Y-8432400I120814J0D01*
G01X3841414Y-8940400D02*
G03X3599786Y-8940400I-120814J0D01*
G03X3841414Y-8940400I120814J0D01*
G01X3841414Y-8686400D02*
G03X3599786Y-8686400I-120814J0D01*
G03X3841414Y-8686400I120814J0D01*
G01X4095414Y-7924400D02*
G03X3853786Y-7924400I-120814J0D01*
G03X4095414Y-7924400I120814J0D01*
G01X4095414Y-8432400D02*
G03X3853786Y-8432400I-120814J0D01*
G03X4095414Y-8432400I120814J0D01*
G01X4095414Y-8178400D02*
G03X3853786Y-8178400I-120814J0D01*
G03X4095414Y-8178400I120814J0D01*
G01X4095414Y-8686400D02*
G03X3853786Y-8686400I-120814J0D01*
G03X4095414Y-8686400I120814J0D01*
G01X4095414Y-6908400D02*
G03X3853786Y-6908400I-120814J0D01*
G03X4095414Y-6908400I120814J0D01*
G01X4095414Y-7162400D02*
G03X3853786Y-7162400I-120814J0D01*
G03X4095414Y-7162400I120814J0D01*
G01X4095414Y-6654400D02*
G03X3853786Y-6654400I-120814J0D01*
G03X4095414Y-6654400I120814J0D01*
G01X4095414Y-6400400D02*
G03X3853786Y-6400400I-120814J0D01*
G03X4095414Y-6400400I120814J0D01*
G01X4095414Y-9956400D02*
G03X3853786Y-9956400I-120814J0D01*
G03X4095414Y-9956400I120814J0D01*
G01X4095414Y-9702400D02*
G03X3853786Y-9702400I-120814J0D01*
G03X4095414Y-9702400I120814J0D01*
G01X4095414Y-9194400D02*
G03X3853786Y-9194400I-120814J0D01*
G03X4095414Y-9194400I120814J0D01*
G01X4095414Y-8940400D02*
G03X3853786Y-8940400I-120814J0D01*
G03X4095414Y-8940400I120814J0D01*
G01X4066451Y-535686D02*
G03X4066451Y-759714I0J-112014D01*
G03X4066451Y-535686I0J112014D01*
G01X4320451Y-535686D02*
G03X4320451Y-759714I0J-112014D01*
G03X4320451Y-535686I0J112014D01*
G01X4320451Y-1551686D02*
G03X4320451Y-1775714I0J-112014D01*
G03X4320451Y-1551686I0J112014D01*
G01X4495800Y-7025386D02*
G03X4495800Y-7249414I0J-112014D01*
G03X4495800Y-7025386I0J112014D01*
G01X4495800Y-7279386D02*
G03X4495800Y-7503414I0J-112014D01*
G03X4495800Y-7279386I0J112014D01*
G01X4495800Y-7533386D02*
G03X4495800Y-7757414I0J-112014D01*
G03X4495800Y-7533386I0J112014D01*
G01X4495800Y-8549386D02*
G03X4495800Y-8773414I0J-112014D01*
G03X4495800Y-8549386I0J112014D01*
G01X4495800Y-8803386D02*
G03X4495800Y-9027414I0J-112014D01*
G03X4495800Y-8803386I0J112014D01*
G01X4495800Y-2987986D02*
G03X4495800Y-3209614I0J-110814D01*
G03X4495800Y-2987986I0J110814D01*
G01X4495800Y-3495986D02*
G03X4495800Y-3717614I0J-110814D01*
G03X4495800Y-3495986I0J110814D01*
G01X4495800Y-3749986D02*
G03X4495800Y-3971614I0J-110814D01*
G03X4495800Y-3749986I0J110814D01*
G04 Copper End*

G04 PolygonModel Start*
G36*
G01X2921000Y-50800D02*
G01X2717800Y-50800D01*
G01X2717800Y-682917D01*
G01X2921000Y-682917D01*
G01X2921000Y-50800D01*
G37*
G36*
G01X2870200Y-1615825D02*
G01X2667000Y-1615825D01*
G01X2667000Y-2247942D01*
G01X2870200Y-2247942D01*
G01X2870200Y-1615825D01*
G37*
G36*
G01X4370799Y-2476713D02*
G01X4370799Y-2465799D01*
G01X4368800Y-2463800D01*
G01X4368800Y-2209800D01*
G01X4620798Y-2209800D01*
G01X4620798Y-2476713D01*
G01X4370799Y-2476713D01*
G37*

G04 Pad Start*
G54D11*
G01X2692400Y-10718800D03*
G01X2514600Y-10718800D03*
G01X2336800Y-10718800D03*
G01X1803400Y-10718800D03*
G01X1981200Y-10718800D03*
G01X2159000Y-10718800D03*
G01X2870200Y-10718800D03*
G54D12*
G01X304800Y-6375400D03*
G54D13*
G01X304800Y-6629400D03*
G01X304800Y-6883400D03*
G01X304800Y-7137400D03*
G01X304800Y-7391400D03*
G01X304800Y-7645400D03*
G01X304800Y-7899400D03*
G01X304800Y-8153400D03*
G54D11*
G01X4320451Y-647700D03*
G01X4066451Y-647700D03*
G01X4320451Y-901700D03*
G01X4066451Y-901700D03*
G01X4320451Y-1155700D03*
G01X4066451Y-1155700D03*
G01X4320451Y-1409700D03*
G01X4066451Y-1409700D03*
G01X4320451Y-1663700D03*
G01X4066451Y-1663700D03*
G54D14*
G01X3974600Y-6400400D03*
G01X3720600Y-6400400D03*
G01X3974600Y-6654400D03*
G01X3720600Y-6654400D03*
G01X3974600Y-6908400D03*
G01X3720600Y-6908400D03*
G01X3974600Y-7162400D03*
G01X3720600Y-7162400D03*
G01X3974600Y-7416400D03*
G01X3720600Y-7416400D03*
G01X3974600Y-7670400D03*
G01X3720600Y-7670400D03*
G01X3974600Y-7924400D03*
G01X3720600Y-7924400D03*
G01X3974600Y-8178400D03*
G01X3720600Y-8178400D03*
G01X3974600Y-8432400D03*
G01X3720600Y-8432400D03*
G01X3974600Y-8686400D03*
G01X3720600Y-8686400D03*
G01X3974600Y-8940400D03*
G01X3720600Y-8940400D03*
G01X3974600Y-9194400D03*
G01X3720600Y-9194400D03*
G01X3974600Y-9448400D03*
G01X3720600Y-9448400D03*
G01X3974600Y-9702400D03*
G01X3720600Y-9702400D03*
G01X3974600Y-9956400D03*
G01X3720600Y-9956400D03*
G01X1181600Y-6397400D03*
G01X927600Y-6397400D03*
G01X1181600Y-6651400D03*
G01X927600Y-6651400D03*
G01X1181600Y-6905400D03*
G01X927600Y-6905400D03*
G01X1181600Y-7159400D03*
G01X927600Y-7159400D03*
G01X1181600Y-7413400D03*
G01X927600Y-7413400D03*
G01X1181600Y-7667400D03*
G01X927600Y-7667400D03*
G01X1181600Y-7921400D03*
G01X927600Y-7921400D03*
G01X1181600Y-8175400D03*
G01X927600Y-8175400D03*
G01X1181600Y-8429400D03*
G01X927600Y-8429400D03*
G01X1181600Y-8683400D03*
G01X927600Y-8683400D03*
G01X1181600Y-8937400D03*
G01X927600Y-8937400D03*
G01X1181600Y-9191400D03*
G01X927600Y-9191400D03*
G01X1181600Y-9445400D03*
G01X927600Y-9445400D03*
G01X1181600Y-9699400D03*
G01X927600Y-9699400D03*
G01X1181600Y-9953400D03*
G01X927600Y-9953400D03*
G54D15*
G01X304800Y-3581400D03*
G54D14*
G01X304800Y-3835400D03*
G01X304800Y-4089400D03*
G01X304800Y-4343400D03*
G54D12*
G01X4495800Y-2336800D03*
G54D13*
G01X4495800Y-2590800D03*
G01X4495800Y-2844800D03*
G01X4495800Y-3098800D03*
G01X4495800Y-3352800D03*
G01X4495800Y-3606800D03*
G01X4495800Y-3860800D03*
G01X4495800Y-4114800D03*
G54D11*
G01X4495800Y-9169400D03*
G01X4495800Y-8915400D03*
G01X4495800Y-8661400D03*
G01X4495800Y-8407400D03*
G01X4495800Y-8153400D03*
G01X4495800Y-7899400D03*
G01X4495800Y-7645400D03*
G01X4495800Y-7391400D03*
G01X4495800Y-7137400D03*
G01X4495800Y-6883400D03*
G01X4495800Y-6629400D03*
G54D16*
G01X4495800Y-6375400D03*
G54D17*
G01X3452800Y-7416800D03*
G01X3252800Y-7416800D03*
G54D18*
G01X3232404Y-7811198D03*
G01X3327400Y-7581201D03*
G01X3422396Y-7811198D03*
G54D20*
G01X3263202Y-7042404D03*
G01X3493199Y-7137400D03*
G01X3263202Y-7232396D03*
G54D18*
G01X3232404Y-8166798D03*
G01X3327400Y-7936801D03*
G01X3422396Y-8166798D03*
G04 Pad End*

G04 Via Start*
G54D21*
G01X2863646Y-98265D03*
G01X2768282Y-98265D03*
G01X2866746Y-615721D03*
G01X2772500Y-610390D03*
G01X2487408Y-215900D03*
G01X2032000Y-685800D03*
G01X2032000Y-757733D03*
G01X1955800Y-685800D03*
G01X1955800Y-758908D03*
G01X2076594Y-1555344D03*
G01X2076594Y-1627276D03*
G01X2000394Y-1555344D03*
G01X2000394Y-1628452D03*
G01X2432488Y-2070101D03*
G01X2718087Y-1680452D03*
G01X2815083Y-1680452D03*
G01X2717800Y-2184400D03*
G01X2819400Y-2184400D03*
G01X1447800Y-876300D03*
G01X1447800Y-800100D03*
G01X1447800Y-952500D03*
G01X1752600Y-419100D03*
G01X1676400Y-419100D03*
G01X1597623Y-419100D03*
G01X2819400Y-1933903D03*
G01X2867082Y-366858D03*
G01X2771718Y-366858D03*
G01X2717334Y-1931884D03*
G01X108966Y-241300D03*
G01X134915Y-457200D03*
G01X152400Y-685800D03*
G01X1117600Y-787400D03*
G01X1041400Y-787400D03*
G01X1432570Y-2900945D03*
G01X1432570Y-2496145D03*
G01X2596149Y-2920294D03*
G01X2596149Y-2513894D03*
G01X3503709Y-3047294D03*
G01X1542241Y-3069162D03*
G01X2675475Y-3069568D03*
G01X2639608Y-3377494D03*
G01X1493863Y-3385248D03*
G01X2384787Y-3041302D03*
G01X3098800Y-3175000D03*
G01X3200400Y-3175000D03*
G01X1979878Y-3169008D03*
G01X2081478Y-3169008D03*
G01X1709123Y-5113754D03*
G01X1246068Y-5151806D03*
G01X1316191Y-5151806D03*
G01X2336800Y-5232400D03*
G01X2032000Y-4909040D03*
G01X2235200Y-4910391D03*
G01X1386891Y-4673600D03*
G01X1054211Y-4826000D03*
G01X1051811Y-5029200D03*
G01X449600Y-4651129D03*
G01X2354189Y-5689599D03*
G01X2354972Y-5461000D03*
G01X1776900Y-5944679D03*
G01X1581899Y-5946502D03*
G01X1321900Y-5947023D03*
G01X1256900Y-5947023D03*
G01X762000Y-5156200D03*
G01X1255675Y-4077295D03*
G01X457200Y-3344124D03*
G01X584200Y-3122989D03*
G01X1498600Y-4165600D03*
G01X1314075Y-3459655D03*
G01X1168400Y-2948605D03*
G01X2748086Y-4018894D03*
G01X2870200Y-3759560D03*
G01X2603500Y-4146444D03*
G01X3606800Y-5207000D03*
G01X3505200Y-4879778D03*
G01X2895599Y-4879777D03*
G01X2590801Y-5257611D03*
G01X3302000Y-4878680D03*
G01X3098800Y-4875967D03*
G01X4213205Y-4346595D03*
G01X4216400Y-3865517D03*
G01X4241800Y-5184221D03*
G01X3112599Y-4594900D03*
G01X3225800Y-3882462D03*
G01X101600Y-2895600D03*
G01X177800Y-2895600D03*
G01X3225800Y-4291727D03*
G01X2895600Y-5301760D03*
G01X2231779Y-6019800D03*
G01X1905000Y-6121400D03*
G01X3026689Y-6502400D03*
G01X3225800Y-6705600D03*
G01X3403600Y-8509000D03*
G01X3530600Y-8610600D03*
G01X3327400Y-8407400D03*
G01X3302000Y-8280400D03*
G01X3403600Y-8737600D03*
G01X3302000Y-8610600D03*
G01X3200400Y-8534400D03*
G01X3149600Y-8432800D03*
G01X4099814Y-294640D03*
G01X335814Y-3386442D03*
G01X335814Y-3086442D03*
G01X335814Y-2862642D03*
G01X335814Y-2562643D03*
G01X335814Y-2262643D03*
G01X335814Y-1962643D03*
G01X335814Y-1662643D03*
G01X335814Y-1362643D03*
G01X335814Y-1062643D03*
G01X335814Y-6162641D03*
G01X335814Y-5862642D03*
G01X335814Y-5562642D03*
G01X335814Y-5262642D03*
G01X335814Y-4962642D03*
G01X335814Y-4662642D03*
G01X335814Y-10662640D03*
G01X335814Y-10362640D03*
G01X335814Y-10062640D03*
G01X335814Y-9462640D03*
G01X335814Y-9162641D03*
G01X335814Y-8862641D03*
G01X335814Y-8562641D03*
G01X335814Y-8262641D03*
G01X635814Y-162643D03*
G01X635814Y-2262643D03*
G01X635814Y-1962643D03*
G01X635814Y-1662643D03*
G01X635814Y-1362643D03*
G01X635814Y-1062643D03*
G01X635814Y-2862642D03*
G01X635814Y-2562643D03*
G01X635814Y-10062640D03*
G01X635814Y-9462640D03*
G01X635814Y-9162641D03*
G01X635814Y-8862641D03*
G01X635814Y-8562641D03*
G01X635814Y-8262641D03*
G01X635814Y-7962641D03*
G01X635814Y-7662641D03*
G01X635814Y-7362641D03*
G01X635814Y-6462641D03*
G01X635814Y-6162641D03*
G01X635814Y-5862642D03*
G01X635814Y-10662640D03*
G01X935814Y-162643D03*
G01X935814Y-1962643D03*
G01X935814Y-1662643D03*
G01X935814Y-1362643D03*
G01X935814Y-1062643D03*
G01X935814Y-2862642D03*
G01X935814Y-2562643D03*
G01X935814Y-2262643D03*
G01X935814Y-10362640D03*
G01X935814Y-6162641D03*
G01X1235814Y-1662643D03*
G01X1235814Y-1362643D03*
G01X1235814Y-1062643D03*
G01X1235814Y-762643D03*
G01X1235814Y-2262643D03*
G01X1235814Y-1962643D03*
G01X1235814Y-4662642D03*
G01X1235814Y-4362642D03*
G01X1185014Y-10611840D03*
G01X1235814Y-10362640D03*
G01X1235814Y-10062640D03*
G01X1235814Y-6162641D03*
G01X1535814Y-1362643D03*
G01X1535814Y-1062643D03*
G01X1535814Y-4662642D03*
G01X1535814Y-4362642D03*
G01X1535814Y-4062642D03*
G01X1535814Y-3762642D03*
G01X1535814Y-2562643D03*
G01X1535814Y-2262643D03*
G01X1535814Y-1962643D03*
G01X1535814Y-1662643D03*
G01X1535814Y-8862641D03*
G01X1535814Y-8262641D03*
G01X1535814Y-7962641D03*
G01X1535814Y-5562642D03*
G01X1835813Y-1062643D03*
G01X1835813Y-4662642D03*
G01X1835813Y-4362642D03*
G01X1835813Y-4062642D03*
G01X1835813Y-3762642D03*
G01X1835813Y-2862642D03*
G01X1835813Y-2562643D03*
G01X1835813Y-2262643D03*
G01X1835813Y-1662643D03*
G01X1835813Y-1362643D03*
G01X1835813Y-8562641D03*
G01X1835813Y-8262641D03*
G01X1835813Y-7962641D03*
G01X1835813Y-7662641D03*
G01X1835813Y-7362641D03*
G01X1835813Y-7062641D03*
G01X1835813Y-6762641D03*
G01X1835813Y-6462641D03*
G01X1835813Y-5562642D03*
G01X2135813Y-462643D03*
G01X2135813Y-4962642D03*
G01X2135813Y-4662642D03*
G01X2135813Y-4362642D03*
G01X2135813Y-4062642D03*
G01X2135813Y-3762642D03*
G01X2135813Y-3462642D03*
G01X2135813Y-2862642D03*
G01X2135813Y-2562643D03*
G01X2135813Y-2262643D03*
G01X2135813Y-1362643D03*
G01X2135813Y-8262641D03*
G01X2135813Y-7962641D03*
G01X2135813Y-7662641D03*
G01X2135813Y-7362641D03*
G01X2135813Y-7062641D03*
G01X2135813Y-6762641D03*
G01X2135813Y-6462641D03*
G01X2135813Y-6162641D03*
G01X2135813Y-5862642D03*
G01X2435813Y-162643D03*
G01X2435813Y-7962641D03*
G01X2435813Y-7662641D03*
G01X2435813Y-7362641D03*
G01X2435813Y-7062641D03*
G01X2435813Y-6762641D03*
G01X2435813Y-6462641D03*
G01X2435813Y-6162641D03*
G01X2435813Y-5862642D03*
G01X2435813Y-5562642D03*
G01X2435813Y-5262642D03*
G01X2435813Y-4962642D03*
G01X2435813Y-4662642D03*
G01X2435813Y-4362642D03*
G01X2435813Y-4062642D03*
G01X2435813Y-2262643D03*
G01X2435813Y-1362643D03*
G01X2735813Y-10362640D03*
G01X2659613Y-7662641D03*
G01X2735813Y-7362641D03*
G01X2735813Y-7062641D03*
G01X2735813Y-6762641D03*
G01X2735813Y-6462641D03*
G01X2735813Y-6162641D03*
G01X2735813Y-5862642D03*
G01X2888213Y-5664242D03*
G01X2735813Y-5262642D03*
G01X2735813Y-3762642D03*
G01X2735813Y-2862642D03*
G01X2735813Y-2562643D03*
G01X2735813Y-1362643D03*
G01X2735813Y-1062643D03*
G01X3035813Y-10362640D03*
G01X3035813Y-10062640D03*
G01X3035813Y-9762640D03*
G01X3035813Y-9462640D03*
G01X3035813Y-4362642D03*
G01X3035813Y-4062642D03*
G01X3035813Y-3762642D03*
G01X3035813Y-2862642D03*
G01X3035813Y-2562643D03*
G01X3035813Y-2262643D03*
G01X3035813Y-1662643D03*
G01X3035813Y-10662640D03*
G01X3335813Y-10062640D03*
G01X3335813Y-9762640D03*
G01X3335813Y-9462640D03*
G01X3335813Y-9162641D03*
G01X3031013Y-7388041D03*
G01X3412013Y-7037241D03*
G01X3335813Y-6762641D03*
G01X3335813Y-6462641D03*
G01X3335813Y-6162641D03*
G01X3335813Y-5862642D03*
G01X3335813Y-3762642D03*
G01X3335813Y-3462642D03*
G01X3335813Y-3162642D03*
G01X3335813Y-2862642D03*
G01X3335813Y-2562643D03*
G01X3335813Y-2262643D03*
G01X3335813Y-462643D03*
G01X3335813Y-162643D03*
G01X3335813Y-10362640D03*
G01X3635813Y-6162641D03*
G01X3635813Y-5862642D03*
G01X3635813Y-3762642D03*
G01X3635813Y-3462642D03*
G01X3635813Y-3162642D03*
G01X3635813Y-2862642D03*
G01X3635813Y-2562643D03*
G01X3635813Y-2262643D03*
G01X3635813Y-1662643D03*
G01X3635813Y-1062643D03*
G01X3635813Y-762643D03*
G01X3635813Y-10062640D03*
G01X3610413Y-10611840D03*
G01X3935813Y-6162641D03*
G01X3935813Y-5862642D03*
G01X3935813Y-5562642D03*
G01X3935813Y-5262642D03*
G01X3935813Y-4962642D03*
G01X3935813Y-4062642D03*
G01X3935813Y-3762642D03*
G01X3935813Y-3462642D03*
G01X3935813Y-3162642D03*
G01X3935813Y-2862642D03*
G01X3935813Y-2562643D03*
G01X3935813Y-1362643D03*
G01X3935813Y-1062643D03*
G01X3935813Y-10662640D03*
G01X3935813Y-10362640D03*
G01X4235813Y-10662640D03*
G01X4235813Y-10362640D03*
G01X4235813Y-10062640D03*
G01X4235813Y-9762640D03*
G01X4235813Y-9462640D03*
G01X4235813Y-9162641D03*
G01X4235813Y-8862641D03*
G01X4235813Y-6762641D03*
G01X4108813Y-6310241D03*
G01X4235813Y-6162641D03*
G01X4235813Y-5862642D03*
G01X4235813Y-5562642D03*
G01X4235813Y-5262642D03*
G01X4235813Y-2262643D03*
G01X4235813Y-1062643D03*
G01X4535813Y-10662640D03*
G01X4535813Y-10362640D03*
G01X4535813Y-10062640D03*
G01X4535813Y-9762640D03*
G01X4535813Y-9462640D03*
G01X4535813Y-6162641D03*
G01X4535813Y-5862642D03*
G01X4535813Y-5562642D03*
G01X4535813Y-5262642D03*
G01X4535813Y-4962642D03*
G01X4535813Y-4662642D03*
G01X4535813Y-3462642D03*
G01X4535813Y-1362643D03*
G01X4535813Y-1062643D03*
G01X1859213Y-8983986D03*
G01X2159213Y-8683986D03*
G01X2459213Y-8383986D03*
G01X2657613Y-8033186D03*
G01X3059213Y-7783986D03*
G01X1583827Y-10497286D03*
G01X1583827Y-10197286D03*
G01X1583827Y-9897286D03*
G01X1583827Y-9597286D03*
G01X2685314Y-9750654D03*
G01X2685314Y-9450654D03*
G01X2159000Y-9753600D03*
G01X2159000Y-10363200D03*
G01X1905000Y-9880600D03*
G01X1905000Y-10363200D03*
G01X3556000Y-8229600D03*
G01X3548400Y-7747000D03*
G01X3581400Y-5461000D03*
G01X1854200Y-9448800D03*
G01X2108200Y-9220200D03*
G01X2387600Y-8966200D03*
G01X3073400Y-8255000D03*
G01X2844800Y-8483600D03*
G01X2590800Y-8737600D03*
G01X2159000Y-10058400D03*
G01X2463800Y-9702800D03*
G01X2440600Y-9998408D03*
G01X2438400Y-10566400D03*
G01X2260600Y-10845800D03*
G01X2641600Y-10845800D03*
G01X1422400Y-9194800D03*
G01X2362200Y-3606800D03*
G01X2540000Y-3606800D03*
G01X584200Y-6959600D03*
G01X152400Y-9753600D03*
G01X177800Y-9245600D03*
G01X177800Y-8940800D03*
G01X177800Y-8663107D03*
G01X152400Y-10210800D03*
G01X152400Y-10518543D03*
G01X152400Y-10820400D03*
G01X482600Y-10820400D03*
G01X863600Y-10820400D03*
G01X1397000Y-7137400D03*
G01X1397000Y-7442200D03*
G01X838200Y-5334000D03*
G01X1117600Y-5207000D03*
G01X795339Y-3935319D03*
G01X1092200Y-3911600D03*
G01X508000Y-3683000D03*
G01X4216400Y-3302000D03*
G01X4216400Y-2819400D03*
G01X4648200Y-1803400D03*
G01X4648200Y-355600D03*
G01X4368800Y-76200D03*
G01X4013200Y-76200D03*
G01X3657600Y-76200D03*
G01X1701800Y-76200D03*
G01X2209800Y-76200D03*
G01X1193800Y-76200D03*
G01X635000Y-330200D03*
G01X889000Y-304800D03*
G01X3784600Y-4470400D03*
G01X3753816Y-4240492D03*
G01X4089400Y-8051800D03*
G01X3556000Y-8051800D03*
G01X3556000Y-7569200D03*
G01X3276600Y-10845800D03*
G01X3606800Y-10845800D03*
G01X3302000Y-8712200D03*
G01X2921000Y-9093200D03*
G01X3225800Y-1524000D03*
G01X3149600Y-1143000D03*
G01X2235200Y-939800D03*
G01X2616200Y-457200D03*
G01X1447800Y-5969000D03*
G01X1447800Y-6985000D03*
G01X4151600Y-7646876D03*
G01X4699000Y-7239000D03*
G01X4699000Y-7518400D03*
G01X4241800Y-7008726D03*
G01X4114600Y-7008726D03*
G01X3358057Y-7228290D03*
G01X1371600Y-10795000D03*
G04 Via End*

G04 Track Start*
G54D22*
G01X2815083Y-1680452D02*
G01X2819400Y-1684769D01*
G01X2819400Y-1933903D01*
G54D23*
G01X2844800Y-1959303D02*
G01X3711903Y-1959303D01*
G01X101600Y-2895600D02*
G01X177800Y-2895600D01*
G01X101600Y-2895600D02*
G01X80000Y-2917200D01*
G01X80000Y-9452600D01*
G54D22*
G01X4521200Y-2519413D02*
G01X4449813Y-2590800D01*
G54D23*
G01X4343400Y-2590800D02*
G01X4449813Y-2590800D01*
G01X4495800Y-2590800D01*
G01X3711903Y-1959303D02*
G01X4343400Y-2590800D01*
G54D22*
G01X2819400Y-1933903D02*
G01X2819400Y-2184400D01*
G54D23*
G01X2819400Y-1933903D02*
G01X2844800Y-1959303D01*
G54D22*
G01X1255675Y-4077295D02*
G01X1255675Y-2452725D01*
G01X1752600Y-1955800D01*
G01X2772103Y-1955800D02*
G01X2794000Y-1933903D01*
G01X2819400Y-1933903D01*
G01X1752600Y-1955800D02*
G01X2772103Y-1955800D01*
G01X4292600Y-3911600D02*
G01X4292600Y-2844800D01*
G01X4394200Y-2743200D01*
G01X4546600Y-2743200D02*
G01X4648200Y-2641600D01*
G01X4394200Y-2743200D02*
G01X4451878Y-2743200D01*
G01X4453178Y-2741900D01*
G01X4538422Y-2741900D01*
G01X4539722Y-2743200D01*
G01X4546600Y-2743200D01*
G01X4648200Y-2641600D02*
G01X4648200Y-2489200D01*
G01X4495800Y-2336800D01*
G01X2438400Y-3012324D02*
G01X2438400Y-2438400D01*
G01X2443187Y-3017111D02*
G01X2438400Y-3012324D01*
G01X2438400Y-2438400D02*
G01X2692400Y-2184400D01*
G01X2717800Y-2184400D01*
G01X3112599Y-4594900D02*
G01X3112599Y-4572953D01*
G01X2443187Y-3903541D02*
G01X2443187Y-3017111D01*
G01X2443187Y-3903541D02*
G01X3112599Y-4572953D01*
G54D23*
G01X4495800Y-2336800D02*
G01X2772500Y-613500D01*
G01X2772500Y-610390D01*
G54D24*
G01X3911600Y-5994400D02*
G01X3606800Y-5994400D01*
G01X2914157Y-5301760D01*
G01X2895600Y-5301760D01*
G01X3974600Y-9448399D02*
G01X3949199Y-9422999D01*
G01X3923800Y-9423000D01*
G01X3822600Y-9321800D01*
G01X3302000Y-9321800D01*
G54D22*
G01X1905000Y-7924800D02*
G01X1905000Y-6121400D01*
G01X3026689Y-6502400D02*
G01X3225800Y-6701511D01*
G01X3225800Y-6705600D01*
G54D23*
G01X80000Y-9452600D02*
G01X326800Y-9699400D01*
G01X927600Y-9699400D01*
G01X1181600Y-9699400D01*
G54D22*
G01X1181600Y-6651400D02*
G01X1041400Y-6791600D01*
G01X1041400Y-6959600D01*
G01X965200Y-7035800D01*
G01X457200Y-7035800D02*
G01X304800Y-6883400D01*
G01X965200Y-7035800D02*
G01X457200Y-7035800D01*
G01X3530600Y-8610600D02*
G01X3403600Y-8737600D01*
G01X3403600Y-8509000D02*
G01X3302000Y-8610600D01*
G01X3327400Y-8407400D02*
G01X3200400Y-8534400D01*
G01X3302000Y-8280400D02*
G01X3149600Y-8432800D01*
G01X4213205Y-4346595D02*
G01X4213205Y-3990995D01*
G01X4292600Y-3911600D01*
G01X3720600Y-7416400D02*
G01X3504000Y-7416400D01*
G54D24*
G01X3302000Y-9321800D02*
G01X2759321Y-8779121D01*
G54D22*
G01X2759321Y-8779121D02*
G01X1905000Y-7924800D01*
G01X3848000Y-7543800D02*
G01X3720600Y-7416400D01*
G01X4140200Y-7543800D02*
G01X3848000Y-7543800D01*
G01X4495800Y-8153400D02*
G01X4495800Y-8077200D01*
G01X4267200Y-7848600D01*
G01X4267200Y-7670800D01*
G01X4140200Y-7543800D01*
G01X3974600Y-7416400D02*
G01X3848000Y-7289800D01*
G01X3581400Y-7289800D01*
G01X3493199Y-7201598D01*
G01X3493199Y-7137400D01*
G01X3232404Y-8141398D02*
G01X3040991Y-8141398D01*
G01X2759321Y-8423068D01*
G01X3232404Y-7811198D02*
G01X2759321Y-8284282D01*
G01X2759321Y-8423068D02*
G01X2759321Y-8779121D01*
G01X3720600Y-7670400D02*
G01X3454199Y-7936801D01*
G01X3327400Y-7936801D01*
G01X3504000Y-7416400D02*
G01X3327400Y-7593000D01*
G01X3263202Y-7042404D02*
G01X2759321Y-7546285D01*
G01X2759321Y-8284282D01*
G01X2759321Y-8423068D01*
G54D24*
G01X4495800Y-6629400D02*
G01X4229100Y-6362700D01*
G01X4229100Y-6311900D01*
G01X3911600Y-5994400D01*
G04 Track End*

M02*

