G04 Layer: TopSilkscreenLayer*
G04 EasyEDA Pro v2.2.47.7, 2026-04-30 22:47:31*
G04 Gerber Generator version 0.3*
G04 Scale: 100 percent, Rotated: No, Reflected: No*
G04 Dimensions in millimeters*
G04 Leading zeros omitted, absolute positions, 4 integers and 5 decimals*
G04 Generated by one-click*
G04 Object Configs: Pad,Via,Track,Text,Image,Dimension,BoardOutline,BoardCutout,CopperFilled,SolidRegion,FPCStiffener,Line,PlaneZone,ComponentProperty,ComponentSilkscreen,TearDrop*
G04 Layer Configs: 1,15,16,2,3,4,5,6,7,8,9,10,11,13,14,71,72,56*
G04 Copper Areas: 0*
%FSLAX45Y45*%
%MOMM*%
%ADD10C,0.152*%
%ADD11C,0.203*%
%ADD12C,0.1524*%
%ADD13C,0.254*%
%ADD14C,0.2032*%
%ADD15C,0.3090*%
%ADD16C,0.3*%
G75*


G04 Text Start*
G54D10*
G01X118110Y-10827766D02*
G01X118110Y-10892790D01*
G01X96520Y-10827766D02*
G01X139954Y-10827766D01*
G01X207264Y-10849356D02*
G01X207264Y-10892790D01*
G01X207264Y-10858754D02*
G01X200914Y-10852404D01*
G01X194818Y-10849356D01*
G01X185420Y-10849356D01*
G01X179324Y-10852404D01*
G01X173228Y-10858754D01*
G01X169926Y-10867898D01*
G01X169926Y-10874248D01*
G01X173228Y-10883392D01*
G01X179324Y-10889742D01*
G01X185420Y-10892790D01*
G01X194818Y-10892790D01*
G01X200914Y-10889742D01*
G01X207264Y-10883392D01*
G01X274574Y-10858754D02*
G01X268224Y-10852404D01*
G01X262128Y-10849356D01*
G01X252730Y-10849356D01*
G01X246634Y-10852404D01*
G01X240538Y-10858754D01*
G01X237236Y-10867898D01*
G01X237236Y-10874248D01*
G01X240538Y-10883392D01*
G01X246634Y-10889742D01*
G01X252730Y-10892790D01*
G01X262128Y-10892790D01*
G01X268224Y-10889742D01*
G01X274574Y-10883392D01*
G01X304546Y-10827766D02*
G01X304546Y-10892790D01*
G01X304546Y-10861802D02*
G01X313944Y-10852404D01*
G01X320040Y-10849356D01*
G01X329438Y-10849356D01*
G01X335534Y-10852404D01*
G01X338582Y-10861802D01*
G01X338582Y-10892790D01*
G01X371856Y-10849356D02*
G01X390398Y-10892790D01*
G01X408940Y-10849356D02*
G01X390398Y-10892790D01*
G01X384048Y-10905236D01*
G01X377952Y-10911332D01*
G01X371856Y-10914380D01*
G01X368554Y-10914380D01*
G01X454406Y-10849356D02*
G01X448310Y-10852404D01*
G01X442214Y-10858754D01*
G01X438912Y-10867898D01*
G01X438912Y-10874248D01*
G01X442214Y-10883392D01*
G01X448310Y-10889742D01*
G01X454406Y-10892790D01*
G01X463804Y-10892790D01*
G01X469900Y-10889742D01*
G01X476250Y-10883392D01*
G01X479298Y-10874248D01*
G01X479298Y-10867898D01*
G01X476250Y-10858754D01*
G01X469900Y-10852404D01*
G01X463804Y-10849356D01*
G01X454406Y-10849356D01*
G01X509270Y-10849356D02*
G01X509270Y-10892790D01*
G01X509270Y-10861802D02*
G01X518668Y-10852404D01*
G01X524764Y-10849356D01*
G01X534162Y-10849356D01*
G01X540258Y-10852404D01*
G01X543306Y-10861802D01*
G01X543306Y-10892790D01*
G01X642620Y-10827766D02*
G01X642620Y-10892790D01*
G01X642620Y-10827766D02*
G01X670560Y-10827766D01*
G01X679958Y-10830814D01*
G01X683006Y-10833862D01*
G01X686054Y-10839958D01*
G01X686054Y-10849356D01*
G01X683006Y-10855452D01*
G01X679958Y-10858754D01*
G01X670560Y-10861802D01*
G01X642620Y-10861802D01*
G01X762508Y-10843260D02*
G01X759460Y-10836910D01*
G01X753364Y-10830814D01*
G01X747014Y-10827766D01*
G01X734822Y-10827766D01*
G01X728472Y-10830814D01*
G01X722376Y-10836910D01*
G01X719328Y-10843260D01*
G01X716026Y-10852404D01*
G01X716026Y-10867898D01*
G01X719328Y-10877296D01*
G01X722376Y-10883392D01*
G01X728472Y-10889742D01*
G01X734822Y-10892790D01*
G01X747014Y-10892790D01*
G01X753364Y-10889742D01*
G01X759460Y-10883392D01*
G01X762508Y-10877296D01*
G01X792480Y-10827766D02*
G01X792480Y-10892790D01*
G01X792480Y-10827766D02*
G01X820420Y-10827766D01*
G01X829818Y-10830814D01*
G01X832866Y-10833862D01*
G01X835914Y-10839958D01*
G01X835914Y-10846308D01*
G01X832866Y-10852404D01*
G01X829818Y-10855452D01*
G01X820420Y-10858754D01*
G01X792480Y-10858754D02*
G01X820420Y-10858754D01*
G01X829818Y-10861802D01*
G01X832866Y-10864850D01*
G01X835914Y-10870946D01*
G01X835914Y-10880344D01*
G01X832866Y-10886440D01*
G01X829818Y-10889742D01*
G01X820420Y-10892790D01*
G01X792480Y-10892790D01*
G01X935228Y-10849356D02*
G01X935228Y-10892790D01*
G01X935228Y-10867898D02*
G01X938530Y-10858754D01*
G01X944626Y-10852404D01*
G01X950722Y-10849356D01*
G01X960120Y-10849356D01*
G01X990092Y-10867898D02*
G01X1027430Y-10867898D01*
G01X1027430Y-10861802D01*
G01X1024128Y-10855452D01*
G01X1021080Y-10852404D01*
G01X1014984Y-10849356D01*
G01X1005586Y-10849356D01*
G01X999490Y-10852404D01*
G01X993394Y-10858754D01*
G01X990092Y-10867898D01*
G01X990092Y-10874248D01*
G01X993394Y-10883392D01*
G01X999490Y-10889742D01*
G01X1005586Y-10892790D01*
G01X1014984Y-10892790D01*
G01X1021080Y-10889742D01*
G01X1027430Y-10883392D01*
G01X1057402Y-10849356D02*
G01X1076198Y-10892790D01*
G01X1094740Y-10849356D02*
G01X1076198Y-10892790D01*
G01X1218946Y-10827766D02*
G01X1194054Y-10892790D01*
G01X1218946Y-10827766D02*
G01X1243838Y-10892790D01*
G01X1203452Y-10870946D02*
G01X1234440Y-10870946D01*
G54D11*
G01X3400298Y-10775442D02*
G01X3393440Y-10761726D01*
G01X3372866Y-10754868D01*
G01X3352292Y-10754868D01*
G01X3331718Y-10761726D01*
G01X3324860Y-10775442D01*
G01X3331718Y-10789412D01*
G01X3345434Y-10796270D01*
G01X3379724Y-10803128D01*
G01X3393440Y-10809986D01*
G01X3400298Y-10823702D01*
G01X3400298Y-10830560D01*
G01X3393440Y-10844276D01*
G01X3372866Y-10851134D01*
G01X3352292Y-10851134D01*
G01X3331718Y-10844276D01*
G01X3324860Y-10830560D01*
G01X3474212Y-10706862D02*
G01X3474212Y-10823702D01*
G01X3481070Y-10844276D01*
G01X3494786Y-10851134D01*
G01X3508502Y-10851134D01*
G01X3453638Y-10754868D02*
G01X3501644Y-10754868D01*
G01X3561842Y-10706862D02*
G01X3568700Y-10713720D01*
G01X3575558Y-10706862D01*
G01X3568700Y-10700004D01*
G01X3561842Y-10706862D01*
G01X3568700Y-10754868D02*
G01X3568700Y-10851134D01*
G01X3711194Y-10754868D02*
G01X3711194Y-10864850D01*
G01X3704336Y-10885424D01*
G01X3697478Y-10892282D01*
G01X3683762Y-10899140D01*
G01X3663188Y-10899140D01*
G01X3649472Y-10892282D01*
G01X3711194Y-10775442D02*
G01X3697478Y-10761726D01*
G01X3683762Y-10754868D01*
G01X3663188Y-10754868D01*
G01X3649472Y-10761726D01*
G01X3635756Y-10775442D01*
G01X3628898Y-10796270D01*
G01X3628898Y-10809986D01*
G01X3635756Y-10830560D01*
G01X3649472Y-10844276D01*
G01X3663188Y-10851134D01*
G01X3683762Y-10851134D01*
G01X3697478Y-10844276D01*
G01X3711194Y-10830560D01*
G01X3867404Y-10761726D02*
G01X3860546Y-10748010D01*
G01X3846830Y-10741152D01*
G01X3826256Y-10741152D01*
G01X3812540Y-10748010D01*
G01X3805682Y-10754868D01*
G01X3798824Y-10775442D01*
G01X3798824Y-10796270D01*
G01X3805682Y-10809986D01*
G01X3819398Y-10816844D01*
G01X3839972Y-10816844D01*
G01X3853688Y-10809986D01*
G01X3860546Y-10796270D01*
G01X3826256Y-10741152D02*
G01X3812540Y-10754868D01*
G01X3805682Y-10775442D01*
G01X3805682Y-10796270D01*
G01X3812540Y-10809986D01*
G01X3819398Y-10816844D01*
G01X3867404Y-10741152D02*
G01X3860546Y-10796270D01*
G01X3860546Y-10809986D01*
G01X3874262Y-10816844D01*
G01X3887978Y-10816844D01*
G01X3901694Y-10803128D01*
G01X3908552Y-10782554D01*
G01X3908552Y-10768584D01*
G01X3901694Y-10748010D01*
G01X3894836Y-10734294D01*
G01X3881120Y-10720578D01*
G01X3867404Y-10713720D01*
G01X3846830Y-10706862D01*
G01X3826256Y-10706862D01*
G01X3805682Y-10713720D01*
G01X3791966Y-10720578D01*
G01X3778250Y-10734294D01*
G01X3771392Y-10748010D01*
G01X3764534Y-10768584D01*
G01X3764534Y-10789412D01*
G01X3771392Y-10809986D01*
G01X3778250Y-10823702D01*
G01X3791966Y-10837418D01*
G01X3805682Y-10844276D01*
G01X3826256Y-10851134D01*
G01X3846830Y-10851134D01*
G01X3867404Y-10844276D01*
G01X3881120Y-10837418D01*
G01X3887978Y-10830560D01*
G01X3874262Y-10741152D02*
G01X3867404Y-10796270D01*
G01X3867404Y-10809986D01*
G01X3874262Y-10816844D01*
G01X4037330Y-10775442D02*
G01X4030472Y-10761726D01*
G01X4009898Y-10754868D01*
G01X3989324Y-10754868D01*
G01X3968750Y-10761726D01*
G01X3961892Y-10775442D01*
G01X3968750Y-10789412D01*
G01X3982466Y-10796270D01*
G01X4016756Y-10803128D01*
G01X4030472Y-10809986D01*
G01X4037330Y-10823702D01*
G01X4037330Y-10830560D01*
G01X4030472Y-10844276D01*
G01X4009898Y-10851134D01*
G01X3989324Y-10851134D01*
G01X3968750Y-10844276D01*
G01X3961892Y-10830560D01*
G01X4172966Y-10706862D02*
G01X4172966Y-10851134D01*
G01X4172966Y-10775442D02*
G01X4159250Y-10761726D01*
G01X4145534Y-10754868D01*
G01X4124960Y-10754868D01*
G01X4111244Y-10761726D01*
G01X4097528Y-10775442D01*
G01X4090670Y-10796270D01*
G01X4090670Y-10809986D01*
G01X4097528Y-10830560D01*
G01X4111244Y-10844276D01*
G01X4124960Y-10851134D01*
G01X4145534Y-10851134D01*
G01X4159250Y-10844276D01*
G01X4172966Y-10830560D01*
G01X4226306Y-10754868D02*
G01X4226306Y-10851134D01*
G01X4226306Y-10782554D02*
G01X4246880Y-10761726D01*
G01X4260596Y-10754868D01*
G01X4281170Y-10754868D01*
G01X4294886Y-10761726D01*
G01X4301744Y-10782554D01*
G01X4301744Y-10851134D01*
G01X4301744Y-10782554D02*
G01X4322318Y-10761726D01*
G01X4336034Y-10754868D01*
G01X4356608Y-10754868D01*
G01X4370324Y-10761726D01*
G01X4377182Y-10782554D01*
G01X4377182Y-10851134D01*
G01X4437380Y-10816844D02*
G01X4430522Y-10823702D01*
G01X4437380Y-10830560D01*
G01X4444238Y-10823702D01*
G01X4437380Y-10816844D01*
G01X4497578Y-10754868D02*
G01X4497578Y-10851134D01*
G01X4497578Y-10782554D02*
G01X4518152Y-10761726D01*
G01X4531868Y-10754868D01*
G01X4552442Y-10754868D01*
G01X4566158Y-10761726D01*
G01X4573016Y-10782554D01*
G01X4573016Y-10851134D01*
G01X4701794Y-10754868D02*
G01X4626356Y-10851134D01*
G01X4626356Y-10754868D02*
G01X4701794Y-10754868D01*
G01X4626356Y-10851134D02*
G01X4701794Y-10851134D01*
G54D12*
G01X4036060Y-4060698D02*
G01X4029710Y-4063746D01*
G01X4023614Y-4070096D01*
G01X4020566Y-4076192D01*
G01X4020566Y-4088638D01*
G01X4023614Y-4094734D01*
G01X4029710Y-4101084D01*
G01X4036060Y-4104132D01*
G01X4045204Y-4107180D01*
G01X4060698Y-4107180D01*
G01X4070096Y-4104132D01*
G01X4076192Y-4101084D01*
G01X4082542Y-4094734D01*
G01X4085590Y-4088638D01*
G01X4085590Y-4076192D01*
G01X4082542Y-4070096D01*
G01X4076192Y-4063746D01*
G01X4070096Y-4060698D01*
G01X4036060Y-4027424D02*
G01X4033012Y-4027424D01*
G01X4026662Y-4024376D01*
G01X4023614Y-4021328D01*
G01X4020566Y-4015232D01*
G01X4020566Y-4002786D01*
G01X4023614Y-3996436D01*
G01X4026662Y-3993388D01*
G01X4033012Y-3990340D01*
G01X4039108Y-3990340D01*
G01X4045204Y-3993388D01*
G01X4054602Y-3999738D01*
G01X4085590Y-4030472D01*
G01X4085590Y-3987292D01*
G01X4036060Y-3954018D02*
G01X4033012Y-3954018D01*
G01X4026662Y-3950970D01*
G01X4023614Y-3947922D01*
G01X4020566Y-3941826D01*
G01X4020566Y-3929380D01*
G01X4023614Y-3923030D01*
G01X4026662Y-3919982D01*
G01X4033012Y-3916934D01*
G01X4039108Y-3916934D01*
G01X4045204Y-3919982D01*
G01X4054602Y-3926332D01*
G01X4085590Y-3957066D01*
G01X4085590Y-3913886D01*
G01X3381502Y-4721860D02*
G01X3378454Y-4715510D01*
G01X3372104Y-4709414D01*
G01X3366008Y-4706366D01*
G01X3353562Y-4706366D01*
G01X3347466Y-4709414D01*
G01X3341116Y-4715510D01*
G01X3338068Y-4721860D01*
G01X3335020Y-4731004D01*
G01X3335020Y-4746498D01*
G01X3338068Y-4755896D01*
G01X3341116Y-4761992D01*
G01X3347466Y-4768342D01*
G01X3353562Y-4771390D01*
G01X3366008Y-4771390D01*
G01X3372104Y-4768342D01*
G01X3378454Y-4761992D01*
G01X3381502Y-4755896D01*
G01X3414776Y-4721860D02*
G01X3414776Y-4718812D01*
G01X3417824Y-4712462D01*
G01X3420872Y-4709414D01*
G01X3426968Y-4706366D01*
G01X3439414Y-4706366D01*
G01X3445764Y-4709414D01*
G01X3448812Y-4712462D01*
G01X3451860Y-4718812D01*
G01X3451860Y-4724908D01*
G01X3448812Y-4731004D01*
G01X3442462Y-4740402D01*
G01X3411728Y-4771390D01*
G01X3454908Y-4771390D01*
G01X3491230Y-4706366D02*
G01X3525266Y-4706366D01*
G01X3506724Y-4731004D01*
G01X3515868Y-4731004D01*
G01X3522218Y-4734052D01*
G01X3525266Y-4737354D01*
G01X3528314Y-4746498D01*
G01X3528314Y-4752848D01*
G01X3525266Y-4761992D01*
G01X3519170Y-4768342D01*
G01X3509772Y-4771390D01*
G01X3500374Y-4771390D01*
G01X3491230Y-4768342D01*
G01X3488182Y-4765040D01*
G01X3485134Y-4758944D01*
G01X2543302Y-5280660D02*
G01X2540254Y-5274310D01*
G01X2533904Y-5268214D01*
G01X2527808Y-5265166D01*
G01X2515362Y-5265166D01*
G01X2509266Y-5268214D01*
G01X2502916Y-5274310D01*
G01X2499868Y-5280660D01*
G01X2496820Y-5289804D01*
G01X2496820Y-5305298D01*
G01X2499868Y-5314696D01*
G01X2502916Y-5320792D01*
G01X2509266Y-5327142D01*
G01X2515362Y-5330190D01*
G01X2527808Y-5330190D01*
G01X2533904Y-5327142D01*
G01X2540254Y-5320792D01*
G01X2543302Y-5314696D01*
G01X2573528Y-5277612D02*
G01X2579624Y-5274310D01*
G01X2588768Y-5265166D01*
G01X2588768Y-5330190D01*
G01X2662174Y-5265166D02*
G01X2631186Y-5330190D01*
G01X2618994Y-5265166D02*
G01X2662174Y-5265166D01*
G01X3051302Y-4823460D02*
G01X3048254Y-4817110D01*
G01X3041904Y-4811014D01*
G01X3035808Y-4807966D01*
G01X3023362Y-4807966D01*
G01X3017266Y-4811014D01*
G01X3010916Y-4817110D01*
G01X3007868Y-4823460D01*
G01X3004820Y-4832604D01*
G01X3004820Y-4848098D01*
G01X3007868Y-4857496D01*
G01X3010916Y-4863592D01*
G01X3017266Y-4869942D01*
G01X3023362Y-4872990D01*
G01X3035808Y-4872990D01*
G01X3041904Y-4869942D01*
G01X3048254Y-4863592D01*
G01X3051302Y-4857496D01*
G01X3084576Y-4823460D02*
G01X3084576Y-4820412D01*
G01X3087624Y-4814062D01*
G01X3090672Y-4811014D01*
G01X3096768Y-4807966D01*
G01X3109214Y-4807966D01*
G01X3115564Y-4811014D01*
G01X3118612Y-4814062D01*
G01X3121660Y-4820412D01*
G01X3121660Y-4826508D01*
G01X3118612Y-4832604D01*
G01X3112262Y-4842002D01*
G01X3081528Y-4872990D01*
G01X3124708Y-4872990D01*
G01X3154934Y-4820412D02*
G01X3161030Y-4817110D01*
G01X3170174Y-4807966D01*
G01X3170174Y-4872990D01*
G01X3016441Y-3910312D02*
G01X3010091Y-3913360D01*
G01X3003995Y-3919710D01*
G01X3000947Y-3925806D01*
G01X3000947Y-3938252D01*
G01X3003995Y-3944348D01*
G01X3010091Y-3950698D01*
G01X3016441Y-3953746D01*
G01X3025585Y-3956794D01*
G01X3041079Y-3956794D01*
G01X3050477Y-3953746D01*
G01X3056573Y-3950698D01*
G01X3062923Y-3944348D01*
G01X3065971Y-3938252D01*
G01X3065971Y-3925806D01*
G01X3062923Y-3919710D01*
G01X3056573Y-3913360D01*
G01X3050477Y-3910312D01*
G01X3013393Y-3880086D02*
G01X3010091Y-3873990D01*
G01X3000947Y-3864846D01*
G01X3065971Y-3864846D01*
G01X3000947Y-3797536D02*
G01X3000947Y-3828524D01*
G01X3028633Y-3831572D01*
G01X3025585Y-3828524D01*
G01X3022537Y-3819380D01*
G01X3022537Y-3809982D01*
G01X3025585Y-3800584D01*
G01X3031935Y-3794488D01*
G01X3041079Y-3791440D01*
G01X3047429Y-3791440D01*
G01X3056573Y-3794488D01*
G01X3062923Y-3800584D01*
G01X3065971Y-3809982D01*
G01X3065971Y-3819380D01*
G01X3062923Y-3828524D01*
G01X3059621Y-3831572D01*
G01X3053525Y-3834620D01*
G01X2581402Y-35560D02*
G01X2578354Y-29210D01*
G01X2572004Y-23114D01*
G01X2565908Y-20066D01*
G01X2553462Y-20066D01*
G01X2547366Y-23114D01*
G01X2541016Y-29210D01*
G01X2537968Y-35560D01*
G01X2534920Y-44704D01*
G01X2534920Y-60198D01*
G01X2537968Y-69596D01*
G01X2541016Y-75692D01*
G01X2547366Y-82042D01*
G01X2553462Y-85090D01*
G01X2565908Y-85090D01*
G01X2572004Y-82042D01*
G01X2578354Y-75692D01*
G01X2581402Y-69596D01*
G01X2617724Y-20066D02*
G01X2651760Y-20066D01*
G01X2633218Y-44704D01*
G01X2642362Y-44704D01*
G01X2648712Y-47752D01*
G01X2651760Y-51054D01*
G01X2654808Y-60198D01*
G01X2654808Y-66548D01*
G01X2651760Y-75692D01*
G01X2645664Y-82042D01*
G01X2636266Y-85090D01*
G01X2626868Y-85090D01*
G01X2617724Y-82042D01*
G01X2614676Y-78740D01*
G01X2611628Y-72644D01*
G01X2517902Y-2219960D02*
G01X2514854Y-2213610D01*
G01X2508504Y-2207514D01*
G01X2502408Y-2204466D01*
G01X2489962Y-2204466D01*
G01X2483866Y-2207514D01*
G01X2477516Y-2213610D01*
G01X2474468Y-2219960D01*
G01X2471420Y-2229104D01*
G01X2471420Y-2244598D01*
G01X2474468Y-2253996D01*
G01X2477516Y-2260092D01*
G01X2483866Y-2266442D01*
G01X2489962Y-2269490D01*
G01X2502408Y-2269490D01*
G01X2508504Y-2266442D01*
G01X2514854Y-2260092D01*
G01X2517902Y-2253996D01*
G01X2578862Y-2204466D02*
G01X2548128Y-2247646D01*
G01X2594356Y-2247646D01*
G01X2578862Y-2204466D02*
G01X2578862Y-2269490D01*
G01X2835148Y-1038860D02*
G01X2832100Y-1032510D01*
G01X2825750Y-1026414D01*
G01X2819654Y-1023366D01*
G01X2807208Y-1023366D01*
G01X2801112Y-1026414D01*
G01X2794762Y-1032510D01*
G01X2791714Y-1038860D01*
G01X2788666Y-1048004D01*
G01X2788666Y-1063498D01*
G01X2791714Y-1072896D01*
G01X2794762Y-1078992D01*
G01X2801112Y-1085342D01*
G01X2807208Y-1088390D01*
G01X2819654Y-1088390D01*
G01X2825750Y-1085342D01*
G01X2832100Y-1078992D01*
G01X2835148Y-1072896D01*
G01X2865374Y-1035812D02*
G01X2871470Y-1032510D01*
G01X2880614Y-1023366D01*
G01X2880614Y-1088390D01*
G01X2098802Y-1229360D02*
G01X2095754Y-1223010D01*
G01X2089404Y-1216914D01*
G01X2083308Y-1213866D01*
G01X2070862Y-1213866D01*
G01X2064766Y-1216914D01*
G01X2058416Y-1223010D01*
G01X2055368Y-1229360D01*
G01X2052320Y-1238504D01*
G01X2052320Y-1253998D01*
G01X2055368Y-1263396D01*
G01X2058416Y-1269492D01*
G01X2064766Y-1275842D01*
G01X2070862Y-1278890D01*
G01X2083308Y-1278890D01*
G01X2089404Y-1275842D01*
G01X2095754Y-1269492D01*
G01X2098802Y-1263396D01*
G01X2132076Y-1229360D02*
G01X2132076Y-1226312D01*
G01X2135124Y-1219962D01*
G01X2138172Y-1216914D01*
G01X2144268Y-1213866D01*
G01X2156714Y-1213866D01*
G01X2163064Y-1216914D01*
G01X2166112Y-1219962D01*
G01X2169160Y-1226312D01*
G01X2169160Y-1232408D01*
G01X2166112Y-1238504D01*
G01X2159762Y-1247902D01*
G01X2129028Y-1278890D01*
G01X2172208Y-1278890D01*
G01X1019302Y-276860D02*
G01X1016254Y-270510D01*
G01X1009904Y-264414D01*
G01X1003808Y-261366D01*
G01X991362Y-261366D01*
G01X985266Y-264414D01*
G01X978916Y-270510D01*
G01X975868Y-276860D01*
G01X972820Y-286004D01*
G01X972820Y-301498D01*
G01X975868Y-310896D01*
G01X978916Y-316992D01*
G01X985266Y-323342D01*
G01X991362Y-326390D01*
G01X1003808Y-326390D01*
G01X1009904Y-323342D01*
G01X1016254Y-316992D01*
G01X1019302Y-310896D01*
G01X1086612Y-261366D02*
G01X1055624Y-261366D01*
G01X1052576Y-289052D01*
G01X1055624Y-286004D01*
G01X1064768Y-282956D01*
G01X1074166Y-282956D01*
G01X1083564Y-286004D01*
G01X1089660Y-292354D01*
G01X1092708Y-301498D01*
G01X1092708Y-307848D01*
G01X1089660Y-316992D01*
G01X1083564Y-323342D01*
G01X1074166Y-326390D01*
G01X1064768Y-326390D01*
G01X1055624Y-323342D01*
G01X1052576Y-320040D01*
G01X1049528Y-313944D01*
G01X848360Y-1000760D02*
G01X845312Y-994410D01*
G01X838962Y-988314D01*
G01X832866Y-985266D01*
G01X820420Y-985266D01*
G01X814324Y-988314D01*
G01X807974Y-994410D01*
G01X804926Y-1000760D01*
G01X801878Y-1009904D01*
G01X801878Y-1025398D01*
G01X804926Y-1034796D01*
G01X807974Y-1040892D01*
G01X814324Y-1047242D01*
G01X820420Y-1050290D01*
G01X832866Y-1050290D01*
G01X838962Y-1047242D01*
G01X845312Y-1040892D01*
G01X848360Y-1034796D01*
G01X915670Y-994410D02*
G01X912622Y-988314D01*
G01X903224Y-985266D01*
G01X897128Y-985266D01*
G01X887730Y-988314D01*
G01X881634Y-997712D01*
G01X878586Y-1012952D01*
G01X878586Y-1028446D01*
G01X881634Y-1040892D01*
G01X887730Y-1047242D01*
G01X897128Y-1050290D01*
G01X900176Y-1050290D01*
G01X909320Y-1047242D01*
G01X915670Y-1040892D01*
G01X918718Y-1031748D01*
G01X918718Y-1028446D01*
G01X915670Y-1019302D01*
G01X909320Y-1012952D01*
G01X900176Y-1009904D01*
G01X897128Y-1009904D01*
G01X887730Y-1012952D01*
G01X881634Y-1019302D01*
G01X878586Y-1028446D01*
G01X130302Y-73660D02*
G01X127254Y-67310D01*
G01X120904Y-61214D01*
G01X114808Y-58166D01*
G01X102362Y-58166D01*
G01X96266Y-61214D01*
G01X89916Y-67310D01*
G01X86868Y-73660D01*
G01X83820Y-82804D01*
G01X83820Y-98298D01*
G01X86868Y-107696D01*
G01X89916Y-113792D01*
G01X96266Y-120142D01*
G01X102362Y-123190D01*
G01X114808Y-123190D01*
G01X120904Y-120142D01*
G01X127254Y-113792D01*
G01X130302Y-107696D01*
G01X203708Y-58166D02*
G01X172720Y-123190D01*
G01X160528Y-58166D02*
G01X203708Y-58166D01*
G01X1628902Y-302260D02*
G01X1625854Y-295910D01*
G01X1619504Y-289814D01*
G01X1613408Y-286766D01*
G01X1600962Y-286766D01*
G01X1594866Y-289814D01*
G01X1588516Y-295910D01*
G01X1585468Y-302260D01*
G01X1582420Y-311404D01*
G01X1582420Y-326898D01*
G01X1585468Y-336296D01*
G01X1588516Y-342392D01*
G01X1594866Y-348742D01*
G01X1600962Y-351790D01*
G01X1613408Y-351790D01*
G01X1619504Y-348742D01*
G01X1625854Y-342392D01*
G01X1628902Y-336296D01*
G01X1674368Y-286766D02*
G01X1665224Y-289814D01*
G01X1662176Y-295910D01*
G01X1662176Y-302260D01*
G01X1665224Y-308356D01*
G01X1671320Y-311404D01*
G01X1683766Y-314452D01*
G01X1693164Y-317754D01*
G01X1699260Y-323850D01*
G01X1702308Y-329946D01*
G01X1702308Y-339344D01*
G01X1699260Y-345440D01*
G01X1696212Y-348742D01*
G01X1686814Y-351790D01*
G01X1674368Y-351790D01*
G01X1665224Y-348742D01*
G01X1662176Y-345440D01*
G01X1659128Y-339344D01*
G01X1659128Y-329946D01*
G01X1662176Y-323850D01*
G01X1668272Y-317754D01*
G01X1677670Y-314452D01*
G01X1689862Y-311404D01*
G01X1696212Y-308356D01*
G01X1699260Y-302260D01*
G01X1699260Y-295910D01*
G01X1696212Y-289814D01*
G01X1686814Y-286766D01*
G01X1674368Y-286766D01*
G01X2780221Y-2567922D02*
G01X2786571Y-2564874D01*
G01X2792667Y-2558524D01*
G01X2795715Y-2552428D01*
G01X2795715Y-2539982D01*
G01X2792667Y-2533886D01*
G01X2786571Y-2527536D01*
G01X2780221Y-2524488D01*
G01X2771077Y-2521440D01*
G01X2755583Y-2521440D01*
G01X2746185Y-2524488D01*
G01X2740089Y-2527536D01*
G01X2733739Y-2533886D01*
G01X2730691Y-2539982D01*
G01X2730691Y-2552428D01*
G01X2733739Y-2558524D01*
G01X2740089Y-2564874D01*
G01X2746185Y-2567922D01*
G01X2774125Y-2638280D02*
G01X2764727Y-2635232D01*
G01X2758631Y-2628882D01*
G01X2755583Y-2619738D01*
G01X2755583Y-2616690D01*
G01X2758631Y-2607292D01*
G01X2764727Y-2601196D01*
G01X2774125Y-2598148D01*
G01X2777173Y-2598148D01*
G01X2786571Y-2601196D01*
G01X2792667Y-2607292D01*
G01X2795715Y-2616690D01*
G01X2795715Y-2619738D01*
G01X2792667Y-2628882D01*
G01X2786571Y-2635232D01*
G01X2774125Y-2638280D01*
G01X2758631Y-2638280D01*
G01X2743137Y-2635232D01*
G01X2733739Y-2628882D01*
G01X2730691Y-2619738D01*
G01X2730691Y-2613388D01*
G01X2733739Y-2604244D01*
G01X2740089Y-2601196D01*
G01X3401078Y-3237420D02*
G01X3404126Y-3243770D01*
G01X3410476Y-3249866D01*
G01X3416572Y-3252914D01*
G01X3429018Y-3252914D01*
G01X3435114Y-3249866D01*
G01X3441464Y-3243770D01*
G01X3444512Y-3237420D01*
G01X3447560Y-3228276D01*
G01X3447560Y-3212782D01*
G01X3444512Y-3203384D01*
G01X3441464Y-3197288D01*
G01X3435114Y-3190938D01*
G01X3429018Y-3187890D01*
G01X3416572Y-3187890D01*
G01X3410476Y-3190938D01*
G01X3404126Y-3197288D01*
G01X3401078Y-3203384D01*
G01X3370852Y-3240468D02*
G01X3364756Y-3243770D01*
G01X3355612Y-3252914D01*
G01X3355612Y-3187890D01*
G01X3325386Y-3240468D02*
G01X3319290Y-3243770D01*
G01X3310146Y-3252914D01*
G01X3310146Y-3187890D01*
G01X1610498Y-2561930D02*
G01X1616848Y-2558882D01*
G01X1622944Y-2552532D01*
G01X1625992Y-2546436D01*
G01X1625992Y-2533990D01*
G01X1622944Y-2527894D01*
G01X1616848Y-2521544D01*
G01X1610498Y-2518496D01*
G01X1601354Y-2515448D01*
G01X1585860Y-2515448D01*
G01X1576462Y-2518496D01*
G01X1570366Y-2521544D01*
G01X1564016Y-2527894D01*
G01X1560968Y-2533990D01*
G01X1560968Y-2546436D01*
G01X1564016Y-2552532D01*
G01X1570366Y-2558882D01*
G01X1576462Y-2561930D01*
G01X1613546Y-2592156D02*
G01X1616848Y-2598252D01*
G01X1625992Y-2607396D01*
G01X1560968Y-2607396D01*
G01X1610498Y-2640670D02*
G01X1613546Y-2640670D01*
G01X1619896Y-2643718D01*
G01X1622944Y-2646766D01*
G01X1625992Y-2652862D01*
G01X1625992Y-2665308D01*
G01X1622944Y-2671658D01*
G01X1619896Y-2674706D01*
G01X1613546Y-2677754D01*
G01X1607450Y-2677754D01*
G01X1601354Y-2674706D01*
G01X1591956Y-2668356D01*
G01X1560968Y-2637622D01*
G01X1560968Y-2680802D01*
G01X2206717Y-3188248D02*
G01X2203669Y-3181898D01*
G01X2197319Y-3175802D01*
G01X2191223Y-3172754D01*
G01X2178777Y-3172754D01*
G01X2172681Y-3175802D01*
G01X2166331Y-3181898D01*
G01X2163283Y-3188248D01*
G01X2160235Y-3197392D01*
G01X2160235Y-3212886D01*
G01X2163283Y-3222284D01*
G01X2166331Y-3228380D01*
G01X2172681Y-3234730D01*
G01X2178777Y-3237778D01*
G01X2191223Y-3237778D01*
G01X2197319Y-3234730D01*
G01X2203669Y-3228380D01*
G01X2206717Y-3222284D01*
G01X2236943Y-3185200D02*
G01X2243039Y-3181898D01*
G01X2252183Y-3172754D01*
G01X2252183Y-3237778D01*
G01X2313143Y-3172754D02*
G01X2282409Y-3215934D01*
G01X2328637Y-3215934D01*
G01X2313143Y-3172754D02*
G01X2313143Y-3237778D01*
G01X2873502Y-5356860D02*
G01X2870454Y-5350510D01*
G01X2864104Y-5344414D01*
G01X2858008Y-5341366D01*
G01X2845562Y-5341366D01*
G01X2839466Y-5344414D01*
G01X2833116Y-5350510D01*
G01X2830068Y-5356860D01*
G01X2827020Y-5366004D01*
G01X2827020Y-5381498D01*
G01X2830068Y-5390896D01*
G01X2833116Y-5396992D01*
G01X2839466Y-5403342D01*
G01X2845562Y-5406390D01*
G01X2858008Y-5406390D01*
G01X2864104Y-5403342D01*
G01X2870454Y-5396992D01*
G01X2873502Y-5390896D01*
G01X2903728Y-5353812D02*
G01X2909824Y-5350510D01*
G01X2918968Y-5341366D01*
G01X2918968Y-5406390D01*
G01X2986278Y-5350510D02*
G01X2983230Y-5344414D01*
G01X2973832Y-5341366D01*
G01X2967736Y-5341366D01*
G01X2958338Y-5344414D01*
G01X2952242Y-5353812D01*
G01X2949194Y-5369052D01*
G01X2949194Y-5384546D01*
G01X2952242Y-5396992D01*
G01X2958338Y-5403342D01*
G01X2967736Y-5406390D01*
G01X2970784Y-5406390D01*
G01X2979928Y-5403342D01*
G01X2986278Y-5396992D01*
G01X2989326Y-5387848D01*
G01X2989326Y-5384546D01*
G01X2986278Y-5375402D01*
G01X2979928Y-5369052D01*
G01X2970784Y-5366004D01*
G01X2967736Y-5366004D01*
G01X2958338Y-5369052D01*
G01X2952242Y-5375402D01*
G01X2949194Y-5384546D01*
G01X403860Y-3349498D02*
G01X397510Y-3352546D01*
G01X391414Y-3358896D01*
G01X388366Y-3364992D01*
G01X388366Y-3377438D01*
G01X391414Y-3383534D01*
G01X397510Y-3389884D01*
G01X403860Y-3392932D01*
G01X413004Y-3395980D01*
G01X428498Y-3395980D01*
G01X437896Y-3392932D01*
G01X443992Y-3389884D01*
G01X450342Y-3383534D01*
G01X453390Y-3377438D01*
G01X453390Y-3364992D01*
G01X450342Y-3358896D01*
G01X443992Y-3352546D01*
G01X437896Y-3349498D01*
G01X388366Y-3313176D02*
G01X388366Y-3279140D01*
G01X413004Y-3297682D01*
G01X413004Y-3288538D01*
G01X416052Y-3282188D01*
G01X419354Y-3279140D01*
G01X428498Y-3276092D01*
G01X434848Y-3276092D01*
G01X443992Y-3279140D01*
G01X450342Y-3285236D01*
G01X453390Y-3294634D01*
G01X453390Y-3304032D01*
G01X450342Y-3313176D01*
G01X447040Y-3316224D01*
G01X440944Y-3319272D01*
G01X397510Y-3208782D02*
G01X391414Y-3211830D01*
G01X388366Y-3221228D01*
G01X388366Y-3227324D01*
G01X391414Y-3236722D01*
G01X400812Y-3242818D01*
G01X416052Y-3245866D01*
G01X431546Y-3245866D01*
G01X443992Y-3242818D01*
G01X450342Y-3236722D01*
G01X453390Y-3227324D01*
G01X453390Y-3224276D01*
G01X450342Y-3215132D01*
G01X443992Y-3208782D01*
G01X434848Y-3205734D01*
G01X431546Y-3205734D01*
G01X422402Y-3208782D01*
G01X416052Y-3215132D01*
G01X413004Y-3224276D01*
G01X413004Y-3227324D01*
G01X416052Y-3236722D01*
G01X422402Y-3242818D01*
G01X431546Y-3245866D01*
G01X1222502Y-3985260D02*
G01X1219454Y-3978910D01*
G01X1213104Y-3972814D01*
G01X1207008Y-3969766D01*
G01X1194562Y-3969766D01*
G01X1188466Y-3972814D01*
G01X1182116Y-3978910D01*
G01X1179068Y-3985260D01*
G01X1176020Y-3994404D01*
G01X1176020Y-4009898D01*
G01X1179068Y-4019296D01*
G01X1182116Y-4025392D01*
G01X1188466Y-4031742D01*
G01X1194562Y-4034790D01*
G01X1207008Y-4034790D01*
G01X1213104Y-4031742D01*
G01X1219454Y-4025392D01*
G01X1222502Y-4019296D01*
G01X1258824Y-3969766D02*
G01X1292860Y-3969766D01*
G01X1274318Y-3994404D01*
G01X1283462Y-3994404D01*
G01X1289812Y-3997452D01*
G01X1292860Y-4000754D01*
G01X1295908Y-4009898D01*
G01X1295908Y-4016248D01*
G01X1292860Y-4025392D01*
G01X1286764Y-4031742D01*
G01X1277366Y-4034790D01*
G01X1267968Y-4034790D01*
G01X1258824Y-4031742D01*
G01X1255776Y-4028440D01*
G01X1252728Y-4022344D01*
G01X1363218Y-3969766D02*
G01X1332230Y-3969766D01*
G01X1329182Y-3997452D01*
G01X1332230Y-3994404D01*
G01X1341374Y-3991356D01*
G01X1350772Y-3991356D01*
G01X1360170Y-3994404D01*
G01X1366266Y-4000754D01*
G01X1369314Y-4009898D01*
G01X1369314Y-4016248D01*
G01X1366266Y-4025392D01*
G01X1360170Y-4031742D01*
G01X1350772Y-4034790D01*
G01X1341374Y-4034790D01*
G01X1332230Y-4031742D01*
G01X1329182Y-4028440D01*
G01X1326134Y-4022344D01*
G01X511302Y-4798060D02*
G01X508254Y-4791710D01*
G01X501904Y-4785614D01*
G01X495808Y-4782566D01*
G01X483362Y-4782566D01*
G01X477266Y-4785614D01*
G01X470916Y-4791710D01*
G01X467868Y-4798060D01*
G01X464820Y-4807204D01*
G01X464820Y-4822698D01*
G01X467868Y-4832096D01*
G01X470916Y-4838192D01*
G01X477266Y-4844542D01*
G01X483362Y-4847590D01*
G01X495808Y-4847590D01*
G01X501904Y-4844542D01*
G01X508254Y-4838192D01*
G01X511302Y-4832096D01*
G01X547624Y-4782566D02*
G01X581660Y-4782566D01*
G01X563118Y-4807204D01*
G01X572262Y-4807204D01*
G01X578612Y-4810252D01*
G01X581660Y-4813554D01*
G01X584708Y-4822698D01*
G01X584708Y-4829048D01*
G01X581660Y-4838192D01*
G01X575564Y-4844542D01*
G01X566166Y-4847590D01*
G01X556768Y-4847590D01*
G01X547624Y-4844542D01*
G01X544576Y-4841240D01*
G01X541528Y-4835144D01*
G01X621030Y-4782566D02*
G01X655066Y-4782566D01*
G01X636524Y-4807204D01*
G01X645668Y-4807204D01*
G01X652018Y-4810252D01*
G01X655066Y-4813554D01*
G01X658114Y-4822698D01*
G01X658114Y-4829048D01*
G01X655066Y-4838192D01*
G01X648970Y-4844542D01*
G01X639572Y-4847590D01*
G01X630174Y-4847590D01*
G01X621030Y-4844542D01*
G01X617982Y-4841240D01*
G01X614934Y-4835144D01*
G01X1348740Y-3483102D02*
G01X1355090Y-3480054D01*
G01X1361186Y-3473704D01*
G01X1364234Y-3467608D01*
G01X1364234Y-3455162D01*
G01X1361186Y-3449066D01*
G01X1355090Y-3442716D01*
G01X1348740Y-3439668D01*
G01X1339596Y-3436620D01*
G01X1324102Y-3436620D01*
G01X1314704Y-3439668D01*
G01X1308608Y-3442716D01*
G01X1302258Y-3449066D01*
G01X1299210Y-3455162D01*
G01X1299210Y-3467608D01*
G01X1302258Y-3473704D01*
G01X1308608Y-3480054D01*
G01X1314704Y-3483102D01*
G01X1364234Y-3519424D02*
G01X1364234Y-3553460D01*
G01X1339596Y-3534918D01*
G01X1339596Y-3544062D01*
G01X1336548Y-3550412D01*
G01X1333246Y-3553460D01*
G01X1324102Y-3556508D01*
G01X1317752Y-3556508D01*
G01X1308608Y-3553460D01*
G01X1302258Y-3547364D01*
G01X1299210Y-3537966D01*
G01X1299210Y-3528568D01*
G01X1302258Y-3519424D01*
G01X1305560Y-3516376D01*
G01X1311656Y-3513328D01*
G01X1348740Y-3589782D02*
G01X1351788Y-3589782D01*
G01X1358138Y-3592830D01*
G01X1361186Y-3595878D01*
G01X1364234Y-3601974D01*
G01X1364234Y-3614420D01*
G01X1361186Y-3620770D01*
G01X1358138Y-3623818D01*
G01X1351788Y-3626866D01*
G01X1345692Y-3626866D01*
G01X1339596Y-3623818D01*
G01X1330198Y-3617468D01*
G01X1299210Y-3586734D01*
G01X1299210Y-3629914D01*
G01X2187702Y-4823460D02*
G01X2184654Y-4817110D01*
G01X2178304Y-4811014D01*
G01X2172208Y-4807966D01*
G01X2159762Y-4807966D01*
G01X2153666Y-4811014D01*
G01X2147316Y-4817110D01*
G01X2144268Y-4823460D01*
G01X2141220Y-4832604D01*
G01X2141220Y-4848098D01*
G01X2144268Y-4857496D01*
G01X2147316Y-4863592D01*
G01X2153666Y-4869942D01*
G01X2159762Y-4872990D01*
G01X2172208Y-4872990D01*
G01X2178304Y-4869942D01*
G01X2184654Y-4863592D01*
G01X2187702Y-4857496D01*
G01X2220976Y-4823460D02*
G01X2220976Y-4820412D01*
G01X2224024Y-4814062D01*
G01X2227072Y-4811014D01*
G01X2233168Y-4807966D01*
G01X2245614Y-4807966D01*
G01X2251964Y-4811014D01*
G01X2255012Y-4814062D01*
G01X2258060Y-4820412D01*
G01X2258060Y-4826508D01*
G01X2255012Y-4832604D01*
G01X2248662Y-4842002D01*
G01X2217928Y-4872990D01*
G01X2261108Y-4872990D01*
G01X2322068Y-4807966D02*
G01X2291334Y-4851146D01*
G01X2337562Y-4851146D01*
G01X2322068Y-4807966D02*
G01X2322068Y-4872990D01*
G01X988060Y-4873498D02*
G01X981710Y-4876546D01*
G01X975614Y-4882896D01*
G01X972566Y-4888992D01*
G01X972566Y-4901438D01*
G01X975614Y-4907534D01*
G01X981710Y-4913884D01*
G01X988060Y-4916932D01*
G01X997204Y-4919980D01*
G01X1012698Y-4919980D01*
G01X1022096Y-4916932D01*
G01X1028192Y-4913884D01*
G01X1034542Y-4907534D01*
G01X1037590Y-4901438D01*
G01X1037590Y-4888992D01*
G01X1034542Y-4882896D01*
G01X1028192Y-4876546D01*
G01X1022096Y-4873498D01*
G01X972566Y-4837176D02*
G01X972566Y-4803140D01*
G01X997204Y-4821682D01*
G01X997204Y-4812538D01*
G01X1000252Y-4806188D01*
G01X1003554Y-4803140D01*
G01X1012698Y-4800092D01*
G01X1019048Y-4800092D01*
G01X1028192Y-4803140D01*
G01X1034542Y-4809236D01*
G01X1037590Y-4818634D01*
G01X1037590Y-4828032D01*
G01X1034542Y-4837176D01*
G01X1031240Y-4840224D01*
G01X1025144Y-4843272D01*
G01X972566Y-4751324D02*
G01X975614Y-4760722D01*
G01X985012Y-4766818D01*
G01X1000252Y-4769866D01*
G01X1009650Y-4769866D01*
G01X1025144Y-4766818D01*
G01X1034542Y-4760722D01*
G01X1037590Y-4751324D01*
G01X1037590Y-4745228D01*
G01X1034542Y-4735830D01*
G01X1025144Y-4729734D01*
G01X1009650Y-4726686D01*
G01X1000252Y-4726686D01*
G01X985012Y-4729734D01*
G01X975614Y-4735830D01*
G01X972566Y-4745228D01*
G01X972566Y-4751324D01*
G01X1959102Y-4823460D02*
G01X1956054Y-4817110D01*
G01X1949704Y-4811014D01*
G01X1943608Y-4807966D01*
G01X1931162Y-4807966D01*
G01X1925066Y-4811014D01*
G01X1918716Y-4817110D01*
G01X1915668Y-4823460D01*
G01X1912620Y-4832604D01*
G01X1912620Y-4848098D01*
G01X1915668Y-4857496D01*
G01X1918716Y-4863592D01*
G01X1925066Y-4869942D01*
G01X1931162Y-4872990D01*
G01X1943608Y-4872990D01*
G01X1949704Y-4869942D01*
G01X1956054Y-4863592D01*
G01X1959102Y-4857496D01*
G01X1992376Y-4823460D02*
G01X1992376Y-4820412D01*
G01X1995424Y-4814062D01*
G01X1998472Y-4811014D01*
G01X2004568Y-4807966D01*
G01X2017014Y-4807966D01*
G01X2023364Y-4811014D01*
G01X2026412Y-4814062D01*
G01X2029460Y-4820412D01*
G01X2029460Y-4826508D01*
G01X2026412Y-4832604D01*
G01X2020062Y-4842002D01*
G01X1989328Y-4872990D01*
G01X2032508Y-4872990D01*
G01X2099818Y-4807966D02*
G01X2068830Y-4807966D01*
G01X2065782Y-4835652D01*
G01X2068830Y-4832604D01*
G01X2077974Y-4829556D01*
G01X2087372Y-4829556D01*
G01X2096770Y-4832604D01*
G01X2102866Y-4838954D01*
G01X2105914Y-4848098D01*
G01X2105914Y-4854448D01*
G01X2102866Y-4863592D01*
G01X2096770Y-4869942D01*
G01X2087372Y-4872990D01*
G01X2077974Y-4872990D01*
G01X2068830Y-4869942D01*
G01X2065782Y-4866640D01*
G01X2062734Y-4860544D01*
G01X980896Y-5094301D02*
G01X974546Y-5097349D01*
G01X968450Y-5103699D01*
G01X965402Y-5109795D01*
G01X965402Y-5122241D01*
G01X968450Y-5128337D01*
G01X974546Y-5134687D01*
G01X980896Y-5137735D01*
G01X990040Y-5140783D01*
G01X1005534Y-5140783D01*
G01X1014932Y-5137735D01*
G01X1021028Y-5134687D01*
G01X1027378Y-5128337D01*
G01X1030426Y-5122241D01*
G01X1030426Y-5109795D01*
G01X1027378Y-5103699D01*
G01X1021028Y-5097349D01*
G01X1014932Y-5094301D01*
G01X965402Y-5057979D02*
G01X965402Y-5023943D01*
G01X990040Y-5042485D01*
G01X990040Y-5033341D01*
G01X993088Y-5026991D01*
G01X996390Y-5023943D01*
G01X1005534Y-5020895D01*
G01X1011884Y-5020895D01*
G01X1021028Y-5023943D01*
G01X1027378Y-5030039D01*
G01X1030426Y-5039437D01*
G01X1030426Y-5048835D01*
G01X1027378Y-5057979D01*
G01X1024076Y-5061027D01*
G01X1017980Y-5064075D01*
G01X977848Y-4990669D02*
G01X974546Y-4984573D01*
G01X965402Y-4975429D01*
G01X1030426Y-4975429D01*
G01X1551922Y-4814379D02*
G01X1548874Y-4808029D01*
G01X1542524Y-4801933D01*
G01X1536428Y-4798885D01*
G01X1523982Y-4798885D01*
G01X1517886Y-4801933D01*
G01X1511536Y-4808029D01*
G01X1508488Y-4814379D01*
G01X1505440Y-4823523D01*
G01X1505440Y-4839017D01*
G01X1508488Y-4848415D01*
G01X1511536Y-4854511D01*
G01X1517886Y-4860861D01*
G01X1523982Y-4863909D01*
G01X1536428Y-4863909D01*
G01X1542524Y-4860861D01*
G01X1548874Y-4854511D01*
G01X1551922Y-4848415D01*
G01X1585196Y-4814379D02*
G01X1585196Y-4811331D01*
G01X1588244Y-4804981D01*
G01X1591292Y-4801933D01*
G01X1597388Y-4798885D01*
G01X1609834Y-4798885D01*
G01X1616184Y-4801933D01*
G01X1619232Y-4804981D01*
G01X1622280Y-4811331D01*
G01X1622280Y-4817427D01*
G01X1619232Y-4823523D01*
G01X1612882Y-4832921D01*
G01X1582148Y-4863909D01*
G01X1625328Y-4863909D01*
G01X1698734Y-4798885D02*
G01X1667746Y-4863909D01*
G01X1655554Y-4798885D02*
G01X1698734Y-4798885D01*
G01X2416302Y-5433060D02*
G01X2413254Y-5426710D01*
G01X2406904Y-5420614D01*
G01X2400808Y-5417566D01*
G01X2388362Y-5417566D01*
G01X2382266Y-5420614D01*
G01X2375916Y-5426710D01*
G01X2372868Y-5433060D01*
G01X2369820Y-5442204D01*
G01X2369820Y-5457698D01*
G01X2372868Y-5467096D01*
G01X2375916Y-5473192D01*
G01X2382266Y-5479542D01*
G01X2388362Y-5482590D01*
G01X2400808Y-5482590D01*
G01X2406904Y-5479542D01*
G01X2413254Y-5473192D01*
G01X2416302Y-5467096D01*
G01X2449576Y-5433060D02*
G01X2449576Y-5430012D01*
G01X2452624Y-5423662D01*
G01X2455672Y-5420614D01*
G01X2461768Y-5417566D01*
G01X2474214Y-5417566D01*
G01X2480564Y-5420614D01*
G01X2483612Y-5423662D01*
G01X2486660Y-5430012D01*
G01X2486660Y-5436108D01*
G01X2483612Y-5442204D01*
G01X2477262Y-5451602D01*
G01X2446528Y-5482590D01*
G01X2489708Y-5482590D01*
G01X2535174Y-5417566D02*
G01X2526030Y-5420614D01*
G01X2522982Y-5426710D01*
G01X2522982Y-5433060D01*
G01X2526030Y-5439156D01*
G01X2532126Y-5442204D01*
G01X2544572Y-5445252D01*
G01X2553970Y-5448554D01*
G01X2560066Y-5454650D01*
G01X2563114Y-5460746D01*
G01X2563114Y-5470144D01*
G01X2560066Y-5476240D01*
G01X2557018Y-5479542D01*
G01X2547620Y-5482590D01*
G01X2535174Y-5482590D01*
G01X2526030Y-5479542D01*
G01X2522982Y-5476240D01*
G01X2519934Y-5470144D01*
G01X2519934Y-5460746D01*
G01X2522982Y-5454650D01*
G01X2529078Y-5448554D01*
G01X2538476Y-5445252D01*
G01X2550668Y-5442204D01*
G01X2557018Y-5439156D01*
G01X2560066Y-5433060D01*
G01X2560066Y-5426710D01*
G01X2557018Y-5420614D01*
G01X2547620Y-5417566D01*
G01X2535174Y-5417566D01*
G01X2186196Y-5835840D02*
G01X2183148Y-5829490D01*
G01X2176798Y-5823394D01*
G01X2170702Y-5820346D01*
G01X2158256Y-5820346D01*
G01X2152160Y-5823394D01*
G01X2145810Y-5829490D01*
G01X2142762Y-5835840D01*
G01X2139714Y-5844984D01*
G01X2139714Y-5860478D01*
G01X2142762Y-5869876D01*
G01X2145810Y-5875972D01*
G01X2152160Y-5882322D01*
G01X2158256Y-5885370D01*
G01X2170702Y-5885370D01*
G01X2176798Y-5882322D01*
G01X2183148Y-5875972D01*
G01X2186196Y-5869876D01*
G01X2219470Y-5835840D02*
G01X2219470Y-5832792D01*
G01X2222518Y-5826442D01*
G01X2225566Y-5823394D01*
G01X2231662Y-5820346D01*
G01X2244108Y-5820346D01*
G01X2250458Y-5823394D01*
G01X2253506Y-5826442D01*
G01X2256554Y-5832792D01*
G01X2256554Y-5838888D01*
G01X2253506Y-5844984D01*
G01X2247156Y-5854382D01*
G01X2216422Y-5885370D01*
G01X2259602Y-5885370D01*
G01X2329960Y-5841936D02*
G01X2326912Y-5851334D01*
G01X2320562Y-5857430D01*
G01X2311418Y-5860478D01*
G01X2308370Y-5860478D01*
G01X2298972Y-5857430D01*
G01X2292876Y-5851334D01*
G01X2289828Y-5841936D01*
G01X2289828Y-5838888D01*
G01X2292876Y-5829490D01*
G01X2298972Y-5823394D01*
G01X2308370Y-5820346D01*
G01X2311418Y-5820346D01*
G01X2320562Y-5823394D01*
G01X2326912Y-5829490D01*
G01X2329960Y-5841936D01*
G01X2329960Y-5857430D01*
G01X2326912Y-5872924D01*
G01X2320562Y-5882322D01*
G01X2311418Y-5885370D01*
G01X2305068Y-5885370D01*
G01X2295924Y-5882322D01*
G01X2292876Y-5875972D01*
G01X2289302Y-6017260D02*
G01X2286254Y-6010910D01*
G01X2279904Y-6004814D01*
G01X2273808Y-6001766D01*
G01X2261362Y-6001766D01*
G01X2255266Y-6004814D01*
G01X2248916Y-6010910D01*
G01X2245868Y-6017260D01*
G01X2242820Y-6026404D01*
G01X2242820Y-6041898D01*
G01X2245868Y-6051296D01*
G01X2248916Y-6057392D01*
G01X2255266Y-6063742D01*
G01X2261362Y-6066790D01*
G01X2273808Y-6066790D01*
G01X2279904Y-6063742D01*
G01X2286254Y-6057392D01*
G01X2289302Y-6051296D01*
G01X2322576Y-6017260D02*
G01X2322576Y-6014212D01*
G01X2325624Y-6007862D01*
G01X2328672Y-6004814D01*
G01X2334768Y-6001766D01*
G01X2347214Y-6001766D01*
G01X2353564Y-6004814D01*
G01X2356612Y-6007862D01*
G01X2359660Y-6014212D01*
G01X2359660Y-6020308D01*
G01X2356612Y-6026404D01*
G01X2350262Y-6035802D01*
G01X2319528Y-6066790D01*
G01X2362708Y-6066790D01*
G01X2430018Y-6010910D02*
G01X2426970Y-6004814D01*
G01X2417572Y-6001766D01*
G01X2411476Y-6001766D01*
G01X2402078Y-6004814D01*
G01X2395982Y-6014212D01*
G01X2392934Y-6029452D01*
G01X2392934Y-6044946D01*
G01X2395982Y-6057392D01*
G01X2402078Y-6063742D01*
G01X2411476Y-6066790D01*
G01X2414524Y-6066790D01*
G01X2423668Y-6063742D01*
G01X2430018Y-6057392D01*
G01X2433066Y-6048248D01*
G01X2433066Y-6044946D01*
G01X2430018Y-6035802D01*
G01X2423668Y-6029452D01*
G01X2414524Y-6026404D01*
G01X2411476Y-6026404D01*
G01X2402078Y-6029452D01*
G01X2395982Y-6035802D01*
G01X2392934Y-6044946D01*
G01X3081020Y-32766D02*
G01X3081020Y-97790D01*
G01X3081020Y-32766D02*
G01X3102610Y-32766D01*
G01X3112008Y-35814D01*
G01X3118104Y-41910D01*
G01X3121152Y-48260D01*
G01X3124454Y-57404D01*
G01X3124454Y-72898D01*
G01X3121152Y-82296D01*
G01X3118104Y-88392D01*
G01X3112008Y-94742D01*
G01X3102610Y-97790D01*
G01X3081020Y-97790D01*
G01X3154680Y-45212D02*
G01X3160776Y-41910D01*
G01X3169920Y-32766D01*
G01X3169920Y-97790D01*
G01X3106420Y-2229866D02*
G01X3106420Y-2294890D01*
G01X3106420Y-2229866D02*
G01X3128010Y-2229866D01*
G01X3137408Y-2232914D01*
G01X3143504Y-2239010D01*
G01X3146552Y-2245360D01*
G01X3149854Y-2254504D01*
G01X3149854Y-2269998D01*
G01X3146552Y-2279396D01*
G01X3143504Y-2285492D01*
G01X3137408Y-2291842D01*
G01X3128010Y-2294890D01*
G01X3106420Y-2294890D01*
G01X3183128Y-2245360D02*
G01X3183128Y-2242312D01*
G01X3186176Y-2235962D01*
G01X3189224Y-2232914D01*
G01X3195320Y-2229866D01*
G01X3207766Y-2229866D01*
G01X3214116Y-2232914D01*
G01X3217164Y-2235962D01*
G01X3220212Y-2242312D01*
G01X3220212Y-2248408D01*
G01X3217164Y-2254504D01*
G01X3210814Y-2263902D01*
G01X3180080Y-2294890D01*
G01X3223260Y-2294890D01*
G01X3474466Y-665480D02*
G01X3539490Y-665480D01*
G01X3474466Y-665480D02*
G01X3474466Y-625348D01*
G01X3505454Y-665480D02*
G01X3505454Y-640588D01*
G01X3486912Y-595122D02*
G01X3483610Y-589026D01*
G01X3474466Y-579882D01*
G01X3539490Y-579882D01*
G01X3499866Y-1757680D02*
G01X3564890Y-1757680D01*
G01X3499866Y-1757680D02*
G01X3499866Y-1717548D01*
G01X3530854Y-1757680D02*
G01X3530854Y-1732788D01*
G01X3515360Y-1684274D02*
G01X3512312Y-1684274D01*
G01X3505962Y-1681226D01*
G01X3502914Y-1678178D01*
G01X3499866Y-1672082D01*
G01X3499866Y-1659636D01*
G01X3502914Y-1653286D01*
G01X3505962Y-1650238D01*
G01X3512312Y-1647190D01*
G01X3518408Y-1647190D01*
G01X3524504Y-1650238D01*
G01X3533902Y-1656588D01*
G01X3564890Y-1687322D01*
G01X3564890Y-1644142D01*
G01X551434Y-6243323D02*
G01X486410Y-6243323D01*
G01X551434Y-6286757D02*
G01X486410Y-6286757D01*
G01X520446Y-6243323D02*
G01X520446Y-6286757D01*
G01X551434Y-6347717D02*
G01X508254Y-6316983D01*
G01X508254Y-6363211D01*
G01X551434Y-6347717D02*
G01X486410Y-6347717D01*
G01X3487166Y-991870D02*
G01X3552190Y-991870D01*
G01X3552190Y-991870D02*
G01X3552190Y-954786D01*
G01X3499612Y-924560D02*
G01X3496310Y-918464D01*
G01X3487166Y-909320D01*
G01X3552190Y-909320D01*
G01X3499866Y-1402080D02*
G01X3564890Y-1402080D01*
G01X3564890Y-1402080D02*
G01X3564890Y-1364996D01*
G01X3515360Y-1331722D02*
G01X3512312Y-1331722D01*
G01X3505962Y-1328674D01*
G01X3502914Y-1325626D01*
G01X3499866Y-1319530D01*
G01X3499866Y-1307084D01*
G01X3502914Y-1300734D01*
G01X3505962Y-1297686D01*
G01X3512312Y-1294638D01*
G01X3518408Y-1294638D01*
G01X3524504Y-1297686D01*
G01X3533902Y-1304036D01*
G01X3564890Y-1334770D01*
G01X3564890Y-1291590D01*
G01X1367790Y-286766D02*
G01X1367790Y-351790D01*
G01X1367790Y-351790D02*
G01X1404874Y-351790D01*
G01X1441196Y-286766D02*
G01X1475232Y-286766D01*
G01X1456690Y-311404D01*
G01X1465834Y-311404D01*
G01X1472184Y-314452D01*
G01X1475232Y-317754D01*
G01X1478280Y-326898D01*
G01X1478280Y-333248D01*
G01X1475232Y-342392D01*
G01X1469136Y-348742D01*
G01X1459738Y-351790D01*
G01X1450340Y-351790D01*
G01X1441196Y-348742D01*
G01X1438148Y-345440D01*
G01X1435100Y-339344D01*
G01X3741420Y-3918966D02*
G01X3741420Y-3983990D01*
G01X3741420Y-3918966D02*
G01X3769360Y-3918966D01*
G01X3778504Y-3922014D01*
G01X3781552Y-3925062D01*
G01X3784854Y-3931412D01*
G01X3784854Y-3937508D01*
G01X3781552Y-3943604D01*
G01X3778504Y-3946652D01*
G01X3769360Y-3949954D01*
G01X3741420Y-3949954D01*
G01X3763010Y-3949954D02*
G01X3784854Y-3983990D01*
G01X3821176Y-3918966D02*
G01X3855212Y-3918966D01*
G01X3836670Y-3943604D01*
G01X3845814Y-3943604D01*
G01X3852164Y-3946652D01*
G01X3855212Y-3949954D01*
G01X3858260Y-3959098D01*
G01X3858260Y-3965448D01*
G01X3855212Y-3974592D01*
G01X3849116Y-3980942D01*
G01X3839718Y-3983990D01*
G01X3830320Y-3983990D01*
G01X3821176Y-3980942D01*
G01X3818128Y-3977640D01*
G01X3815080Y-3971544D01*
G01X3157220Y-3791966D02*
G01X3157220Y-3856990D01*
G01X3157220Y-3791966D02*
G01X3185160Y-3791966D01*
G01X3194304Y-3795014D01*
G01X3197352Y-3798062D01*
G01X3200654Y-3804412D01*
G01X3200654Y-3810508D01*
G01X3197352Y-3816604D01*
G01X3194304Y-3819652D01*
G01X3185160Y-3822954D01*
G01X3157220Y-3822954D01*
G01X3178810Y-3822954D02*
G01X3200654Y-3856990D01*
G01X3261614Y-3791966D02*
G01X3230880Y-3835146D01*
G01X3277108Y-3835146D01*
G01X3261614Y-3791966D02*
G01X3261614Y-3856990D01*
G01X4035537Y-4773513D02*
G01X4100561Y-4773513D01*
G01X4035537Y-4773513D02*
G01X4035537Y-4745573D01*
G01X4038585Y-4736429D01*
G01X4041633Y-4733381D01*
G01X4047983Y-4730079D01*
G01X4054079Y-4730079D01*
G01X4060175Y-4733381D01*
G01X4063223Y-4736429D01*
G01X4066525Y-4745573D01*
G01X4066525Y-4773513D01*
G01X4066525Y-4751923D02*
G01X4100561Y-4730079D01*
G01X4035537Y-4662769D02*
G01X4035537Y-4693757D01*
G01X4063223Y-4696805D01*
G01X4060175Y-4693757D01*
G01X4057127Y-4684613D01*
G01X4057127Y-4675215D01*
G01X4060175Y-4665817D01*
G01X4066525Y-4659721D01*
G01X4075669Y-4656673D01*
G01X4082019Y-4656673D01*
G01X4091163Y-4659721D01*
G01X4097513Y-4665817D01*
G01X4100561Y-4675215D01*
G01X4100561Y-4684613D01*
G01X4097513Y-4693757D01*
G01X4094211Y-4696805D01*
G01X4088115Y-4699853D01*
G01X4035537Y-5154513D02*
G01X4100561Y-5154513D01*
G01X4035537Y-5154513D02*
G01X4035537Y-5126573D01*
G01X4038585Y-5117429D01*
G01X4041633Y-5114381D01*
G01X4047983Y-5111079D01*
G01X4054079Y-5111079D01*
G01X4060175Y-5114381D01*
G01X4063223Y-5117429D01*
G01X4066525Y-5126573D01*
G01X4066525Y-5154513D01*
G01X4066525Y-5132923D02*
G01X4100561Y-5111079D01*
G01X4044681Y-5043769D02*
G01X4038585Y-5046817D01*
G01X4035537Y-5056215D01*
G01X4035537Y-5062311D01*
G01X4038585Y-5071709D01*
G01X4047983Y-5077805D01*
G01X4063223Y-5080853D01*
G01X4078717Y-5080853D01*
G01X4091163Y-5077805D01*
G01X4097513Y-5071709D01*
G01X4100561Y-5062311D01*
G01X4100561Y-5059263D01*
G01X4097513Y-5050119D01*
G01X4091163Y-5043769D01*
G01X4082019Y-5040721D01*
G01X4078717Y-5040721D01*
G01X4069573Y-5043769D01*
G01X4063223Y-5050119D01*
G01X4060175Y-5059263D01*
G01X4060175Y-5062311D01*
G01X4063223Y-5071709D01*
G01X4069573Y-5077805D01*
G01X4078717Y-5080853D01*
G01X33020Y-413766D02*
G01X33020Y-478790D01*
G01X33020Y-413766D02*
G01X60960Y-413766D01*
G01X70104Y-416814D01*
G01X73152Y-419862D01*
G01X76454Y-426212D01*
G01X76454Y-432308D01*
G01X73152Y-438404D01*
G01X70104Y-441452D01*
G01X60960Y-444754D01*
G01X33020Y-444754D01*
G01X54610Y-444754D02*
G01X76454Y-478790D01*
G01X106680Y-426212D02*
G01X112776Y-422910D01*
G01X121920Y-413766D01*
G01X121920Y-478790D01*
G01X33020Y-642366D02*
G01X33020Y-707390D01*
G01X33020Y-642366D02*
G01X60960Y-642366D01*
G01X70104Y-645414D01*
G01X73152Y-648462D01*
G01X76454Y-654812D01*
G01X76454Y-660908D01*
G01X73152Y-667004D01*
G01X70104Y-670052D01*
G01X60960Y-673354D01*
G01X33020Y-673354D01*
G01X54610Y-673354D02*
G01X76454Y-707390D01*
G01X109728Y-657860D02*
G01X109728Y-654812D01*
G01X112776Y-648462D01*
G01X115824Y-645414D01*
G01X121920Y-642366D01*
G01X134366Y-642366D01*
G01X140716Y-645414D01*
G01X143764Y-648462D01*
G01X146812Y-654812D01*
G01X146812Y-660908D01*
G01X143764Y-667004D01*
G01X137414Y-676402D01*
G01X106680Y-707390D01*
G01X149860Y-707390D01*
G01X464820Y-4223766D02*
G01X464820Y-4288790D01*
G01X464820Y-4223766D02*
G01X492760Y-4223766D01*
G01X501904Y-4226814D01*
G01X504952Y-4229862D01*
G01X508254Y-4236212D01*
G01X508254Y-4242308D01*
G01X504952Y-4248404D01*
G01X501904Y-4251452D01*
G01X492760Y-4254754D01*
G01X464820Y-4254754D01*
G01X486410Y-4254754D02*
G01X508254Y-4288790D01*
G01X578612Y-4245356D02*
G01X575564Y-4254754D01*
G01X569214Y-4260850D01*
G01X560070Y-4263898D01*
G01X557022Y-4263898D01*
G01X547624Y-4260850D01*
G01X541528Y-4254754D01*
G01X538480Y-4245356D01*
G01X538480Y-4242308D01*
G01X541528Y-4232910D01*
G01X547624Y-4226814D01*
G01X557022Y-4223766D01*
G01X560070Y-4223766D01*
G01X569214Y-4226814D01*
G01X575564Y-4232910D01*
G01X578612Y-4245356D01*
G01X578612Y-4260850D01*
G01X575564Y-4276344D01*
G01X569214Y-4285742D01*
G01X560070Y-4288790D01*
G01X553720Y-4288790D01*
G01X544576Y-4285742D01*
G01X541528Y-4279392D01*
G01X743966Y-3421380D02*
G01X808990Y-3421380D01*
G01X743966Y-3421380D02*
G01X743966Y-3393440D01*
G01X747014Y-3384296D01*
G01X750062Y-3381248D01*
G01X756412Y-3377946D01*
G01X762508Y-3377946D01*
G01X768604Y-3381248D01*
G01X771652Y-3384296D01*
G01X774954Y-3393440D01*
G01X774954Y-3421380D01*
G01X774954Y-3399790D02*
G01X808990Y-3377946D01*
G01X756412Y-3347720D02*
G01X753110Y-3341624D01*
G01X743966Y-3332480D01*
G01X808990Y-3332480D01*
G01X756412Y-3302254D02*
G01X753110Y-3296158D01*
G01X743966Y-3287014D01*
G01X808990Y-3287014D01*
G01X555737Y-5129113D02*
G01X620761Y-5129113D01*
G01X555737Y-5129113D02*
G01X555737Y-5101173D01*
G01X558785Y-5092029D01*
G01X561833Y-5088981D01*
G01X568183Y-5085679D01*
G01X574279Y-5085679D01*
G01X580375Y-5088981D01*
G01X583423Y-5092029D01*
G01X586725Y-5101173D01*
G01X586725Y-5129113D01*
G01X586725Y-5107523D02*
G01X620761Y-5085679D01*
G01X568183Y-5055453D02*
G01X564881Y-5049357D01*
G01X555737Y-5040213D01*
G01X620761Y-5040213D01*
G01X555737Y-4991445D02*
G01X558785Y-5000843D01*
G01X568183Y-5006939D01*
G01X583423Y-5009987D01*
G01X592821Y-5009987D01*
G01X608315Y-5006939D01*
G01X617713Y-5000843D01*
G01X620761Y-4991445D01*
G01X620761Y-4985349D01*
G01X617713Y-4975951D01*
G01X608315Y-4969855D01*
G01X592821Y-4966807D01*
G01X583423Y-4966807D01*
G01X568183Y-4969855D01*
G01X558785Y-4975951D01*
G01X555737Y-4985349D01*
G01X555737Y-4991445D01*
G01X1364234Y-3081020D02*
G01X1299210Y-3081020D01*
G01X1364234Y-3081020D02*
G01X1364234Y-3108960D01*
G01X1361186Y-3118104D01*
G01X1358138Y-3121152D01*
G01X1351788Y-3124454D01*
G01X1345692Y-3124454D01*
G01X1339596Y-3121152D01*
G01X1336548Y-3118104D01*
G01X1333246Y-3108960D01*
G01X1333246Y-3081020D01*
G01X1333246Y-3102610D02*
G01X1299210Y-3124454D01*
G01X1351788Y-3154680D02*
G01X1355090Y-3160776D01*
G01X1364234Y-3169920D01*
G01X1299210Y-3169920D01*
G01X1348740Y-3203194D02*
G01X1351788Y-3203194D01*
G01X1358138Y-3206242D01*
G01X1361186Y-3209290D01*
G01X1364234Y-3215386D01*
G01X1364234Y-3227832D01*
G01X1361186Y-3234182D01*
G01X1358138Y-3237230D01*
G01X1351788Y-3240278D01*
G01X1345692Y-3240278D01*
G01X1339596Y-3237230D01*
G01X1330198Y-3230880D01*
G01X1299210Y-3200146D01*
G01X1299210Y-3243326D01*
G01X566420Y-5366766D02*
G01X566420Y-5431790D01*
G01X566420Y-5366766D02*
G01X594360Y-5366766D01*
G01X603504Y-5369814D01*
G01X606552Y-5372862D01*
G01X609854Y-5379212D01*
G01X609854Y-5385308D01*
G01X606552Y-5391404D01*
G01X603504Y-5394452D01*
G01X594360Y-5397754D01*
G01X566420Y-5397754D01*
G01X588010Y-5397754D02*
G01X609854Y-5431790D01*
G01X655320Y-5366766D02*
G01X646176Y-5369814D01*
G01X643128Y-5375910D01*
G01X643128Y-5382260D01*
G01X646176Y-5388356D01*
G01X652272Y-5391404D01*
G01X664718Y-5394452D01*
G01X674116Y-5397754D01*
G01X680212Y-5403850D01*
G01X683260Y-5409946D01*
G01X683260Y-5419344D01*
G01X680212Y-5425440D01*
G01X677164Y-5428742D01*
G01X667766Y-5431790D01*
G01X655320Y-5431790D01*
G01X646176Y-5428742D01*
G01X643128Y-5425440D01*
G01X640080Y-5419344D01*
G01X640080Y-5409946D01*
G01X643128Y-5403850D01*
G01X649224Y-5397754D01*
G01X658622Y-5394452D01*
G01X670814Y-5391404D01*
G01X677164Y-5388356D01*
G01X680212Y-5382260D01*
G01X680212Y-5375910D01*
G01X677164Y-5369814D01*
G01X667766Y-5366766D01*
G01X655320Y-5366766D01*
G01X1211834Y-4325620D02*
G01X1146810Y-4325620D01*
G01X1211834Y-4325620D02*
G01X1211834Y-4353560D01*
G01X1208786Y-4362704D01*
G01X1205738Y-4365752D01*
G01X1199388Y-4369054D01*
G01X1193292Y-4369054D01*
G01X1187196Y-4365752D01*
G01X1184148Y-4362704D01*
G01X1180846Y-4353560D01*
G01X1180846Y-4325620D01*
G01X1180846Y-4347210D02*
G01X1146810Y-4369054D01*
G01X1211834Y-4442460D02*
G01X1146810Y-4411472D01*
G01X1211834Y-4399280D02*
G01X1211834Y-4442460D01*
G01X2395220Y-4452366D02*
G01X2395220Y-4498848D01*
G01X2398268Y-4507992D01*
G01X2404618Y-4514342D01*
G01X2413762Y-4517390D01*
G01X2420112Y-4517390D01*
G01X2429256Y-4514342D01*
G01X2435352Y-4507992D01*
G01X2438654Y-4498848D01*
G01X2438654Y-4452366D01*
G01X2471928Y-4467860D02*
G01X2471928Y-4464812D01*
G01X2474976Y-4458462D01*
G01X2478024Y-4455414D01*
G01X2484120Y-4452366D01*
G01X2496566Y-4452366D01*
G01X2502916Y-4455414D01*
G01X2505964Y-4458462D01*
G01X2509012Y-4464812D01*
G01X2509012Y-4470908D01*
G01X2505964Y-4477004D01*
G01X2499614Y-4486402D01*
G01X2468880Y-4517390D01*
G01X2512060Y-4517390D01*
G01X1186434Y-5494020D02*
G01X1139952Y-5494020D01*
G01X1130808Y-5497068D01*
G01X1124458Y-5503418D01*
G01X1121410Y-5512562D01*
G01X1121410Y-5518912D01*
G01X1124458Y-5528056D01*
G01X1130808Y-5534152D01*
G01X1139952Y-5537454D01*
G01X1186434Y-5537454D01*
G01X1186434Y-5573776D02*
G01X1186434Y-5607812D01*
G01X1161796Y-5589270D01*
G01X1161796Y-5598414D01*
G01X1158748Y-5604764D01*
G01X1155446Y-5607812D01*
G01X1146302Y-5610860D01*
G01X1139952Y-5610860D01*
G01X1130808Y-5607812D01*
G01X1124458Y-5601716D01*
G01X1121410Y-5592318D01*
G01X1121410Y-5582920D01*
G01X1124458Y-5573776D01*
G01X1127760Y-5570728D01*
G01X1133856Y-5567680D01*
G01X2827020Y-5569966D02*
G01X2827020Y-5616448D01*
G01X2830068Y-5625592D01*
G01X2836418Y-5631942D01*
G01X2845562Y-5634990D01*
G01X2851912Y-5634990D01*
G01X2861056Y-5631942D01*
G01X2867152Y-5625592D01*
G01X2870454Y-5616448D01*
G01X2870454Y-5569966D01*
G01X2937764Y-5579110D02*
G01X2934716Y-5573014D01*
G01X2925318Y-5569966D01*
G01X2919222Y-5569966D01*
G01X2909824Y-5573014D01*
G01X2903728Y-5582412D01*
G01X2900680Y-5597652D01*
G01X2900680Y-5613146D01*
G01X2903728Y-5625592D01*
G01X2909824Y-5631942D01*
G01X2919222Y-5634990D01*
G01X2922270Y-5634990D01*
G01X2931414Y-5631942D01*
G01X2937764Y-5625592D01*
G01X2940812Y-5616448D01*
G01X2940812Y-5613146D01*
G01X2937764Y-5604002D01*
G01X2931414Y-5597652D01*
G01X2922270Y-5594604D01*
G01X2919222Y-5594604D01*
G01X2909824Y-5597652D01*
G01X2903728Y-5604002D01*
G01X2900680Y-5613146D01*
G01X3716020Y-4706366D02*
G01X3716020Y-4752848D01*
G01X3719068Y-4761992D01*
G01X3725418Y-4768342D01*
G01X3734562Y-4771390D01*
G01X3740912Y-4771390D01*
G01X3750056Y-4768342D01*
G01X3756152Y-4761992D01*
G01X3759454Y-4752848D01*
G01X3759454Y-4706366D01*
G01X3832860Y-4706366D02*
G01X3801872Y-4771390D01*
G01X3789680Y-4706366D02*
G01X3832860Y-4706366D01*
G01X693420Y-286766D02*
G01X693420Y-333248D01*
G01X696468Y-342392D01*
G01X702818Y-348742D01*
G01X711962Y-351790D01*
G01X718312Y-351790D01*
G01X727456Y-348742D01*
G01X733552Y-342392D01*
G01X736854Y-333248D01*
G01X736854Y-286766D01*
G01X767080Y-299212D02*
G01X773176Y-295910D01*
G01X782320Y-286766D01*
G01X782320Y-351790D01*
G01X815594Y-302260D02*
G01X815594Y-299212D01*
G01X818642Y-292862D01*
G01X821690Y-289814D01*
G01X827786Y-286766D01*
G01X840232Y-286766D01*
G01X846582Y-289814D01*
G01X849630Y-292862D01*
G01X852678Y-299212D01*
G01X852678Y-305308D01*
G01X849630Y-311404D01*
G01X843280Y-320802D01*
G01X812546Y-351790D01*
G01X855726Y-351790D01*
G01X2778775Y-2813360D02*
G01X2778775Y-2859842D01*
G01X2781823Y-2868986D01*
G01X2788173Y-2875336D01*
G01X2797317Y-2878384D01*
G01X2803667Y-2878384D01*
G01X2812811Y-2875336D01*
G01X2818907Y-2868986D01*
G01X2822209Y-2859842D01*
G01X2822209Y-2813360D01*
G01X2852435Y-2825806D02*
G01X2858531Y-2822504D01*
G01X2867675Y-2813360D01*
G01X2867675Y-2878384D01*
G01X2928635Y-2813360D02*
G01X2897901Y-2856540D01*
G01X2944129Y-2856540D01*
G01X2928635Y-2813360D02*
G01X2928635Y-2878384D01*
G01X1668045Y-2808176D02*
G01X1668045Y-2854658D01*
G01X1671093Y-2863802D01*
G01X1677443Y-2870152D01*
G01X1686587Y-2873200D01*
G01X1692937Y-2873200D01*
G01X1702081Y-2870152D01*
G01X1708177Y-2863802D01*
G01X1711479Y-2854658D01*
G01X1711479Y-2808176D01*
G01X1741705Y-2820622D02*
G01X1747801Y-2817320D01*
G01X1756945Y-2808176D01*
G01X1756945Y-2873200D01*
G01X1824255Y-2808176D02*
G01X1793267Y-2808176D01*
G01X1790219Y-2835862D01*
G01X1793267Y-2832814D01*
G01X1802411Y-2829766D01*
G01X1811809Y-2829766D01*
G01X1821207Y-2832814D01*
G01X1827303Y-2839164D01*
G01X1830351Y-2848308D01*
G01X1830351Y-2854658D01*
G01X1827303Y-2863802D01*
G01X1821207Y-2870152D01*
G01X1811809Y-2873200D01*
G01X1802411Y-2873200D01*
G01X1793267Y-2870152D01*
G01X1790219Y-2866850D01*
G01X1787171Y-2860754D01*
G01X464566Y-3980180D02*
G01X511048Y-3980180D01*
G01X520192Y-3977132D01*
G01X526542Y-3970782D01*
G01X529590Y-3961638D01*
G01X529590Y-3955288D01*
G01X526542Y-3946144D01*
G01X520192Y-3940048D01*
G01X511048Y-3936746D01*
G01X464566Y-3936746D01*
G01X477012Y-3906520D02*
G01X473710Y-3900424D01*
G01X464566Y-3891280D01*
G01X529590Y-3891280D01*
G01X473710Y-3823970D02*
G01X467614Y-3827018D01*
G01X464566Y-3836416D01*
G01X464566Y-3842512D01*
G01X467614Y-3851910D01*
G01X477012Y-3858006D01*
G01X492252Y-3861054D01*
G01X507746Y-3861054D01*
G01X520192Y-3858006D01*
G01X526542Y-3851910D01*
G01X529590Y-3842512D01*
G01X529590Y-3839464D01*
G01X526542Y-3830320D01*
G01X520192Y-3823970D01*
G01X511048Y-3820922D01*
G01X507746Y-3820922D01*
G01X498602Y-3823970D01*
G01X492252Y-3830320D01*
G01X489204Y-3839464D01*
G01X489204Y-3842512D01*
G01X492252Y-3851910D01*
G01X498602Y-3858006D01*
G01X507746Y-3861054D01*
G01X2949702Y-3528060D02*
G01X2946654Y-3521710D01*
G01X2940304Y-3515614D01*
G01X2934208Y-3512566D01*
G01X2921762Y-3512566D01*
G01X2915666Y-3515614D01*
G01X2909316Y-3521710D01*
G01X2906268Y-3528060D01*
G01X2903220Y-3537204D01*
G01X2903220Y-3552698D01*
G01X2906268Y-3562096D01*
G01X2909316Y-3568192D01*
G01X2915666Y-3574542D01*
G01X2921762Y-3577590D01*
G01X2934208Y-3577590D01*
G01X2940304Y-3574542D01*
G01X2946654Y-3568192D01*
G01X2949702Y-3562096D01*
G01X2979928Y-3525012D02*
G01X2986024Y-3521710D01*
G01X2995168Y-3512566D01*
G01X2995168Y-3577590D01*
G01X3043936Y-3512566D02*
G01X3034538Y-3515614D01*
G01X3028442Y-3525012D01*
G01X3025394Y-3540252D01*
G01X3025394Y-3549650D01*
G01X3028442Y-3565144D01*
G01X3034538Y-3574542D01*
G01X3043936Y-3577590D01*
G01X3050032Y-3577590D01*
G01X3059430Y-3574542D01*
G01X3065526Y-3565144D01*
G01X3068574Y-3549650D01*
G01X3068574Y-3540252D01*
G01X3065526Y-3525012D01*
G01X3059430Y-3515614D01*
G01X3050032Y-3512566D01*
G01X3043936Y-3512566D01*
G01X1781302Y-3528060D02*
G01X1778254Y-3521710D01*
G01X1771904Y-3515614D01*
G01X1765808Y-3512566D01*
G01X1753362Y-3512566D01*
G01X1747266Y-3515614D01*
G01X1740916Y-3521710D01*
G01X1737868Y-3528060D01*
G01X1734820Y-3537204D01*
G01X1734820Y-3552698D01*
G01X1737868Y-3562096D01*
G01X1740916Y-3568192D01*
G01X1747266Y-3574542D01*
G01X1753362Y-3577590D01*
G01X1765808Y-3577590D01*
G01X1771904Y-3574542D01*
G01X1778254Y-3568192D01*
G01X1781302Y-3562096D01*
G01X1811528Y-3525012D02*
G01X1817624Y-3521710D01*
G01X1826768Y-3512566D01*
G01X1826768Y-3577590D01*
G01X1863090Y-3512566D02*
G01X1897126Y-3512566D01*
G01X1878584Y-3537204D01*
G01X1887728Y-3537204D01*
G01X1894078Y-3540252D01*
G01X1897126Y-3543554D01*
G01X1900174Y-3552698D01*
G01X1900174Y-3559048D01*
G01X1897126Y-3568192D01*
G01X1891030Y-3574542D01*
G01X1881632Y-3577590D01*
G01X1872234Y-3577590D01*
G01X1863090Y-3574542D01*
G01X1860042Y-3571240D01*
G01X1856994Y-3565144D01*
G01X3254502Y-4823460D02*
G01X3251454Y-4817110D01*
G01X3245104Y-4811014D01*
G01X3239008Y-4807966D01*
G01X3226562Y-4807966D01*
G01X3220466Y-4811014D01*
G01X3214116Y-4817110D01*
G01X3211068Y-4823460D01*
G01X3208020Y-4832604D01*
G01X3208020Y-4848098D01*
G01X3211068Y-4857496D01*
G01X3214116Y-4863592D01*
G01X3220466Y-4869942D01*
G01X3226562Y-4872990D01*
G01X3239008Y-4872990D01*
G01X3245104Y-4869942D01*
G01X3251454Y-4863592D01*
G01X3254502Y-4857496D01*
G01X3284728Y-4820412D02*
G01X3290824Y-4817110D01*
G01X3299968Y-4807966D01*
G01X3299968Y-4872990D01*
G01X3345434Y-4807966D02*
G01X3336290Y-4811014D01*
G01X3333242Y-4817110D01*
G01X3333242Y-4823460D01*
G01X3336290Y-4829556D01*
G01X3342386Y-4832604D01*
G01X3354832Y-4835652D01*
G01X3364230Y-4838954D01*
G01X3370326Y-4845050D01*
G01X3373374Y-4851146D01*
G01X3373374Y-4860544D01*
G01X3370326Y-4866640D01*
G01X3367278Y-4869942D01*
G01X3357880Y-4872990D01*
G01X3345434Y-4872990D01*
G01X3336290Y-4869942D01*
G01X3333242Y-4866640D01*
G01X3330194Y-4860544D01*
G01X3330194Y-4851146D01*
G01X3333242Y-4845050D01*
G01X3339338Y-4838954D01*
G01X3348736Y-4835652D01*
G01X3360928Y-4832604D01*
G01X3367278Y-4829556D01*
G01X3370326Y-4823460D01*
G01X3370326Y-4817110D01*
G01X3367278Y-4811014D01*
G01X3357880Y-4807966D01*
G01X3345434Y-4807966D01*
G01X3457702Y-5356860D02*
G01X3454654Y-5350510D01*
G01X3448304Y-5344414D01*
G01X3442208Y-5341366D01*
G01X3429762Y-5341366D01*
G01X3423666Y-5344414D01*
G01X3417316Y-5350510D01*
G01X3414268Y-5356860D01*
G01X3411220Y-5366004D01*
G01X3411220Y-5381498D01*
G01X3414268Y-5390896D01*
G01X3417316Y-5396992D01*
G01X3423666Y-5403342D01*
G01X3429762Y-5406390D01*
G01X3442208Y-5406390D01*
G01X3448304Y-5403342D01*
G01X3454654Y-5396992D01*
G01X3457702Y-5390896D01*
G01X3487928Y-5353812D02*
G01X3494024Y-5350510D01*
G01X3503168Y-5341366D01*
G01X3503168Y-5406390D01*
G01X3573526Y-5362956D02*
G01X3570478Y-5372354D01*
G01X3564128Y-5378450D01*
G01X3554984Y-5381498D01*
G01X3551936Y-5381498D01*
G01X3542538Y-5378450D01*
G01X3536442Y-5372354D01*
G01X3533394Y-5362956D01*
G01X3533394Y-5359908D01*
G01X3536442Y-5350510D01*
G01X3542538Y-5344414D01*
G01X3551936Y-5341366D01*
G01X3554984Y-5341366D01*
G01X3564128Y-5344414D01*
G01X3570478Y-5350510D01*
G01X3573526Y-5362956D01*
G01X3573526Y-5378450D01*
G01X3570478Y-5393944D01*
G01X3564128Y-5403342D01*
G01X3554984Y-5406390D01*
G01X3548634Y-5406390D01*
G01X3539490Y-5403342D01*
G01X3536442Y-5396992D01*
G01X83566Y-4462780D02*
G01X148590Y-4462780D01*
G01X83566Y-4419346D02*
G01X148590Y-4419346D01*
G01X114554Y-4462780D02*
G01X114554Y-4419346D01*
G01X99060Y-4386072D02*
G01X96012Y-4386072D01*
G01X89662Y-4383024D01*
G01X86614Y-4379976D01*
G01X83566Y-4373880D01*
G01X83566Y-4361434D01*
G01X86614Y-4355084D01*
G01X89662Y-4352036D01*
G01X96012Y-4348988D01*
G01X102108Y-4348988D01*
G01X108204Y-4352036D01*
G01X117602Y-4358386D01*
G01X148590Y-4389120D01*
G01X148590Y-4345940D01*
G01X4742434Y-2204723D02*
G01X4677410Y-2204723D01*
G01X4742434Y-2248157D02*
G01X4677410Y-2248157D01*
G01X4711446Y-2204723D02*
G01X4711446Y-2248157D01*
G01X4742434Y-2284479D02*
G01X4742434Y-2318515D01*
G01X4717796Y-2299973D01*
G01X4717796Y-2309117D01*
G01X4714748Y-2315467D01*
G01X4711446Y-2318515D01*
G01X4702302Y-2321563D01*
G01X4695952Y-2321563D01*
G01X4686808Y-2318515D01*
G01X4680458Y-2312419D01*
G01X4677410Y-2303021D01*
G01X4677410Y-2293623D01*
G01X4680458Y-2284479D01*
G01X4683760Y-2281431D01*
G01X4689856Y-2278383D01*
G01X4740432Y-6243323D02*
G01X4675408Y-6243323D01*
G01X4740432Y-6286757D02*
G01X4675408Y-6286757D01*
G01X4709444Y-6243323D02*
G01X4709444Y-6286757D01*
G01X4718842Y-6357115D02*
G01X4709444Y-6354067D01*
G01X4703348Y-6347717D01*
G01X4700300Y-6338573D01*
G01X4700300Y-6335525D01*
G01X4703348Y-6326127D01*
G01X4709444Y-6320031D01*
G01X4718842Y-6316983D01*
G01X4721890Y-6316983D01*
G01X4731288Y-6320031D01*
G01X4737384Y-6326127D01*
G01X4740432Y-6335525D01*
G01X4740432Y-6338573D01*
G01X4737384Y-6347717D01*
G01X4731288Y-6354067D01*
G01X4718842Y-6357115D01*
G01X4703348Y-6357115D01*
G01X4687854Y-6354067D01*
G01X4678456Y-6347717D01*
G01X4675408Y-6338573D01*
G01X4675408Y-6332223D01*
G01X4678456Y-6323079D01*
G01X4684806Y-6320031D01*
G01X4320540Y-6886702D02*
G01X4326890Y-6883654D01*
G01X4332986Y-6877304D01*
G01X4336034Y-6871208D01*
G01X4336034Y-6858762D01*
G01X4332986Y-6852666D01*
G01X4326890Y-6846316D01*
G01X4320540Y-6843268D01*
G01X4311396Y-6840220D01*
G01X4295902Y-6840220D01*
G01X4286504Y-6843268D01*
G01X4280408Y-6846316D01*
G01X4274058Y-6852666D01*
G01X4271010Y-6858762D01*
G01X4271010Y-6871208D01*
G01X4274058Y-6877304D01*
G01X4280408Y-6883654D01*
G01X4286504Y-6886702D01*
G01X4336034Y-6923024D02*
G01X4336034Y-6957060D01*
G01X4311396Y-6938518D01*
G01X4311396Y-6947662D01*
G01X4308348Y-6954012D01*
G01X4305046Y-6957060D01*
G01X4295902Y-6960108D01*
G01X4289552Y-6960108D01*
G01X4280408Y-6957060D01*
G01X4274058Y-6950964D01*
G01X4271010Y-6941566D01*
G01X4271010Y-6932168D01*
G01X4274058Y-6923024D01*
G01X4277360Y-6919976D01*
G01X4283456Y-6916928D01*
G01X4336034Y-7033514D02*
G01X4271010Y-7002526D01*
G01X4336034Y-6990334D02*
G01X4336034Y-7033514D01*
G01X4320540Y-8182102D02*
G01X4326890Y-8179054D01*
G01X4332986Y-8172704D01*
G01X4336034Y-8166608D01*
G01X4336034Y-8154162D01*
G01X4332986Y-8148066D01*
G01X4326890Y-8141716D01*
G01X4320540Y-8138668D01*
G01X4311396Y-8135620D01*
G01X4295902Y-8135620D01*
G01X4286504Y-8138668D01*
G01X4280408Y-8141716D01*
G01X4274058Y-8148066D01*
G01X4271010Y-8154162D01*
G01X4271010Y-8166608D01*
G01X4274058Y-8172704D01*
G01X4280408Y-8179054D01*
G01X4286504Y-8182102D01*
G01X4336034Y-8218424D02*
G01X4336034Y-8252460D01*
G01X4311396Y-8233918D01*
G01X4311396Y-8243062D01*
G01X4308348Y-8249412D01*
G01X4305046Y-8252460D01*
G01X4295902Y-8255508D01*
G01X4289552Y-8255508D01*
G01X4280408Y-8252460D01*
G01X4274058Y-8246364D01*
G01X4271010Y-8236966D01*
G01X4271010Y-8227568D01*
G01X4274058Y-8218424D01*
G01X4277360Y-8215376D01*
G01X4283456Y-8212328D01*
G01X4314444Y-8325866D02*
G01X4305046Y-8322818D01*
G01X4298950Y-8316468D01*
G01X4295902Y-8307324D01*
G01X4295902Y-8304276D01*
G01X4298950Y-8294878D01*
G01X4305046Y-8288782D01*
G01X4314444Y-8285734D01*
G01X4317492Y-8285734D01*
G01X4326890Y-8288782D01*
G01X4332986Y-8294878D01*
G01X4336034Y-8304276D01*
G01X4336034Y-8307324D01*
G01X4332986Y-8316468D01*
G01X4326890Y-8322818D01*
G01X4314444Y-8325866D01*
G01X4298950Y-8325866D01*
G01X4283456Y-8322818D01*
G01X4274058Y-8316468D01*
G01X4271010Y-8307324D01*
G01X4271010Y-8300974D01*
G01X4274058Y-8291830D01*
G01X4280408Y-8288782D01*
G01X2771902Y-5814060D02*
G01X2768854Y-5807710D01*
G01X2762504Y-5801614D01*
G01X2756408Y-5798566D01*
G01X2743962Y-5798566D01*
G01X2737866Y-5801614D01*
G01X2731516Y-5807710D01*
G01X2728468Y-5814060D01*
G01X2725420Y-5823204D01*
G01X2725420Y-5838698D01*
G01X2728468Y-5848096D01*
G01X2731516Y-5854192D01*
G01X2737866Y-5860542D01*
G01X2743962Y-5863590D01*
G01X2756408Y-5863590D01*
G01X2762504Y-5860542D01*
G01X2768854Y-5854192D01*
G01X2771902Y-5848096D01*
G01X2805176Y-5814060D02*
G01X2805176Y-5811012D01*
G01X2808224Y-5804662D01*
G01X2811272Y-5801614D01*
G01X2817368Y-5798566D01*
G01X2829814Y-5798566D01*
G01X2836164Y-5801614D01*
G01X2839212Y-5804662D01*
G01X2842260Y-5811012D01*
G01X2842260Y-5817108D01*
G01X2839212Y-5823204D01*
G01X2832862Y-5832602D01*
G01X2802128Y-5863590D01*
G01X2845308Y-5863590D01*
G01X2894076Y-5798566D02*
G01X2884678Y-5801614D01*
G01X2878582Y-5811012D01*
G01X2875534Y-5826252D01*
G01X2875534Y-5835650D01*
G01X2878582Y-5851144D01*
G01X2884678Y-5860542D01*
G01X2894076Y-5863590D01*
G01X2900172Y-5863590D01*
G01X2909570Y-5860542D01*
G01X2915666Y-5851144D01*
G01X2918714Y-5835650D01*
G01X2918714Y-5826252D01*
G01X2915666Y-5811012D01*
G01X2909570Y-5801614D01*
G01X2900172Y-5798566D01*
G01X2894076Y-5798566D01*
G04 Text End*

G04 PolygonModel Start*
G01X4126040Y-3933680D02*
G01X4126040Y-4074681D01*
G01X4306761Y-4074681D02*
G01X4306761Y-3933680D01*
G01X4291521Y-3918440D02*
G01X4141280Y-3918440D01*
G01X4126040Y-4295920D02*
G01X4126040Y-4154919D01*
G01X4306761Y-4154919D02*
G01X4306761Y-4295920D01*
G01X4291521Y-4311160D02*
G01X4141280Y-4311160D01*
G01X4306761Y-3933680D02*
G03X4291521Y-3918440I-15240J0D01*
G01X4141280Y-3918440D02*
G03X4126040Y-3933680I0J-15240D01*
G01X4306761Y-4295920D02*
G02X4291521Y-4311160I-15240J0D01*
G01X4141280Y-4311160D02*
G02X4126040Y-4295920I0J15240D01*
G01X3135440Y-4340080D02*
G01X3135440Y-4481081D01*
G01X3316161Y-4481081D02*
G01X3316161Y-4340080D01*
G01X3300921Y-4324840D02*
G01X3150680Y-4324840D01*
G01X3135440Y-4702320D02*
G01X3135440Y-4561319D01*
G01X3316161Y-4561319D02*
G01X3316161Y-4702320D01*
G01X3300921Y-4717560D02*
G01X3150680Y-4717560D01*
G01X3316161Y-4340080D02*
G03X3300921Y-4324840I-15240J0D01*
G01X3150680Y-4324840D02*
G03X3135440Y-4340080I0J-15240D01*
G01X3316161Y-4702320D02*
G02X3300921Y-4717560I-15240J0D01*
G01X3150680Y-4717560D02*
G02X3135440Y-4702320I0J15240D01*
G01X2500440Y-4848080D02*
G01X2500440Y-4989081D01*
G01X2681161Y-4989081D02*
G01X2681161Y-4848080D01*
G01X2665921Y-4832840D02*
G01X2515680Y-4832840D01*
G01X2500440Y-5210320D02*
G01X2500440Y-5069319D01*
G01X2681161Y-5069319D02*
G01X2681161Y-5210320D01*
G01X2665921Y-5225560D02*
G01X2515680Y-5225560D01*
G01X2681161Y-4848080D02*
G03X2665921Y-4832840I-15240J0D01*
G01X2515680Y-4832840D02*
G03X2500440Y-4848080I0J-15240D01*
G01X2681161Y-5210320D02*
G02X2665921Y-5225560I-15240J0D01*
G01X2515680Y-5225560D02*
G02X2500440Y-5210320I0J15240D01*
G01X3189161Y-5286520D02*
G01X3189161Y-5145519D01*
G01X3008440Y-5145519D02*
G01X3008440Y-5286520D01*
G01X3023680Y-5301760D02*
G01X3173921Y-5301760D01*
G01X3189161Y-4924280D02*
G01X3189161Y-5065281D01*
G01X3008440Y-5065281D02*
G01X3008440Y-4924280D01*
G01X3023680Y-4909040D02*
G01X3173921Y-4909040D01*
G01X3008440Y-5286520D02*
G03X3023680Y-5301760I15240J0D01*
G01X3173921Y-5301760D02*
G03X3189161Y-5286520I0J15240D01*
G01X3008440Y-4924280D02*
G02X3023680Y-4909040I15240J0D01*
G01X3173921Y-4909040D02*
G02X3189161Y-4924280I0J-15240D01*
G01X2960561Y-4168920D02*
G01X2960561Y-4027919D01*
G01X2779840Y-4027919D02*
G01X2779840Y-4168920D01*
G01X2795080Y-4184160D02*
G01X2945321Y-4184160D01*
G01X2960561Y-3806680D02*
G01X2960561Y-3947681D01*
G01X2779840Y-3947681D02*
G01X2779840Y-3806680D01*
G01X2795080Y-3791440D02*
G01X2945321Y-3791440D01*
G01X2779840Y-4168920D02*
G03X2795080Y-4184160I15240J0D01*
G01X2945321Y-4184160D02*
G03X2960561Y-4168920I0J15240D01*
G01X2779840Y-3806680D02*
G02X2795080Y-3791440I15240J0D01*
G01X2945321Y-3791440D02*
G02X2960561Y-3806680I0J-15240D01*
G01X2886220Y-125539D02*
G01X2745219Y-125539D01*
G01X2745219Y-306260D02*
G01X2886220Y-306260D01*
G01X2901460Y-291020D02*
G01X2901460Y-140779D01*
G01X2523980Y-125539D02*
G01X2664981Y-125539D01*
G01X2664981Y-306260D02*
G01X2523980Y-306260D01*
G01X2508740Y-291020D02*
G01X2508740Y-140779D01*
G01X2886220Y-306260D02*
G03X2901460Y-291020I0J15240D01*
G01X2901460Y-140779D02*
G03X2886220Y-125539I-15240J0D01*
G01X2523980Y-306260D02*
G02X2508740Y-291020I0J15240D01*
G01X2508740Y-140779D02*
G02X2523980Y-125539I15240J0D01*
G01X2473180Y-2160460D02*
G01X2614181Y-2160460D01*
G01X2614181Y-1979739D02*
G01X2473180Y-1979739D01*
G01X2457940Y-1994979D02*
G01X2457940Y-2145220D01*
G01X2835420Y-2160460D02*
G01X2694419Y-2160460D01*
G01X2694419Y-1979739D02*
G01X2835420Y-1979739D01*
G01X2850660Y-1994979D02*
G01X2850660Y-2145220D01*
G01X2473180Y-1979739D02*
G03X2457940Y-1994979I0J-15240D01*
G01X2457940Y-2145220D02*
G03X2473180Y-2160460I15240J0D01*
G01X2835420Y-1979739D02*
G02X2850660Y-1994979I0J-15240D01*
G01X2850660Y-2145220D02*
G02X2835420Y-2160460I-15240J0D01*
G01X2166338Y-649973D02*
G01X2164334Y-386334D01*
G01X2164334Y-386334D02*
G01X2700020Y-386334D01*
G01X2700020Y-386334D02*
G01X2839466Y-525780D01*
G01X2839466Y-525780D02*
G01X2838130Y-655320D01*
G01X2164951Y-794669D02*
G01X2164283Y-1061517D01*
G01X2164283Y-1061517D02*
G01X2699903Y-1061517D01*
G01X2699903Y-1061517D02*
G01X2839517Y-921903D01*
G01X2839517Y-921903D02*
G01X2839517Y-792480D01*
G36*
G01X2782400Y-638099D02*
G01X2782400Y-506100D01*
G01X2762601Y-506100D01*
G01X2762601Y-638099D01*
G01X2782400Y-638099D01*
G37*
G36*
G01X2812100Y-582000D02*
G01X2812100Y-562201D01*
G01X2732900Y-562201D01*
G01X2732900Y-582000D01*
G01X2812100Y-582000D01*
G37*
G36*
G01X2191700Y-582000D02*
G01X2191700Y-562201D01*
G01X2270900Y-562201D01*
G01X2270900Y-582000D01*
G01X2191700Y-582000D01*
G37*
G01X2837462Y-1661427D02*
G01X2839466Y-1925066D01*
G01X2839466Y-1925066D02*
G01X2303780Y-1925066D01*
G01X2303780Y-1925066D02*
G01X2164334Y-1785620D01*
G01X2164334Y-1785620D02*
G01X2165670Y-1656080D01*
G01X2838849Y-1516731D02*
G01X2839517Y-1249883D01*
G01X2839517Y-1249883D02*
G01X2303897Y-1249883D01*
G01X2303897Y-1249883D02*
G01X2164283Y-1389497D01*
G01X2164283Y-1389497D02*
G01X2164283Y-1518920D01*
G36*
G01X2221400Y-1673301D02*
G01X2221400Y-1805300D01*
G01X2241199Y-1805300D01*
G01X2241199Y-1673301D01*
G01X2221400Y-1673301D01*
G37*
G36*
G01X2191700Y-1729400D02*
G01X2191700Y-1749199D01*
G01X2270900Y-1749199D01*
G01X2270900Y-1729400D01*
G01X2191700Y-1729400D01*
G37*
G36*
G01X2812100Y-1729400D02*
G01X2812100Y-1749199D01*
G01X2732900Y-1749199D01*
G01X2732900Y-1729400D01*
G01X2812100Y-1729400D01*
G37*
G01X976440Y-377680D02*
G01X976440Y-518681D01*
G01X1157161Y-518681D02*
G01X1157161Y-377680D01*
G01X1141921Y-362440D02*
G01X991680Y-362440D01*
G01X976440Y-739920D02*
G01X976440Y-598919D01*
G01X1157161Y-598919D02*
G01X1157161Y-739920D01*
G01X1141921Y-755160D02*
G01X991680Y-755160D01*
G01X1157161Y-377680D02*
G03X1141921Y-362440I-15240J0D01*
G01X991680Y-362440D02*
G03X976440Y-377680I0J-15240D01*
G01X1157161Y-739920D02*
G02X1141921Y-755160I-15240J0D01*
G01X991680Y-755160D02*
G02X976440Y-739920I0J15240D01*
G01X606280Y-953960D02*
G01X747281Y-953960D01*
G01X747281Y-773239D02*
G01X606280Y-773239D01*
G01X591040Y-788479D02*
G01X591040Y-938720D01*
G01X968520Y-953960D02*
G01X827519Y-953960D01*
G01X827519Y-773239D02*
G01X968520Y-773239D01*
G01X983760Y-788479D02*
G01X983760Y-938720D01*
G01X606280Y-773239D02*
G03X591040Y-788479I0J-15240D01*
G01X591040Y-938720D02*
G03X606280Y-953960I15240J0D01*
G01X968520Y-773239D02*
G02X983760Y-788479I0J-15240D01*
G01X983760Y-938720D02*
G02X968520Y-953960I-15240J0D01*
G01X149606Y-331660D02*
G01X290606Y-331660D01*
G01X290606Y-150939D02*
G01X149606Y-150939D01*
G01X134366Y-166179D02*
G01X134366Y-316420D01*
G01X511846Y-331660D02*
G01X370845Y-331660D01*
G01X370845Y-150939D02*
G01X511846Y-150939D01*
G01X527086Y-166179D02*
G01X527086Y-316420D01*
G01X149606Y-150939D02*
G03X134366Y-166179I0J-15240D01*
G01X134366Y-316420D02*
G03X149606Y-331660I15240J0D01*
G01X511846Y-150939D02*
G02X527086Y-166179I0J-15240D01*
G01X527086Y-316420D02*
G02X511846Y-331660I-15240J0D01*
G01X1819021Y-454840D02*
G01X1533779Y-454840D01*
G01X1518539Y-470080D02*
G01X1518539Y-633580D01*
G01X1834261Y-633580D02*
G01X1834261Y-470080D01*
G01X1518539Y-952320D02*
G01X1518539Y-788820D01*
G01X1834261Y-788820D02*
G01X1834261Y-952320D01*
G01X1819021Y-967560D02*
G01X1533779Y-967560D01*
G01X1834261Y-470080D02*
G03X1819021Y-454840I-15240J0D01*
G01X1533779Y-454840D02*
G03X1518539Y-470080I0J-15240D01*
G01X1834261Y-952320D02*
G02X1819021Y-967560I-15240J0D01*
G01X1533779Y-967560D02*
G02X1518539Y-952320I0J15240D01*
G01X2681161Y-2898920D02*
G01X2681161Y-2757919D01*
G01X2500440Y-2757919D02*
G01X2500440Y-2898920D01*
G01X2515680Y-2914160D02*
G01X2665921Y-2914160D01*
G01X2681161Y-2536680D02*
G01X2681161Y-2677681D01*
G01X2500440Y-2677681D02*
G01X2500440Y-2536680D01*
G01X2515680Y-2521440D02*
G01X2665921Y-2521440D01*
G01X2500440Y-2898920D02*
G03X2515680Y-2914160I15240J0D01*
G01X2665921Y-2914160D02*
G03X2681161Y-2898920I0J15240D01*
G01X2500440Y-2536680D02*
G02X2515680Y-2521440I15240J0D01*
G01X2665921Y-2521440D02*
G02X2681161Y-2536680I0J-15240D01*
G01X3070080Y-3138360D02*
G01X3211081Y-3138360D01*
G01X3211081Y-2957639D02*
G01X3070080Y-2957639D01*
G01X3054840Y-2972879D02*
G01X3054840Y-3123120D01*
G01X3432320Y-3138360D02*
G01X3291319Y-3138360D01*
G01X3291319Y-2957639D02*
G01X3432320Y-2957639D01*
G01X3447560Y-2972879D02*
G01X3447560Y-3123120D01*
G01X3070080Y-2957639D02*
G03X3054840Y-2972879I0J-15240D01*
G01X3054840Y-3123120D02*
G03X3070080Y-3138360I15240J0D01*
G01X3432320Y-2957639D02*
G02X3447560Y-2972879I0J-15240D01*
G01X3447560Y-3123120D02*
G02X3432320Y-3138360I-15240J0D01*
G01X1511438Y-2892927D02*
G01X1511438Y-2751927D01*
G01X1330717Y-2751927D02*
G01X1330717Y-2892927D01*
G01X1345957Y-2908167D02*
G01X1496198Y-2908167D01*
G01X1511438Y-2530688D02*
G01X1511438Y-2671688D01*
G01X1330717Y-2671688D02*
G01X1330717Y-2530688D01*
G01X1345957Y-2515448D02*
G01X1496198Y-2515448D01*
G01X1330717Y-2892927D02*
G03X1345957Y-2908167I15240J0D01*
G01X1496198Y-2908167D02*
G03X1511438Y-2892927I0J15240D01*
G01X1330717Y-2530688D02*
G02X1345957Y-2515448I15240J0D01*
G01X1496198Y-2515448D02*
G02X1511438Y-2530688I0J-15240D01*
G01X1951158Y-3132368D02*
G01X2092158Y-3132368D01*
G01X2092158Y-2951647D02*
G01X1951158Y-2951647D01*
G01X1935918Y-2966887D02*
G01X1935918Y-3117128D01*
G01X2313397Y-3132368D02*
G01X2172397Y-3132368D01*
G01X2172397Y-2951647D02*
G01X2313397Y-2951647D01*
G01X2328637Y-2966887D02*
G01X2328637Y-3117128D01*
G01X1951158Y-2951647D02*
G03X1935918Y-2966887I0J-15240D01*
G01X1935918Y-3117128D02*
G03X1951158Y-3132368I15240J0D01*
G01X2313397Y-2951647D02*
G02X2328637Y-2966887I0J-15240D01*
G01X2328637Y-3117128D02*
G02X2313397Y-3132368I-15240J0D01*
G01X2985961Y-5286520D02*
G01X2985961Y-5145519D01*
G01X2805240Y-5145519D02*
G01X2805240Y-5286520D01*
G01X2820480Y-5301760D02*
G01X2970721Y-5301760D01*
G01X2985961Y-4924280D02*
G01X2985961Y-5065281D01*
G01X2805240Y-5065281D02*
G01X2805240Y-4924280D01*
G01X2820480Y-4909040D02*
G01X2970721Y-4909040D01*
G01X2805240Y-5286520D02*
G03X2820480Y-5301760I15240J0D01*
G01X2970721Y-5301760D02*
G03X2985961Y-5286520I0J15240D01*
G01X2805240Y-4924280D02*
G02X2820480Y-4909040I15240J0D01*
G01X2970721Y-4909040D02*
G02X2985961Y-4924280I0J-15240D01*
G01X493840Y-3171680D02*
G01X493840Y-3312681D01*
G01X674561Y-3312681D02*
G01X674561Y-3171680D01*
G01X659321Y-3156440D02*
G01X509080Y-3156440D01*
G01X493840Y-3533920D02*
G01X493840Y-3392919D01*
G01X674561Y-3392919D02*
G01X674561Y-3533920D01*
G01X659321Y-3549160D02*
G01X509080Y-3549160D01*
G01X674561Y-3171680D02*
G03X659321Y-3156440I-15240J0D01*
G01X509080Y-3156440D02*
G03X493840Y-3171680I0J-15240D01*
G01X674561Y-3533920D02*
G02X659321Y-3549160I-15240J0D01*
G01X509080Y-3549160D02*
G02X493840Y-3533920I0J15240D01*
G01X1451120Y-4075239D02*
G01X1310119Y-4075239D01*
G01X1310119Y-4255960D02*
G01X1451120Y-4255960D01*
G01X1466360Y-4240720D02*
G01X1466360Y-4090479D01*
G01X1088880Y-4075239D02*
G01X1229881Y-4075239D01*
G01X1229881Y-4255960D02*
G01X1088880Y-4255960D01*
G01X1073640Y-4240720D02*
G01X1073640Y-4090479D01*
G01X1451120Y-4255960D02*
G03X1466360Y-4240720I0J15240D01*
G01X1466360Y-4090479D02*
G03X1451120Y-4075239I-15240J0D01*
G01X1088880Y-4255960D02*
G02X1073640Y-4240720I0J15240D01*
G01X1073640Y-4090479D02*
G02X1088880Y-4075239I15240J0D01*
G01X504680Y-4738560D02*
G01X645681Y-4738560D01*
G01X645681Y-4557839D02*
G01X504680Y-4557839D01*
G01X489440Y-4573079D02*
G01X489440Y-4723320D01*
G01X866920Y-4738560D02*
G01X725919Y-4738560D01*
G01X725919Y-4557839D02*
G01X866920Y-4557839D01*
G01X882160Y-4573079D02*
G01X882160Y-4723320D01*
G01X504680Y-4557839D02*
G03X489440Y-4573079I0J-15240D01*
G01X489440Y-4723320D02*
G03X504680Y-4738560I15240J0D01*
G01X866920Y-4557839D02*
G02X882160Y-4573079I0J-15240D01*
G01X882160Y-4723320D02*
G02X866920Y-4738560I-15240J0D01*
G01X1258761Y-3737120D02*
G01X1258761Y-3596119D01*
G01X1078040Y-3596119D02*
G01X1078040Y-3737120D01*
G01X1093280Y-3752360D02*
G01X1243521Y-3752360D01*
G01X1258761Y-3374880D02*
G01X1258761Y-3515881D01*
G01X1078040Y-3515881D02*
G01X1078040Y-3374880D01*
G01X1093280Y-3359640D02*
G01X1243521Y-3359640D01*
G01X1078040Y-3737120D02*
G03X1093280Y-3752360I15240J0D01*
G01X1243521Y-3752360D02*
G03X1258761Y-3737120I0J15240D01*
G01X1078040Y-3374880D02*
G02X1093280Y-3359640I15240J0D01*
G01X1243521Y-3359640D02*
G02X1258761Y-3374880I0J-15240D01*
G01X2325561Y-5311920D02*
G01X2325561Y-5170919D01*
G01X2144840Y-5170919D02*
G01X2144840Y-5311920D01*
G01X2160080Y-5327160D02*
G01X2310321Y-5327160D01*
G01X2325561Y-4949680D02*
G01X2325561Y-5090681D01*
G01X2144840Y-5090681D02*
G01X2144840Y-4949680D01*
G01X2160080Y-4934440D02*
G01X2310321Y-4934440D01*
G01X2144840Y-5311920D02*
G03X2160080Y-5327160I15240J0D01*
G01X2310321Y-5327160D02*
G03X2325561Y-5311920I0J15240D01*
G01X2144840Y-4949680D02*
G02X2160080Y-4934440I15240J0D01*
G01X2310321Y-4934440D02*
G02X2325561Y-4949680I0J-15240D01*
G01X1451120Y-4735639D02*
G01X1310119Y-4735639D01*
G01X1310119Y-4916360D02*
G01X1451120Y-4916360D01*
G01X1466360Y-4901120D02*
G01X1466360Y-4750879D01*
G01X1088880Y-4735639D02*
G01X1229881Y-4735639D01*
G01X1229881Y-4916360D02*
G01X1088880Y-4916360D01*
G01X1073640Y-4901120D02*
G01X1073640Y-4750879D01*
G01X1451120Y-4916360D02*
G03X1466360Y-4901120I0J15240D01*
G01X1466360Y-4750879D02*
G03X1451120Y-4735639I-15240J0D01*
G01X1088880Y-4916360D02*
G02X1073640Y-4901120I0J15240D01*
G01X1073640Y-4750879D02*
G02X1088880Y-4735639I15240J0D01*
G01X2122361Y-5311920D02*
G01X2122361Y-5170919D01*
G01X1941640Y-5170919D02*
G01X1941640Y-5311920D01*
G01X1956880Y-5327160D02*
G01X2107121Y-5327160D01*
G01X2122361Y-4949680D02*
G01X2122361Y-5090681D01*
G01X1941640Y-5090681D02*
G01X1941640Y-4949680D01*
G01X1956880Y-4934440D02*
G01X2107121Y-4934440D01*
G01X1941640Y-5311920D02*
G03X1956880Y-5327160I15240J0D01*
G01X2107121Y-5327160D02*
G03X2122361Y-5311920I0J15240D01*
G01X1941640Y-4949680D02*
G02X1956880Y-4934440I15240J0D01*
G01X2107121Y-4934440D02*
G02X2122361Y-4949680I0J-15240D01*
G01X1451120Y-4938839D02*
G01X1310119Y-4938839D01*
G01X1310119Y-5119560D02*
G01X1451120Y-5119560D01*
G01X1466360Y-5104320D02*
G01X1466360Y-4954079D01*
G01X1088880Y-4938839D02*
G01X1229881Y-4938839D01*
G01X1229881Y-5119560D02*
G01X1088880Y-5119560D01*
G01X1073640Y-5104320D02*
G01X1073640Y-4954079D01*
G01X1451120Y-5119560D02*
G03X1466360Y-5104320I0J15240D01*
G01X1466360Y-4954079D02*
G03X1451120Y-4938839I-15240J0D01*
G01X1088880Y-5119560D02*
G02X1073640Y-5104320I0J15240D01*
G01X1073640Y-4954079D02*
G02X1088880Y-4938839I15240J0D01*
G01X1882920Y-4913439D02*
G01X1741919Y-4913439D01*
G01X1741919Y-5094160D02*
G01X1882920Y-5094160D01*
G01X1898160Y-5078920D02*
G01X1898160Y-4928679D01*
G01X1520680Y-4913439D02*
G01X1661681Y-4913439D01*
G01X1661681Y-5094160D02*
G01X1520680Y-5094160D01*
G01X1505440Y-5078920D02*
G01X1505440Y-4928679D01*
G01X1882920Y-5094160D02*
G03X1898160Y-5078920I0J15240D01*
G01X1898160Y-4928679D02*
G03X1882920Y-4913439I-15240J0D01*
G01X1520680Y-5094160D02*
G02X1505440Y-5078920I0J15240D01*
G01X1505440Y-4928679D02*
G02X1520680Y-4913439I15240J0D01*
G01X1952480Y-5551360D02*
G01X2093481Y-5551360D01*
G01X2093481Y-5370639D02*
G01X1952480Y-5370639D01*
G01X1937240Y-5385879D02*
G01X1937240Y-5536120D01*
G01X2314720Y-5551360D02*
G01X2173719Y-5551360D01*
G01X2173719Y-5370639D02*
G01X2314720Y-5370639D01*
G01X2329960Y-5385879D02*
G01X2329960Y-5536120D01*
G01X1952480Y-5370639D02*
G03X1937240Y-5385879I0J-15240D01*
G01X1937240Y-5536120D02*
G03X1952480Y-5551360I15240J0D01*
G01X2314720Y-5370639D02*
G02X2329960Y-5385879I0J-15240D01*
G01X2329960Y-5536120D02*
G02X2314720Y-5551360I-15240J0D01*
G01X1952480Y-5779960D02*
G01X2093481Y-5779960D01*
G01X2093481Y-5599239D02*
G01X1952480Y-5599239D01*
G01X1937240Y-5614479D02*
G01X1937240Y-5764720D01*
G01X2314720Y-5779960D02*
G01X2173719Y-5779960D01*
G01X2173719Y-5599239D02*
G01X2314720Y-5599239D01*
G01X2329960Y-5614479D02*
G01X2329960Y-5764720D01*
G01X1952480Y-5599239D02*
G03X1937240Y-5614479I0J-15240D01*
G01X1937240Y-5764720D02*
G03X1952480Y-5779960I15240J0D01*
G01X2314720Y-5599239D02*
G02X2329960Y-5614479I0J-15240D01*
G01X2329960Y-5764720D02*
G02X2314720Y-5779960I-15240J0D01*
G01X2187720Y-5929439D02*
G01X2046719Y-5929439D01*
G01X2046719Y-6110160D02*
G01X2187720Y-6110160D01*
G01X2202960Y-6094920D02*
G01X2202960Y-5944679D01*
G01X1825480Y-5929439D02*
G01X1966481Y-5929439D01*
G01X1966481Y-6110160D02*
G01X1825480Y-6110160D01*
G01X1810240Y-6094920D02*
G01X1810240Y-5944679D01*
G01X2187720Y-6110160D02*
G03X2202960Y-6094920I0J15240D01*
G01X2202960Y-5944679D02*
G03X2187720Y-5929439I-15240J0D01*
G01X1825480Y-6110160D02*
G02X1810240Y-6094920I0J15240D01*
G01X1810240Y-5944679D02*
G02X1825480Y-5929439I15240J0D01*
G01X3220418Y-126578D02*
G01X3220418Y-406822D01*
G01X3067477Y-126578D02*
G01X3612723Y-126578D01*
G01X3067477Y-406822D02*
G01X3612723Y-406822D01*
G01X3612723Y-126578D02*
G01X3612723Y-166731D01*
G01X3612723Y-406822D02*
G01X3612723Y-366669D01*
G36*
G01X3075099Y-118961D02*
G01X3075099Y-171811D01*
G01X3029379Y-171811D01*
G01X3029379Y-118961D01*
G01X3075099Y-118961D01*
G37*
G36*
G01X3075099Y-414439D02*
G01X3075099Y-361589D01*
G01X3029379Y-361589D01*
G01X3029379Y-414439D01*
G01X3075099Y-414439D01*
G37*
G01X3485182Y-2184822D02*
G01X3485182Y-1904578D01*
G01X3638123Y-2184822D02*
G01X3092877Y-2184822D01*
G01X3638123Y-1904578D02*
G01X3092877Y-1904578D01*
G01X3092877Y-2184822D02*
G01X3092877Y-2144669D01*
G01X3092877Y-1904578D02*
G01X3092877Y-1944731D01*
G36*
G01X3630501Y-2192439D02*
G01X3630501Y-2139589D01*
G01X3676221Y-2139589D01*
G01X3676221Y-2192439D01*
G01X3630501Y-2192439D01*
G37*
G36*
G01X3630501Y-1896961D02*
G01X3630501Y-1949811D01*
G01X3676221Y-1949811D01*
G01X3676221Y-1896961D01*
G01X3630501Y-1896961D01*
G37*
G54D10*
G01X3032600Y-546100D02*
G01X3032600Y-698500D01*
G01X3444400Y-546100D02*
G01X3444400Y-698500D01*
G54D12*
G01X3416300Y-520700D02*
G01X3289300Y-520700D01*
G01X3060700Y-520700D02*
G01X3184040Y-520700D01*
G01X3187700Y-723900D02*
G01X3060700Y-723900D01*
G01X3289300Y-723900D02*
G01X3416300Y-723900D01*
G54D10*
G01X3238500Y-622300D02*
G02X3238500Y-660400I0J-19050D01*
G01X3238500Y-622300D02*
G02X3238500Y-584200I0J19050D01*
G01X3058000Y-1638300D02*
G01X3058000Y-1790700D01*
G01X3469800Y-1638300D02*
G01X3469800Y-1790700D01*
G54D12*
G01X3441700Y-1612900D02*
G01X3314700Y-1612900D01*
G01X3086100Y-1612900D02*
G01X3209440Y-1612900D01*
G01X3213100Y-1816100D02*
G01X3086100Y-1816100D01*
G01X3314700Y-1816100D02*
G01X3441700Y-1816100D01*
G54D10*
G01X3263900Y-1714500D02*
G02X3263900Y-1752600I0J-19050D01*
G01X3263900Y-1714500D02*
G02X3263900Y-1676400I0J19050D01*
G54D13*
G01X431800Y-8280397D02*
G01X177800Y-8280397D01*
G01X177800Y-8280397D02*
G01X177800Y-6248403D01*
G01X177800Y-6248403D02*
G01X431800Y-6248403D01*
G01X431800Y-6248403D02*
G01X431800Y-8280397D01*
G01X431800Y-6504752D02*
G01X177800Y-6504752D01*
G01X3280626Y-1054095D02*
G01X3394926Y-1054095D01*
G01X3394926Y-1054095D02*
G01X3407626Y-1054095D01*
G01X3407626Y-1054095D02*
G01X3433026Y-1028695D01*
G01X3433026Y-1028695D02*
G01X3433026Y-888995D01*
G01X3433026Y-888995D02*
G01X3433026Y-876295D01*
G01X3433026Y-876295D02*
G01X3407626Y-850895D01*
G01X3407626Y-850895D02*
G01X3280626Y-850895D01*
G01X3204426Y-850895D02*
G01X3090126Y-850895D01*
G01X3090126Y-850895D02*
G01X3077426Y-850895D01*
G01X3077426Y-850895D02*
G01X3052026Y-876295D01*
G01X3052026Y-876295D02*
G01X3052026Y-1015995D01*
G01X3052026Y-1015995D02*
G01X3052026Y-1028695D01*
G01X3052026Y-1028695D02*
G01X3077426Y-1054095D01*
G01X3077426Y-1054095D02*
G01X3204426Y-1054095D01*
G01X3306026Y-1460495D02*
G01X3420326Y-1460495D01*
G01X3420326Y-1460495D02*
G01X3433026Y-1460495D01*
G01X3433026Y-1460495D02*
G01X3458426Y-1435095D01*
G01X3458426Y-1435095D02*
G01X3458426Y-1295395D01*
G01X3458426Y-1295395D02*
G01X3458426Y-1282695D01*
G01X3458426Y-1282695D02*
G01X3433026Y-1257295D01*
G01X3433026Y-1257295D02*
G01X3306026Y-1257295D01*
G01X3229826Y-1257295D02*
G01X3115526Y-1257295D01*
G01X3115526Y-1257295D02*
G01X3102826Y-1257295D01*
G01X3102826Y-1257295D02*
G01X3077426Y-1282695D01*
G01X3077426Y-1282695D02*
G01X3077426Y-1422395D01*
G01X3077426Y-1422395D02*
G01X3077426Y-1435095D01*
G01X3077426Y-1435095D02*
G01X3102826Y-1460495D01*
G01X3102826Y-1460495D02*
G01X3229826Y-1460495D01*
G01X1221204Y-418800D02*
G01X1471204Y-418803D01*
G01X1471196Y-698797D02*
G01X1221196Y-698800D01*
G54D12*
G01X3578220Y-4054109D02*
G01X3706713Y-4054109D01*
G01X3706713Y-4054109D02*
G01X3706713Y-3870691D01*
G01X3706713Y-3870691D02*
G01X3578220Y-3870691D01*
G01X3482980Y-4054109D02*
G01X3354487Y-4054109D01*
G01X3354487Y-4054109D02*
G01X3354487Y-3870691D01*
G01X3354487Y-3870691D02*
G01X3482980Y-3870691D01*
G01X3134091Y-4137020D02*
G01X3134091Y-4265513D01*
G01X3134091Y-4265513D02*
G01X3317509Y-4265513D01*
G01X3317509Y-4265513D02*
G01X3317509Y-4137020D01*
G01X3134091Y-4041780D02*
G01X3134091Y-3913287D01*
G01X3134091Y-3913287D02*
G01X3317509Y-3913287D01*
G01X3317509Y-3913287D02*
G01X3317509Y-4041780D01*
G01X4333509Y-4549780D02*
G01X4333509Y-4421287D01*
G01X4333509Y-4421287D02*
G01X4150091Y-4421287D01*
G01X4150091Y-4421287D02*
G01X4150091Y-4549780D01*
G01X4333509Y-4645020D02*
G01X4333509Y-4773513D01*
G01X4333509Y-4773513D02*
G01X4150091Y-4773513D01*
G01X4150091Y-4773513D02*
G01X4150091Y-4645020D01*
G01X4333509Y-4930780D02*
G01X4333509Y-4802287D01*
G01X4333509Y-4802287D02*
G01X4150091Y-4802287D01*
G01X4150091Y-4802287D02*
G01X4150091Y-4930780D01*
G01X4333509Y-5026020D02*
G01X4333509Y-5154513D01*
G01X4333509Y-5154513D02*
G01X4150091Y-5154513D01*
G01X4150091Y-5154513D02*
G01X4150091Y-5026020D01*
G01X308506Y-365491D02*
G01X180012Y-365491D01*
G01X180012Y-365491D02*
G01X180012Y-548909D01*
G01X180012Y-548909D02*
G01X308506Y-548909D01*
G01X403746Y-365491D02*
G01X532239Y-365491D01*
G01X532239Y-365491D02*
G01X532239Y-548909D01*
G01X532239Y-548909D02*
G01X403746Y-548909D01*
G01X403220Y-777509D02*
G01X531713Y-777509D01*
G01X531713Y-777509D02*
G01X531713Y-594091D01*
G01X531713Y-594091D02*
G01X403220Y-594091D01*
G01X307980Y-777509D02*
G01X179487Y-777509D01*
G01X179487Y-777509D02*
G01X179487Y-594091D01*
G01X179487Y-594091D02*
G01X307980Y-594091D01*
G01X612780Y-4302491D02*
G01X484287Y-4302491D01*
G01X484287Y-4302491D02*
G01X484287Y-4485909D01*
G01X484287Y-4485909D02*
G01X612780Y-4485909D01*
G01X708020Y-4302491D02*
G01X836513Y-4302491D01*
G01X836513Y-4302491D02*
G01X836513Y-4485909D01*
G01X836513Y-4485909D02*
G01X708020Y-4485909D01*
G01X1031509Y-3279780D02*
G01X1031509Y-3151287D01*
G01X1031509Y-3151287D02*
G01X848091Y-3151287D01*
G01X848091Y-3151287D02*
G01X848091Y-3279780D01*
G01X1031509Y-3375020D02*
G01X1031509Y-3503513D01*
G01X1031509Y-3503513D02*
G01X848091Y-3503513D01*
G01X848091Y-3503513D02*
G01X848091Y-3375020D01*
G01X853709Y-4905380D02*
G01X853709Y-4776887D01*
G01X853709Y-4776887D02*
G01X670291Y-4776887D01*
G01X670291Y-4776887D02*
G01X670291Y-4905380D01*
G01X853709Y-5000620D02*
G01X853709Y-5129113D01*
G01X853709Y-5129113D02*
G01X670291Y-5129113D01*
G01X670291Y-5129113D02*
G01X670291Y-5000620D01*
G01X1076691Y-3197220D02*
G01X1076691Y-3325713D01*
G01X1076691Y-3325713D02*
G01X1260109Y-3325713D01*
G01X1260109Y-3325713D02*
G01X1260109Y-3197220D01*
G01X1076691Y-3101980D02*
G01X1076691Y-2973487D01*
G01X1076691Y-2973487D02*
G01X1260109Y-2973487D01*
G01X1260109Y-2973487D02*
G01X1260109Y-3101980D01*
G01X784220Y-5654309D02*
G01X912713Y-5654309D01*
G01X912713Y-5654309D02*
G01X912713Y-5470891D01*
G01X912713Y-5470891D02*
G01X784220Y-5470891D01*
G01X688980Y-5654309D02*
G01X560487Y-5654309D01*
G01X560487Y-5654309D02*
G01X560487Y-5470891D01*
G01X560487Y-5470891D02*
G01X688980Y-5470891D01*
G01X924291Y-4543420D02*
G01X924291Y-4671913D01*
G01X924291Y-4671913D02*
G01X1107709Y-4671913D01*
G01X1107709Y-4671913D02*
G01X1107709Y-4543420D01*
G01X924291Y-4448180D02*
G01X924291Y-4319687D01*
G01X924291Y-4319687D02*
G01X1107709Y-4319687D01*
G01X1107709Y-4319687D02*
G01X1107709Y-4448180D01*
G01X3046626Y-4343659D02*
G01X3046626Y-4647938D01*
G01X3046626Y-4647938D02*
G01X2541379Y-4647938D01*
G01X2541379Y-4647938D02*
G01X2541379Y-4343659D01*
G01X2541379Y-4343659D02*
G01X3046626Y-4343659D01*
G01X1882021Y-5360060D02*
G01X1882021Y-5714340D01*
G01X1882021Y-5714340D02*
G01X1216779Y-5714340D01*
G01X1216779Y-5714340D02*
G01X1216779Y-5360060D01*
G01X1216779Y-5360060D02*
G01X1882021Y-5360060D01*
G01X3281820Y-5506260D02*
G01X3281820Y-5720540D01*
G01X3281820Y-5720540D02*
G01X2966580Y-5720540D01*
G01X2966580Y-5720540D02*
G01X2966580Y-5506260D01*
G01X2966580Y-5506260D02*
G01X3281820Y-5506260D01*
G01X3607059Y-4166979D02*
G01X3911341Y-4166979D01*
G01X3911341Y-4166979D02*
G01X3911341Y-4672221D01*
G01X3911341Y-4672221D02*
G01X3607059Y-4672221D01*
G01X3607059Y-4672221D02*
G01X3607059Y-4166979D01*
G01X850920Y-404881D02*
G01X673080Y-404881D01*
G01X850920Y-712719D02*
G01X673080Y-712719D01*
G54D13*
G01X2945399Y-2945697D02*
G01X2805702Y-2945692D01*
G01X2917794Y-3237792D02*
G01X2833316Y-3237792D01*
G01X2964452Y-3059997D02*
G01X2964452Y-3136192D01*
G01X1821128Y-2940410D02*
G01X1681430Y-2940405D01*
G01X1793523Y-3232505D02*
G01X1709045Y-3232505D01*
G01X1840180Y-3054710D02*
G01X1840180Y-3130905D01*
G54D12*
G01X560179Y-4063741D02*
G01X560179Y-3759459D01*
G01X560179Y-3759459D02*
G01X1065421Y-3759459D01*
G01X1065421Y-3759459D02*
G01X1065421Y-4063741D01*
G01X1065421Y-4063741D02*
G01X560179Y-4063741D01*
G01X3056669Y-3287134D02*
G01X2915668Y-3287134D01*
G01X2915668Y-3467855D02*
G01X3056669Y-3467855D01*
G01X3071909Y-3452615D02*
G01X3071909Y-3302374D01*
G01X2694429Y-3287134D02*
G01X2835430Y-3287134D01*
G01X2835430Y-3467855D02*
G01X2694429Y-3467855D01*
G01X2679189Y-3452615D02*
G01X2679189Y-3302374D01*
G01X3056669Y-3467855D02*
G03X3071909Y-3452615I0J15240D01*
G01X3071909Y-3302374D02*
G03X3056669Y-3287134I-15240J0D01*
G01X2694429Y-3467855D02*
G02X2679189Y-3452615I0J15240D01*
G01X2679189Y-3302374D02*
G02X2694429Y-3287134I15240J0D01*
G01X1903583Y-3294887D02*
G01X1762582Y-3294887D01*
G01X1762582Y-3475608D02*
G01X1903583Y-3475608D01*
G01X1918823Y-3460368D02*
G01X1918823Y-3310127D01*
G01X1541343Y-3294887D02*
G01X1682344Y-3294887D01*
G01X1682344Y-3475608D02*
G01X1541343Y-3475608D01*
G01X1526103Y-3460368D02*
G01X1526103Y-3310127D01*
G01X1903583Y-3475608D02*
G03X1918823Y-3460368I0J15240D01*
G01X1918823Y-3310127D02*
G03X1903583Y-3294887I-15240J0D01*
G01X1541343Y-3475608D02*
G02X1526103Y-3460368I0J15240D01*
G01X1526103Y-3310127D02*
G02X1541343Y-3294887I15240J0D01*
G01X3211640Y-4924280D02*
G01X3211640Y-5065281D01*
G01X3392361Y-5065281D02*
G01X3392361Y-4924280D01*
G01X3377121Y-4909040D02*
G01X3226880Y-4909040D01*
G01X3211640Y-5286520D02*
G01X3211640Y-5145519D01*
G01X3392361Y-5145519D02*
G01X3392361Y-5286520D01*
G01X3377121Y-5301760D02*
G01X3226880Y-5301760D01*
G01X3392361Y-4924280D02*
G03X3377121Y-4909040I-15240J0D01*
G01X3226880Y-4909040D02*
G03X3211640Y-4924280I0J-15240D01*
G01X3392361Y-5286520D02*
G02X3377121Y-5301760I-15240J0D01*
G01X3226880Y-5301760D02*
G02X3211640Y-5286520I0J15240D01*
G01X3595561Y-5286520D02*
G01X3595561Y-5145519D01*
G01X3414840Y-5145519D02*
G01X3414840Y-5286520D01*
G01X3430080Y-5301760D02*
G01X3580321Y-5301760D01*
G01X3595561Y-4924280D02*
G01X3595561Y-5065281D01*
G01X3414840Y-5065281D02*
G01X3414840Y-4924280D01*
G01X3430080Y-4909040D02*
G01X3580321Y-4909040D01*
G01X3414840Y-5286520D02*
G03X3430080Y-5301760I15240J0D01*
G01X3580321Y-5301760D02*
G03X3595561Y-5286520I0J15240D01*
G01X3414840Y-4924280D02*
G02X3430080Y-4909040I15240J0D01*
G01X3580321Y-4909040D02*
G02X3595561Y-4924280I0J-15240D01*
G54D14*
G01X431800Y-4470400D02*
G01X177800Y-4470400D01*
G01X177800Y-4470400D02*
G01X177800Y-3454400D01*
G01X177800Y-3454400D02*
G01X431800Y-3454400D01*
G01X431800Y-3454400D02*
G01X431800Y-3644900D01*
G54D11*
G01X431800Y-4470400D02*
G01X431800Y-3644900D01*
G54D13*
G01X4622800Y-4241797D02*
G01X4368800Y-4241797D01*
G01X4368800Y-4241797D02*
G01X4368800Y-2209803D01*
G01X4368800Y-2209803D02*
G01X4622800Y-2209803D01*
G01X4622800Y-2209803D02*
G01X4622800Y-4241797D01*
G01X4622800Y-2466152D02*
G01X4368800Y-2466152D01*
G01X4620798Y-6502403D02*
G01X4370799Y-6502403D01*
G01X4620798Y-9296397D02*
G01X4620798Y-6248403D01*
G01X4370799Y-9296397D02*
G01X4620798Y-9296397D01*
G01X4370799Y-6248403D02*
G01X4370799Y-9296397D01*
G01X4620798Y-6248403D02*
G01X4370799Y-6248403D01*
G54D12*
G01X4306761Y-7420120D02*
G01X4306761Y-7279119D01*
G01X4126040Y-7279119D02*
G01X4126040Y-7420120D01*
G01X4141280Y-7435360D02*
G01X4291521Y-7435360D01*
G01X4306761Y-7057880D02*
G01X4306761Y-7198881D01*
G01X4126040Y-7198881D02*
G01X4126040Y-7057880D01*
G01X4141280Y-7042640D02*
G01X4291521Y-7042640D01*
G01X4126040Y-7420120D02*
G03X4141280Y-7435360I15240J0D01*
G01X4291521Y-7435360D02*
G03X4306761Y-7420120I0J15240D01*
G01X4126040Y-7057880D02*
G02X4141280Y-7042640I15240J0D01*
G01X4291521Y-7042640D02*
G02X4306761Y-7057880I0J-15240D01*
G01X4137919Y-7725719D02*
G01X4137919Y-7866720D01*
G01X4318640Y-7866720D02*
G01X4318640Y-7725719D01*
G01X4303400Y-7710479D02*
G01X4153159Y-7710479D01*
G01X4137919Y-8087959D02*
G01X4137919Y-7946958D01*
G01X4318640Y-7946958D02*
G01X4318640Y-8087959D01*
G01X4303400Y-8103199D02*
G01X4153159Y-8103199D01*
G01X4318640Y-7725719D02*
G03X4303400Y-7710479I-15240J0D01*
G01X4153159Y-7710479D02*
G03X4137919Y-7725719I0J-15240D01*
G01X4318640Y-8087959D02*
G02X4303400Y-8103199I-15240J0D01*
G01X4153159Y-8103199D02*
G02X4137919Y-8087959I0J15240D01*
G01X2627440Y-5381480D02*
G01X2627440Y-5522481D01*
G01X2808161Y-5522481D02*
G01X2808161Y-5381480D01*
G01X2792921Y-5366240D02*
G01X2642680Y-5366240D01*
G01X2627440Y-5743720D02*
G01X2627440Y-5602719D01*
G01X2808161Y-5602719D02*
G01X2808161Y-5743720D01*
G01X2792921Y-5758960D02*
G01X2642680Y-5758960D01*
G01X2808161Y-5381480D02*
G03X2792921Y-5366240I-15240J0D01*
G01X2642680Y-5366240D02*
G03X2627440Y-5381480I0J-15240D01*
G01X2808161Y-5743720D02*
G02X2792921Y-5758960I-15240J0D01*
G01X2642680Y-5758960D02*
G02X2627440Y-5743720I0J15240D01*

G04 Circle Start*
G54D16*
G01X2969489Y-4418889D02*
G03X2999511Y-4418889I15011J0D01*
G03X2969489Y-4418889I-15011J0D01*
G01X3044139Y-4218559D02*
G03X3074162Y-4218559I15011J0D01*
G03X3044139Y-4218559I-15011J0D01*
G01X1826895Y-5435295D02*
G03X1856918Y-5435295I15011J0D01*
G03X1826895Y-5435295I-15011J0D01*
G01X1890319Y-5250104D02*
G03X1920342Y-5250104I15011J0D01*
G03X1890319Y-5250104I-15011J0D01*
G01X3206699Y-5581498D02*
G03X3236722Y-5581498I15011J0D01*
G03X3206699Y-5581498I-15011J0D01*
G01X3270123Y-5400294D02*
G03X3300146Y-5400294I15011J0D01*
G03X3270123Y-5400294I-15011J0D01*
G01X3667277Y-4229100D02*
G03X3697300Y-4229100I15011J0D01*
G03X3667277Y-4229100I-15011J0D01*
G01X3466948Y-4154449D02*
G03X3496970Y-4154449I15011J0D01*
G03X3466948Y-4154449I-15011J0D01*
G01X877138Y-725627D02*
G03X907161Y-725627I15011J0D01*
G03X877138Y-725627I-15011J0D01*
G01X2659547Y-3002072D02*
G03X2689570Y-3002072I15011J0D01*
G03X2659547Y-3002072I-15011J0D01*
G01X1535276Y-2996785D02*
G03X1565299Y-2996785I15011J0D01*
G03X1535276Y-2996785I-15011J0D01*
G01X607289Y-3988511D02*
G03X637311Y-3988511I15011J0D01*
G03X607289Y-3988511I-15011J0D01*
G01X532638Y-4188841D02*
G03X562661Y-4188841I15011J0D01*
G03X532638Y-4188841I-15011J0D01*
G04 Circle End*

M02*

