G04 Layer: InnerLayer1*
G04 EasyEDA Pro v2.2.47.7, 2026-04-29 23:34:45*
G04 Gerber Generator version 0.3*
G04 Scale: 100 percent, Rotated: No, Reflected: No*
G04 Dimensions in millimeters*
G04 Leading zeros omitted, absolute positions, 4 integers and 5 decimals*
G04 Generated by one-click*
G04 Object Configs: Pad,Via,Track,Text,Image,Dimension,BoardOutline,BoardCutout,CopperFilled,SolidRegion,FPCStiffener,Line,PlaneZone,ComponentProperty,ComponentSilkscreen,TearDrop*
G04 Layer Configs: 1,15,16,2,3,4,5,6,7,8,9,10,11,13,14,71,72,56*
G04 Copper Areas: 0*
%FSLAX45Y45*%
%MOMM*%
%ADD10C,1.524*%
%ADD11R,1.5X1.5*%
%ADD12C,1.5*%
%ADD13C,1.7*%
%ADD14R,1.7X1.7*%
%ADD15R,1.524X1.524*%
%ADD16C,0.6136*%
%ADD17C,0.61*%
G75*


G04 PlaneZone Start*
G36*
G01X4774346Y-25654D02*
G01X4774346Y-10974346D01*
G01X25654Y-10974346D01*
G01X25654Y-25654D01*
G01X4774346Y-25654D01*
G37*
%LPC*%
G36*
G01X45446Y-2895600D02*
G03X139700Y-2936851I56154J0D01*
G03X233954Y-2895600I38100J41251D01*
G03X139700Y-2854349I-56154J0D01*
G03X45446Y-2895600I-38100J-41251D01*
G37*
G36*
G01X52812Y-241300D02*
G03X165120Y-241300I56154J0D01*
G03X52812Y-241300I-56154J0D01*
G37*
G36*
G01X78761Y-457200D02*
G03X191069Y-457200I56154J0D01*
G03X78761Y-457200I-56154J0D01*
G37*
G36*
G01X194146Y-3666400D02*
G03X219800Y-3692054I25654J0D01*
G01X389800Y-3692054D01*
G03X415454Y-3666400I0J25654D01*
G01X415454Y-3496400D01*
G03X389800Y-3470746I-25654J0D01*
G01X219800Y-3470746D01*
G03X194146Y-3496400I0J-25654D01*
G01X194146Y-3666400D01*
G37*
G36*
G01X304800Y-3978746D02*
G03X304800Y-4200054I0J-110654D01*
G03X304800Y-3978746I0J110654D01*
G37*
G36*
G01X304800Y-3724746D02*
G03X304800Y-3946054I0J-110654D01*
G03X304800Y-3724746I0J110654D01*
G37*
G36*
G01X304800Y-4232746D02*
G03X304800Y-4454054I0J-110654D01*
G03X304800Y-4232746I0J110654D01*
G37*
G36*
G01X204146Y-6450400D02*
G03X229800Y-6476054I25654J0D01*
G01X379800Y-6476054D01*
G03X405454Y-6450400I0J25654D01*
G01X405454Y-6300400D01*
G03X379800Y-6274746I-25654J0D01*
G01X229800Y-6274746D01*
G03X204146Y-6300400I0J-25654D01*
G01X204146Y-6450400D01*
G37*
G36*
G01X304800Y-6528746D02*
G03X304800Y-6730054I0J-100654D01*
G03X304800Y-6528746I0J100654D01*
G37*
G36*
G01X304800Y-6782746D02*
G03X304800Y-6984054I0J-100654D01*
G03X304800Y-6782746I0J100654D01*
G37*
G36*
G01X304800Y-7290746D02*
G03X304800Y-7492054I0J-100654D01*
G03X304800Y-7290746I0J100654D01*
G37*
G36*
G01X304800Y-7036746D02*
G03X304800Y-7238054I0J-100654D01*
G03X304800Y-7036746I0J100654D01*
G37*
G36*
G01X304800Y-7798746D02*
G03X304800Y-8000054I0J-100654D01*
G03X304800Y-7798746I0J100654D01*
G37*
G36*
G01X304800Y-8052746D02*
G03X304800Y-8254054I0J-100654D01*
G03X304800Y-8052746I0J100654D01*
G37*
G36*
G01X304800Y-7544746D02*
G03X304800Y-7746054I0J-100654D01*
G03X304800Y-7544746I0J100654D01*
G37*
G36*
G01X401046Y-3344124D02*
G03X513354Y-3344124I56154J0D01*
G03X401046Y-3344124I-56154J0D01*
G37*
G36*
G01X1038254Y-6397400D02*
G03X816946Y-6397400I-110654J0D01*
G03X1038254Y-6397400I110654J0D01*
G37*
G36*
G01X1038254Y-7921400D02*
G03X816946Y-7921400I-110654J0D01*
G03X1038254Y-7921400I110654J0D01*
G37*
G36*
G01X1038254Y-9191400D02*
G03X816946Y-9191400I-110654J0D01*
G03X1038254Y-9191400I110654J0D01*
G37*
G36*
G01X1038254Y-9445400D02*
G03X816946Y-9445400I-110654J0D01*
G03X1038254Y-9445400I110654J0D01*
G37*
G36*
G01X1038254Y-6651400D02*
G03X816946Y-6651400I-110654J0D01*
G03X1038254Y-6651400I110654J0D01*
G37*
G36*
G01X1038254Y-6905400D02*
G03X816946Y-6905400I-110654J0D01*
G03X1038254Y-6905400I110654J0D01*
G37*
G36*
G01X1038254Y-7159400D02*
G03X816946Y-7159400I-110654J0D01*
G03X1038254Y-7159400I110654J0D01*
G37*
G36*
G01X1038254Y-7413400D02*
G03X816946Y-7413400I-110654J0D01*
G03X1038254Y-7413400I110654J0D01*
G37*
G36*
G01X1038254Y-7667400D02*
G03X816946Y-7667400I-110654J0D01*
G03X1038254Y-7667400I110654J0D01*
G37*
G36*
G01X1038254Y-8175400D02*
G03X816946Y-8175400I-110654J0D01*
G03X1038254Y-8175400I110654J0D01*
G37*
G36*
G01X1038254Y-8429400D02*
G03X816946Y-8429400I-110654J0D01*
G03X1038254Y-8429400I110654J0D01*
G37*
G36*
G01X1038254Y-8683400D02*
G03X816946Y-8683400I-110654J0D01*
G03X1038254Y-8683400I110654J0D01*
G37*
G36*
G01X1038254Y-8937400D02*
G03X816946Y-8937400I-110654J0D01*
G03X1038254Y-8937400I110654J0D01*
G37*
G36*
G01X1038254Y-9953400D02*
G03X816946Y-9953400I-110654J0D01*
G03X1038254Y-9953400I110654J0D01*
G37*
G36*
G01X1038254Y-9699400D02*
G03X816946Y-9699400I-110654J0D01*
G03X1038254Y-9699400I110654J0D01*
G37*
G36*
G01X1292254Y-6397400D02*
G03X1070946Y-6397400I-110654J0D01*
G03X1292254Y-6397400I110654J0D01*
G37*
G36*
G01X1292254Y-7921400D02*
G03X1070946Y-7921400I-110654J0D01*
G03X1292254Y-7921400I110654J0D01*
G37*
G36*
G01X1292254Y-9191400D02*
G03X1070946Y-9191400I-110654J0D01*
G03X1292254Y-9191400I110654J0D01*
G37*
G36*
G01X1292254Y-9445400D02*
G03X1070946Y-9445400I-110654J0D01*
G03X1292254Y-9445400I110654J0D01*
G37*
G36*
G01X1292254Y-6651400D02*
G03X1070946Y-6651400I-110654J0D01*
G03X1292254Y-6651400I110654J0D01*
G37*
G36*
G01X1292254Y-6905400D02*
G03X1070946Y-6905400I-110654J0D01*
G03X1292254Y-6905400I110654J0D01*
G37*
G36*
G01X1292254Y-7159400D02*
G03X1070946Y-7159400I-110654J0D01*
G03X1292254Y-7159400I110654J0D01*
G37*
G36*
G01X1292254Y-7413400D02*
G03X1070946Y-7413400I-110654J0D01*
G03X1292254Y-7413400I110654J0D01*
G37*
G36*
G01X1292254Y-7667400D02*
G03X1070946Y-7667400I-110654J0D01*
G03X1292254Y-7667400I110654J0D01*
G37*
G36*
G01X1292254Y-8175400D02*
G03X1070946Y-8175400I-110654J0D01*
G03X1292254Y-8175400I110654J0D01*
G37*
G36*
G01X1292254Y-8429400D02*
G03X1070946Y-8429400I-110654J0D01*
G03X1292254Y-8429400I110654J0D01*
G37*
G36*
G01X1292254Y-8683400D02*
G03X1070946Y-8683400I-110654J0D01*
G03X1292254Y-8683400I110654J0D01*
G37*
G36*
G01X1292254Y-8937400D02*
G03X1070946Y-8937400I-110654J0D01*
G03X1292254Y-8937400I110654J0D01*
G37*
G36*
G01X1292254Y-9953400D02*
G03X1070946Y-9953400I-110654J0D01*
G03X1292254Y-9953400I110654J0D01*
G37*
G36*
G01X1292254Y-9699400D02*
G03X1070946Y-9699400I-110654J0D01*
G03X1292254Y-9699400I110654J0D01*
G37*
G36*
G01X1199521Y-4077295D02*
G03X1311829Y-4077295I56154J0D01*
G03X1199521Y-4077295I-56154J0D01*
G37*
G36*
G01X1330737Y-4673600D02*
G03X1443045Y-4673600I56154J0D01*
G03X1330737Y-4673600I-56154J0D01*
G37*
G36*
G01X1376416Y-2900945D02*
G03X1488724Y-2900945I56154J0D01*
G03X1376416Y-2900945I-56154J0D01*
G37*
G36*
G01X1541469Y-419100D02*
G03X1637012Y-459123I56154J0D01*
G03X1714500Y-460351I39388J40023D01*
G03X1808754Y-419100I38100J41251D01*
G03X1714500Y-377849I-56154J0D01*
G03X1637012Y-379077I-38100J-41251D01*
G03X1541469Y-419100I-39388J-40023D01*
G37*
G36*
G01X2070100Y-10669091D02*
G03X1892300Y-10669091I-88900J-49709D01*
G03X1701546Y-10718800I-88900J-49709D01*
G03X1892300Y-10768509I101854J0D01*
G03X2070100Y-10768509I88900J49709D01*
G03X2247900Y-10768509I88900J49709D01*
G03X2425700Y-10768509I88900J49709D01*
G03X2603500Y-10768509I88900J49709D01*
G03X2781300Y-10768509I88900J49709D01*
G03X2972054Y-10718800I88900J49709D01*
G03X2781300Y-10669091I-101854J0D01*
G03X2603500Y-10669091I-88900J-49709D01*
G03X2425700Y-10669091I-88900J-49709D01*
G03X2247900Y-10669091I-88900J-49709D01*
G03X2070100Y-10669091I-88900J-49709D01*
G37*
G36*
G01X1848846Y-6121400D02*
G03X1961154Y-6121400I56154J0D01*
G03X1848846Y-6121400I-56154J0D01*
G37*
G36*
G01X1923724Y-3169008D02*
G03X2030678Y-3192938I56154J0D01*
G03X2137632Y-3169008I50800J23930D01*
G03X2030678Y-3145078I-56154J0D01*
G03X1923724Y-3169008I-50800J-23930D01*
G37*
G36*
G01X2280646Y-5232400D02*
G03X2392954Y-5232400I56154J0D01*
G03X2280646Y-5232400I-56154J0D01*
G37*
G36*
G01X2539995Y-2920294D02*
G03X2652303Y-2920294I56154J0D01*
G03X2539995Y-2920294I-56154J0D01*
G37*
G36*
G01X2661191Y-1930773D02*
G03X2767904Y-1956296I56143J-1111D01*
G03X2875543Y-1935014I51496J22393D01*
G03X2768830Y-1909491I-56143J1111D01*
G03X2661191Y-1930773I-51496J-22393D01*
G37*
G36*
G01X2661646Y-2184400D02*
G03X2768600Y-2208330I56154J0D01*
G03X2875554Y-2184400I50800J23930D01*
G03X2768600Y-2160470I-56154J0D01*
G03X2661646Y-2184400I-50800J-23930D01*
G37*
G36*
G01X2661933Y-1680452D02*
G03X2766585Y-1708757I56154J0D01*
G03X2871237Y-1680452I48498J28306D01*
G03X2766585Y-1652146I-56154J0D01*
G03X2661933Y-1680452I-48498J-28306D01*
G37*
G36*
G01X2691932Y-4018894D02*
G03X2804241Y-4018894I56154J0D01*
G03X2691932Y-4018894I-56154J0D01*
G37*
G36*
G01X2712128Y-98265D02*
G03X2815964Y-127925I56154J0D01*
G03X2919800Y-98265I47682J29660D01*
G03X2815964Y-68605I-56154J0D01*
G03X2712128Y-98265I-47682J-29660D01*
G37*
G36*
G01X2715564Y-366858D02*
G03X2819400Y-396518I56154J0D01*
G03X2923236Y-366858I47682J29660D01*
G03X2819400Y-337198I-56154J0D01*
G03X2715564Y-366858I-47682J-29660D01*
G37*
G36*
G01X2716436Y-607218D02*
G03X2817905Y-643431I56064J-3172D01*
G03X2922810Y-618893I48841J27710D01*
G03X2821341Y-582680I-56064J3172D01*
G03X2716436Y-607218I-48841J-27710D01*
G37*
G36*
G01X2839446Y-5301760D02*
G03X2951754Y-5301760I56154J0D01*
G03X2839446Y-5301760I-56154J0D01*
G37*
G36*
G01X2970535Y-6502400D02*
G03X3082843Y-6502400I56154J0D01*
G03X2970535Y-6502400I-56154J0D01*
G37*
G36*
G01X3042646Y-3175000D02*
G03X3149600Y-3198930I56154J0D01*
G03X3256554Y-3175000I50800J23930D01*
G03X3149600Y-3151070I-56154J0D01*
G03X3042646Y-3175000I-50800J-23930D01*
G37*
G36*
G01X3056445Y-4594900D02*
G03X3168753Y-4594900I56154J0D01*
G03X3056445Y-4594900I-56154J0D01*
G37*
G36*
G01X3093446Y-8432800D02*
G03X3205754Y-8432800I56154J0D01*
G03X3093446Y-8432800I-56154J0D01*
G37*
G36*
G01X3144246Y-8534400D02*
G03X3256554Y-8534400I56154J0D01*
G03X3144246Y-8534400I-56154J0D01*
G37*
G36*
G01X3169646Y-6705600D02*
G03X3281954Y-6705600I56154J0D01*
G03X3169646Y-6705600I-56154J0D01*
G37*
G36*
G01X3245846Y-8280400D02*
G03X3358154Y-8280400I56154J0D01*
G03X3245846Y-8280400I-56154J0D01*
G37*
G36*
G01X3245846Y-8610600D02*
G03X3358154Y-8610600I56154J0D01*
G03X3245846Y-8610600I-56154J0D01*
G37*
G36*
G01X3271246Y-8407400D02*
G03X3383554Y-8407400I56154J0D01*
G03X3271246Y-8407400I-56154J0D01*
G37*
G36*
G01X3347446Y-8737600D02*
G03X3459754Y-8737600I56154J0D01*
G03X3347446Y-8737600I-56154J0D01*
G37*
G36*
G01X3347446Y-8509000D02*
G03X3459754Y-8509000I56154J0D01*
G03X3347446Y-8509000I-56154J0D01*
G37*
G36*
G01X3474446Y-8610600D02*
G03X3586754Y-8610600I56154J0D01*
G03X3474446Y-8610600I-56154J0D01*
G37*
G36*
G01X3550646Y-5207000D02*
G03X3662954Y-5207000I56154J0D01*
G03X3550646Y-5207000I-56154J0D01*
G37*
G36*
G01X3831254Y-7924400D02*
G03X3609946Y-7924400I-110654J0D01*
G03X3831254Y-7924400I110654J0D01*
G37*
G36*
G01X3831254Y-7670400D02*
G03X3609946Y-7670400I-110654J0D01*
G03X3831254Y-7670400I110654J0D01*
G37*
G36*
G01X3831254Y-7416400D02*
G03X3609946Y-7416400I-110654J0D01*
G03X3831254Y-7416400I110654J0D01*
G37*
G36*
G01X3831254Y-7162400D02*
G03X3609946Y-7162400I-110654J0D01*
G03X3831254Y-7162400I110654J0D01*
G37*
G36*
G01X3831254Y-6908400D02*
G03X3609946Y-6908400I-110654J0D01*
G03X3831254Y-6908400I110654J0D01*
G37*
G36*
G01X3831254Y-6654400D02*
G03X3609946Y-6654400I-110654J0D01*
G03X3831254Y-6654400I110654J0D01*
G37*
G36*
G01X3831254Y-6400400D02*
G03X3609946Y-6400400I-110654J0D01*
G03X3831254Y-6400400I110654J0D01*
G37*
G36*
G01X3831254Y-8686400D02*
G03X3609946Y-8686400I-110654J0D01*
G03X3831254Y-8686400I110654J0D01*
G37*
G36*
G01X3831254Y-8432400D02*
G03X3609946Y-8432400I-110654J0D01*
G03X3831254Y-8432400I110654J0D01*
G37*
G36*
G01X3831254Y-8178400D02*
G03X3609946Y-8178400I-110654J0D01*
G03X3831254Y-8178400I110654J0D01*
G37*
G36*
G01X3831254Y-9956400D02*
G03X3609946Y-9956400I-110654J0D01*
G03X3831254Y-9956400I110654J0D01*
G37*
G36*
G01X3831254Y-9702400D02*
G03X3609946Y-9702400I-110654J0D01*
G03X3831254Y-9702400I110654J0D01*
G37*
G36*
G01X3831254Y-9448400D02*
G03X3609946Y-9448400I-110654J0D01*
G03X3831254Y-9448400I110654J0D01*
G37*
G36*
G01X3831254Y-9194400D02*
G03X3609946Y-9194400I-110654J0D01*
G03X3831254Y-9194400I110654J0D01*
G37*
G36*
G01X3831254Y-8940400D02*
G03X3609946Y-8940400I-110654J0D01*
G03X3831254Y-8940400I110654J0D01*
G37*
G36*
G01X4085254Y-7924400D02*
G03X3863946Y-7924400I-110654J0D01*
G03X4085254Y-7924400I110654J0D01*
G37*
G36*
G01X4085254Y-8686400D02*
G03X3863946Y-8686400I-110654J0D01*
G03X4085254Y-8686400I110654J0D01*
G37*
G36*
G01X4085254Y-8432400D02*
G03X3863946Y-8432400I-110654J0D01*
G03X4085254Y-8432400I110654J0D01*
G37*
G36*
G01X4085254Y-8178400D02*
G03X3863946Y-8178400I-110654J0D01*
G03X4085254Y-8178400I110654J0D01*
G37*
G36*
G01X4085254Y-6654400D02*
G03X3863946Y-6654400I-110654J0D01*
G03X4085254Y-6654400I110654J0D01*
G37*
G36*
G01X4085254Y-6400400D02*
G03X3863946Y-6400400I-110654J0D01*
G03X4085254Y-6400400I110654J0D01*
G37*
G36*
G01X4085254Y-7670400D02*
G03X3863946Y-7670400I-110654J0D01*
G03X4085254Y-7670400I110654J0D01*
G37*
G36*
G01X4085254Y-7416400D02*
G03X3863946Y-7416400I-110654J0D01*
G03X4085254Y-7416400I110654J0D01*
G37*
G36*
G01X4085254Y-7162400D02*
G03X3863946Y-7162400I-110654J0D01*
G03X4085254Y-7162400I110654J0D01*
G37*
G36*
G01X4085254Y-6908400D02*
G03X3863946Y-6908400I-110654J0D01*
G03X4085254Y-6908400I110654J0D01*
G37*
G36*
G01X4085254Y-9956400D02*
G03X3863946Y-9956400I-110654J0D01*
G03X4085254Y-9956400I110654J0D01*
G37*
G36*
G01X4085254Y-9702400D02*
G03X3863946Y-9702400I-110654J0D01*
G03X4085254Y-9702400I110654J0D01*
G37*
G36*
G01X4085254Y-9448400D02*
G03X3863946Y-9448400I-110654J0D01*
G03X4085254Y-9448400I110654J0D01*
G37*
G36*
G01X4085254Y-9194400D02*
G03X3863946Y-9194400I-110654J0D01*
G03X4085254Y-9194400I110654J0D01*
G37*
G36*
G01X4085254Y-8940400D02*
G03X3863946Y-8940400I-110654J0D01*
G03X4085254Y-8940400I110654J0D01*
G37*
G36*
G01X4066451Y-545846D02*
G03X4066451Y-749554I0J-101854D01*
G03X4066451Y-545846I0J101854D01*
G37*
G36*
G01X4066451Y-1561846D02*
G03X4066451Y-1765554I0J-101854D01*
G03X4066451Y-1561846I0J101854D01*
G37*
G36*
G01X4066451Y-1307846D02*
G03X4066451Y-1511554I0J-101854D01*
G03X4066451Y-1307846I0J101854D01*
G37*
G36*
G01X4066451Y-1053846D02*
G03X4066451Y-1257554I0J-101854D01*
G03X4066451Y-1053846I0J101854D01*
G37*
G36*
G01X4066451Y-799846D02*
G03X4066451Y-1003554I0J-101854D01*
G03X4066451Y-799846I0J101854D01*
G37*
G36*
G01X4157051Y-4346595D02*
G03X4269359Y-4346595I56154J0D01*
G03X4157051Y-4346595I-56154J0D01*
G37*
G36*
G01X4320451Y-545846D02*
G03X4320451Y-749554I0J-101854D01*
G03X4320451Y-545846I0J101854D01*
G37*
G36*
G01X4320451Y-1561846D02*
G03X4320451Y-1765554I0J-101854D01*
G03X4320451Y-1561846I0J101854D01*
G37*
G36*
G01X4320451Y-1307846D02*
G03X4320451Y-1511554I0J-101854D01*
G03X4320451Y-1307846I0J101854D01*
G37*
G36*
G01X4320451Y-1053846D02*
G03X4320451Y-1257554I0J-101854D01*
G03X4320451Y-1053846I0J101854D01*
G37*
G36*
G01X4320451Y-799846D02*
G03X4320451Y-1003554I0J-101854D01*
G03X4320451Y-799846I0J101854D01*
G37*
G36*
G01X4495800Y-6527546D02*
G03X4495800Y-6731254I0J-101854D01*
G03X4495800Y-6527546I0J101854D01*
G37*
G36*
G01X4393946Y-6451600D02*
G03X4419600Y-6477254I25654J0D01*
G01X4572000Y-6477254D01*
G03X4597654Y-6451600I0J25654D01*
G01X4597654Y-6299200D01*
G03X4572000Y-6273546I-25654J0D01*
G01X4419600Y-6273546D01*
G03X4393946Y-6299200I0J-25654D01*
G01X4393946Y-6451600D01*
G37*
G36*
G01X4495800Y-7797546D02*
G03X4495800Y-8001254I0J-101854D01*
G03X4495800Y-7797546I0J101854D01*
G37*
G36*
G01X4495800Y-7543546D02*
G03X4495800Y-7747254I0J-101854D01*
G03X4495800Y-7543546I0J101854D01*
G37*
G36*
G01X4495800Y-7289546D02*
G03X4495800Y-7493254I0J-101854D01*
G03X4495800Y-7289546I0J101854D01*
G37*
G36*
G01X4495800Y-7035546D02*
G03X4495800Y-7239254I0J-101854D01*
G03X4495800Y-7035546I0J101854D01*
G37*
G36*
G01X4495800Y-6781546D02*
G03X4495800Y-6985254I0J-101854D01*
G03X4495800Y-6781546I0J101854D01*
G37*
G36*
G01X4495800Y-8559546D02*
G03X4495800Y-8763254I0J-101854D01*
G03X4495800Y-8559546I0J101854D01*
G37*
G36*
G01X4495800Y-8305546D02*
G03X4495800Y-8509254I0J-101854D01*
G03X4495800Y-8305546I0J101854D01*
G37*
G36*
G01X4495800Y-8051546D02*
G03X4495800Y-8255254I0J-101854D01*
G03X4495800Y-8051546I0J101854D01*
G37*
G36*
G01X4495800Y-9067546D02*
G03X4495800Y-9271254I0J-101854D01*
G03X4495800Y-9067546I0J101854D01*
G37*
G36*
G01X4495800Y-8813546D02*
G03X4495800Y-9017254I0J-101854D01*
G03X4495800Y-8813546I0J101854D01*
G37*
G36*
G01X4495800Y-2490146D02*
G03X4495800Y-2691454I0J-100654D01*
G03X4495800Y-2490146I0J100654D01*
G37*
G36*
G01X4395146Y-2411800D02*
G03X4420800Y-2437454I25654J0D01*
G01X4570800Y-2437454D01*
G03X4596454Y-2411800I0J25654D01*
G01X4596454Y-2261800D01*
G03X4570800Y-2236146I-25654J0D01*
G01X4420800Y-2236146D01*
G03X4395146Y-2261800I0J-25654D01*
G01X4395146Y-2411800D01*
G37*
G36*
G01X4495800Y-2744146D02*
G03X4495800Y-2945454I0J-100654D01*
G03X4495800Y-2744146I0J100654D01*
G37*
G36*
G01X4495800Y-3252146D02*
G03X4495800Y-3453454I0J-100654D01*
G03X4495800Y-3252146I0J100654D01*
G37*
G36*
G01X4495800Y-2998146D02*
G03X4495800Y-3199454I0J-100654D01*
G03X4495800Y-2998146I0J100654D01*
G37*
G36*
G01X4495800Y-3760146D02*
G03X4495800Y-3961454I0J-100654D01*
G03X4495800Y-3760146I0J100654D01*
G37*
G36*
G01X4495800Y-3506146D02*
G03X4495800Y-3707454I0J-100654D01*
G03X4495800Y-3506146I0J100654D01*
G37*
G36*
G01X4495800Y-4014146D02*
G03X4495800Y-4215454I0J-100654D01*
G03X4495800Y-4014146I0J100654D01*
G37*
%LPD*%
G36*
G01X3805346Y-6413100D02*
G02X3805346Y-6387700I0J12700D01*
G01X3831254Y-6387700D01*
G02X3831254Y-6413100I0J-12700D01*
G01X3805346Y-6413100D01*
G37*
G36*
G01X204146Y-7658100D02*
G02X204146Y-7632700I0J12700D01*
G01X230054Y-7632700D01*
G02X230054Y-7658100I0J-12700D01*
G01X204146Y-7658100D01*
G37*
G36*
G01X204146Y-8166100D02*
G02X204146Y-8140700I0J12700D01*
G01X230054Y-8140700D01*
G02X230054Y-8166100I0J-12700D01*
G01X204146Y-8166100D01*
G37*
G36*
G01X379546Y-7150100D02*
G02X379546Y-7124700I0J12700D01*
G01X405454Y-7124700D01*
G02X405454Y-7150100I0J-12700D01*
G01X379546Y-7150100D01*
G37*
G36*
G01X204146Y-7150100D02*
G02X204146Y-7124700I0J12700D01*
G01X230054Y-7124700D01*
G02X230054Y-7150100I0J-12700D01*
G01X204146Y-7150100D01*
G37*
G36*
G01X379546Y-8166100D02*
G02X379546Y-8140700I0J12700D01*
G01X405454Y-8140700D01*
G02X405454Y-8166100I0J-12700D01*
G01X379546Y-8166100D01*
G37*
G36*
G01X379546Y-7658100D02*
G02X379546Y-7632700I0J12700D01*
G01X405454Y-7632700D01*
G02X405454Y-7658100I0J-12700D01*
G01X379546Y-7658100D01*
G37*
G36*
G01X3805346Y-9969100D02*
G02X3805346Y-9943700I0J12700D01*
G01X3831254Y-9943700D01*
G02X3831254Y-9969100I0J-12700D01*
G01X3805346Y-9969100D01*
G37*
G36*
G01X3609946Y-9969100D02*
G02X3609946Y-9943700I0J12700D01*
G01X3635854Y-9943700D01*
G02X3635854Y-9969100I0J-12700D01*
G01X3609946Y-9969100D01*
G37*
G36*
G01X3805346Y-9715100D02*
G02X3805346Y-9689700I0J12700D01*
G01X3831254Y-9689700D01*
G02X3831254Y-9715100I0J-12700D01*
G01X3805346Y-9715100D01*
G37*
G36*
G01X3609946Y-9715100D02*
G02X3609946Y-9689700I0J12700D01*
G01X3635854Y-9689700D01*
G02X3635854Y-9715100I0J-12700D01*
G01X3609946Y-9715100D01*
G37*
G36*
G01X3805346Y-9461100D02*
G02X3805346Y-9435700I0J12700D01*
G01X3831254Y-9435700D01*
G02X3831254Y-9461100I0J-12700D01*
G01X3805346Y-9461100D01*
G37*
G36*
G01X3609946Y-9461100D02*
G02X3609946Y-9435700I0J12700D01*
G01X3635854Y-9435700D01*
G02X3635854Y-9461100I0J-12700D01*
G01X3609946Y-9461100D01*
G37*
G36*
G01X4570546Y-2857500D02*
G02X4570546Y-2832100I0J12700D01*
G01X4596454Y-2832100D01*
G02X4596454Y-2857500I0J-12700D01*
G01X4570546Y-2857500D01*
G37*
G36*
G01X816946Y-9966100D02*
G02X816946Y-9940700I0J12700D01*
G01X842854Y-9940700D01*
G02X842854Y-9966100I0J-12700D01*
G01X816946Y-9966100D01*
G37*
G36*
G01X1012346Y-6410100D02*
G02X1012346Y-6384700I0J12700D01*
G01X1038254Y-6384700D01*
G02X1038254Y-6410100I0J-12700D01*
G01X1012346Y-6410100D01*
G37*
G36*
G01X816946Y-6410100D02*
G02X816946Y-6384700I0J12700D01*
G01X842854Y-6384700D01*
G02X842854Y-6410100I0J-12700D01*
G01X816946Y-6410100D01*
G37*
G36*
G01X1070946Y-9966100D02*
G02X1070946Y-9940700I0J12700D01*
G01X1096854Y-9940700D01*
G02X1096854Y-9966100I0J-12700D01*
G01X1070946Y-9966100D01*
G37*
G36*
G01X194146Y-4356100D02*
G02X194146Y-4330700I0J12700D01*
G01X220054Y-4330700D01*
G02X220054Y-4356100I0J-12700D01*
G01X194146Y-4356100D01*
G37*
G36*
G01X389546Y-4356100D02*
G02X389546Y-4330700I0J12700D01*
G01X415454Y-4330700D01*
G02X415454Y-4356100I0J-12700D01*
G01X389546Y-4356100D01*
G37*
G36*
G01X389546Y-3594100D02*
G02X389546Y-3568700I0J12700D01*
G01X415454Y-3568700D01*
G02X415454Y-3594100I0J-12700D01*
G01X389546Y-3594100D01*
G37*
G36*
G01X194146Y-3594100D02*
G02X194146Y-3568700I0J12700D01*
G01X220054Y-3568700D01*
G02X220054Y-3594100I0J-12700D01*
G01X194146Y-3594100D01*
G37*
G36*
G01X379546Y-6388100D02*
G02X379546Y-6362700I0J12700D01*
G01X405454Y-6362700D01*
G02X405454Y-6388100I0J-12700D01*
G01X379546Y-6388100D01*
G37*
G36*
G01X204146Y-6388100D02*
G02X204146Y-6362700I0J12700D01*
G01X230054Y-6362700D01*
G02X230054Y-6388100I0J-12700D01*
G01X204146Y-6388100D01*
G37*
G36*
G01X1012346Y-9966100D02*
G02X1012346Y-9940700I0J12700D01*
G01X1038254Y-9940700D01*
G02X1038254Y-9966100I0J-12700D01*
G01X1012346Y-9966100D01*
G37*
G36*
G01X1266346Y-9966100D02*
G02X1266346Y-9940700I0J12700D01*
G01X1292254Y-9940700D01*
G02X1292254Y-9966100I0J-12700D01*
G01X1266346Y-9966100D01*
G37*
G36*
G01X3609946Y-6413100D02*
G02X3609946Y-6387700I0J12700D01*
G01X3635854Y-6387700D01*
G02X3635854Y-6413100I0J-12700D01*
G01X3609946Y-6413100D01*
G37*
G36*
G01X4396397Y-1422400D02*
G02X4396397Y-1397000I0J12700D01*
G01X4422305Y-1397000D01*
G02X4422305Y-1422400I0J-12700D01*
G01X4396397Y-1422400D01*
G37*
G36*
G01X4218597Y-1422400D02*
G02X4218597Y-1397000I0J12700D01*
G01X4244505Y-1397000D01*
G02X4244505Y-1422400I0J-12700D01*
G01X4218597Y-1422400D01*
G37*
G36*
G01X4142397Y-1422400D02*
G02X4142397Y-1397000I0J12700D01*
G01X4168305Y-1397000D01*
G02X4168305Y-1422400I0J-12700D01*
G01X4142397Y-1422400D01*
G37*
G36*
G01X3964597Y-1422400D02*
G02X3964597Y-1397000I0J12700D01*
G01X3990505Y-1397000D01*
G02X3990505Y-1422400I0J-12700D01*
G01X3964597Y-1422400D01*
G37*
G36*
G01X4396397Y-1168400D02*
G02X4396397Y-1143000I0J12700D01*
G01X4422305Y-1143000D01*
G02X4422305Y-1168400I0J-12700D01*
G01X4396397Y-1168400D01*
G37*
G36*
G01X4218597Y-1168400D02*
G02X4218597Y-1143000I0J12700D01*
G01X4244505Y-1143000D01*
G02X4244505Y-1168400I0J-12700D01*
G01X4218597Y-1168400D01*
G37*
G36*
G01X4142397Y-1168400D02*
G02X4142397Y-1143000I0J12700D01*
G01X4168305Y-1143000D01*
G02X4168305Y-1168400I0J-12700D01*
G01X4142397Y-1168400D01*
G37*
G36*
G01X3964597Y-1168400D02*
G02X3964597Y-1143000I0J12700D01*
G01X3990505Y-1143000D01*
G02X3990505Y-1168400I0J-12700D01*
G01X3964597Y-1168400D01*
G37*
G36*
G01X4142397Y-914400D02*
G02X4142397Y-889000I0J12700D01*
G01X4168305Y-889000D01*
G02X4168305Y-914400I0J-12700D01*
G01X4142397Y-914400D01*
G37*
G36*
G01X3964597Y-914400D02*
G02X3964597Y-889000I0J12700D01*
G01X3990505Y-889000D01*
G02X3990505Y-914400I0J-12700D01*
G01X3964597Y-914400D01*
G37*
G36*
G01X4396397Y-914400D02*
G02X4396397Y-889000I0J12700D01*
G01X4422305Y-889000D01*
G02X4422305Y-914400I0J-12700D01*
G01X4396397Y-914400D01*
G37*
G36*
G01X4218597Y-914400D02*
G02X4218597Y-889000I0J12700D01*
G01X4244505Y-889000D01*
G02X4244505Y-914400I0J-12700D01*
G01X4218597Y-914400D01*
G37*
G36*
G01X4570546Y-3365500D02*
G02X4570546Y-3340100I0J12700D01*
G01X4596454Y-3340100D01*
G02X4596454Y-3365500I0J-12700D01*
G01X4570546Y-3365500D01*
G37*
G36*
G01X4395146Y-3365500D02*
G02X4395146Y-3340100I0J12700D01*
G01X4421054Y-3340100D01*
G02X4421054Y-3365500I0J-12700D01*
G01X4395146Y-3365500D01*
G37*
G36*
G01X4570546Y-4127500D02*
G02X4570546Y-4102100I0J12700D01*
G01X4596454Y-4102100D01*
G02X4596454Y-4127500I0J-12700D01*
G01X4570546Y-4127500D01*
G37*
G36*
G01X4395146Y-4127500D02*
G02X4395146Y-4102100I0J12700D01*
G01X4421054Y-4102100D01*
G02X4421054Y-4127500I0J-12700D01*
G01X4395146Y-4127500D01*
G37*
G36*
G01X4571746Y-9182100D02*
G02X4571746Y-9156700I0J12700D01*
G01X4597654Y-9156700D01*
G02X4597654Y-9182100I0J-12700D01*
G01X4571746Y-9182100D01*
G37*
G36*
G01X4393946Y-9182100D02*
G02X4393946Y-9156700I0J12700D01*
G01X4419854Y-9156700D01*
G02X4419854Y-9182100I0J-12700D01*
G01X4393946Y-9182100D01*
G37*
G36*
G01X4571746Y-8420100D02*
G02X4571746Y-8394700I0J12700D01*
G01X4597654Y-8394700D01*
G02X4597654Y-8420100I0J-12700D01*
G01X4571746Y-8420100D01*
G37*
G36*
G01X4393946Y-8420100D02*
G02X4393946Y-8394700I0J12700D01*
G01X4419854Y-8394700D01*
G02X4419854Y-8420100I0J-12700D01*
G01X4393946Y-8420100D01*
G37*
G36*
G01X4571746Y-7912100D02*
G02X4571746Y-7886700I0J12700D01*
G01X4597654Y-7886700D01*
G02X4597654Y-7912100I0J-12700D01*
G01X4571746Y-7912100D01*
G37*
G36*
G01X4393946Y-7912100D02*
G02X4393946Y-7886700I0J12700D01*
G01X4419854Y-7886700D01*
G02X4419854Y-7912100I0J-12700D01*
G01X4393946Y-7912100D01*
G37*
G36*
G01X4571746Y-6896100D02*
G02X4571746Y-6870700I0J12700D01*
G01X4597654Y-6870700D01*
G02X4597654Y-6896100I0J-12700D01*
G01X4571746Y-6896100D01*
G37*
G36*
G01X4393946Y-6896100D02*
G02X4393946Y-6870700I0J12700D01*
G01X4419854Y-6870700D01*
G02X4419854Y-6896100I0J-12700D01*
G01X4393946Y-6896100D01*
G37*
G36*
G01X4571746Y-6388100D02*
G02X4571746Y-6362700I0J12700D01*
G01X4597654Y-6362700D01*
G02X4597654Y-6388100I0J-12700D01*
G01X4571746Y-6388100D01*
G37*
G36*
G01X4393946Y-6388100D02*
G02X4393946Y-6362700I0J12700D01*
G01X4419854Y-6362700D01*
G02X4419854Y-6388100I0J-12700D01*
G01X4393946Y-6388100D01*
G37*
G36*
G01X4395146Y-2857500D02*
G02X4395146Y-2832100I0J12700D01*
G01X4421054Y-2832100D01*
G02X4421054Y-2857500I0J-12700D01*
G01X4395146Y-2857500D01*
G37*
G36*
G01X317500Y-7746054D02*
G02X292100Y-7746054I-12700J0D01*
G01X292100Y-7720146D01*
G02X317500Y-7720146I12700J0D01*
G01X317500Y-7746054D01*
G37*
G36*
G01X292100Y-7544746D02*
G02X317500Y-7544746I12700J0D01*
G01X317500Y-7570654D01*
G02X292100Y-7570654I-12700J0D01*
G01X292100Y-7544746D01*
G37*
G36*
G01X292100Y-7212146D02*
G02X317500Y-7212146I12700J0D01*
G01X317500Y-7238054D01*
G02X292100Y-7238054I-12700J0D01*
G01X292100Y-7212146D01*
G37*
G36*
G01X292100Y-8228146D02*
G02X317500Y-8228146I12700J0D01*
G01X317500Y-8254054D01*
G02X292100Y-8254054I-12700J0D01*
G01X292100Y-8228146D01*
G37*
G36*
G01X292100Y-4428146D02*
G02X317500Y-4428146I12700J0D01*
G01X317500Y-4454054D01*
G02X292100Y-4454054I-12700J0D01*
G01X292100Y-4428146D01*
G37*
G36*
G01X292100Y-6450146D02*
G02X317500Y-6450146I12700J0D01*
G01X317500Y-6476054D01*
G02X292100Y-6476054I-12700J0D01*
G01X292100Y-6450146D01*
G37*
G36*
G01X4508500Y-2770054D02*
G02X4483100Y-2770054I-12700J0D01*
G01X4483100Y-2744146D01*
G02X4508500Y-2744146I12700J0D01*
G01X4508500Y-2770054D01*
G37*
G36*
G01X4483100Y-2919546D02*
G02X4508500Y-2919546I12700J0D01*
G01X4508500Y-2945454D01*
G02X4483100Y-2945454I-12700J0D01*
G01X4483100Y-2919546D01*
G37*
G36*
G01X4333151Y-1333754D02*
G02X4307751Y-1333754I-12700J0D01*
G01X4307751Y-1307846D01*
G02X4333151Y-1307846I12700J0D01*
G01X4333151Y-1333754D01*
G37*
G36*
G01X4307751Y-1485646D02*
G02X4333151Y-1485646I12700J0D01*
G01X4333151Y-1511554D01*
G02X4307751Y-1511554I-12700J0D01*
G01X4307751Y-1485646D01*
G37*
G36*
G01X4079151Y-1333754D02*
G02X4053751Y-1333754I-12700J0D01*
G01X4053751Y-1307846D01*
G02X4079151Y-1307846I12700J0D01*
G01X4079151Y-1333754D01*
G37*
G36*
G01X4053751Y-1485646D02*
G02X4079151Y-1485646I12700J0D01*
G01X4079151Y-1511554D01*
G02X4053751Y-1511554I-12700J0D01*
G01X4053751Y-1485646D01*
G37*
G36*
G01X4333151Y-1079754D02*
G02X4307751Y-1079754I-12700J0D01*
G01X4307751Y-1053846D01*
G02X4333151Y-1053846I12700J0D01*
G01X4333151Y-1079754D01*
G37*
G36*
G01X4307751Y-1231646D02*
G02X4333151Y-1231646I12700J0D01*
G01X4333151Y-1257554D01*
G02X4307751Y-1257554I-12700J0D01*
G01X4307751Y-1231646D01*
G37*
G36*
G01X4079151Y-1079754D02*
G02X4053751Y-1079754I-12700J0D01*
G01X4053751Y-1053846D01*
G02X4079151Y-1053846I12700J0D01*
G01X4079151Y-1079754D01*
G37*
G36*
G01X4053751Y-1231646D02*
G02X4079151Y-1231646I12700J0D01*
G01X4079151Y-1257554D01*
G02X4053751Y-1257554I-12700J0D01*
G01X4053751Y-1231646D01*
G37*
G36*
G01X4079151Y-825754D02*
G02X4053751Y-825754I-12700J0D01*
G01X4053751Y-799846D01*
G02X4079151Y-799846I12700J0D01*
G01X4079151Y-825754D01*
G37*
G36*
G01X4053751Y-977646D02*
G02X4079151Y-977646I12700J0D01*
G01X4079151Y-1003554D01*
G02X4053751Y-1003554I-12700J0D01*
G01X4053751Y-977646D01*
G37*
G36*
G01X4333151Y-825754D02*
G02X4307751Y-825754I-12700J0D01*
G01X4307751Y-799846D01*
G02X4333151Y-799846I12700J0D01*
G01X4333151Y-825754D01*
G37*
G36*
G01X4307751Y-977646D02*
G02X4333151Y-977646I12700J0D01*
G01X4333151Y-1003554D01*
G02X4307751Y-1003554I-12700J0D01*
G01X4307751Y-977646D01*
G37*
G36*
G01X317500Y-4258654D02*
G02X292100Y-4258654I-12700J0D01*
G01X292100Y-4232746D01*
G02X317500Y-4232746I12700J0D01*
G01X317500Y-4258654D01*
G37*
G36*
G01X317500Y-3496654D02*
G02X292100Y-3496654I-12700J0D01*
G01X292100Y-3470746D01*
G02X317500Y-3470746I12700J0D01*
G01X317500Y-3496654D01*
G37*
G36*
G01X292100Y-3666146D02*
G02X317500Y-3666146I12700J0D01*
G01X317500Y-3692054D01*
G02X292100Y-3692054I-12700J0D01*
G01X292100Y-3666146D01*
G37*
G36*
G01X914900Y-10038146D02*
G02X940300Y-10038146I12700J0D01*
G01X940300Y-10064054D01*
G02X914900Y-10064054I-12700J0D01*
G01X914900Y-10038146D01*
G37*
G36*
G01X940300Y-9868654D02*
G02X914900Y-9868654I-12700J0D01*
G01X914900Y-9842746D01*
G02X940300Y-9842746I12700J0D01*
G01X940300Y-9868654D01*
G37*
G36*
G01X914900Y-6482146D02*
G02X940300Y-6482146I12700J0D01*
G01X940300Y-6508054D01*
G02X914900Y-6508054I-12700J0D01*
G01X914900Y-6482146D01*
G37*
G36*
G01X940300Y-6312654D02*
G02X914900Y-6312654I-12700J0D01*
G01X914900Y-6286746D01*
G02X940300Y-6286746I12700J0D01*
G01X940300Y-6312654D01*
G37*
G36*
G01X317500Y-6300654D02*
G02X292100Y-6300654I-12700J0D01*
G01X292100Y-6274746D01*
G02X317500Y-6274746I12700J0D01*
G01X317500Y-6300654D01*
G37*
G36*
G01X317500Y-7062654D02*
G02X292100Y-7062654I-12700J0D01*
G01X292100Y-7036746D01*
G02X317500Y-7036746I12700J0D01*
G01X317500Y-7062654D01*
G37*
G36*
G01X317500Y-8078654D02*
G02X292100Y-8078654I-12700J0D01*
G01X292100Y-8052746D01*
G02X317500Y-8052746I12700J0D01*
G01X317500Y-8078654D01*
G37*
G36*
G01X1168900Y-10038146D02*
G02X1194300Y-10038146I12700J0D01*
G01X1194300Y-10064054D01*
G02X1168900Y-10064054I-12700J0D01*
G01X1168900Y-10038146D01*
G37*
G36*
G01X1194300Y-9868654D02*
G02X1168900Y-9868654I-12700J0D01*
G01X1168900Y-9842746D01*
G02X1194300Y-9842746I12700J0D01*
G01X1194300Y-9868654D01*
G37*
G36*
G01X2679700Y-10794746D02*
G02X2705100Y-10794746I12700J0D01*
G01X2705100Y-10820654D01*
G02X2679700Y-10820654I-12700J0D01*
G01X2679700Y-10794746D01*
G37*
G36*
G01X2705100Y-10642854D02*
G02X2679700Y-10642854I-12700J0D01*
G01X2679700Y-10616946D01*
G02X2705100Y-10616946I12700J0D01*
G01X2705100Y-10642854D01*
G37*
G36*
G01X3707900Y-10041146D02*
G02X3733300Y-10041146I12700J0D01*
G01X3733300Y-10067054D01*
G02X3707900Y-10067054I-12700J0D01*
G01X3707900Y-10041146D01*
G37*
G36*
G01X3733300Y-9871654D02*
G02X3707900Y-9871654I-12700J0D01*
G01X3707900Y-9845746D01*
G02X3733300Y-9845746I12700J0D01*
G01X3733300Y-9871654D01*
G37*
G36*
G01X3707900Y-9787146D02*
G02X3733300Y-9787146I12700J0D01*
G01X3733300Y-9813054D01*
G02X3707900Y-9813054I-12700J0D01*
G01X3707900Y-9787146D01*
G37*
G36*
G01X3733300Y-9617654D02*
G02X3707900Y-9617654I-12700J0D01*
G01X3707900Y-9591746D01*
G02X3733300Y-9591746I12700J0D01*
G01X3733300Y-9617654D01*
G37*
G36*
G01X3707900Y-6485146D02*
G02X3733300Y-6485146I12700J0D01*
G01X3733300Y-6511054D01*
G02X3707900Y-6511054I-12700J0D01*
G01X3707900Y-6485146D01*
G37*
G36*
G01X3733300Y-6315654D02*
G02X3707900Y-6315654I-12700J0D01*
G01X3707900Y-6289746D01*
G02X3733300Y-6289746I12700J0D01*
G01X3733300Y-6315654D01*
G37*
G36*
G01X3707900Y-9533146D02*
G02X3733300Y-9533146I12700J0D01*
G01X3733300Y-9559054D01*
G02X3707900Y-9559054I-12700J0D01*
G01X3707900Y-9533146D01*
G37*
G36*
G01X3733300Y-9363654D02*
G02X3707900Y-9363654I-12700J0D01*
G01X3707900Y-9337746D01*
G02X3733300Y-9337746I12700J0D01*
G01X3733300Y-9363654D01*
G37*
G36*
G01X4508500Y-3278054D02*
G02X4483100Y-3278054I-12700J0D01*
G01X4483100Y-3252146D01*
G02X4508500Y-3252146I12700J0D01*
G01X4508500Y-3278054D01*
G37*
G36*
G01X4483100Y-3427546D02*
G02X4508500Y-3427546I12700J0D01*
G01X4508500Y-3453454D01*
G02X4483100Y-3453454I-12700J0D01*
G01X4483100Y-3427546D01*
G37*
G36*
G01X4508500Y-4040054D02*
G02X4483100Y-4040054I-12700J0D01*
G01X4483100Y-4014146D01*
G02X4508500Y-4014146I12700J0D01*
G01X4508500Y-4040054D01*
G37*
G36*
G01X4483100Y-4189546D02*
G02X4508500Y-4189546I12700J0D01*
G01X4508500Y-4215454D01*
G02X4483100Y-4215454I-12700J0D01*
G01X4483100Y-4189546D01*
G37*
G36*
G01X4508500Y-9093454D02*
G02X4483100Y-9093454I-12700J0D01*
G01X4483100Y-9067546D01*
G02X4508500Y-9067546I12700J0D01*
G01X4508500Y-9093454D01*
G37*
G36*
G01X4483100Y-9245346D02*
G02X4508500Y-9245346I12700J0D01*
G01X4508500Y-9271254D01*
G02X4483100Y-9271254I-12700J0D01*
G01X4483100Y-9245346D01*
G37*
G36*
G01X4508500Y-8331454D02*
G02X4483100Y-8331454I-12700J0D01*
G01X4483100Y-8305546D01*
G02X4508500Y-8305546I12700J0D01*
G01X4508500Y-8331454D01*
G37*
G36*
G01X4483100Y-8483346D02*
G02X4508500Y-8483346I12700J0D01*
G01X4508500Y-8509254D01*
G02X4483100Y-8509254I-12700J0D01*
G01X4483100Y-8483346D01*
G37*
G36*
G01X4508500Y-7823454D02*
G02X4483100Y-7823454I-12700J0D01*
G01X4483100Y-7797546D01*
G02X4508500Y-7797546I12700J0D01*
G01X4508500Y-7823454D01*
G37*
G36*
G01X4483100Y-7975346D02*
G02X4508500Y-7975346I12700J0D01*
G01X4508500Y-8001254D01*
G02X4483100Y-8001254I-12700J0D01*
G01X4483100Y-7975346D01*
G37*
G36*
G01X4508500Y-6807454D02*
G02X4483100Y-6807454I-12700J0D01*
G01X4483100Y-6781546D01*
G02X4508500Y-6781546I12700J0D01*
G01X4508500Y-6807454D01*
G37*
G36*
G01X4483100Y-6959346D02*
G02X4508500Y-6959346I12700J0D01*
G01X4508500Y-6985254D01*
G02X4483100Y-6985254I-12700J0D01*
G01X4483100Y-6959346D01*
G37*
G36*
G01X4508500Y-6299454D02*
G02X4483100Y-6299454I-12700J0D01*
G01X4483100Y-6273546D01*
G02X4508500Y-6273546I12700J0D01*
G01X4508500Y-6299454D01*
G37*
G36*
G01X4483100Y-6451346D02*
G02X4508500Y-6451346I12700J0D01*
G01X4508500Y-6477254D01*
G02X4483100Y-6477254I-12700J0D01*
G01X4483100Y-6451346D01*
G37*
G04 PlaneZone End*

G04 Pad Start*
G54D10*
G01X2692400Y-10718800D03*
G01X2514600Y-10718800D03*
G01X2336800Y-10718800D03*
G01X1803400Y-10718800D03*
G01X1981200Y-10718800D03*
G01X2159000Y-10718800D03*
G01X2870200Y-10718800D03*
G54D11*
G01X304800Y-6375400D03*
G54D12*
G01X304800Y-6629400D03*
G01X304800Y-6883400D03*
G01X304800Y-7137400D03*
G01X304800Y-7391400D03*
G01X304800Y-7645400D03*
G01X304800Y-7899400D03*
G01X304800Y-8153400D03*
G54D10*
G01X4320451Y-647700D03*
G01X4066451Y-647700D03*
G01X4320451Y-901700D03*
G01X4066451Y-901700D03*
G01X4320451Y-1155700D03*
G01X4066451Y-1155700D03*
G01X4320451Y-1409700D03*
G01X4066451Y-1409700D03*
G01X4320451Y-1663700D03*
G01X4066451Y-1663700D03*
G54D13*
G01X3974600Y-6400400D03*
G01X3720600Y-6400400D03*
G01X3974600Y-6654400D03*
G01X3720600Y-6654400D03*
G01X3974600Y-6908400D03*
G01X3720600Y-6908400D03*
G01X3974600Y-7162400D03*
G01X3720600Y-7162400D03*
G01X3974600Y-7416400D03*
G01X3720600Y-7416400D03*
G01X3974600Y-7670400D03*
G01X3720600Y-7670400D03*
G01X3974600Y-7924400D03*
G01X3720600Y-7924400D03*
G01X3974600Y-8178400D03*
G01X3720600Y-8178400D03*
G01X3974600Y-8432400D03*
G01X3720600Y-8432400D03*
G01X3974600Y-8686400D03*
G01X3720600Y-8686400D03*
G01X3974600Y-8940400D03*
G01X3720600Y-8940400D03*
G01X3974600Y-9194400D03*
G01X3720600Y-9194400D03*
G01X3974600Y-9448400D03*
G01X3720600Y-9448400D03*
G01X3974600Y-9702400D03*
G01X3720600Y-9702400D03*
G01X3974600Y-9956400D03*
G01X3720600Y-9956400D03*
G01X1181600Y-6397400D03*
G01X927600Y-6397400D03*
G01X1181600Y-6651400D03*
G01X927600Y-6651400D03*
G01X1181600Y-6905400D03*
G01X927600Y-6905400D03*
G01X1181600Y-7159400D03*
G01X927600Y-7159400D03*
G01X1181600Y-7413400D03*
G01X927600Y-7413400D03*
G01X1181600Y-7667400D03*
G01X927600Y-7667400D03*
G01X1181600Y-7921400D03*
G01X927600Y-7921400D03*
G01X1181600Y-8175400D03*
G01X927600Y-8175400D03*
G01X1181600Y-8429400D03*
G01X927600Y-8429400D03*
G01X1181600Y-8683400D03*
G01X927600Y-8683400D03*
G01X1181600Y-8937400D03*
G01X927600Y-8937400D03*
G01X1181600Y-9191400D03*
G01X927600Y-9191400D03*
G01X1181600Y-9445400D03*
G01X927600Y-9445400D03*
G01X1181600Y-9699400D03*
G01X927600Y-9699400D03*
G01X1181600Y-9953400D03*
G01X927600Y-9953400D03*
G54D14*
G01X304800Y-3581400D03*
G54D13*
G01X304800Y-3835400D03*
G01X304800Y-4089400D03*
G01X304800Y-4343400D03*
G54D11*
G01X4495800Y-2336800D03*
G54D12*
G01X4495800Y-2590800D03*
G01X4495800Y-2844800D03*
G01X4495800Y-3098800D03*
G01X4495800Y-3352800D03*
G01X4495800Y-3606800D03*
G01X4495800Y-3860800D03*
G01X4495800Y-4114800D03*
G54D10*
G01X4495800Y-9169400D03*
G01X4495800Y-8915400D03*
G01X4495800Y-8661400D03*
G01X4495800Y-8407400D03*
G01X4495800Y-8153400D03*
G01X4495800Y-7899400D03*
G01X4495800Y-7645400D03*
G01X4495800Y-7391400D03*
G01X4495800Y-7137400D03*
G01X4495800Y-6883400D03*
G01X4495800Y-6629400D03*
G54D15*
G01X4495800Y-6375400D03*
G04 Pad End*

G04 Via Start*
G54D17*
G01X2863646Y-98265D03*
G01X2768282Y-98265D03*
G01X2866746Y-615721D03*
G01X2772500Y-610390D03*
G01X2487408Y-215900D03*
G01X2032000Y-685800D03*
G01X2032000Y-757733D03*
G01X1955800Y-685800D03*
G01X1955800Y-758908D03*
G01X2076594Y-1555344D03*
G01X2076594Y-1627276D03*
G01X2000394Y-1555344D03*
G01X2000394Y-1628452D03*
G01X2432488Y-2070101D03*
G01X2718087Y-1680452D03*
G01X2815083Y-1680452D03*
G01X2717800Y-2184400D03*
G01X2819400Y-2184400D03*
G01X1447800Y-876300D03*
G01X1447800Y-800100D03*
G01X1447800Y-952500D03*
G01X1752600Y-419100D03*
G01X1676400Y-419100D03*
G01X1597623Y-419100D03*
G01X2819400Y-1933903D03*
G01X2867082Y-366858D03*
G01X2771718Y-366858D03*
G01X2717334Y-1931884D03*
G01X108966Y-241300D03*
G01X134915Y-457200D03*
G01X152400Y-685800D03*
G01X1117600Y-787400D03*
G01X1041400Y-787400D03*
G01X1432570Y-2900945D03*
G01X1432570Y-2496145D03*
G01X2596149Y-2920294D03*
G01X2596149Y-2513894D03*
G01X3503709Y-3047294D03*
G01X1542241Y-3069162D03*
G01X2675475Y-3069568D03*
G01X2639608Y-3377494D03*
G01X1493863Y-3385248D03*
G01X2384787Y-3041302D03*
G01X3098800Y-3175000D03*
G01X3200400Y-3175000D03*
G01X1979878Y-3169008D03*
G01X2081478Y-3169008D03*
G01X1709123Y-5113754D03*
G01X1246068Y-5151806D03*
G01X1316191Y-5151806D03*
G01X2336800Y-5232400D03*
G01X2032000Y-4909040D03*
G01X2235200Y-4910391D03*
G01X1386891Y-4673600D03*
G01X1054211Y-4826000D03*
G01X1051811Y-5029200D03*
G01X449600Y-4651129D03*
G01X2354189Y-5689599D03*
G01X2354972Y-5461000D03*
G01X1776900Y-5944679D03*
G01X1581899Y-5946502D03*
G01X1321900Y-5947023D03*
G01X1256900Y-5947023D03*
G01X762000Y-5156200D03*
G01X1255675Y-4077295D03*
G01X457200Y-3344124D03*
G01X584200Y-3122989D03*
G01X1498600Y-4165600D03*
G01X1314075Y-3459655D03*
G01X1168400Y-2948605D03*
G01X2748086Y-4018894D03*
G01X2870200Y-3759560D03*
G01X2603500Y-4146444D03*
G01X3606800Y-5207000D03*
G01X3505200Y-4879778D03*
G01X2895599Y-4879777D03*
G01X2590801Y-5257611D03*
G01X3302000Y-4878680D03*
G01X3098800Y-4875967D03*
G01X4213205Y-4346595D03*
G01X4216400Y-3865517D03*
G01X4241800Y-5184221D03*
G01X3112599Y-4594900D03*
G01X3225800Y-3882462D03*
G01X101600Y-2895600D03*
G01X177800Y-2895600D03*
G01X3225800Y-4291727D03*
G01X2895600Y-5301760D03*
G01X2231779Y-6019800D03*
G01X1905000Y-6121400D03*
G01X3026689Y-6502400D03*
G01X3225800Y-6705600D03*
G01X3403600Y-8509000D03*
G01X3530600Y-8610600D03*
G01X3327400Y-8407400D03*
G01X3302000Y-8280400D03*
G01X3403600Y-8737600D03*
G01X3302000Y-8610600D03*
G01X3200400Y-8534400D03*
G01X3149600Y-8432800D03*
G01X4099814Y-294640D03*
G01X335814Y-3386442D03*
G01X335814Y-3086442D03*
G01X335814Y-2862642D03*
G01X335814Y-2562643D03*
G01X335814Y-2262643D03*
G01X335814Y-1962643D03*
G01X335814Y-1662643D03*
G01X335814Y-1362643D03*
G01X335814Y-1062643D03*
G01X335814Y-6162641D03*
G01X335814Y-5862642D03*
G01X335814Y-5562642D03*
G01X335814Y-5262642D03*
G01X335814Y-4962642D03*
G01X335814Y-4662642D03*
G01X335814Y-10662640D03*
G01X335814Y-10362640D03*
G01X335814Y-10062640D03*
G01X335814Y-9462640D03*
G01X335814Y-9162641D03*
G01X335814Y-8862641D03*
G01X335814Y-8562641D03*
G01X335814Y-8262641D03*
G01X635814Y-162643D03*
G01X635814Y-2262643D03*
G01X635814Y-1962643D03*
G01X635814Y-1662643D03*
G01X635814Y-1362643D03*
G01X635814Y-1062643D03*
G01X635814Y-2862642D03*
G01X635814Y-2562643D03*
G01X635814Y-10062640D03*
G01X635814Y-9462640D03*
G01X635814Y-9162641D03*
G01X635814Y-8862641D03*
G01X635814Y-8562641D03*
G01X635814Y-8262641D03*
G01X635814Y-7962641D03*
G01X635814Y-7662641D03*
G01X635814Y-7362641D03*
G01X635814Y-6462641D03*
G01X635814Y-6162641D03*
G01X635814Y-5862642D03*
G01X635814Y-10662640D03*
G01X935814Y-162643D03*
G01X935814Y-1962643D03*
G01X935814Y-1662643D03*
G01X935814Y-1362643D03*
G01X935814Y-1062643D03*
G01X935814Y-2862642D03*
G01X935814Y-2562643D03*
G01X935814Y-2262643D03*
G01X935814Y-10362640D03*
G01X935814Y-6162641D03*
G01X1235814Y-1662643D03*
G01X1235814Y-1362643D03*
G01X1235814Y-1062643D03*
G01X1235814Y-762643D03*
G01X1235814Y-2262643D03*
G01X1235814Y-1962643D03*
G01X1235814Y-4662642D03*
G01X1235814Y-4362642D03*
G01X1235814Y-10662640D03*
G01X1235814Y-10362640D03*
G01X1235814Y-10062640D03*
G01X1235814Y-6162641D03*
G01X1535814Y-1362643D03*
G01X1535814Y-1062643D03*
G01X1535814Y-4662642D03*
G01X1535814Y-4362642D03*
G01X1535814Y-4062642D03*
G01X1535814Y-3762642D03*
G01X1535814Y-2562643D03*
G01X1535814Y-2262643D03*
G01X1535814Y-1962643D03*
G01X1535814Y-1662643D03*
G01X1535814Y-8862641D03*
G01X1535814Y-8262641D03*
G01X1535814Y-7962641D03*
G01X1535814Y-5562642D03*
G01X1835813Y-1062643D03*
G01X1835813Y-4662642D03*
G01X1835813Y-4362642D03*
G01X1835813Y-4062642D03*
G01X1835813Y-3762642D03*
G01X1835813Y-2862642D03*
G01X1835813Y-2562643D03*
G01X1835813Y-2262643D03*
G01X1835813Y-1662643D03*
G01X1835813Y-1362643D03*
G01X1835813Y-8562641D03*
G01X1835813Y-8262641D03*
G01X1835813Y-7962641D03*
G01X1835813Y-7662641D03*
G01X1835813Y-7362641D03*
G01X1835813Y-7062641D03*
G01X1835813Y-6762641D03*
G01X1835813Y-6462641D03*
G01X1835813Y-5562642D03*
G01X2135813Y-462643D03*
G01X2135813Y-4962642D03*
G01X2135813Y-4662642D03*
G01X2135813Y-4362642D03*
G01X2135813Y-4062642D03*
G01X2135813Y-3762642D03*
G01X2135813Y-3462642D03*
G01X2135813Y-2862642D03*
G01X2135813Y-2562643D03*
G01X2135813Y-2262643D03*
G01X2135813Y-1362643D03*
G01X2135813Y-8262641D03*
G01X2135813Y-7962641D03*
G01X2135813Y-7662641D03*
G01X2135813Y-7362641D03*
G01X2135813Y-7062641D03*
G01X2135813Y-6762641D03*
G01X2135813Y-6462641D03*
G01X2135813Y-6162641D03*
G01X2135813Y-5862642D03*
G01X2435813Y-162643D03*
G01X2435813Y-7962641D03*
G01X2435813Y-7662641D03*
G01X2435813Y-7362641D03*
G01X2435813Y-7062641D03*
G01X2435813Y-6762641D03*
G01X2435813Y-6462641D03*
G01X2435813Y-6162641D03*
G01X2435813Y-5862642D03*
G01X2435813Y-5562642D03*
G01X2435813Y-5262642D03*
G01X2435813Y-4962642D03*
G01X2435813Y-4662642D03*
G01X2435813Y-4362642D03*
G01X2435813Y-4062642D03*
G01X2435813Y-2262643D03*
G01X2435813Y-1362643D03*
G01X2735813Y-10362640D03*
G01X2659613Y-7662641D03*
G01X2735813Y-7362641D03*
G01X2735813Y-7062641D03*
G01X2735813Y-6762641D03*
G01X2735813Y-6462641D03*
G01X2735813Y-6162641D03*
G01X2735813Y-5862642D03*
G01X2735813Y-5562642D03*
G01X2735813Y-5262642D03*
G01X2735813Y-3762642D03*
G01X2735813Y-2862642D03*
G01X2735813Y-2562643D03*
G01X2735813Y-1362643D03*
G01X2735813Y-1062643D03*
G01X3035813Y-10362640D03*
G01X3035813Y-10062640D03*
G01X3035813Y-9762640D03*
G01X3035813Y-9462640D03*
G01X3035813Y-4362642D03*
G01X3035813Y-4062642D03*
G01X3035813Y-3762642D03*
G01X3035813Y-2862642D03*
G01X3035813Y-2562643D03*
G01X3035813Y-2262643D03*
G01X3035813Y-1662643D03*
G01X3035813Y-10662640D03*
G01X3335813Y-10062640D03*
G01X3335813Y-9762640D03*
G01X3335813Y-9462640D03*
G01X3335813Y-9162641D03*
G01X3031013Y-7388041D03*
G01X3412013Y-7037241D03*
G01X3335813Y-6762641D03*
G01X3335813Y-6462641D03*
G01X3335813Y-6162641D03*
G01X3335813Y-5862642D03*
G01X3335813Y-3762642D03*
G01X3335813Y-3462642D03*
G01X3335813Y-3162642D03*
G01X3335813Y-2862642D03*
G01X3335813Y-2562643D03*
G01X3335813Y-2262643D03*
G01X3335813Y-462643D03*
G01X3335813Y-162643D03*
G01X3335813Y-10362640D03*
G01X3635813Y-6162641D03*
G01X3635813Y-5862642D03*
G01X3635813Y-3762642D03*
G01X3635813Y-3462642D03*
G01X3635813Y-3162642D03*
G01X3635813Y-2862642D03*
G01X3635813Y-2562643D03*
G01X3635813Y-2262643D03*
G01X3635813Y-1662643D03*
G01X3635813Y-1062643D03*
G01X3635813Y-762643D03*
G01X3635813Y-10062640D03*
G01X3610413Y-10611840D03*
G01X3935813Y-6162641D03*
G01X3935813Y-5862642D03*
G01X3935813Y-5562642D03*
G01X3935813Y-5262642D03*
G01X3935813Y-4962642D03*
G01X3935813Y-4062642D03*
G01X3935813Y-3762642D03*
G01X3935813Y-3462642D03*
G01X3935813Y-3162642D03*
G01X3935813Y-2862642D03*
G01X3935813Y-2562643D03*
G01X3935813Y-1362643D03*
G01X3935813Y-1062643D03*
G01X3935813Y-10662640D03*
G01X3935813Y-10362640D03*
G01X4235813Y-10662640D03*
G01X4235813Y-10362640D03*
G01X4235813Y-10062640D03*
G01X4235813Y-9762640D03*
G01X4235813Y-9462640D03*
G01X4235813Y-9162641D03*
G01X4235813Y-8862641D03*
G01X4235813Y-6762641D03*
G01X4235813Y-6462641D03*
G01X4235813Y-6162641D03*
G01X4235813Y-5862642D03*
G01X4235813Y-5562642D03*
G01X4235813Y-5262642D03*
G01X4235813Y-2262643D03*
G01X4235813Y-1062643D03*
G01X4535813Y-10662640D03*
G01X4535813Y-10362640D03*
G01X4535813Y-10062640D03*
G01X4535813Y-9762640D03*
G01X4535813Y-9462640D03*
G01X4535813Y-6162641D03*
G01X4535813Y-5862642D03*
G01X4535813Y-5562642D03*
G01X4535813Y-5262642D03*
G01X4535813Y-4962642D03*
G01X4535813Y-4662642D03*
G01X4535813Y-3462642D03*
G01X4535813Y-1362643D03*
G01X4535813Y-1062643D03*
G01X1859213Y-8983986D03*
G01X2159213Y-8683986D03*
G01X2459213Y-8383986D03*
G01X2657613Y-8033186D03*
G01X3059213Y-7783986D03*
G01X1583827Y-10497286D03*
G01X1583827Y-10197286D03*
G01X1583827Y-9897286D03*
G01X1583827Y-9597286D03*
G01X2685314Y-9750654D03*
G01X2685314Y-9450654D03*
G01X2159000Y-9753600D03*
G01X2159000Y-10363200D03*
G01X1905000Y-9880600D03*
G01X1905000Y-10363200D03*
G01X3556000Y-8229600D03*
G01X3548400Y-7747000D03*
G01X3581400Y-5461000D03*
G01X1854200Y-9448800D03*
G01X2108200Y-9220200D03*
G01X2387600Y-8966200D03*
G01X3073400Y-8255000D03*
G01X2844800Y-8483600D03*
G01X2590800Y-8737600D03*
G01X2159000Y-10058400D03*
G01X2463800Y-9702800D03*
G01X2440600Y-9998408D03*
G01X2438400Y-10566400D03*
G01X2260600Y-10845800D03*
G01X2641600Y-10845800D03*
G01X1422400Y-9194800D03*
G01X2362200Y-3606800D03*
G01X2540000Y-3606800D03*
G01X584200Y-6959600D03*
G01X152400Y-9753600D03*
G01X177800Y-9245600D03*
G01X177800Y-8940800D03*
G01X177800Y-8663107D03*
G01X152400Y-10210800D03*
G01X152400Y-10518543D03*
G01X152400Y-10820400D03*
G01X482600Y-10820400D03*
G01X863600Y-10820400D03*
G01X1397000Y-7137400D03*
G01X1397000Y-7442200D03*
G01X838200Y-5334000D03*
G01X1117600Y-5207000D03*
G01X795339Y-3935319D03*
G01X1092200Y-3911600D03*
G01X508000Y-3683000D03*
G01X4216400Y-3302000D03*
G01X4216400Y-2819400D03*
G01X4648200Y-1803400D03*
G01X4648200Y-355600D03*
G01X4368800Y-76200D03*
G01X4013200Y-76200D03*
G01X3657600Y-76200D03*
G01X1701800Y-76200D03*
G01X2209800Y-76200D03*
G01X1193800Y-76200D03*
G01X635000Y-330200D03*
G01X889000Y-304800D03*
G01X3784600Y-4470400D03*
G01X3753816Y-4240492D03*
G01X4089400Y-8051800D03*
G01X3556000Y-8051800D03*
G01X3556000Y-7569200D03*
G01X3276600Y-10845800D03*
G01X3606800Y-10845800D03*
G01X3302000Y-8712200D03*
G01X2921000Y-9093200D03*
G01X3225800Y-1524000D03*
G01X3149600Y-1143000D03*
G01X2235200Y-939800D03*
G01X2616200Y-457200D03*
G01X1447800Y-5969000D03*
G01X1447800Y-6985000D03*
G01X4151600Y-7646876D03*
G01X4699000Y-7239000D03*
G01X4699000Y-7518400D03*
G01X4241800Y-7008726D03*
G01X4114600Y-7008726D03*
G01X3358057Y-7228290D03*
G04 Via End*

M02*

