G04 Layer: TopSolderMaskLayer*
G04 EasyEDA Pro v3.2.149.88089769, 2026-07-14 20:31:44*
G04 Gerber Generator version 0.3*
G04 Scale: 100 percent, Rotated: No, Reflected: No*
G04 Dimensions in millimeters*
G04 Leading zeros omitted, absolute positions, 4 integers and 5 decimals*
G04 Generated by one-click*
G04 Object Configs: Pad,Via,Track,Text,Image,Dimension,BoardOutline,BoardCutout,CopperFilled,SolidRegion,FPCStiffener,Line,PlaneZone,ComponentProperty,ComponentSilkscreen,TearDrop*
G04 Layer Configs: 1,15,16,2,3,4,5,6,7,8,9,10,11,13,14,71,72,56*
G04 Copper Areas: 0*
%FSLAX45Y45*%
%MOMM*%
%AMRoundRect*1,1,$1,$2,$3*1,1,$1,$4,$5*1,1,$1,0-$2,0-$3*1,1,$1,0-$4,0-$5*20,1,$1,$2,$3,$4,$5,0*20,1,$1,$4,$5,0-$2,0-$3,0*20,1,$1,0-$2,0-$3,0-$4,0-$5,0*20,1,$1,0-$4,0-$5,$2,$3,0*4,1,4,$2,$3,$4,$5,0-$2,0-$3,0-$4,0-$5,$2,$3,0*%
%ADD10C,1.6256*%
%ADD11RoundRect,0.1016X-0.675X-0.705X-0.675X0.705*%
%ADD12RoundRect,0.1016X-0.705X0.67501X0.705X0.67501*%
%ADD13RoundRect,0.1016X-1.75X0.6X1.75X0.6*%
%ADD14RoundRect,0.1016X-1.35X-0.8175X-1.35X0.8175*%
%ADD15RoundRect,0.1016X-0.9X0.85X0.9X0.85*%
%ADD16RoundRect,0.1016X-0.5X0.75X0.5X0.75*%
%ADD17RoundRect,0.1016X-0.75X-0.75X-0.75X0.75*%
%ADD18C,1.6016*%
%ADD19RoundRect,0.1027X-0.56627X0.68851X0.56627X0.68851*%
%ADD20RoundRect,0.1016X-0.56627X0.68851X0.56627X0.68851*%
%ADD21RoundRect,0.1016X-0.37501X-1.15X-0.37501X1.15*%
%ADD22C,1.624*%
%ADD23RoundRect,0.1016X-0.68851X-0.56627X-0.68851X0.56627*%
%ADD24C,1.7*%
%ADD25O,0.6606X1.2956*%
%ADD26O,0.46561X1.84361*%
%ADD27O,0.46561X1.7636*%
%ADD28O,2.1466X0.68961*%
%ADD29RoundRect,0.1016X-0.536X-0.266X-0.536X0.266*%
%ADD30RoundRect,0.10003X-0.5X-0.3X-0.5X0.3*%
%ADD31O,0.68961X2.1466*%
%ADD32RoundRect,0.1016X-0.85X-0.85X-0.85X0.85*%
%ADD33C,1.8016*%
%ADD34RoundRect,0.1016X-0.762X-0.762X-0.762X0.762*%
G75*


G04 Pad Start*
G54D10*
G01X2692400Y-10718800D03*
G01X2514600Y-10718800D03*
G01X2336800Y-10718800D03*
G01X1803400Y-10718800D03*
G01X1981200Y-10718800D03*
G01X2159000Y-10718800D03*
G01X2870200Y-10718800D03*
G54D11*
G01X4216400Y-4014800D03*
G01X4216400Y-4214800D03*
G01X3225800Y-4421200D03*
G01X3225800Y-4621200D03*
G01X2590800Y-4929200D03*
G01X2590800Y-5129200D03*
G01X3098800Y-5205400D03*
G01X3098800Y-5005400D03*
G01X2870200Y-4062400D03*
G01X2870200Y-3862400D03*
G54D12*
G01X2805100Y-215900D03*
G01X2605100Y-215900D03*
G01X2554300Y-2070100D03*
G01X2754300Y-2070100D03*
G54D13*
G01X2234913Y-723887D03*
G01X2768897Y-723887D03*
G01X2768887Y-1587513D03*
G01X2234903Y-1587513D03*
G54D11*
G01X1066800Y-458800D03*
G01X1066800Y-658800D03*
G54D12*
G01X573100Y-914400D03*
G01X773100Y-914400D03*
G01X230200Y-228600D03*
G01X430200Y-228600D03*
G54D14*
G01X1676400Y-559460D03*
G01X1676400Y-862940D03*
G54D11*
G01X2590800Y-2817800D03*
G01X2590800Y-2617800D03*
G54D12*
G01X3151200Y-3048000D03*
G01X3351200Y-3048000D03*
G54D11*
G01X1421078Y-2811807D03*
G01X1421078Y-2611808D03*
G54D12*
G01X2032278Y-3042008D03*
G01X2232277Y-3042008D03*
G54D11*
G01X2895600Y-5205400D03*
G01X2895600Y-5005400D03*
G01X584200Y-3252800D03*
G01X584200Y-3452800D03*
G54D12*
G01X1370000Y-4165600D03*
G01X1170000Y-4165600D03*
G01X585800Y-4648200D03*
G01X785800Y-4648200D03*
G54D11*
G01X1168400Y-3656000D03*
G01X1168400Y-3456000D03*
G01X2235200Y-5230800D03*
G01X2235200Y-5030800D03*
G54D12*
G01X1370000Y-4826000D03*
G01X1170000Y-4826000D03*
G54D11*
G01X2032000Y-5230800D03*
G01X2032000Y-5030800D03*
G54D12*
G01X1370000Y-5029200D03*
G01X1170000Y-5029200D03*
G01X1801800Y-5003800D03*
G01X1601800Y-5003800D03*
G01X2033600Y-5461000D03*
G01X2233600Y-5461000D03*
G01X2033600Y-5689600D03*
G01X2233600Y-5689600D03*
G01X2106600Y-6019800D03*
G01X1906600Y-6019800D03*
G54D15*
G01X3559353Y-266700D03*
G01X3120847Y-266700D03*
G01X3146247Y-2044700D03*
G01X3584753Y-2044700D03*
G54D16*
G01X3348500Y-622300D03*
G01X3128500Y-622300D03*
G01X3373900Y-1714500D03*
G01X3153900Y-1714500D03*
G54D17*
G01X304800Y-6375400D03*
G54D18*
G01X304800Y-6629400D03*
G01X304800Y-6883400D03*
G01X304800Y-7137400D03*
G01X304800Y-7391400D03*
G01X304800Y-7645400D03*
G01X304800Y-7899400D03*
G01X304800Y-8153400D03*
G54D20*
G01X3335122Y-952500D03*
G01X3141878Y-952500D03*
G01X3360522Y-1358900D03*
G01X3167278Y-1358900D03*
G54D21*
G01X763600Y-177800D03*
G01X963600Y-177800D03*
G54D22*
G01X4066451Y-1663700D03*
G01X4320451Y-1663700D03*
G01X4066451Y-1409700D03*
G01X4320451Y-1409700D03*
G01X4066451Y-1155700D03*
G01X4320451Y-1155700D03*
G01X4066451Y-901700D03*
G01X4320451Y-901700D03*
G01X4066451Y-647700D03*
G01X4320451Y-647700D03*
G54D20*
G01X3630600Y-3962400D03*
G01X3430600Y-3962400D03*
G54D23*
G01X3225800Y-4189400D03*
G01X3225800Y-3989400D03*
G01X4241800Y-4497400D03*
G01X4241800Y-4697400D03*
G01X4241800Y-4878400D03*
G01X4241800Y-5078400D03*
G54D20*
G01X256126Y-457200D03*
G01X456126Y-457200D03*
G01X455600Y-685800D03*
G01X255600Y-685800D03*
G01X836600Y-5562600D03*
G01X636600Y-5562600D03*
G54D23*
G01X1016000Y-4595800D03*
G01X1016000Y-4395800D03*
G54D24*
G01X3974600Y-6400400D03*
G01X3720600Y-6400400D03*
G01X3974600Y-6654400D03*
G01X3720600Y-6654400D03*
G01X3974600Y-6908400D03*
G01X3720600Y-6908400D03*
G01X3974600Y-7162400D03*
G01X3720600Y-7162400D03*
G01X3974600Y-7416400D03*
G01X3720600Y-7416400D03*
G01X3974600Y-7670400D03*
G01X3720600Y-7670400D03*
G01X3974600Y-7924400D03*
G01X3720600Y-7924400D03*
G01X3974600Y-8178400D03*
G01X3720600Y-8178400D03*
G01X3974600Y-8432400D03*
G01X3720600Y-8432400D03*
G01X3974600Y-8686400D03*
G01X3720600Y-8686400D03*
G01X3974600Y-8940400D03*
G01X3720600Y-8940400D03*
G01X3974600Y-9194400D03*
G01X3720600Y-9194400D03*
G01X3974600Y-9448400D03*
G01X3720600Y-9448400D03*
G01X3974600Y-9702400D03*
G01X3720600Y-9702400D03*
G01X3974600Y-9956400D03*
G01X3720600Y-9956400D03*
G01X1181600Y-6397400D03*
G01X927600Y-6397400D03*
G01X1181600Y-6651400D03*
G01X927600Y-6651400D03*
G01X1181600Y-6905400D03*
G01X927600Y-6905400D03*
G01X1181600Y-7159400D03*
G01X927600Y-7159400D03*
G01X1181600Y-7413400D03*
G01X927600Y-7413400D03*
G01X1181600Y-7667400D03*
G01X927600Y-7667400D03*
G01X1181600Y-7921400D03*
G01X927600Y-7921400D03*
G01X1181600Y-8175400D03*
G01X927600Y-8175400D03*
G01X1181600Y-8429400D03*
G01X927600Y-8429400D03*
G01X1181600Y-8683400D03*
G01X927600Y-8683400D03*
G01X1181600Y-8937400D03*
G01X927600Y-8937400D03*
G01X1181600Y-9191400D03*
G01X927600Y-9191400D03*
G01X1181600Y-9445400D03*
G01X927600Y-9445400D03*
G01X1181600Y-9699400D03*
G01X927600Y-9699400D03*
G01X1181600Y-9953400D03*
G01X927600Y-9953400D03*
G54D25*
G01X2984500Y-4243095D03*
G01X2857500Y-4243095D03*
G01X2730500Y-4243095D03*
G01X2603500Y-4243095D03*
G01X2984500Y-4748505D03*
G01X2857500Y-4748505D03*
G01X2730500Y-4748505D03*
G01X2603500Y-4748505D03*
G54D26*
G01X1841906Y-5250104D03*
G01X1776908Y-5250104D03*
G01X1711909Y-5250104D03*
G01X1646911Y-5250104D03*
G01X1581887Y-5250104D03*
G01X1516888Y-5250104D03*
G01X1451889Y-5250104D03*
G01X1386891Y-5250104D03*
G01X1321892Y-5250104D03*
G01X1256894Y-5250104D03*
G01X1841906Y-5824296D03*
G01X1776908Y-5824296D03*
G01X1711909Y-5824296D03*
G01X1646911Y-5824296D03*
G01X1581887Y-5824296D03*
G01X1516888Y-5824296D03*
G01X1451889Y-5824296D03*
G01X1386891Y-5824296D03*
G01X1321892Y-5824296D03*
G01X1256894Y-5824296D03*
G54D27*
G01X3221711Y-5400294D03*
G01X3156687Y-5400294D03*
G01X3091688Y-5400294D03*
G01X3026689Y-5400294D03*
G01X3221711Y-5826506D03*
G01X3156687Y-5826506D03*
G01X3091688Y-5826506D03*
G01X3026689Y-5826506D03*
G54D28*
G01X4016197Y-4610100D03*
G01X4016197Y-4483100D03*
G01X4016197Y-4356100D03*
G01X4016197Y-4229100D03*
G01X3502203Y-4610100D03*
G01X3502203Y-4483100D03*
G01X3502203Y-4356100D03*
G01X3502203Y-4229100D03*
G54D29*
G01X876910Y-653796D03*
G01X876910Y-558800D03*
G01X876910Y-463804D03*
G01X647090Y-463804D03*
G01X647090Y-558800D03*
G01X647090Y-653796D03*
G54D30*
G01X2765549Y-3098081D03*
G01X2765549Y-3193077D03*
G01X2765549Y-3003111D03*
G01X2985564Y-3193103D03*
G01X2985564Y-3003085D03*
G01X1641278Y-3092795D03*
G01X1641278Y-3187791D03*
G01X1641278Y-2997824D03*
G01X1861293Y-3187816D03*
G01X1861293Y-2997799D03*
G54D31*
G01X1003300Y-3654603D03*
G01X876300Y-3654603D03*
G01X749300Y-3654603D03*
G01X622300Y-3654603D03*
G01X1003300Y-4168597D03*
G01X876300Y-4168597D03*
G01X749300Y-4168597D03*
G01X622300Y-4168597D03*
G54D32*
G01X304800Y-3581400D03*
G54D33*
G01X304800Y-3835400D03*
G01X304800Y-4089400D03*
G01X304800Y-4343400D03*
G54D17*
G01X4495800Y-2336800D03*
G54D18*
G01X4495800Y-2590800D03*
G01X4495800Y-2844800D03*
G01X4495800Y-3098800D03*
G01X4495800Y-3352800D03*
G01X4495800Y-3606800D03*
G01X4495800Y-3860800D03*
G01X4495800Y-4114800D03*
G54D12*
G01X2975549Y-3377494D03*
G01X2775549Y-3377494D03*
G01X1822463Y-3385248D03*
G01X1622463Y-3385248D03*
G54D11*
G01X2717800Y-5462600D03*
G01X2717800Y-5662600D03*
G01X4216400Y-7339000D03*
G01X4216400Y-7139000D03*
G01X4228280Y-7806839D03*
G01X4228280Y-8006839D03*
G01X3302000Y-5005400D03*
G01X3302000Y-5205400D03*
G01X3505200Y-5205400D03*
G01X3505200Y-5005400D03*
G54D10*
G01X4495800Y-9169400D03*
G01X4495800Y-8915400D03*
G01X4495800Y-8661400D03*
G01X4495800Y-8407400D03*
G01X4495800Y-8153400D03*
G01X4495800Y-7899400D03*
G01X4495800Y-7645400D03*
G01X4495800Y-7391400D03*
G01X4495800Y-7137400D03*
G01X4495800Y-6883400D03*
G01X4495800Y-6629400D03*
G54D34*
G01X4495800Y-6375400D03*
G54D20*
G01X560400Y-4394200D03*
G01X760400Y-4394200D03*
G54D23*
G01X304800Y-4637100D03*
G01X304800Y-4837100D03*
G01X939800Y-3227400D03*
G01X939800Y-3427400D03*
G01X1168400Y-3249600D03*
G01X1168400Y-3049600D03*
G04 Pad End*

M02*

