G04 Layer: BottomSolderMaskLayer*
G04 EasyEDA Pro v2.2.47.7, 2026-05-03 22:27:52*
G04 Gerber Generator version 0.3*
G04 Scale: 100 percent, Rotated: No, Reflected: No*
G04 Dimensions in millimeters*
G04 Leading zeros omitted, absolute positions, 4 integers and 5 decimals*
G04 Generated by one-click*
G04 Object Configs: Pad,Via,Track,Text,Image,Dimension,BoardOutline,BoardCutout,CopperFilled,SolidRegion,FPCStiffener,Line,PlaneZone,ComponentProperty,ComponentSilkscreen,TearDrop*
G04 Layer Configs: 1,15,16,2,3,4,5,6,7,8,9,10,11,13,14,71,72,56*
G04 Copper Areas: 0*
%FSLAX45Y45*%
%MOMM*%
%AMRoundRect*1,1,$1,$2,$3*1,1,$1,$4,$5*1,1,$1,0-$2,0-$3*1,1,$1,0-$4,0-$5*20,1,$1,$2,$3,$4,$5,0*20,1,$1,$4,$5,0-$2,0-$3,0*20,1,$1,0-$2,0-$3,0-$4,0-$5,0*20,1,$1,0-$4,0-$5,$2,$3,0*4,1,4,$2,$3,$4,$5,0-$2,0-$3,0-$4,0-$5,$2,$3,0*%
%ADD10C,1.6256*%
%ADD11RoundRect,0.09554X-0.75303X-0.75303X-0.75303X0.75303*%
%ADD12C,1.6016*%
%ADD13C,1.624*%
%ADD14C,1.7*%
%ADD15RoundRect,0.09618X-0.85271X-0.85271X-0.85271X0.85271*%
%ADD16C,1.8016*%
%ADD17RoundRect,0.1003X-0.76499X-0.76499X-0.76499X0.76499*%
%ADD18RoundRect,0.09562X-0.76499X-0.76499X-0.76499X0.76499*%
%ADD19RoundRect,0.09495X-0.70833X0.67833X0.70833X0.67833*%
%ADD20RoundRect,0.09131X-0.40514X-0.50514X-0.40514X0.50514*%
%ADD21RoundRect,0.09131X-0.50514X0.40514X0.50514X0.40514*%
G75*


G04 Pad Start*
G54D10*
G01X2692400Y-10718800D03*
G01X2514600Y-10718800D03*
G01X2336800Y-10718800D03*
G01X1803400Y-10718800D03*
G01X1981200Y-10718800D03*
G01X2159000Y-10718800D03*
G01X2870200Y-10718800D03*
G54D11*
G01X304800Y-6375400D03*
G54D12*
G01X304800Y-6629400D03*
G01X304800Y-6883400D03*
G01X304800Y-7137400D03*
G01X304800Y-7391400D03*
G01X304800Y-7645400D03*
G01X304800Y-7899400D03*
G01X304800Y-8153400D03*
G54D13*
G01X4320451Y-647700D03*
G01X4066451Y-647700D03*
G01X4320451Y-901700D03*
G01X4066451Y-901700D03*
G01X4320451Y-1155700D03*
G01X4066451Y-1155700D03*
G01X4320451Y-1409700D03*
G01X4066451Y-1409700D03*
G01X4320451Y-1663700D03*
G01X4066451Y-1663700D03*
G54D14*
G01X3974600Y-6400400D03*
G01X3720600Y-6400400D03*
G01X3974600Y-6654400D03*
G01X3720600Y-6654400D03*
G01X3974600Y-6908400D03*
G01X3720600Y-6908400D03*
G01X3974600Y-7162400D03*
G01X3720600Y-7162400D03*
G01X3974600Y-7416400D03*
G01X3720600Y-7416400D03*
G01X3974600Y-7670400D03*
G01X3720600Y-7670400D03*
G01X3974600Y-7924400D03*
G01X3720600Y-7924400D03*
G01X3974600Y-8178400D03*
G01X3720600Y-8178400D03*
G01X3974600Y-8432400D03*
G01X3720600Y-8432400D03*
G01X3974600Y-8686400D03*
G01X3720600Y-8686400D03*
G01X3974600Y-8940400D03*
G01X3720600Y-8940400D03*
G01X3974600Y-9194400D03*
G01X3720600Y-9194400D03*
G01X3974600Y-9448400D03*
G01X3720600Y-9448400D03*
G01X3974600Y-9702400D03*
G01X3720600Y-9702400D03*
G01X3974600Y-9956400D03*
G01X3720600Y-9956400D03*
G01X1181600Y-6397400D03*
G01X927600Y-6397400D03*
G01X1181600Y-6651400D03*
G01X927600Y-6651400D03*
G01X1181600Y-6905400D03*
G01X927600Y-6905400D03*
G01X1181600Y-7159400D03*
G01X927600Y-7159400D03*
G01X1181600Y-7413400D03*
G01X927600Y-7413400D03*
G01X1181600Y-7667400D03*
G01X927600Y-7667400D03*
G01X1181600Y-7921400D03*
G01X927600Y-7921400D03*
G01X1181600Y-8175400D03*
G01X927600Y-8175400D03*
G01X1181600Y-8429400D03*
G01X927600Y-8429400D03*
G01X1181600Y-8683400D03*
G01X927600Y-8683400D03*
G01X1181600Y-8937400D03*
G01X927600Y-8937400D03*
G01X1181600Y-9191400D03*
G01X927600Y-9191400D03*
G01X1181600Y-9445400D03*
G01X927600Y-9445400D03*
G01X1181600Y-9699400D03*
G01X927600Y-9699400D03*
G01X1181600Y-9953400D03*
G01X927600Y-9953400D03*
G54D15*
G01X304800Y-3581400D03*
G54D16*
G01X304800Y-3835400D03*
G01X304800Y-4089400D03*
G01X304800Y-4343400D03*
G54D11*
G01X4495800Y-2336800D03*
G54D12*
G01X4495800Y-2590800D03*
G01X4495800Y-2844800D03*
G01X4495800Y-3098800D03*
G01X4495800Y-3352800D03*
G01X4495800Y-3606800D03*
G01X4495800Y-3860800D03*
G01X4495800Y-4114800D03*
G54D10*
G01X4495800Y-9169400D03*
G01X4495800Y-8915400D03*
G01X4495800Y-8661400D03*
G01X4495800Y-8407400D03*
G01X4495800Y-8153400D03*
G01X4495800Y-7899400D03*
G01X4495800Y-7645400D03*
G01X4495800Y-7391400D03*
G01X4495800Y-7137400D03*
G01X4495800Y-6883400D03*
G01X4495800Y-6629400D03*
G54D18*
G01X4495800Y-6375400D03*
G54D19*
G01X3452800Y-7416800D03*
G01X3252800Y-7416800D03*
G54D20*
G01X3232404Y-7811198D03*
G01X3327400Y-7581201D03*
G01X3422396Y-7811198D03*
G54D21*
G01X3263202Y-7042404D03*
G01X3493199Y-7137400D03*
G01X3263202Y-7232396D03*
G54D20*
G01X3232404Y-8166798D03*
G01X3327400Y-7936801D03*
G01X3422396Y-8166798D03*
G04 Pad End*

M02*

