G04 Layer: DrillDrawingLayer*
G04 EasyEDA Pro v3.2.148, 2026-06-11 20:21:09*
G04 Gerber Generator version 0.3*
G04 Scale: 100 percent, Rotated: No, Reflected: No*
G04 Dimensions in millimeters*
G04 Leading zeros omitted, absolute positions, 4 integers and 5 decimals*
G04 Generated by one-click*
G04 Object Configs: Pad,Via,Track,Text,Image,Dimension,BoardOutline,BoardCutout,CopperFilled,SolidRegion,FPCStiffener,Line,PlaneZone,ComponentProperty,ComponentSilkscreen,TearDrop*
G04 Layer Configs: 1,15,16,2,3,4,5,6,7,8,9,10,11,13,14,71,72,56*
G04 Copper Areas: 0*
%FSLAX45Y45*%
%MOMM*%
%AMIconRect*4,1,4,0.28,-0.28,-0.28,-0.28,-0.28,0.28,0.28,0.28,0.28,-0.28,0*4,0,4,0.233333,-0.233333,0.233333,0.233333,-0.233333,0.233333,-0.233333,-0.233333,0.233333,-0.233333,0*%
%AMIconTriangle*4,1,3,-0.339593,0.240473,0.339593,0.240473,0,-0.37884,-0.339593,0.240473,0*4,0,3,-0.265673,0.19404,0,-0.27342,0.266233,0.19404,-0.265673,0.19404,0*%
%AMIconStar6*4,1,12,0.12068,0.20888,0.298527,0.172713,0.241313,0,0.298527,-0.17206,0.12068,-0.208227,0,-0.344073,-0.120073,-0.208227,-0.298573,-0.17206,-0.240707,0,-0.298573,0.17206,-0.120073,0.20888,0,0.344073,0.12068,0.20888,0*4,0,12,-0.000467,0.273467,-0.090067,0.171733,-0.237533,0.136733,-0.193667,-0.007467,-0.237533,-0.1372,-0.090067,-0.171733,-0.000467,-0.273933,0.090067,-0.171733,0.237533,-0.1372,0.194133,0.007,0.237533,0.1372,0.090067,0.171267,-0.000467,0.273467,0*%
%AMIconStar4*4,1,8,-0.311733,0.311733,0,0.202533,0.311733,0.311733,0.202533,0,0.311733,-0.311733,0,-0.202533,-0.304407,-0.311733,-0.202533,0,-0.311733,0.311733,0*4,0,8,0.233333,-0.233333,0.1512,0,0.233333,0.233333,0,0.1512,-0.233333,0.233333,-0.1512,0,-0.233333,-0.233333,0,-0.1512,0.233333,-0.233333,0*%
%ADD10IconRect*%
%ADD11C,0.616X0.522667*%
%ADD12IconTriangle*%
%ADD13IconStar6*%
%ADD14IconStar4*%
%ADD15C,0.2032*%
%ADD16C,0.254*%
G75*


G04 Drill Drawing Start*
G54D10*
G01X304800Y-3581400D03*
G01X304800Y-4089400D03*
G01X304800Y-3835400D03*
G01X304800Y-4343400D03*
G54D11*
G01X1803400Y-10718800D03*
G01X1981200Y-10718800D03*
G01X2159000Y-10718800D03*
G01X2336800Y-10718800D03*
G01X2514600Y-10718800D03*
G01X2692400Y-10718800D03*
G01X2870200Y-10718800D03*
G54D12*
G01X4495800Y-9169400D03*
G01X4495800Y-8915400D03*
G01X4495800Y-8661400D03*
G01X4495800Y-8407400D03*
G01X4495800Y-8153400D03*
G01X4495800Y-7899400D03*
G01X4495800Y-7645400D03*
G01X4495800Y-7391400D03*
G01X4495800Y-7137400D03*
G01X4495800Y-6883400D03*
G01X4495800Y-6629400D03*
G01X4495800Y-6375400D03*
G54D13*
G01X304800Y-6883400D03*
G01X304800Y-6629400D03*
G01X304800Y-6375400D03*
G01X304800Y-7391400D03*
G01X304800Y-7137400D03*
G01X304800Y-8153400D03*
G01X304800Y-7899400D03*
G01X304800Y-7645400D03*
G01X927600Y-9953400D03*
G01X927600Y-9699400D03*
G01X927600Y-9445400D03*
G01X927600Y-9191400D03*
G01X927600Y-8937400D03*
G01X927600Y-8683400D03*
G01X927600Y-8429400D03*
G01X927600Y-8175400D03*
G01X927600Y-7921400D03*
G01X927600Y-7667400D03*
G01X927600Y-7413400D03*
G01X927600Y-7159400D03*
G01X927600Y-6905400D03*
G01X927600Y-6651400D03*
G01X927600Y-6397400D03*
G01X1181600Y-9953400D03*
G01X1181600Y-9699400D03*
G01X1181600Y-9445400D03*
G01X1181600Y-9191400D03*
G01X1181600Y-8937400D03*
G01X1181600Y-8683400D03*
G01X1181600Y-8429400D03*
G01X1181600Y-8175400D03*
G01X1181600Y-7921400D03*
G01X1181600Y-7667400D03*
G01X1181600Y-7413400D03*
G01X1181600Y-7159400D03*
G01X1181600Y-6905400D03*
G01X1181600Y-6651400D03*
G01X1181600Y-6397400D03*
G01X3720600Y-9956400D03*
G01X3720600Y-9702400D03*
G01X3720600Y-9448400D03*
G01X3720600Y-9194400D03*
G01X3720600Y-8940400D03*
G01X3720600Y-8686400D03*
G01X3720600Y-8432400D03*
G01X3720600Y-8178400D03*
G01X3720600Y-7924400D03*
G01X3720600Y-7670400D03*
G01X3720600Y-7416400D03*
G01X3720600Y-7162400D03*
G01X3720600Y-6908400D03*
G01X3720600Y-6654400D03*
G01X3720600Y-6400400D03*
G01X3974600Y-9956400D03*
G01X3974600Y-9702400D03*
G01X3974600Y-9448400D03*
G01X3974600Y-9194400D03*
G01X3974600Y-8940400D03*
G01X3974600Y-8686400D03*
G01X3974600Y-8432400D03*
G01X3974600Y-8178400D03*
G01X3974600Y-7924400D03*
G01X3974600Y-7670400D03*
G01X3974600Y-7416400D03*
G01X3974600Y-7162400D03*
G01X3974600Y-6908400D03*
G01X3974600Y-6654400D03*
G01X3974600Y-6400400D03*
G01X4066451Y-1663700D03*
G01X4066451Y-1409700D03*
G01X4066451Y-1155700D03*
G01X4066451Y-901700D03*
G01X4066451Y-647700D03*
G01X4320451Y-1663700D03*
G01X4320451Y-1409700D03*
G01X4320451Y-1155700D03*
G01X4320451Y-901700D03*
G01X4320451Y-647700D03*
G01X4495800Y-4114800D03*
G01X4495800Y-3860800D03*
G01X4495800Y-3606800D03*
G01X4495800Y-3352800D03*
G01X4495800Y-3098800D03*
G01X4495800Y-2844800D03*
G01X4495800Y-2590800D03*
G01X4495800Y-2336800D03*
G54D14*
G01X76200Y-990600D03*
G01X101600Y-2895600D03*
G01X108966Y-241300D03*
G01X134915Y-457200D03*
G01X152400Y-10820400D03*
G01X152400Y-10518543D03*
G01X152400Y-10210800D03*
G01X152400Y-9753600D03*
G01X152400Y-685800D03*
G01X177800Y-9245600D03*
G01X177800Y-8940800D03*
G01X177800Y-8663107D03*
G01X177800Y-2895600D03*
G01X266700Y-5194300D03*
G01X304800Y-4965700D03*
G01X335814Y-10662640D03*
G01X335814Y-10362640D03*
G01X335814Y-10062640D03*
G01X335814Y-9462640D03*
G01X335814Y-9162641D03*
G01X335814Y-8862641D03*
G01X335814Y-8562641D03*
G01X335814Y-8262641D03*
G01X335814Y-6162641D03*
G01X335814Y-5862642D03*
G01X335814Y-5562642D03*
G01X335814Y-3386442D03*
G01X335814Y-3086442D03*
G01X335814Y-2862642D03*
G01X335814Y-2562643D03*
G01X335814Y-2262643D03*
G01X335814Y-1962643D03*
G01X335814Y-1662643D03*
G01X335814Y-1362643D03*
G01X335814Y-1062643D03*
G01X449600Y-4651129D03*
G01X457200Y-3344124D03*
G01X482600Y-10820400D03*
G01X508000Y-3683000D03*
G01X546100Y-5130800D03*
G01X584200Y-6959600D03*
G01X584200Y-3122989D03*
G01X609600Y-317500D03*
G01X622300Y-203200D03*
G01X635000Y-88900D03*
G01X635814Y-10662640D03*
G01X635814Y-10062640D03*
G01X635814Y-9462640D03*
G01X635814Y-9162641D03*
G01X635814Y-8862641D03*
G01X635814Y-8562641D03*
G01X635814Y-8262641D03*
G01X635814Y-7962641D03*
G01X635814Y-7662641D03*
G01X635814Y-7362641D03*
G01X635814Y-6462641D03*
G01X635814Y-6162641D03*
G01X635814Y-5862642D03*
G01X635814Y-2862642D03*
G01X635814Y-2562643D03*
G01X635814Y-2262643D03*
G01X635814Y-1962643D03*
G01X635814Y-1662643D03*
G01X635814Y-1362643D03*
G01X635814Y-1062643D03*
G01X749300Y-5067300D03*
G01X795339Y-3935319D03*
G01X838200Y-5334000D03*
G01X863600Y-10820400D03*
G01X927100Y-393700D03*
G01X935814Y-10362640D03*
G01X935814Y-6162641D03*
G01X935814Y-2862642D03*
G01X935814Y-2562643D03*
G01X935814Y-2262643D03*
G01X935814Y-1962643D03*
G01X935814Y-1662643D03*
G01X935814Y-1362643D03*
G01X935814Y-1062643D03*
G01X952500Y-749300D03*
G01X1036183Y-342900D03*
G01X1041400Y-787400D03*
G01X1051811Y-5029200D03*
G01X1054211Y-4826000D03*
G01X1092200Y-3911600D03*
G01X1104900Y-342900D03*
G01X1116809Y-786609D03*
G01X1117600Y-5207000D03*
G01X1168400Y-2948605D03*
G01X1185014Y-10611840D03*
G01X1235814Y-10362640D03*
G01X1235814Y-10062640D03*
G01X1235814Y-6162641D03*
G01X1235814Y-4662642D03*
G01X1235814Y-4362642D03*
G01X1235814Y-2262643D03*
G01X1235814Y-1962643D03*
G01X1235814Y-1662643D03*
G01X1235814Y-1362643D03*
G01X1235814Y-1062643D03*
G01X1246068Y-5151806D03*
G01X1255675Y-4077295D03*
G01X1256900Y-5947023D03*
G01X1314075Y-3459655D03*
G01X1316191Y-5151806D03*
G01X1321900Y-5947023D03*
G01X1371600Y-10795000D03*
G01X1375514Y-318143D03*
G01X1386891Y-4673600D03*
G01X1397000Y-7442200D03*
G01X1397000Y-7137400D03*
G01X1422400Y-9194800D03*
G01X1432570Y-2900945D03*
G01X1432570Y-2496145D03*
G01X1447800Y-6985000D03*
G01X1447800Y-5969000D03*
G01X1447800Y-952500D03*
G01X1447800Y-876300D03*
G01X1447800Y-800100D03*
G01X1460500Y-63500D03*
G01X1493863Y-3385248D03*
G01X1498600Y-4165600D03*
G01X1535814Y-8862641D03*
G01X1535814Y-8262641D03*
G01X1535814Y-7962641D03*
G01X1535814Y-5562642D03*
G01X1535814Y-4662642D03*
G01X1535814Y-4362642D03*
G01X1535814Y-4062642D03*
G01X1535814Y-3762642D03*
G01X1535814Y-2562643D03*
G01X1535814Y-2262643D03*
G01X1535814Y-1962643D03*
G01X1535814Y-1662643D03*
G01X1535814Y-1362643D03*
G01X1535814Y-1062643D03*
G01X1542241Y-3069162D03*
G01X1581899Y-5946502D03*
G01X1583827Y-10497286D03*
G01X1583827Y-10197286D03*
G01X1583827Y-9897286D03*
G01X1583827Y-9597286D03*
G01X1597623Y-419100D03*
G01X1598912Y-676410D03*
G01X1676400Y-419100D03*
G01X1677689Y-676410D03*
G01X1709123Y-5113754D03*
G01X1752600Y-419100D03*
G01X1753889Y-676410D03*
G01X1776900Y-5944679D03*
G01X1835813Y-8562641D03*
G01X1835813Y-8262641D03*
G01X1835813Y-7962641D03*
G01X1835813Y-7662641D03*
G01X1835813Y-7362641D03*
G01X1835813Y-7062641D03*
G01X1835813Y-6762641D03*
G01X1835813Y-6462641D03*
G01X1835813Y-5562642D03*
G01X1835813Y-4662642D03*
G01X1835813Y-4362642D03*
G01X1835813Y-4062642D03*
G01X1835813Y-3762642D03*
G01X1835813Y-2862642D03*
G01X1835813Y-2562643D03*
G01X1835813Y-2262643D03*
G01X1835813Y-1662643D03*
G01X1835813Y-1362643D03*
G01X1835813Y-1062643D03*
G01X1841500Y-76200D03*
G01X1854200Y-9448800D03*
G01X1859213Y-8983986D03*
G01X1905000Y-10363200D03*
G01X1905000Y-9880600D03*
G01X1905000Y-6121400D03*
G01X1955800Y-758908D03*
G01X1955800Y-685800D03*
G01X1979878Y-3169008D03*
G01X2000394Y-1628452D03*
G01X2000394Y-1555344D03*
G01X2032000Y-4909040D03*
G01X2032000Y-757733D03*
G01X2032000Y-685800D03*
G01X2044700Y-304800D03*
G01X2076594Y-1627276D03*
G01X2076594Y-1555344D03*
G01X2081478Y-3169008D03*
G01X2108200Y-9220200D03*
G01X2135813Y-8262641D03*
G01X2135813Y-7962641D03*
G01X2135813Y-7662641D03*
G01X2135813Y-7362641D03*
G01X2135813Y-7062641D03*
G01X2135813Y-6762641D03*
G01X2135813Y-6462641D03*
G01X2135813Y-6162641D03*
G01X2135813Y-5862642D03*
G01X2135813Y-4962642D03*
G01X2135813Y-4662642D03*
G01X2135813Y-4362642D03*
G01X2135813Y-4062642D03*
G01X2135813Y-3762642D03*
G01X2135813Y-3462642D03*
G01X2135813Y-2862642D03*
G01X2135813Y-2562643D03*
G01X2135813Y-2262643D03*
G01X2135813Y-1362643D03*
G01X2159000Y-10363200D03*
G01X2159000Y-10058400D03*
G01X2159000Y-9753600D03*
G01X2159213Y-8683986D03*
G01X2209800Y-101600D03*
G01X2212013Y-475343D03*
G01X2231779Y-6019800D03*
G01X2235200Y-4910391D03*
G01X2235200Y-939800D03*
G01X2260600Y-10845800D03*
G01X2336800Y-5232400D03*
G01X2354189Y-5689599D03*
G01X2354972Y-5461000D03*
G01X2362200Y-3606800D03*
G01X2384787Y-3041302D03*
G01X2387600Y-8966200D03*
G01X2432488Y-2070101D03*
G01X2435813Y-7962641D03*
G01X2435813Y-7662641D03*
G01X2435813Y-7362641D03*
G01X2435813Y-7062641D03*
G01X2435813Y-6762641D03*
G01X2435813Y-6462641D03*
G01X2435813Y-6162641D03*
G01X2435813Y-5862642D03*
G01X2435813Y-5562642D03*
G01X2435813Y-5262642D03*
G01X2435813Y-4962642D03*
G01X2435813Y-4662642D03*
G01X2435813Y-4362642D03*
G01X2435813Y-4062642D03*
G01X2435813Y-2262643D03*
G01X2435813Y-1362643D03*
G01X2438400Y-10566400D03*
G01X2440600Y-9998408D03*
G01X2459213Y-8383986D03*
G01X2463800Y-9702800D03*
G01X2487408Y-215900D03*
G01X2540000Y-3606800D03*
G01X2590800Y-8737600D03*
G01X2590801Y-5257611D03*
G01X2596149Y-2920294D03*
G01X2596149Y-2513894D03*
G01X2603500Y-4146444D03*
G01X2616200Y-457200D03*
G01X2639608Y-3377494D03*
G01X2641600Y-10845800D03*
G01X2657613Y-8033186D03*
G01X2659613Y-7662641D03*
G01X2675475Y-3069568D03*
G01X2685314Y-9750654D03*
G01X2685314Y-9450654D03*
G01X2717334Y-1931884D03*
G01X2717800Y-2184400D03*
G01X2718087Y-1680452D03*
G01X2735813Y-10362640D03*
G01X2735813Y-7362641D03*
G01X2735813Y-7062641D03*
G01X2735813Y-6762641D03*
G01X2735813Y-6462641D03*
G01X2735813Y-6162641D03*
G01X2735813Y-5862642D03*
G01X2735813Y-5262642D03*
G01X2735813Y-3762642D03*
G01X2735813Y-2862642D03*
G01X2735813Y-2562643D03*
G01X2735813Y-1362643D03*
G01X2735813Y-1062643D03*
G01X2748086Y-4018894D03*
G01X2767347Y-4495800D03*
G01X2768282Y-98265D03*
G01X2771718Y-366858D03*
G01X2772500Y-610390D03*
G01X2815083Y-1680452D03*
G01X2819400Y-2184400D03*
G01X2819400Y-1933903D03*
G01X2844800Y-8483600D03*
G01X2863646Y-98265D03*
G01X2866746Y-615721D03*
G01X2867082Y-366858D03*
G01X2870200Y-3746860D03*
G01X2888213Y-5664242D03*
G01X2895599Y-4879777D03*
G01X2895600Y-5301760D03*
G01X2921000Y-9093200D03*
G01X3026689Y-6502400D03*
G01X3031013Y-7388041D03*
G01X3035813Y-10662640D03*
G01X3035813Y-10362640D03*
G01X3035813Y-10062640D03*
G01X3035813Y-9762640D03*
G01X3035813Y-9462640D03*
G01X3035813Y-4362642D03*
G01X3035813Y-4062642D03*
G01X3035813Y-3762642D03*
G01X3035813Y-2862642D03*
G01X3035813Y-2562643D03*
G01X3035813Y-2262643D03*
G01X3035813Y-1662643D03*
G01X3059213Y-7783986D03*
G01X3073400Y-8255000D03*
G01X3098800Y-4875967D03*
G01X3098800Y-3175000D03*
G01X3112599Y-4594900D03*
G01X3149600Y-8432800D03*
G01X3149600Y-1143000D03*
G01X3200400Y-8534400D03*
G01X3200400Y-3175000D03*
G01X3225800Y-6705600D03*
G01X3225800Y-5930900D03*
G01X3225800Y-4291727D03*
G01X3225800Y-3882462D03*
G01X3225800Y-1524000D03*
G01X3276600Y-10845800D03*
G01X3302000Y-8712200D03*
G01X3302000Y-8610600D03*
G01X3302000Y-8280400D03*
G01X3302000Y-4878680D03*
G01X3327400Y-8407400D03*
G01X3335813Y-10362640D03*
G01X3335813Y-10062640D03*
G01X3335813Y-9762640D03*
G01X3335813Y-9462640D03*
G01X3335813Y-9162641D03*
G01X3335813Y-6762641D03*
G01X3335813Y-6462641D03*
G01X3335813Y-6162641D03*
G01X3335813Y-5862642D03*
G01X3335813Y-3762642D03*
G01X3335813Y-3462642D03*
G01X3335813Y-3162642D03*
G01X3335813Y-2862642D03*
G01X3335813Y-2562643D03*
G01X3335813Y-2262643D03*
G01X3335813Y-462643D03*
G01X3335813Y-162643D03*
G01X3358057Y-7228290D03*
G01X3403600Y-8737600D03*
G01X3403600Y-8509000D03*
G01X3412013Y-7037241D03*
G01X3503709Y-3047294D03*
G01X3505200Y-4879778D03*
G01X3530600Y-8610600D03*
G01X3548400Y-7747000D03*
G01X3556000Y-8229600D03*
G01X3556000Y-8051800D03*
G01X3556000Y-7569200D03*
G01X3581400Y-5461000D03*
G01X3606800Y-10845800D03*
G01X3606800Y-5207000D03*
G01X3610413Y-10611840D03*
G01X3635813Y-10062640D03*
G01X3635813Y-6162641D03*
G01X3635813Y-5862642D03*
G01X3635813Y-3762642D03*
G01X3635813Y-3462642D03*
G01X3635813Y-3162642D03*
G01X3635813Y-2862642D03*
G01X3635813Y-2562643D03*
G01X3635813Y-2262643D03*
G01X3635813Y-1662643D03*
G01X3635813Y-1062643D03*
G01X3635813Y-762643D03*
G01X3657600Y-76200D03*
G01X3753816Y-4240492D03*
G01X3784600Y-4470400D03*
G01X3935813Y-10662640D03*
G01X3935813Y-10362640D03*
G01X3935813Y-6162641D03*
G01X3935813Y-5862642D03*
G01X3935813Y-5562642D03*
G01X3935813Y-5262642D03*
G01X3935813Y-4962642D03*
G01X3935813Y-4062642D03*
G01X3935813Y-3762642D03*
G01X3935813Y-3462642D03*
G01X3935813Y-3162642D03*
G01X3935813Y-2862642D03*
G01X3935813Y-2562643D03*
G01X3935813Y-1362643D03*
G01X3935813Y-1062643D03*
G01X4013200Y-76200D03*
G01X4102100Y-8051800D03*
G01X4108813Y-6310241D03*
G01X4114600Y-7008726D03*
G01X4203700Y-7543800D03*
G01X4213205Y-4346595D03*
G01X4216400Y-3865517D03*
G01X4216400Y-3302000D03*
G01X4216400Y-2819400D03*
G01X4235813Y-10662640D03*
G01X4235813Y-10362640D03*
G01X4235813Y-10062640D03*
G01X4235813Y-9762640D03*
G01X4235813Y-9462640D03*
G01X4235813Y-9162641D03*
G01X4235813Y-8862641D03*
G01X4235813Y-6762641D03*
G01X4235813Y-6162641D03*
G01X4235813Y-5862642D03*
G01X4235813Y-5562642D03*
G01X4235813Y-5262642D03*
G01X4235813Y-2262643D03*
G01X4235813Y-1062643D03*
G01X4241800Y-7008726D03*
G01X4241800Y-5184221D03*
G01X4368800Y-76200D03*
G01X4535813Y-10662640D03*
G01X4535813Y-10362640D03*
G01X4535813Y-10062640D03*
G01X4535813Y-9762640D03*
G01X4535813Y-9462640D03*
G01X4535813Y-6162641D03*
G01X4535813Y-5862642D03*
G01X4535813Y-5562642D03*
G01X4535813Y-5262642D03*
G01X4535813Y-4962642D03*
G01X4535813Y-4662642D03*
G01X4535813Y-3462642D03*
G01X4535813Y-1362643D03*
G01X4535813Y-1062643D03*
G01X4648200Y-1803400D03*
G01X4648200Y-355600D03*
G01X4699000Y-7518400D03*
G01X4699000Y-7239000D03*
G04 Drill Drawing End*

G04 Text Start*
G54D15*
G01X7100446Y-221706D02*
G01X7100446Y-341848D01*
G01X7100446Y-221706D02*
G01X7146166Y-341848D01*
G01X7191886Y-221706D02*
G01X7146166Y-341848D01*
G01X7191886Y-221706D02*
G01X7191886Y-341848D01*
G01X7308218Y-261838D02*
G01X7308218Y-341848D01*
G01X7308218Y-278856D02*
G01X7296788Y-267426D01*
G01X7285358Y-261838D01*
G01X7268340Y-261838D01*
G01X7256910Y-267426D01*
G01X7245480Y-278856D01*
G01X7239638Y-296128D01*
G01X7239638Y-307558D01*
G01X7245480Y-324576D01*
G01X7256910Y-336006D01*
G01X7268340Y-341848D01*
G01X7285358Y-341848D01*
G01X7296788Y-336006D01*
G01X7308218Y-324576D01*
G01X7355970Y-261838D02*
G01X7355970Y-341848D01*
G01X7355970Y-296128D02*
G01X7361812Y-278856D01*
G01X7373242Y-267426D01*
G01X7384672Y-261838D01*
G01X7401690Y-261838D01*
G01X7449442Y-221706D02*
G01X7449442Y-341848D01*
G01X7506592Y-261838D02*
G01X7449442Y-318988D01*
G01X7472302Y-296128D02*
G01X7512434Y-341848D01*
G01X8637726Y-250408D02*
G01X8631884Y-238978D01*
G01X8620454Y-227548D01*
G01X8609024Y-221706D01*
G01X8586164Y-221706D01*
G01X8574734Y-227548D01*
G01X8563304Y-238978D01*
G01X8557716Y-250408D01*
G01X8551874Y-267426D01*
G01X8551874Y-296128D01*
G01X8557716Y-313146D01*
G01X8563304Y-324576D01*
G01X8574734Y-336006D01*
G01X8586164Y-341848D01*
G01X8609024Y-341848D01*
G01X8620454Y-336006D01*
G01X8631884Y-324576D01*
G01X8637726Y-313146D01*
G01X8714180Y-261838D02*
G01X8702750Y-267426D01*
G01X8691320Y-278856D01*
G01X8685478Y-296128D01*
G01X8685478Y-307558D01*
G01X8691320Y-324576D01*
G01X8702750Y-336006D01*
G01X8714180Y-341848D01*
G01X8731198Y-341848D01*
G01X8742628Y-336006D01*
G01X8754058Y-324576D01*
G01X8759900Y-307558D01*
G01X8759900Y-296128D01*
G01X8754058Y-278856D01*
G01X8742628Y-267426D01*
G01X8731198Y-261838D01*
G01X8714180Y-261838D01*
G01X8807652Y-261838D02*
G01X8807652Y-318988D01*
G01X8813494Y-336006D01*
G01X8824924Y-341848D01*
G01X8841942Y-341848D01*
G01X8853372Y-336006D01*
G01X8870644Y-318988D01*
G01X8870644Y-261838D02*
G01X8870644Y-341848D01*
G01X8918396Y-261838D02*
G01X8918396Y-341848D01*
G01X8918396Y-284698D02*
G01X8935668Y-267426D01*
G01X8947098Y-261838D01*
G01X8964116Y-261838D01*
G01X8975546Y-267426D01*
G01X8981388Y-284698D01*
G01X8981388Y-341848D01*
G01X9046412Y-221706D02*
G01X9046412Y-318988D01*
G01X9052000Y-336006D01*
G01X9063430Y-341848D01*
G01X9074860Y-341848D01*
G01X9029140Y-261838D02*
G01X9069272Y-261838D01*
G01X10046047Y-238978D02*
G01X10034617Y-227548D01*
G01X10017599Y-221706D01*
G01X9994739Y-221706D01*
G01X9977467Y-227548D01*
G01X9966037Y-238978D01*
G01X9966037Y-250408D01*
G01X9971879Y-261838D01*
G01X9977467Y-267426D01*
G01X9988897Y-273268D01*
G01X10023187Y-284698D01*
G01X10034617Y-290286D01*
G01X10040459Y-296128D01*
G01X10046047Y-307558D01*
G01X10046047Y-324576D01*
G01X10034617Y-336006D01*
G01X10017599Y-341848D01*
G01X9994739Y-341848D01*
G01X9977467Y-336006D01*
G01X9966037Y-324576D01*
G01X10093799Y-221706D02*
G01X10099641Y-227548D01*
G01X10105229Y-221706D01*
G01X10099641Y-216118D01*
G01X10093799Y-221706D01*
G01X10099641Y-261838D02*
G01X10099641Y-341848D01*
G01X10215973Y-261838D02*
G01X10152981Y-341848D01*
G01X10152981Y-261838D02*
G01X10215973Y-261838D01*
G01X10152981Y-341848D02*
G01X10215973Y-341848D01*
G01X10263725Y-296128D02*
G01X10332305Y-296128D01*
G01X10332305Y-284698D01*
G01X10326717Y-273268D01*
G01X10320875Y-267426D01*
G01X10309445Y-261838D01*
G01X10292427Y-261838D01*
G01X10280997Y-267426D01*
G01X10269567Y-278856D01*
G01X10263725Y-296128D01*
G01X10263725Y-307558D01*
G01X10269567Y-324576D01*
G01X10280997Y-336006D01*
G01X10292427Y-341848D01*
G01X10309445Y-341848D01*
G01X10320875Y-336006D01*
G01X10332305Y-324576D01*
G01X13757387Y-221706D02*
G01X13757387Y-341848D01*
G01X13757387Y-221706D02*
G01X13808949Y-221706D01*
G01X13825967Y-227548D01*
G01X13831809Y-233136D01*
G01X13837397Y-244566D01*
G01X13837397Y-261838D01*
G01X13831809Y-273268D01*
G01X13825967Y-278856D01*
G01X13808949Y-284698D01*
G01X13757387Y-284698D01*
G01X13885149Y-221706D02*
G01X13885149Y-341848D01*
G01X14001481Y-261838D02*
G01X14001481Y-341848D01*
G01X14001481Y-278856D02*
G01X13990051Y-267426D01*
G01X13978621Y-261838D01*
G01X13961603Y-261838D01*
G01X13950173Y-267426D01*
G01X13938743Y-278856D01*
G01X13932901Y-296128D01*
G01X13932901Y-307558D01*
G01X13938743Y-324576D01*
G01X13950173Y-336006D01*
G01X13961603Y-341848D01*
G01X13978621Y-341848D01*
G01X13990051Y-336006D01*
G01X14001481Y-324576D01*
G01X14066505Y-221706D02*
G01X14066505Y-318988D01*
G01X14072093Y-336006D01*
G01X14083523Y-341848D01*
G01X14094953Y-341848D01*
G01X14049233Y-261838D02*
G01X14089365Y-261838D01*
G01X14142705Y-296128D02*
G01X14211285Y-296128D01*
G01X14211285Y-284698D01*
G01X14205697Y-273268D01*
G01X14199855Y-267426D01*
G01X14188425Y-261838D01*
G01X14171407Y-261838D01*
G01X14159977Y-267426D01*
G01X14148547Y-278856D01*
G01X14142705Y-296128D01*
G01X14142705Y-307558D01*
G01X14148547Y-324576D01*
G01X14159977Y-336006D01*
G01X14171407Y-341848D01*
G01X14188425Y-341848D01*
G01X14199855Y-336006D01*
G01X14211285Y-324576D01*
G01X14327617Y-221706D02*
G01X14327617Y-341848D01*
G01X14327617Y-278856D02*
G01X14316187Y-267426D01*
G01X14304757Y-261838D01*
G01X14287739Y-261838D01*
G01X14276309Y-267426D01*
G01X14264879Y-278856D01*
G01X14259037Y-296128D01*
G01X14259037Y-307558D01*
G01X14264879Y-324576D01*
G01X14276309Y-336006D01*
G01X14287739Y-341848D01*
G01X14304757Y-341848D01*
G01X14316187Y-336006D01*
G01X14327617Y-324576D01*
G01X15298804Y-238978D02*
G01X15287374Y-227548D01*
G01X15270356Y-221706D01*
G01X15247496Y-221706D01*
G01X15230224Y-227548D01*
G01X15218794Y-238978D01*
G01X15218794Y-250408D01*
G01X15224636Y-261838D01*
G01X15230224Y-267426D01*
G01X15241654Y-273268D01*
G01X15275944Y-284698D01*
G01X15287374Y-290286D01*
G01X15293216Y-296128D01*
G01X15298804Y-307558D01*
G01X15298804Y-324576D01*
G01X15287374Y-336006D01*
G01X15270356Y-341848D01*
G01X15247496Y-341848D01*
G01X15230224Y-336006D01*
G01X15218794Y-324576D01*
G01X15346556Y-221706D02*
G01X15346556Y-341848D01*
G01X15346556Y-284698D02*
G01X15363828Y-267426D01*
G01X15375258Y-261838D01*
G01X15392276Y-261838D01*
G01X15403706Y-267426D01*
G01X15409548Y-284698D01*
G01X15409548Y-341848D01*
G01X15525880Y-261838D02*
G01X15525880Y-341848D01*
G01X15525880Y-278856D02*
G01X15514450Y-267426D01*
G01X15503020Y-261838D01*
G01X15486002Y-261838D01*
G01X15474572Y-267426D01*
G01X15463142Y-278856D01*
G01X15457300Y-296128D01*
G01X15457300Y-307558D01*
G01X15463142Y-324576D01*
G01X15474572Y-336006D01*
G01X15486002Y-341848D01*
G01X15503020Y-341848D01*
G01X15514450Y-336006D01*
G01X15525880Y-324576D01*
G01X15573632Y-261838D02*
G01X15573632Y-381726D01*
G01X15573632Y-278856D02*
G01X15585062Y-267426D01*
G01X15596492Y-261838D01*
G01X15613764Y-261838D01*
G01X15625194Y-267426D01*
G01X15636624Y-278856D01*
G01X15642212Y-296128D01*
G01X15642212Y-307558D01*
G01X15636624Y-324576D01*
G01X15625194Y-336006D01*
G01X15613764Y-341848D01*
G01X15596492Y-341848D01*
G01X15585062Y-336006D01*
G01X15573632Y-324576D01*
G01X15689964Y-296128D02*
G01X15758544Y-296128D01*
G01X15758544Y-284698D01*
G01X15752956Y-273268D01*
G01X15747114Y-267426D01*
G01X15735684Y-261838D01*
G01X15718666Y-261838D01*
G01X15707236Y-267426D01*
G01X15695806Y-278856D01*
G01X15689964Y-296128D01*
G01X15689964Y-307558D01*
G01X15695806Y-324576D01*
G01X15707236Y-336006D01*
G01X15718666Y-341848D01*
G01X15735684Y-341848D01*
G01X15747114Y-336006D01*
G01X15758544Y-324576D01*
G01X16649975Y-221706D02*
G01X16695695Y-341848D01*
G01X16741415Y-221706D02*
G01X16695695Y-341848D01*
G01X16789167Y-221706D02*
G01X16795009Y-227548D01*
G01X16800597Y-221706D01*
G01X16795009Y-216118D01*
G01X16789167Y-221706D01*
G01X16795009Y-261838D02*
G01X16795009Y-341848D01*
G01X16916929Y-261838D02*
G01X16916929Y-341848D01*
G01X16916929Y-278856D02*
G01X16905499Y-267426D01*
G01X16894069Y-261838D01*
G01X16877051Y-261838D01*
G01X16865621Y-267426D01*
G01X16854191Y-278856D01*
G01X16848349Y-296128D01*
G01X16848349Y-307558D01*
G01X16854191Y-324576D01*
G01X16865621Y-336006D01*
G01X16877051Y-341848D01*
G01X16894069Y-341848D01*
G01X16905499Y-336006D01*
G01X16916929Y-324576D01*
G01X17067551Y-198846D02*
G01X16964681Y-381726D01*
G01X17115303Y-221706D02*
G01X17115303Y-341848D01*
G01X17115303Y-221706D02*
G01X17166865Y-221706D01*
G01X17183883Y-227548D01*
G01X17189725Y-233136D01*
G01X17195313Y-244566D01*
G01X17195313Y-261838D01*
G01X17189725Y-273268D01*
G01X17183883Y-278856D01*
G01X17166865Y-284698D01*
G01X17115303Y-284698D01*
G01X17311645Y-261838D02*
G01X17311645Y-341848D01*
G01X17311645Y-278856D02*
G01X17300215Y-267426D01*
G01X17288785Y-261838D01*
G01X17271767Y-261838D01*
G01X17260337Y-267426D01*
G01X17248907Y-278856D01*
G01X17243065Y-296128D01*
G01X17243065Y-307558D01*
G01X17248907Y-324576D01*
G01X17260337Y-336006D01*
G01X17271767Y-341848D01*
G01X17288785Y-341848D01*
G01X17300215Y-336006D01*
G01X17311645Y-324576D01*
G01X17427977Y-221706D02*
G01X17427977Y-341848D01*
G01X17427977Y-278856D02*
G01X17416547Y-267426D01*
G01X17405117Y-261838D01*
G01X17388099Y-261838D01*
G01X17376669Y-267426D01*
G01X17365239Y-278856D01*
G01X17359397Y-296128D01*
G01X17359397Y-307558D01*
G01X17365239Y-324576D01*
G01X17376669Y-336006D01*
G01X17388099Y-341848D01*
G01X17405117Y-341848D01*
G01X17416547Y-336006D01*
G01X17427977Y-324576D01*
G01X18319154Y-221706D02*
G01X18319154Y-341848D01*
G01X18319154Y-221706D02*
G01X18370716Y-221706D01*
G01X18387734Y-227548D01*
G01X18393576Y-233136D01*
G01X18399164Y-244566D01*
G01X18399164Y-261838D01*
G01X18393576Y-273268D01*
G01X18387734Y-278856D01*
G01X18370716Y-284698D01*
G01X18319154Y-284698D01*
G01X18515496Y-261838D02*
G01X18515496Y-341848D01*
G01X18515496Y-278856D02*
G01X18504066Y-267426D01*
G01X18492636Y-261838D01*
G01X18475618Y-261838D01*
G01X18464188Y-267426D01*
G01X18452758Y-278856D01*
G01X18446916Y-296128D01*
G01X18446916Y-307558D01*
G01X18452758Y-324576D01*
G01X18464188Y-336006D01*
G01X18475618Y-341848D01*
G01X18492636Y-341848D01*
G01X18504066Y-336006D01*
G01X18515496Y-324576D01*
G01X18631828Y-221706D02*
G01X18631828Y-341848D01*
G01X18631828Y-278856D02*
G01X18620398Y-267426D01*
G01X18608968Y-261838D01*
G01X18591950Y-261838D01*
G01X18580520Y-267426D01*
G01X18569090Y-278856D01*
G01X18563248Y-296128D01*
G01X18563248Y-307558D01*
G01X18569090Y-324576D01*
G01X18580520Y-336006D01*
G01X18591950Y-341848D01*
G01X18608968Y-341848D01*
G01X18620398Y-336006D01*
G01X18631828Y-324576D01*
G01X18887606Y-238978D02*
G01X18876176Y-227548D01*
G01X18859158Y-221706D01*
G01X18836298Y-221706D01*
G01X18819026Y-227548D01*
G01X18807596Y-238978D01*
G01X18807596Y-250408D01*
G01X18813438Y-261838D01*
G01X18819026Y-267426D01*
G01X18830456Y-273268D01*
G01X18864746Y-284698D01*
G01X18876176Y-290286D01*
G01X18882018Y-296128D01*
G01X18887606Y-307558D01*
G01X18887606Y-324576D01*
G01X18876176Y-336006D01*
G01X18859158Y-341848D01*
G01X18836298Y-341848D01*
G01X18819026Y-336006D01*
G01X18807596Y-324576D01*
G01X18935358Y-221706D02*
G01X18935358Y-341848D01*
G01X18935358Y-284698D02*
G01X18952630Y-267426D01*
G01X18964060Y-261838D01*
G01X18981078Y-261838D01*
G01X18992508Y-267426D01*
G01X18998350Y-284698D01*
G01X18998350Y-341848D01*
G01X19114682Y-261838D02*
G01X19114682Y-341848D01*
G01X19114682Y-278856D02*
G01X19103252Y-267426D01*
G01X19091822Y-261838D01*
G01X19074804Y-261838D01*
G01X19063374Y-267426D01*
G01X19051944Y-278856D01*
G01X19046102Y-296128D01*
G01X19046102Y-307558D01*
G01X19051944Y-324576D01*
G01X19063374Y-336006D01*
G01X19074804Y-341848D01*
G01X19091822Y-341848D01*
G01X19103252Y-336006D01*
G01X19114682Y-324576D01*
G01X19162434Y-261838D02*
G01X19162434Y-381726D01*
G01X19162434Y-278856D02*
G01X19173864Y-267426D01*
G01X19185294Y-261838D01*
G01X19202566Y-261838D01*
G01X19213996Y-267426D01*
G01X19225426Y-278856D01*
G01X19231014Y-296128D01*
G01X19231014Y-307558D01*
G01X19225426Y-324576D01*
G01X19213996Y-336006D01*
G01X19202566Y-341848D01*
G01X19185294Y-341848D01*
G01X19173864Y-336006D01*
G01X19162434Y-324576D01*
G01X19278766Y-296128D02*
G01X19347346Y-296128D01*
G01X19347346Y-284698D01*
G01X19341758Y-273268D01*
G01X19335916Y-267426D01*
G01X19324486Y-261838D01*
G01X19307468Y-261838D01*
G01X19296038Y-267426D01*
G01X19284608Y-278856D01*
G01X19278766Y-296128D01*
G01X19278766Y-307558D01*
G01X19284608Y-324576D01*
G01X19296038Y-336006D01*
G01X19307468Y-341848D01*
G01X19324486Y-341848D01*
G01X19335916Y-336006D01*
G01X19347346Y-324576D01*
G01X20238523Y-221706D02*
G01X20238523Y-341848D01*
G01X20238523Y-341848D02*
G01X20307103Y-341848D01*
G01X20423435Y-261838D02*
G01X20423435Y-341848D01*
G01X20423435Y-278856D02*
G01X20412005Y-267426D01*
G01X20400575Y-261838D01*
G01X20383557Y-261838D01*
G01X20372127Y-267426D01*
G01X20360697Y-278856D01*
G01X20354855Y-296128D01*
G01X20354855Y-307558D01*
G01X20360697Y-324576D01*
G01X20372127Y-336006D01*
G01X20383557Y-341848D01*
G01X20400575Y-341848D01*
G01X20412005Y-336006D01*
G01X20423435Y-324576D01*
G01X20477029Y-261838D02*
G01X20511319Y-341848D01*
G01X20545609Y-261838D02*
G01X20511319Y-341848D01*
G01X20499889Y-364708D01*
G01X20488459Y-376138D01*
G01X20477029Y-381726D01*
G01X20471187Y-381726D01*
G01X20593361Y-296128D02*
G01X20661941Y-296128D01*
G01X20661941Y-284698D01*
G01X20656353Y-273268D01*
G01X20650511Y-267426D01*
G01X20639081Y-261838D01*
G01X20622063Y-261838D01*
G01X20610633Y-267426D01*
G01X20599203Y-278856D01*
G01X20593361Y-296128D01*
G01X20593361Y-307558D01*
G01X20599203Y-324576D01*
G01X20610633Y-336006D01*
G01X20622063Y-341848D01*
G01X20639081Y-341848D01*
G01X20650511Y-336006D01*
G01X20661941Y-324576D01*
G01X20709693Y-261838D02*
G01X20709693Y-341848D01*
G01X20709693Y-296128D02*
G01X20715535Y-278856D01*
G01X20726965Y-267426D01*
G01X20738395Y-261838D01*
G01X20755413Y-261838D01*
G01X20931181Y-221706D02*
G01X20931181Y-341848D01*
G01X20931181Y-221706D02*
G01X20982743Y-221706D01*
G01X20999761Y-227548D01*
G01X21005603Y-233136D01*
G01X21011191Y-244566D01*
G01X21011191Y-261838D01*
G01X21005603Y-273268D01*
G01X20999761Y-278856D01*
G01X20982743Y-284698D01*
G01X20931181Y-284698D01*
G01X21127523Y-261838D02*
G01X21127523Y-341848D01*
G01X21127523Y-278856D02*
G01X21116093Y-267426D01*
G01X21104663Y-261838D01*
G01X21087645Y-261838D01*
G01X21076215Y-267426D01*
G01X21064785Y-278856D01*
G01X21058943Y-296128D01*
G01X21058943Y-307558D01*
G01X21064785Y-324576D01*
G01X21076215Y-336006D01*
G01X21087645Y-341848D01*
G01X21104663Y-341848D01*
G01X21116093Y-336006D01*
G01X21127523Y-324576D01*
G01X21175275Y-221706D02*
G01X21181117Y-227548D01*
G01X21186705Y-221706D01*
G01X21181117Y-216118D01*
G01X21175275Y-221706D01*
G01X21181117Y-261838D02*
G01X21181117Y-341848D01*
G01X21234457Y-261838D02*
G01X21234457Y-341848D01*
G01X21234457Y-296128D02*
G01X21240299Y-278856D01*
G01X21251729Y-267426D01*
G01X21263159Y-261838D01*
G01X21280177Y-261838D01*
G01X8609024Y-802277D02*
G01X8551874Y-882287D01*
G01X8637726Y-882287D01*
G01X8609024Y-802277D02*
G01X8609024Y-922419D01*
G01X10023187Y-802277D02*
G01X9966037Y-882287D01*
G01X10051889Y-882287D01*
G01X10023187Y-802277D02*
G01X10023187Y-922419D01*
G01X10111071Y-802277D02*
G01X10174063Y-802277D01*
G01X10139773Y-847997D01*
G01X10156791Y-847997D01*
G01X10168221Y-853839D01*
G01X10174063Y-859427D01*
G01X10179651Y-876699D01*
G01X10179651Y-888129D01*
G01X10174063Y-905147D01*
G01X10162633Y-916577D01*
G01X10145361Y-922419D01*
G01X10128343Y-922419D01*
G01X10111071Y-916577D01*
G01X10105483Y-910989D01*
G01X10099641Y-899559D01*
G01X10233245Y-893717D02*
G01X10227403Y-899559D01*
G01X10233245Y-905147D01*
G01X10238833Y-899559D01*
G01X10233245Y-893717D01*
G01X10298015Y-802277D02*
G01X10361007Y-802277D01*
G01X10326717Y-847997D01*
G01X10343735Y-847997D01*
G01X10355165Y-853839D01*
G01X10361007Y-859427D01*
G01X10366595Y-876699D01*
G01X10366595Y-888129D01*
G01X10361007Y-905147D01*
G01X10349577Y-916577D01*
G01X10332305Y-922419D01*
G01X10315287Y-922419D01*
G01X10298015Y-916577D01*
G01X10292427Y-910989D01*
G01X10286585Y-899559D01*
G01X10414347Y-842409D02*
G01X10477339Y-922419D01*
G01X10477339Y-842409D02*
G01X10414347Y-922419D01*
G01X10582241Y-802277D02*
G01X10525091Y-882287D01*
G01X10610943Y-882287D01*
G01X10582241Y-802277D02*
G01X10582241Y-922419D01*
G01X10670125Y-802277D02*
G01X10733117Y-802277D01*
G01X10698827Y-847997D01*
G01X10715845Y-847997D01*
G01X10727275Y-853839D01*
G01X10733117Y-859427D01*
G01X10738705Y-876699D01*
G01X10738705Y-888129D01*
G01X10733117Y-905147D01*
G01X10721687Y-916577D01*
G01X10704415Y-922419D01*
G01X10687397Y-922419D01*
G01X10670125Y-916577D01*
G01X10664537Y-910989D01*
G01X10658695Y-899559D01*
G01X10792299Y-893717D02*
G01X10786457Y-899559D01*
G01X10792299Y-905147D01*
G01X10797887Y-899559D01*
G01X10792299Y-893717D01*
G01X10857069Y-802277D02*
G01X10920061Y-802277D01*
G01X10885771Y-847997D01*
G01X10902789Y-847997D01*
G01X10914219Y-853839D01*
G01X10920061Y-859427D01*
G01X10925649Y-876699D01*
G01X10925649Y-888129D01*
G01X10920061Y-905147D01*
G01X10908631Y-916577D01*
G01X10891359Y-922419D01*
G01X10874341Y-922419D01*
G01X10857069Y-916577D01*
G01X10851481Y-910989D01*
G01X10845639Y-899559D01*
G01X10973401Y-842409D02*
G01X10973401Y-922419D01*
G01X10973401Y-865269D02*
G01X10990673Y-847997D01*
G01X11002103Y-842409D01*
G01X11019121Y-842409D01*
G01X11030551Y-847997D01*
G01X11036393Y-865269D01*
G01X11036393Y-922419D01*
G01X11036393Y-865269D02*
G01X11053411Y-847997D01*
G01X11064841Y-842409D01*
G01X11082113Y-842409D01*
G01X11093543Y-847997D01*
G01X11099131Y-865269D01*
G01X11099131Y-922419D01*
G01X11146883Y-802277D02*
G01X11152725Y-808119D01*
G01X11158313Y-802277D01*
G01X11152725Y-796689D01*
G01X11146883Y-802277D01*
G01X11152725Y-842409D02*
G01X11152725Y-922419D01*
G01X11206065Y-802277D02*
G01X11206065Y-922419D01*
G01X11293949Y-779417D02*
G01X11282519Y-790847D01*
G01X11271089Y-808119D01*
G01X11259659Y-830979D01*
G01X11253817Y-859427D01*
G01X11253817Y-882287D01*
G01X11259659Y-910989D01*
G01X11271089Y-933849D01*
G01X11282519Y-950867D01*
G01X11293949Y-962297D01*
G01X11341701Y-825137D02*
G01X11353131Y-819549D01*
G01X11370403Y-802277D01*
G01X11370403Y-922419D01*
G01X11423997Y-893717D02*
G01X11418155Y-899559D01*
G01X11423997Y-905147D01*
G01X11429585Y-899559D01*
G01X11423997Y-893717D01*
G01X11477337Y-825137D02*
G01X11488767Y-819549D01*
G01X11506039Y-802277D01*
G01X11506039Y-922419D01*
G01X11588081Y-802277D02*
G01X11571063Y-808119D01*
G01X11559633Y-825137D01*
G01X11553791Y-853839D01*
G01X11553791Y-870857D01*
G01X11559633Y-899559D01*
G01X11571063Y-916577D01*
G01X11588081Y-922419D01*
G01X11599511Y-922419D01*
G01X11616783Y-916577D01*
G01X11628213Y-899559D01*
G01X11633801Y-870857D01*
G01X11633801Y-853839D01*
G01X11628213Y-825137D01*
G01X11616783Y-808119D01*
G01X11599511Y-802277D01*
G01X11588081Y-802277D01*
G01X11715843Y-802277D02*
G01X11698825Y-808119D01*
G01X11687395Y-825137D01*
G01X11681553Y-853839D01*
G01X11681553Y-870857D01*
G01X11687395Y-899559D01*
G01X11698825Y-916577D01*
G01X11715843Y-922419D01*
G01X11727273Y-922419D01*
G01X11744545Y-916577D01*
G01X11755975Y-899559D01*
G01X11761563Y-870857D01*
G01X11761563Y-853839D01*
G01X11755975Y-825137D01*
G01X11744545Y-808119D01*
G01X11727273Y-802277D01*
G01X11715843Y-802277D01*
G01X11809315Y-842409D02*
G01X11872307Y-922419D01*
G01X11872307Y-842409D02*
G01X11809315Y-922419D01*
G01X11920059Y-825137D02*
G01X11931489Y-819549D01*
G01X11948761Y-802277D01*
G01X11948761Y-922419D01*
G01X12002355Y-893717D02*
G01X11996513Y-899559D01*
G01X12002355Y-905147D01*
G01X12007943Y-899559D01*
G01X12002355Y-893717D01*
G01X12055695Y-825137D02*
G01X12067125Y-819549D01*
G01X12084397Y-802277D01*
G01X12084397Y-922419D01*
G01X12166439Y-802277D02*
G01X12149421Y-808119D01*
G01X12137991Y-825137D01*
G01X12132149Y-853839D01*
G01X12132149Y-870857D01*
G01X12137991Y-899559D01*
G01X12149421Y-916577D01*
G01X12166439Y-922419D01*
G01X12177869Y-922419D01*
G01X12195141Y-916577D01*
G01X12206571Y-899559D01*
G01X12212159Y-870857D01*
G01X12212159Y-853839D01*
G01X12206571Y-825137D01*
G01X12195141Y-808119D01*
G01X12177869Y-802277D01*
G01X12166439Y-802277D01*
G01X12294201Y-802277D02*
G01X12277183Y-808119D01*
G01X12265753Y-825137D01*
G01X12259911Y-853839D01*
G01X12259911Y-870857D01*
G01X12265753Y-899559D01*
G01X12277183Y-916577D01*
G01X12294201Y-922419D01*
G01X12305631Y-922419D01*
G01X12322903Y-916577D01*
G01X12334333Y-899559D01*
G01X12339921Y-870857D01*
G01X12339921Y-853839D01*
G01X12334333Y-825137D01*
G01X12322903Y-808119D01*
G01X12305631Y-802277D01*
G01X12294201Y-802277D01*
G01X12387673Y-842409D02*
G01X12387673Y-922419D01*
G01X12387673Y-865269D02*
G01X12404945Y-847997D01*
G01X12416375Y-842409D01*
G01X12433393Y-842409D01*
G01X12444823Y-847997D01*
G01X12450665Y-865269D01*
G01X12450665Y-922419D01*
G01X12450665Y-865269D02*
G01X12467683Y-847997D01*
G01X12479113Y-842409D01*
G01X12496385Y-842409D01*
G01X12507815Y-847997D01*
G01X12513403Y-865269D01*
G01X12513403Y-922419D01*
G01X12561155Y-842409D02*
G01X12561155Y-922419D01*
G01X12561155Y-865269D02*
G01X12578427Y-847997D01*
G01X12589857Y-842409D01*
G01X12606875Y-842409D01*
G01X12618305Y-847997D01*
G01X12624147Y-865269D01*
G01X12624147Y-922419D01*
G01X12624147Y-865269D02*
G01X12641165Y-847997D01*
G01X12652595Y-842409D01*
G01X12669867Y-842409D01*
G01X12681297Y-847997D01*
G01X12686885Y-865269D01*
G01X12686885Y-922419D01*
G01X12734637Y-779417D02*
G01X12746067Y-790847D01*
G01X12757497Y-808119D01*
G01X12768927Y-830979D01*
G01X12774769Y-859427D01*
G01X12774769Y-882287D01*
G01X12768927Y-910989D01*
G01X12757497Y-933849D01*
G01X12746067Y-950867D01*
G01X12734637Y-962297D01*
G01X13757387Y-802277D02*
G01X13757387Y-922419D01*
G01X13757387Y-802277D02*
G01X13808949Y-802277D01*
G01X13825967Y-808119D01*
G01X13831809Y-813707D01*
G01X13837397Y-825137D01*
G01X13837397Y-842409D01*
G01X13831809Y-853839D01*
G01X13825967Y-859427D01*
G01X13808949Y-865269D01*
G01X13757387Y-865269D01*
G01X13925281Y-802277D02*
G01X13925281Y-922419D01*
G01X13885149Y-802277D02*
G01X13965159Y-802277D01*
G01X14012911Y-802277D02*
G01X14012911Y-922419D01*
G01X14092921Y-802277D02*
G01X14092921Y-922419D01*
G01X14012911Y-859427D02*
G01X14092921Y-859427D01*
G01X15218794Y-802277D02*
G01X15218794Y-922419D01*
G01X15218794Y-802277D02*
G01X15270356Y-802277D01*
G01X15287374Y-808119D01*
G01X15293216Y-813707D01*
G01X15298804Y-825137D01*
G01X15298804Y-836567D01*
G01X15293216Y-847997D01*
G01X15287374Y-853839D01*
G01X15270356Y-859427D01*
G01X15218794Y-859427D01*
G01X15258926Y-859427D02*
G01X15298804Y-922419D01*
G01X15375258Y-842409D02*
G01X15363828Y-847997D01*
G01X15352398Y-859427D01*
G01X15346556Y-876699D01*
G01X15346556Y-888129D01*
G01X15352398Y-905147D01*
G01X15363828Y-916577D01*
G01X15375258Y-922419D01*
G01X15392276Y-922419D01*
G01X15403706Y-916577D01*
G01X15415136Y-905147D01*
G01X15420978Y-888129D01*
G01X15420978Y-876699D01*
G01X15415136Y-859427D01*
G01X15403706Y-847997D01*
G01X15392276Y-842409D01*
G01X15375258Y-842409D01*
G01X15468730Y-842409D02*
G01X15468730Y-899559D01*
G01X15474572Y-916577D01*
G01X15486002Y-922419D01*
G01X15503020Y-922419D01*
G01X15514450Y-916577D01*
G01X15531722Y-899559D01*
G01X15531722Y-842409D02*
G01X15531722Y-922419D01*
G01X15579474Y-842409D02*
G01X15579474Y-922419D01*
G01X15579474Y-865269D02*
G01X15596746Y-847997D01*
G01X15608176Y-842409D01*
G01X15625194Y-842409D01*
G01X15636624Y-847997D01*
G01X15642466Y-865269D01*
G01X15642466Y-922419D01*
G01X15758798Y-802277D02*
G01X15758798Y-922419D01*
G01X15758798Y-859427D02*
G01X15747368Y-847997D01*
G01X15735938Y-842409D01*
G01X15718920Y-842409D01*
G01X15707490Y-847997D01*
G01X15696060Y-859427D01*
G01X15690218Y-876699D01*
G01X15690218Y-888129D01*
G01X15696060Y-905147D01*
G01X15707490Y-916577D01*
G01X15718920Y-922419D01*
G01X15735938Y-922419D01*
G01X15747368Y-916577D01*
G01X15758798Y-905147D01*
G01X16649975Y-802277D02*
G01X16649975Y-922419D01*
G01X16649975Y-802277D02*
G01X16701537Y-802277D01*
G01X16718555Y-808119D01*
G01X16724397Y-813707D01*
G01X16729985Y-825137D01*
G01X16729985Y-842409D01*
G01X16724397Y-853839D01*
G01X16718555Y-859427D01*
G01X16701537Y-865269D01*
G01X16649975Y-865269D01*
G01X16846317Y-842409D02*
G01X16846317Y-922419D01*
G01X16846317Y-859427D02*
G01X16834887Y-847997D01*
G01X16823457Y-842409D01*
G01X16806439Y-842409D01*
G01X16795009Y-847997D01*
G01X16783579Y-859427D01*
G01X16777737Y-876699D01*
G01X16777737Y-888129D01*
G01X16783579Y-905147D01*
G01X16795009Y-916577D01*
G01X16806439Y-922419D01*
G01X16823457Y-922419D01*
G01X16834887Y-916577D01*
G01X16846317Y-905147D01*
G01X16962649Y-802277D02*
G01X16962649Y-922419D01*
G01X16962649Y-859427D02*
G01X16951219Y-847997D01*
G01X16939789Y-842409D01*
G01X16922771Y-842409D01*
G01X16911341Y-847997D01*
G01X16899911Y-859427D01*
G01X16894069Y-876699D01*
G01X16894069Y-888129D01*
G01X16899911Y-905147D01*
G01X16911341Y-916577D01*
G01X16922771Y-922419D01*
G01X16939789Y-922419D01*
G01X16951219Y-916577D01*
G01X16962649Y-905147D01*
G01X18359286Y-779417D02*
G01X18347856Y-790847D01*
G01X18336426Y-808119D01*
G01X18324996Y-830979D01*
G01X18319154Y-859427D01*
G01X18319154Y-882287D01*
G01X18324996Y-910989D01*
G01X18336426Y-933849D01*
G01X18347856Y-950867D01*
G01X18359286Y-962297D01*
G01X18407038Y-802277D02*
G01X18407038Y-922419D01*
G01X18407038Y-802277D02*
G01X18452758Y-922419D01*
G01X18498478Y-802277D02*
G01X18452758Y-922419D01*
G01X18498478Y-802277D02*
G01X18498478Y-922419D01*
G01X18546230Y-802277D02*
G01X18552072Y-808119D01*
G01X18557660Y-802277D01*
G01X18552072Y-796689D01*
G01X18546230Y-802277D01*
G01X18552072Y-842409D02*
G01X18552072Y-922419D01*
G01X18605412Y-842409D02*
G01X18668404Y-922419D01*
G01X18668404Y-842409D02*
G01X18605412Y-922419D01*
G01X18716156Y-876699D02*
G01X18784736Y-876699D01*
G01X18784736Y-865269D01*
G01X18779148Y-853839D01*
G01X18773306Y-847997D01*
G01X18761876Y-842409D01*
G01X18744858Y-842409D01*
G01X18733428Y-847997D01*
G01X18721998Y-859427D01*
G01X18716156Y-876699D01*
G01X18716156Y-888129D01*
G01X18721998Y-905147D01*
G01X18733428Y-916577D01*
G01X18744858Y-922419D01*
G01X18761876Y-922419D01*
G01X18773306Y-916577D01*
G01X18784736Y-905147D01*
G01X18901068Y-802277D02*
G01X18901068Y-922419D01*
G01X18901068Y-859427D02*
G01X18889638Y-847997D01*
G01X18878208Y-842409D01*
G01X18861190Y-842409D01*
G01X18849760Y-847997D01*
G01X18838330Y-859427D01*
G01X18832488Y-876699D01*
G01X18832488Y-888129D01*
G01X18838330Y-905147D01*
G01X18849760Y-916577D01*
G01X18861190Y-922419D01*
G01X18878208Y-922419D01*
G01X18889638Y-916577D01*
G01X18901068Y-905147D01*
G01X18948820Y-779417D02*
G01X18960250Y-790847D01*
G01X18971680Y-808119D01*
G01X18983110Y-830979D01*
G01X18988952Y-859427D01*
G01X18988952Y-882287D01*
G01X18983110Y-910989D01*
G01X18971680Y-933849D01*
G01X18960250Y-950867D01*
G01X18948820Y-962297D01*
G01X20278655Y-802277D02*
G01X20278655Y-922419D01*
G01X20238523Y-802277D02*
G01X20318533Y-802277D01*
G01X20394987Y-842409D02*
G01X20383557Y-847997D01*
G01X20372127Y-859427D01*
G01X20366285Y-876699D01*
G01X20366285Y-888129D01*
G01X20372127Y-905147D01*
G01X20383557Y-916577D01*
G01X20394987Y-922419D01*
G01X20412005Y-922419D01*
G01X20423435Y-916577D01*
G01X20434865Y-905147D01*
G01X20440707Y-888129D01*
G01X20440707Y-876699D01*
G01X20434865Y-859427D01*
G01X20423435Y-847997D01*
G01X20412005Y-842409D01*
G01X20394987Y-842409D01*
G01X20488459Y-842409D02*
G01X20488459Y-962297D01*
G01X20488459Y-859427D02*
G01X20499889Y-847997D01*
G01X20511319Y-842409D01*
G01X20528591Y-842409D01*
G01X20540021Y-847997D01*
G01X20551451Y-859427D01*
G01X20557039Y-876699D01*
G01X20557039Y-888129D01*
G01X20551451Y-905147D01*
G01X20540021Y-916577D01*
G01X20528591Y-922419D01*
G01X20511319Y-922419D01*
G01X20499889Y-916577D01*
G01X20488459Y-905147D01*
G01X20732807Y-802277D02*
G01X20732807Y-922419D01*
G01X20732807Y-922419D02*
G01X20801387Y-922419D01*
G01X20917719Y-842409D02*
G01X20917719Y-922419D01*
G01X20917719Y-859427D02*
G01X20906289Y-847997D01*
G01X20894859Y-842409D01*
G01X20877841Y-842409D01*
G01X20866411Y-847997D01*
G01X20854981Y-859427D01*
G01X20849139Y-876699D01*
G01X20849139Y-888129D01*
G01X20854981Y-905147D01*
G01X20866411Y-916577D01*
G01X20877841Y-922419D01*
G01X20894859Y-922419D01*
G01X20906289Y-916577D01*
G01X20917719Y-905147D01*
G01X20971313Y-842409D02*
G01X21005603Y-922419D01*
G01X21039893Y-842409D02*
G01X21005603Y-922419D01*
G01X20994173Y-945279D01*
G01X20982743Y-956709D01*
G01X20971313Y-962297D01*
G01X20965471Y-962297D01*
G01X21087645Y-876699D02*
G01X21156225Y-876699D01*
G01X21156225Y-865269D01*
G01X21150637Y-853839D01*
G01X21144795Y-847997D01*
G01X21133365Y-842409D01*
G01X21116347Y-842409D01*
G01X21104917Y-847997D01*
G01X21093487Y-859427D01*
G01X21087645Y-876699D01*
G01X21087645Y-888129D01*
G01X21093487Y-905147D01*
G01X21104917Y-916577D01*
G01X21116347Y-922419D01*
G01X21133365Y-922419D01*
G01X21144795Y-916577D01*
G01X21156225Y-905147D01*
G01X21203977Y-842409D02*
G01X21203977Y-922419D01*
G01X21203977Y-876699D02*
G01X21209819Y-859427D01*
G01X21221249Y-847997D01*
G01X21232679Y-842409D01*
G01X21249697Y-842409D01*
G01X21297449Y-870857D02*
G01X21400319Y-870857D01*
G01X21448071Y-802277D02*
G01X21448071Y-922419D01*
G01X21448071Y-802277D02*
G01X21499633Y-802277D01*
G01X21516651Y-808119D01*
G01X21522493Y-813707D01*
G01X21528081Y-825137D01*
G01X21528081Y-836567D01*
G01X21522493Y-847997D01*
G01X21516651Y-853839D01*
G01X21499633Y-859427D01*
G01X21448071Y-859427D02*
G01X21499633Y-859427D01*
G01X21516651Y-865269D01*
G01X21522493Y-870857D01*
G01X21528081Y-882287D01*
G01X21528081Y-899559D01*
G01X21522493Y-910989D01*
G01X21516651Y-916577D01*
G01X21499633Y-922419D01*
G01X21448071Y-922419D01*
G01X21604535Y-842409D02*
G01X21593105Y-847997D01*
G01X21581675Y-859427D01*
G01X21575833Y-876699D01*
G01X21575833Y-888129D01*
G01X21581675Y-905147D01*
G01X21593105Y-916577D01*
G01X21604535Y-922419D01*
G01X21621553Y-922419D01*
G01X21632983Y-916577D01*
G01X21644413Y-905147D01*
G01X21650255Y-888129D01*
G01X21650255Y-876699D01*
G01X21644413Y-859427D01*
G01X21632983Y-847997D01*
G01X21621553Y-842409D01*
G01X21604535Y-842409D01*
G01X21715279Y-802277D02*
G01X21715279Y-899559D01*
G01X21720867Y-916577D01*
G01X21732297Y-922419D01*
G01X21743727Y-922419D01*
G01X21698007Y-842409D02*
G01X21738139Y-842409D01*
G01X21808751Y-802277D02*
G01X21808751Y-899559D01*
G01X21814339Y-916577D01*
G01X21825769Y-922419D01*
G01X21837199Y-922419D01*
G01X21791479Y-842409D02*
G01X21831611Y-842409D01*
G01X21913653Y-842409D02*
G01X21902223Y-847997D01*
G01X21890793Y-859427D01*
G01X21884951Y-876699D01*
G01X21884951Y-888129D01*
G01X21890793Y-905147D01*
G01X21902223Y-916577D01*
G01X21913653Y-922419D01*
G01X21930671Y-922419D01*
G01X21942101Y-916577D01*
G01X21953531Y-905147D01*
G01X21959373Y-888129D01*
G01X21959373Y-876699D01*
G01X21953531Y-859427D01*
G01X21942101Y-847997D01*
G01X21930671Y-842409D01*
G01X21913653Y-842409D01*
G01X22007125Y-842409D02*
G01X22007125Y-922419D01*
G01X22007125Y-865269D02*
G01X22024397Y-847997D01*
G01X22035827Y-842409D01*
G01X22052845Y-842409D01*
G01X22064275Y-847997D01*
G01X22070117Y-865269D01*
G01X22070117Y-922419D01*
G01X22070117Y-865269D02*
G01X22087135Y-847997D01*
G01X22098565Y-842409D01*
G01X22115837Y-842409D01*
G01X22127267Y-847997D01*
G01X22132855Y-865269D01*
G01X22132855Y-922419D01*
G01X22308623Y-802277D02*
G01X22308623Y-922419D01*
G01X22308623Y-922419D02*
G01X22377203Y-922419D01*
G01X22493535Y-842409D02*
G01X22493535Y-922419D01*
G01X22493535Y-859427D02*
G01X22482105Y-847997D01*
G01X22470675Y-842409D01*
G01X22453657Y-842409D01*
G01X22442227Y-847997D01*
G01X22430797Y-859427D01*
G01X22424955Y-876699D01*
G01X22424955Y-888129D01*
G01X22430797Y-905147D01*
G01X22442227Y-916577D01*
G01X22453657Y-922419D01*
G01X22470675Y-922419D01*
G01X22482105Y-916577D01*
G01X22493535Y-905147D01*
G01X22547129Y-842409D02*
G01X22581419Y-922419D01*
G01X22615709Y-842409D02*
G01X22581419Y-922419D01*
G01X22569989Y-945279D01*
G01X22558559Y-956709D01*
G01X22547129Y-962297D01*
G01X22541287Y-962297D01*
G01X22663461Y-876699D02*
G01X22732041Y-876699D01*
G01X22732041Y-865269D01*
G01X22726453Y-853839D01*
G01X22720611Y-847997D01*
G01X22709181Y-842409D01*
G01X22692163Y-842409D01*
G01X22680733Y-847997D01*
G01X22669303Y-859427D01*
G01X22663461Y-876699D01*
G01X22663461Y-888129D01*
G01X22669303Y-905147D01*
G01X22680733Y-916577D01*
G01X22692163Y-922419D01*
G01X22709181Y-922419D01*
G01X22720611Y-916577D01*
G01X22732041Y-905147D01*
G01X22779793Y-842409D02*
G01X22779793Y-922419D01*
G01X22779793Y-876699D02*
G01X22785635Y-859427D01*
G01X22797065Y-847997D01*
G01X22808495Y-842409D01*
G01X22825513Y-842409D01*
G01X8631884Y-1382849D02*
G01X8574734Y-1502991D01*
G01X8551874Y-1382849D02*
G01X8631884Y-1382849D01*
G01X9977467Y-1382849D02*
G01X10040459Y-1382849D01*
G01X10006169Y-1428569D01*
G01X10023187Y-1428569D01*
G01X10034617Y-1434411D01*
G01X10040459Y-1439999D01*
G01X10046047Y-1457271D01*
G01X10046047Y-1468701D01*
G01X10040459Y-1485719D01*
G01X10029029Y-1497149D01*
G01X10011757Y-1502991D01*
G01X9994739Y-1502991D01*
G01X9977467Y-1497149D01*
G01X9971879Y-1491561D01*
G01X9966037Y-1480131D01*
G01X10162379Y-1400121D02*
G01X10156791Y-1388691D01*
G01X10139519Y-1382849D01*
G01X10128089Y-1382849D01*
G01X10111071Y-1388691D01*
G01X10099641Y-1405709D01*
G01X10093799Y-1434411D01*
G01X10093799Y-1462859D01*
G01X10099641Y-1485719D01*
G01X10111071Y-1497149D01*
G01X10128089Y-1502991D01*
G01X10133931Y-1502991D01*
G01X10150949Y-1497149D01*
G01X10162379Y-1485719D01*
G01X10168221Y-1468701D01*
G01X10168221Y-1462859D01*
G01X10162379Y-1445841D01*
G01X10150949Y-1434411D01*
G01X10133931Y-1428569D01*
G01X10128089Y-1428569D01*
G01X10111071Y-1434411D01*
G01X10099641Y-1445841D01*
G01X10093799Y-1462859D01*
G01X10221815Y-1474289D02*
G01X10215973Y-1480131D01*
G01X10221815Y-1485719D01*
G01X10227403Y-1480131D01*
G01X10221815Y-1474289D01*
G01X10309445Y-1382849D02*
G01X10292427Y-1388691D01*
G01X10280997Y-1405709D01*
G01X10275155Y-1434411D01*
G01X10275155Y-1451429D01*
G01X10280997Y-1480131D01*
G01X10292427Y-1497149D01*
G01X10309445Y-1502991D01*
G01X10320875Y-1502991D01*
G01X10338147Y-1497149D01*
G01X10349577Y-1480131D01*
G01X10355165Y-1451429D01*
G01X10355165Y-1434411D01*
G01X10349577Y-1405709D01*
G01X10338147Y-1388691D01*
G01X10320875Y-1382849D01*
G01X10309445Y-1382849D01*
G01X10402917Y-1422981D02*
G01X10465909Y-1502991D01*
G01X10465909Y-1422981D02*
G01X10402917Y-1502991D01*
G01X10525091Y-1382849D02*
G01X10588083Y-1382849D01*
G01X10553793Y-1428569D01*
G01X10570811Y-1428569D01*
G01X10582241Y-1434411D01*
G01X10588083Y-1439999D01*
G01X10593671Y-1457271D01*
G01X10593671Y-1468701D01*
G01X10588083Y-1485719D01*
G01X10576653Y-1497149D01*
G01X10559381Y-1502991D01*
G01X10542363Y-1502991D01*
G01X10525091Y-1497149D01*
G01X10519503Y-1491561D01*
G01X10513661Y-1480131D01*
G01X10710003Y-1400121D02*
G01X10704415Y-1388691D01*
G01X10687143Y-1382849D01*
G01X10675713Y-1382849D01*
G01X10658695Y-1388691D01*
G01X10647265Y-1405709D01*
G01X10641423Y-1434411D01*
G01X10641423Y-1462859D01*
G01X10647265Y-1485719D01*
G01X10658695Y-1497149D01*
G01X10675713Y-1502991D01*
G01X10681555Y-1502991D01*
G01X10698573Y-1497149D01*
G01X10710003Y-1485719D01*
G01X10715845Y-1468701D01*
G01X10715845Y-1462859D01*
G01X10710003Y-1445841D01*
G01X10698573Y-1434411D01*
G01X10681555Y-1428569D01*
G01X10675713Y-1428569D01*
G01X10658695Y-1434411D01*
G01X10647265Y-1445841D01*
G01X10641423Y-1462859D01*
G01X10769439Y-1474289D02*
G01X10763597Y-1480131D01*
G01X10769439Y-1485719D01*
G01X10775027Y-1480131D01*
G01X10769439Y-1474289D01*
G01X10857069Y-1382849D02*
G01X10840051Y-1388691D01*
G01X10828621Y-1405709D01*
G01X10822779Y-1434411D01*
G01X10822779Y-1451429D01*
G01X10828621Y-1480131D01*
G01X10840051Y-1497149D01*
G01X10857069Y-1502991D01*
G01X10868499Y-1502991D01*
G01X10885771Y-1497149D01*
G01X10897201Y-1480131D01*
G01X10902789Y-1451429D01*
G01X10902789Y-1434411D01*
G01X10897201Y-1405709D01*
G01X10885771Y-1388691D01*
G01X10868499Y-1382849D01*
G01X10857069Y-1382849D01*
G01X10950541Y-1422981D02*
G01X10950541Y-1502991D01*
G01X10950541Y-1445841D02*
G01X10967813Y-1428569D01*
G01X10979243Y-1422981D01*
G01X10996261Y-1422981D01*
G01X11007691Y-1428569D01*
G01X11013533Y-1445841D01*
G01X11013533Y-1502991D01*
G01X11013533Y-1445841D02*
G01X11030551Y-1428569D01*
G01X11041981Y-1422981D01*
G01X11059253Y-1422981D01*
G01X11070683Y-1428569D01*
G01X11076271Y-1445841D01*
G01X11076271Y-1502991D01*
G01X11124023Y-1382849D02*
G01X11129865Y-1388691D01*
G01X11135453Y-1382849D01*
G01X11129865Y-1377261D01*
G01X11124023Y-1382849D01*
G01X11129865Y-1422981D02*
G01X11129865Y-1502991D01*
G01X11183205Y-1382849D02*
G01X11183205Y-1502991D01*
G01X11271089Y-1359989D02*
G01X11259659Y-1371419D01*
G01X11248229Y-1388691D01*
G01X11236799Y-1411551D01*
G01X11230957Y-1439999D01*
G01X11230957Y-1462859D01*
G01X11236799Y-1491561D01*
G01X11248229Y-1514421D01*
G01X11259659Y-1531439D01*
G01X11271089Y-1542869D01*
G01X11353131Y-1382849D02*
G01X11336113Y-1388691D01*
G01X11324683Y-1405709D01*
G01X11318841Y-1434411D01*
G01X11318841Y-1451429D01*
G01X11324683Y-1480131D01*
G01X11336113Y-1497149D01*
G01X11353131Y-1502991D01*
G01X11364561Y-1502991D01*
G01X11381833Y-1497149D01*
G01X11393263Y-1480131D01*
G01X11398851Y-1451429D01*
G01X11398851Y-1434411D01*
G01X11393263Y-1405709D01*
G01X11381833Y-1388691D01*
G01X11364561Y-1382849D01*
G01X11353131Y-1382849D01*
G01X11452445Y-1474289D02*
G01X11446603Y-1480131D01*
G01X11452445Y-1485719D01*
G01X11458033Y-1480131D01*
G01X11452445Y-1474289D01*
G01X11580207Y-1422981D02*
G01X11574365Y-1439999D01*
G01X11562935Y-1451429D01*
G01X11545917Y-1457271D01*
G01X11540075Y-1457271D01*
G01X11523057Y-1451429D01*
G01X11511627Y-1439999D01*
G01X11505785Y-1422981D01*
G01X11505785Y-1417139D01*
G01X11511627Y-1400121D01*
G01X11523057Y-1388691D01*
G01X11540075Y-1382849D01*
G01X11545917Y-1382849D01*
G01X11562935Y-1388691D01*
G01X11574365Y-1400121D01*
G01X11580207Y-1422981D01*
G01X11580207Y-1451429D01*
G01X11574365Y-1480131D01*
G01X11562935Y-1497149D01*
G01X11545917Y-1502991D01*
G01X11534487Y-1502991D01*
G01X11517215Y-1497149D01*
G01X11511627Y-1485719D01*
G01X11627959Y-1405709D02*
G01X11639389Y-1400121D01*
G01X11656661Y-1382849D01*
G01X11656661Y-1502991D01*
G01X11761563Y-1382849D02*
G01X11704413Y-1462859D01*
G01X11790265Y-1462859D01*
G01X11761563Y-1382849D02*
G01X11761563Y-1502991D01*
G01X11838017Y-1422981D02*
G01X11901009Y-1502991D01*
G01X11901009Y-1422981D02*
G01X11838017Y-1502991D01*
G01X11983051Y-1382849D02*
G01X11966033Y-1388691D01*
G01X11954603Y-1405709D01*
G01X11948761Y-1434411D01*
G01X11948761Y-1451429D01*
G01X11954603Y-1480131D01*
G01X11966033Y-1497149D01*
G01X11983051Y-1502991D01*
G01X11994481Y-1502991D01*
G01X12011753Y-1497149D01*
G01X12023183Y-1480131D01*
G01X12028771Y-1451429D01*
G01X12028771Y-1434411D01*
G01X12023183Y-1405709D01*
G01X12011753Y-1388691D01*
G01X11994481Y-1382849D01*
G01X11983051Y-1382849D01*
G01X12082365Y-1474289D02*
G01X12076523Y-1480131D01*
G01X12082365Y-1485719D01*
G01X12087953Y-1480131D01*
G01X12082365Y-1474289D01*
G01X12210127Y-1422981D02*
G01X12204285Y-1439999D01*
G01X12192855Y-1451429D01*
G01X12175837Y-1457271D01*
G01X12169995Y-1457271D01*
G01X12152977Y-1451429D01*
G01X12141547Y-1439999D01*
G01X12135705Y-1422981D01*
G01X12135705Y-1417139D01*
G01X12141547Y-1400121D01*
G01X12152977Y-1388691D01*
G01X12169995Y-1382849D01*
G01X12175837Y-1382849D01*
G01X12192855Y-1388691D01*
G01X12204285Y-1400121D01*
G01X12210127Y-1422981D01*
G01X12210127Y-1451429D01*
G01X12204285Y-1480131D01*
G01X12192855Y-1497149D01*
G01X12175837Y-1502991D01*
G01X12164407Y-1502991D01*
G01X12147135Y-1497149D01*
G01X12141547Y-1485719D01*
G01X12257879Y-1405709D02*
G01X12269309Y-1400121D01*
G01X12286581Y-1382849D01*
G01X12286581Y-1502991D01*
G01X12391483Y-1382849D02*
G01X12334333Y-1462859D01*
G01X12420185Y-1462859D01*
G01X12391483Y-1382849D02*
G01X12391483Y-1502991D01*
G01X12467937Y-1422981D02*
G01X12467937Y-1502991D01*
G01X12467937Y-1445841D02*
G01X12485209Y-1428569D01*
G01X12496639Y-1422981D01*
G01X12513657Y-1422981D01*
G01X12525087Y-1428569D01*
G01X12530929Y-1445841D01*
G01X12530929Y-1502991D01*
G01X12530929Y-1445841D02*
G01X12547947Y-1428569D01*
G01X12559377Y-1422981D01*
G01X12576649Y-1422981D01*
G01X12588079Y-1428569D01*
G01X12593667Y-1445841D01*
G01X12593667Y-1502991D01*
G01X12641419Y-1422981D02*
G01X12641419Y-1502991D01*
G01X12641419Y-1445841D02*
G01X12658691Y-1428569D01*
G01X12670121Y-1422981D01*
G01X12687139Y-1422981D01*
G01X12698569Y-1428569D01*
G01X12704411Y-1445841D01*
G01X12704411Y-1502991D01*
G01X12704411Y-1445841D02*
G01X12721429Y-1428569D01*
G01X12732859Y-1422981D01*
G01X12750131Y-1422981D01*
G01X12761561Y-1428569D01*
G01X12767149Y-1445841D01*
G01X12767149Y-1502991D01*
G01X12814901Y-1359989D02*
G01X12826331Y-1371419D01*
G01X12837761Y-1388691D01*
G01X12849191Y-1411551D01*
G01X12855033Y-1439999D01*
G01X12855033Y-1462859D01*
G01X12849191Y-1491561D01*
G01X12837761Y-1514421D01*
G01X12826331Y-1531439D01*
G01X12814901Y-1542869D01*
G01X13757387Y-1382849D02*
G01X13757387Y-1502991D01*
G01X13757387Y-1382849D02*
G01X13808949Y-1382849D01*
G01X13825967Y-1388691D01*
G01X13831809Y-1394279D01*
G01X13837397Y-1405709D01*
G01X13837397Y-1422981D01*
G01X13831809Y-1434411D01*
G01X13825967Y-1439999D01*
G01X13808949Y-1445841D01*
G01X13757387Y-1445841D01*
G01X13925281Y-1382849D02*
G01X13925281Y-1502991D01*
G01X13885149Y-1382849D02*
G01X13965159Y-1382849D01*
G01X14012911Y-1382849D02*
G01X14012911Y-1502991D01*
G01X14092921Y-1382849D02*
G01X14092921Y-1502991D01*
G01X14012911Y-1439999D02*
G01X14092921Y-1439999D01*
G01X15218794Y-1382849D02*
G01X15218794Y-1502991D01*
G01X15218794Y-1382849D02*
G01X15270356Y-1382849D01*
G01X15287374Y-1388691D01*
G01X15293216Y-1394279D01*
G01X15298804Y-1405709D01*
G01X15298804Y-1417139D01*
G01X15293216Y-1428569D01*
G01X15287374Y-1434411D01*
G01X15270356Y-1439999D01*
G01X15218794Y-1439999D01*
G01X15258926Y-1439999D02*
G01X15298804Y-1502991D01*
G01X15375258Y-1422981D02*
G01X15363828Y-1428569D01*
G01X15352398Y-1439999D01*
G01X15346556Y-1457271D01*
G01X15346556Y-1468701D01*
G01X15352398Y-1485719D01*
G01X15363828Y-1497149D01*
G01X15375258Y-1502991D01*
G01X15392276Y-1502991D01*
G01X15403706Y-1497149D01*
G01X15415136Y-1485719D01*
G01X15420978Y-1468701D01*
G01X15420978Y-1457271D01*
G01X15415136Y-1439999D01*
G01X15403706Y-1428569D01*
G01X15392276Y-1422981D01*
G01X15375258Y-1422981D01*
G01X15468730Y-1422981D02*
G01X15468730Y-1480131D01*
G01X15474572Y-1497149D01*
G01X15486002Y-1502991D01*
G01X15503020Y-1502991D01*
G01X15514450Y-1497149D01*
G01X15531722Y-1480131D01*
G01X15531722Y-1422981D02*
G01X15531722Y-1502991D01*
G01X15579474Y-1422981D02*
G01X15579474Y-1502991D01*
G01X15579474Y-1445841D02*
G01X15596746Y-1428569D01*
G01X15608176Y-1422981D01*
G01X15625194Y-1422981D01*
G01X15636624Y-1428569D01*
G01X15642466Y-1445841D01*
G01X15642466Y-1502991D01*
G01X15758798Y-1382849D02*
G01X15758798Y-1502991D01*
G01X15758798Y-1439999D02*
G01X15747368Y-1428569D01*
G01X15735938Y-1422981D01*
G01X15718920Y-1422981D01*
G01X15707490Y-1428569D01*
G01X15696060Y-1439999D01*
G01X15690218Y-1457271D01*
G01X15690218Y-1468701D01*
G01X15696060Y-1485719D01*
G01X15707490Y-1497149D01*
G01X15718920Y-1502991D01*
G01X15735938Y-1502991D01*
G01X15747368Y-1497149D01*
G01X15758798Y-1485719D01*
G01X16649975Y-1382849D02*
G01X16649975Y-1502991D01*
G01X16649975Y-1382849D02*
G01X16701537Y-1382849D01*
G01X16718555Y-1388691D01*
G01X16724397Y-1394279D01*
G01X16729985Y-1405709D01*
G01X16729985Y-1422981D01*
G01X16724397Y-1434411D01*
G01X16718555Y-1439999D01*
G01X16701537Y-1445841D01*
G01X16649975Y-1445841D01*
G01X16846317Y-1422981D02*
G01X16846317Y-1502991D01*
G01X16846317Y-1439999D02*
G01X16834887Y-1428569D01*
G01X16823457Y-1422981D01*
G01X16806439Y-1422981D01*
G01X16795009Y-1428569D01*
G01X16783579Y-1439999D01*
G01X16777737Y-1457271D01*
G01X16777737Y-1468701D01*
G01X16783579Y-1485719D01*
G01X16795009Y-1497149D01*
G01X16806439Y-1502991D01*
G01X16823457Y-1502991D01*
G01X16834887Y-1497149D01*
G01X16846317Y-1485719D01*
G01X16962649Y-1382849D02*
G01X16962649Y-1502991D01*
G01X16962649Y-1439999D02*
G01X16951219Y-1428569D01*
G01X16939789Y-1422981D01*
G01X16922771Y-1422981D01*
G01X16911341Y-1428569D01*
G01X16899911Y-1439999D01*
G01X16894069Y-1457271D01*
G01X16894069Y-1468701D01*
G01X16899911Y-1485719D01*
G01X16911341Y-1497149D01*
G01X16922771Y-1502991D01*
G01X16939789Y-1502991D01*
G01X16951219Y-1497149D01*
G01X16962649Y-1485719D01*
G01X18319154Y-1382849D02*
G01X18319154Y-1502991D01*
G01X18319154Y-1382849D02*
G01X18370716Y-1382849D01*
G01X18387734Y-1388691D01*
G01X18393576Y-1394279D01*
G01X18399164Y-1405709D01*
G01X18399164Y-1417139D01*
G01X18393576Y-1428569D01*
G01X18387734Y-1434411D01*
G01X18370716Y-1439999D01*
G01X18319154Y-1439999D01*
G01X18359286Y-1439999D02*
G01X18399164Y-1502991D01*
G01X18475618Y-1422981D02*
G01X18464188Y-1428569D01*
G01X18452758Y-1439999D01*
G01X18446916Y-1457271D01*
G01X18446916Y-1468701D01*
G01X18452758Y-1485719D01*
G01X18464188Y-1497149D01*
G01X18475618Y-1502991D01*
G01X18492636Y-1502991D01*
G01X18504066Y-1497149D01*
G01X18515496Y-1485719D01*
G01X18521338Y-1468701D01*
G01X18521338Y-1457271D01*
G01X18515496Y-1439999D01*
G01X18504066Y-1428569D01*
G01X18492636Y-1422981D01*
G01X18475618Y-1422981D01*
G01X18569090Y-1422981D02*
G01X18569090Y-1480131D01*
G01X18574932Y-1497149D01*
G01X18586362Y-1502991D01*
G01X18603380Y-1502991D01*
G01X18614810Y-1497149D01*
G01X18632082Y-1480131D01*
G01X18632082Y-1422981D02*
G01X18632082Y-1502991D01*
G01X18679834Y-1422981D02*
G01X18679834Y-1502991D01*
G01X18679834Y-1445841D02*
G01X18697106Y-1428569D01*
G01X18708536Y-1422981D01*
G01X18725554Y-1422981D01*
G01X18736984Y-1428569D01*
G01X18742826Y-1445841D01*
G01X18742826Y-1502991D01*
G01X18859158Y-1382849D02*
G01X18859158Y-1502991D01*
G01X18859158Y-1439999D02*
G01X18847728Y-1428569D01*
G01X18836298Y-1422981D01*
G01X18819280Y-1422981D01*
G01X18807850Y-1428569D01*
G01X18796420Y-1439999D01*
G01X18790578Y-1457271D01*
G01X18790578Y-1468701D01*
G01X18796420Y-1485719D01*
G01X18807850Y-1497149D01*
G01X18819280Y-1502991D01*
G01X18836298Y-1502991D01*
G01X18847728Y-1497149D01*
G01X18859158Y-1485719D01*
G01X20278655Y-1382849D02*
G01X20278655Y-1502991D01*
G01X20238523Y-1382849D02*
G01X20318533Y-1382849D01*
G01X20394987Y-1422981D02*
G01X20383557Y-1428569D01*
G01X20372127Y-1439999D01*
G01X20366285Y-1457271D01*
G01X20366285Y-1468701D01*
G01X20372127Y-1485719D01*
G01X20383557Y-1497149D01*
G01X20394987Y-1502991D01*
G01X20412005Y-1502991D01*
G01X20423435Y-1497149D01*
G01X20434865Y-1485719D01*
G01X20440707Y-1468701D01*
G01X20440707Y-1457271D01*
G01X20434865Y-1439999D01*
G01X20423435Y-1428569D01*
G01X20412005Y-1422981D01*
G01X20394987Y-1422981D01*
G01X20488459Y-1422981D02*
G01X20488459Y-1542869D01*
G01X20488459Y-1439999D02*
G01X20499889Y-1428569D01*
G01X20511319Y-1422981D01*
G01X20528591Y-1422981D01*
G01X20540021Y-1428569D01*
G01X20551451Y-1439999D01*
G01X20557039Y-1457271D01*
G01X20557039Y-1468701D01*
G01X20551451Y-1485719D01*
G01X20540021Y-1497149D01*
G01X20528591Y-1502991D01*
G01X20511319Y-1502991D01*
G01X20499889Y-1497149D01*
G01X20488459Y-1485719D01*
G01X20732807Y-1382849D02*
G01X20732807Y-1502991D01*
G01X20732807Y-1502991D02*
G01X20801387Y-1502991D01*
G01X20917719Y-1422981D02*
G01X20917719Y-1502991D01*
G01X20917719Y-1439999D02*
G01X20906289Y-1428569D01*
G01X20894859Y-1422981D01*
G01X20877841Y-1422981D01*
G01X20866411Y-1428569D01*
G01X20854981Y-1439999D01*
G01X20849139Y-1457271D01*
G01X20849139Y-1468701D01*
G01X20854981Y-1485719D01*
G01X20866411Y-1497149D01*
G01X20877841Y-1502991D01*
G01X20894859Y-1502991D01*
G01X20906289Y-1497149D01*
G01X20917719Y-1485719D01*
G01X20971313Y-1422981D02*
G01X21005603Y-1502991D01*
G01X21039893Y-1422981D02*
G01X21005603Y-1502991D01*
G01X20994173Y-1525851D01*
G01X20982743Y-1537281D01*
G01X20971313Y-1542869D01*
G01X20965471Y-1542869D01*
G01X21087645Y-1457271D02*
G01X21156225Y-1457271D01*
G01X21156225Y-1445841D01*
G01X21150637Y-1434411D01*
G01X21144795Y-1428569D01*
G01X21133365Y-1422981D01*
G01X21116347Y-1422981D01*
G01X21104917Y-1428569D01*
G01X21093487Y-1439999D01*
G01X21087645Y-1457271D01*
G01X21087645Y-1468701D01*
G01X21093487Y-1485719D01*
G01X21104917Y-1497149D01*
G01X21116347Y-1502991D01*
G01X21133365Y-1502991D01*
G01X21144795Y-1497149D01*
G01X21156225Y-1485719D01*
G01X21203977Y-1422981D02*
G01X21203977Y-1502991D01*
G01X21203977Y-1457271D02*
G01X21209819Y-1439999D01*
G01X21221249Y-1428569D01*
G01X21232679Y-1422981D01*
G01X21249697Y-1422981D01*
G01X21297449Y-1451429D02*
G01X21400319Y-1451429D01*
G01X21448071Y-1382849D02*
G01X21448071Y-1502991D01*
G01X21448071Y-1382849D02*
G01X21499633Y-1382849D01*
G01X21516651Y-1388691D01*
G01X21522493Y-1394279D01*
G01X21528081Y-1405709D01*
G01X21528081Y-1417139D01*
G01X21522493Y-1428569D01*
G01X21516651Y-1434411D01*
G01X21499633Y-1439999D01*
G01X21448071Y-1439999D02*
G01X21499633Y-1439999D01*
G01X21516651Y-1445841D01*
G01X21522493Y-1451429D01*
G01X21528081Y-1462859D01*
G01X21528081Y-1480131D01*
G01X21522493Y-1491561D01*
G01X21516651Y-1497149D01*
G01X21499633Y-1502991D01*
G01X21448071Y-1502991D01*
G01X21604535Y-1422981D02*
G01X21593105Y-1428569D01*
G01X21581675Y-1439999D01*
G01X21575833Y-1457271D01*
G01X21575833Y-1468701D01*
G01X21581675Y-1485719D01*
G01X21593105Y-1497149D01*
G01X21604535Y-1502991D01*
G01X21621553Y-1502991D01*
G01X21632983Y-1497149D01*
G01X21644413Y-1485719D01*
G01X21650255Y-1468701D01*
G01X21650255Y-1457271D01*
G01X21644413Y-1439999D01*
G01X21632983Y-1428569D01*
G01X21621553Y-1422981D01*
G01X21604535Y-1422981D01*
G01X21715279Y-1382849D02*
G01X21715279Y-1480131D01*
G01X21720867Y-1497149D01*
G01X21732297Y-1502991D01*
G01X21743727Y-1502991D01*
G01X21698007Y-1422981D02*
G01X21738139Y-1422981D01*
G01X21808751Y-1382849D02*
G01X21808751Y-1480131D01*
G01X21814339Y-1497149D01*
G01X21825769Y-1502991D01*
G01X21837199Y-1502991D01*
G01X21791479Y-1422981D02*
G01X21831611Y-1422981D01*
G01X21913653Y-1422981D02*
G01X21902223Y-1428569D01*
G01X21890793Y-1439999D01*
G01X21884951Y-1457271D01*
G01X21884951Y-1468701D01*
G01X21890793Y-1485719D01*
G01X21902223Y-1497149D01*
G01X21913653Y-1502991D01*
G01X21930671Y-1502991D01*
G01X21942101Y-1497149D01*
G01X21953531Y-1485719D01*
G01X21959373Y-1468701D01*
G01X21959373Y-1457271D01*
G01X21953531Y-1439999D01*
G01X21942101Y-1428569D01*
G01X21930671Y-1422981D01*
G01X21913653Y-1422981D01*
G01X22007125Y-1422981D02*
G01X22007125Y-1502991D01*
G01X22007125Y-1445841D02*
G01X22024397Y-1428569D01*
G01X22035827Y-1422981D01*
G01X22052845Y-1422981D01*
G01X22064275Y-1428569D01*
G01X22070117Y-1445841D01*
G01X22070117Y-1502991D01*
G01X22070117Y-1445841D02*
G01X22087135Y-1428569D01*
G01X22098565Y-1422981D01*
G01X22115837Y-1422981D01*
G01X22127267Y-1428569D01*
G01X22132855Y-1445841D01*
G01X22132855Y-1502991D01*
G01X22308623Y-1382849D02*
G01X22308623Y-1502991D01*
G01X22308623Y-1502991D02*
G01X22377203Y-1502991D01*
G01X22493535Y-1422981D02*
G01X22493535Y-1502991D01*
G01X22493535Y-1439999D02*
G01X22482105Y-1428569D01*
G01X22470675Y-1422981D01*
G01X22453657Y-1422981D01*
G01X22442227Y-1428569D01*
G01X22430797Y-1439999D01*
G01X22424955Y-1457271D01*
G01X22424955Y-1468701D01*
G01X22430797Y-1485719D01*
G01X22442227Y-1497149D01*
G01X22453657Y-1502991D01*
G01X22470675Y-1502991D01*
G01X22482105Y-1497149D01*
G01X22493535Y-1485719D01*
G01X22547129Y-1422981D02*
G01X22581419Y-1502991D01*
G01X22615709Y-1422981D02*
G01X22581419Y-1502991D01*
G01X22569989Y-1525851D01*
G01X22558559Y-1537281D01*
G01X22547129Y-1542869D01*
G01X22541287Y-1542869D01*
G01X22663461Y-1457271D02*
G01X22732041Y-1457271D01*
G01X22732041Y-1445841D01*
G01X22726453Y-1434411D01*
G01X22720611Y-1428569D01*
G01X22709181Y-1422981D01*
G01X22692163Y-1422981D01*
G01X22680733Y-1428569D01*
G01X22669303Y-1439999D01*
G01X22663461Y-1457271D01*
G01X22663461Y-1468701D01*
G01X22669303Y-1485719D01*
G01X22680733Y-1497149D01*
G01X22692163Y-1502991D01*
G01X22709181Y-1502991D01*
G01X22720611Y-1497149D01*
G01X22732041Y-1485719D01*
G01X22779793Y-1422981D02*
G01X22779793Y-1502991D01*
G01X22779793Y-1457271D02*
G01X22785635Y-1439999D01*
G01X22797065Y-1428569D01*
G01X22808495Y-1422981D01*
G01X22825513Y-1422981D01*
G01X8551874Y-1986280D02*
G01X8563304Y-1980692D01*
G01X8580576Y-1963420D01*
G01X8580576Y-2083562D01*
G01X8634170Y-1992122D02*
G01X8634170Y-1986280D01*
G01X8639758Y-1974850D01*
G01X8645600Y-1969262D01*
G01X8657030Y-1963420D01*
G01X8679890Y-1963420D01*
G01X8691320Y-1969262D01*
G01X8696908Y-1974850D01*
G01X8702750Y-1986280D01*
G01X8702750Y-1997710D01*
G01X8696908Y-2009140D01*
G01X8685478Y-2026412D01*
G01X8628328Y-2083562D01*
G01X8708338Y-2083562D01*
G01X10023187Y-1963420D02*
G01X9966037Y-2043430D01*
G01X10051889Y-2043430D01*
G01X10023187Y-1963420D02*
G01X10023187Y-2083562D01*
G01X10099641Y-1986280D02*
G01X10111071Y-1980692D01*
G01X10128343Y-1963420D01*
G01X10128343Y-2083562D01*
G01X10181937Y-2054860D02*
G01X10176095Y-2060702D01*
G01X10181937Y-2066290D01*
G01X10187525Y-2060702D01*
G01X10181937Y-2054860D01*
G01X10246707Y-1963420D02*
G01X10309699Y-1963420D01*
G01X10275409Y-2009140D01*
G01X10292427Y-2009140D01*
G01X10303857Y-2014982D01*
G01X10309699Y-2020570D01*
G01X10315287Y-2037842D01*
G01X10315287Y-2049272D01*
G01X10309699Y-2066290D01*
G01X10298269Y-2077720D01*
G01X10280997Y-2083562D01*
G01X10263979Y-2083562D01*
G01X10246707Y-2077720D01*
G01X10241119Y-2072132D01*
G01X10235277Y-2060702D01*
G01X10363039Y-2003552D02*
G01X10426031Y-2083562D01*
G01X10426031Y-2003552D02*
G01X10363039Y-2083562D01*
G01X10530933Y-1963420D02*
G01X10473783Y-2043430D01*
G01X10559635Y-2043430D01*
G01X10530933Y-1963420D02*
G01X10530933Y-2083562D01*
G01X10607387Y-1986280D02*
G01X10618817Y-1980692D01*
G01X10636089Y-1963420D01*
G01X10636089Y-2083562D01*
G01X10689683Y-2054860D02*
G01X10683841Y-2060702D01*
G01X10689683Y-2066290D01*
G01X10695271Y-2060702D01*
G01X10689683Y-2054860D01*
G01X10754453Y-1963420D02*
G01X10817445Y-1963420D01*
G01X10783155Y-2009140D01*
G01X10800173Y-2009140D01*
G01X10811603Y-2014982D01*
G01X10817445Y-2020570D01*
G01X10823033Y-2037842D01*
G01X10823033Y-2049272D01*
G01X10817445Y-2066290D01*
G01X10806015Y-2077720D01*
G01X10788743Y-2083562D01*
G01X10771725Y-2083562D01*
G01X10754453Y-2077720D01*
G01X10748865Y-2072132D01*
G01X10743023Y-2060702D01*
G01X10870785Y-2003552D02*
G01X10870785Y-2083562D01*
G01X10870785Y-2026412D02*
G01X10888057Y-2009140D01*
G01X10899487Y-2003552D01*
G01X10916505Y-2003552D01*
G01X10927935Y-2009140D01*
G01X10933777Y-2026412D01*
G01X10933777Y-2083562D01*
G01X10933777Y-2026412D02*
G01X10950795Y-2009140D01*
G01X10962225Y-2003552D01*
G01X10979497Y-2003552D01*
G01X10990927Y-2009140D01*
G01X10996515Y-2026412D01*
G01X10996515Y-2083562D01*
G01X11044267Y-1963420D02*
G01X11050109Y-1969262D01*
G01X11055697Y-1963420D01*
G01X11050109Y-1957832D01*
G01X11044267Y-1963420D01*
G01X11050109Y-2003552D02*
G01X11050109Y-2083562D01*
G01X11103449Y-1963420D02*
G01X11103449Y-2083562D01*
G01X11191333Y-1940560D02*
G01X11179903Y-1951990D01*
G01X11168473Y-1969262D01*
G01X11157043Y-1992122D01*
G01X11151201Y-2020570D01*
G01X11151201Y-2043430D01*
G01X11157043Y-2072132D01*
G01X11168473Y-2094992D01*
G01X11179903Y-2112010D01*
G01X11191333Y-2123440D01*
G01X11239085Y-1986280D02*
G01X11250515Y-1980692D01*
G01X11267787Y-1963420D01*
G01X11267787Y-2083562D01*
G01X11321381Y-2054860D02*
G01X11315539Y-2060702D01*
G01X11321381Y-2066290D01*
G01X11326969Y-2060702D01*
G01X11321381Y-2054860D01*
G01X11409011Y-1963420D02*
G01X11391993Y-1969262D01*
G01X11380563Y-1986280D01*
G01X11374721Y-2014982D01*
G01X11374721Y-2032000D01*
G01X11380563Y-2060702D01*
G01X11391993Y-2077720D01*
G01X11409011Y-2083562D01*
G01X11420441Y-2083562D01*
G01X11437713Y-2077720D01*
G01X11449143Y-2060702D01*
G01X11454731Y-2032000D01*
G01X11454731Y-2014982D01*
G01X11449143Y-1986280D01*
G01X11437713Y-1969262D01*
G01X11420441Y-1963420D01*
G01X11409011Y-1963420D01*
G01X11571063Y-1963420D02*
G01X11513913Y-1963420D01*
G01X11508325Y-2014982D01*
G01X11513913Y-2009140D01*
G01X11531185Y-2003552D01*
G01X11548203Y-2003552D01*
G01X11565475Y-2009140D01*
G01X11576905Y-2020570D01*
G01X11582493Y-2037842D01*
G01X11582493Y-2049272D01*
G01X11576905Y-2066290D01*
G01X11565475Y-2077720D01*
G01X11548203Y-2083562D01*
G01X11531185Y-2083562D01*
G01X11513913Y-2077720D01*
G01X11508325Y-2072132D01*
G01X11502483Y-2060702D01*
G01X11664535Y-1963420D02*
G01X11647517Y-1969262D01*
G01X11636087Y-1986280D01*
G01X11630245Y-2014982D01*
G01X11630245Y-2032000D01*
G01X11636087Y-2060702D01*
G01X11647517Y-2077720D01*
G01X11664535Y-2083562D01*
G01X11675965Y-2083562D01*
G01X11693237Y-2077720D01*
G01X11704667Y-2060702D01*
G01X11710255Y-2032000D01*
G01X11710255Y-2014982D01*
G01X11704667Y-1986280D01*
G01X11693237Y-1969262D01*
G01X11675965Y-1963420D01*
G01X11664535Y-1963420D01*
G01X11758007Y-2003552D02*
G01X11820999Y-2083562D01*
G01X11820999Y-2003552D02*
G01X11758007Y-2083562D01*
G01X11868751Y-1986280D02*
G01X11880181Y-1980692D01*
G01X11897453Y-1963420D01*
G01X11897453Y-2083562D01*
G01X11951047Y-2054860D02*
G01X11945205Y-2060702D01*
G01X11951047Y-2066290D01*
G01X11956635Y-2060702D01*
G01X11951047Y-2054860D01*
G01X12038677Y-1963420D02*
G01X12021659Y-1969262D01*
G01X12010229Y-1986280D01*
G01X12004387Y-2014982D01*
G01X12004387Y-2032000D01*
G01X12010229Y-2060702D01*
G01X12021659Y-2077720D01*
G01X12038677Y-2083562D01*
G01X12050107Y-2083562D01*
G01X12067379Y-2077720D01*
G01X12078809Y-2060702D01*
G01X12084397Y-2032000D01*
G01X12084397Y-2014982D01*
G01X12078809Y-1986280D01*
G01X12067379Y-1969262D01*
G01X12050107Y-1963420D01*
G01X12038677Y-1963420D01*
G01X12200729Y-1963420D02*
G01X12143579Y-1963420D01*
G01X12137991Y-2014982D01*
G01X12143579Y-2009140D01*
G01X12160851Y-2003552D01*
G01X12177869Y-2003552D01*
G01X12195141Y-2009140D01*
G01X12206571Y-2020570D01*
G01X12212159Y-2037842D01*
G01X12212159Y-2049272D01*
G01X12206571Y-2066290D01*
G01X12195141Y-2077720D01*
G01X12177869Y-2083562D01*
G01X12160851Y-2083562D01*
G01X12143579Y-2077720D01*
G01X12137991Y-2072132D01*
G01X12132149Y-2060702D01*
G01X12294201Y-1963420D02*
G01X12277183Y-1969262D01*
G01X12265753Y-1986280D01*
G01X12259911Y-2014982D01*
G01X12259911Y-2032000D01*
G01X12265753Y-2060702D01*
G01X12277183Y-2077720D01*
G01X12294201Y-2083562D01*
G01X12305631Y-2083562D01*
G01X12322903Y-2077720D01*
G01X12334333Y-2060702D01*
G01X12339921Y-2032000D01*
G01X12339921Y-2014982D01*
G01X12334333Y-1986280D01*
G01X12322903Y-1969262D01*
G01X12305631Y-1963420D01*
G01X12294201Y-1963420D01*
G01X12387673Y-2003552D02*
G01X12387673Y-2083562D01*
G01X12387673Y-2026412D02*
G01X12404945Y-2009140D01*
G01X12416375Y-2003552D01*
G01X12433393Y-2003552D01*
G01X12444823Y-2009140D01*
G01X12450665Y-2026412D01*
G01X12450665Y-2083562D01*
G01X12450665Y-2026412D02*
G01X12467683Y-2009140D01*
G01X12479113Y-2003552D01*
G01X12496385Y-2003552D01*
G01X12507815Y-2009140D01*
G01X12513403Y-2026412D01*
G01X12513403Y-2083562D01*
G01X12561155Y-2003552D02*
G01X12561155Y-2083562D01*
G01X12561155Y-2026412D02*
G01X12578427Y-2009140D01*
G01X12589857Y-2003552D01*
G01X12606875Y-2003552D01*
G01X12618305Y-2009140D01*
G01X12624147Y-2026412D01*
G01X12624147Y-2083562D01*
G01X12624147Y-2026412D02*
G01X12641165Y-2009140D01*
G01X12652595Y-2003552D01*
G01X12669867Y-2003552D01*
G01X12681297Y-2009140D01*
G01X12686885Y-2026412D01*
G01X12686885Y-2083562D01*
G01X12734637Y-1940560D02*
G01X12746067Y-1951990D01*
G01X12757497Y-1969262D01*
G01X12768927Y-1992122D01*
G01X12774769Y-2020570D01*
G01X12774769Y-2043430D01*
G01X12768927Y-2072132D01*
G01X12757497Y-2094992D01*
G01X12746067Y-2112010D01*
G01X12734637Y-2123440D01*
G01X13757387Y-1963420D02*
G01X13757387Y-2083562D01*
G01X13757387Y-1963420D02*
G01X13808949Y-1963420D01*
G01X13825967Y-1969262D01*
G01X13831809Y-1974850D01*
G01X13837397Y-1986280D01*
G01X13837397Y-2003552D01*
G01X13831809Y-2014982D01*
G01X13825967Y-2020570D01*
G01X13808949Y-2026412D01*
G01X13757387Y-2026412D01*
G01X13925281Y-1963420D02*
G01X13925281Y-2083562D01*
G01X13885149Y-1963420D02*
G01X13965159Y-1963420D01*
G01X14012911Y-1963420D02*
G01X14012911Y-2083562D01*
G01X14092921Y-1963420D02*
G01X14092921Y-2083562D01*
G01X14012911Y-2020570D02*
G01X14092921Y-2020570D01*
G01X15218794Y-1963420D02*
G01X15218794Y-2083562D01*
G01X15218794Y-1963420D02*
G01X15270356Y-1963420D01*
G01X15287374Y-1969262D01*
G01X15293216Y-1974850D01*
G01X15298804Y-1986280D01*
G01X15298804Y-1997710D01*
G01X15293216Y-2009140D01*
G01X15287374Y-2014982D01*
G01X15270356Y-2020570D01*
G01X15218794Y-2020570D01*
G01X15258926Y-2020570D02*
G01X15298804Y-2083562D01*
G01X15375258Y-2003552D02*
G01X15363828Y-2009140D01*
G01X15352398Y-2020570D01*
G01X15346556Y-2037842D01*
G01X15346556Y-2049272D01*
G01X15352398Y-2066290D01*
G01X15363828Y-2077720D01*
G01X15375258Y-2083562D01*
G01X15392276Y-2083562D01*
G01X15403706Y-2077720D01*
G01X15415136Y-2066290D01*
G01X15420978Y-2049272D01*
G01X15420978Y-2037842D01*
G01X15415136Y-2020570D01*
G01X15403706Y-2009140D01*
G01X15392276Y-2003552D01*
G01X15375258Y-2003552D01*
G01X15468730Y-2003552D02*
G01X15468730Y-2060702D01*
G01X15474572Y-2077720D01*
G01X15486002Y-2083562D01*
G01X15503020Y-2083562D01*
G01X15514450Y-2077720D01*
G01X15531722Y-2060702D01*
G01X15531722Y-2003552D02*
G01X15531722Y-2083562D01*
G01X15579474Y-2003552D02*
G01X15579474Y-2083562D01*
G01X15579474Y-2026412D02*
G01X15596746Y-2009140D01*
G01X15608176Y-2003552D01*
G01X15625194Y-2003552D01*
G01X15636624Y-2009140D01*
G01X15642466Y-2026412D01*
G01X15642466Y-2083562D01*
G01X15758798Y-1963420D02*
G01X15758798Y-2083562D01*
G01X15758798Y-2020570D02*
G01X15747368Y-2009140D01*
G01X15735938Y-2003552D01*
G01X15718920Y-2003552D01*
G01X15707490Y-2009140D01*
G01X15696060Y-2020570D01*
G01X15690218Y-2037842D01*
G01X15690218Y-2049272D01*
G01X15696060Y-2066290D01*
G01X15707490Y-2077720D01*
G01X15718920Y-2083562D01*
G01X15735938Y-2083562D01*
G01X15747368Y-2077720D01*
G01X15758798Y-2066290D01*
G01X16649975Y-1963420D02*
G01X16649975Y-2083562D01*
G01X16649975Y-1963420D02*
G01X16701537Y-1963420D01*
G01X16718555Y-1969262D01*
G01X16724397Y-1974850D01*
G01X16729985Y-1986280D01*
G01X16729985Y-2003552D01*
G01X16724397Y-2014982D01*
G01X16718555Y-2020570D01*
G01X16701537Y-2026412D01*
G01X16649975Y-2026412D01*
G01X16846317Y-2003552D02*
G01X16846317Y-2083562D01*
G01X16846317Y-2020570D02*
G01X16834887Y-2009140D01*
G01X16823457Y-2003552D01*
G01X16806439Y-2003552D01*
G01X16795009Y-2009140D01*
G01X16783579Y-2020570D01*
G01X16777737Y-2037842D01*
G01X16777737Y-2049272D01*
G01X16783579Y-2066290D01*
G01X16795009Y-2077720D01*
G01X16806439Y-2083562D01*
G01X16823457Y-2083562D01*
G01X16834887Y-2077720D01*
G01X16846317Y-2066290D01*
G01X16962649Y-1963420D02*
G01X16962649Y-2083562D01*
G01X16962649Y-2020570D02*
G01X16951219Y-2009140D01*
G01X16939789Y-2003552D01*
G01X16922771Y-2003552D01*
G01X16911341Y-2009140D01*
G01X16899911Y-2020570D01*
G01X16894069Y-2037842D01*
G01X16894069Y-2049272D01*
G01X16899911Y-2066290D01*
G01X16911341Y-2077720D01*
G01X16922771Y-2083562D01*
G01X16939789Y-2083562D01*
G01X16951219Y-2077720D01*
G01X16962649Y-2066290D01*
G01X18359286Y-1940560D02*
G01X18347856Y-1951990D01*
G01X18336426Y-1969262D01*
G01X18324996Y-1992122D01*
G01X18319154Y-2020570D01*
G01X18319154Y-2043430D01*
G01X18324996Y-2072132D01*
G01X18336426Y-2094992D01*
G01X18347856Y-2112010D01*
G01X18359286Y-2123440D01*
G01X18407038Y-1963420D02*
G01X18407038Y-2083562D01*
G01X18407038Y-1963420D02*
G01X18452758Y-2083562D01*
G01X18498478Y-1963420D02*
G01X18452758Y-2083562D01*
G01X18498478Y-1963420D02*
G01X18498478Y-2083562D01*
G01X18546230Y-1963420D02*
G01X18552072Y-1969262D01*
G01X18557660Y-1963420D01*
G01X18552072Y-1957832D01*
G01X18546230Y-1963420D01*
G01X18552072Y-2003552D02*
G01X18552072Y-2083562D01*
G01X18605412Y-2003552D02*
G01X18668404Y-2083562D01*
G01X18668404Y-2003552D02*
G01X18605412Y-2083562D01*
G01X18716156Y-2037842D02*
G01X18784736Y-2037842D01*
G01X18784736Y-2026412D01*
G01X18779148Y-2014982D01*
G01X18773306Y-2009140D01*
G01X18761876Y-2003552D01*
G01X18744858Y-2003552D01*
G01X18733428Y-2009140D01*
G01X18721998Y-2020570D01*
G01X18716156Y-2037842D01*
G01X18716156Y-2049272D01*
G01X18721998Y-2066290D01*
G01X18733428Y-2077720D01*
G01X18744858Y-2083562D01*
G01X18761876Y-2083562D01*
G01X18773306Y-2077720D01*
G01X18784736Y-2066290D01*
G01X18901068Y-1963420D02*
G01X18901068Y-2083562D01*
G01X18901068Y-2020570D02*
G01X18889638Y-2009140D01*
G01X18878208Y-2003552D01*
G01X18861190Y-2003552D01*
G01X18849760Y-2009140D01*
G01X18838330Y-2020570D01*
G01X18832488Y-2037842D01*
G01X18832488Y-2049272D01*
G01X18838330Y-2066290D01*
G01X18849760Y-2077720D01*
G01X18861190Y-2083562D01*
G01X18878208Y-2083562D01*
G01X18889638Y-2077720D01*
G01X18901068Y-2066290D01*
G01X18948820Y-1940560D02*
G01X18960250Y-1951990D01*
G01X18971680Y-1969262D01*
G01X18983110Y-1992122D01*
G01X18988952Y-2020570D01*
G01X18988952Y-2043430D01*
G01X18983110Y-2072132D01*
G01X18971680Y-2094992D01*
G01X18960250Y-2112010D01*
G01X18948820Y-2123440D01*
G01X20278655Y-1963420D02*
G01X20278655Y-2083562D01*
G01X20238523Y-1963420D02*
G01X20318533Y-1963420D01*
G01X20394987Y-2003552D02*
G01X20383557Y-2009140D01*
G01X20372127Y-2020570D01*
G01X20366285Y-2037842D01*
G01X20366285Y-2049272D01*
G01X20372127Y-2066290D01*
G01X20383557Y-2077720D01*
G01X20394987Y-2083562D01*
G01X20412005Y-2083562D01*
G01X20423435Y-2077720D01*
G01X20434865Y-2066290D01*
G01X20440707Y-2049272D01*
G01X20440707Y-2037842D01*
G01X20434865Y-2020570D01*
G01X20423435Y-2009140D01*
G01X20412005Y-2003552D01*
G01X20394987Y-2003552D01*
G01X20488459Y-2003552D02*
G01X20488459Y-2123440D01*
G01X20488459Y-2020570D02*
G01X20499889Y-2009140D01*
G01X20511319Y-2003552D01*
G01X20528591Y-2003552D01*
G01X20540021Y-2009140D01*
G01X20551451Y-2020570D01*
G01X20557039Y-2037842D01*
G01X20557039Y-2049272D01*
G01X20551451Y-2066290D01*
G01X20540021Y-2077720D01*
G01X20528591Y-2083562D01*
G01X20511319Y-2083562D01*
G01X20499889Y-2077720D01*
G01X20488459Y-2066290D01*
G01X20732807Y-1963420D02*
G01X20732807Y-2083562D01*
G01X20732807Y-2083562D02*
G01X20801387Y-2083562D01*
G01X20917719Y-2003552D02*
G01X20917719Y-2083562D01*
G01X20917719Y-2020570D02*
G01X20906289Y-2009140D01*
G01X20894859Y-2003552D01*
G01X20877841Y-2003552D01*
G01X20866411Y-2009140D01*
G01X20854981Y-2020570D01*
G01X20849139Y-2037842D01*
G01X20849139Y-2049272D01*
G01X20854981Y-2066290D01*
G01X20866411Y-2077720D01*
G01X20877841Y-2083562D01*
G01X20894859Y-2083562D01*
G01X20906289Y-2077720D01*
G01X20917719Y-2066290D01*
G01X20971313Y-2003552D02*
G01X21005603Y-2083562D01*
G01X21039893Y-2003552D02*
G01X21005603Y-2083562D01*
G01X20994173Y-2106422D01*
G01X20982743Y-2117852D01*
G01X20971313Y-2123440D01*
G01X20965471Y-2123440D01*
G01X21087645Y-2037842D02*
G01X21156225Y-2037842D01*
G01X21156225Y-2026412D01*
G01X21150637Y-2014982D01*
G01X21144795Y-2009140D01*
G01X21133365Y-2003552D01*
G01X21116347Y-2003552D01*
G01X21104917Y-2009140D01*
G01X21093487Y-2020570D01*
G01X21087645Y-2037842D01*
G01X21087645Y-2049272D01*
G01X21093487Y-2066290D01*
G01X21104917Y-2077720D01*
G01X21116347Y-2083562D01*
G01X21133365Y-2083562D01*
G01X21144795Y-2077720D01*
G01X21156225Y-2066290D01*
G01X21203977Y-2003552D02*
G01X21203977Y-2083562D01*
G01X21203977Y-2037842D02*
G01X21209819Y-2020570D01*
G01X21221249Y-2009140D01*
G01X21232679Y-2003552D01*
G01X21249697Y-2003552D01*
G01X21297449Y-2032000D02*
G01X21400319Y-2032000D01*
G01X21448071Y-1963420D02*
G01X21448071Y-2083562D01*
G01X21448071Y-1963420D02*
G01X21499633Y-1963420D01*
G01X21516651Y-1969262D01*
G01X21522493Y-1974850D01*
G01X21528081Y-1986280D01*
G01X21528081Y-1997710D01*
G01X21522493Y-2009140D01*
G01X21516651Y-2014982D01*
G01X21499633Y-2020570D01*
G01X21448071Y-2020570D02*
G01X21499633Y-2020570D01*
G01X21516651Y-2026412D01*
G01X21522493Y-2032000D01*
G01X21528081Y-2043430D01*
G01X21528081Y-2060702D01*
G01X21522493Y-2072132D01*
G01X21516651Y-2077720D01*
G01X21499633Y-2083562D01*
G01X21448071Y-2083562D01*
G01X21604535Y-2003552D02*
G01X21593105Y-2009140D01*
G01X21581675Y-2020570D01*
G01X21575833Y-2037842D01*
G01X21575833Y-2049272D01*
G01X21581675Y-2066290D01*
G01X21593105Y-2077720D01*
G01X21604535Y-2083562D01*
G01X21621553Y-2083562D01*
G01X21632983Y-2077720D01*
G01X21644413Y-2066290D01*
G01X21650255Y-2049272D01*
G01X21650255Y-2037842D01*
G01X21644413Y-2020570D01*
G01X21632983Y-2009140D01*
G01X21621553Y-2003552D01*
G01X21604535Y-2003552D01*
G01X21715279Y-1963420D02*
G01X21715279Y-2060702D01*
G01X21720867Y-2077720D01*
G01X21732297Y-2083562D01*
G01X21743727Y-2083562D01*
G01X21698007Y-2003552D02*
G01X21738139Y-2003552D01*
G01X21808751Y-1963420D02*
G01X21808751Y-2060702D01*
G01X21814339Y-2077720D01*
G01X21825769Y-2083562D01*
G01X21837199Y-2083562D01*
G01X21791479Y-2003552D02*
G01X21831611Y-2003552D01*
G01X21913653Y-2003552D02*
G01X21902223Y-2009140D01*
G01X21890793Y-2020570D01*
G01X21884951Y-2037842D01*
G01X21884951Y-2049272D01*
G01X21890793Y-2066290D01*
G01X21902223Y-2077720D01*
G01X21913653Y-2083562D01*
G01X21930671Y-2083562D01*
G01X21942101Y-2077720D01*
G01X21953531Y-2066290D01*
G01X21959373Y-2049272D01*
G01X21959373Y-2037842D01*
G01X21953531Y-2020570D01*
G01X21942101Y-2009140D01*
G01X21930671Y-2003552D01*
G01X21913653Y-2003552D01*
G01X22007125Y-2003552D02*
G01X22007125Y-2083562D01*
G01X22007125Y-2026412D02*
G01X22024397Y-2009140D01*
G01X22035827Y-2003552D01*
G01X22052845Y-2003552D01*
G01X22064275Y-2009140D01*
G01X22070117Y-2026412D01*
G01X22070117Y-2083562D01*
G01X22070117Y-2026412D02*
G01X22087135Y-2009140D01*
G01X22098565Y-2003552D01*
G01X22115837Y-2003552D01*
G01X22127267Y-2009140D01*
G01X22132855Y-2026412D01*
G01X22132855Y-2083562D01*
G01X22308623Y-1963420D02*
G01X22308623Y-2083562D01*
G01X22308623Y-2083562D02*
G01X22377203Y-2083562D01*
G01X22493535Y-2003552D02*
G01X22493535Y-2083562D01*
G01X22493535Y-2020570D02*
G01X22482105Y-2009140D01*
G01X22470675Y-2003552D01*
G01X22453657Y-2003552D01*
G01X22442227Y-2009140D01*
G01X22430797Y-2020570D01*
G01X22424955Y-2037842D01*
G01X22424955Y-2049272D01*
G01X22430797Y-2066290D01*
G01X22442227Y-2077720D01*
G01X22453657Y-2083562D01*
G01X22470675Y-2083562D01*
G01X22482105Y-2077720D01*
G01X22493535Y-2066290D01*
G01X22547129Y-2003552D02*
G01X22581419Y-2083562D01*
G01X22615709Y-2003552D02*
G01X22581419Y-2083562D01*
G01X22569989Y-2106422D01*
G01X22558559Y-2117852D01*
G01X22547129Y-2123440D01*
G01X22541287Y-2123440D01*
G01X22663461Y-2037842D02*
G01X22732041Y-2037842D01*
G01X22732041Y-2026412D01*
G01X22726453Y-2014982D01*
G01X22720611Y-2009140D01*
G01X22709181Y-2003552D01*
G01X22692163Y-2003552D01*
G01X22680733Y-2009140D01*
G01X22669303Y-2020570D01*
G01X22663461Y-2037842D01*
G01X22663461Y-2049272D01*
G01X22669303Y-2066290D01*
G01X22680733Y-2077720D01*
G01X22692163Y-2083562D01*
G01X22709181Y-2083562D01*
G01X22720611Y-2077720D01*
G01X22732041Y-2066290D01*
G01X22779793Y-2003552D02*
G01X22779793Y-2083562D01*
G01X22779793Y-2037842D02*
G01X22785635Y-2020570D01*
G01X22797065Y-2009140D01*
G01X22808495Y-2003552D01*
G01X22825513Y-2003552D01*
G01X8580576Y-2543991D02*
G01X8563304Y-2549833D01*
G01X8557716Y-2561263D01*
G01X8557716Y-2572693D01*
G01X8563304Y-2584123D01*
G01X8574734Y-2589711D01*
G01X8597594Y-2595553D01*
G01X8614866Y-2601141D01*
G01X8626296Y-2612571D01*
G01X8631884Y-2624001D01*
G01X8631884Y-2641273D01*
G01X8626296Y-2652703D01*
G01X8620454Y-2658291D01*
G01X8603436Y-2664133D01*
G01X8580576Y-2664133D01*
G01X8563304Y-2658291D01*
G01X8557716Y-2652703D01*
G01X8551874Y-2641273D01*
G01X8551874Y-2624001D01*
G01X8557716Y-2612571D01*
G01X8569146Y-2601141D01*
G01X8586164Y-2595553D01*
G01X8609024Y-2589711D01*
G01X8620454Y-2584123D01*
G01X8626296Y-2572693D01*
G01X8626296Y-2561263D01*
G01X8620454Y-2549833D01*
G01X8603436Y-2543991D01*
G01X8580576Y-2543991D01*
G01X8748216Y-2561263D02*
G01X8742628Y-2549833D01*
G01X8725356Y-2543991D01*
G01X8713926Y-2543991D01*
G01X8696908Y-2549833D01*
G01X8685478Y-2566851D01*
G01X8679636Y-2595553D01*
G01X8679636Y-2624001D01*
G01X8685478Y-2646861D01*
G01X8696908Y-2658291D01*
G01X8713926Y-2664133D01*
G01X8719768Y-2664133D01*
G01X8736786Y-2658291D01*
G01X8748216Y-2646861D01*
G01X8754058Y-2629843D01*
G01X8754058Y-2624001D01*
G01X8748216Y-2606983D01*
G01X8736786Y-2595553D01*
G01X8719768Y-2589711D01*
G01X8713926Y-2589711D01*
G01X8696908Y-2595553D01*
G01X8685478Y-2606983D01*
G01X8679636Y-2624001D01*
G01X9977467Y-2543991D02*
G01X10040459Y-2543991D01*
G01X10006169Y-2589711D01*
G01X10023187Y-2589711D01*
G01X10034617Y-2595553D01*
G01X10040459Y-2601141D01*
G01X10046047Y-2618413D01*
G01X10046047Y-2629843D01*
G01X10040459Y-2646861D01*
G01X10029029Y-2658291D01*
G01X10011757Y-2664133D01*
G01X9994739Y-2664133D01*
G01X9977467Y-2658291D01*
G01X9971879Y-2652703D01*
G01X9966037Y-2641273D01*
G01X10168221Y-2584123D02*
G01X10162379Y-2601141D01*
G01X10150949Y-2612571D01*
G01X10133931Y-2618413D01*
G01X10128089Y-2618413D01*
G01X10111071Y-2612571D01*
G01X10099641Y-2601141D01*
G01X10093799Y-2584123D01*
G01X10093799Y-2578281D01*
G01X10099641Y-2561263D01*
G01X10111071Y-2549833D01*
G01X10128089Y-2543991D01*
G01X10133931Y-2543991D01*
G01X10150949Y-2549833D01*
G01X10162379Y-2561263D01*
G01X10168221Y-2584123D01*
G01X10168221Y-2612571D01*
G01X10162379Y-2641273D01*
G01X10150949Y-2658291D01*
G01X10133931Y-2664133D01*
G01X10122501Y-2664133D01*
G01X10105229Y-2658291D01*
G01X10099641Y-2646861D01*
G01X10221815Y-2635431D02*
G01X10215973Y-2641273D01*
G01X10221815Y-2646861D01*
G01X10227403Y-2641273D01*
G01X10221815Y-2635431D01*
G01X10332305Y-2543991D02*
G01X10275155Y-2624001D01*
G01X10361007Y-2624001D01*
G01X10332305Y-2543991D02*
G01X10332305Y-2664133D01*
G01X10408759Y-2584123D02*
G01X10471751Y-2664133D01*
G01X10471751Y-2584123D02*
G01X10408759Y-2664133D01*
G01X10530933Y-2543991D02*
G01X10593925Y-2543991D01*
G01X10559635Y-2589711D01*
G01X10576653Y-2589711D01*
G01X10588083Y-2595553D01*
G01X10593925Y-2601141D01*
G01X10599513Y-2618413D01*
G01X10599513Y-2629843D01*
G01X10593925Y-2646861D01*
G01X10582495Y-2658291D01*
G01X10565223Y-2664133D01*
G01X10548205Y-2664133D01*
G01X10530933Y-2658291D01*
G01X10525345Y-2652703D01*
G01X10519503Y-2641273D01*
G01X10721687Y-2584123D02*
G01X10715845Y-2601141D01*
G01X10704415Y-2612571D01*
G01X10687397Y-2618413D01*
G01X10681555Y-2618413D01*
G01X10664537Y-2612571D01*
G01X10653107Y-2601141D01*
G01X10647265Y-2584123D01*
G01X10647265Y-2578281D01*
G01X10653107Y-2561263D01*
G01X10664537Y-2549833D01*
G01X10681555Y-2543991D01*
G01X10687397Y-2543991D01*
G01X10704415Y-2549833D01*
G01X10715845Y-2561263D01*
G01X10721687Y-2584123D01*
G01X10721687Y-2612571D01*
G01X10715845Y-2641273D01*
G01X10704415Y-2658291D01*
G01X10687397Y-2664133D01*
G01X10675967Y-2664133D01*
G01X10658695Y-2658291D01*
G01X10653107Y-2646861D01*
G01X10775281Y-2635431D02*
G01X10769439Y-2641273D01*
G01X10775281Y-2646861D01*
G01X10780869Y-2641273D01*
G01X10775281Y-2635431D01*
G01X10885771Y-2543991D02*
G01X10828621Y-2624001D01*
G01X10914473Y-2624001D01*
G01X10885771Y-2543991D02*
G01X10885771Y-2664133D01*
G01X10962225Y-2584123D02*
G01X10962225Y-2664133D01*
G01X10962225Y-2606983D02*
G01X10979497Y-2589711D01*
G01X10990927Y-2584123D01*
G01X11007945Y-2584123D01*
G01X11019375Y-2589711D01*
G01X11025217Y-2606983D01*
G01X11025217Y-2664133D01*
G01X11025217Y-2606983D02*
G01X11042235Y-2589711D01*
G01X11053665Y-2584123D01*
G01X11070937Y-2584123D01*
G01X11082367Y-2589711D01*
G01X11087955Y-2606983D01*
G01X11087955Y-2664133D01*
G01X11135707Y-2543991D02*
G01X11141549Y-2549833D01*
G01X11147137Y-2543991D01*
G01X11141549Y-2538403D01*
G01X11135707Y-2543991D01*
G01X11141549Y-2584123D02*
G01X11141549Y-2664133D01*
G01X11194889Y-2543991D02*
G01X11194889Y-2664133D01*
G01X11282773Y-2521131D02*
G01X11271343Y-2532561D01*
G01X11259913Y-2549833D01*
G01X11248483Y-2572693D01*
G01X11242641Y-2601141D01*
G01X11242641Y-2624001D01*
G01X11248483Y-2652703D01*
G01X11259913Y-2675563D01*
G01X11271343Y-2692581D01*
G01X11282773Y-2704011D01*
G01X11330525Y-2566851D02*
G01X11341955Y-2561263D01*
G01X11359227Y-2543991D01*
G01X11359227Y-2664133D01*
G01X11412821Y-2635431D02*
G01X11406979Y-2641273D01*
G01X11412821Y-2646861D01*
G01X11418409Y-2641273D01*
G01X11412821Y-2635431D01*
G01X11500451Y-2543991D02*
G01X11483433Y-2549833D01*
G01X11472003Y-2566851D01*
G01X11466161Y-2595553D01*
G01X11466161Y-2612571D01*
G01X11472003Y-2641273D01*
G01X11483433Y-2658291D01*
G01X11500451Y-2664133D01*
G01X11511881Y-2664133D01*
G01X11529153Y-2658291D01*
G01X11540583Y-2641273D01*
G01X11546171Y-2612571D01*
G01X11546171Y-2595553D01*
G01X11540583Y-2566851D01*
G01X11529153Y-2549833D01*
G01X11511881Y-2543991D01*
G01X11500451Y-2543991D01*
G01X11628213Y-2543991D02*
G01X11611195Y-2549833D01*
G01X11599765Y-2566851D01*
G01X11593923Y-2595553D01*
G01X11593923Y-2612571D01*
G01X11599765Y-2641273D01*
G01X11611195Y-2658291D01*
G01X11628213Y-2664133D01*
G01X11639643Y-2664133D01*
G01X11656915Y-2658291D01*
G01X11668345Y-2641273D01*
G01X11673933Y-2612571D01*
G01X11673933Y-2595553D01*
G01X11668345Y-2566851D01*
G01X11656915Y-2549833D01*
G01X11639643Y-2543991D01*
G01X11628213Y-2543991D01*
G01X11755975Y-2543991D02*
G01X11738957Y-2549833D01*
G01X11727527Y-2566851D01*
G01X11721685Y-2595553D01*
G01X11721685Y-2612571D01*
G01X11727527Y-2641273D01*
G01X11738957Y-2658291D01*
G01X11755975Y-2664133D01*
G01X11767405Y-2664133D01*
G01X11784677Y-2658291D01*
G01X11796107Y-2641273D01*
G01X11801695Y-2612571D01*
G01X11801695Y-2595553D01*
G01X11796107Y-2566851D01*
G01X11784677Y-2549833D01*
G01X11767405Y-2543991D01*
G01X11755975Y-2543991D01*
G01X11849447Y-2584123D02*
G01X11912439Y-2664133D01*
G01X11912439Y-2584123D02*
G01X11849447Y-2664133D01*
G01X11960191Y-2566851D02*
G01X11971621Y-2561263D01*
G01X11988893Y-2543991D01*
G01X11988893Y-2664133D01*
G01X12042487Y-2635431D02*
G01X12036645Y-2641273D01*
G01X12042487Y-2646861D01*
G01X12048075Y-2641273D01*
G01X12042487Y-2635431D01*
G01X12130117Y-2543991D02*
G01X12113099Y-2549833D01*
G01X12101669Y-2566851D01*
G01X12095827Y-2595553D01*
G01X12095827Y-2612571D01*
G01X12101669Y-2641273D01*
G01X12113099Y-2658291D01*
G01X12130117Y-2664133D01*
G01X12141547Y-2664133D01*
G01X12158819Y-2658291D01*
G01X12170249Y-2641273D01*
G01X12175837Y-2612571D01*
G01X12175837Y-2595553D01*
G01X12170249Y-2566851D01*
G01X12158819Y-2549833D01*
G01X12141547Y-2543991D01*
G01X12130117Y-2543991D01*
G01X12257879Y-2543991D02*
G01X12240861Y-2549833D01*
G01X12229431Y-2566851D01*
G01X12223589Y-2595553D01*
G01X12223589Y-2612571D01*
G01X12229431Y-2641273D01*
G01X12240861Y-2658291D01*
G01X12257879Y-2664133D01*
G01X12269309Y-2664133D01*
G01X12286581Y-2658291D01*
G01X12298011Y-2641273D01*
G01X12303599Y-2612571D01*
G01X12303599Y-2595553D01*
G01X12298011Y-2566851D01*
G01X12286581Y-2549833D01*
G01X12269309Y-2543991D01*
G01X12257879Y-2543991D01*
G01X12385641Y-2543991D02*
G01X12368623Y-2549833D01*
G01X12357193Y-2566851D01*
G01X12351351Y-2595553D01*
G01X12351351Y-2612571D01*
G01X12357193Y-2641273D01*
G01X12368623Y-2658291D01*
G01X12385641Y-2664133D01*
G01X12397071Y-2664133D01*
G01X12414343Y-2658291D01*
G01X12425773Y-2641273D01*
G01X12431361Y-2612571D01*
G01X12431361Y-2595553D01*
G01X12425773Y-2566851D01*
G01X12414343Y-2549833D01*
G01X12397071Y-2543991D01*
G01X12385641Y-2543991D01*
G01X12479113Y-2584123D02*
G01X12479113Y-2664133D01*
G01X12479113Y-2606983D02*
G01X12496385Y-2589711D01*
G01X12507815Y-2584123D01*
G01X12524833Y-2584123D01*
G01X12536263Y-2589711D01*
G01X12542105Y-2606983D01*
G01X12542105Y-2664133D01*
G01X12542105Y-2606983D02*
G01X12559123Y-2589711D01*
G01X12570553Y-2584123D01*
G01X12587825Y-2584123D01*
G01X12599255Y-2589711D01*
G01X12604843Y-2606983D01*
G01X12604843Y-2664133D01*
G01X12652595Y-2584123D02*
G01X12652595Y-2664133D01*
G01X12652595Y-2606983D02*
G01X12669867Y-2589711D01*
G01X12681297Y-2584123D01*
G01X12698315Y-2584123D01*
G01X12709745Y-2589711D01*
G01X12715587Y-2606983D01*
G01X12715587Y-2664133D01*
G01X12715587Y-2606983D02*
G01X12732605Y-2589711D01*
G01X12744035Y-2584123D01*
G01X12761307Y-2584123D01*
G01X12772737Y-2589711D01*
G01X12778325Y-2606983D01*
G01X12778325Y-2664133D01*
G01X12826077Y-2521131D02*
G01X12837507Y-2532561D01*
G01X12848937Y-2549833D01*
G01X12860367Y-2572693D01*
G01X12866209Y-2601141D01*
G01X12866209Y-2624001D01*
G01X12860367Y-2652703D01*
G01X12848937Y-2675563D01*
G01X12837507Y-2692581D01*
G01X12826077Y-2704011D01*
G01X13757387Y-2543991D02*
G01X13757387Y-2664133D01*
G01X13757387Y-2543991D02*
G01X13808949Y-2543991D01*
G01X13825967Y-2549833D01*
G01X13831809Y-2555421D01*
G01X13837397Y-2566851D01*
G01X13837397Y-2584123D01*
G01X13831809Y-2595553D01*
G01X13825967Y-2601141D01*
G01X13808949Y-2606983D01*
G01X13757387Y-2606983D01*
G01X13925281Y-2543991D02*
G01X13925281Y-2664133D01*
G01X13885149Y-2543991D02*
G01X13965159Y-2543991D01*
G01X14012911Y-2543991D02*
G01X14012911Y-2664133D01*
G01X14092921Y-2543991D02*
G01X14092921Y-2664133D01*
G01X14012911Y-2601141D02*
G01X14092921Y-2601141D01*
G01X15218794Y-2543991D02*
G01X15218794Y-2664133D01*
G01X15218794Y-2543991D02*
G01X15270356Y-2543991D01*
G01X15287374Y-2549833D01*
G01X15293216Y-2555421D01*
G01X15298804Y-2566851D01*
G01X15298804Y-2578281D01*
G01X15293216Y-2589711D01*
G01X15287374Y-2595553D01*
G01X15270356Y-2601141D01*
G01X15218794Y-2601141D01*
G01X15258926Y-2601141D02*
G01X15298804Y-2664133D01*
G01X15375258Y-2584123D02*
G01X15363828Y-2589711D01*
G01X15352398Y-2601141D01*
G01X15346556Y-2618413D01*
G01X15346556Y-2629843D01*
G01X15352398Y-2646861D01*
G01X15363828Y-2658291D01*
G01X15375258Y-2664133D01*
G01X15392276Y-2664133D01*
G01X15403706Y-2658291D01*
G01X15415136Y-2646861D01*
G01X15420978Y-2629843D01*
G01X15420978Y-2618413D01*
G01X15415136Y-2601141D01*
G01X15403706Y-2589711D01*
G01X15392276Y-2584123D01*
G01X15375258Y-2584123D01*
G01X15468730Y-2584123D02*
G01X15468730Y-2641273D01*
G01X15474572Y-2658291D01*
G01X15486002Y-2664133D01*
G01X15503020Y-2664133D01*
G01X15514450Y-2658291D01*
G01X15531722Y-2641273D01*
G01X15531722Y-2584123D02*
G01X15531722Y-2664133D01*
G01X15579474Y-2584123D02*
G01X15579474Y-2664133D01*
G01X15579474Y-2606983D02*
G01X15596746Y-2589711D01*
G01X15608176Y-2584123D01*
G01X15625194Y-2584123D01*
G01X15636624Y-2589711D01*
G01X15642466Y-2606983D01*
G01X15642466Y-2664133D01*
G01X15758798Y-2543991D02*
G01X15758798Y-2664133D01*
G01X15758798Y-2601141D02*
G01X15747368Y-2589711D01*
G01X15735938Y-2584123D01*
G01X15718920Y-2584123D01*
G01X15707490Y-2589711D01*
G01X15696060Y-2601141D01*
G01X15690218Y-2618413D01*
G01X15690218Y-2629843D01*
G01X15696060Y-2646861D01*
G01X15707490Y-2658291D01*
G01X15718920Y-2664133D01*
G01X15735938Y-2664133D01*
G01X15747368Y-2658291D01*
G01X15758798Y-2646861D01*
G01X16649975Y-2543991D02*
G01X16649975Y-2664133D01*
G01X16649975Y-2543991D02*
G01X16701537Y-2543991D01*
G01X16718555Y-2549833D01*
G01X16724397Y-2555421D01*
G01X16729985Y-2566851D01*
G01X16729985Y-2584123D01*
G01X16724397Y-2595553D01*
G01X16718555Y-2601141D01*
G01X16701537Y-2606983D01*
G01X16649975Y-2606983D01*
G01X16846317Y-2584123D02*
G01X16846317Y-2664133D01*
G01X16846317Y-2601141D02*
G01X16834887Y-2589711D01*
G01X16823457Y-2584123D01*
G01X16806439Y-2584123D01*
G01X16795009Y-2589711D01*
G01X16783579Y-2601141D01*
G01X16777737Y-2618413D01*
G01X16777737Y-2629843D01*
G01X16783579Y-2646861D01*
G01X16795009Y-2658291D01*
G01X16806439Y-2664133D01*
G01X16823457Y-2664133D01*
G01X16834887Y-2658291D01*
G01X16846317Y-2646861D01*
G01X16962649Y-2543991D02*
G01X16962649Y-2664133D01*
G01X16962649Y-2601141D02*
G01X16951219Y-2589711D01*
G01X16939789Y-2584123D01*
G01X16922771Y-2584123D01*
G01X16911341Y-2589711D01*
G01X16899911Y-2601141D01*
G01X16894069Y-2618413D01*
G01X16894069Y-2629843D01*
G01X16899911Y-2646861D01*
G01X16911341Y-2658291D01*
G01X16922771Y-2664133D01*
G01X16939789Y-2664133D01*
G01X16951219Y-2658291D01*
G01X16962649Y-2646861D01*
G01X18359286Y-2521131D02*
G01X18347856Y-2532561D01*
G01X18336426Y-2549833D01*
G01X18324996Y-2572693D01*
G01X18319154Y-2601141D01*
G01X18319154Y-2624001D01*
G01X18324996Y-2652703D01*
G01X18336426Y-2675563D01*
G01X18347856Y-2692581D01*
G01X18359286Y-2704011D01*
G01X18407038Y-2543991D02*
G01X18407038Y-2664133D01*
G01X18407038Y-2543991D02*
G01X18452758Y-2664133D01*
G01X18498478Y-2543991D02*
G01X18452758Y-2664133D01*
G01X18498478Y-2543991D02*
G01X18498478Y-2664133D01*
G01X18546230Y-2543991D02*
G01X18552072Y-2549833D01*
G01X18557660Y-2543991D01*
G01X18552072Y-2538403D01*
G01X18546230Y-2543991D01*
G01X18552072Y-2584123D02*
G01X18552072Y-2664133D01*
G01X18605412Y-2584123D02*
G01X18668404Y-2664133D01*
G01X18668404Y-2584123D02*
G01X18605412Y-2664133D01*
G01X18716156Y-2618413D02*
G01X18784736Y-2618413D01*
G01X18784736Y-2606983D01*
G01X18779148Y-2595553D01*
G01X18773306Y-2589711D01*
G01X18761876Y-2584123D01*
G01X18744858Y-2584123D01*
G01X18733428Y-2589711D01*
G01X18721998Y-2601141D01*
G01X18716156Y-2618413D01*
G01X18716156Y-2629843D01*
G01X18721998Y-2646861D01*
G01X18733428Y-2658291D01*
G01X18744858Y-2664133D01*
G01X18761876Y-2664133D01*
G01X18773306Y-2658291D01*
G01X18784736Y-2646861D01*
G01X18901068Y-2543991D02*
G01X18901068Y-2664133D01*
G01X18901068Y-2601141D02*
G01X18889638Y-2589711D01*
G01X18878208Y-2584123D01*
G01X18861190Y-2584123D01*
G01X18849760Y-2589711D01*
G01X18838330Y-2601141D01*
G01X18832488Y-2618413D01*
G01X18832488Y-2629843D01*
G01X18838330Y-2646861D01*
G01X18849760Y-2658291D01*
G01X18861190Y-2664133D01*
G01X18878208Y-2664133D01*
G01X18889638Y-2658291D01*
G01X18901068Y-2646861D01*
G01X18948820Y-2521131D02*
G01X18960250Y-2532561D01*
G01X18971680Y-2549833D01*
G01X18983110Y-2572693D01*
G01X18988952Y-2601141D01*
G01X18988952Y-2624001D01*
G01X18983110Y-2652703D01*
G01X18971680Y-2675563D01*
G01X18960250Y-2692581D01*
G01X18948820Y-2704011D01*
G01X20278655Y-2543991D02*
G01X20278655Y-2664133D01*
G01X20238523Y-2543991D02*
G01X20318533Y-2543991D01*
G01X20394987Y-2584123D02*
G01X20383557Y-2589711D01*
G01X20372127Y-2601141D01*
G01X20366285Y-2618413D01*
G01X20366285Y-2629843D01*
G01X20372127Y-2646861D01*
G01X20383557Y-2658291D01*
G01X20394987Y-2664133D01*
G01X20412005Y-2664133D01*
G01X20423435Y-2658291D01*
G01X20434865Y-2646861D01*
G01X20440707Y-2629843D01*
G01X20440707Y-2618413D01*
G01X20434865Y-2601141D01*
G01X20423435Y-2589711D01*
G01X20412005Y-2584123D01*
G01X20394987Y-2584123D01*
G01X20488459Y-2584123D02*
G01X20488459Y-2704011D01*
G01X20488459Y-2601141D02*
G01X20499889Y-2589711D01*
G01X20511319Y-2584123D01*
G01X20528591Y-2584123D01*
G01X20540021Y-2589711D01*
G01X20551451Y-2601141D01*
G01X20557039Y-2618413D01*
G01X20557039Y-2629843D01*
G01X20551451Y-2646861D01*
G01X20540021Y-2658291D01*
G01X20528591Y-2664133D01*
G01X20511319Y-2664133D01*
G01X20499889Y-2658291D01*
G01X20488459Y-2646861D01*
G01X20732807Y-2543991D02*
G01X20732807Y-2664133D01*
G01X20732807Y-2664133D02*
G01X20801387Y-2664133D01*
G01X20917719Y-2584123D02*
G01X20917719Y-2664133D01*
G01X20917719Y-2601141D02*
G01X20906289Y-2589711D01*
G01X20894859Y-2584123D01*
G01X20877841Y-2584123D01*
G01X20866411Y-2589711D01*
G01X20854981Y-2601141D01*
G01X20849139Y-2618413D01*
G01X20849139Y-2629843D01*
G01X20854981Y-2646861D01*
G01X20866411Y-2658291D01*
G01X20877841Y-2664133D01*
G01X20894859Y-2664133D01*
G01X20906289Y-2658291D01*
G01X20917719Y-2646861D01*
G01X20971313Y-2584123D02*
G01X21005603Y-2664133D01*
G01X21039893Y-2584123D02*
G01X21005603Y-2664133D01*
G01X20994173Y-2686993D01*
G01X20982743Y-2698423D01*
G01X20971313Y-2704011D01*
G01X20965471Y-2704011D01*
G01X21087645Y-2618413D02*
G01X21156225Y-2618413D01*
G01X21156225Y-2606983D01*
G01X21150637Y-2595553D01*
G01X21144795Y-2589711D01*
G01X21133365Y-2584123D01*
G01X21116347Y-2584123D01*
G01X21104917Y-2589711D01*
G01X21093487Y-2601141D01*
G01X21087645Y-2618413D01*
G01X21087645Y-2629843D01*
G01X21093487Y-2646861D01*
G01X21104917Y-2658291D01*
G01X21116347Y-2664133D01*
G01X21133365Y-2664133D01*
G01X21144795Y-2658291D01*
G01X21156225Y-2646861D01*
G01X21203977Y-2584123D02*
G01X21203977Y-2664133D01*
G01X21203977Y-2618413D02*
G01X21209819Y-2601141D01*
G01X21221249Y-2589711D01*
G01X21232679Y-2584123D01*
G01X21249697Y-2584123D01*
G01X21297449Y-2612571D02*
G01X21400319Y-2612571D01*
G01X21448071Y-2543991D02*
G01X21448071Y-2664133D01*
G01X21448071Y-2543991D02*
G01X21499633Y-2543991D01*
G01X21516651Y-2549833D01*
G01X21522493Y-2555421D01*
G01X21528081Y-2566851D01*
G01X21528081Y-2578281D01*
G01X21522493Y-2589711D01*
G01X21516651Y-2595553D01*
G01X21499633Y-2601141D01*
G01X21448071Y-2601141D02*
G01X21499633Y-2601141D01*
G01X21516651Y-2606983D01*
G01X21522493Y-2612571D01*
G01X21528081Y-2624001D01*
G01X21528081Y-2641273D01*
G01X21522493Y-2652703D01*
G01X21516651Y-2658291D01*
G01X21499633Y-2664133D01*
G01X21448071Y-2664133D01*
G01X21604535Y-2584123D02*
G01X21593105Y-2589711D01*
G01X21581675Y-2601141D01*
G01X21575833Y-2618413D01*
G01X21575833Y-2629843D01*
G01X21581675Y-2646861D01*
G01X21593105Y-2658291D01*
G01X21604535Y-2664133D01*
G01X21621553Y-2664133D01*
G01X21632983Y-2658291D01*
G01X21644413Y-2646861D01*
G01X21650255Y-2629843D01*
G01X21650255Y-2618413D01*
G01X21644413Y-2601141D01*
G01X21632983Y-2589711D01*
G01X21621553Y-2584123D01*
G01X21604535Y-2584123D01*
G01X21715279Y-2543991D02*
G01X21715279Y-2641273D01*
G01X21720867Y-2658291D01*
G01X21732297Y-2664133D01*
G01X21743727Y-2664133D01*
G01X21698007Y-2584123D02*
G01X21738139Y-2584123D01*
G01X21808751Y-2543991D02*
G01X21808751Y-2641273D01*
G01X21814339Y-2658291D01*
G01X21825769Y-2664133D01*
G01X21837199Y-2664133D01*
G01X21791479Y-2584123D02*
G01X21831611Y-2584123D01*
G01X21913653Y-2584123D02*
G01X21902223Y-2589711D01*
G01X21890793Y-2601141D01*
G01X21884951Y-2618413D01*
G01X21884951Y-2629843D01*
G01X21890793Y-2646861D01*
G01X21902223Y-2658291D01*
G01X21913653Y-2664133D01*
G01X21930671Y-2664133D01*
G01X21942101Y-2658291D01*
G01X21953531Y-2646861D01*
G01X21959373Y-2629843D01*
G01X21959373Y-2618413D01*
G01X21953531Y-2601141D01*
G01X21942101Y-2589711D01*
G01X21930671Y-2584123D01*
G01X21913653Y-2584123D01*
G01X22007125Y-2584123D02*
G01X22007125Y-2664133D01*
G01X22007125Y-2606983D02*
G01X22024397Y-2589711D01*
G01X22035827Y-2584123D01*
G01X22052845Y-2584123D01*
G01X22064275Y-2589711D01*
G01X22070117Y-2606983D01*
G01X22070117Y-2664133D01*
G01X22070117Y-2606983D02*
G01X22087135Y-2589711D01*
G01X22098565Y-2584123D01*
G01X22115837Y-2584123D01*
G01X22127267Y-2589711D01*
G01X22132855Y-2606983D01*
G01X22132855Y-2664133D01*
G01X22308623Y-2543991D02*
G01X22308623Y-2664133D01*
G01X22308623Y-2664133D02*
G01X22377203Y-2664133D01*
G01X22493535Y-2584123D02*
G01X22493535Y-2664133D01*
G01X22493535Y-2601141D02*
G01X22482105Y-2589711D01*
G01X22470675Y-2584123D01*
G01X22453657Y-2584123D01*
G01X22442227Y-2589711D01*
G01X22430797Y-2601141D01*
G01X22424955Y-2618413D01*
G01X22424955Y-2629843D01*
G01X22430797Y-2646861D01*
G01X22442227Y-2658291D01*
G01X22453657Y-2664133D01*
G01X22470675Y-2664133D01*
G01X22482105Y-2658291D01*
G01X22493535Y-2646861D01*
G01X22547129Y-2584123D02*
G01X22581419Y-2664133D01*
G01X22615709Y-2584123D02*
G01X22581419Y-2664133D01*
G01X22569989Y-2686993D01*
G01X22558559Y-2698423D01*
G01X22547129Y-2704011D01*
G01X22541287Y-2704011D01*
G01X22663461Y-2618413D02*
G01X22732041Y-2618413D01*
G01X22732041Y-2606983D01*
G01X22726453Y-2595553D01*
G01X22720611Y-2589711D01*
G01X22709181Y-2584123D01*
G01X22692163Y-2584123D01*
G01X22680733Y-2589711D01*
G01X22669303Y-2601141D01*
G01X22663461Y-2618413D01*
G01X22663461Y-2629843D01*
G01X22669303Y-2646861D01*
G01X22680733Y-2658291D01*
G01X22692163Y-2664133D01*
G01X22709181Y-2664133D01*
G01X22720611Y-2658291D01*
G01X22732041Y-2646861D01*
G01X22779793Y-2584123D02*
G01X22779793Y-2664133D01*
G01X22779793Y-2618413D02*
G01X22785635Y-2601141D01*
G01X22797065Y-2589711D01*
G01X22808495Y-2584123D01*
G01X22825513Y-2584123D01*
G01X8609024Y-3124563D02*
G01X8551874Y-3204573D01*
G01X8637726Y-3204573D01*
G01X8609024Y-3124563D02*
G01X8609024Y-3244705D01*
G01X8696908Y-3124563D02*
G01X8759900Y-3124563D01*
G01X8725610Y-3170283D01*
G01X8742628Y-3170283D01*
G01X8754058Y-3176125D01*
G01X8759900Y-3181713D01*
G01X8765488Y-3198985D01*
G01X8765488Y-3210415D01*
G01X8759900Y-3227433D01*
G01X8748470Y-3238863D01*
G01X8731198Y-3244705D01*
G01X8714180Y-3244705D01*
G01X8696908Y-3238863D01*
G01X8691320Y-3233275D01*
G01X8685478Y-3221845D01*
G01X8819082Y-3153265D02*
G01X8819082Y-3147423D01*
G01X8824670Y-3135993D01*
G01X8830512Y-3130405D01*
G01X8841942Y-3124563D01*
G01X8864802Y-3124563D01*
G01X8876232Y-3130405D01*
G01X8881820Y-3135993D01*
G01X8887662Y-3147423D01*
G01X8887662Y-3158853D01*
G01X8881820Y-3170283D01*
G01X8870390Y-3187555D01*
G01X8813240Y-3244705D01*
G01X8893250Y-3244705D01*
G01X9966037Y-3147423D02*
G01X9977467Y-3141835D01*
G01X9994739Y-3124563D01*
G01X9994739Y-3244705D01*
G01X10048333Y-3153265D02*
G01X10048333Y-3147423D01*
G01X10053921Y-3135993D01*
G01X10059763Y-3130405D01*
G01X10071193Y-3124563D01*
G01X10094053Y-3124563D01*
G01X10105483Y-3130405D01*
G01X10111071Y-3135993D01*
G01X10116913Y-3147423D01*
G01X10116913Y-3158853D01*
G01X10111071Y-3170283D01*
G01X10099641Y-3187555D01*
G01X10042491Y-3244705D01*
G01X10122501Y-3244705D01*
G01X10176095Y-3216003D02*
G01X10170253Y-3221845D01*
G01X10176095Y-3227433D01*
G01X10181683Y-3221845D01*
G01X10176095Y-3216003D01*
G01X10263725Y-3124563D02*
G01X10246707Y-3130405D01*
G01X10235277Y-3147423D01*
G01X10229435Y-3176125D01*
G01X10229435Y-3193143D01*
G01X10235277Y-3221845D01*
G01X10246707Y-3238863D01*
G01X10263725Y-3244705D01*
G01X10275155Y-3244705D01*
G01X10292427Y-3238863D01*
G01X10303857Y-3221845D01*
G01X10309445Y-3193143D01*
G01X10309445Y-3176125D01*
G01X10303857Y-3147423D01*
G01X10292427Y-3130405D01*
G01X10275155Y-3124563D01*
G01X10263725Y-3124563D01*
G01X10357197Y-3164695D02*
G01X10357197Y-3244705D01*
G01X10357197Y-3187555D02*
G01X10374469Y-3170283D01*
G01X10385899Y-3164695D01*
G01X10402917Y-3164695D01*
G01X10414347Y-3170283D01*
G01X10420189Y-3187555D01*
G01X10420189Y-3244705D01*
G01X10420189Y-3187555D02*
G01X10437207Y-3170283D01*
G01X10448637Y-3164695D01*
G01X10465909Y-3164695D01*
G01X10477339Y-3170283D01*
G01X10482927Y-3187555D01*
G01X10482927Y-3244705D01*
G01X10530679Y-3124563D02*
G01X10536521Y-3130405D01*
G01X10542109Y-3124563D01*
G01X10536521Y-3118975D01*
G01X10530679Y-3124563D01*
G01X10536521Y-3164695D02*
G01X10536521Y-3244705D01*
G01X10589861Y-3124563D02*
G01X10589861Y-3244705D01*
G01X10677745Y-3101703D02*
G01X10666315Y-3113133D01*
G01X10654885Y-3130405D01*
G01X10643455Y-3153265D01*
G01X10637613Y-3181713D01*
G01X10637613Y-3204573D01*
G01X10643455Y-3233275D01*
G01X10654885Y-3256135D01*
G01X10666315Y-3273153D01*
G01X10677745Y-3284583D01*
G01X10759787Y-3124563D02*
G01X10742769Y-3130405D01*
G01X10731339Y-3147423D01*
G01X10725497Y-3176125D01*
G01X10725497Y-3193143D01*
G01X10731339Y-3221845D01*
G01X10742769Y-3238863D01*
G01X10759787Y-3244705D01*
G01X10771217Y-3244705D01*
G01X10788489Y-3238863D01*
G01X10799919Y-3221845D01*
G01X10805507Y-3193143D01*
G01X10805507Y-3176125D01*
G01X10799919Y-3147423D01*
G01X10788489Y-3130405D01*
G01X10771217Y-3124563D01*
G01X10759787Y-3124563D01*
G01X10859101Y-3216003D02*
G01X10853259Y-3221845D01*
G01X10859101Y-3227433D01*
G01X10864689Y-3221845D01*
G01X10859101Y-3216003D01*
G01X10923871Y-3124563D02*
G01X10986863Y-3124563D01*
G01X10952573Y-3170283D01*
G01X10969591Y-3170283D01*
G01X10981021Y-3176125D01*
G01X10986863Y-3181713D01*
G01X10992451Y-3198985D01*
G01X10992451Y-3210415D01*
G01X10986863Y-3227433D01*
G01X10975433Y-3238863D01*
G01X10958161Y-3244705D01*
G01X10941143Y-3244705D01*
G01X10923871Y-3238863D01*
G01X10918283Y-3233275D01*
G01X10912441Y-3221845D01*
G01X11074493Y-3124563D02*
G01X11057475Y-3130405D01*
G01X11046045Y-3147423D01*
G01X11040203Y-3176125D01*
G01X11040203Y-3193143D01*
G01X11046045Y-3221845D01*
G01X11057475Y-3238863D01*
G01X11074493Y-3244705D01*
G01X11085923Y-3244705D01*
G01X11103195Y-3238863D01*
G01X11114625Y-3221845D01*
G01X11120213Y-3193143D01*
G01X11120213Y-3176125D01*
G01X11114625Y-3147423D01*
G01X11103195Y-3130405D01*
G01X11085923Y-3124563D01*
G01X11074493Y-3124563D01*
G01X11236545Y-3124563D02*
G01X11179395Y-3124563D01*
G01X11173807Y-3176125D01*
G01X11179395Y-3170283D01*
G01X11196667Y-3164695D01*
G01X11213685Y-3164695D01*
G01X11230957Y-3170283D01*
G01X11242387Y-3181713D01*
G01X11247975Y-3198985D01*
G01X11247975Y-3210415D01*
G01X11242387Y-3227433D01*
G01X11230957Y-3238863D01*
G01X11213685Y-3244705D01*
G01X11196667Y-3244705D01*
G01X11179395Y-3238863D01*
G01X11173807Y-3233275D01*
G01X11167965Y-3221845D01*
G01X11295727Y-3164695D02*
G01X11295727Y-3244705D01*
G01X11295727Y-3187555D02*
G01X11312999Y-3170283D01*
G01X11324429Y-3164695D01*
G01X11341447Y-3164695D01*
G01X11352877Y-3170283D01*
G01X11358719Y-3187555D01*
G01X11358719Y-3244705D01*
G01X11358719Y-3187555D02*
G01X11375737Y-3170283D01*
G01X11387167Y-3164695D01*
G01X11404439Y-3164695D01*
G01X11415869Y-3170283D01*
G01X11421457Y-3187555D01*
G01X11421457Y-3244705D01*
G01X11469209Y-3164695D02*
G01X11469209Y-3244705D01*
G01X11469209Y-3187555D02*
G01X11486481Y-3170283D01*
G01X11497911Y-3164695D01*
G01X11514929Y-3164695D01*
G01X11526359Y-3170283D01*
G01X11532201Y-3187555D01*
G01X11532201Y-3244705D01*
G01X11532201Y-3187555D02*
G01X11549219Y-3170283D01*
G01X11560649Y-3164695D01*
G01X11577921Y-3164695D01*
G01X11589351Y-3170283D01*
G01X11594939Y-3187555D01*
G01X11594939Y-3244705D01*
G01X11642691Y-3101703D02*
G01X11654121Y-3113133D01*
G01X11665551Y-3130405D01*
G01X11676981Y-3153265D01*
G01X11682823Y-3181713D01*
G01X11682823Y-3204573D01*
G01X11676981Y-3233275D01*
G01X11665551Y-3256135D01*
G01X11654121Y-3273153D01*
G01X11642691Y-3284583D01*
G01X13757387Y-3124563D02*
G01X13757387Y-3244705D01*
G01X13757387Y-3124563D02*
G01X13808949Y-3124563D01*
G01X13825967Y-3130405D01*
G01X13831809Y-3135993D01*
G01X13837397Y-3147423D01*
G01X13837397Y-3164695D01*
G01X13831809Y-3176125D01*
G01X13825967Y-3181713D01*
G01X13808949Y-3187555D01*
G01X13757387Y-3187555D01*
G01X13925281Y-3124563D02*
G01X13925281Y-3244705D01*
G01X13885149Y-3124563D02*
G01X13965159Y-3124563D01*
G01X14012911Y-3124563D02*
G01X14012911Y-3244705D01*
G01X14092921Y-3124563D02*
G01X14092921Y-3244705D01*
G01X14012911Y-3181713D02*
G01X14092921Y-3181713D01*
G01X15218794Y-3124563D02*
G01X15218794Y-3244705D01*
G01X15218794Y-3124563D02*
G01X15270356Y-3124563D01*
G01X15287374Y-3130405D01*
G01X15293216Y-3135993D01*
G01X15298804Y-3147423D01*
G01X15298804Y-3158853D01*
G01X15293216Y-3170283D01*
G01X15287374Y-3176125D01*
G01X15270356Y-3181713D01*
G01X15218794Y-3181713D01*
G01X15258926Y-3181713D02*
G01X15298804Y-3244705D01*
G01X15375258Y-3164695D02*
G01X15363828Y-3170283D01*
G01X15352398Y-3181713D01*
G01X15346556Y-3198985D01*
G01X15346556Y-3210415D01*
G01X15352398Y-3227433D01*
G01X15363828Y-3238863D01*
G01X15375258Y-3244705D01*
G01X15392276Y-3244705D01*
G01X15403706Y-3238863D01*
G01X15415136Y-3227433D01*
G01X15420978Y-3210415D01*
G01X15420978Y-3198985D01*
G01X15415136Y-3181713D01*
G01X15403706Y-3170283D01*
G01X15392276Y-3164695D01*
G01X15375258Y-3164695D01*
G01X15468730Y-3164695D02*
G01X15468730Y-3221845D01*
G01X15474572Y-3238863D01*
G01X15486002Y-3244705D01*
G01X15503020Y-3244705D01*
G01X15514450Y-3238863D01*
G01X15531722Y-3221845D01*
G01X15531722Y-3164695D02*
G01X15531722Y-3244705D01*
G01X15579474Y-3164695D02*
G01X15579474Y-3244705D01*
G01X15579474Y-3187555D02*
G01X15596746Y-3170283D01*
G01X15608176Y-3164695D01*
G01X15625194Y-3164695D01*
G01X15636624Y-3170283D01*
G01X15642466Y-3187555D01*
G01X15642466Y-3244705D01*
G01X15758798Y-3124563D02*
G01X15758798Y-3244705D01*
G01X15758798Y-3181713D02*
G01X15747368Y-3170283D01*
G01X15735938Y-3164695D01*
G01X15718920Y-3164695D01*
G01X15707490Y-3170283D01*
G01X15696060Y-3181713D01*
G01X15690218Y-3198985D01*
G01X15690218Y-3210415D01*
G01X15696060Y-3227433D01*
G01X15707490Y-3238863D01*
G01X15718920Y-3244705D01*
G01X15735938Y-3244705D01*
G01X15747368Y-3238863D01*
G01X15758798Y-3227433D01*
G01X16649975Y-3124563D02*
G01X16695695Y-3244705D01*
G01X16741415Y-3124563D02*
G01X16695695Y-3244705D01*
G01X16789167Y-3124563D02*
G01X16795009Y-3130405D01*
G01X16800597Y-3124563D01*
G01X16795009Y-3118975D01*
G01X16789167Y-3124563D01*
G01X16795009Y-3164695D02*
G01X16795009Y-3244705D01*
G01X16916929Y-3164695D02*
G01X16916929Y-3244705D01*
G01X16916929Y-3181713D02*
G01X16905499Y-3170283D01*
G01X16894069Y-3164695D01*
G01X16877051Y-3164695D01*
G01X16865621Y-3170283D01*
G01X16854191Y-3181713D01*
G01X16848349Y-3198985D01*
G01X16848349Y-3210415D01*
G01X16854191Y-3227433D01*
G01X16865621Y-3238863D01*
G01X16877051Y-3244705D01*
G01X16894069Y-3244705D01*
G01X16905499Y-3238863D01*
G01X16916929Y-3227433D01*
G01X20278655Y-3124563D02*
G01X20278655Y-3244705D01*
G01X20238523Y-3124563D02*
G01X20318533Y-3124563D01*
G01X20394987Y-3164695D02*
G01X20383557Y-3170283D01*
G01X20372127Y-3181713D01*
G01X20366285Y-3198985D01*
G01X20366285Y-3210415D01*
G01X20372127Y-3227433D01*
G01X20383557Y-3238863D01*
G01X20394987Y-3244705D01*
G01X20412005Y-3244705D01*
G01X20423435Y-3238863D01*
G01X20434865Y-3227433D01*
G01X20440707Y-3210415D01*
G01X20440707Y-3198985D01*
G01X20434865Y-3181713D01*
G01X20423435Y-3170283D01*
G01X20412005Y-3164695D01*
G01X20394987Y-3164695D01*
G01X20488459Y-3164695D02*
G01X20488459Y-3284583D01*
G01X20488459Y-3181713D02*
G01X20499889Y-3170283D01*
G01X20511319Y-3164695D01*
G01X20528591Y-3164695D01*
G01X20540021Y-3170283D01*
G01X20551451Y-3181713D01*
G01X20557039Y-3198985D01*
G01X20557039Y-3210415D01*
G01X20551451Y-3227433D01*
G01X20540021Y-3238863D01*
G01X20528591Y-3244705D01*
G01X20511319Y-3244705D01*
G01X20499889Y-3238863D01*
G01X20488459Y-3227433D01*
G01X20732807Y-3124563D02*
G01X20732807Y-3244705D01*
G01X20732807Y-3244705D02*
G01X20801387Y-3244705D01*
G01X20917719Y-3164695D02*
G01X20917719Y-3244705D01*
G01X20917719Y-3181713D02*
G01X20906289Y-3170283D01*
G01X20894859Y-3164695D01*
G01X20877841Y-3164695D01*
G01X20866411Y-3170283D01*
G01X20854981Y-3181713D01*
G01X20849139Y-3198985D01*
G01X20849139Y-3210415D01*
G01X20854981Y-3227433D01*
G01X20866411Y-3238863D01*
G01X20877841Y-3244705D01*
G01X20894859Y-3244705D01*
G01X20906289Y-3238863D01*
G01X20917719Y-3227433D01*
G01X20971313Y-3164695D02*
G01X21005603Y-3244705D01*
G01X21039893Y-3164695D02*
G01X21005603Y-3244705D01*
G01X20994173Y-3267565D01*
G01X20982743Y-3278995D01*
G01X20971313Y-3284583D01*
G01X20965471Y-3284583D01*
G01X21087645Y-3198985D02*
G01X21156225Y-3198985D01*
G01X21156225Y-3187555D01*
G01X21150637Y-3176125D01*
G01X21144795Y-3170283D01*
G01X21133365Y-3164695D01*
G01X21116347Y-3164695D01*
G01X21104917Y-3170283D01*
G01X21093487Y-3181713D01*
G01X21087645Y-3198985D01*
G01X21087645Y-3210415D01*
G01X21093487Y-3227433D01*
G01X21104917Y-3238863D01*
G01X21116347Y-3244705D01*
G01X21133365Y-3244705D01*
G01X21144795Y-3238863D01*
G01X21156225Y-3227433D01*
G01X21203977Y-3164695D02*
G01X21203977Y-3244705D01*
G01X21203977Y-3198985D02*
G01X21209819Y-3181713D01*
G01X21221249Y-3170283D01*
G01X21232679Y-3164695D01*
G01X21249697Y-3164695D01*
G01X21297449Y-3193143D02*
G01X21400319Y-3193143D01*
G01X21448071Y-3124563D02*
G01X21448071Y-3244705D01*
G01X21448071Y-3124563D02*
G01X21499633Y-3124563D01*
G01X21516651Y-3130405D01*
G01X21522493Y-3135993D01*
G01X21528081Y-3147423D01*
G01X21528081Y-3158853D01*
G01X21522493Y-3170283D01*
G01X21516651Y-3176125D01*
G01X21499633Y-3181713D01*
G01X21448071Y-3181713D02*
G01X21499633Y-3181713D01*
G01X21516651Y-3187555D01*
G01X21522493Y-3193143D01*
G01X21528081Y-3204573D01*
G01X21528081Y-3221845D01*
G01X21522493Y-3233275D01*
G01X21516651Y-3238863D01*
G01X21499633Y-3244705D01*
G01X21448071Y-3244705D01*
G01X21604535Y-3164695D02*
G01X21593105Y-3170283D01*
G01X21581675Y-3181713D01*
G01X21575833Y-3198985D01*
G01X21575833Y-3210415D01*
G01X21581675Y-3227433D01*
G01X21593105Y-3238863D01*
G01X21604535Y-3244705D01*
G01X21621553Y-3244705D01*
G01X21632983Y-3238863D01*
G01X21644413Y-3227433D01*
G01X21650255Y-3210415D01*
G01X21650255Y-3198985D01*
G01X21644413Y-3181713D01*
G01X21632983Y-3170283D01*
G01X21621553Y-3164695D01*
G01X21604535Y-3164695D01*
G01X21715279Y-3124563D02*
G01X21715279Y-3221845D01*
G01X21720867Y-3238863D01*
G01X21732297Y-3244705D01*
G01X21743727Y-3244705D01*
G01X21698007Y-3164695D02*
G01X21738139Y-3164695D01*
G01X21808751Y-3124563D02*
G01X21808751Y-3221845D01*
G01X21814339Y-3238863D01*
G01X21825769Y-3244705D01*
G01X21837199Y-3244705D01*
G01X21791479Y-3164695D02*
G01X21831611Y-3164695D01*
G01X21913653Y-3164695D02*
G01X21902223Y-3170283D01*
G01X21890793Y-3181713D01*
G01X21884951Y-3198985D01*
G01X21884951Y-3210415D01*
G01X21890793Y-3227433D01*
G01X21902223Y-3238863D01*
G01X21913653Y-3244705D01*
G01X21930671Y-3244705D01*
G01X21942101Y-3238863D01*
G01X21953531Y-3227433D01*
G01X21959373Y-3210415D01*
G01X21959373Y-3198985D01*
G01X21953531Y-3181713D01*
G01X21942101Y-3170283D01*
G01X21930671Y-3164695D01*
G01X21913653Y-3164695D01*
G01X22007125Y-3164695D02*
G01X22007125Y-3244705D01*
G01X22007125Y-3187555D02*
G01X22024397Y-3170283D01*
G01X22035827Y-3164695D01*
G01X22052845Y-3164695D01*
G01X22064275Y-3170283D01*
G01X22070117Y-3187555D01*
G01X22070117Y-3244705D01*
G01X22070117Y-3187555D02*
G01X22087135Y-3170283D01*
G01X22098565Y-3164695D01*
G01X22115837Y-3164695D01*
G01X22127267Y-3170283D01*
G01X22132855Y-3187555D01*
G01X22132855Y-3244705D01*
G01X22308623Y-3124563D02*
G01X22308623Y-3244705D01*
G01X22308623Y-3244705D02*
G01X22377203Y-3244705D01*
G01X22493535Y-3164695D02*
G01X22493535Y-3244705D01*
G01X22493535Y-3181713D02*
G01X22482105Y-3170283D01*
G01X22470675Y-3164695D01*
G01X22453657Y-3164695D01*
G01X22442227Y-3170283D01*
G01X22430797Y-3181713D01*
G01X22424955Y-3198985D01*
G01X22424955Y-3210415D01*
G01X22430797Y-3227433D01*
G01X22442227Y-3238863D01*
G01X22453657Y-3244705D01*
G01X22470675Y-3244705D01*
G01X22482105Y-3238863D01*
G01X22493535Y-3227433D01*
G01X22547129Y-3164695D02*
G01X22581419Y-3244705D01*
G01X22615709Y-3164695D02*
G01X22581419Y-3244705D01*
G01X22569989Y-3267565D01*
G01X22558559Y-3278995D01*
G01X22547129Y-3284583D01*
G01X22541287Y-3284583D01*
G01X22663461Y-3198985D02*
G01X22732041Y-3198985D01*
G01X22732041Y-3187555D01*
G01X22726453Y-3176125D01*
G01X22720611Y-3170283D01*
G01X22709181Y-3164695D01*
G01X22692163Y-3164695D01*
G01X22680733Y-3170283D01*
G01X22669303Y-3181713D01*
G01X22663461Y-3198985D01*
G01X22663461Y-3210415D01*
G01X22669303Y-3227433D01*
G01X22680733Y-3238863D01*
G01X22692163Y-3244705D01*
G01X22709181Y-3244705D01*
G01X22720611Y-3238863D01*
G01X22732041Y-3227433D01*
G01X22779793Y-3164695D02*
G01X22779793Y-3244705D01*
G01X22779793Y-3198985D02*
G01X22785635Y-3181713D01*
G01X22797065Y-3170283D01*
G01X22808495Y-3164695D01*
G01X22825513Y-3164695D01*

G04 Image Start*
G36*
G01X7387263Y-2724604D02*
G01X7281649Y-2713123D01*
G01X7238774Y-2810329D01*
G01X7195899Y-2713123D01*
G01X7090286Y-2724604D01*
G01X7153049Y-2638879D01*
G01X7113327Y-2584624D01*
G01X7144820Y-2584624D01*
G01X7184520Y-2638879D01*
G01X7144820Y-2693133D01*
G01X7211647Y-2685869D01*
G01X7211647Y-2685869D01*
G01X7238774Y-2747362D01*
G01X7265901Y-2685869D01*
G01X7332729Y-2693133D01*
G01X7293029Y-2638879D01*
G01X7332703Y-2584650D01*
G01X7265876Y-2591914D01*
G01X7238774Y-2530395D01*
G01X7211647Y-2591889D01*
G01X7144820Y-2584624D01*
G01X7113327Y-2584624D01*
G01X7090286Y-2553154D01*
G01X7195924Y-2564634D01*
G01X7238774Y-2467429D01*
G01X7281649Y-2564634D01*
G01X7387263Y-2553154D01*
G01X7324499Y-2638879D01*
G01X7387263Y-2724604D01*
G37*
G36*
G01X7258269Y-1610299D02*
G01X7250529Y-1610887D01*
G01X7242686Y-1611086D01*
G01X7234843Y-1610887D01*
G01X7227103Y-1610299D01*
G01X7219475Y-1609330D01*
G01X7211970Y-1607990D01*
G01X7197364Y-1604235D01*
G01X7183362Y-1599110D01*
G01X7170040Y-1592693D01*
G01X7157474Y-1585060D01*
G01X7145742Y-1576287D01*
G01X7134920Y-1566452D01*
G01X7125084Y-1555629D01*
G01X7116311Y-1543897D01*
G01X7108678Y-1531332D01*
G01X7102261Y-1518010D01*
G01X7097137Y-1504008D01*
G01X7093382Y-1489402D01*
G01X7092042Y-1481896D01*
G01X7091072Y-1474269D01*
G01X7090484Y-1466529D01*
G01X7090286Y-1458686D01*
G01X7115686Y-1458686D01*
G01X7116343Y-1471652D01*
G01X7118271Y-1484248D01*
G01X7121405Y-1496410D01*
G01X7125682Y-1508072D01*
G01X7131037Y-1519172D01*
G01X7137405Y-1529643D01*
G01X7144723Y-1539423D01*
G01X7152925Y-1548446D01*
G01X7161949Y-1556649D01*
G01X7171728Y-1563966D01*
G01X7182200Y-1570335D01*
G01X7193299Y-1575690D01*
G01X7204962Y-1579966D01*
G01X7217123Y-1583101D01*
G01X7217123Y-1583101D01*
G01X7229719Y-1585029D01*
G01X7242686Y-1585686D01*
G01X7255652Y-1585029D01*
G01X7268248Y-1583101D01*
G01X7280410Y-1579966D01*
G01X7292072Y-1575690D01*
G01X7303172Y-1570335D01*
G01X7313643Y-1563966D01*
G01X7323423Y-1556649D01*
G01X7332446Y-1548446D01*
G01X7340649Y-1539423D01*
G01X7347967Y-1529643D01*
G01X7354335Y-1519172D01*
G01X7359690Y-1508072D01*
G01X7363966Y-1496410D01*
G01X7367101Y-1484248D01*
G01X7369029Y-1471652D01*
G01X7369686Y-1458686D01*
G01X7369029Y-1445719D01*
G01X7367101Y-1433123D01*
G01X7363966Y-1420962D01*
G01X7359690Y-1409299D01*
G01X7354335Y-1398200D01*
G01X7347967Y-1387728D01*
G01X7340649Y-1377949D01*
G01X7332446Y-1368925D01*
G01X7323423Y-1360723D01*
G01X7313643Y-1353405D01*
G01X7303172Y-1347037D01*
G01X7292072Y-1341682D01*
G01X7280410Y-1337405D01*
G01X7268248Y-1334271D01*
G01X7255652Y-1332343D01*
G01X7242686Y-1331686D01*
G01X7229719Y-1332343D01*
G01X7217123Y-1334271D01*
G01X7204962Y-1337405D01*
G01X7193299Y-1341682D01*
G01X7182200Y-1347037D01*
G01X7171728Y-1353405D01*
G01X7161949Y-1360723D01*
G01X7152925Y-1368925D01*
G01X7144723Y-1377949D01*
G01X7137405Y-1387728D01*
G01X7131037Y-1398200D01*
G01X7125682Y-1409299D01*
G01X7121405Y-1420962D01*
G01X7118271Y-1433123D01*
G01X7116343Y-1445719D01*
G01X7115686Y-1458686D01*
G01X7090286Y-1458686D01*
G01X7090484Y-1450843D01*
G01X7091072Y-1443102D01*
G01X7092042Y-1435475D01*
G01X7093382Y-1427970D01*
G01X7097137Y-1413364D01*
G01X7102261Y-1399362D01*
G01X7108678Y-1386040D01*
G01X7116311Y-1373474D01*
G01X7125084Y-1361742D01*
G01X7134920Y-1350920D01*
G01X7145742Y-1341084D01*
G01X7157474Y-1332311D01*
G01X7170040Y-1324678D01*
G01X7183362Y-1318261D01*
G01X7197364Y-1313137D01*
G01X7211970Y-1309382D01*
G01X7219475Y-1308042D01*
G01X7227103Y-1307072D01*
G01X7234843Y-1306484D01*
G01X7242686Y-1306286D01*
G01X7250529Y-1306484D01*
G01X7258269Y-1307072D01*
G01X7265896Y-1308042D01*
G01X7273402Y-1309382D01*
G01X7288008Y-1313137D01*
G01X7302010Y-1318261D01*
G01X7315332Y-1324678D01*
G01X7327897Y-1332311D01*
G01X7339629Y-1341084D01*
G01X7350452Y-1350920D01*
G01X7360287Y-1361742D01*
G01X7369060Y-1373474D01*
G01X7376693Y-1386040D01*
G01X7383110Y-1399362D01*
G01X7388235Y-1413364D01*
G01X7391990Y-1427970D01*
G01X7393330Y-1435475D01*
G01X7394299Y-1443102D01*
G01X7394887Y-1450843D01*
G01X7395086Y-1458686D01*
G01X7394887Y-1466529D01*
G01X7394299Y-1474269D01*
G01X7393330Y-1481896D01*
G01X7391990Y-1489402D01*
G01X7388235Y-1504008D01*
G01X7383110Y-1518010D01*
G01X7376693Y-1531332D01*
G01X7369060Y-1543897D01*
G01X7360287Y-1555629D01*
G01X7350452Y-1566452D01*
G01X7339629Y-1576287D01*
G01X7327897Y-1585060D01*
G01X7315332Y-1592693D01*
G01X7302010Y-1599110D01*
G01X7288008Y-1604235D01*
G01X7273402Y-1607990D01*
G01X7265896Y-1609330D01*
G01X7258269Y-1610299D01*
G37*
G36*
G01X7395086Y-3048000D02*
G01X7325058Y-3200400D01*
G01X7395086Y-3352800D01*
G01X7242686Y-3282772D01*
G01X7090286Y-3352800D01*
G01X7114049Y-3301086D01*
G01X7142000Y-3301086D01*
G01X7232069Y-3259684D01*
G01X7242686Y-3254807D01*
G01X7253303Y-3259684D01*
G01X7343371Y-3301086D01*
G01X7301969Y-3211017D01*
G01X7297093Y-3200400D01*
G01X7301969Y-3189783D01*
G01X7343371Y-3099714D01*
G01X7253303Y-3141116D01*
G01X7242686Y-3145993D01*
G01X7232069Y-3141116D01*
G01X7142000Y-3099714D01*
G01X7183402Y-3189783D01*
G01X7188279Y-3200400D01*
G01X7188279Y-3200400D01*
G01X7183402Y-3211017D01*
G01X7142000Y-3301086D01*
G01X7114049Y-3301086D01*
G01X7160314Y-3200400D01*
G01X7090286Y-3048000D01*
G01X7242686Y-3118028D01*
G01X7395086Y-3048000D01*
G37*
G36*
G01X7090286Y-1886857D02*
G01X7395086Y-1886857D01*
G01X7242686Y-2150814D01*
G01X7104951Y-1912257D01*
G01X7134279Y-1912257D01*
G01X7242686Y-2100014D01*
G01X7351093Y-1912257D01*
G01X7351093Y-1912257D01*
G01X7134279Y-1912257D01*
G01X7104951Y-1912257D01*
G01X7090286Y-1886857D01*
G37*
G36*
G01X7090286Y-725714D02*
G01X7369686Y-725714D01*
G01X7369686Y-1005114D01*
G01X7090286Y-1005114D01*
G01X7090286Y-751114D01*
G01X7115686Y-751114D01*
G01X7115686Y-979714D01*
G01X7344286Y-979714D01*
G01X7344286Y-751114D01*
G01X7344286Y-751114D01*
G01X7115686Y-751114D01*
G01X7090286Y-751114D01*
G01X7090286Y-725714D01*
G37*

G04 PolygonModel Start*
G54D16*
G01X6800000Y-3483429D02*
G01X23416245Y-3483429D01*
G01X6800000Y-2902857D02*
G01X23416245Y-2902857D01*
G01X6800000Y-2322286D02*
G01X23416245Y-2322286D01*
G01X6800000Y-1741714D02*
G01X23416245Y-1741714D01*
G01X6800000Y-1161143D02*
G01X23416245Y-1161143D01*
G01X6800000Y-580571D02*
G01X23416245Y-580571D01*
G01X6800000Y0D02*
G01X23416245Y0D01*
G01X6800000Y0D02*
G01X6800000Y-3458029D01*
G01X8251429Y0D02*
G01X8251429Y-3458029D01*
G01X9665592Y0D02*
G01X9665592Y-3458029D01*
G01X13456941Y0D02*
G01X13456941Y-3458029D01*
G01X14918348Y0D02*
G01X14918348Y-3458029D01*
G01X16349529Y0D02*
G01X16349529Y-3458029D01*
G01X18018708Y0D02*
G01X18018708Y-3458029D01*
G01X19938077Y0D02*
G01X19938077Y-3458029D01*
G01X23416245Y0D02*
G01X23416245Y-3458029D01*

M02*

