G04 Layer: TopPasteMaskLayer*
G04 EasyEDA Pro v2.2.47.7, 2026-04-30 22:47:31*
G04 Gerber Generator version 0.3*
G04 Scale: 100 percent, Rotated: No, Reflected: No*
G04 Dimensions in millimeters*
G04 Leading zeros omitted, absolute positions, 4 integers and 5 decimals*
G04 Generated by one-click*
G04 Object Configs: Pad,Via,Track,Text,Image,Dimension,BoardOutline,BoardCutout,CopperFilled,SolidRegion,FPCStiffener,Line,PlaneZone,ComponentProperty,ComponentSilkscreen,TearDrop*
G04 Layer Configs: 1,15,16,2,3,4,5,6,7,8,9,10,11,13,14,71,72,56*
G04 Copper Areas: 0*
%FSLAX45Y45*%
%MOMM*%
%ADD10R,3.49999X1.2*%
%ADD11R,1.8X1.7*%
%ADD12R,0.75001X2.3*%
%ADD13O,0.559X1.194*%
%ADD14O,0.36401X1.74201*%
%ADD15O,0.36401X1.662*%
%ADD16O,2.045X0.58801*%
%ADD17R,1.07201X0.532*%
%ADD18R,1.0X0.6*%
%ADD19O,0.5999X2.045*%
%ADD20O,0.58801X2.045*%
G75*


G04 PolygonModel Start*
G36*
G01X4280400Y-4285297D02*
G01X4152402Y-4285297D01*
G01X4147401Y-4280296D01*
G01X4147401Y-4165295D01*
G01X4152402Y-4160296D01*
G01X4193405Y-4159794D01*
G01X4193405Y-4204795D01*
G01X4238404Y-4204795D01*
G01X4238404Y-4160794D01*
G01X4280400Y-4160296D01*
G01X4285402Y-4165295D01*
G01X4285402Y-4280296D01*
G01X4280400Y-4285297D01*
G37*
G36*
G01X4152400Y-3944302D02*
G01X4280398Y-3944302D01*
G01X4285399Y-3949304D01*
G01X4285399Y-4064305D01*
G01X4280398Y-4069304D01*
G01X4239395Y-4069806D01*
G01X4239395Y-4024805D01*
G01X4194396Y-4024805D01*
G01X4194396Y-4068806D01*
G01X4152400Y-4069304D01*
G01X4147398Y-4064305D01*
G01X4147398Y-3949304D01*
G01X4152400Y-3944302D01*
G37*
G36*
G01X3289800Y-4691697D02*
G01X3161802Y-4691697D01*
G01X3156801Y-4686696D01*
G01X3156801Y-4571695D01*
G01X3161802Y-4566696D01*
G01X3202805Y-4566194D01*
G01X3202805Y-4611195D01*
G01X3247804Y-4611195D01*
G01X3247804Y-4567194D01*
G01X3289800Y-4566696D01*
G01X3294802Y-4571695D01*
G01X3294802Y-4686696D01*
G01X3289800Y-4691697D01*
G37*
G36*
G01X3161800Y-4350702D02*
G01X3289798Y-4350702D01*
G01X3294799Y-4355704D01*
G01X3294799Y-4470705D01*
G01X3289798Y-4475704D01*
G01X3248795Y-4476206D01*
G01X3248795Y-4431205D01*
G01X3203796Y-4431205D01*
G01X3203796Y-4475206D01*
G01X3161800Y-4475704D01*
G01X3156798Y-4470705D01*
G01X3156798Y-4355704D01*
G01X3161800Y-4350702D01*
G37*
G36*
G01X2654800Y-5199697D02*
G01X2526802Y-5199697D01*
G01X2521801Y-5194696D01*
G01X2521801Y-5079695D01*
G01X2526802Y-5074696D01*
G01X2567805Y-5074194D01*
G01X2567805Y-5119195D01*
G01X2612804Y-5119195D01*
G01X2612804Y-5075194D01*
G01X2654800Y-5074696D01*
G01X2659802Y-5079695D01*
G01X2659802Y-5194696D01*
G01X2654800Y-5199697D01*
G37*
G36*
G01X2526800Y-4858702D02*
G01X2654798Y-4858702D01*
G01X2659799Y-4863704D01*
G01X2659799Y-4978705D01*
G01X2654798Y-4983704D01*
G01X2613795Y-4984206D01*
G01X2613795Y-4939205D01*
G01X2568796Y-4939205D01*
G01X2568796Y-4983206D01*
G01X2526800Y-4983704D01*
G01X2521798Y-4978705D01*
G01X2521798Y-4863704D01*
G01X2526800Y-4858702D01*
G37*
G36*
G01X3034800Y-4934902D02*
G01X3162798Y-4934902D01*
G01X3167799Y-4939904D01*
G01X3167799Y-5054905D01*
G01X3162798Y-5059904D01*
G01X3121795Y-5060406D01*
G01X3121795Y-5015405D01*
G01X3076796Y-5015405D01*
G01X3076796Y-5059406D01*
G01X3034800Y-5059904D01*
G01X3029798Y-5054905D01*
G01X3029798Y-4939904D01*
G01X3034800Y-4934902D01*
G37*
G36*
G01X3162800Y-5275897D02*
G01X3034802Y-5275897D01*
G01X3029801Y-5270896D01*
G01X3029801Y-5155895D01*
G01X3034802Y-5150896D01*
G01X3075805Y-5150394D01*
G01X3075805Y-5195395D01*
G01X3120804Y-5195395D01*
G01X3120804Y-5151394D01*
G01X3162800Y-5150896D01*
G01X3167802Y-5155895D01*
G01X3167802Y-5270896D01*
G01X3162800Y-5275897D01*
G37*
G36*
G01X2806200Y-3817302D02*
G01X2934198Y-3817302D01*
G01X2939199Y-3822304D01*
G01X2939199Y-3937305D01*
G01X2934198Y-3942304D01*
G01X2893195Y-3942806D01*
G01X2893195Y-3897805D01*
G01X2848196Y-3897805D01*
G01X2848196Y-3941806D01*
G01X2806200Y-3942304D01*
G01X2801198Y-3937305D01*
G01X2801198Y-3822304D01*
G01X2806200Y-3817302D01*
G37*
G36*
G01X2934200Y-4158297D02*
G01X2806202Y-4158297D01*
G01X2801201Y-4153296D01*
G01X2801201Y-4038295D01*
G01X2806202Y-4033296D01*
G01X2847205Y-4032794D01*
G01X2847205Y-4077795D01*
G01X2892204Y-4077795D01*
G01X2892204Y-4033794D01*
G01X2934200Y-4033296D01*
G01X2939202Y-4038295D01*
G01X2939202Y-4153296D01*
G01X2934200Y-4158297D01*
G37*
G36*
G01X2534603Y-279900D02*
G01X2534603Y-151902D01*
G01X2539604Y-146901D01*
G01X2654605Y-146901D01*
G01X2659604Y-151902D01*
G01X2660106Y-192905D01*
G01X2615105Y-192905D01*
G01X2615105Y-237904D01*
G01X2659106Y-237904D01*
G01X2659604Y-279900D01*
G01X2654605Y-284902D01*
G01X2539604Y-284902D01*
G01X2534603Y-279900D01*
G37*
G36*
G01X2875598Y-151900D02*
G01X2875598Y-279898D01*
G01X2870596Y-284899D01*
G01X2755595Y-284899D01*
G01X2750596Y-279898D01*
G01X2750094Y-238895D01*
G01X2795095Y-238895D01*
G01X2795095Y-193896D01*
G01X2751094Y-193896D01*
G01X2750596Y-151900D01*
G01X2755595Y-146898D01*
G01X2870596Y-146898D01*
G01X2875598Y-151900D01*
G37*
G36*
G01X2824798Y-2006100D02*
G01X2824798Y-2134098D01*
G01X2819796Y-2139099D01*
G01X2704795Y-2139099D01*
G01X2699796Y-2134098D01*
G01X2699294Y-2093095D01*
G01X2744295Y-2093095D01*
G01X2744295Y-2048096D01*
G01X2700294Y-2048096D01*
G01X2699796Y-2006100D01*
G01X2704795Y-2001098D01*
G01X2819796Y-2001098D01*
G01X2824798Y-2006100D01*
G37*
G36*
G01X2483803Y-2134100D02*
G01X2483803Y-2006102D01*
G01X2488804Y-2001101D01*
G01X2603805Y-2001101D01*
G01X2608804Y-2006102D01*
G01X2609306Y-2047105D01*
G01X2564305Y-2047105D01*
G01X2564305Y-2092104D01*
G01X2608306Y-2092104D01*
G01X2608804Y-2134100D01*
G01X2603805Y-2139102D01*
G01X2488804Y-2139102D01*
G01X2483803Y-2134100D01*
G37*
G36*
G01X1130800Y-729297D02*
G01X1002802Y-729297D01*
G01X997801Y-724296D01*
G01X997801Y-609295D01*
G01X1002802Y-604296D01*
G01X1043805Y-603794D01*
G01X1043805Y-648795D01*
G01X1088804Y-648795D01*
G01X1088804Y-604794D01*
G01X1130800Y-604296D01*
G01X1135802Y-609295D01*
G01X1135802Y-724296D01*
G01X1130800Y-729297D01*
G37*
G36*
G01X1002800Y-388302D02*
G01X1130798Y-388302D01*
G01X1135799Y-393304D01*
G01X1135799Y-508305D01*
G01X1130798Y-513304D01*
G01X1089795Y-513806D01*
G01X1089795Y-468805D01*
G01X1044796Y-468805D01*
G01X1044796Y-512806D01*
G01X1002800Y-513304D01*
G01X997798Y-508305D01*
G01X997798Y-393304D01*
G01X1002800Y-388302D01*
G37*
G36*
G01X957898Y-799600D02*
G01X957898Y-927598D01*
G01X952896Y-932599D01*
G01X837895Y-932599D01*
G01X832896Y-927598D01*
G01X832394Y-886595D01*
G01X877395Y-886595D01*
G01X877395Y-841596D01*
G01X833394Y-841596D01*
G01X832896Y-799600D01*
G01X837895Y-794598D01*
G01X952896Y-794598D01*
G01X957898Y-799600D01*
G37*
G36*
G01X616903Y-927600D02*
G01X616903Y-799602D01*
G01X621904Y-794601D01*
G01X736905Y-794601D01*
G01X741904Y-799602D01*
G01X742406Y-840605D01*
G01X697405Y-840605D01*
G01X697405Y-885604D01*
G01X741406Y-885604D01*
G01X741904Y-927600D01*
G01X736905Y-932602D01*
G01X621904Y-932602D01*
G01X616903Y-927600D01*
G37*
G36*
G01X501223Y-177300D02*
G01X501223Y-305298D01*
G01X496222Y-310299D01*
G01X381221Y-310299D01*
G01X376222Y-305298D01*
G01X375719Y-264295D01*
G01X420721Y-264295D01*
G01X420721Y-219296D01*
G01X376720Y-219296D01*
G01X376222Y-177300D01*
G01X381221Y-172298D01*
G01X496222Y-172298D01*
G01X501223Y-177300D01*
G37*
G36*
G01X160228Y-305300D02*
G01X160228Y-177302D01*
G01X165230Y-172301D01*
G01X280231Y-172301D01*
G01X285229Y-177302D01*
G01X285732Y-218305D01*
G01X240731Y-218305D01*
G01X240731Y-263304D01*
G01X284731Y-263304D01*
G01X285229Y-305300D01*
G01X280231Y-310302D01*
G01X165230Y-310302D01*
G01X160228Y-305300D01*
G37*
G36*
G01X1801401Y-641200D02*
G01X1732300Y-641200D01*
G01X1722300Y-631200D01*
G01X1722300Y-595610D01*
G01X1712300Y-585610D01*
G01X1640500Y-585610D01*
G01X1630500Y-595610D01*
G01X1630500Y-631200D01*
G01X1620500Y-641200D01*
G01X1551399Y-641200D01*
G01X1541399Y-631200D01*
G01X1541399Y-487700D01*
G01X1551399Y-477700D01*
G01X1801401Y-477700D01*
G01X1811401Y-487700D01*
G01X1811401Y-631200D01*
G01X1801401Y-641200D01*
G37*
G36*
G01X1801401Y-781200D02*
G01X1732300Y-781200D01*
G01X1722300Y-791200D01*
G01X1722300Y-826790D01*
G01X1712300Y-836790D01*
G01X1640500Y-836790D01*
G01X1630500Y-826790D01*
G01X1630500Y-791200D01*
G01X1620500Y-781200D01*
G01X1551399Y-781200D01*
G01X1541399Y-791200D01*
G01X1541399Y-934700D01*
G01X1551399Y-944700D01*
G01X1801401Y-944700D01*
G01X1811401Y-934700D01*
G01X1811401Y-791200D01*
G01X1801401Y-781200D01*
G37*
G36*
G01X2526800Y-2547302D02*
G01X2654798Y-2547302D01*
G01X2659799Y-2552304D01*
G01X2659799Y-2667305D01*
G01X2654798Y-2672304D01*
G01X2613795Y-2672806D01*
G01X2613795Y-2627805D01*
G01X2568796Y-2627805D01*
G01X2568796Y-2671806D01*
G01X2526800Y-2672304D01*
G01X2521798Y-2667305D01*
G01X2521798Y-2552304D01*
G01X2526800Y-2547302D01*
G37*
G36*
G01X2654800Y-2888297D02*
G01X2526802Y-2888297D01*
G01X2521801Y-2883296D01*
G01X2521801Y-2768295D01*
G01X2526802Y-2763296D01*
G01X2567805Y-2762794D01*
G01X2567805Y-2807795D01*
G01X2612804Y-2807795D01*
G01X2612804Y-2763794D01*
G01X2654800Y-2763296D01*
G01X2659802Y-2768295D01*
G01X2659802Y-2883296D01*
G01X2654800Y-2888297D01*
G37*
G36*
G01X3421698Y-2984000D02*
G01X3421698Y-3111998D01*
G01X3416696Y-3116999D01*
G01X3301695Y-3116999D01*
G01X3296696Y-3111998D01*
G01X3296194Y-3070995D01*
G01X3341195Y-3070995D01*
G01X3341195Y-3025996D01*
G01X3297194Y-3025996D01*
G01X3296696Y-2984000D01*
G01X3301695Y-2978998D01*
G01X3416696Y-2978998D01*
G01X3421698Y-2984000D01*
G37*
G36*
G01X3080703Y-3112000D02*
G01X3080703Y-2984002D01*
G01X3085704Y-2979001D01*
G01X3200705Y-2979001D01*
G01X3205704Y-2984002D01*
G01X3206206Y-3025005D01*
G01X3161205Y-3025005D01*
G01X3161205Y-3070004D01*
G01X3205206Y-3070004D01*
G01X3205704Y-3112000D01*
G01X3200705Y-3117002D01*
G01X3085704Y-3117002D01*
G01X3080703Y-3112000D01*
G37*
G36*
G01X1357077Y-2541310D02*
G01X1485076Y-2541310D01*
G01X1490077Y-2546311D01*
G01X1490077Y-2661312D01*
G01X1485076Y-2666311D01*
G01X1444072Y-2666814D01*
G01X1444072Y-2621813D01*
G01X1399074Y-2621813D01*
G01X1399074Y-2665813D01*
G01X1357077Y-2666311D01*
G01X1352076Y-2661312D01*
G01X1352076Y-2546311D01*
G01X1357077Y-2541310D01*
G37*
G36*
G01X1485078Y-2882305D02*
G01X1357080Y-2882305D01*
G01X1352079Y-2877304D01*
G01X1352079Y-2762303D01*
G01X1357080Y-2757304D01*
G01X1398083Y-2756801D01*
G01X1398083Y-2801802D01*
G01X1443082Y-2801802D01*
G01X1443082Y-2757802D01*
G01X1485078Y-2757304D01*
G01X1490079Y-2762303D01*
G01X1490079Y-2877304D01*
G01X1485078Y-2882305D01*
G37*
G36*
G01X2302775Y-2978007D02*
G01X2302775Y-3106005D01*
G01X2297774Y-3111007D01*
G01X2182773Y-3111007D01*
G01X2177774Y-3106005D01*
G01X2177271Y-3065002D01*
G01X2222272Y-3065002D01*
G01X2222272Y-3020004D01*
G01X2178272Y-3020004D01*
G01X2177774Y-2978007D01*
G01X2182773Y-2973006D01*
G01X2297774Y-2973006D01*
G01X2302775Y-2978007D01*
G37*
G36*
G01X1961780Y-3106008D02*
G01X1961780Y-2978010D01*
G01X1966781Y-2973009D01*
G01X2081782Y-2973009D01*
G01X2086781Y-2978010D01*
G01X2087284Y-3019013D01*
G01X2042283Y-3019013D01*
G01X2042283Y-3064012D01*
G01X2086283Y-3064012D01*
G01X2086781Y-3106008D01*
G01X2081782Y-3111009D01*
G01X1966781Y-3111009D01*
G01X1961780Y-3106008D01*
G37*
G36*
G01X2831600Y-4934902D02*
G01X2959598Y-4934902D01*
G01X2964599Y-4939904D01*
G01X2964599Y-5054905D01*
G01X2959598Y-5059904D01*
G01X2918595Y-5060406D01*
G01X2918595Y-5015405D01*
G01X2873596Y-5015405D01*
G01X2873596Y-5059406D01*
G01X2831600Y-5059904D01*
G01X2826598Y-5054905D01*
G01X2826598Y-4939904D01*
G01X2831600Y-4934902D01*
G37*
G36*
G01X2959600Y-5275897D02*
G01X2831602Y-5275897D01*
G01X2826601Y-5270896D01*
G01X2826601Y-5155895D01*
G01X2831602Y-5150896D01*
G01X2872605Y-5150394D01*
G01X2872605Y-5195395D01*
G01X2917604Y-5195395D01*
G01X2917604Y-5151394D01*
G01X2959600Y-5150896D01*
G01X2964602Y-5155895D01*
G01X2964602Y-5270896D01*
G01X2959600Y-5275897D01*
G37*
G36*
G01X648200Y-3523297D02*
G01X520202Y-3523297D01*
G01X515201Y-3518296D01*
G01X515201Y-3403295D01*
G01X520202Y-3398296D01*
G01X561205Y-3397794D01*
G01X561205Y-3442795D01*
G01X606204Y-3442795D01*
G01X606204Y-3398794D01*
G01X648200Y-3398296D01*
G01X653202Y-3403295D01*
G01X653202Y-3518296D01*
G01X648200Y-3523297D01*
G37*
G36*
G01X520200Y-3182302D02*
G01X648198Y-3182302D01*
G01X653199Y-3187304D01*
G01X653199Y-3302305D01*
G01X648198Y-3307304D01*
G01X607195Y-3307806D01*
G01X607195Y-3262805D01*
G01X562196Y-3262805D01*
G01X562196Y-3306806D01*
G01X520200Y-3307304D01*
G01X515198Y-3302305D01*
G01X515198Y-3187304D01*
G01X520200Y-3182302D01*
G37*
G36*
G01X1099503Y-4229600D02*
G01X1099503Y-4101602D01*
G01X1104504Y-4096601D01*
G01X1219505Y-4096601D01*
G01X1224504Y-4101602D01*
G01X1225006Y-4142605D01*
G01X1180005Y-4142605D01*
G01X1180005Y-4187604D01*
G01X1224006Y-4187604D01*
G01X1224504Y-4229600D01*
G01X1219505Y-4234602D01*
G01X1104504Y-4234602D01*
G01X1099503Y-4229600D01*
G37*
G36*
G01X1440498Y-4101600D02*
G01X1440498Y-4229598D01*
G01X1435496Y-4234599D01*
G01X1320495Y-4234599D01*
G01X1315496Y-4229598D01*
G01X1314994Y-4188595D01*
G01X1359995Y-4188595D01*
G01X1359995Y-4143596D01*
G01X1315994Y-4143596D01*
G01X1315496Y-4101600D01*
G01X1320495Y-4096598D01*
G01X1435496Y-4096598D01*
G01X1440498Y-4101600D01*
G37*
G36*
G01X856298Y-4584200D02*
G01X856298Y-4712198D01*
G01X851296Y-4717199D01*
G01X736295Y-4717199D01*
G01X731296Y-4712198D01*
G01X730794Y-4671195D01*
G01X775795Y-4671195D01*
G01X775795Y-4626196D01*
G01X731794Y-4626196D01*
G01X731296Y-4584200D01*
G01X736295Y-4579198D01*
G01X851296Y-4579198D01*
G01X856298Y-4584200D01*
G37*
G36*
G01X515303Y-4712200D02*
G01X515303Y-4584202D01*
G01X520304Y-4579201D01*
G01X635305Y-4579201D01*
G01X640304Y-4584202D01*
G01X640806Y-4625205D01*
G01X595805Y-4625205D01*
G01X595805Y-4670204D01*
G01X639806Y-4670204D01*
G01X640304Y-4712200D01*
G01X635305Y-4717202D01*
G01X520304Y-4717202D01*
G01X515303Y-4712200D01*
G37*
G36*
G01X1104400Y-3385502D02*
G01X1232398Y-3385502D01*
G01X1237399Y-3390504D01*
G01X1237399Y-3505505D01*
G01X1232398Y-3510504D01*
G01X1191395Y-3511006D01*
G01X1191395Y-3466005D01*
G01X1146396Y-3466005D01*
G01X1146396Y-3510006D01*
G01X1104400Y-3510504D01*
G01X1099398Y-3505505D01*
G01X1099398Y-3390504D01*
G01X1104400Y-3385502D01*
G37*
G36*
G01X1232400Y-3726497D02*
G01X1104402Y-3726497D01*
G01X1099401Y-3721496D01*
G01X1099401Y-3606495D01*
G01X1104402Y-3601496D01*
G01X1145405Y-3600994D01*
G01X1145405Y-3645995D01*
G01X1190404Y-3645995D01*
G01X1190404Y-3601994D01*
G01X1232400Y-3601496D01*
G01X1237402Y-3606495D01*
G01X1237402Y-3721496D01*
G01X1232400Y-3726497D01*
G37*
G36*
G01X2171200Y-4960302D02*
G01X2299198Y-4960302D01*
G01X2304199Y-4965304D01*
G01X2304199Y-5080305D01*
G01X2299198Y-5085304D01*
G01X2258195Y-5085806D01*
G01X2258195Y-5040805D01*
G01X2213196Y-5040805D01*
G01X2213196Y-5084806D01*
G01X2171200Y-5085304D01*
G01X2166198Y-5080305D01*
G01X2166198Y-4965304D01*
G01X2171200Y-4960302D01*
G37*
G36*
G01X2299200Y-5301297D02*
G01X2171202Y-5301297D01*
G01X2166201Y-5296296D01*
G01X2166201Y-5181295D01*
G01X2171202Y-5176296D01*
G01X2212205Y-5175794D01*
G01X2212205Y-5220795D01*
G01X2257204Y-5220795D01*
G01X2257204Y-5176794D01*
G01X2299200Y-5176296D01*
G01X2304202Y-5181295D01*
G01X2304202Y-5296296D01*
G01X2299200Y-5301297D01*
G37*
G36*
G01X1099503Y-4890000D02*
G01X1099503Y-4762002D01*
G01X1104504Y-4757001D01*
G01X1219505Y-4757001D01*
G01X1224504Y-4762002D01*
G01X1225006Y-4803005D01*
G01X1180005Y-4803005D01*
G01X1180005Y-4848004D01*
G01X1224006Y-4848004D01*
G01X1224504Y-4890000D01*
G01X1219505Y-4895002D01*
G01X1104504Y-4895002D01*
G01X1099503Y-4890000D01*
G37*
G36*
G01X1440498Y-4762000D02*
G01X1440498Y-4889998D01*
G01X1435496Y-4894999D01*
G01X1320495Y-4894999D01*
G01X1315496Y-4889998D01*
G01X1314994Y-4848995D01*
G01X1359995Y-4848995D01*
G01X1359995Y-4803996D01*
G01X1315994Y-4803996D01*
G01X1315496Y-4762000D01*
G01X1320495Y-4756998D01*
G01X1435496Y-4756998D01*
G01X1440498Y-4762000D01*
G37*
G36*
G01X1968000Y-4960302D02*
G01X2095998Y-4960302D01*
G01X2100999Y-4965304D01*
G01X2100999Y-5080305D01*
G01X2095998Y-5085304D01*
G01X2054995Y-5085806D01*
G01X2054995Y-5040805D01*
G01X2009996Y-5040805D01*
G01X2009996Y-5084806D01*
G01X1968000Y-5085304D01*
G01X1962998Y-5080305D01*
G01X1962998Y-4965304D01*
G01X1968000Y-4960302D01*
G37*
G36*
G01X2096000Y-5301297D02*
G01X1968002Y-5301297D01*
G01X1963001Y-5296296D01*
G01X1963001Y-5181295D01*
G01X1968002Y-5176296D01*
G01X2009005Y-5175794D01*
G01X2009005Y-5220795D01*
G01X2054004Y-5220795D01*
G01X2054004Y-5176794D01*
G01X2096000Y-5176296D01*
G01X2101002Y-5181295D01*
G01X2101002Y-5296296D01*
G01X2096000Y-5301297D01*
G37*
G36*
G01X1099503Y-5093200D02*
G01X1099503Y-4965202D01*
G01X1104504Y-4960201D01*
G01X1219505Y-4960201D01*
G01X1224504Y-4965202D01*
G01X1225006Y-5006205D01*
G01X1180005Y-5006205D01*
G01X1180005Y-5051204D01*
G01X1224006Y-5051204D01*
G01X1224504Y-5093200D01*
G01X1219505Y-5098202D01*
G01X1104504Y-5098202D01*
G01X1099503Y-5093200D01*
G37*
G36*
G01X1440498Y-4965200D02*
G01X1440498Y-5093198D01*
G01X1435496Y-5098199D01*
G01X1320495Y-5098199D01*
G01X1315496Y-5093198D01*
G01X1314994Y-5052195D01*
G01X1359995Y-5052195D01*
G01X1359995Y-5007196D01*
G01X1315994Y-5007196D01*
G01X1315496Y-4965200D01*
G01X1320495Y-4960198D01*
G01X1435496Y-4960198D01*
G01X1440498Y-4965200D01*
G37*
G36*
G01X1531303Y-5067800D02*
G01X1531303Y-4939802D01*
G01X1536304Y-4934801D01*
G01X1651305Y-4934801D01*
G01X1656304Y-4939802D01*
G01X1656806Y-4980805D01*
G01X1611805Y-4980805D01*
G01X1611805Y-5025804D01*
G01X1655806Y-5025804D01*
G01X1656304Y-5067800D01*
G01X1651305Y-5072802D01*
G01X1536304Y-5072802D01*
G01X1531303Y-5067800D01*
G37*
G36*
G01X1872298Y-4939800D02*
G01X1872298Y-5067798D01*
G01X1867296Y-5072799D01*
G01X1752295Y-5072799D01*
G01X1747296Y-5067798D01*
G01X1746794Y-5026795D01*
G01X1791795Y-5026795D01*
G01X1791795Y-4981796D01*
G01X1747794Y-4981796D01*
G01X1747296Y-4939800D01*
G01X1752295Y-4934798D01*
G01X1867296Y-4934798D01*
G01X1872298Y-4939800D01*
G37*
G36*
G01X2304098Y-5397000D02*
G01X2304098Y-5524998D01*
G01X2299096Y-5529999D01*
G01X2184095Y-5529999D01*
G01X2179096Y-5524998D01*
G01X2178594Y-5483995D01*
G01X2223595Y-5483995D01*
G01X2223595Y-5438996D01*
G01X2179594Y-5438996D01*
G01X2179096Y-5397000D01*
G01X2184095Y-5391998D01*
G01X2299096Y-5391998D01*
G01X2304098Y-5397000D01*
G37*
G36*
G01X1963103Y-5525000D02*
G01X1963103Y-5397002D01*
G01X1968104Y-5392001D01*
G01X2083105Y-5392001D01*
G01X2088104Y-5397002D01*
G01X2088606Y-5438005D01*
G01X2043605Y-5438005D01*
G01X2043605Y-5483004D01*
G01X2087606Y-5483004D01*
G01X2088104Y-5525000D01*
G01X2083105Y-5530002D01*
G01X1968104Y-5530002D01*
G01X1963103Y-5525000D01*
G37*
G36*
G01X2304098Y-5625600D02*
G01X2304098Y-5753598D01*
G01X2299096Y-5758599D01*
G01X2184095Y-5758599D01*
G01X2179096Y-5753598D01*
G01X2178594Y-5712595D01*
G01X2223595Y-5712595D01*
G01X2223595Y-5667596D01*
G01X2179594Y-5667596D01*
G01X2179096Y-5625600D01*
G01X2184095Y-5620598D01*
G01X2299096Y-5620598D01*
G01X2304098Y-5625600D01*
G37*
G36*
G01X1963103Y-5753600D02*
G01X1963103Y-5625602D01*
G01X1968104Y-5620601D01*
G01X2083105Y-5620601D01*
G01X2088104Y-5625602D01*
G01X2088606Y-5666605D01*
G01X2043605Y-5666605D01*
G01X2043605Y-5711604D01*
G01X2087606Y-5711604D01*
G01X2088104Y-5753600D01*
G01X2083105Y-5758602D01*
G01X1968104Y-5758602D01*
G01X1963103Y-5753600D01*
G37*
G36*
G01X1836103Y-6083800D02*
G01X1836103Y-5955802D01*
G01X1841104Y-5950801D01*
G01X1956105Y-5950801D01*
G01X1961104Y-5955802D01*
G01X1961606Y-5996805D01*
G01X1916605Y-5996805D01*
G01X1916605Y-6041804D01*
G01X1960606Y-6041804D01*
G01X1961104Y-6083800D01*
G01X1956105Y-6088802D01*
G01X1841104Y-6088802D01*
G01X1836103Y-6083800D01*
G37*
G36*
G01X2177098Y-5955800D02*
G01X2177098Y-6083798D01*
G01X2172096Y-6088799D01*
G01X2057095Y-6088799D01*
G01X2052096Y-6083798D01*
G01X2051594Y-6042795D01*
G01X2096595Y-6042795D01*
G01X2096595Y-5997796D01*
G01X2052594Y-5997796D01*
G01X2052096Y-5955800D01*
G01X2057095Y-5950798D01*
G01X2172096Y-5950798D01*
G01X2177098Y-5955800D01*
G37*
G36*
G01X3070997Y-684296D02*
G01X3070997Y-556298D01*
G01X3075998Y-551297D01*
G01X3190999Y-551297D01*
G01X3195998Y-556298D01*
G01X3196501Y-597301D01*
G01X3151500Y-597301D01*
G01X3151500Y-642300D01*
G01X3195500Y-642300D01*
G01X3195998Y-684296D01*
G01X3190999Y-689298D01*
G01X3075998Y-689298D01*
G01X3070997Y-684296D01*
G37*
G36*
G01X3285998Y-684296D02*
G01X3286001Y-642300D01*
G01X3330499Y-642300D01*
G01X3330499Y-597301D01*
G01X3286501Y-597301D01*
G01X3285998Y-556298D01*
G01X3290999Y-551297D01*
G01X3405998Y-551297D01*
G01X3410999Y-556298D01*
G01X3410999Y-684296D01*
G01X3405998Y-689298D01*
G01X3290999Y-689298D01*
G01X3285998Y-684296D01*
G37*
G36*
G01X3096397Y-1776496D02*
G01X3096397Y-1648498D01*
G01X3101398Y-1643497D01*
G01X3216399Y-1643497D01*
G01X3221398Y-1648498D01*
G01X3221901Y-1689501D01*
G01X3176900Y-1689501D01*
G01X3176900Y-1734500D01*
G01X3220900Y-1734500D01*
G01X3221398Y-1776496D01*
G01X3216399Y-1781498D01*
G01X3101398Y-1781498D01*
G01X3096397Y-1776496D01*
G37*
G36*
G01X3311398Y-1776496D02*
G01X3311401Y-1734500D01*
G01X3355899Y-1734500D01*
G01X3355899Y-1689501D01*
G01X3311901Y-1689501D01*
G01X3311398Y-1648498D01*
G01X3316399Y-1643497D01*
G01X3431398Y-1643497D01*
G01X3436399Y-1648498D01*
G01X3436399Y-1776496D01*
G01X3431398Y-1781498D01*
G01X3316399Y-1781498D01*
G01X3311398Y-1776496D01*
G37*
G36*
G01X3274499Y-930476D02*
G01X3274499Y-974537D01*
G01X3313006Y-1021352D01*
G01X3381753Y-1021352D01*
G01X3391753Y-1011352D01*
G01X3391753Y-893656D01*
G01X3381753Y-883656D01*
G01X3313006Y-883656D01*
G01X3274499Y-930476D01*
G37*
G36*
G01X3202501Y-930476D02*
G01X3202501Y-974537D01*
G01X3163994Y-1021352D01*
G01X3095247Y-1021352D01*
G01X3085247Y-1011352D01*
G01X3085247Y-893656D01*
G01X3095247Y-883656D01*
G01X3163994Y-883656D01*
G01X3202501Y-930476D01*
G37*
G36*
G01X3299899Y-1336876D02*
G01X3299899Y-1380937D01*
G01X3338406Y-1427752D01*
G01X3407153Y-1427752D01*
G01X3417153Y-1417752D01*
G01X3417153Y-1300056D01*
G01X3407153Y-1290056D01*
G01X3338406Y-1290056D01*
G01X3299899Y-1336876D01*
G37*
G36*
G01X3227901Y-1336876D02*
G01X3227901Y-1380937D01*
G01X3189394Y-1427752D01*
G01X3120647Y-1427752D01*
G01X3110647Y-1417752D01*
G01X3110647Y-1300056D01*
G01X3120647Y-1290056D01*
G01X3189394Y-1290056D01*
G01X3227901Y-1336876D01*
G37*
G36*
G01X3360598Y-4026400D02*
G01X3360598Y-3898402D01*
G01X3365599Y-3893401D01*
G01X3480600Y-3893401D01*
G01X3485599Y-3898402D01*
G01X3486102Y-3939405D01*
G01X3441101Y-3939405D01*
G01X3441101Y-3984404D01*
G01X3485101Y-3984404D01*
G01X3485599Y-4026400D01*
G01X3480600Y-4031402D01*
G01X3365599Y-4031402D01*
G01X3360598Y-4026400D01*
G37*
G36*
G01X3575599Y-4026400D02*
G01X3575601Y-3984404D01*
G01X3620099Y-3984404D01*
G01X3620099Y-3939405D01*
G01X3576102Y-3939405D01*
G01X3575599Y-3898402D01*
G01X3580600Y-3893401D01*
G01X3695598Y-3893401D01*
G01X3700600Y-3898402D01*
G01X3700600Y-4026400D01*
G01X3695598Y-4031402D01*
G01X3580600Y-4031402D01*
G01X3575599Y-4026400D01*
G37*
G36*
G01X3161800Y-3919398D02*
G01X3289798Y-3919398D01*
G01X3294799Y-3924399D01*
G01X3294799Y-4039400D01*
G01X3289798Y-4044399D01*
G01X3248795Y-4044902D01*
G01X3248795Y-3999901D01*
G01X3203796Y-3999901D01*
G01X3203796Y-4043901D01*
G01X3161800Y-4044399D01*
G01X3156798Y-4039400D01*
G01X3156798Y-3924399D01*
G01X3161800Y-3919398D01*
G37*
G36*
G01X3161800Y-4134399D02*
G01X3203796Y-4134401D01*
G01X3203796Y-4178899D01*
G01X3248795Y-4178899D01*
G01X3248795Y-4134902D01*
G01X3289798Y-4134399D01*
G01X3294799Y-4139400D01*
G01X3294799Y-4254398D01*
G01X3289798Y-4259400D01*
G01X3161800Y-4259400D01*
G01X3156798Y-4254398D01*
G01X3156798Y-4139400D01*
G01X3161800Y-4134399D01*
G37*
G36*
G01X4305800Y-4767402D02*
G01X4177802Y-4767402D01*
G01X4172801Y-4762401D01*
G01X4172801Y-4647400D01*
G01X4177802Y-4642401D01*
G01X4218805Y-4641898D01*
G01X4218805Y-4686899D01*
G01X4263804Y-4686899D01*
G01X4263804Y-4642899D01*
G01X4305800Y-4642401D01*
G01X4310802Y-4647400D01*
G01X4310802Y-4762401D01*
G01X4305800Y-4767402D01*
G37*
G36*
G01X4305800Y-4552401D02*
G01X4263804Y-4552399D01*
G01X4263804Y-4507901D01*
G01X4218805Y-4507901D01*
G01X4218805Y-4551898D01*
G01X4177802Y-4552401D01*
G01X4172801Y-4547400D01*
G01X4172801Y-4432402D01*
G01X4177802Y-4427400D01*
G01X4305800Y-4427400D01*
G01X4310802Y-4432402D01*
G01X4310802Y-4547400D01*
G01X4305800Y-4552401D01*
G37*
G36*
G01X4305800Y-5148402D02*
G01X4177802Y-5148402D01*
G01X4172801Y-5143401D01*
G01X4172801Y-5028400D01*
G01X4177802Y-5023401D01*
G01X4218805Y-5022898D01*
G01X4218805Y-5067899D01*
G01X4263804Y-5067899D01*
G01X4263804Y-5023899D01*
G01X4305800Y-5023401D01*
G01X4310802Y-5028400D01*
G01X4310802Y-5143401D01*
G01X4305800Y-5148402D01*
G37*
G36*
G01X4305800Y-4933401D02*
G01X4263804Y-4933399D01*
G01X4263804Y-4888901D01*
G01X4218805Y-4888901D01*
G01X4218805Y-4932898D01*
G01X4177802Y-4933401D01*
G01X4172801Y-4928400D01*
G01X4172801Y-4813402D01*
G01X4177802Y-4808400D01*
G01X4305800Y-4808400D01*
G01X4310802Y-4813402D01*
G01X4310802Y-4928400D01*
G01X4305800Y-4933401D01*
G37*
G36*
G01X526128Y-393200D02*
G01X526128Y-521198D01*
G01X521127Y-526199D01*
G01X406126Y-526199D01*
G01X401127Y-521198D01*
G01X400624Y-480195D01*
G01X445625Y-480195D01*
G01X445625Y-435196D01*
G01X401625Y-435196D01*
G01X401127Y-393200D01*
G01X406126Y-388198D01*
G01X521127Y-388198D01*
G01X526128Y-393200D01*
G37*
G36*
G01X311127Y-393200D02*
G01X311125Y-435196D01*
G01X266626Y-435196D01*
G01X266626Y-480195D01*
G01X310624Y-480195D01*
G01X311127Y-521198D01*
G01X306126Y-526199D01*
G01X191127Y-526199D01*
G01X186126Y-521198D01*
G01X186126Y-393200D01*
G01X191127Y-388198D01*
G01X306126Y-388198D01*
G01X311127Y-393200D01*
G37*
G36*
G01X185598Y-749800D02*
G01X185598Y-621802D01*
G01X190599Y-616801D01*
G01X305600Y-616801D01*
G01X310599Y-621802D01*
G01X311102Y-662805D01*
G01X266101Y-662805D01*
G01X266101Y-707804D01*
G01X310101Y-707804D01*
G01X310599Y-749800D01*
G01X305600Y-754802D01*
G01X190599Y-754802D01*
G01X185598Y-749800D01*
G37*
G36*
G01X400599Y-749800D02*
G01X400601Y-707804D01*
G01X445099Y-707804D01*
G01X445099Y-662805D01*
G01X401102Y-662805D01*
G01X400599Y-621802D01*
G01X405600Y-616801D01*
G01X520598Y-616801D01*
G01X525600Y-621802D01*
G01X525600Y-749800D01*
G01X520598Y-754802D01*
G01X405600Y-754802D01*
G01X400599Y-749800D01*
G37*
G36*
G01X830402Y-4330200D02*
G01X830402Y-4458198D01*
G01X825401Y-4463199D01*
G01X710400Y-4463199D01*
G01X705401Y-4458198D01*
G01X704898Y-4417195D01*
G01X749899Y-4417195D01*
G01X749899Y-4372196D01*
G01X705899Y-4372196D01*
G01X705401Y-4330200D01*
G01X710400Y-4325198D01*
G01X825401Y-4325198D01*
G01X830402Y-4330200D01*
G37*
G36*
G01X615401Y-4330200D02*
G01X615399Y-4372196D01*
G01X570901Y-4372196D01*
G01X570901Y-4417195D01*
G01X614898Y-4417195D01*
G01X615401Y-4458198D01*
G01X610400Y-4463199D01*
G01X495402Y-4463199D01*
G01X490400Y-4458198D01*
G01X490400Y-4330200D01*
G01X495402Y-4325198D01*
G01X610400Y-4325198D01*
G01X615401Y-4330200D01*
G37*
G36*
G01X1003800Y-3497402D02*
G01X875802Y-3497402D01*
G01X870801Y-3492401D01*
G01X870801Y-3377400D01*
G01X875802Y-3372401D01*
G01X916805Y-3371898D01*
G01X916805Y-3416899D01*
G01X961804Y-3416899D01*
G01X961804Y-3372899D01*
G01X1003800Y-3372401D01*
G01X1008802Y-3377400D01*
G01X1008802Y-3492401D01*
G01X1003800Y-3497402D01*
G37*
G36*
G01X1003800Y-3282401D02*
G01X961804Y-3282399D01*
G01X961804Y-3237901D01*
G01X916805Y-3237901D01*
G01X916805Y-3281898D01*
G01X875802Y-3282401D01*
G01X870801Y-3277400D01*
G01X870801Y-3162402D01*
G01X875802Y-3157400D01*
G01X1003800Y-3157400D01*
G01X1008802Y-3162402D01*
G01X1008802Y-3277400D01*
G01X1003800Y-3282401D01*
G37*
G36*
G01X826000Y-5123002D02*
G01X698002Y-5123002D01*
G01X693001Y-5118001D01*
G01X693001Y-5003000D01*
G01X698002Y-4998001D01*
G01X739005Y-4997498D01*
G01X739005Y-5042499D01*
G01X784004Y-5042499D01*
G01X784004Y-4998499D01*
G01X826000Y-4998001D01*
G01X831002Y-5003000D01*
G01X831002Y-5118001D01*
G01X826000Y-5123002D01*
G37*
G36*
G01X826000Y-4908001D02*
G01X784004Y-4907999D01*
G01X784004Y-4863501D01*
G01X739005Y-4863501D01*
G01X739005Y-4907498D01*
G01X698002Y-4908001D01*
G01X693001Y-4903000D01*
G01X693001Y-4788002D01*
G01X698002Y-4783000D01*
G01X826000Y-4783000D01*
G01X831002Y-4788002D01*
G01X831002Y-4903000D01*
G01X826000Y-4908001D01*
G37*
G36*
G01X1104400Y-2979598D02*
G01X1232398Y-2979598D01*
G01X1237399Y-2984599D01*
G01X1237399Y-3099600D01*
G01X1232398Y-3104599D01*
G01X1191395Y-3105102D01*
G01X1191395Y-3060101D01*
G01X1146396Y-3060101D01*
G01X1146396Y-3104101D01*
G01X1104400Y-3104599D01*
G01X1099398Y-3099600D01*
G01X1099398Y-2984599D01*
G01X1104400Y-2979598D01*
G37*
G36*
G01X1104400Y-3194599D02*
G01X1146396Y-3194601D01*
G01X1146396Y-3239099D01*
G01X1191395Y-3239099D01*
G01X1191395Y-3195102D01*
G01X1232398Y-3194599D01*
G01X1237399Y-3199600D01*
G01X1237399Y-3314598D01*
G01X1232398Y-3319600D01*
G01X1104400Y-3319600D01*
G01X1099398Y-3314598D01*
G01X1099398Y-3199600D01*
G01X1104400Y-3194599D01*
G37*
G36*
G01X566598Y-5626600D02*
G01X566598Y-5498602D01*
G01X571599Y-5493601D01*
G01X686600Y-5493601D01*
G01X691599Y-5498602D01*
G01X692102Y-5539605D01*
G01X647101Y-5539605D01*
G01X647101Y-5584604D01*
G01X691101Y-5584604D01*
G01X691599Y-5626600D01*
G01X686600Y-5631602D01*
G01X571599Y-5631602D01*
G01X566598Y-5626600D01*
G37*
G36*
G01X781599Y-5626600D02*
G01X781601Y-5584604D01*
G01X826099Y-5584604D01*
G01X826099Y-5539605D01*
G01X782102Y-5539605D01*
G01X781599Y-5498602D01*
G01X786600Y-5493601D01*
G01X901598Y-5493601D01*
G01X906600Y-5498602D01*
G01X906600Y-5626600D01*
G01X901598Y-5631602D01*
G01X786600Y-5631602D01*
G01X781599Y-5626600D01*
G37*
G36*
G01X952000Y-4325798D02*
G01X1079998Y-4325798D01*
G01X1084999Y-4330799D01*
G01X1084999Y-4445800D01*
G01X1079998Y-4450799D01*
G01X1038995Y-4451302D01*
G01X1038995Y-4406301D01*
G01X993996Y-4406301D01*
G01X993996Y-4450301D01*
G01X952000Y-4450799D01*
G01X946998Y-4445800D01*
G01X946998Y-4330799D01*
G01X952000Y-4325798D01*
G37*
G36*
G01X952000Y-4540799D02*
G01X993996Y-4540801D01*
G01X993996Y-4585299D01*
G01X1038995Y-4585299D01*
G01X1038995Y-4541302D01*
G01X1079998Y-4540799D01*
G01X1084999Y-4545800D01*
G01X1084999Y-4660798D01*
G01X1079998Y-4665800D01*
G01X952000Y-4665800D01*
G01X946998Y-4660798D01*
G01X946998Y-4545800D01*
G01X952000Y-4540799D01*
G37*
G36*
G01X2705051Y-3441495D02*
G01X2705051Y-3313496D01*
G01X2710053Y-3308495D01*
G01X2825054Y-3308495D01*
G01X2830053Y-3313496D01*
G01X2830555Y-3354500D01*
G01X2785554Y-3354500D01*
G01X2785554Y-3399498D01*
G01X2829555Y-3399498D01*
G01X2830053Y-3441495D01*
G01X2825054Y-3446496D01*
G01X2710053Y-3446496D01*
G01X2705051Y-3441495D01*
G37*
G36*
G01X3046046Y-3313494D02*
G01X3046046Y-3441492D01*
G01X3041045Y-3446493D01*
G01X2926044Y-3446493D01*
G01X2921045Y-3441492D01*
G01X2920543Y-3400489D01*
G01X2965544Y-3400489D01*
G01X2965544Y-3355490D01*
G01X2921543Y-3355490D01*
G01X2921045Y-3313494D01*
G01X2926044Y-3308492D01*
G01X3041045Y-3308492D01*
G01X3046046Y-3313494D01*
G37*
G36*
G01X1551966Y-3449248D02*
G01X1551966Y-3321250D01*
G01X1556967Y-3316249D01*
G01X1671968Y-3316249D01*
G01X1676967Y-3321250D01*
G01X1677470Y-3362253D01*
G01X1632468Y-3362253D01*
G01X1632468Y-3407252D01*
G01X1676469Y-3407252D01*
G01X1676967Y-3449248D01*
G01X1671968Y-3454249D01*
G01X1556967Y-3454249D01*
G01X1551966Y-3449248D01*
G37*
G36*
G01X1892961Y-3321247D02*
G01X1892961Y-3449246D01*
G01X1887959Y-3454247D01*
G01X1772958Y-3454247D01*
G01X1767960Y-3449246D01*
G01X1767457Y-3408242D01*
G01X1812458Y-3408242D01*
G01X1812458Y-3363244D01*
G01X1768457Y-3363244D01*
G01X1767960Y-3321247D01*
G01X1772958Y-3316246D01*
G01X1887959Y-3316246D01*
G01X1892961Y-3321247D01*
G37*
G36*
G01X3366000Y-5275897D02*
G01X3238002Y-5275897D01*
G01X3233001Y-5270896D01*
G01X3233001Y-5155895D01*
G01X3238002Y-5150896D01*
G01X3279005Y-5150394D01*
G01X3279005Y-5195395D01*
G01X3324004Y-5195395D01*
G01X3324004Y-5151394D01*
G01X3366000Y-5150896D01*
G01X3371002Y-5155895D01*
G01X3371002Y-5270896D01*
G01X3366000Y-5275897D01*
G37*
G36*
G01X3238000Y-4934902D02*
G01X3365998Y-4934902D01*
G01X3370999Y-4939904D01*
G01X3370999Y-5054905D01*
G01X3365998Y-5059904D01*
G01X3324995Y-5060406D01*
G01X3324995Y-5015405D01*
G01X3279996Y-5015405D01*
G01X3279996Y-5059406D01*
G01X3238000Y-5059904D01*
G01X3232998Y-5054905D01*
G01X3232998Y-4939904D01*
G01X3238000Y-4934902D01*
G37*
G36*
G01X3441200Y-4934902D02*
G01X3569198Y-4934902D01*
G01X3574199Y-4939904D01*
G01X3574199Y-5054905D01*
G01X3569198Y-5059904D01*
G01X3528195Y-5060406D01*
G01X3528195Y-5015405D01*
G01X3483196Y-5015405D01*
G01X3483196Y-5059406D01*
G01X3441200Y-5059904D01*
G01X3436198Y-5054905D01*
G01X3436198Y-4939904D01*
G01X3441200Y-4934902D01*
G37*
G36*
G01X3569200Y-5275897D02*
G01X3441202Y-5275897D01*
G01X3436201Y-5270896D01*
G01X3436201Y-5155895D01*
G01X3441202Y-5150896D01*
G01X3482205Y-5150394D01*
G01X3482205Y-5195395D01*
G01X3527204Y-5195395D01*
G01X3527204Y-5151394D01*
G01X3569200Y-5150896D01*
G01X3574202Y-5155895D01*
G01X3574202Y-5270896D01*
G01X3569200Y-5275897D01*
G37*
G36*
G01X4152400Y-7068502D02*
G01X4280398Y-7068502D01*
G01X4285399Y-7073504D01*
G01X4285399Y-7188505D01*
G01X4280398Y-7193504D01*
G01X4239395Y-7194006D01*
G01X4239395Y-7149005D01*
G01X4194396Y-7149005D01*
G01X4194396Y-7193006D01*
G01X4152400Y-7193504D01*
G01X4147398Y-7188505D01*
G01X4147398Y-7073504D01*
G01X4152400Y-7068502D01*
G37*
G36*
G01X4280400Y-7409497D02*
G01X4152402Y-7409497D01*
G01X4147401Y-7404496D01*
G01X4147401Y-7289495D01*
G01X4152402Y-7284496D01*
G01X4193405Y-7283994D01*
G01X4193405Y-7328995D01*
G01X4238404Y-7328995D01*
G01X4238404Y-7284994D01*
G01X4280400Y-7284496D01*
G01X4285402Y-7289495D01*
G01X4285402Y-7404496D01*
G01X4280400Y-7409497D01*
G37*
G36*
G01X4292280Y-8077336D02*
G01X4164282Y-8077336D01*
G01X4159280Y-8072335D01*
G01X4159280Y-7957334D01*
G01X4164282Y-7952335D01*
G01X4205285Y-7951832D01*
G01X4205285Y-7996834D01*
G01X4250284Y-7996834D01*
G01X4250284Y-7952833D01*
G01X4292280Y-7952335D01*
G01X4297281Y-7957334D01*
G01X4297281Y-8072335D01*
G01X4292280Y-8077336D01*
G37*
G36*
G01X4164279Y-7736341D02*
G01X4292277Y-7736341D01*
G01X4297279Y-7741343D01*
G01X4297279Y-7856344D01*
G01X4292277Y-7861342D01*
G01X4251274Y-7861845D01*
G01X4251274Y-7816844D01*
G01X4206276Y-7816844D01*
G01X4206276Y-7860845D01*
G01X4164279Y-7861342D01*
G01X4159278Y-7856344D01*
G01X4159278Y-7741343D01*
G01X4164279Y-7736341D01*
G37*
G36*
G01X2781800Y-5733097D02*
G01X2653802Y-5733097D01*
G01X2648801Y-5728096D01*
G01X2648801Y-5613095D01*
G01X2653802Y-5608096D01*
G01X2694805Y-5607594D01*
G01X2694805Y-5652595D01*
G01X2739804Y-5652595D01*
G01X2739804Y-5608594D01*
G01X2781800Y-5608096D01*
G01X2786802Y-5613095D01*
G01X2786802Y-5728096D01*
G01X2781800Y-5733097D01*
G37*
G36*
G01X2653800Y-5392102D02*
G01X2781798Y-5392102D01*
G01X2786799Y-5397104D01*
G01X2786799Y-5512105D01*
G01X2781798Y-5517104D01*
G01X2740795Y-5517606D01*
G01X2740795Y-5472605D01*
G01X2695796Y-5472605D01*
G01X2695796Y-5516606D01*
G01X2653800Y-5517104D01*
G01X2648798Y-5512105D01*
G01X2648798Y-5397104D01*
G01X2653800Y-5392102D01*
G37*

G04 Pad Start*
G54D10*
G01X2234913Y-723887D03*
G01X2768897Y-723887D03*
G01X2768887Y-1587513D03*
G01X2234903Y-1587513D03*
G54D11*
G01X3559353Y-266700D03*
G01X3120847Y-266700D03*
G01X3146247Y-2044700D03*
G01X3584753Y-2044700D03*
G54D12*
G01X1246200Y-558800D03*
G01X1446200Y-558800D03*
G54D13*
G01X2984500Y-4243095D03*
G01X2857500Y-4243095D03*
G01X2730500Y-4243095D03*
G01X2603500Y-4243095D03*
G01X2984500Y-4748505D03*
G01X2857500Y-4748505D03*
G01X2730500Y-4748505D03*
G01X2603500Y-4748505D03*
G54D14*
G01X1841906Y-5250104D03*
G01X1776908Y-5250104D03*
G01X1711909Y-5250104D03*
G01X1646911Y-5250104D03*
G01X1581887Y-5250104D03*
G01X1516888Y-5250104D03*
G01X1451889Y-5250104D03*
G01X1386891Y-5250104D03*
G01X1321892Y-5250104D03*
G01X1256894Y-5250104D03*
G01X1841906Y-5824296D03*
G01X1776908Y-5824296D03*
G01X1711909Y-5824296D03*
G01X1646911Y-5824296D03*
G01X1581887Y-5824296D03*
G01X1516888Y-5824296D03*
G01X1451889Y-5824296D03*
G01X1386891Y-5824296D03*
G01X1321892Y-5824296D03*
G01X1256894Y-5824296D03*
G54D15*
G01X3221711Y-5400294D03*
G01X3156687Y-5400294D03*
G01X3091688Y-5400294D03*
G01X3026689Y-5400294D03*
G01X3221711Y-5826506D03*
G01X3156687Y-5826506D03*
G01X3091688Y-5826506D03*
G01X3026689Y-5826506D03*
G54D16*
G01X4016197Y-4610100D03*
G01X4016197Y-4483100D03*
G01X4016197Y-4356100D03*
G01X4016197Y-4229100D03*
G01X3502203Y-4610100D03*
G01X3502203Y-4483100D03*
G01X3502203Y-4356100D03*
G01X3502203Y-4229100D03*
G54D17*
G01X876910Y-653796D03*
G01X876910Y-558800D03*
G01X876910Y-463804D03*
G01X647090Y-463804D03*
G01X647090Y-558800D03*
G01X647090Y-653796D03*
G54D18*
G01X2765549Y-3098081D03*
G01X2765549Y-3193077D03*
G01X2765549Y-3003111D03*
G01X2985564Y-3193103D03*
G01X2985564Y-3003085D03*
G01X1641278Y-3092795D03*
G01X1641278Y-3187791D03*
G01X1641278Y-2997824D03*
G01X1861293Y-3187816D03*
G01X1861293Y-2997799D03*
G54D20*
G01X1003300Y-3654603D03*
G01X876300Y-3654603D03*
G01X749300Y-3654603D03*
G01X622300Y-3654603D03*
G01X1003300Y-4168597D03*
G01X876300Y-4168597D03*
G01X749300Y-4168597D03*
G01X622300Y-4168597D03*
G04 Pad End*

M02*

