G04 Layer: BottomSilkscreenLayer*
G04 EasyEDA Pro v2.2.47.7, 2026-05-03 22:27:52*
G04 Gerber Generator version 0.3*
G04 Scale: 100 percent, Rotated: No, Reflected: No*
G04 Dimensions in millimeters*
G04 Leading zeros omitted, absolute positions, 4 integers and 5 decimals*
G04 Generated by one-click*
G04 Object Configs: Pad,Via,Track,Text,Image,Dimension,BoardOutline,BoardCutout,CopperFilled,SolidRegion,FPCStiffener,Line,PlaneZone,ComponentProperty,ComponentSilkscreen,TearDrop*
G04 Layer Configs: 1,15,16,2,3,4,5,6,7,8,9,10,11,13,14,71,72,56*
G04 Copper Areas: 0*
%FSLAX45Y45*%
%MOMM*%
%ADD10C,0.1524*%
%ADD11C,0.254*%
%ADD12C,0.12*%
%ADD13C,0.5251*%
G75*


G04 Text Start*
G54D10*
G01X3633813Y-135611D02*
G01X3698837Y-135611D01*
G01X3633813Y-135611D02*
G01X3633813Y-163551D01*
G01X3636861Y-172695D01*
G01X3639909Y-175743D01*
G01X3646259Y-179045D01*
G01X3655403Y-179045D01*
G01X3661499Y-175743D01*
G01X3664801Y-172695D01*
G01X3667849Y-163551D01*
G01X3667849Y-135611D01*
G01X3646259Y-209271D02*
G01X3642957Y-215367D01*
G01X3633813Y-224511D01*
G01X3698837Y-224511D01*
G01X4146480Y-6107966D02*
G01X4146480Y-6154448D01*
G01X4143432Y-6163592D01*
G01X4137082Y-6169942D01*
G01X4127938Y-6172990D01*
G01X4121588Y-6172990D01*
G01X4112444Y-6169942D01*
G01X4106348Y-6163592D01*
G01X4103046Y-6154448D01*
G01X4103046Y-6107966D01*
G01X4072820Y-6120412D02*
G01X4066724Y-6117110D01*
G01X4057580Y-6107966D01*
G01X4057580Y-6172990D01*
G01X3095498Y-7439660D02*
G01X3098546Y-7433310D01*
G01X3104896Y-7427214D01*
G01X3110992Y-7424166D01*
G01X3123438Y-7424166D01*
G01X3129534Y-7427214D01*
G01X3135884Y-7433310D01*
G01X3138932Y-7439660D01*
G01X3141980Y-7448804D01*
G01X3141980Y-7464298D01*
G01X3138932Y-7473696D01*
G01X3135884Y-7479792D01*
G01X3129534Y-7486142D01*
G01X3123438Y-7489190D01*
G01X3110992Y-7489190D01*
G01X3104896Y-7486142D01*
G01X3098546Y-7479792D01*
G01X3095498Y-7473696D01*
G01X3059176Y-7424166D02*
G01X3025140Y-7424166D01*
G01X3043682Y-7448804D01*
G01X3034538Y-7448804D01*
G01X3028188Y-7451852D01*
G01X3025140Y-7455154D01*
G01X3022092Y-7464298D01*
G01X3022092Y-7470648D01*
G01X3025140Y-7479792D01*
G01X3031236Y-7486142D01*
G01X3040634Y-7489190D01*
G01X3050032Y-7489190D01*
G01X3059176Y-7486142D01*
G01X3062224Y-7482840D01*
G01X3065272Y-7476744D01*
G01X2976626Y-7424166D02*
G01X2985770Y-7427214D01*
G01X2988818Y-7433310D01*
G01X2988818Y-7439660D01*
G01X2985770Y-7445756D01*
G01X2979674Y-7448804D01*
G01X2967228Y-7451852D01*
G01X2957830Y-7455154D01*
G01X2951734Y-7461250D01*
G01X2948686Y-7467346D01*
G01X2948686Y-7476744D01*
G01X2951734Y-7482840D01*
G01X2954782Y-7486142D01*
G01X2964180Y-7489190D01*
G01X2976626Y-7489190D01*
G01X2985770Y-7486142D01*
G01X2988818Y-7482840D01*
G01X2991866Y-7476744D01*
G01X2991866Y-7467346D01*
G01X2988818Y-7461250D01*
G01X2982722Y-7455154D01*
G01X2973324Y-7451852D01*
G01X2961132Y-7448804D01*
G01X2954782Y-7445756D01*
G01X2951734Y-7439660D01*
G01X2951734Y-7433310D01*
G01X2954782Y-7427214D01*
G01X2964180Y-7424166D01*
G01X2976626Y-7424166D01*
G01X3141980Y-7627366D02*
G01X3141980Y-7692390D01*
G01X3141980Y-7627366D02*
G01X3120390Y-7627366D01*
G01X3110992Y-7630414D01*
G01X3104896Y-7636510D01*
G01X3101848Y-7642860D01*
G01X3098546Y-7652004D01*
G01X3098546Y-7667498D01*
G01X3101848Y-7676896D01*
G01X3104896Y-7682992D01*
G01X3110992Y-7689342D01*
G01X3120390Y-7692390D01*
G01X3141980Y-7692390D01*
G01X3062224Y-7627366D02*
G01X3028188Y-7627366D01*
G01X3046730Y-7652004D01*
G01X3037586Y-7652004D01*
G01X3031236Y-7655052D01*
G01X3028188Y-7658354D01*
G01X3025140Y-7667498D01*
G01X3025140Y-7673848D01*
G01X3028188Y-7682992D01*
G01X3034284Y-7689342D01*
G01X3043682Y-7692390D01*
G01X3053080Y-7692390D01*
G01X3062224Y-7689342D01*
G01X3065272Y-7686040D01*
G01X3068320Y-7679944D01*
G01X3446780Y-6865366D02*
G01X3446780Y-6930390D01*
G01X3446780Y-6865366D02*
G01X3425190Y-6865366D01*
G01X3415792Y-6868414D01*
G01X3409696Y-6874510D01*
G01X3406648Y-6880860D01*
G01X3403346Y-6890004D01*
G01X3403346Y-6905498D01*
G01X3406648Y-6914896D01*
G01X3409696Y-6920992D01*
G01X3415792Y-6927342D01*
G01X3425190Y-6930390D01*
G01X3446780Y-6930390D01*
G01X3342386Y-6865366D02*
G01X3373120Y-6908546D01*
G01X3326892Y-6908546D01*
G01X3342386Y-6865366D02*
G01X3342386Y-6930390D01*
G01X3138170Y-7999476D02*
G01X3138170Y-8064500D01*
G01X3138170Y-7999476D02*
G01X3116580Y-7999476D01*
G01X3107182Y-8002524D01*
G01X3101086Y-8008620D01*
G01X3098038Y-8014970D01*
G01X3094736Y-8024114D01*
G01X3094736Y-8039608D01*
G01X3098038Y-8049006D01*
G01X3101086Y-8055102D01*
G01X3107182Y-8061452D01*
G01X3116580Y-8064500D01*
G01X3138170Y-8064500D01*
G01X3027426Y-7999476D02*
G01X3058414Y-7999476D01*
G01X3061462Y-8027162D01*
G01X3058414Y-8024114D01*
G01X3049270Y-8021066D01*
G01X3039872Y-8021066D01*
G01X3030474Y-8024114D01*
G01X3024378Y-8030464D01*
G01X3021330Y-8039608D01*
G01X3021330Y-8045958D01*
G01X3024378Y-8055102D01*
G01X3030474Y-8061452D01*
G01X3039872Y-8064500D01*
G01X3049270Y-8064500D01*
G01X3058414Y-8061452D01*
G01X3061462Y-8058150D01*
G01X3064510Y-8052054D01*
G04 Text End*

G04 PolygonModel Start*
G54D11*
G01X4460151Y-901700D02*
G01X4637951Y-901700D01*
G01X4637951Y-901700D02*
G01X4630331Y-906780D01*
G01X4460151Y-901700D02*
G01X4460151Y-1409700D01*
G01X4460151Y-1409700D02*
G01X4635411Y-1409700D01*
G01X4635411Y-1409700D02*
G01X4630331Y-1409700D01*
G01X3753447Y-140691D02*
G01X3753447Y-2170684D01*
G01X4633455Y-2170684D01*
G01X4633455Y-140691D01*
G01X3753447Y-140691D01*
G54D12*
G01X4107600Y-6267400D02*
G01X3974600Y-6267400D01*
G01X4107600Y-6400400D02*
G01X4107600Y-6267400D01*
G01X4107600Y-6527400D02*
G01X4107600Y-10089400D01*
G01X4107600Y-6527400D02*
G01X3847600Y-6527400D01*
G01X4107600Y-10089400D02*
G01X3587600Y-10089400D01*
G01X3847600Y-6267400D02*
G01X3587600Y-6267400D01*
G01X3847600Y-6527400D02*
G01X3847600Y-6267400D01*
G01X3587600Y-6267400D02*
G01X3587600Y-10089400D01*
G01X1314600Y-6264400D02*
G01X1181600Y-6264400D01*
G01X1314600Y-6397400D02*
G01X1314600Y-6264400D01*
G01X1314600Y-6524400D02*
G01X1314600Y-10086400D01*
G01X1314600Y-6524400D02*
G01X1054600Y-6524400D01*
G01X1314600Y-10086400D02*
G01X794600Y-10086400D01*
G01X1054600Y-6264400D02*
G01X794600Y-6264400D01*
G01X1054600Y-6524400D02*
G01X1054600Y-6264400D01*
G01X794600Y-6264400D02*
G01X794600Y-10086400D01*
G54D10*
G01X3533920Y-7507160D02*
G01X3392919Y-7507160D01*
G01X3392919Y-7326439D02*
G01X3533920Y-7326439D01*
G01X3549160Y-7341679D02*
G01X3549160Y-7491920D01*
G01X3171680Y-7507160D02*
G01X3312681Y-7507160D01*
G01X3312681Y-7326439D02*
G01X3171680Y-7326439D01*
G01X3156440Y-7341679D02*
G01X3156440Y-7491920D01*
G01X3533920Y-7326439D02*
G02X3549160Y-7341679I0J-15240D01*
G01X3549160Y-7491920D02*
G02X3533920Y-7507160I-15240J0D01*
G01X3171680Y-7326439D02*
G03X3156440Y-7341679I0J-15240D01*
G01X3156440Y-7491920D02*
G03X3171680Y-7507160I15240J0D01*
G54D11*
G01X3263806Y-7626203D02*
G01X3177405Y-7626203D01*
G01X3177405Y-7626203D02*
G01X3177405Y-7726205D01*
G01X3358802Y-7766202D02*
G01X3296008Y-7766202D01*
G01X3477405Y-7626203D02*
G01X3391004Y-7626203D01*
G01X3477405Y-7626203D02*
G01X3477405Y-7726205D01*
G01X3448197Y-7073806D02*
G01X3448197Y-6987405D01*
G01X3448197Y-6987405D02*
G01X3348195Y-6987405D01*
G01X3308198Y-7168802D02*
G01X3308198Y-7106008D01*
G01X3448197Y-7287405D02*
G01X3448197Y-7201004D01*
G01X3448197Y-7287405D02*
G01X3348195Y-7287405D01*
G01X3263806Y-7981803D02*
G01X3177405Y-7981803D01*
G01X3177405Y-7981803D02*
G01X3177405Y-8081805D01*
G01X3358802Y-8121802D02*
G01X3296008Y-8121802D01*
G01X3477405Y-7981803D02*
G01X3391004Y-7981803D01*
G01X3477405Y-7981803D02*
G01X3477405Y-8081805D01*

M02*

