G04 Layer: DrillDrawingLayer*
G04 EasyEDA Pro v2.2.47.7, 2026-04-30 22:47:31*
G04 Gerber Generator version 0.3*
G04 Scale: 100 percent, Rotated: No, Reflected: No*
G04 Dimensions in millimeters*
G04 Leading zeros omitted, absolute positions, 4 integers and 5 decimals*
G04 Generated by one-click*
G04 Object Configs: Pad,Via,Track,Text,Image,Dimension,BoardOutline,BoardCutout,CopperFilled,SolidRegion,FPCStiffener,Line,PlaneZone,ComponentProperty,ComponentSilkscreen,TearDrop*
G04 Layer Configs: 1,15,16,2,3,4,5,6,7,8,9,10,11,13,14,71,72,56*
G04 Copper Areas: 0*
%FSLAX45Y45*%
%MOMM*%
%AMIconRect*4,1,4,0.28,-0.28,-0.28,-0.28,-0.28,0.28,0.28,0.28,0.28,-0.28,0*4,0,4,0.233333,-0.233333,0.233333,0.233333,-0.233333,0.233333,-0.233333,-0.233333,0.233333,-0.233333,0*%
%AMIconTriangle*4,1,3,-0.339593,0.240473,0.339593,0.240473,0,-0.37884,-0.339593,0.240473,0*4,0,3,-0.265673,0.19404,0,-0.27342,0.266233,0.19404,-0.265673,0.19404,0*%
%AMIconStar6*4,1,12,0.12068,0.20888,0.298527,0.172713,0.241313,0,0.298527,-0.17206,0.12068,-0.208227,0,-0.344073,-0.120073,-0.208227,-0.298573,-0.17206,-0.240707,0,-0.298573,0.17206,-0.120073,0.20888,0,0.344073,0.12068,0.20888,0*4,0,12,-0.000467,0.273467,-0.090067,0.171733,-0.237533,0.136733,-0.193667,-0.007467,-0.237533,-0.1372,-0.090067,-0.171733,-0.000467,-0.273933,0.090067,-0.171733,0.237533,-0.1372,0.194133,0.007,0.237533,0.1372,0.090067,0.171267,-0.000467,0.273467,0*%
%AMIconStar4*4,1,8,-0.311733,0.311733,0,0.202533,0.311733,0.311733,0.202533,0,0.311733,-0.311733,0,-0.202533,-0.304407,-0.311733,-0.202533,0,-0.311733,0.311733,0*4,0,8,0.233333,-0.233333,0.1512,0,0.233333,0.233333,0,0.1512,-0.233333,0.233333,-0.1512,0,-0.233333,-0.233333,0,-0.1512,0.233333,-0.233333,0*%
%ADD10IconRect*%
%ADD11C,0.616X0.522667*%
%ADD12IconTriangle*%
%ADD13IconStar6*%
%ADD14IconStar4*%
G75*


G04 Drill Drawing Start*
G54D10*
G01X304800Y-3581400D03*
G01X304800Y-4089400D03*
G01X304800Y-3835400D03*
G01X304800Y-4343400D03*
G54D11*
G01X1803400Y-10718800D03*
G01X1981200Y-10718800D03*
G01X2159000Y-10718800D03*
G01X2336800Y-10718800D03*
G01X2514600Y-10718800D03*
G01X2692400Y-10718800D03*
G01X2870200Y-10718800D03*
G54D12*
G01X4495800Y-9169400D03*
G01X4495800Y-8915400D03*
G01X4495800Y-8661400D03*
G01X4495800Y-8407400D03*
G01X4495800Y-8153400D03*
G01X4495800Y-7899400D03*
G01X4495800Y-7645400D03*
G01X4495800Y-7391400D03*
G01X4495800Y-7137400D03*
G01X4495800Y-6883400D03*
G01X4495800Y-6629400D03*
G01X4495800Y-6375400D03*
G54D13*
G01X304800Y-6883400D03*
G01X304800Y-6629400D03*
G01X304800Y-6375400D03*
G01X304800Y-7391400D03*
G01X304800Y-7137400D03*
G01X304800Y-8153400D03*
G01X304800Y-7899400D03*
G01X304800Y-7645400D03*
G01X927600Y-9953400D03*
G01X927600Y-9699400D03*
G01X927600Y-9445400D03*
G01X927600Y-9191400D03*
G01X927600Y-8937400D03*
G01X927600Y-8683400D03*
G01X927600Y-8429400D03*
G01X927600Y-8175400D03*
G01X927600Y-7921400D03*
G01X927600Y-7667400D03*
G01X927600Y-7413400D03*
G01X927600Y-7159400D03*
G01X927600Y-6905400D03*
G01X927600Y-6651400D03*
G01X927600Y-6397400D03*
G01X1181600Y-9953400D03*
G01X1181600Y-9699400D03*
G01X1181600Y-9445400D03*
G01X1181600Y-9191400D03*
G01X1181600Y-8937400D03*
G01X1181600Y-8683400D03*
G01X1181600Y-8429400D03*
G01X1181600Y-8175400D03*
G01X1181600Y-7921400D03*
G01X1181600Y-7667400D03*
G01X1181600Y-7413400D03*
G01X1181600Y-7159400D03*
G01X1181600Y-6905400D03*
G01X1181600Y-6651400D03*
G01X1181600Y-6397400D03*
G01X3720600Y-9956400D03*
G01X3720600Y-9702400D03*
G01X3720600Y-9448400D03*
G01X3720600Y-9194400D03*
G01X3720600Y-8940400D03*
G01X3720600Y-8686400D03*
G01X3720600Y-8432400D03*
G01X3720600Y-8178400D03*
G01X3720600Y-7924400D03*
G01X3720600Y-7670400D03*
G01X3720600Y-7416400D03*
G01X3720600Y-7162400D03*
G01X3720600Y-6908400D03*
G01X3720600Y-6654400D03*
G01X3720600Y-6400400D03*
G01X3974600Y-9956400D03*
G01X3974600Y-9702400D03*
G01X3974600Y-9448400D03*
G01X3974600Y-9194400D03*
G01X3974600Y-8940400D03*
G01X3974600Y-8686400D03*
G01X3974600Y-8432400D03*
G01X3974600Y-8178400D03*
G01X3974600Y-7924400D03*
G01X3974600Y-7670400D03*
G01X3974600Y-7416400D03*
G01X3974600Y-7162400D03*
G01X3974600Y-6908400D03*
G01X3974600Y-6654400D03*
G01X3974600Y-6400400D03*
G01X4066451Y-1663700D03*
G01X4066451Y-1409700D03*
G01X4066451Y-1155700D03*
G01X4066451Y-901700D03*
G01X4066451Y-647700D03*
G01X4320451Y-1663700D03*
G01X4320451Y-1409700D03*
G01X4320451Y-1155700D03*
G01X4320451Y-901700D03*
G01X4320451Y-647700D03*
G01X4495800Y-4114800D03*
G01X4495800Y-3860800D03*
G01X4495800Y-3606800D03*
G01X4495800Y-3352800D03*
G01X4495800Y-3098800D03*
G01X4495800Y-2844800D03*
G01X4495800Y-2590800D03*
G01X4495800Y-2336800D03*
G54D14*
G01X101600Y-2895600D03*
G01X108966Y-241300D03*
G01X134915Y-457200D03*
G01X152400Y-10820400D03*
G01X152400Y-10518543D03*
G01X152400Y-10210800D03*
G01X152400Y-9753600D03*
G01X152400Y-685800D03*
G01X177800Y-9245600D03*
G01X177800Y-8940800D03*
G01X177800Y-8663107D03*
G01X177800Y-2895600D03*
G01X335814Y-10662640D03*
G01X335814Y-10362640D03*
G01X335814Y-10062640D03*
G01X335814Y-9462640D03*
G01X335814Y-9162641D03*
G01X335814Y-8862641D03*
G01X335814Y-8562641D03*
G01X335814Y-8262641D03*
G01X335814Y-6162641D03*
G01X335814Y-5862642D03*
G01X335814Y-5562642D03*
G01X335814Y-5262642D03*
G01X335814Y-4962642D03*
G01X335814Y-4662642D03*
G01X335814Y-3386442D03*
G01X335814Y-3086442D03*
G01X335814Y-2862642D03*
G01X335814Y-2562643D03*
G01X335814Y-2262643D03*
G01X335814Y-1962643D03*
G01X335814Y-1662643D03*
G01X335814Y-1362643D03*
G01X335814Y-1062643D03*
G01X449600Y-4651129D03*
G01X457200Y-3344124D03*
G01X482600Y-10820400D03*
G01X508000Y-3683000D03*
G01X584200Y-6959600D03*
G01X584200Y-3122989D03*
G01X635000Y-330200D03*
G01X635814Y-10662640D03*
G01X635814Y-10062640D03*
G01X635814Y-9462640D03*
G01X635814Y-9162641D03*
G01X635814Y-8862641D03*
G01X635814Y-8562641D03*
G01X635814Y-8262641D03*
G01X635814Y-7962641D03*
G01X635814Y-7662641D03*
G01X635814Y-7362641D03*
G01X635814Y-6462641D03*
G01X635814Y-6162641D03*
G01X635814Y-5862642D03*
G01X635814Y-2862642D03*
G01X635814Y-2562643D03*
G01X635814Y-2262643D03*
G01X635814Y-1962643D03*
G01X635814Y-1662643D03*
G01X635814Y-1362643D03*
G01X635814Y-1062643D03*
G01X635814Y-162643D03*
G01X762000Y-5156200D03*
G01X795339Y-3935319D03*
G01X838200Y-5334000D03*
G01X863600Y-10820400D03*
G01X889000Y-304800D03*
G01X935814Y-10362640D03*
G01X935814Y-6162641D03*
G01X935814Y-2862642D03*
G01X935814Y-2562643D03*
G01X935814Y-2262643D03*
G01X935814Y-1962643D03*
G01X935814Y-1662643D03*
G01X935814Y-1362643D03*
G01X935814Y-1062643D03*
G01X935814Y-162643D03*
G01X1041400Y-787400D03*
G01X1051811Y-5029200D03*
G01X1054211Y-4826000D03*
G01X1092200Y-3911600D03*
G01X1117600Y-5207000D03*
G01X1117600Y-787400D03*
G01X1168400Y-2948605D03*
G01X1185014Y-10611840D03*
G01X1193800Y-76200D03*
G01X1235814Y-10362640D03*
G01X1235814Y-10062640D03*
G01X1235814Y-6162641D03*
G01X1235814Y-4662642D03*
G01X1235814Y-4362642D03*
G01X1235814Y-2262643D03*
G01X1235814Y-1962643D03*
G01X1235814Y-1662643D03*
G01X1235814Y-1362643D03*
G01X1235814Y-1062643D03*
G01X1235814Y-762643D03*
G01X1246068Y-5151806D03*
G01X1255675Y-4077295D03*
G01X1256900Y-5947023D03*
G01X1314075Y-3459655D03*
G01X1316191Y-5151806D03*
G01X1321900Y-5947023D03*
G01X1371600Y-10795000D03*
G01X1386891Y-4673600D03*
G01X1397000Y-7442200D03*
G01X1397000Y-7137400D03*
G01X1422400Y-9194800D03*
G01X1432570Y-2900945D03*
G01X1432570Y-2496145D03*
G01X1447800Y-6985000D03*
G01X1447800Y-5969000D03*
G01X1447800Y-952500D03*
G01X1447800Y-876300D03*
G01X1447800Y-800100D03*
G01X1493863Y-3385248D03*
G01X1498600Y-4165600D03*
G01X1535814Y-8862641D03*
G01X1535814Y-8262641D03*
G01X1535814Y-7962641D03*
G01X1535814Y-5562642D03*
G01X1535814Y-4662642D03*
G01X1535814Y-4362642D03*
G01X1535814Y-4062642D03*
G01X1535814Y-3762642D03*
G01X1535814Y-2562643D03*
G01X1535814Y-2262643D03*
G01X1535814Y-1962643D03*
G01X1535814Y-1662643D03*
G01X1535814Y-1362643D03*
G01X1535814Y-1062643D03*
G01X1542241Y-3069162D03*
G01X1581899Y-5946502D03*
G01X1583827Y-10497286D03*
G01X1583827Y-10197286D03*
G01X1583827Y-9897286D03*
G01X1583827Y-9597286D03*
G01X1597623Y-419100D03*
G01X1676400Y-419100D03*
G01X1701800Y-76200D03*
G01X1709123Y-5113754D03*
G01X1752600Y-419100D03*
G01X1776900Y-5944679D03*
G01X1835813Y-8562641D03*
G01X1835813Y-8262641D03*
G01X1835813Y-7962641D03*
G01X1835813Y-7662641D03*
G01X1835813Y-7362641D03*
G01X1835813Y-7062641D03*
G01X1835813Y-6762641D03*
G01X1835813Y-6462641D03*
G01X1835813Y-5562642D03*
G01X1835813Y-4662642D03*
G01X1835813Y-4362642D03*
G01X1835813Y-4062642D03*
G01X1835813Y-3762642D03*
G01X1835813Y-2862642D03*
G01X1835813Y-2562643D03*
G01X1835813Y-2262643D03*
G01X1835813Y-1662643D03*
G01X1835813Y-1362643D03*
G01X1835813Y-1062643D03*
G01X1854200Y-9448800D03*
G01X1859213Y-8983986D03*
G01X1905000Y-10363200D03*
G01X1905000Y-9880600D03*
G01X1905000Y-6121400D03*
G01X1955800Y-758908D03*
G01X1955800Y-685800D03*
G01X1979878Y-3169008D03*
G01X2000394Y-1628452D03*
G01X2000394Y-1555344D03*
G01X2032000Y-4909040D03*
G01X2032000Y-757733D03*
G01X2032000Y-685800D03*
G01X2076594Y-1627276D03*
G01X2076594Y-1555344D03*
G01X2081478Y-3169008D03*
G01X2108200Y-9220200D03*
G01X2135813Y-8262641D03*
G01X2135813Y-7962641D03*
G01X2135813Y-7662641D03*
G01X2135813Y-7362641D03*
G01X2135813Y-7062641D03*
G01X2135813Y-6762641D03*
G01X2135813Y-6462641D03*
G01X2135813Y-6162641D03*
G01X2135813Y-5862642D03*
G01X2135813Y-4962642D03*
G01X2135813Y-4662642D03*
G01X2135813Y-4362642D03*
G01X2135813Y-4062642D03*
G01X2135813Y-3762642D03*
G01X2135813Y-3462642D03*
G01X2135813Y-2862642D03*
G01X2135813Y-2562643D03*
G01X2135813Y-2262643D03*
G01X2135813Y-1362643D03*
G01X2135813Y-462643D03*
G01X2159000Y-10363200D03*
G01X2159000Y-10058400D03*
G01X2159000Y-9753600D03*
G01X2159213Y-8683986D03*
G01X2209800Y-76200D03*
G01X2231779Y-6019800D03*
G01X2235200Y-4910391D03*
G01X2235200Y-939800D03*
G01X2260600Y-10845800D03*
G01X2336800Y-5232400D03*
G01X2354189Y-5689599D03*
G01X2354972Y-5461000D03*
G01X2362200Y-3606800D03*
G01X2384787Y-3041302D03*
G01X2387600Y-8966200D03*
G01X2432488Y-2070101D03*
G01X2435813Y-7962641D03*
G01X2435813Y-7662641D03*
G01X2435813Y-7362641D03*
G01X2435813Y-7062641D03*
G01X2435813Y-6762641D03*
G01X2435813Y-6462641D03*
G01X2435813Y-6162641D03*
G01X2435813Y-5862642D03*
G01X2435813Y-5562642D03*
G01X2435813Y-5262642D03*
G01X2435813Y-4962642D03*
G01X2435813Y-4662642D03*
G01X2435813Y-4362642D03*
G01X2435813Y-4062642D03*
G01X2435813Y-2262643D03*
G01X2435813Y-1362643D03*
G01X2435813Y-162643D03*
G01X2438400Y-10566400D03*
G01X2440600Y-9998408D03*
G01X2459213Y-8383986D03*
G01X2463800Y-9702800D03*
G01X2487408Y-215900D03*
G01X2540000Y-3606800D03*
G01X2590800Y-8737600D03*
G01X2590801Y-5257611D03*
G01X2596149Y-2920294D03*
G01X2596149Y-2513894D03*
G01X2603500Y-4146444D03*
G01X2616200Y-457200D03*
G01X2639608Y-3377494D03*
G01X2641600Y-10845800D03*
G01X2657613Y-8033186D03*
G01X2659613Y-7662641D03*
G01X2675475Y-3069568D03*
G01X2685314Y-9750654D03*
G01X2685314Y-9450654D03*
G01X2717334Y-1931884D03*
G01X2717800Y-2184400D03*
G01X2718087Y-1680452D03*
G01X2735813Y-10362640D03*
G01X2735813Y-7362641D03*
G01X2735813Y-7062641D03*
G01X2735813Y-6762641D03*
G01X2735813Y-6462641D03*
G01X2735813Y-6162641D03*
G01X2735813Y-5862642D03*
G01X2735813Y-5262642D03*
G01X2735813Y-3762642D03*
G01X2735813Y-2862642D03*
G01X2735813Y-2562643D03*
G01X2735813Y-1362643D03*
G01X2735813Y-1062643D03*
G01X2748086Y-4018894D03*
G01X2768282Y-98265D03*
G01X2771718Y-366858D03*
G01X2772500Y-610390D03*
G01X2815083Y-1680452D03*
G01X2819400Y-2184400D03*
G01X2819400Y-1933903D03*
G01X2844800Y-8483600D03*
G01X2863646Y-98265D03*
G01X2866746Y-615721D03*
G01X2867082Y-366858D03*
G01X2870200Y-3759560D03*
G01X2888213Y-5664242D03*
G01X2895599Y-4879777D03*
G01X2895600Y-5301760D03*
G01X2921000Y-9093200D03*
G01X3026689Y-6502400D03*
G01X3031013Y-7388041D03*
G01X3035813Y-10662640D03*
G01X3035813Y-10362640D03*
G01X3035813Y-10062640D03*
G01X3035813Y-9762640D03*
G01X3035813Y-9462640D03*
G01X3035813Y-4362642D03*
G01X3035813Y-4062642D03*
G01X3035813Y-3762642D03*
G01X3035813Y-2862642D03*
G01X3035813Y-2562643D03*
G01X3035813Y-2262643D03*
G01X3035813Y-1662643D03*
G01X3059213Y-7783986D03*
G01X3073400Y-8255000D03*
G01X3098800Y-4875967D03*
G01X3098800Y-3175000D03*
G01X3112599Y-4594900D03*
G01X3149600Y-8432800D03*
G01X3149600Y-1143000D03*
G01X3200400Y-8534400D03*
G01X3200400Y-3175000D03*
G01X3225800Y-6705600D03*
G01X3225800Y-4291727D03*
G01X3225800Y-3882462D03*
G01X3225800Y-1524000D03*
G01X3276600Y-10845800D03*
G01X3302000Y-8712200D03*
G01X3302000Y-8610600D03*
G01X3302000Y-8280400D03*
G01X3302000Y-4878680D03*
G01X3327400Y-8407400D03*
G01X3335813Y-10362640D03*
G01X3335813Y-10062640D03*
G01X3335813Y-9762640D03*
G01X3335813Y-9462640D03*
G01X3335813Y-9162641D03*
G01X3335813Y-6762641D03*
G01X3335813Y-6462641D03*
G01X3335813Y-6162641D03*
G01X3335813Y-5862642D03*
G01X3335813Y-3762642D03*
G01X3335813Y-3462642D03*
G01X3335813Y-3162642D03*
G01X3335813Y-2862642D03*
G01X3335813Y-2562643D03*
G01X3335813Y-2262643D03*
G01X3335813Y-462643D03*
G01X3335813Y-162643D03*
G01X3358057Y-7228290D03*
G01X3403600Y-8737600D03*
G01X3403600Y-8509000D03*
G01X3412013Y-7037241D03*
G01X3503709Y-3047294D03*
G01X3505200Y-4879778D03*
G01X3530600Y-8610600D03*
G01X3548400Y-7747000D03*
G01X3556000Y-8229600D03*
G01X3556000Y-8051800D03*
G01X3556000Y-7569200D03*
G01X3581400Y-5461000D03*
G01X3606800Y-10845800D03*
G01X3606800Y-5207000D03*
G01X3610413Y-10611840D03*
G01X3635813Y-10062640D03*
G01X3635813Y-6162641D03*
G01X3635813Y-5862642D03*
G01X3635813Y-3762642D03*
G01X3635813Y-3462642D03*
G01X3635813Y-3162642D03*
G01X3635813Y-2862642D03*
G01X3635813Y-2562643D03*
G01X3635813Y-2262643D03*
G01X3635813Y-1662643D03*
G01X3635813Y-1062643D03*
G01X3635813Y-762643D03*
G01X3657600Y-76200D03*
G01X3753816Y-4240492D03*
G01X3784600Y-4470400D03*
G01X3935813Y-10662640D03*
G01X3935813Y-10362640D03*
G01X3935813Y-6162641D03*
G01X3935813Y-5862642D03*
G01X3935813Y-5562642D03*
G01X3935813Y-5262642D03*
G01X3935813Y-4962642D03*
G01X3935813Y-4062642D03*
G01X3935813Y-3762642D03*
G01X3935813Y-3462642D03*
G01X3935813Y-3162642D03*
G01X3935813Y-2862642D03*
G01X3935813Y-2562643D03*
G01X3935813Y-1362643D03*
G01X3935813Y-1062643D03*
G01X4013200Y-76200D03*
G01X4089400Y-8051800D03*
G01X4099814Y-294640D03*
G01X4108813Y-6310241D03*
G01X4114600Y-7008726D03*
G01X4151600Y-7646876D03*
G01X4213205Y-4346595D03*
G01X4216400Y-3865517D03*
G01X4216400Y-3302000D03*
G01X4216400Y-2819400D03*
G01X4235813Y-10662640D03*
G01X4235813Y-10362640D03*
G01X4235813Y-10062640D03*
G01X4235813Y-9762640D03*
G01X4235813Y-9462640D03*
G01X4235813Y-9162641D03*
G01X4235813Y-8862641D03*
G01X4235813Y-6762641D03*
G01X4235813Y-6162641D03*
G01X4235813Y-5862642D03*
G01X4235813Y-5562642D03*
G01X4235813Y-5262642D03*
G01X4235813Y-2262643D03*
G01X4235813Y-1062643D03*
G01X4241800Y-7008726D03*
G01X4241800Y-5184221D03*
G01X4368800Y-76200D03*
G01X4535813Y-10662640D03*
G01X4535813Y-10362640D03*
G01X4535813Y-10062640D03*
G01X4535813Y-9762640D03*
G01X4535813Y-9462640D03*
G01X4535813Y-6162641D03*
G01X4535813Y-5862642D03*
G01X4535813Y-5562642D03*
G01X4535813Y-5262642D03*
G01X4535813Y-4962642D03*
G01X4535813Y-4662642D03*
G01X4535813Y-3462642D03*
G01X4535813Y-1362643D03*
G01X4535813Y-1062643D03*
G01X4648200Y-1803400D03*
G01X4648200Y-355600D03*
G01X4699000Y-7518400D03*
G01X4699000Y-7239000D03*
G04 Drill Drawing End*

M02*

