G04 Layer: TopSilkscreenLayer*
G04 EasyEDA Pro v3.2.148, 2026-06-11 21:35:48*
G04 Gerber Generator version 0.3*
G04 Scale: 100 percent, Rotated: No, Reflected: No*
G04 Dimensions in millimeters*
G04 Leading zeros omitted, absolute positions, 4 integers and 5 decimals*
G04 Generated by one-click*
G04 Object Configs: Pad,Via,Track,Text,Image,Dimension,BoardOutline,BoardCutout,CopperFilled,SolidRegion,FPCStiffener,Line,PlaneZone,ComponentProperty,ComponentSilkscreen,TearDrop*
G04 Layer Configs: 1,2,3,4,5,6,7,8,9,10,11,13,14,71,56*
G04 Copper Areas: 0*
%FSLAX45Y45*%
%MOMM*%
%ADD10C,0.254*%
%ADD11C,0.9124*%
G75*


G04 Text Start*
G36*
G01X785900Y-288204D02*
G01X785900Y-246992D01*
G01X805294Y-246992D01*
G01X805597Y-269719D01*
G01X822264Y-270022D01*
G01X841355Y-269719D01*
G01X845597Y-269113D01*
G01X848628Y-268507D01*
G01X851961Y-267598D01*
G01X854688Y-266386D01*
G01X856507Y-265477D01*
G01X858022Y-264265D01*
G01X859537Y-262750D01*
G01X861052Y-260931D01*
G01X862264Y-259113D01*
G01X863476Y-256689D01*
G01X864385Y-253962D01*
G01X864688Y-248507D01*
G01X864385Y-243052D01*
G01X863779Y-240325D01*
G01X862870Y-236992D01*
G01X861658Y-234567D01*
G01X860446Y-232446D01*
G01X858931Y-230628D01*
G01X857416Y-229113D01*
G01X855597Y-227598D01*
G01X853173Y-226386D01*
G01X849840Y-225477D01*
G01X846810Y-224871D01*
G01X825597Y-224567D01*
G01X805294Y-224567D01*
G01X805294Y-246992D01*
G01X805294Y-246992D01*
G01X785900Y-246992D01*
G01X785900Y-185780D01*
G01X805294Y-185780D01*
G01X805597Y-206689D01*
G01X821961Y-206992D01*
G01X840749Y-206689D01*
G01X846204Y-206083D01*
G01X850749Y-205174D01*
G01X854082Y-203658D01*
G01X856204Y-202143D01*
G01X857719Y-200931D01*
G01X859234Y-199416D01*
G01X860446Y-197598D01*
G01X861658Y-194871D01*
G01X862567Y-192143D01*
G01X862870Y-187901D01*
G01X862567Y-181840D01*
G01X861658Y-177901D01*
G01X860446Y-175174D01*
G01X859234Y-173052D01*
G01X858022Y-171537D01*
G01X856507Y-170022D01*
G01X854991Y-168810D01*
G01X853173Y-167901D01*
G01X851052Y-166992D01*
G01X848325Y-166083D01*
G01X845597Y-165477D01*
G01X824991Y-165174D01*
G01X805294Y-165174D01*
G01X805294Y-185780D01*
G01X805294Y-185780D01*
G01X785900Y-185780D01*
G01X785900Y-146386D01*
G01X814991Y-146386D01*
G01X844991Y-146689D01*
G01X847416Y-146992D01*
G01X851052Y-147295D01*
G01X857113Y-148507D01*
G01X860446Y-149416D01*
G01X863173Y-150628D01*
G01X865597Y-151840D01*
G01X867719Y-153053D01*
G01X869537Y-154265D01*
G01X871052Y-155477D01*
G01X874082Y-158507D01*
G01X876507Y-161537D01*
G01X878022Y-163659D01*
G01X879234Y-166083D01*
G01X880143Y-168204D01*
G01X881052Y-170628D01*
G01X881961Y-173659D01*
G01X882567Y-176386D01*
G01X882870Y-182143D01*
G01X882567Y-189719D01*
G01X881658Y-194265D01*
G01X880446Y-197598D01*
G01X879234Y-200325D01*
G01X877719Y-202749D01*
G01X876507Y-204871D01*
G01X875294Y-206386D01*
G01X873779Y-207901D01*
G01X870749Y-210325D01*
G01X868628Y-211840D01*
G01X866204Y-213052D01*
G01X863779Y-213961D01*
G01X861052Y-214871D01*
G01X860294Y-215477D01*
G01X860446Y-216083D01*
G01X862870Y-217295D01*
G01X866204Y-218507D01*
G01X869234Y-220022D01*
G01X871961Y-221840D01*
G01X874082Y-223355D01*
G01X876203Y-225477D01*
G01X878325Y-228507D01*
G01X879840Y-230628D01*
G01X881052Y-232749D01*
G01X882264Y-235477D01*
G01X883476Y-238810D01*
G01X884385Y-241840D01*
G01X884688Y-249113D01*
G01X884385Y-256386D01*
G01X883779Y-259719D01*
G01X882870Y-263356D01*
G01X880446Y-268810D01*
G01X879234Y-270931D01*
G01X878022Y-272750D01*
G01X875597Y-275780D01*
G01X871052Y-280325D01*
G01X868931Y-281840D01*
G01X866204Y-283356D01*
G01X863779Y-284568D01*
G01X861052Y-285780D01*
G01X858325Y-286689D01*
G01X852870Y-287901D01*
G01X818931Y-288204D01*
G01X785900Y-288204D01*
G37*
G36*
G01X49536Y-290022D02*
G01X42870Y-289719D01*
G01X40748Y-289113D01*
G01X38324Y-288810D01*
G01X35597Y-288204D01*
G01X32567Y-286992D01*
G01X29233Y-285780D01*
G01X26506Y-284568D01*
G01X24082Y-283356D01*
G01X21658Y-281840D01*
G01X19536Y-280628D01*
G01X18021Y-279416D01*
G01X13476Y-274871D01*
G01X11052Y-271840D01*
G01X9536Y-270022D01*
G01X8021Y-267598D01*
G01X6506Y-264871D01*
G01X5294Y-262447D01*
G01X4082Y-259719D01*
G01X1961Y-253356D01*
G01X749Y-246083D01*
G01X446Y-219416D01*
G01X749Y-190931D01*
G01X1355Y-186689D01*
G01X1961Y-183659D01*
G01X2567Y-181234D01*
G01X3173Y-178507D01*
G01X4082Y-175780D01*
G01X6506Y-170325D01*
G01X7718Y-168204D01*
G01X9233Y-165780D01*
G01X10749Y-163659D01*
G01X13173Y-160628D01*
G01X18324Y-155477D01*
G01X20748Y-153659D01*
G01X22567Y-152446D01*
G01X26809Y-150022D01*
G01X29233Y-148810D01*
G01X32567Y-147598D01*
G01X35294Y-146689D01*
G01X41961Y-145477D01*
G01X47718Y-145174D01*
G01X55294Y-145477D01*
G01X58930Y-146083D01*
G01X61657Y-146689D01*
G01X65294Y-147598D01*
G01X68324Y-148810D01*
G01X71051Y-150022D01*
G01X73476Y-151234D01*
G01X75597Y-152446D01*
G01X79233Y-154871D01*
G01X81051Y-156386D01*
G01X87718Y-163053D01*
G01X89839Y-166083D01*
G01X91658Y-168810D01*
G01X93173Y-171537D01*
G01X94385Y-173962D01*
G01X95294Y-176083D01*
G01X96203Y-178507D01*
G01X97112Y-181234D01*
G01X98021Y-184871D01*
G01X98627Y-186992D01*
G01X78021Y-186992D01*
G01X77415Y-185174D01*
G01X76203Y-182446D01*
G01X74991Y-180022D01*
G01X73173Y-176992D01*
G01X71354Y-174568D01*
G01X68324Y-171537D01*
G01X66203Y-169719D01*
G01X63779Y-168204D01*
G01X61354Y-166992D01*
G01X58021Y-165780D01*
G01X55294Y-164871D01*
G01X50748Y-164568D01*
G01X44991Y-164871D01*
G01X41051Y-165780D01*
G01X37718Y-166992D01*
G01X35294Y-168204D01*
G01X33173Y-169416D01*
G01X31355Y-170931D01*
G01X27718Y-174568D01*
G01X25597Y-177598D01*
G01X24082Y-180628D01*
G01X22870Y-183355D01*
G01X21961Y-186083D01*
G01X21355Y-188507D01*
G01X20748Y-193355D01*
G01X20445Y-216386D01*
G01X20748Y-239416D01*
G01X21052Y-241840D01*
G01X21355Y-244871D01*
G01X21961Y-247295D01*
G01X22567Y-250022D01*
G01X23476Y-252749D01*
G01X24688Y-255174D01*
G01X26203Y-257901D01*
G01X27718Y-260325D01*
G01X29233Y-262143D01*
G01X30748Y-263659D01*
G01X32870Y-265477D01*
G01X35900Y-267295D01*
G01X38627Y-268810D01*
G01X41658Y-269719D01*
G01X44385Y-270325D01*
G01X48021Y-270628D01*
G01X51658Y-270325D01*
G01X55294Y-269719D01*
G01X59233Y-268810D01*
G01X61961Y-267598D01*
G01X64082Y-266386D01*
G01X65900Y-265477D01*
G01X67718Y-264265D01*
G01X69233Y-262750D01*
G01X71051Y-261234D01*
G01X73173Y-258810D01*
G01X74991Y-255780D01*
G01X76506Y-252749D01*
G01X77718Y-249416D01*
G01X78021Y-247598D01*
G01X98627Y-247598D01*
G01X98324Y-248810D01*
G01X97415Y-252143D01*
G01X96203Y-256083D01*
G01X94991Y-259113D01*
G01X93779Y-261840D01*
G01X92567Y-264265D01*
G01X91355Y-266386D01*
G01X89839Y-268810D01*
G01X87718Y-271537D01*
G01X85900Y-273962D01*
G01X81355Y-278507D01*
G01X76809Y-282143D01*
G01X74688Y-283356D01*
G01X68627Y-286386D01*
G01X65294Y-287598D01*
G01X62567Y-288507D01*
G01X55900Y-289719D01*
G01X49536Y-290022D01*
G37*
G36*
G01X158627Y-288204D02*
G01X158021Y-286386D01*
G01X156809Y-283356D01*
G01X153173Y-272446D01*
G01X151355Y-266386D01*
G01X143173Y-241840D01*
G01X142264Y-238507D01*
G01X134991Y-216689D01*
G01X132567Y-208810D01*
G01X124385Y-184265D01*
G01X123779Y-181840D01*
G01X117415Y-162749D01*
G01X115597Y-156689D01*
G01X113779Y-151234D01*
G01X112870Y-148204D01*
G01X112567Y-146386D01*
G01X123173Y-146386D01*
G01X131203Y-146613D01*
G01X134082Y-147295D01*
G01X137112Y-156386D01*
G01X137718Y-158810D01*
G01X138627Y-161537D01*
G01X142264Y-173659D01*
G01X143173Y-176386D01*
G01X144082Y-179719D01*
G01X146203Y-186083D01*
G01X146809Y-188507D01*
G01X147718Y-191234D01*
G01X151355Y-203355D01*
G01X152264Y-206083D01*
G01X153173Y-209416D01*
G01X155294Y-215780D01*
G01X155900Y-218204D01*
G01X156809Y-220931D01*
G01X160445Y-233052D01*
G01X161355Y-235780D01*
G01X162264Y-239113D01*
G01X164385Y-245477D01*
G01X164991Y-247901D01*
G01X165900Y-250628D01*
G01X166809Y-253659D01*
G01X167718Y-255780D01*
G01X168324Y-255704D01*
G01X168930Y-254871D01*
G01X169839Y-252749D01*
G01X170445Y-250325D01*
G01X171354Y-247598D01*
G01X173173Y-241537D01*
G01X174082Y-238810D01*
G01X174991Y-235477D01*
G01X184688Y-203961D01*
G01X185597Y-201234D01*
G01X186203Y-198810D01*
G01X187112Y-196083D01*
G01X190749Y-183962D01*
G01X191658Y-181234D01*
G01X192567Y-177901D01*
G01X194688Y-171537D01*
G01X195294Y-169113D01*
G01X196203Y-166386D01*
G01X199840Y-154265D01*
G01X200749Y-151537D01*
G01X201658Y-148204D01*
G01X202264Y-146386D01*
G01X212567Y-146386D01*
G01X223173Y-146992D01*
G01X222870Y-148810D01*
G01X221052Y-154265D01*
G01X219233Y-160325D01*
G01X211961Y-182143D01*
G01X210143Y-188204D01*
G01X202870Y-210022D01*
G01X201052Y-216083D01*
G01X193779Y-237901D01*
G01X191961Y-243962D01*
G01X183779Y-268507D01*
G01X182870Y-271840D01*
G01X177415Y-288204D01*
G01X158627Y-288204D01*
G37*
G36*
G01X239233Y-228810D02*
G01X239233Y-210022D01*
G01X305294Y-210022D01*
G01X305294Y-228810D01*
G01X239233Y-228810D01*
G37*
G36*
G01X384385Y-290022D02*
G01X378021Y-289719D01*
G01X375294Y-289113D01*
G01X371658Y-288507D01*
G01X368324Y-287598D01*
G01X364688Y-286386D01*
G01X361961Y-285174D01*
G01X357112Y-282749D01*
G01X354688Y-281234D01*
G01X352567Y-279719D01*
G01X351052Y-278507D01*
G01X346506Y-273962D01*
G01X344082Y-270931D01*
G01X341052Y-266083D01*
G01X339840Y-263659D01*
G01X338627Y-260931D01*
G01X337415Y-257901D01*
G01X336506Y-255174D01*
G01X335294Y-249719D01*
G01X334688Y-245477D01*
G01X334385Y-218507D01*
G01X334416Y-215780D01*
G01X354991Y-215780D01*
G01X355294Y-244871D01*
G01X356203Y-249416D01*
G01X357415Y-252749D01*
G01X358627Y-255174D01*
G01X359536Y-257295D01*
G01X360749Y-259113D01*
G01X364385Y-263356D01*
G01X366809Y-265174D01*
G01X369839Y-266992D01*
G01X372264Y-268204D01*
G01X374688Y-269113D01*
G01X377112Y-269719D01*
G01X383173Y-270022D01*
G01X383173Y-270022D01*
G01X389839Y-269719D01*
G01X392870Y-269113D01*
G01X395597Y-268204D01*
G01X398324Y-266992D01*
G01X400749Y-265780D01*
G01X402567Y-264568D01*
G01X407112Y-260022D01*
G01X408324Y-258507D01*
G01X409537Y-256386D01*
G01X410749Y-253962D01*
G01X411961Y-250931D01*
G01X412870Y-247901D01*
G01X413476Y-243658D01*
G01X413779Y-218507D01*
G01X413476Y-192749D01*
G01X412870Y-188507D01*
G01X411961Y-184568D01*
G01X410749Y-181537D01*
G01X409234Y-178204D01*
G01X406203Y-173962D01*
G01X404385Y-171840D01*
G01X402870Y-170628D01*
G01X401052Y-169416D01*
G01X398627Y-167901D01*
G01X395597Y-166386D01*
G01X392870Y-165477D01*
G01X388627Y-164871D01*
G01X385900Y-164568D01*
G01X381355Y-164871D01*
G01X377718Y-165477D01*
G01X374991Y-166083D01*
G01X372264Y-166992D01*
G01X369839Y-168204D01*
G01X367718Y-169416D01*
G01X365900Y-170628D01*
G01X364082Y-172143D01*
G01X362567Y-173659D01*
G01X360749Y-175780D01*
G01X358930Y-178507D01*
G01X357718Y-180931D01*
G01X356809Y-183052D01*
G01X355900Y-185780D01*
G01X355294Y-188507D01*
G01X354991Y-215780D01*
G01X334416Y-215780D01*
G01X334688Y-191537D01*
G01X335597Y-185174D01*
G01X336203Y-182143D01*
G01X337112Y-179416D01*
G01X337718Y-176992D01*
G01X338627Y-174568D01*
G01X340446Y-170325D01*
G01X341658Y-168204D01*
G01X343173Y-165780D01*
G01X344385Y-163659D01*
G01X345597Y-162143D01*
G01X352264Y-155477D01*
G01X355294Y-153356D01*
G01X358021Y-151537D01*
G01X360749Y-150022D01*
G01X363476Y-148810D01*
G01X368930Y-146992D01*
G01X372870Y-146083D01*
G01X376506Y-145477D01*
G01X383173Y-145174D01*
G01X389839Y-145477D01*
G01X396203Y-146386D01*
G01X399233Y-146992D01*
G01X402870Y-148204D01*
G01X405597Y-149416D01*
G01X410446Y-151840D01*
G01X412870Y-153356D01*
G01X414991Y-154871D01*
G01X416809Y-156083D01*
G01X418628Y-157598D01*
G01X421658Y-160628D01*
G01X424082Y-163659D01*
G01X425294Y-165477D01*
G01X427718Y-169719D01*
G01X430143Y-174568D01*
G01X431052Y-177295D01*
G01X431961Y-180325D01*
G01X432870Y-183962D01*
G01X433476Y-187295D01*
G01X434082Y-196386D01*
G01X434385Y-216689D01*
G01X434082Y-236992D01*
G01X433779Y-240628D01*
G01X433476Y-246083D01*
G01X432870Y-249719D01*
G01X432264Y-252749D01*
G01X431355Y-256083D01*
G01X430446Y-258810D01*
G01X429537Y-261234D01*
G01X426809Y-266689D01*
G01X425294Y-269113D01*
G01X424082Y-271234D01*
G01X422567Y-273053D01*
G01X420749Y-275174D01*
G01X418931Y-276992D01*
G01X417415Y-278204D01*
G01X415900Y-279719D01*
G01X414385Y-280931D01*
G01X410749Y-283356D01*
G01X408627Y-284568D01*
G01X406203Y-285780D01*
G01X403779Y-286689D01*
G01X401052Y-287598D01*
G01X398021Y-288507D01*
G01X395294Y-289113D01*
G01X391052Y-289719D01*
G01X384385Y-290022D01*
G37*
G36*
G01X510446Y-290022D02*
G01X504991Y-289719D01*
G01X503173Y-289416D01*
G01X500143Y-289113D01*
G01X497718Y-288507D01*
G01X495597Y-288204D01*
G01X493173Y-287598D01*
G01X490446Y-286689D01*
G01X488021Y-285780D01*
G01X483173Y-283356D01*
G01X480749Y-281840D01*
G01X478627Y-280325D01*
G01X477112Y-279416D01*
G01X475597Y-278204D01*
G01X472567Y-275174D01*
G01X470749Y-272750D01*
G01X468627Y-269719D01*
G01X467112Y-267295D01*
G01X465900Y-264871D01*
G01X464688Y-262143D01*
G01X462870Y-256689D01*
G01X461961Y-253356D01*
G01X461355Y-250325D01*
G01X460749Y-244265D01*
G01X460446Y-194871D01*
G01X460446Y-146386D01*
G01X480446Y-146386D01*
G01X480446Y-193355D01*
G01X480749Y-243052D01*
G01X481355Y-246689D01*
G01X481961Y-249416D01*
G01X482870Y-252446D01*
G01X484082Y-255174D01*
G01X486203Y-259416D01*
G01X487415Y-260931D01*
G01X491052Y-264568D01*
G01X493779Y-266386D01*
G01X495900Y-267598D01*
G01X498930Y-268810D01*
G01X501961Y-269719D01*
G01X508628Y-270325D01*
G01X510143Y-270325D01*
G01X512870Y-270022D01*
G01X517112Y-269719D01*
G01X521052Y-268810D01*
G01X524385Y-267598D01*
G01X527112Y-266083D01*
G01X529234Y-264871D01*
G01X530749Y-263659D01*
G01X532264Y-262143D01*
G01X534082Y-260022D01*
G01X535597Y-257901D01*
G01X536809Y-255780D01*
G01X538022Y-253053D01*
G01X538931Y-250325D01*
G01X539537Y-247901D01*
G01X540143Y-243658D01*
G01X540446Y-194568D01*
G01X540446Y-146386D01*
G01X560446Y-146386D01*
G01X560446Y-193052D01*
G01X560143Y-240628D01*
G01X559840Y-243658D01*
G01X559537Y-247295D01*
G01X558931Y-250931D01*
G01X558325Y-253962D01*
G01X557718Y-256689D01*
G01X556809Y-259719D01*
G01X555900Y-262143D01*
G01X554991Y-264265D01*
G01X553779Y-266689D01*
G01X552264Y-269416D01*
G01X550749Y-271840D01*
G01X549234Y-273659D01*
G01X543173Y-279719D01*
G01X541658Y-280931D01*
G01X538022Y-283356D01*
G01X535900Y-284568D01*
G01X533173Y-285780D01*
G01X530143Y-286992D01*
G01X527416Y-287901D01*
G01X521961Y-289113D01*
G01X516506Y-289719D01*
G01X510446Y-290022D01*
G37*
G36*
G01X614385Y-288204D02*
G01X614385Y-165174D01*
G01X573779Y-165174D01*
G01X573779Y-146386D01*
G01X674385Y-146386D01*
G01X674385Y-165174D01*
G01X633779Y-165174D01*
G01X633779Y-288204D01*
G01X614385Y-288204D01*
G37*
G36*
G01X687718Y-228810D02*
G01X687718Y-210022D01*
G01X753173Y-210022D01*
G01X753173Y-228810D01*
G01X687718Y-228810D01*
G37*
G36*
G01X1059139Y-288053D02*
G01X1056639Y-287598D01*
G01X1057549Y-285477D01*
G01X1058761Y-282143D01*
G01X1059973Y-279113D01*
G01X1060882Y-276386D01*
G01X1064518Y-266689D01*
G01X1065427Y-263962D01*
G01X1066639Y-260931D01*
G01X1071488Y-247598D01*
G01X1072700Y-244568D01*
G01X1073609Y-241840D01*
G01X1074973Y-238204D01*
G01X1095427Y-238204D01*
G01X1116942Y-238507D01*
G01X1138457Y-237901D01*
G01X1138154Y-235477D01*
G01X1133306Y-220931D01*
G01X1132094Y-217901D01*
G01X1126639Y-201537D01*
G01X1125427Y-198507D01*
G01X1120579Y-183962D01*
G01X1118154Y-177295D01*
G01X1117548Y-176007D01*
G01X1116942Y-175780D01*
G01X1115730Y-177901D01*
G01X1114518Y-180931D01*
G01X1109064Y-197295D01*
G01X1107851Y-200325D01*
G01X1103003Y-214871D01*
G01X1100579Y-221537D01*
G01X1095730Y-236083D01*
G01X1095730Y-236083D01*
G01X1095427Y-238204D01*
G01X1074973Y-238204D01*
G01X1079064Y-227295D01*
G01X1079973Y-224567D01*
G01X1081185Y-221537D01*
G01X1086033Y-208204D01*
G01X1087245Y-205174D01*
G01X1088155Y-202446D01*
G01X1091791Y-192749D01*
G01X1092700Y-190022D01*
G01X1093912Y-186992D01*
G01X1098761Y-173659D01*
G01X1099973Y-170628D01*
G01X1100882Y-167901D01*
G01X1104518Y-158204D01*
G01X1105427Y-155477D01*
G01X1107245Y-150628D01*
G01X1108155Y-147901D01*
G01X1108458Y-146386D01*
G01X1116639Y-146386D01*
G01X1123003Y-146689D01*
G01X1125730Y-147598D01*
G01X1127245Y-150628D01*
G01X1132094Y-163962D01*
G01X1133306Y-166992D01*
G01X1134215Y-169719D01*
G01X1137851Y-179416D01*
G01X1138760Y-182143D01*
G01X1139973Y-185174D01*
G01X1142397Y-191840D01*
G01X1143609Y-194871D01*
G01X1144518Y-197598D01*
G01X1148155Y-207295D01*
G01X1149064Y-210022D01*
G01X1150276Y-213052D01*
G01X1155124Y-226386D01*
G01X1156336Y-229416D01*
G01X1157246Y-232143D01*
G01X1160882Y-241840D01*
G01X1161791Y-244568D01*
G01X1163003Y-247598D01*
G01X1167852Y-260931D01*
G01X1169064Y-263962D01*
G01X1169973Y-266689D01*
G01X1173609Y-276386D01*
G01X1174518Y-279113D01*
G01X1176336Y-283962D01*
G01X1177246Y-286689D01*
G01X1177549Y-288204D01*
G01X1167246Y-288204D01*
G01X1159367Y-287977D01*
G01X1156336Y-287295D01*
G01X1155124Y-284568D01*
G01X1153912Y-280931D01*
G01X1152700Y-277901D01*
G01X1146336Y-258810D01*
G01X1146033Y-257295D01*
G01X1117851Y-257295D01*
G01X1088761Y-257901D01*
G01X1087548Y-259719D01*
G01X1086639Y-262143D01*
G01X1082094Y-275780D01*
G01X1080276Y-280628D01*
G01X1079367Y-283356D01*
G01X1078458Y-286386D01*
G01X1078155Y-288204D01*
G01X1067246Y-288204D01*
G01X1059139Y-288053D01*
G37*
G36*
G01X1740579Y-288204D02*
G01X1740579Y-259416D01*
G01X1740882Y-228810D01*
G01X1740882Y-219719D01*
G01X1740579Y-215477D01*
G01X1740882Y-210931D01*
G01X1740882Y-209113D01*
G01X1740579Y-206992D01*
G01X1740882Y-204871D01*
G01X1740882Y-203355D01*
G01X1740579Y-196386D01*
G01X1740882Y-189113D01*
G01X1740882Y-187598D01*
G01X1740857Y-186992D01*
G01X1760579Y-186992D01*
G01X1760882Y-209113D01*
G01X1780276Y-209416D01*
G01X1801488Y-209113D01*
G01X1804822Y-208204D01*
G01X1807246Y-207295D01*
G01X1809064Y-206083D01*
G01X1810579Y-204871D01*
G01X1812397Y-203052D01*
G01X1814216Y-200325D01*
G01X1815731Y-197295D01*
G01X1816640Y-194568D01*
G01X1817246Y-189113D01*
G01X1817246Y-186689D01*
G01X1816640Y-182446D01*
G01X1815731Y-178507D01*
G01X1814822Y-176083D01*
G01X1813913Y-174265D01*
G01X1813003Y-172749D01*
G01X1811791Y-171234D01*
G01X1810276Y-169719D01*
G01X1808458Y-168204D01*
G01X1806337Y-166992D01*
G01X1803913Y-166083D01*
G01X1801488Y-165477D01*
G01X1780579Y-165174D01*
G01X1760579Y-165174D01*
G01X1760579Y-186992D01*
G01X1760579Y-186992D01*
G01X1740857Y-186992D01*
G01X1740579Y-180325D01*
G01X1740882Y-172749D01*
G01X1740882Y-165477D01*
G01X1740579Y-157901D01*
G01X1740882Y-148810D01*
G01X1741185Y-146386D01*
G01X1770882Y-146386D01*
G01X1801488Y-146689D01*
G01X1807852Y-147598D01*
G01X1810276Y-148204D01*
G01X1813003Y-149113D01*
G01X1815428Y-150022D01*
G01X1817852Y-151234D01*
G01X1820579Y-152749D01*
G01X1822700Y-153962D01*
G01X1824216Y-155174D01*
G01X1829367Y-160325D01*
G01X1831185Y-162446D01*
G01X1833003Y-165477D01*
G01X1834519Y-167901D01*
G01X1835428Y-170325D01*
G01X1836337Y-173052D01*
G01X1837246Y-176386D01*
G01X1837852Y-179416D01*
G01X1838155Y-186386D01*
G01X1837852Y-193962D01*
G01X1837246Y-196992D01*
G01X1836640Y-199416D01*
G01X1836034Y-202143D01*
G01X1835125Y-204871D01*
G01X1833913Y-207295D01*
G01X1832397Y-210022D01*
G01X1831185Y-212143D01*
G01X1829973Y-213658D01*
G01X1826337Y-217901D01*
G01X1823306Y-220325D01*
G01X1821185Y-221840D01*
G01X1818761Y-223355D01*
G01X1816640Y-224567D01*
G01X1814216Y-225477D01*
G01X1812397Y-226689D01*
G01X1813003Y-228810D01*
G01X1814519Y-231537D01*
G01X1816943Y-236386D01*
G01X1819973Y-241840D01*
G01X1823913Y-249719D01*
G01X1825428Y-252143D01*
G01X1829064Y-259416D01*
G01X1832094Y-264871D01*
G01X1836034Y-272750D01*
G01X1837549Y-275174D01*
G01X1841185Y-282446D01*
G01X1843609Y-286689D01*
G01X1844216Y-288204D01*
G01X1832700Y-288204D01*
G01X1820579Y-287598D01*
G01X1819367Y-286083D01*
G01X1798761Y-244871D01*
G01X1795731Y-239416D01*
G01X1790882Y-229719D01*
G01X1790276Y-228204D01*
G01X1760579Y-228204D01*
G01X1760579Y-288204D01*
G01X1740579Y-288204D01*
G37*
G36*
G01X1194518Y-228810D02*
G01X1194518Y-210022D01*
G01X1259973Y-210022D01*
G01X1259973Y-228810D01*
G01X1194518Y-228810D01*
G37*
G36*
G01X1339367Y-290022D02*
G01X1332700Y-289719D01*
G01X1330579Y-289113D01*
G01X1326942Y-288507D01*
G01X1323609Y-287598D01*
G01X1320882Y-286689D01*
G01X1318458Y-285780D01*
G01X1316336Y-284871D01*
G01X1313609Y-283659D01*
G01X1310882Y-281840D01*
G01X1308761Y-280628D01*
G01X1307246Y-279416D01*
G01X1301185Y-273356D01*
G01X1299367Y-270931D01*
G01X1296336Y-266386D01*
G01X1295124Y-263962D01*
G01X1293912Y-261234D01*
G01X1293003Y-259113D01*
G01X1292094Y-256083D01*
G01X1291185Y-253356D01*
G01X1289973Y-246689D01*
G01X1289670Y-219416D01*
G01X1289701Y-216386D01*
G01X1309670Y-216386D01*
G01X1309973Y-239416D01*
G01X1310276Y-242749D01*
G01X1310882Y-247295D01*
G01X1311791Y-250325D01*
G01X1312700Y-253053D01*
G01X1314215Y-256386D01*
G01X1317246Y-260628D01*
G01X1319670Y-263356D01*
G01X1322094Y-265174D01*
G01X1323609Y-266386D01*
G01X1325730Y-267598D01*
G01X1329064Y-268810D01*
G01X1331791Y-269719D01*
G01X1338155Y-270022D01*
G01X1338155Y-270022D01*
G01X1345124Y-269719D01*
G01X1348155Y-269113D01*
G01X1350882Y-268204D01*
G01X1353609Y-266992D01*
G01X1355730Y-265780D01*
G01X1357549Y-264568D01*
G01X1359367Y-263053D01*
G01X1362397Y-260022D01*
G01X1363912Y-257901D01*
G01X1365427Y-255174D01*
G01X1366640Y-252446D01*
G01X1367549Y-249719D01*
G01X1368155Y-247295D01*
G01X1368761Y-243052D01*
G01X1369064Y-218507D01*
G01X1368761Y-193962D01*
G01X1368458Y-191234D01*
G01X1367852Y-187295D01*
G01X1366943Y-184265D01*
G01X1366337Y-182143D01*
G01X1365427Y-180022D01*
G01X1364215Y-177901D01*
G01X1363003Y-176083D01*
G01X1361791Y-174568D01*
G01X1358155Y-170931D01*
G01X1356336Y-169416D01*
G01X1354518Y-168204D01*
G01X1352397Y-166992D01*
G01X1349973Y-166083D01*
G01X1343912Y-164871D01*
G01X1341185Y-164568D01*
G01X1336639Y-164871D01*
G01X1333003Y-165477D01*
G01X1330276Y-166083D01*
G01X1327549Y-166992D01*
G01X1322700Y-169416D01*
G01X1320882Y-170628D01*
G01X1316336Y-175174D01*
G01X1314821Y-177295D01*
G01X1313306Y-180022D01*
G01X1312094Y-182749D01*
G01X1311185Y-185477D01*
G01X1310579Y-187901D01*
G01X1309973Y-193355D01*
G01X1309670Y-216386D01*
G01X1289701Y-216386D01*
G01X1289973Y-190325D01*
G01X1290579Y-186689D01*
G01X1290882Y-184568D01*
G01X1291488Y-181537D01*
G01X1292700Y-177598D01*
G01X1293912Y-174265D01*
G01X1295124Y-171537D01*
G01X1296640Y-168507D01*
G01X1298155Y-166386D01*
G01X1299367Y-164265D01*
G01X1300882Y-162143D01*
G01X1302700Y-160022D01*
G01X1305124Y-157598D01*
G01X1309367Y-153962D01*
G01X1312094Y-152143D01*
G01X1314821Y-150628D01*
G01X1317246Y-149416D01*
G01X1319367Y-148507D01*
G01X1321791Y-147598D01*
G01X1324821Y-146689D01*
G01X1327549Y-146083D01*
G01X1331791Y-145477D01*
G01X1337852Y-145174D01*
G01X1345124Y-145477D01*
G01X1349367Y-146083D01*
G01X1353003Y-146689D01*
G01X1356336Y-147598D01*
G01X1359670Y-148810D01*
G01X1364518Y-151234D01*
G01X1367246Y-152749D01*
G01X1369367Y-153962D01*
G01X1373912Y-157598D01*
G01X1375428Y-159113D01*
G01X1377852Y-162143D01*
G01X1379670Y-164265D01*
G01X1381488Y-167295D01*
G01X1383003Y-169719D01*
G01X1384215Y-172143D01*
G01X1385428Y-174871D01*
G01X1387246Y-180931D01*
G01X1388155Y-184568D01*
G01X1388761Y-187901D01*
G01X1389064Y-216386D01*
G01X1388761Y-245477D01*
G01X1388155Y-249113D01*
G01X1387549Y-252143D01*
G01X1386943Y-254871D01*
G01X1386034Y-257901D01*
G01X1384821Y-260628D01*
G01X1383609Y-263659D01*
G01X1382094Y-266689D01*
G01X1380276Y-269416D01*
G01X1379064Y-271537D01*
G01X1377852Y-273053D01*
G01X1371185Y-279719D01*
G01X1369064Y-281234D01*
G01X1366337Y-283053D01*
G01X1363912Y-284568D01*
G01X1361791Y-285477D01*
G01X1359367Y-286386D01*
G01X1353912Y-288204D01*
G01X1349973Y-289113D01*
G01X1346336Y-289719D01*
G01X1339367Y-290022D01*
G37*
G36*
G01X1465730Y-290022D02*
G01X1460276Y-289719D01*
G01X1458458Y-289416D01*
G01X1455427Y-289113D01*
G01X1452397Y-288507D01*
G01X1447549Y-287295D01*
G01X1444518Y-286386D01*
G01X1436639Y-282446D01*
G01X1434518Y-280931D01*
G01X1432700Y-279719D01*
G01X1430882Y-278204D01*
G01X1427246Y-274568D01*
G01X1425427Y-272143D01*
G01X1422397Y-267295D01*
G01X1421185Y-265174D01*
G01X1419973Y-262447D01*
G01X1418761Y-259113D01*
G01X1417852Y-256386D01*
G01X1416640Y-250325D01*
G01X1416033Y-245477D01*
G01X1415730Y-195477D01*
G01X1415730Y-146386D01*
G01X1435730Y-146386D01*
G01X1435730Y-194568D01*
G01X1436033Y-243658D01*
G01X1436336Y-245780D01*
G01X1436943Y-249113D01*
G01X1438155Y-253053D01*
G01X1439367Y-255780D01*
G01X1440579Y-257901D01*
G01X1441791Y-259719D01*
G01X1443003Y-261234D01*
G01X1446033Y-264265D01*
G01X1447852Y-265780D01*
G01X1450579Y-267295D01*
G01X1454215Y-268810D01*
G01X1457246Y-269719D01*
G01X1463912Y-270325D01*
G01X1465427Y-270325D01*
G01X1468458Y-270022D01*
G01X1471791Y-269719D01*
G01X1473912Y-269416D01*
G01X1476337Y-268810D01*
G01X1478761Y-267901D01*
G01X1481488Y-266689D01*
G01X1483609Y-265174D01*
G01X1485428Y-263962D01*
G01X1487852Y-261840D01*
G01X1489670Y-259416D01*
G01X1491185Y-257295D01*
G01X1492397Y-254871D01*
G01X1493306Y-252749D01*
G01X1494215Y-250022D01*
G01X1494821Y-247295D01*
G01X1495428Y-242446D01*
G01X1495731Y-193962D01*
G01X1495731Y-146386D01*
G01X1504215Y-146386D01*
G01X1514215Y-146689D01*
G01X1515731Y-146992D01*
G01X1515731Y-191537D01*
G01X1515428Y-236992D01*
G01X1515124Y-241234D01*
G01X1514821Y-246083D01*
G01X1514215Y-250325D01*
G01X1513306Y-255174D01*
G01X1512094Y-259113D01*
G01X1510882Y-262447D01*
G01X1508458Y-267295D01*
G01X1506943Y-270022D01*
G01X1505731Y-272143D01*
G01X1504518Y-273659D01*
G01X1498458Y-279719D01*
G01X1496943Y-280931D01*
G01X1495125Y-282143D01*
G01X1492700Y-283659D01*
G01X1490276Y-284871D01*
G01X1488155Y-285780D01*
G01X1485428Y-286992D01*
G01X1482700Y-287901D01*
G01X1477246Y-289113D01*
G01X1471791Y-289719D01*
G01X1465730Y-290022D01*
G37*
G36*
G01X1569064Y-288204D02*
G01X1569064Y-165174D01*
G01X1529064Y-165174D01*
G01X1529064Y-146386D01*
G01X1629064Y-146386D01*
G01X1629064Y-165174D01*
G01X1589064Y-165174D01*
G01X1589064Y-288204D01*
G01X1569064Y-288204D01*
G37*
G36*
G01X1643003Y-228810D02*
G01X1643003Y-210022D01*
G01X1708458Y-210022D01*
G01X1708458Y-228810D01*
G01X1643003Y-228810D01*
G37*
G36*
G01X-234369Y-288204D02*
G01X-233460Y-286386D01*
G01X-231945Y-282749D01*
G01X-229521Y-276083D01*
G01X-228309Y-273053D01*
G01X-227400Y-270325D01*
G01X-223763Y-260628D01*
G01X-222854Y-257901D01*
G01X-221642Y-254871D01*
G01X-219218Y-248204D01*
G01X-218006Y-245174D01*
G01X-217097Y-242446D01*
G01X-214710Y-236083D01*
G01X-194672Y-236083D01*
G01X-194672Y-238204D01*
G01X-172854Y-238507D01*
G01X-151339Y-238507D01*
G01X-156793Y-222143D01*
G01X-158006Y-219113D01*
G01X-163460Y-202749D01*
G01X-165278Y-197901D01*
G01X-169824Y-184265D01*
G01X-171642Y-179416D01*
G01X-172551Y-176689D01*
G01X-173233Y-176083D01*
G01X-174066Y-176689D01*
G01X-175581Y-179719D01*
G01X-181642Y-197901D01*
G01X-182854Y-200931D01*
G01X-188309Y-217295D01*
G01X-190127Y-222143D01*
G01X-193763Y-233052D01*
G01X-194672Y-236083D01*
G01X-194672Y-236083D01*
G01X-214710Y-236083D01*
G01X-213460Y-232749D01*
G01X-212551Y-230022D01*
G01X-211339Y-226992D01*
G01X-206491Y-213658D01*
G01X-205278Y-210628D01*
G01X-204369Y-207901D01*
G01X-200733Y-198204D01*
G01X-199824Y-195477D01*
G01X-198612Y-192446D01*
G01X-193763Y-179113D01*
G01X-192551Y-176083D01*
G01X-191642Y-173356D01*
G01X-188006Y-163659D01*
G01X-187097Y-160931D01*
G01X-185885Y-157901D01*
G01X-182248Y-147901D01*
G01X-181642Y-146386D01*
G01X-173460Y-146386D01*
G01X-167172Y-146689D01*
G01X-164672Y-147598D01*
G01X-163460Y-150022D01*
G01X-162551Y-152749D01*
G01X-158915Y-162446D01*
G01X-158006Y-165174D01*
G01X-156187Y-170022D01*
G01X-154975Y-173052D01*
G01X-150127Y-186386D01*
G01X-148915Y-189416D01*
G01X-148006Y-192143D01*
G01X-144369Y-201840D01*
G01X-143460Y-204568D01*
G01X-142248Y-207598D01*
G01X-137400Y-220931D01*
G01X-136187Y-223961D01*
G01X-135278Y-226689D01*
G01X-131642Y-236386D01*
G01X-130733Y-239113D01*
G01X-129521Y-242143D01*
G01X-124672Y-255477D01*
G01X-123460Y-258507D01*
G01X-122551Y-261234D01*
G01X-118915Y-270931D01*
G01X-118006Y-273659D01*
G01X-116794Y-276689D01*
G01X-113157Y-286689D01*
G01X-112551Y-288204D01*
G01X-123157Y-288204D01*
G01X-131263Y-287977D01*
G01X-134369Y-287295D01*
G01X-135278Y-284871D01*
G01X-136187Y-282143D01*
G01X-138006Y-277295D01*
G01X-143460Y-260931D01*
G01X-144369Y-258507D01*
G01X-151718Y-257598D01*
G01X-173157Y-257295D01*
G01X-194672Y-257522D01*
G01X-202248Y-258204D01*
G01X-203460Y-260931D01*
G01X-208309Y-275477D01*
G01X-209521Y-278507D01*
G01X-212248Y-286689D01*
G01X-212551Y-288204D01*
G01X-234369Y-288204D01*
G37*
G36*
G01X-953764Y-290022D02*
G01X-960430Y-289719D01*
G01X-962552Y-289113D01*
G01X-964976Y-288810D01*
G01X-967703Y-288204D01*
G01X-970733Y-286992D01*
G01X-974067Y-285780D01*
G01X-976794Y-284568D01*
G01X-979218Y-283356D01*
G01X-981642Y-281840D01*
G01X-983764Y-280628D01*
G01X-985279Y-279416D01*
G01X-989824Y-274871D01*
G01X-992248Y-271840D01*
G01X-993764Y-270022D01*
G01X-995279Y-267598D01*
G01X-996794Y-264871D01*
G01X-998006Y-262447D01*
G01X-999218Y-259719D01*
G01X-1001339Y-253356D01*
G01X-1002551Y-246083D01*
G01X-1002854Y-219416D01*
G01X-1002551Y-190931D01*
G01X-1001945Y-186689D01*
G01X-1001339Y-183659D01*
G01X-1000733Y-181234D01*
G01X-1000127Y-178507D01*
G01X-999218Y-175780D01*
G01X-996794Y-170325D01*
G01X-995582Y-168204D01*
G01X-994067Y-165780D01*
G01X-992551Y-163659D01*
G01X-990127Y-160628D01*
G01X-984976Y-155477D01*
G01X-982552Y-153659D01*
G01X-980733Y-152446D01*
G01X-976491Y-150022D01*
G01X-974067Y-148810D01*
G01X-970733Y-147598D01*
G01X-968006Y-146689D01*
G01X-961339Y-145477D01*
G01X-955582Y-145174D01*
G01X-948006Y-145477D01*
G01X-944370Y-146083D01*
G01X-941643Y-146689D01*
G01X-938006Y-147598D01*
G01X-934976Y-148810D01*
G01X-932249Y-150022D01*
G01X-929824Y-151234D01*
G01X-927703Y-152446D01*
G01X-924067Y-154871D01*
G01X-922249Y-156386D01*
G01X-915582Y-163053D01*
G01X-913461Y-166083D01*
G01X-911642Y-168810D01*
G01X-910127Y-171537D01*
G01X-908915Y-173962D01*
G01X-908006Y-176083D01*
G01X-907097Y-178507D01*
G01X-906188Y-181234D01*
G01X-905279Y-184871D01*
G01X-904673Y-186992D01*
G01X-925279Y-186992D01*
G01X-925885Y-185174D01*
G01X-927097Y-182446D01*
G01X-928309Y-180022D01*
G01X-930127Y-176992D01*
G01X-931946Y-174568D01*
G01X-934976Y-171537D01*
G01X-937097Y-169719D01*
G01X-939521Y-168204D01*
G01X-941946Y-166992D01*
G01X-945279Y-165780D01*
G01X-948006Y-164871D01*
G01X-952552Y-164568D01*
G01X-958309Y-164871D01*
G01X-962249Y-165780D01*
G01X-965582Y-166992D01*
G01X-968006Y-168204D01*
G01X-970127Y-169416D01*
G01X-971945Y-170931D01*
G01X-975582Y-174568D01*
G01X-977703Y-177598D01*
G01X-979218Y-180628D01*
G01X-980430Y-183355D01*
G01X-981339Y-186083D01*
G01X-981945Y-188507D01*
G01X-982552Y-193355D01*
G01X-982855Y-216386D01*
G01X-982552Y-239416D01*
G01X-982248Y-241840D01*
G01X-981945Y-244871D01*
G01X-981339Y-247295D01*
G01X-980733Y-250022D01*
G01X-979824Y-252749D01*
G01X-978612Y-255174D01*
G01X-977097Y-257901D01*
G01X-975582Y-260325D01*
G01X-974067Y-262143D01*
G01X-972552Y-263659D01*
G01X-970430Y-265477D01*
G01X-967400Y-267295D01*
G01X-964673Y-268810D01*
G01X-961642Y-269719D01*
G01X-958915Y-270325D01*
G01X-955279Y-270628D01*
G01X-951642Y-270325D01*
G01X-948006Y-269719D01*
G01X-944067Y-268810D01*
G01X-941339Y-267598D01*
G01X-939218Y-266386D01*
G01X-937400Y-265477D01*
G01X-935582Y-264265D01*
G01X-934067Y-262750D01*
G01X-932249Y-261234D01*
G01X-930127Y-258810D01*
G01X-928309Y-255780D01*
G01X-926794Y-252749D01*
G01X-925582Y-249416D01*
G01X-925279Y-247598D01*
G01X-904673Y-247598D01*
G01X-904976Y-248810D01*
G01X-905885Y-252143D01*
G01X-907097Y-256083D01*
G01X-908309Y-259113D01*
G01X-909521Y-261840D01*
G01X-910733Y-264265D01*
G01X-911945Y-266386D01*
G01X-913461Y-268810D01*
G01X-915582Y-271537D01*
G01X-917400Y-273962D01*
G01X-921945Y-278507D01*
G01X-926491Y-282143D01*
G01X-928612Y-283356D01*
G01X-934673Y-286386D01*
G01X-938006Y-287598D01*
G01X-940733Y-288507D01*
G01X-947400Y-289719D01*
G01X-953764Y-290022D01*
G37*
G36*
G01X-844673Y-288204D02*
G01X-845279Y-286386D01*
G01X-846491Y-283356D01*
G01X-850127Y-272446D01*
G01X-851945Y-266386D01*
G01X-860127Y-241840D01*
G01X-861036Y-238507D01*
G01X-868309Y-216689D01*
G01X-870733Y-208810D01*
G01X-878915Y-184265D01*
G01X-879521Y-181840D01*
G01X-885885Y-162749D01*
G01X-887703Y-156689D01*
G01X-889521Y-151234D01*
G01X-890430Y-148204D01*
G01X-890733Y-146386D01*
G01X-880127Y-146386D01*
G01X-872097Y-146613D01*
G01X-869218Y-147295D01*
G01X-866188Y-156386D01*
G01X-865582Y-158810D01*
G01X-864673Y-161537D01*
G01X-861036Y-173659D01*
G01X-860127Y-176386D01*
G01X-859218Y-179719D01*
G01X-857097Y-186083D01*
G01X-856491Y-188507D01*
G01X-855582Y-191234D01*
G01X-851945Y-203355D01*
G01X-851036Y-206083D01*
G01X-850127Y-209416D01*
G01X-848006Y-215780D01*
G01X-847400Y-218204D01*
G01X-846491Y-220931D01*
G01X-842855Y-233052D01*
G01X-841945Y-235780D01*
G01X-841036Y-239113D01*
G01X-838915Y-245477D01*
G01X-838309Y-247901D01*
G01X-837400Y-250628D01*
G01X-836491Y-253659D01*
G01X-835582Y-255780D01*
G01X-834976Y-255704D01*
G01X-834370Y-254871D01*
G01X-833461Y-252749D01*
G01X-832855Y-250325D01*
G01X-831946Y-247598D01*
G01X-830127Y-241537D01*
G01X-829218Y-238810D01*
G01X-828309Y-235477D01*
G01X-818612Y-203961D01*
G01X-817703Y-201234D01*
G01X-817097Y-198810D01*
G01X-816188Y-196083D01*
G01X-812551Y-183962D01*
G01X-811642Y-181234D01*
G01X-810733Y-177901D01*
G01X-808612Y-171537D01*
G01X-808006Y-169113D01*
G01X-807097Y-166386D01*
G01X-803460Y-154265D01*
G01X-802551Y-151537D01*
G01X-801642Y-148204D01*
G01X-801036Y-146386D01*
G01X-790733Y-146386D01*
G01X-780127Y-146992D01*
G01X-780430Y-148810D01*
G01X-782248Y-154265D01*
G01X-784067Y-160325D01*
G01X-791339Y-182143D01*
G01X-793157Y-188204D01*
G01X-800430Y-210022D01*
G01X-802248Y-216083D01*
G01X-809521Y-237901D01*
G01X-811339Y-243962D01*
G01X-819521Y-268507D01*
G01X-820430Y-271840D01*
G01X-825885Y-288204D01*
G01X-844673Y-288204D01*
G37*
G36*
G01X-764067Y-228810D02*
G01X-764067Y-210022D01*
G01X-698006Y-210022D01*
G01X-698006Y-228810D01*
G01X-764067Y-228810D01*
G37*
G36*
G01X-618915Y-290022D02*
G01X-625279Y-289719D01*
G01X-628006Y-289113D01*
G01X-631642Y-288507D01*
G01X-634976Y-287598D01*
G01X-638612Y-286386D01*
G01X-641339Y-285174D01*
G01X-646188Y-282749D01*
G01X-648612Y-281234D01*
G01X-650733Y-279719D01*
G01X-652248Y-278507D01*
G01X-656794Y-273962D01*
G01X-659218Y-270931D01*
G01X-662248Y-266083D01*
G01X-663460Y-263659D01*
G01X-664673Y-260931D01*
G01X-665885Y-257901D01*
G01X-666794Y-255174D01*
G01X-668006Y-249719D01*
G01X-668612Y-245477D01*
G01X-668915Y-218507D01*
G01X-668884Y-215780D01*
G01X-648309Y-215780D01*
G01X-648006Y-244871D01*
G01X-647097Y-249416D01*
G01X-645885Y-252749D01*
G01X-644673Y-255174D01*
G01X-643764Y-257295D01*
G01X-642551Y-259113D01*
G01X-638915Y-263356D01*
G01X-636491Y-265174D01*
G01X-633461Y-266992D01*
G01X-631036Y-268204D01*
G01X-628612Y-269113D01*
G01X-626188Y-269719D01*
G01X-620127Y-270022D01*
G01X-620127Y-270022D01*
G01X-613461Y-269719D01*
G01X-610430Y-269113D01*
G01X-607703Y-268204D01*
G01X-604976Y-266992D01*
G01X-602551Y-265780D01*
G01X-600733Y-264568D01*
G01X-596188Y-260022D01*
G01X-594976Y-258507D01*
G01X-593763Y-256386D01*
G01X-592551Y-253962D01*
G01X-591339Y-250931D01*
G01X-590430Y-247901D01*
G01X-589824Y-243658D01*
G01X-589521Y-218507D01*
G01X-589824Y-192749D01*
G01X-590430Y-188507D01*
G01X-591339Y-184568D01*
G01X-592551Y-181537D01*
G01X-594066Y-178204D01*
G01X-597097Y-173962D01*
G01X-598915Y-171840D01*
G01X-600430Y-170628D01*
G01X-602248Y-169416D01*
G01X-604673Y-167901D01*
G01X-607703Y-166386D01*
G01X-610430Y-165477D01*
G01X-614673Y-164871D01*
G01X-617400Y-164568D01*
G01X-621945Y-164871D01*
G01X-625582Y-165477D01*
G01X-628309Y-166083D01*
G01X-631036Y-166992D01*
G01X-633461Y-168204D01*
G01X-635582Y-169416D01*
G01X-637400Y-170628D01*
G01X-639218Y-172143D01*
G01X-640733Y-173659D01*
G01X-642551Y-175780D01*
G01X-644370Y-178507D01*
G01X-645582Y-180931D01*
G01X-646491Y-183052D01*
G01X-647400Y-185780D01*
G01X-648006Y-188507D01*
G01X-648309Y-215780D01*
G01X-668884Y-215780D01*
G01X-668612Y-191537D01*
G01X-667703Y-185174D01*
G01X-667097Y-182143D01*
G01X-666188Y-179416D01*
G01X-665582Y-176992D01*
G01X-664673Y-174568D01*
G01X-662854Y-170325D01*
G01X-661642Y-168204D01*
G01X-660127Y-165780D01*
G01X-658915Y-163659D01*
G01X-657703Y-162143D01*
G01X-651036Y-155477D01*
G01X-648006Y-153356D01*
G01X-645279Y-151537D01*
G01X-642551Y-150022D01*
G01X-639824Y-148810D01*
G01X-634370Y-146992D01*
G01X-630430Y-146083D01*
G01X-626794Y-145477D01*
G01X-620127Y-145174D01*
G01X-613461Y-145477D01*
G01X-607097Y-146386D01*
G01X-604067Y-146992D01*
G01X-600430Y-148204D01*
G01X-597703Y-149416D01*
G01X-592854Y-151840D01*
G01X-590430Y-153356D01*
G01X-588309Y-154871D01*
G01X-586491Y-156083D01*
G01X-584672Y-157598D01*
G01X-581642Y-160628D01*
G01X-579218Y-163659D01*
G01X-578006Y-165477D01*
G01X-575582Y-169719D01*
G01X-573157Y-174568D01*
G01X-572248Y-177295D01*
G01X-571339Y-180325D01*
G01X-570430Y-183962D01*
G01X-569824Y-187295D01*
G01X-569218Y-196386D01*
G01X-568915Y-216689D01*
G01X-569218Y-236992D01*
G01X-569521Y-240628D01*
G01X-569824Y-246083D01*
G01X-570430Y-249719D01*
G01X-571036Y-252749D01*
G01X-571945Y-256083D01*
G01X-572854Y-258810D01*
G01X-573763Y-261234D01*
G01X-576491Y-266689D01*
G01X-578006Y-269113D01*
G01X-579218Y-271234D01*
G01X-580733Y-273053D01*
G01X-582551Y-275174D01*
G01X-584369Y-276992D01*
G01X-585885Y-278204D01*
G01X-587400Y-279719D01*
G01X-588915Y-280931D01*
G01X-592551Y-283356D01*
G01X-594673Y-284568D01*
G01X-597097Y-285780D01*
G01X-599521Y-286689D01*
G01X-602248Y-287598D01*
G01X-605279Y-288507D01*
G01X-608006Y-289113D01*
G01X-612248Y-289719D01*
G01X-618915Y-290022D01*
G37*
G36*
G01X-492854Y-290022D02*
G01X-498309Y-289719D01*
G01X-500127Y-289416D01*
G01X-503157Y-289113D01*
G01X-505582Y-288507D01*
G01X-507703Y-288204D01*
G01X-510127Y-287598D01*
G01X-512854Y-286689D01*
G01X-515279Y-285780D01*
G01X-520127Y-283356D01*
G01X-522551Y-281840D01*
G01X-524673Y-280325D01*
G01X-526188Y-279416D01*
G01X-527703Y-278204D01*
G01X-530733Y-275174D01*
G01X-532551Y-272750D01*
G01X-534673Y-269719D01*
G01X-536188Y-267295D01*
G01X-537400Y-264871D01*
G01X-538612Y-262143D01*
G01X-540430Y-256689D01*
G01X-541339Y-253356D01*
G01X-541945Y-250325D01*
G01X-542551Y-244265D01*
G01X-542854Y-194871D01*
G01X-542854Y-146386D01*
G01X-522854Y-146386D01*
G01X-522854Y-193355D01*
G01X-522551Y-243052D01*
G01X-521945Y-246689D01*
G01X-521339Y-249416D01*
G01X-520430Y-252446D01*
G01X-519218Y-255174D01*
G01X-517097Y-259416D01*
G01X-515885Y-260931D01*
G01X-512248Y-264568D01*
G01X-509521Y-266386D01*
G01X-507400Y-267598D01*
G01X-504370Y-268810D01*
G01X-501339Y-269719D01*
G01X-494672Y-270325D01*
G01X-493157Y-270325D01*
G01X-490430Y-270022D01*
G01X-486188Y-269719D01*
G01X-482248Y-268810D01*
G01X-478915Y-267598D01*
G01X-476188Y-266083D01*
G01X-474066Y-264871D01*
G01X-472551Y-263659D01*
G01X-471036Y-262143D01*
G01X-469218Y-260022D01*
G01X-467703Y-257901D01*
G01X-466491Y-255780D01*
G01X-465278Y-253053D01*
G01X-464369Y-250325D01*
G01X-463763Y-247901D01*
G01X-463157Y-243658D01*
G01X-462854Y-194568D01*
G01X-462854Y-146386D01*
G01X-442854Y-146386D01*
G01X-442854Y-193052D01*
G01X-443157Y-240628D01*
G01X-443460Y-243658D01*
G01X-443763Y-247295D01*
G01X-444369Y-250931D01*
G01X-444975Y-253962D01*
G01X-445582Y-256689D01*
G01X-446491Y-259719D01*
G01X-447400Y-262143D01*
G01X-448309Y-264265D01*
G01X-449521Y-266689D01*
G01X-451036Y-269416D01*
G01X-452551Y-271840D01*
G01X-454066Y-273659D01*
G01X-460127Y-279719D01*
G01X-461642Y-280931D01*
G01X-465278Y-283356D01*
G01X-467400Y-284568D01*
G01X-470127Y-285780D01*
G01X-473157Y-286992D01*
G01X-475884Y-287901D01*
G01X-481339Y-289113D01*
G01X-486794Y-289719D01*
G01X-492854Y-290022D01*
G37*
G36*
G01X-388915Y-288204D02*
G01X-388915Y-165174D01*
G01X-429521Y-165174D01*
G01X-429521Y-146386D01*
G01X-328915Y-146386D01*
G01X-328915Y-165174D01*
G01X-369521Y-165174D01*
G01X-369521Y-288204D01*
G01X-388915Y-288204D01*
G37*
G36*
G01X-315582Y-228810D02*
G01X-315582Y-210022D01*
G01X-250127Y-210022D01*
G01X-250127Y-228810D01*
G01X-315582Y-228810D01*
G37*
G36*
G01X-1974761Y-288030D02*
G01X-1977261Y-287576D01*
G01X-1976351Y-285455D01*
G01X-1975139Y-282121D01*
G01X-1973927Y-279091D01*
G01X-1973018Y-276364D01*
G01X-1969382Y-266667D01*
G01X-1968473Y-263940D01*
G01X-1967260Y-260909D01*
G01X-1962412Y-247576D01*
G01X-1961200Y-244546D01*
G01X-1960291Y-241818D01*
G01X-1958927Y-238182D01*
G01X-1938473Y-238182D01*
G01X-1916958Y-238485D01*
G01X-1895442Y-237879D01*
G01X-1895746Y-235455D01*
G01X-1900594Y-220909D01*
G01X-1901806Y-217879D01*
G01X-1907261Y-201515D01*
G01X-1908473Y-198485D01*
G01X-1913321Y-183939D01*
G01X-1915745Y-177273D01*
G01X-1916352Y-175985D01*
G01X-1916958Y-175758D01*
G01X-1918170Y-177879D01*
G01X-1919382Y-180909D01*
G01X-1924836Y-197273D01*
G01X-1926048Y-200303D01*
G01X-1930897Y-214848D01*
G01X-1933321Y-221515D01*
G01X-1938170Y-236061D01*
G01X-1938170Y-236061D01*
G01X-1938473Y-238182D01*
G01X-1958927Y-238182D01*
G01X-1954836Y-227273D01*
G01X-1953927Y-224545D01*
G01X-1952715Y-221515D01*
G01X-1947867Y-208182D01*
G01X-1946654Y-205151D01*
G01X-1945745Y-202424D01*
G01X-1942109Y-192727D01*
G01X-1941200Y-190000D01*
G01X-1939988Y-186970D01*
G01X-1935139Y-173636D01*
G01X-1933927Y-170606D01*
G01X-1933018Y-167879D01*
G01X-1929382Y-158182D01*
G01X-1928473Y-155455D01*
G01X-1926655Y-150606D01*
G01X-1925745Y-147879D01*
G01X-1925442Y-146364D01*
G01X-1917261Y-146364D01*
G01X-1910897Y-146667D01*
G01X-1908170Y-147576D01*
G01X-1906655Y-150606D01*
G01X-1901806Y-163939D01*
G01X-1900594Y-166970D01*
G01X-1899685Y-169697D01*
G01X-1896049Y-179394D01*
G01X-1895139Y-182121D01*
G01X-1893927Y-185152D01*
G01X-1891503Y-191818D01*
G01X-1890291Y-194848D01*
G01X-1889382Y-197576D01*
G01X-1885745Y-207273D01*
G01X-1884836Y-210000D01*
G01X-1883624Y-213030D01*
G01X-1878776Y-226364D01*
G01X-1877564Y-229394D01*
G01X-1876654Y-232121D01*
G01X-1873018Y-241818D01*
G01X-1872109Y-244546D01*
G01X-1870897Y-247576D01*
G01X-1866048Y-260909D01*
G01X-1864836Y-263940D01*
G01X-1863927Y-266667D01*
G01X-1860291Y-276364D01*
G01X-1859382Y-279091D01*
G01X-1857563Y-283939D01*
G01X-1856654Y-286667D01*
G01X-1856351Y-288182D01*
G01X-1866654Y-288182D01*
G01X-1874533Y-287955D01*
G01X-1877564Y-287273D01*
G01X-1878776Y-284546D01*
G01X-1879988Y-280909D01*
G01X-1881200Y-277879D01*
G01X-1887564Y-258788D01*
G01X-1887867Y-257273D01*
G01X-1916048Y-257273D01*
G01X-1945139Y-257879D01*
G01X-1946351Y-259697D01*
G01X-1947261Y-262121D01*
G01X-1951806Y-275758D01*
G01X-1953624Y-280606D01*
G01X-1954533Y-283333D01*
G01X-1955442Y-286364D01*
G01X-1955745Y-288182D01*
G01X-1966654Y-288182D01*
G01X-1974761Y-288030D01*
G37*
G36*
G01X-1293321Y-288182D02*
G01X-1293321Y-280000D01*
G01X-1293018Y-270909D01*
G01X-1293018Y-269394D01*
G01X-1293321Y-209091D01*
G01X-1293018Y-147879D01*
G01X-1292715Y-146364D01*
G01X-1273321Y-146364D01*
G01X-1273321Y-269394D01*
G01X-1201806Y-269394D01*
G01X-1201806Y-288182D01*
G01X-1293321Y-288182D01*
G37*
G36*
G01X-1839382Y-228788D02*
G01X-1839382Y-210000D01*
G01X-1773927Y-210000D01*
G01X-1773927Y-228788D01*
G01X-1839382Y-228788D01*
G37*
G36*
G01X-1694533Y-290000D02*
G01X-1701200Y-289697D01*
G01X-1703321Y-289091D01*
G01X-1706957Y-288485D01*
G01X-1710291Y-287576D01*
G01X-1713018Y-286667D01*
G01X-1715442Y-285758D01*
G01X-1717563Y-284849D01*
G01X-1720291Y-283636D01*
G01X-1723018Y-281818D01*
G01X-1725139Y-280606D01*
G01X-1726654Y-279394D01*
G01X-1732715Y-273333D01*
G01X-1734533Y-270909D01*
G01X-1737563Y-266364D01*
G01X-1738776Y-263940D01*
G01X-1739988Y-261212D01*
G01X-1740897Y-259091D01*
G01X-1741806Y-256061D01*
G01X-1742715Y-253334D01*
G01X-1743927Y-246667D01*
G01X-1744230Y-219394D01*
G01X-1744199Y-216364D01*
G01X-1724230Y-216364D01*
G01X-1723927Y-239394D01*
G01X-1723624Y-242727D01*
G01X-1723018Y-247273D01*
G01X-1722109Y-250303D01*
G01X-1721200Y-253030D01*
G01X-1719685Y-256364D01*
G01X-1716654Y-260606D01*
G01X-1714230Y-263333D01*
G01X-1711806Y-265152D01*
G01X-1710291Y-266364D01*
G01X-1708170Y-267576D01*
G01X-1704836Y-268788D01*
G01X-1702109Y-269697D01*
G01X-1695745Y-270000D01*
G01X-1695745Y-270000D01*
G01X-1688776Y-269697D01*
G01X-1685745Y-269091D01*
G01X-1683018Y-268182D01*
G01X-1680291Y-266970D01*
G01X-1678170Y-265758D01*
G01X-1676351Y-264546D01*
G01X-1674533Y-263030D01*
G01X-1671503Y-260000D01*
G01X-1669988Y-257879D01*
G01X-1668473Y-255152D01*
G01X-1667260Y-252424D01*
G01X-1666351Y-249697D01*
G01X-1665745Y-247273D01*
G01X-1665139Y-243030D01*
G01X-1664836Y-218485D01*
G01X-1665139Y-193939D01*
G01X-1665442Y-191212D01*
G01X-1666048Y-187273D01*
G01X-1666957Y-184242D01*
G01X-1667563Y-182121D01*
G01X-1668473Y-180000D01*
G01X-1669685Y-177879D01*
G01X-1670897Y-176061D01*
G01X-1672109Y-174545D01*
G01X-1675745Y-170909D01*
G01X-1677564Y-169394D01*
G01X-1679382Y-168182D01*
G01X-1681503Y-166970D01*
G01X-1683927Y-166061D01*
G01X-1689988Y-164849D01*
G01X-1692715Y-164546D01*
G01X-1697261Y-164849D01*
G01X-1700897Y-165455D01*
G01X-1703624Y-166061D01*
G01X-1706351Y-166970D01*
G01X-1711200Y-169394D01*
G01X-1713018Y-170606D01*
G01X-1717563Y-175152D01*
G01X-1719079Y-177273D01*
G01X-1720594Y-180000D01*
G01X-1721806Y-182727D01*
G01X-1722715Y-185455D01*
G01X-1723321Y-187879D01*
G01X-1723927Y-193333D01*
G01X-1724230Y-216364D01*
G01X-1744199Y-216364D01*
G01X-1743927Y-190303D01*
G01X-1743321Y-186667D01*
G01X-1743018Y-184545D01*
G01X-1742412Y-181515D01*
G01X-1741200Y-177576D01*
G01X-1739988Y-174242D01*
G01X-1738776Y-171515D01*
G01X-1737260Y-168485D01*
G01X-1735745Y-166364D01*
G01X-1734533Y-164242D01*
G01X-1733018Y-162121D01*
G01X-1731200Y-160000D01*
G01X-1728776Y-157576D01*
G01X-1724533Y-153939D01*
G01X-1721806Y-152121D01*
G01X-1719079Y-150606D01*
G01X-1716654Y-149394D01*
G01X-1714533Y-148485D01*
G01X-1712109Y-147576D01*
G01X-1709079Y-146667D01*
G01X-1706351Y-146061D01*
G01X-1702109Y-145455D01*
G01X-1696048Y-145152D01*
G01X-1688776Y-145455D01*
G01X-1684533Y-146061D01*
G01X-1680897Y-146667D01*
G01X-1677564Y-147576D01*
G01X-1674230Y-148788D01*
G01X-1669382Y-151212D01*
G01X-1666654Y-152727D01*
G01X-1664533Y-153939D01*
G01X-1659988Y-157576D01*
G01X-1658472Y-159091D01*
G01X-1656048Y-162121D01*
G01X-1654230Y-164242D01*
G01X-1652412Y-167273D01*
G01X-1650897Y-169697D01*
G01X-1649685Y-172121D01*
G01X-1648472Y-174849D01*
G01X-1646654Y-180909D01*
G01X-1645745Y-184545D01*
G01X-1645139Y-187879D01*
G01X-1644836Y-216364D01*
G01X-1645139Y-245455D01*
G01X-1645745Y-249091D01*
G01X-1646351Y-252121D01*
G01X-1646957Y-254849D01*
G01X-1647866Y-257879D01*
G01X-1649078Y-260606D01*
G01X-1650291Y-263637D01*
G01X-1651806Y-266667D01*
G01X-1653624Y-269394D01*
G01X-1654836Y-271515D01*
G01X-1656048Y-273030D01*
G01X-1662715Y-279697D01*
G01X-1664836Y-281212D01*
G01X-1667563Y-283030D01*
G01X-1669988Y-284546D01*
G01X-1672109Y-285455D01*
G01X-1674533Y-286364D01*
G01X-1679988Y-288182D01*
G01X-1683927Y-289091D01*
G01X-1687564Y-289697D01*
G01X-1694533Y-290000D01*
G37*
G36*
G01X-1568170Y-290000D02*
G01X-1573624Y-289697D01*
G01X-1575442Y-289394D01*
G01X-1578473Y-289091D01*
G01X-1581503Y-288485D01*
G01X-1586351Y-287273D01*
G01X-1589382Y-286364D01*
G01X-1597260Y-282424D01*
G01X-1599382Y-280909D01*
G01X-1601200Y-279697D01*
G01X-1603018Y-278182D01*
G01X-1606654Y-274546D01*
G01X-1608473Y-272121D01*
G01X-1611503Y-267273D01*
G01X-1612715Y-265152D01*
G01X-1613927Y-262424D01*
G01X-1615139Y-259091D01*
G01X-1616048Y-256364D01*
G01X-1617260Y-250303D01*
G01X-1617866Y-245455D01*
G01X-1618169Y-195455D01*
G01X-1618169Y-146364D01*
G01X-1598170Y-146364D01*
G01X-1598170Y-194545D01*
G01X-1597867Y-243636D01*
G01X-1597563Y-245758D01*
G01X-1596957Y-249091D01*
G01X-1595745Y-253030D01*
G01X-1594533Y-255758D01*
G01X-1593321Y-257879D01*
G01X-1592109Y-259697D01*
G01X-1590897Y-261212D01*
G01X-1587867Y-264243D01*
G01X-1586048Y-265758D01*
G01X-1583321Y-267273D01*
G01X-1579685Y-268788D01*
G01X-1576654Y-269697D01*
G01X-1569988Y-270303D01*
G01X-1568473Y-270303D01*
G01X-1565442Y-270000D01*
G01X-1562109Y-269697D01*
G01X-1559988Y-269394D01*
G01X-1557563Y-268788D01*
G01X-1555139Y-267879D01*
G01X-1552412Y-266667D01*
G01X-1550291Y-265152D01*
G01X-1548472Y-263940D01*
G01X-1546048Y-261818D01*
G01X-1544230Y-259394D01*
G01X-1542715Y-257273D01*
G01X-1541503Y-254849D01*
G01X-1540594Y-252727D01*
G01X-1539684Y-250000D01*
G01X-1539078Y-247273D01*
G01X-1538472Y-242424D01*
G01X-1538169Y-193939D01*
G01X-1538169Y-146364D01*
G01X-1529685Y-146364D01*
G01X-1519685Y-146667D01*
G01X-1518169Y-146970D01*
G01X-1518169Y-191515D01*
G01X-1518472Y-236970D01*
G01X-1518775Y-241212D01*
G01X-1519078Y-246061D01*
G01X-1519685Y-250303D01*
G01X-1520594Y-255152D01*
G01X-1521806Y-259091D01*
G01X-1523018Y-262424D01*
G01X-1525442Y-267273D01*
G01X-1526957Y-270000D01*
G01X-1528169Y-272121D01*
G01X-1529381Y-273636D01*
G01X-1535442Y-279697D01*
G01X-1536957Y-280909D01*
G01X-1538775Y-282121D01*
G01X-1541200Y-283636D01*
G01X-1543624Y-284849D01*
G01X-1545745Y-285758D01*
G01X-1548472Y-286970D01*
G01X-1551200Y-287879D01*
G01X-1556654Y-289091D01*
G01X-1562109Y-289697D01*
G01X-1568170Y-290000D01*
G37*
G36*
G01X-1464836Y-288182D02*
G01X-1464836Y-165152D01*
G01X-1504836Y-165152D01*
G01X-1504836Y-146364D01*
G01X-1404836Y-146364D01*
G01X-1404836Y-165152D01*
G01X-1444836Y-165152D01*
G01X-1444836Y-288182D01*
G01X-1464836Y-288182D01*
G37*
G36*
G01X-1390897Y-228788D02*
G01X-1390897Y-210000D01*
G01X-1325442Y-210000D01*
G01X-1325442Y-228788D01*
G01X-1390897Y-228788D01*
G37*
G36*
G01X-1116933Y-1808030D02*
G01X-1119357Y-1807576D01*
G01X-1118751Y-1805758D01*
G01X-1117842Y-1803333D01*
G01X-1116630Y-1800303D01*
G01X-1111781Y-1786970D01*
G01X-1110569Y-1783940D01*
G01X-1109660Y-1781212D01*
G01X-1106024Y-1771515D01*
G01X-1105115Y-1768788D01*
G01X-1103903Y-1765758D01*
G01X-1100487Y-1756364D01*
G01X-1080569Y-1756364D01*
G01X-1080569Y-1758182D01*
G01X-1058751Y-1758485D01*
G01X-1037236Y-1758485D01*
G01X-1037539Y-1756970D01*
G01X-1038448Y-1753939D01*
G01X-1039660Y-1750606D01*
G01X-1044508Y-1736061D01*
G01X-1045721Y-1733030D01*
G01X-1051175Y-1716667D01*
G01X-1052993Y-1711818D01*
G01X-1057539Y-1698182D01*
G01X-1058448Y-1695758D01*
G01X-1058978Y-1695227D01*
G01X-1059357Y-1695455D01*
G01X-1060266Y-1697273D01*
G01X-1062084Y-1702727D01*
G01X-1063296Y-1705758D01*
G01X-1069357Y-1723939D01*
G01X-1070569Y-1726970D01*
G01X-1076024Y-1743333D01*
G01X-1077842Y-1748182D01*
G01X-1080569Y-1756364D01*
G01X-1080569Y-1756364D01*
G01X-1100487Y-1756364D01*
G01X-1099054Y-1752424D01*
G01X-1097842Y-1749394D01*
G01X-1096933Y-1746667D01*
G01X-1093297Y-1736970D01*
G01X-1092387Y-1734242D01*
G01X-1091175Y-1731212D01*
G01X-1086327Y-1717879D01*
G01X-1085115Y-1714848D01*
G01X-1084206Y-1712121D01*
G01X-1080569Y-1702424D01*
G01X-1079660Y-1699697D01*
G01X-1077842Y-1694849D01*
G01X-1076630Y-1691818D01*
G01X-1071781Y-1678485D01*
G01X-1070569Y-1675455D01*
G01X-1069660Y-1672727D01*
G01X-1067842Y-1667879D01*
G01X-1067539Y-1666364D01*
G01X-1059357Y-1666364D01*
G01X-1052993Y-1666667D01*
G01X-1050266Y-1667576D01*
G01X-1049054Y-1670303D01*
G01X-1045418Y-1680000D01*
G01X-1044508Y-1682727D01*
G01X-1043296Y-1685758D01*
G01X-1038448Y-1699091D01*
G01X-1037236Y-1702121D01*
G01X-1036327Y-1704849D01*
G01X-1032690Y-1714545D01*
G01X-1031781Y-1717273D01*
G01X-1030569Y-1720303D01*
G01X-1025721Y-1733636D01*
G01X-1024508Y-1736667D01*
G01X-1023599Y-1739394D01*
G01X-1019963Y-1749091D01*
G01X-1019054Y-1751818D01*
G01X-1017842Y-1754849D01*
G01X-1012993Y-1768182D01*
G01X-1011781Y-1771212D01*
G01X-1010872Y-1773940D01*
G01X-1007236Y-1783637D01*
G01X-1006327Y-1786364D01*
G01X-1005115Y-1789394D01*
G01X-1002690Y-1796061D01*
G01X-1001478Y-1799091D01*
G01X-1000569Y-1801818D01*
G01X-998751Y-1806667D01*
G01X-998448Y-1808182D01*
G01X-1019660Y-1808182D01*
G01X-1020266Y-1806667D01*
G01X-1021478Y-1803333D01*
G01X-1023902Y-1796061D01*
G01X-1025115Y-1793030D01*
G01X-1028751Y-1782121D01*
G01X-1029660Y-1779091D01*
G01X-1029963Y-1777273D01*
G01X-1057539Y-1777273D01*
G01X-1086630Y-1777576D01*
G01X-1087842Y-1778182D01*
G01X-1088448Y-1779394D01*
G01X-1089357Y-1782121D01*
G01X-1090569Y-1785152D01*
G01X-1095418Y-1799697D01*
G01X-1097842Y-1806364D01*
G01X-1098448Y-1808182D01*
G01X-1109054Y-1808182D01*
G01X-1116933Y-1808030D01*
G37*
G36*
G01X-2068145Y-1810000D02*
G01X-2073297Y-1809697D01*
G01X-2075418Y-1809394D01*
G01X-2078145Y-1809091D01*
G01X-2081782Y-1808485D01*
G01X-2085721Y-1807576D01*
G01X-2088448Y-1806667D01*
G01X-2090873Y-1805758D01*
G01X-2095721Y-1803333D01*
G01X-2098145Y-1801818D01*
G01X-2101176Y-1799697D01*
G01X-2103600Y-1797879D01*
G01X-2108145Y-1793333D01*
G01X-2111176Y-1789091D01*
G01X-2112691Y-1786667D01*
G01X-2114206Y-1783940D01*
G01X-2115418Y-1781212D01*
G01X-2116630Y-1777879D01*
G01X-2117539Y-1775152D01*
G01X-2118751Y-1768485D01*
G01X-2119054Y-1740000D01*
G01X-2118751Y-1710909D01*
G01X-2118145Y-1706667D01*
G01X-2117236Y-1701818D01*
G01X-2116024Y-1697576D01*
G01X-2114812Y-1694546D01*
G01X-2112994Y-1690303D01*
G01X-2111782Y-1688182D01*
G01X-2110267Y-1685758D01*
G01X-2108751Y-1683636D01*
G01X-2106327Y-1680606D01*
G01X-2101176Y-1675455D01*
G01X-2098145Y-1673333D01*
G01X-2096024Y-1671818D01*
G01X-2093903Y-1670606D01*
G01X-2091479Y-1669394D01*
G01X-2089358Y-1668485D01*
G01X-2086933Y-1667576D01*
G01X-2083903Y-1666667D01*
G01X-2081176Y-1666061D01*
G01X-2076933Y-1665455D01*
G01X-2071176Y-1665152D01*
G01X-2064206Y-1665455D01*
G01X-2060570Y-1666061D01*
G01X-2058145Y-1666667D01*
G01X-2055115Y-1667273D01*
G01X-2052085Y-1668182D01*
G01X-2049358Y-1669394D01*
G01X-2046024Y-1670909D01*
G01X-2042994Y-1672727D01*
G01X-2040873Y-1674243D01*
G01X-2036327Y-1677879D01*
G01X-2033297Y-1680909D01*
G01X-2030873Y-1683939D01*
G01X-2029054Y-1686061D01*
G01X-2027236Y-1688788D01*
G01X-2025721Y-1691515D01*
G01X-2024509Y-1693939D01*
G01X-2021782Y-1701212D01*
G01X-2021176Y-1703636D01*
G01X-2020873Y-1705758D01*
G01X-2023373Y-1706667D01*
G01X-2030873Y-1706970D01*
G01X-2041782Y-1706364D01*
G01X-2042994Y-1704242D01*
G01X-2043903Y-1701818D01*
G01X-2045115Y-1699394D01*
G01X-2046327Y-1697273D01*
G01X-2047539Y-1695455D01*
G01X-2049055Y-1693636D01*
G01X-2052085Y-1690606D01*
G01X-2054206Y-1689091D01*
G01X-2056327Y-1687879D01*
G01X-2058145Y-1686970D01*
G01X-2060873Y-1685758D01*
G01X-2063600Y-1684849D01*
G01X-2068448Y-1684546D01*
G01X-2074509Y-1684849D01*
G01X-2078448Y-1685758D01*
G01X-2081782Y-1686970D01*
G01X-2084206Y-1688182D01*
G01X-2086327Y-1689394D01*
G01X-2088145Y-1690909D01*
G01X-2091782Y-1694546D01*
G01X-2093600Y-1697273D01*
G01X-2094812Y-1699394D01*
G01X-2096024Y-1701818D01*
G01X-2097236Y-1705455D01*
G01X-2098145Y-1708485D01*
G01X-2098751Y-1713333D01*
G01X-2099054Y-1737273D01*
G01X-2098751Y-1762424D01*
G01X-2098145Y-1766667D01*
G01X-2097236Y-1770909D01*
G01X-2096024Y-1773940D01*
G01X-2094812Y-1776364D01*
G01X-2093600Y-1778485D01*
G01X-2092085Y-1780606D01*
G01X-2090267Y-1782727D01*
G01X-2085721Y-1786364D01*
G01X-2083297Y-1787576D01*
G01X-2080267Y-1788788D01*
G01X-2076933Y-1789697D01*
G01X-2073903Y-1790303D01*
G01X-2069964Y-1790606D01*
G01X-2066024Y-1790303D01*
G01X-2063903Y-1790000D01*
G01X-2060570Y-1789394D01*
G01X-2056933Y-1788182D01*
G01X-2053903Y-1786667D01*
G01X-2049661Y-1783637D01*
G01X-2047539Y-1781818D01*
G01X-2045721Y-1779394D01*
G01X-2043903Y-1776667D01*
G01X-2042691Y-1774243D01*
G01X-2041479Y-1770909D01*
G01X-2040570Y-1767879D01*
G01X-2039964Y-1763636D01*
G01X-2039661Y-1756970D01*
G01X-2039661Y-1751212D01*
G01X-2052691Y-1751212D01*
G01X-2067236Y-1750909D01*
G01X-2068752Y-1750606D01*
G01X-2068752Y-1742727D01*
G01X-2068448Y-1733333D01*
G01X-2068145Y-1731818D01*
G01X-2019054Y-1731818D01*
G01X-2019054Y-1744242D01*
G01X-2019357Y-1757576D01*
G01X-2019660Y-1761212D01*
G01X-2019963Y-1765455D01*
G01X-2020570Y-1769091D01*
G01X-2021176Y-1772121D01*
G01X-2021782Y-1774849D01*
G01X-2022691Y-1777879D01*
G01X-2023903Y-1780606D01*
G01X-2025115Y-1783637D01*
G01X-2026327Y-1786061D01*
G01X-2027842Y-1788485D01*
G01X-2029358Y-1790606D01*
G01X-2030267Y-1792121D01*
G01X-2032691Y-1795152D01*
G01X-2034206Y-1796667D01*
G01X-2036024Y-1798182D01*
G01X-2037539Y-1799697D01*
G01X-2039661Y-1801212D01*
G01X-2044509Y-1804243D01*
G01X-2047236Y-1805758D01*
G01X-2050570Y-1806970D01*
G01X-2054206Y-1808182D01*
G01X-2058752Y-1809091D01*
G01X-2062388Y-1809697D01*
G01X-2068145Y-1810000D01*
G37*
G36*
G01X-2003600Y-1807955D02*
G01X-2006024Y-1807273D01*
G01X-2005115Y-1805152D01*
G01X-2004206Y-1802424D01*
G01X-2000570Y-1792727D01*
G01X-1999660Y-1790000D01*
G01X-1997842Y-1785152D01*
G01X-1996630Y-1782121D01*
G01X-1989357Y-1762121D01*
G01X-1988145Y-1759091D01*
G01X-1987236Y-1756364D01*
G01X-1967236Y-1756364D01*
G01X-1967236Y-1758182D01*
G01X-1945418Y-1758485D01*
G01X-1929358Y-1758258D01*
G01X-1924206Y-1757576D01*
G01X-1924812Y-1755152D01*
G01X-1929358Y-1741515D01*
G01X-1930570Y-1738485D01*
G01X-1935418Y-1723939D01*
G01X-1937842Y-1717273D01*
G01X-1942691Y-1702727D01*
G01X-1943903Y-1699697D01*
G01X-1945191Y-1695379D01*
G01X-1945721Y-1695152D01*
G01X-1946933Y-1697273D01*
G01X-1949358Y-1703939D01*
G01X-1954206Y-1718485D01*
G01X-1955418Y-1721515D01*
G01X-1960873Y-1737879D01*
G01X-1962691Y-1742727D01*
G01X-1967236Y-1756364D01*
G01X-1967236Y-1756364D01*
G01X-1987236Y-1756364D01*
G01X-1983600Y-1746667D01*
G01X-1982691Y-1743939D01*
G01X-1980873Y-1739091D01*
G01X-1979661Y-1736061D01*
G01X-1974812Y-1722727D01*
G01X-1973600Y-1719697D01*
G01X-1972691Y-1716970D01*
G01X-1969054Y-1707273D01*
G01X-1968145Y-1704545D01*
G01X-1966933Y-1701515D01*
G01X-1962085Y-1688182D01*
G01X-1960873Y-1685152D01*
G01X-1959964Y-1682424D01*
G01X-1956327Y-1672727D01*
G01X-1955418Y-1670000D01*
G01X-1954509Y-1667576D01*
G01X-1952388Y-1666667D01*
G01X-1946630Y-1666364D01*
G01X-1938145Y-1666667D01*
G01X-1936630Y-1667879D01*
G01X-1935721Y-1670303D01*
G01X-1934812Y-1673030D01*
G01X-1933600Y-1676061D01*
G01X-1928751Y-1689394D01*
G01X-1927539Y-1692424D01*
G01X-1926630Y-1695152D01*
G01X-1922994Y-1704849D01*
G01X-1922085Y-1707576D01*
G01X-1920873Y-1710606D01*
G01X-1916024Y-1723939D01*
G01X-1914812Y-1726970D01*
G01X-1913903Y-1729697D01*
G01X-1910266Y-1739394D01*
G01X-1909357Y-1742121D01*
G01X-1907539Y-1746970D01*
G01X-1906327Y-1750000D01*
G01X-1901479Y-1763333D01*
G01X-1900266Y-1766364D01*
G01X-1899357Y-1769091D01*
G01X-1897539Y-1773940D01*
G01X-1896630Y-1776667D01*
G01X-1895418Y-1779697D01*
G01X-1892994Y-1786364D01*
G01X-1891782Y-1789394D01*
G01X-1890873Y-1792121D01*
G01X-1887236Y-1801818D01*
G01X-1886327Y-1804546D01*
G01X-1885418Y-1806970D01*
G01X-1885115Y-1808182D01*
G01X-1895721Y-1808182D01*
G01X-1903751Y-1807955D01*
G01X-1906630Y-1807273D01*
G01X-1907539Y-1805152D01*
G01X-1909357Y-1799697D01*
G01X-1910569Y-1796667D01*
G01X-1915418Y-1782121D01*
G01X-1916630Y-1778788D01*
G01X-1917236Y-1777273D01*
G01X-1945418Y-1777273D01*
G01X-1974206Y-1777879D01*
G01X-1975418Y-1779697D01*
G01X-1980873Y-1796061D01*
G01X-1982085Y-1799091D01*
G01X-1985115Y-1808182D01*
G01X-1995721Y-1808182D01*
G01X-2003600Y-1807955D01*
G37*
G36*
G01X-1846933Y-1808182D02*
G01X-1846933Y-1685152D01*
G01X-1886933Y-1685152D01*
G01X-1886933Y-1666364D01*
G01X-1786933Y-1666364D01*
G01X-1786933Y-1685152D01*
G01X-1826933Y-1685152D01*
G01X-1826933Y-1808182D01*
G01X-1846933Y-1808182D01*
G37*
G36*
G01X-1766933Y-1808182D02*
G01X-1766933Y-1666364D01*
G01X-1676024Y-1666364D01*
G01X-1676024Y-1685152D01*
G01X-1746933Y-1685152D01*
G01X-1746933Y-1728788D01*
G01X-1686933Y-1728788D01*
G01X-1686933Y-1747576D01*
G01X-1746933Y-1747576D01*
G01X-1746933Y-1789394D01*
G01X-1676024Y-1789394D01*
G01X-1676024Y-1808182D01*
G01X-1766933Y-1808182D01*
G37*
G36*
G01X-1649357Y-1748788D02*
G01X-1649357Y-1730000D01*
G01X-1583903Y-1730000D01*
G01X-1583903Y-1748788D01*
G01X-1649357Y-1748788D01*
G37*
G36*
G01X-1504812Y-1810000D02*
G01X-1511782Y-1809697D01*
G01X-1513903Y-1809091D01*
G01X-1516327Y-1808788D01*
G01X-1519054Y-1808182D01*
G01X-1524509Y-1806364D01*
G01X-1527236Y-1805152D01*
G01X-1530266Y-1803636D01*
G01X-1532691Y-1802121D01*
G01X-1534509Y-1801212D01*
G01X-1536024Y-1800000D01*
G01X-1537539Y-1798485D01*
G01X-1540569Y-1796061D01*
G01X-1542994Y-1793030D01*
G01X-1544509Y-1791515D01*
G01X-1545721Y-1789697D01*
G01X-1548145Y-1785455D01*
G01X-1549357Y-1783030D01*
G01X-1550569Y-1780303D01*
G01X-1552388Y-1774849D01*
G01X-1553297Y-1771212D01*
G01X-1553903Y-1767879D01*
G01X-1554509Y-1760000D01*
G01X-1554812Y-1738485D01*
G01X-1554782Y-1736364D01*
G01X-1534206Y-1736364D01*
G01X-1533903Y-1762424D01*
G01X-1533600Y-1764849D01*
G01X-1532994Y-1768485D01*
G01X-1531782Y-1772121D01*
G01X-1530569Y-1774849D01*
G01X-1529357Y-1776970D01*
G01X-1527842Y-1779394D01*
G01X-1526024Y-1781515D01*
G01X-1522388Y-1785152D01*
G01X-1519357Y-1786970D01*
G01X-1516630Y-1788182D01*
G01X-1514206Y-1789091D01*
G01X-1512085Y-1789697D01*
G01X-1506630Y-1790000D01*
G01X-1506630Y-1790000D01*
G01X-1499357Y-1789697D01*
G01X-1494812Y-1788788D01*
G01X-1492084Y-1787576D01*
G01X-1489660Y-1786364D01*
G01X-1487539Y-1785152D01*
G01X-1485721Y-1783940D01*
G01X-1483296Y-1781818D01*
G01X-1481478Y-1779394D01*
G01X-1479963Y-1777273D01*
G01X-1478448Y-1774546D01*
G01X-1477236Y-1771818D01*
G01X-1476327Y-1768788D01*
G01X-1475721Y-1766061D01*
G01X-1475418Y-1738485D01*
G01X-1475721Y-1710303D01*
G01X-1476327Y-1707273D01*
G01X-1477236Y-1703939D01*
G01X-1478448Y-1700606D01*
G01X-1479963Y-1697879D01*
G01X-1481175Y-1695758D01*
G01X-1482387Y-1694242D01*
G01X-1485418Y-1691212D01*
G01X-1487842Y-1689394D01*
G01X-1490872Y-1687576D01*
G01X-1493600Y-1686364D01*
G01X-1496933Y-1685455D01*
G01X-1499963Y-1684849D01*
G01X-1502994Y-1684546D01*
G01X-1507236Y-1684849D01*
G01X-1511479Y-1685455D01*
G01X-1515418Y-1686364D01*
G01X-1518145Y-1687576D01*
G01X-1520266Y-1688788D01*
G01X-1522085Y-1690000D01*
G01X-1524206Y-1691515D01*
G01X-1526327Y-1693333D01*
G01X-1527539Y-1694849D01*
G01X-1529054Y-1696970D01*
G01X-1530569Y-1699394D01*
G01X-1531479Y-1701515D01*
G01X-1532388Y-1703939D01*
G01X-1533297Y-1707273D01*
G01X-1533903Y-1710303D01*
G01X-1534206Y-1736364D01*
G01X-1554782Y-1736364D01*
G01X-1554509Y-1716970D01*
G01X-1554206Y-1713939D01*
G01X-1553903Y-1709091D01*
G01X-1553297Y-1705455D01*
G01X-1552994Y-1703333D01*
G01X-1552388Y-1700909D01*
G01X-1551478Y-1697879D01*
G01X-1550569Y-1695152D01*
G01X-1548145Y-1689697D01*
G01X-1545115Y-1684849D01*
G01X-1541479Y-1680000D01*
G01X-1538448Y-1676970D01*
G01X-1536327Y-1675152D01*
G01X-1532085Y-1672121D01*
G01X-1526630Y-1669394D01*
G01X-1524509Y-1668485D01*
G01X-1522085Y-1667576D01*
G01X-1519054Y-1666667D01*
G01X-1516327Y-1666061D01*
G01X-1512085Y-1665455D01*
G01X-1505721Y-1665152D01*
G01X-1498751Y-1665455D01*
G01X-1491478Y-1666667D01*
G01X-1488145Y-1667576D01*
G01X-1484812Y-1668788D01*
G01X-1481781Y-1670000D01*
G01X-1478751Y-1671515D01*
G01X-1476024Y-1673333D01*
G01X-1473903Y-1674546D01*
G01X-1472387Y-1675758D01*
G01X-1466327Y-1681818D01*
G01X-1465115Y-1683333D01*
G01X-1463600Y-1685455D01*
G01X-1462084Y-1687879D01*
G01X-1459054Y-1693939D01*
G01X-1457842Y-1697273D01*
G01X-1456933Y-1700000D01*
G01X-1455721Y-1706061D01*
G01X-1455115Y-1710909D01*
G01X-1454812Y-1735758D01*
G01X-1455115Y-1762424D01*
G01X-1455721Y-1767273D01*
G01X-1456327Y-1770909D01*
G01X-1457539Y-1775758D01*
G01X-1458448Y-1778788D01*
G01X-1460872Y-1784243D01*
G01X-1462084Y-1786667D01*
G01X-1463600Y-1789091D01*
G01X-1466630Y-1793333D01*
G01X-1468448Y-1795455D01*
G01X-1472084Y-1799091D01*
G01X-1475115Y-1801212D01*
G01X-1477842Y-1803030D01*
G01X-1480569Y-1804546D01*
G01X-1482993Y-1805758D01*
G01X-1485418Y-1806667D01*
G01X-1488145Y-1807576D01*
G01X-1491175Y-1808485D01*
G01X-1493903Y-1809091D01*
G01X-1498145Y-1809697D01*
G01X-1504812Y-1810000D01*
G37*
G36*
G01X-1378751Y-1810000D02*
G01X-1385418Y-1809697D01*
G01X-1391478Y-1808485D01*
G01X-1393903Y-1807879D01*
G01X-1396630Y-1807273D01*
G01X-1399357Y-1806364D01*
G01X-1404812Y-1803939D01*
G01X-1406933Y-1802727D01*
G01X-1410569Y-1800303D01*
G01X-1412388Y-1798788D01*
G01X-1416933Y-1794243D01*
G01X-1418751Y-1792121D01*
G01X-1420569Y-1789394D01*
G01X-1422085Y-1786667D01*
G01X-1423297Y-1784243D01*
G01X-1424509Y-1781515D01*
G01X-1426630Y-1775152D01*
G01X-1427842Y-1767879D01*
G01X-1428145Y-1716667D01*
G01X-1428145Y-1666364D01*
G01X-1408751Y-1666364D01*
G01X-1408751Y-1712424D01*
G01X-1408448Y-1759394D01*
G01X-1407842Y-1765455D01*
G01X-1407539Y-1767576D01*
G01X-1406933Y-1770000D01*
G01X-1406024Y-1772727D01*
G01X-1405115Y-1775152D01*
G01X-1403903Y-1777273D01*
G01X-1401478Y-1780909D01*
G01X-1399357Y-1783333D01*
G01X-1396933Y-1785152D01*
G01X-1395418Y-1786364D01*
G01X-1393297Y-1787576D01*
G01X-1389963Y-1788788D01*
G01X-1387236Y-1789697D01*
G01X-1379963Y-1790303D01*
G01X-1378448Y-1790303D01*
G01X-1375418Y-1790000D01*
G01X-1372084Y-1789697D01*
G01X-1369054Y-1789091D01*
G01X-1366024Y-1788182D01*
G01X-1363600Y-1786970D01*
G01X-1360872Y-1785455D01*
G01X-1358751Y-1783940D01*
G01X-1355721Y-1780909D01*
G01X-1353903Y-1778788D01*
G01X-1352387Y-1776364D01*
G01X-1351478Y-1774243D01*
G01X-1350569Y-1771818D01*
G01X-1349660Y-1768788D01*
G01X-1349054Y-1766061D01*
G01X-1348751Y-1715758D01*
G01X-1348751Y-1666364D01*
G01X-1328751Y-1666364D01*
G01X-1328751Y-1714848D01*
G01X-1329054Y-1764243D01*
G01X-1329357Y-1766364D01*
G01X-1329660Y-1769091D01*
G01X-1330266Y-1772121D01*
G01X-1330872Y-1774546D01*
G01X-1331478Y-1777273D01*
G01X-1332387Y-1780303D01*
G01X-1333600Y-1783333D01*
G01X-1335115Y-1786667D01*
G01X-1336933Y-1789697D01*
G01X-1338448Y-1791818D01*
G01X-1339660Y-1793636D01*
G01X-1341175Y-1795455D01*
G01X-1344812Y-1799091D01*
G01X-1347236Y-1800909D01*
G01X-1349357Y-1802424D01*
G01X-1352084Y-1803939D01*
G01X-1354509Y-1805152D01*
G01X-1357236Y-1806364D01*
G01X-1360872Y-1807576D01*
G01X-1364206Y-1808485D01*
G01X-1366630Y-1809091D01*
G01X-1372690Y-1809697D01*
G01X-1378751Y-1810000D01*
G37*
G36*
G01X-1274812Y-1808182D02*
G01X-1274812Y-1685152D01*
G01X-1314812Y-1685152D01*
G01X-1314812Y-1666364D01*
G01X-1214812Y-1666364D01*
G01X-1214812Y-1685152D01*
G01X-1254812Y-1685152D01*
G01X-1254812Y-1808182D01*
G01X-1274812Y-1808182D01*
G37*
G36*
G01X-1200872Y-1748788D02*
G01X-1200872Y-1730000D01*
G01X-1135418Y-1730000D01*
G01X-1135418Y-1748788D01*
G01X-1200872Y-1748788D01*
G37*
G36*
G01X382604Y-1808182D02*
G01X382604Y-1766970D01*
G01X402604Y-1766970D01*
G01X402907Y-1789697D01*
G01X420179Y-1790000D01*
G01X438058Y-1789697D01*
G01X440786Y-1789394D01*
G01X444725Y-1788788D01*
G01X447755Y-1787879D01*
G01X450179Y-1786970D01*
G01X453210Y-1785455D01*
G01X455331Y-1783637D01*
G01X456846Y-1782121D01*
G01X458361Y-1780303D01*
G01X459876Y-1777576D01*
G01X461088Y-1774243D01*
G01X461695Y-1771515D01*
G01X461998Y-1768485D01*
G01X461695Y-1765455D01*
G01X461392Y-1763333D01*
G01X460785Y-1760000D01*
G01X459573Y-1756364D01*
G01X458058Y-1753636D01*
G01X456846Y-1751515D01*
G01X455028Y-1749394D01*
G01X452301Y-1747576D01*
G01X449876Y-1746364D01*
G01X446543Y-1745454D01*
G01X443513Y-1744848D01*
G01X422604Y-1744545D01*
G01X402604Y-1744545D01*
G01X402604Y-1766970D01*
G01X402604Y-1766970D01*
G01X382604Y-1766970D01*
G01X382604Y-1705758D01*
G01X402604Y-1705758D01*
G01X402907Y-1726667D01*
G01X419876Y-1726970D01*
G01X437452Y-1726667D01*
G01X439876Y-1726364D01*
G01X442907Y-1726061D01*
G01X445937Y-1725455D01*
G01X448967Y-1724545D01*
G01X451392Y-1723333D01*
G01X453816Y-1721818D01*
G01X456240Y-1719394D01*
G01X457755Y-1716970D01*
G01X458967Y-1713939D01*
G01X459876Y-1709091D01*
G01X459876Y-1705455D01*
G01X459573Y-1703333D01*
G01X459270Y-1700606D01*
G01X458664Y-1698182D01*
G01X457755Y-1695758D01*
G01X456543Y-1693636D01*
G01X455634Y-1692121D01*
G01X453816Y-1690000D01*
G01X450785Y-1688182D01*
G01X448058Y-1686970D01*
G01X445331Y-1686061D01*
G01X442907Y-1685455D01*
G01X422301Y-1685152D01*
G01X402604Y-1685152D01*
G01X402604Y-1705758D01*
G01X402604Y-1705758D01*
G01X382604Y-1705758D01*
G01X382604Y-1666364D01*
G01X411695Y-1666364D01*
G01X441695Y-1666667D01*
G01X444422Y-1666970D01*
G01X447755Y-1667273D01*
G01X450785Y-1667879D01*
G01X453210Y-1668485D01*
G01X455937Y-1669091D01*
G01X458664Y-1670000D01*
G01X463513Y-1672424D01*
G01X465937Y-1673940D01*
G01X468058Y-1675455D01*
G01X469573Y-1676667D01*
G01X471088Y-1678182D01*
G01X472907Y-1680606D01*
G01X474725Y-1683333D01*
G01X475937Y-1685455D01*
G01X477149Y-1687879D01*
G01X478058Y-1690303D01*
G01X479270Y-1695152D01*
G01X479876Y-1699394D01*
G01X480179Y-1703333D01*
G01X479876Y-1707273D01*
G01X479270Y-1710909D01*
G01X478361Y-1715152D01*
G01X477149Y-1718182D01*
G01X475634Y-1721212D01*
G01X474119Y-1723636D01*
G01X472907Y-1725455D01*
G01X468361Y-1730000D01*
G01X466240Y-1731515D01*
G01X463816Y-1732727D01*
G01X461695Y-1733636D01*
G01X458967Y-1734545D01*
G01X456846Y-1735454D01*
G01X457073Y-1736061D01*
G01X458361Y-1736667D01*
G01X461392Y-1737879D01*
G01X463816Y-1738788D01*
G01X466240Y-1740000D01*
G01X468664Y-1741515D01*
G01X470482Y-1743030D01*
G01X473513Y-1746061D01*
G01X475331Y-1748485D01*
G01X477149Y-1751212D01*
G01X478361Y-1753333D01*
G01X479573Y-1756061D01*
G01X480482Y-1758788D01*
G01X481694Y-1764849D01*
G01X481998Y-1768485D01*
G01X481694Y-1773334D01*
G01X481088Y-1777576D01*
G01X480482Y-1780606D01*
G01X479876Y-1783030D01*
G01X478967Y-1785455D01*
G01X476240Y-1790909D01*
G01X474119Y-1793940D01*
G01X472301Y-1796364D01*
G01X470179Y-1798485D01*
G01X467755Y-1800303D01*
G01X465634Y-1801818D01*
G01X463210Y-1803333D01*
G01X460785Y-1804546D01*
G01X458058Y-1805758D01*
G01X455634Y-1806667D01*
G01X449573Y-1807879D01*
G01X415634Y-1808182D01*
G01X382604Y-1808182D01*
G37*
G36*
G01X-582245Y-1810000D02*
G01X-587397Y-1809697D01*
G01X-589518Y-1809394D01*
G01X-592245Y-1809091D01*
G01X-595882Y-1808485D01*
G01X-599821Y-1807576D01*
G01X-602548Y-1806667D01*
G01X-604973Y-1805758D01*
G01X-609821Y-1803333D01*
G01X-612245Y-1801818D01*
G01X-615276Y-1799697D01*
G01X-617700Y-1797879D01*
G01X-622245Y-1793333D01*
G01X-625276Y-1789091D01*
G01X-626791Y-1786667D01*
G01X-628306Y-1783940D01*
G01X-629518Y-1781212D01*
G01X-630730Y-1777879D01*
G01X-631639Y-1775152D01*
G01X-632851Y-1768485D01*
G01X-633154Y-1740000D01*
G01X-632851Y-1710909D01*
G01X-632245Y-1706667D01*
G01X-631336Y-1701818D01*
G01X-630124Y-1697576D01*
G01X-628912Y-1694546D01*
G01X-627094Y-1690303D01*
G01X-625882Y-1688182D01*
G01X-624367Y-1685758D01*
G01X-622851Y-1683636D01*
G01X-620427Y-1680606D01*
G01X-615276Y-1675455D01*
G01X-612245Y-1673333D01*
G01X-610124Y-1671818D01*
G01X-608003Y-1670606D01*
G01X-605579Y-1669394D01*
G01X-603458Y-1668485D01*
G01X-601033Y-1667576D01*
G01X-598003Y-1666667D01*
G01X-595276Y-1666061D01*
G01X-591033Y-1665455D01*
G01X-585276Y-1665152D01*
G01X-578306Y-1665455D01*
G01X-574670Y-1666061D01*
G01X-572245Y-1666667D01*
G01X-569215Y-1667273D01*
G01X-566185Y-1668182D01*
G01X-563458Y-1669394D01*
G01X-560124Y-1670909D01*
G01X-557094Y-1672727D01*
G01X-554973Y-1674243D01*
G01X-550427Y-1677879D01*
G01X-547397Y-1680909D01*
G01X-544973Y-1683939D01*
G01X-543154Y-1686061D01*
G01X-541336Y-1688788D01*
G01X-539821Y-1691515D01*
G01X-538609Y-1693939D01*
G01X-535882Y-1701212D01*
G01X-535276Y-1703636D01*
G01X-534973Y-1705758D01*
G01X-537473Y-1706667D01*
G01X-544973Y-1706970D01*
G01X-555882Y-1706364D01*
G01X-557094Y-1704242D01*
G01X-558003Y-1701818D01*
G01X-559215Y-1699394D01*
G01X-560427Y-1697273D01*
G01X-561639Y-1695455D01*
G01X-563155Y-1693636D01*
G01X-566185Y-1690606D01*
G01X-568306Y-1689091D01*
G01X-570427Y-1687879D01*
G01X-572245Y-1686970D01*
G01X-574973Y-1685758D01*
G01X-577700Y-1684849D01*
G01X-582548Y-1684546D01*
G01X-588609Y-1684849D01*
G01X-592548Y-1685758D01*
G01X-595882Y-1686970D01*
G01X-598306Y-1688182D01*
G01X-600427Y-1689394D01*
G01X-602245Y-1690909D01*
G01X-605882Y-1694546D01*
G01X-607700Y-1697273D01*
G01X-608912Y-1699394D01*
G01X-610124Y-1701818D01*
G01X-611336Y-1705455D01*
G01X-612245Y-1708485D01*
G01X-612851Y-1713333D01*
G01X-613154Y-1737273D01*
G01X-612851Y-1762424D01*
G01X-612245Y-1766667D01*
G01X-611336Y-1770909D01*
G01X-610124Y-1773940D01*
G01X-608912Y-1776364D01*
G01X-607700Y-1778485D01*
G01X-606185Y-1780606D01*
G01X-604367Y-1782727D01*
G01X-599821Y-1786364D01*
G01X-597397Y-1787576D01*
G01X-594367Y-1788788D01*
G01X-591033Y-1789697D01*
G01X-588003Y-1790303D01*
G01X-584064Y-1790606D01*
G01X-580124Y-1790303D01*
G01X-578003Y-1790000D01*
G01X-574670Y-1789394D01*
G01X-571033Y-1788182D01*
G01X-568003Y-1786667D01*
G01X-563761Y-1783637D01*
G01X-561639Y-1781818D01*
G01X-559821Y-1779394D01*
G01X-558003Y-1776667D01*
G01X-556791Y-1774243D01*
G01X-555579Y-1770909D01*
G01X-554670Y-1767879D01*
G01X-554064Y-1763636D01*
G01X-553761Y-1756970D01*
G01X-553761Y-1751212D01*
G01X-566791Y-1751212D01*
G01X-581336Y-1750909D01*
G01X-582852Y-1750606D01*
G01X-582852Y-1742727D01*
G01X-582548Y-1733333D01*
G01X-582245Y-1731818D01*
G01X-533154Y-1731818D01*
G01X-533154Y-1744242D01*
G01X-533457Y-1757576D01*
G01X-533760Y-1761212D01*
G01X-534063Y-1765455D01*
G01X-534670Y-1769091D01*
G01X-535276Y-1772121D01*
G01X-535882Y-1774849D01*
G01X-536791Y-1777879D01*
G01X-538003Y-1780606D01*
G01X-539215Y-1783637D01*
G01X-540427Y-1786061D01*
G01X-541942Y-1788485D01*
G01X-543458Y-1790606D01*
G01X-544367Y-1792121D01*
G01X-546791Y-1795152D01*
G01X-548306Y-1796667D01*
G01X-550124Y-1798182D01*
G01X-551639Y-1799697D01*
G01X-553761Y-1801212D01*
G01X-558609Y-1804243D01*
G01X-561336Y-1805758D01*
G01X-564670Y-1806970D01*
G01X-568306Y-1808182D01*
G01X-572852Y-1809091D01*
G01X-576488Y-1809697D01*
G01X-582245Y-1810000D01*
G37*
G36*
G01X-517700Y-1807955D02*
G01X-520124Y-1807273D01*
G01X-519215Y-1805152D01*
G01X-518306Y-1802424D01*
G01X-514670Y-1792727D01*
G01X-513760Y-1790000D01*
G01X-511942Y-1785152D01*
G01X-510730Y-1782121D01*
G01X-503457Y-1762121D01*
G01X-502245Y-1759091D01*
G01X-501336Y-1756364D01*
G01X-481336Y-1756364D01*
G01X-481336Y-1758182D01*
G01X-459518Y-1758485D01*
G01X-443458Y-1758258D01*
G01X-438306Y-1757576D01*
G01X-438912Y-1755152D01*
G01X-443458Y-1741515D01*
G01X-444670Y-1738485D01*
G01X-449518Y-1723939D01*
G01X-451942Y-1717273D01*
G01X-456791Y-1702727D01*
G01X-458003Y-1699697D01*
G01X-459291Y-1695379D01*
G01X-459821Y-1695152D01*
G01X-461033Y-1697273D01*
G01X-463458Y-1703939D01*
G01X-468306Y-1718485D01*
G01X-469518Y-1721515D01*
G01X-474973Y-1737879D01*
G01X-476791Y-1742727D01*
G01X-481336Y-1756364D01*
G01X-481336Y-1756364D01*
G01X-501336Y-1756364D01*
G01X-497700Y-1746667D01*
G01X-496791Y-1743939D01*
G01X-494973Y-1739091D01*
G01X-493761Y-1736061D01*
G01X-488912Y-1722727D01*
G01X-487700Y-1719697D01*
G01X-486791Y-1716970D01*
G01X-483154Y-1707273D01*
G01X-482245Y-1704545D01*
G01X-481033Y-1701515D01*
G01X-476185Y-1688182D01*
G01X-474973Y-1685152D01*
G01X-474064Y-1682424D01*
G01X-470427Y-1672727D01*
G01X-469518Y-1670000D01*
G01X-468609Y-1667576D01*
G01X-466488Y-1666667D01*
G01X-460730Y-1666364D01*
G01X-452245Y-1666667D01*
G01X-450730Y-1667879D01*
G01X-449821Y-1670303D01*
G01X-448912Y-1673030D01*
G01X-447700Y-1676061D01*
G01X-442851Y-1689394D01*
G01X-441639Y-1692424D01*
G01X-440730Y-1695152D01*
G01X-437094Y-1704849D01*
G01X-436185Y-1707576D01*
G01X-434973Y-1710606D01*
G01X-430124Y-1723939D01*
G01X-428912Y-1726970D01*
G01X-428003Y-1729697D01*
G01X-424366Y-1739394D01*
G01X-423457Y-1742121D01*
G01X-421639Y-1746970D01*
G01X-420427Y-1750000D01*
G01X-415579Y-1763333D01*
G01X-414366Y-1766364D01*
G01X-413457Y-1769091D01*
G01X-411639Y-1773940D01*
G01X-410730Y-1776667D01*
G01X-409518Y-1779697D01*
G01X-407094Y-1786364D01*
G01X-405882Y-1789394D01*
G01X-404973Y-1792121D01*
G01X-401336Y-1801818D01*
G01X-400427Y-1804546D01*
G01X-399518Y-1806970D01*
G01X-399215Y-1808182D01*
G01X-409821Y-1808182D01*
G01X-417851Y-1807955D01*
G01X-420730Y-1807273D01*
G01X-421639Y-1805152D01*
G01X-423457Y-1799697D01*
G01X-424669Y-1796667D01*
G01X-429518Y-1782121D01*
G01X-430730Y-1778788D01*
G01X-431336Y-1777273D01*
G01X-459518Y-1777273D01*
G01X-488306Y-1777879D01*
G01X-489518Y-1779697D01*
G01X-494973Y-1796061D01*
G01X-496185Y-1799091D01*
G01X-499215Y-1808182D01*
G01X-509821Y-1808182D01*
G01X-517700Y-1807955D01*
G37*
G36*
G01X-361033Y-1808182D02*
G01X-361033Y-1685152D01*
G01X-401033Y-1685152D01*
G01X-401033Y-1666364D01*
G01X-301033Y-1666364D01*
G01X-301033Y-1685152D01*
G01X-341033Y-1685152D01*
G01X-341033Y-1808182D01*
G01X-361033Y-1808182D01*
G37*
G36*
G01X-281033Y-1808182D02*
G01X-281033Y-1666364D01*
G01X-190124Y-1666364D01*
G01X-190124Y-1685152D01*
G01X-261033Y-1685152D01*
G01X-261033Y-1728788D01*
G01X-201033Y-1728788D01*
G01X-201033Y-1747576D01*
G01X-261033Y-1747576D01*
G01X-261033Y-1789394D01*
G01X-190124Y-1789394D01*
G01X-190124Y-1808182D01*
G01X-281033Y-1808182D01*
G37*
G36*
G01X-163457Y-1748788D02*
G01X-163457Y-1730000D01*
G01X-98003Y-1730000D01*
G01X-98003Y-1748788D01*
G01X-163457Y-1748788D01*
G37*
G36*
G01X-18912Y-1810000D02*
G01X-25882Y-1809697D01*
G01X-28003Y-1809091D01*
G01X-30427Y-1808788D01*
G01X-33154Y-1808182D01*
G01X-38609Y-1806364D01*
G01X-41336Y-1805152D01*
G01X-44366Y-1803636D01*
G01X-46791Y-1802121D01*
G01X-48609Y-1801212D01*
G01X-50124Y-1800000D01*
G01X-51639Y-1798485D01*
G01X-54669Y-1796061D01*
G01X-57094Y-1793030D01*
G01X-58609Y-1791515D01*
G01X-59821Y-1789697D01*
G01X-62245Y-1785455D01*
G01X-63457Y-1783030D01*
G01X-64669Y-1780303D01*
G01X-66488Y-1774849D01*
G01X-67397Y-1771212D01*
G01X-68003Y-1767879D01*
G01X-68609Y-1760000D01*
G01X-68912Y-1738485D01*
G01X-68882Y-1736364D01*
G01X-48306Y-1736364D01*
G01X-48003Y-1762424D01*
G01X-47700Y-1764849D01*
G01X-47094Y-1768485D01*
G01X-45882Y-1772121D01*
G01X-44669Y-1774849D01*
G01X-43457Y-1776970D01*
G01X-41942Y-1779394D01*
G01X-40124Y-1781515D01*
G01X-36488Y-1785152D01*
G01X-33457Y-1786970D01*
G01X-30730Y-1788182D01*
G01X-28306Y-1789091D01*
G01X-26185Y-1789697D01*
G01X-20730Y-1790000D01*
G01X-20730Y-1790000D01*
G01X-13457Y-1789697D01*
G01X-8912Y-1788788D01*
G01X-6184Y-1787576D01*
G01X-3760Y-1786364D01*
G01X-1639Y-1785152D01*
G01X179Y-1783940D01*
G01X2604Y-1781818D01*
G01X4422Y-1779394D01*
G01X5937Y-1777273D01*
G01X7452Y-1774546D01*
G01X8664Y-1771818D01*
G01X9573Y-1768788D01*
G01X10179Y-1766061D01*
G01X10482Y-1738485D01*
G01X10179Y-1710303D01*
G01X9573Y-1707273D01*
G01X8664Y-1703939D01*
G01X7452Y-1700606D01*
G01X5937Y-1697879D01*
G01X4725Y-1695758D01*
G01X3513Y-1694242D01*
G01X482Y-1691212D01*
G01X-1942Y-1689394D01*
G01X-4972Y-1687576D01*
G01X-7700Y-1686364D01*
G01X-11033Y-1685455D01*
G01X-14063Y-1684849D01*
G01X-17094Y-1684546D01*
G01X-21336Y-1684849D01*
G01X-25579Y-1685455D01*
G01X-29518Y-1686364D01*
G01X-32245Y-1687576D01*
G01X-34366Y-1688788D01*
G01X-36185Y-1690000D01*
G01X-38306Y-1691515D01*
G01X-40427Y-1693333D01*
G01X-41639Y-1694849D01*
G01X-43154Y-1696970D01*
G01X-44669Y-1699394D01*
G01X-45579Y-1701515D01*
G01X-46488Y-1703939D01*
G01X-47397Y-1707273D01*
G01X-48003Y-1710303D01*
G01X-48306Y-1736364D01*
G01X-68882Y-1736364D01*
G01X-68609Y-1716970D01*
G01X-68306Y-1713939D01*
G01X-68003Y-1709091D01*
G01X-67397Y-1705455D01*
G01X-67094Y-1703333D01*
G01X-66488Y-1700909D01*
G01X-65578Y-1697879D01*
G01X-64669Y-1695152D01*
G01X-62245Y-1689697D01*
G01X-59215Y-1684849D01*
G01X-55579Y-1680000D01*
G01X-52548Y-1676970D01*
G01X-50427Y-1675152D01*
G01X-46185Y-1672121D01*
G01X-40730Y-1669394D01*
G01X-38609Y-1668485D01*
G01X-36185Y-1667576D01*
G01X-33154Y-1666667D01*
G01X-30427Y-1666061D01*
G01X-26185Y-1665455D01*
G01X-19821Y-1665152D01*
G01X-12851Y-1665455D01*
G01X-5578Y-1666667D01*
G01X-2245Y-1667576D01*
G01X1088Y-1668788D01*
G01X4119Y-1670000D01*
G01X7149Y-1671515D01*
G01X9876Y-1673333D01*
G01X11997Y-1674546D01*
G01X13513Y-1675758D01*
G01X19573Y-1681818D01*
G01X20785Y-1683333D01*
G01X22300Y-1685455D01*
G01X23816Y-1687879D01*
G01X26846Y-1693939D01*
G01X28058Y-1697273D01*
G01X28967Y-1700000D01*
G01X30179Y-1706061D01*
G01X30785Y-1710909D01*
G01X31088Y-1735758D01*
G01X30785Y-1762424D01*
G01X30179Y-1767273D01*
G01X29573Y-1770909D01*
G01X28361Y-1775758D01*
G01X27452Y-1778788D01*
G01X25028Y-1784243D01*
G01X23816Y-1786667D01*
G01X22300Y-1789091D01*
G01X19270Y-1793333D01*
G01X17452Y-1795455D01*
G01X13816Y-1799091D01*
G01X10785Y-1801212D01*
G01X8058Y-1803030D01*
G01X5331Y-1804546D01*
G01X2907Y-1805758D01*
G01X482Y-1806667D01*
G01X-2245Y-1807576D01*
G01X-5275Y-1808485D01*
G01X-8003Y-1809091D01*
G01X-12245Y-1809697D01*
G01X-18912Y-1810000D01*
G37*
G36*
G01X107149Y-1810000D02*
G01X100482Y-1809697D01*
G01X94422Y-1808485D01*
G01X91997Y-1807879D01*
G01X89270Y-1807273D01*
G01X86543Y-1806364D01*
G01X81088Y-1803939D01*
G01X78967Y-1802727D01*
G01X75331Y-1800303D01*
G01X73512Y-1798788D01*
G01X68967Y-1794243D01*
G01X67149Y-1792121D01*
G01X65331Y-1789394D01*
G01X63815Y-1786667D01*
G01X62603Y-1784243D01*
G01X61391Y-1781515D01*
G01X59270Y-1775152D01*
G01X58058Y-1767879D01*
G01X57755Y-1716667D01*
G01X57755Y-1666364D01*
G01X77149Y-1666364D01*
G01X77149Y-1712424D01*
G01X77452Y-1759394D01*
G01X78058Y-1765455D01*
G01X78361Y-1767576D01*
G01X78967Y-1770000D01*
G01X79876Y-1772727D01*
G01X80785Y-1775152D01*
G01X81997Y-1777273D01*
G01X84422Y-1780909D01*
G01X86543Y-1783333D01*
G01X88967Y-1785152D01*
G01X90482Y-1786364D01*
G01X92603Y-1787576D01*
G01X95937Y-1788788D01*
G01X98664Y-1789697D01*
G01X105937Y-1790303D01*
G01X107452Y-1790303D01*
G01X110482Y-1790000D01*
G01X113816Y-1789697D01*
G01X116846Y-1789091D01*
G01X119876Y-1788182D01*
G01X122300Y-1786970D01*
G01X125028Y-1785455D01*
G01X127149Y-1783940D01*
G01X130179Y-1780909D01*
G01X131997Y-1778788D01*
G01X133513Y-1776364D01*
G01X134422Y-1774243D01*
G01X135331Y-1771818D01*
G01X136240Y-1768788D01*
G01X136846Y-1766061D01*
G01X137149Y-1715758D01*
G01X137149Y-1666364D01*
G01X157149Y-1666364D01*
G01X157149Y-1714848D01*
G01X156846Y-1764243D01*
G01X156543Y-1766364D01*
G01X156240Y-1769091D01*
G01X155634Y-1772121D01*
G01X155028Y-1774546D01*
G01X154422Y-1777273D01*
G01X153513Y-1780303D01*
G01X152300Y-1783333D01*
G01X150785Y-1786667D01*
G01X148967Y-1789697D01*
G01X147452Y-1791818D01*
G01X146240Y-1793636D01*
G01X144725Y-1795455D01*
G01X141088Y-1799091D01*
G01X138664Y-1800909D01*
G01X136543Y-1802424D01*
G01X133816Y-1803939D01*
G01X131391Y-1805152D01*
G01X128664Y-1806364D01*
G01X125028Y-1807576D01*
G01X121694Y-1808485D01*
G01X119270Y-1809091D01*
G01X113210Y-1809697D01*
G01X107149Y-1810000D01*
G37*
G36*
G01X211088Y-1808182D02*
G01X211088Y-1685152D01*
G01X171088Y-1685152D01*
G01X171088Y-1666364D01*
G01X271088Y-1666364D01*
G01X271088Y-1685152D01*
G01X231088Y-1685152D01*
G01X231088Y-1808182D01*
G01X211088Y-1808182D01*
G37*
G36*
G01X285028Y-1748788D02*
G01X285028Y-1730000D01*
G01X350482Y-1730000D01*
G01X350482Y-1748788D01*
G01X285028Y-1748788D01*
G37*
G36*
G01X1346140Y-1737273D02*
G01X1346140Y-1808182D01*
G01X1365533Y-1808182D01*
G01X1365533Y-1787576D01*
G01X1365761Y-1771970D01*
G01X1366443Y-1766364D01*
G01X1375533Y-1755455D01*
G01X1377958Y-1752424D01*
G01X1384018Y-1745151D01*
G01X1387655Y-1740606D01*
G01X1388109Y-1740000D01*
G01X1388867Y-1740000D01*
G01X1390382Y-1741515D01*
G01X1391594Y-1743636D01*
G01X1393109Y-1746061D01*
G01X1398564Y-1755152D01*
G01X1400079Y-1757879D01*
G01X1401291Y-1760000D01*
G01X1402806Y-1762424D01*
G01X1404624Y-1765455D01*
G01X1406140Y-1767879D01*
G01X1408564Y-1772121D01*
G01X1410079Y-1774546D01*
G01X1413715Y-1780606D01*
G01X1415231Y-1783333D01*
G01X1416443Y-1785455D01*
G01X1417958Y-1787879D01*
G01X1428867Y-1806061D01*
G01X1430685Y-1807879D01*
G01X1442806Y-1808182D01*
G01X1454018Y-1808182D01*
G01X1453715Y-1806970D01*
G01X1452806Y-1805152D01*
G01X1451594Y-1803333D01*
G01X1450382Y-1801212D01*
G01X1448867Y-1798788D01*
G01X1447049Y-1795758D01*
G01X1445534Y-1793030D01*
G01X1444321Y-1790909D01*
G01X1442806Y-1788485D01*
G01X1430079Y-1767273D01*
G01X1428564Y-1764546D01*
G01X1427352Y-1762424D01*
G01X1425837Y-1760000D01*
G01X1413109Y-1738788D01*
G01X1411594Y-1736061D01*
G01X1410382Y-1733939D01*
G01X1408867Y-1731515D01*
G01X1405230Y-1725455D01*
G01X1403715Y-1722727D01*
G01X1403488Y-1721667D01*
G01X1404018Y-1720909D01*
G01X1406443Y-1717879D01*
G01X1409473Y-1714242D01*
G01X1411897Y-1711212D01*
G01X1414928Y-1707576D01*
G01X1417352Y-1704545D01*
G01X1423412Y-1697273D01*
G01X1425837Y-1694242D01*
G01X1431897Y-1686970D01*
G01X1434321Y-1683939D01*
G01X1440382Y-1676667D01*
G01X1442806Y-1673636D01*
G01X1447352Y-1668182D01*
G01X1447958Y-1666667D01*
G01X1436140Y-1666364D01*
G01X1427124Y-1666591D01*
G01X1423715Y-1667273D01*
G01X1421897Y-1669697D01*
G01X1419473Y-1672727D01*
G01X1417655Y-1675152D01*
G01X1410382Y-1684243D01*
G01X1408564Y-1686667D01*
G01X1403715Y-1692727D01*
G01X1401897Y-1695152D01*
G01X1397049Y-1701212D01*
G01X1395230Y-1703636D01*
G01X1390382Y-1709697D01*
G01X1388564Y-1712121D01*
G01X1382503Y-1719697D01*
G01X1380988Y-1721818D01*
G01X1379170Y-1723939D01*
G01X1376139Y-1727576D01*
G01X1374927Y-1729091D01*
G01X1374018Y-1730606D01*
G01X1367958Y-1738182D01*
G01X1366443Y-1739697D01*
G01X1365761Y-1730909D01*
G01X1365533Y-1703333D01*
G01X1365533Y-1666364D01*
G01X1346140Y-1666364D01*
G01X1346140Y-1737273D01*
G37*
G36*
G01X1624928Y-1738788D02*
G01X1624928Y-1808182D01*
G01X1644928Y-1808182D01*
G01X1644928Y-1756667D01*
G01X1645079Y-1718106D01*
G01X1645534Y-1705455D01*
G01X1647049Y-1707273D01*
G01X1650079Y-1712121D01*
G01X1651897Y-1714848D01*
G01X1654928Y-1719697D01*
G01X1656746Y-1722424D01*
G01X1659776Y-1727273D01*
G01X1663412Y-1732727D01*
G01X1665231Y-1735758D01*
G01X1667049Y-1738485D01*
G01X1670079Y-1743333D01*
G01X1671897Y-1746061D01*
G01X1674928Y-1750909D01*
G01X1676746Y-1753636D01*
G01X1679776Y-1758485D01*
G01X1681594Y-1761212D01*
G01X1684625Y-1766061D01*
G01X1688261Y-1771515D01*
G01X1690079Y-1774546D01*
G01X1691897Y-1777273D01*
G01X1694928Y-1782121D01*
G01X1696746Y-1784849D01*
G01X1699776Y-1789697D01*
G01X1703412Y-1795152D01*
G01X1705231Y-1798182D01*
G01X1707049Y-1800909D01*
G01X1710079Y-1805758D01*
G01X1711594Y-1807576D01*
G01X1720988Y-1808182D01*
G01X1729776Y-1808182D01*
G01X1729776Y-1666364D01*
G01X1710382Y-1666364D01*
G01X1710382Y-1718788D01*
G01X1710231Y-1758030D01*
G01X1709776Y-1770909D01*
G01X1708261Y-1769091D01*
G01X1706443Y-1766364D01*
G01X1700382Y-1756667D01*
G01X1698564Y-1753939D01*
G01X1696746Y-1750909D01*
G01X1694928Y-1748182D01*
G01X1688867Y-1738485D01*
G01X1687049Y-1735758D01*
G01X1685231Y-1732727D01*
G01X1682200Y-1727879D01*
G01X1680382Y-1725151D01*
G01X1677352Y-1720303D01*
G01X1675534Y-1717576D01*
G01X1673715Y-1714545D01*
G01X1670685Y-1709697D01*
G01X1667049Y-1704242D01*
G01X1665231Y-1701212D01*
G01X1659170Y-1691515D01*
G01X1657352Y-1688788D01*
G01X1651291Y-1679091D01*
G01X1649473Y-1676364D01*
G01X1647655Y-1673333D01*
G01X1645837Y-1670606D01*
G01X1644322Y-1668182D01*
G01X1643488Y-1667197D01*
G01X1642200Y-1666667D01*
G01X1633110Y-1666364D01*
G01X1625534Y-1666364D01*
G01X1625231Y-1667879D01*
G01X1624928Y-1738788D01*
G37*
G36*
G01X1149170Y-1809697D02*
G01X1155836Y-1810000D01*
G01X1162200Y-1809697D01*
G01X1168867Y-1808485D01*
G01X1171594Y-1807576D01*
G01X1174927Y-1806364D01*
G01X1180988Y-1803333D01*
G01X1183109Y-1802121D01*
G01X1187655Y-1798485D01*
G01X1192200Y-1793940D01*
G01X1194018Y-1791515D01*
G01X1196139Y-1788788D01*
G01X1197655Y-1786364D01*
G01X1198867Y-1784243D01*
G01X1200079Y-1781818D01*
G01X1201291Y-1779091D01*
G01X1202503Y-1776061D01*
G01X1203715Y-1772121D01*
G01X1204624Y-1768788D01*
G01X1204927Y-1767576D01*
G01X1184321Y-1767576D01*
G01X1184018Y-1769394D01*
G01X1182806Y-1772727D01*
G01X1181291Y-1775758D01*
G01X1179473Y-1778788D01*
G01X1177351Y-1781212D01*
G01X1175533Y-1782727D01*
G01X1174018Y-1784243D01*
G01X1172200Y-1785455D01*
G01X1170382Y-1786364D01*
G01X1168261Y-1787576D01*
G01X1165533Y-1788788D01*
G01X1161594Y-1789697D01*
G01X1157958Y-1790303D01*
G01X1154321Y-1790606D01*
G01X1150685Y-1790303D01*
G01X1147958Y-1789697D01*
G01X1144927Y-1788788D01*
G01X1142200Y-1787273D01*
G01X1139170Y-1785455D01*
G01X1137049Y-1783637D01*
G01X1135533Y-1782121D01*
G01X1134018Y-1780303D01*
G01X1132503Y-1777879D01*
G01X1130988Y-1775152D01*
G01X1129776Y-1772727D01*
G01X1128867Y-1770000D01*
G01X1128261Y-1767273D01*
G01X1127655Y-1764849D01*
G01X1127352Y-1761818D01*
G01X1127049Y-1759394D01*
G01X1126746Y-1736364D01*
G01X1127049Y-1713333D01*
G01X1127655Y-1708485D01*
G01X1128261Y-1706061D01*
G01X1129170Y-1703333D01*
G01X1130382Y-1700606D01*
G01X1131897Y-1697576D01*
G01X1134018Y-1694546D01*
G01X1137655Y-1690909D01*
G01X1139473Y-1689394D01*
G01X1141594Y-1688182D01*
G01X1144018Y-1686970D01*
G01X1147352Y-1685758D01*
G01X1151291Y-1684849D01*
G01X1157048Y-1684546D01*
G01X1161594Y-1684849D01*
G01X1164321Y-1685758D01*
G01X1167655Y-1686970D01*
G01X1170079Y-1688182D01*
G01X1172503Y-1689697D01*
G01X1174624Y-1691515D01*
G01X1177654Y-1694546D01*
G01X1179473Y-1696970D01*
G01X1181291Y-1700000D01*
G01X1182503Y-1702424D01*
G01X1183715Y-1705152D01*
G01X1184321Y-1706970D01*
G01X1204927Y-1706970D01*
G01X1204321Y-1704849D01*
G01X1203412Y-1701212D01*
G01X1202503Y-1698485D01*
G01X1201594Y-1696061D01*
G01X1200685Y-1693939D01*
G01X1199473Y-1691515D01*
G01X1197958Y-1688788D01*
G01X1196139Y-1686061D01*
G01X1194018Y-1683030D01*
G01X1187351Y-1676364D01*
G01X1185533Y-1674849D01*
G01X1181897Y-1672424D01*
G01X1179776Y-1671212D01*
G01X1177351Y-1670000D01*
G01X1174624Y-1668788D01*
G01X1171594Y-1667576D01*
G01X1167958Y-1666667D01*
G01X1165230Y-1666061D01*
G01X1161594Y-1665455D01*
G01X1154018Y-1665152D01*
G01X1148261Y-1665455D01*
G01X1141594Y-1666667D01*
G01X1138867Y-1667576D01*
G01X1135533Y-1668788D01*
G01X1133109Y-1670000D01*
G01X1128867Y-1672424D01*
G01X1127049Y-1673636D01*
G01X1124624Y-1675455D01*
G01X1119473Y-1680606D01*
G01X1117049Y-1683636D01*
G01X1115533Y-1685758D01*
G01X1114018Y-1688182D01*
G01X1112806Y-1690303D01*
G01X1110382Y-1695758D01*
G01X1109473Y-1698485D01*
G01X1108867Y-1701212D01*
G01X1108261Y-1703636D01*
G01X1107655Y-1706667D01*
G01X1107049Y-1710909D01*
G01X1106746Y-1739394D01*
G01X1107049Y-1766061D01*
G01X1108261Y-1773334D01*
G01X1110382Y-1779697D01*
G01X1111594Y-1782424D01*
G01X1112806Y-1784849D01*
G01X1114321Y-1787576D01*
G01X1115836Y-1790000D01*
G01X1117352Y-1791818D01*
G01X1119776Y-1794849D01*
G01X1124321Y-1799394D01*
G01X1125836Y-1800606D01*
G01X1127958Y-1801818D01*
G01X1130382Y-1803333D01*
G01X1132806Y-1804546D01*
G01X1135533Y-1805758D01*
G01X1138867Y-1806970D01*
G01X1141897Y-1808182D01*
G01X1144624Y-1808788D01*
G01X1147049Y-1809091D01*
G01X1149170Y-1809697D01*
G37*
G36*
G01X1230988Y-1738788D02*
G01X1230988Y-1808182D01*
G01X1322503Y-1808182D01*
G01X1322503Y-1789394D01*
G01X1250988Y-1789394D01*
G01X1250988Y-1666364D01*
G01X1231594Y-1666364D01*
G01X1231291Y-1667879D01*
G01X1230988Y-1738788D01*
G37*
G36*
G01X1570382Y-1737273D02*
G01X1570382Y-1808182D01*
G01X1589776Y-1808182D01*
G01X1589776Y-1666364D01*
G01X1570382Y-1666364D01*
G01X1570382Y-1737273D01*
G37*
G36*
G01X1472200Y-1739394D02*
G01X1472200Y-1748788D01*
G01X1537655Y-1748788D01*
G01X1537655Y-1730000D01*
G01X1472200Y-1730000D01*
G01X1472200Y-1739394D01*
G37*
G36*
G01X-821739Y-3518182D02*
G01X-821133Y-3516364D01*
G01X-819921Y-3513333D01*
G01X-819012Y-3510606D01*
G01X-815375Y-3500909D01*
G01X-814466Y-3498182D01*
G01X-813254Y-3495152D01*
G01X-808406Y-3481818D01*
G01X-807194Y-3478788D01*
G01X-806284Y-3476061D01*
G01X-802648Y-3466364D01*
G01X-802547Y-3466061D01*
G01X-782648Y-3466061D01*
G01X-782648Y-3468182D01*
G01X-760830Y-3468485D01*
G01X-739315Y-3468485D01*
G01X-739618Y-3467273D01*
G01X-740527Y-3464242D01*
G01X-742951Y-3456970D01*
G01X-744163Y-3453939D01*
G01X-749618Y-3437576D01*
G01X-751436Y-3432727D01*
G01X-755981Y-3419091D01*
G01X-757800Y-3414242D01*
G01X-760527Y-3406060D01*
G01X-761133Y-3405379D01*
G01X-761739Y-3405757D01*
G01X-762951Y-3408485D01*
G01X-767800Y-3423030D01*
G01X-769012Y-3426060D01*
G01X-774466Y-3442424D01*
G01X-776284Y-3447273D01*
G01X-780830Y-3460909D01*
G01X-781739Y-3463333D01*
G01X-782648Y-3466061D01*
G01X-782648Y-3466061D01*
G01X-802547Y-3466061D01*
G01X-801739Y-3463636D01*
G01X-799921Y-3458788D01*
G01X-798709Y-3455758D01*
G01X-793860Y-3442424D01*
G01X-792648Y-3439394D01*
G01X-791739Y-3436666D01*
G01X-788103Y-3426970D01*
G01X-787193Y-3424242D01*
G01X-785981Y-3421212D01*
G01X-781133Y-3407879D01*
G01X-779921Y-3404848D01*
G01X-779012Y-3402121D01*
G01X-775375Y-3392424D01*
G01X-774466Y-3389697D01*
G01X-772648Y-3384848D01*
G01X-771436Y-3381818D01*
G01X-769618Y-3376364D01*
G01X-752648Y-3376364D01*
G01X-752042Y-3378182D01*
G01X-750830Y-3381212D01*
G01X-749921Y-3383939D01*
G01X-746285Y-3393636D01*
G01X-745375Y-3396364D01*
G01X-744163Y-3399394D01*
G01X-739315Y-3412727D01*
G01X-738103Y-3415757D01*
G01X-737194Y-3418485D01*
G01X-731739Y-3433030D01*
G01X-730830Y-3435757D01*
G01X-729618Y-3438788D01*
G01X-724769Y-3452121D01*
G01X-723557Y-3455151D01*
G01X-722648Y-3457879D01*
G01X-719012Y-3467576D01*
G01X-718103Y-3470303D01*
G01X-716891Y-3473333D01*
G01X-712042Y-3486667D01*
G01X-710830Y-3489697D01*
G01X-709921Y-3492424D01*
G01X-706284Y-3502121D01*
G01X-705375Y-3504848D01*
G01X-703557Y-3509697D01*
G01X-702345Y-3512727D01*
G01X-700527Y-3518182D01*
G01X-710830Y-3518182D01*
G01X-721739Y-3517576D01*
G01X-722951Y-3515151D01*
G01X-724163Y-3512121D01*
G01X-729618Y-3495758D01*
G01X-730830Y-3492727D01*
G01X-732648Y-3487273D01*
G01X-761133Y-3487273D01*
G01X-782648Y-3487576D01*
G01X-790224Y-3488485D01*
G01X-791436Y-3491515D01*
G01X-793860Y-3498788D01*
G01X-796284Y-3505455D01*
G01X-800527Y-3518182D01*
G01X-821739Y-3518182D01*
G37*
G36*
G01X-1384164Y-3520000D02*
G01X-1390830Y-3519697D01*
G01X-1392951Y-3519091D01*
G01X-1395376Y-3518788D01*
G01X-1398103Y-3518182D01*
G01X-1401133Y-3516970D01*
G01X-1404467Y-3515758D01*
G01X-1407194Y-3514545D01*
G01X-1409618Y-3513333D01*
G01X-1412042Y-3511818D01*
G01X-1414164Y-3510606D01*
G01X-1415679Y-3509394D01*
G01X-1420224Y-3504848D01*
G01X-1422648Y-3501818D01*
G01X-1424164Y-3500000D01*
G01X-1425679Y-3497576D01*
G01X-1427194Y-3494848D01*
G01X-1428406Y-3492424D01*
G01X-1429618Y-3489697D01*
G01X-1431739Y-3483333D01*
G01X-1432951Y-3476061D01*
G01X-1433254Y-3449394D01*
G01X-1432951Y-3420909D01*
G01X-1432345Y-3416667D01*
G01X-1431739Y-3413636D01*
G01X-1431133Y-3411212D01*
G01X-1430527Y-3408485D01*
G01X-1429618Y-3405757D01*
G01X-1427194Y-3400303D01*
G01X-1425982Y-3398182D01*
G01X-1424467Y-3395757D01*
G01X-1422951Y-3393636D01*
G01X-1420527Y-3390606D01*
G01X-1415376Y-3385454D01*
G01X-1412951Y-3383636D01*
G01X-1411133Y-3382424D01*
G01X-1406891Y-3380000D01*
G01X-1404467Y-3378788D01*
G01X-1401133Y-3377576D01*
G01X-1398406Y-3376667D01*
G01X-1391739Y-3375455D01*
G01X-1385982Y-3375151D01*
G01X-1378406Y-3375455D01*
G01X-1374770Y-3376061D01*
G01X-1372042Y-3376667D01*
G01X-1368406Y-3377576D01*
G01X-1365376Y-3378788D01*
G01X-1362649Y-3380000D01*
G01X-1360224Y-3381212D01*
G01X-1358103Y-3382424D01*
G01X-1354467Y-3384848D01*
G01X-1352649Y-3386364D01*
G01X-1345982Y-3393030D01*
G01X-1343861Y-3396061D01*
G01X-1342042Y-3398788D01*
G01X-1340527Y-3401515D01*
G01X-1339315Y-3403939D01*
G01X-1338406Y-3406060D01*
G01X-1337497Y-3408485D01*
G01X-1336588Y-3411212D01*
G01X-1335679Y-3414848D01*
G01X-1335073Y-3416970D01*
G01X-1355679Y-3416970D01*
G01X-1356285Y-3415151D01*
G01X-1357497Y-3412424D01*
G01X-1358709Y-3410000D01*
G01X-1360527Y-3406970D01*
G01X-1362346Y-3404545D01*
G01X-1365376Y-3401515D01*
G01X-1367497Y-3399697D01*
G01X-1369921Y-3398182D01*
G01X-1372345Y-3396970D01*
G01X-1375679Y-3395757D01*
G01X-1378406Y-3394848D01*
G01X-1382952Y-3394545D01*
G01X-1388709Y-3394848D01*
G01X-1392648Y-3395757D01*
G01X-1395982Y-3396970D01*
G01X-1398406Y-3398182D01*
G01X-1400527Y-3399394D01*
G01X-1402345Y-3400909D01*
G01X-1405982Y-3404545D01*
G01X-1408103Y-3407576D01*
G01X-1409618Y-3410606D01*
G01X-1410830Y-3413333D01*
G01X-1411739Y-3416060D01*
G01X-1412345Y-3418485D01*
G01X-1412951Y-3423333D01*
G01X-1413254Y-3446363D01*
G01X-1412951Y-3469394D01*
G01X-1412648Y-3471818D01*
G01X-1412345Y-3474849D01*
G01X-1411739Y-3477273D01*
G01X-1411133Y-3480000D01*
G01X-1410224Y-3482727D01*
G01X-1409012Y-3485152D01*
G01X-1407497Y-3487879D01*
G01X-1405982Y-3490303D01*
G01X-1404467Y-3492121D01*
G01X-1402951Y-3493636D01*
G01X-1400830Y-3495455D01*
G01X-1397800Y-3497273D01*
G01X-1395073Y-3498788D01*
G01X-1392042Y-3499697D01*
G01X-1389315Y-3500303D01*
G01X-1385679Y-3500606D01*
G01X-1382042Y-3500303D01*
G01X-1378406Y-3499697D01*
G01X-1374467Y-3498788D01*
G01X-1371739Y-3497576D01*
G01X-1369618Y-3496364D01*
G01X-1367800Y-3495455D01*
G01X-1365982Y-3494242D01*
G01X-1364467Y-3492727D01*
G01X-1362649Y-3491212D01*
G01X-1360527Y-3488788D01*
G01X-1358709Y-3485758D01*
G01X-1357194Y-3482727D01*
G01X-1355982Y-3479394D01*
G01X-1355679Y-3477576D01*
G01X-1335073Y-3477576D01*
G01X-1335376Y-3478788D01*
G01X-1336285Y-3482121D01*
G01X-1337497Y-3486061D01*
G01X-1338709Y-3489091D01*
G01X-1339921Y-3491818D01*
G01X-1341133Y-3494242D01*
G01X-1342345Y-3496364D01*
G01X-1343861Y-3498788D01*
G01X-1345982Y-3501515D01*
G01X-1347800Y-3503939D01*
G01X-1352345Y-3508485D01*
G01X-1356891Y-3512121D01*
G01X-1359012Y-3513333D01*
G01X-1365073Y-3516364D01*
G01X-1368406Y-3517576D01*
G01X-1371133Y-3518485D01*
G01X-1377800Y-3519697D01*
G01X-1384164Y-3520000D01*
G37*
G36*
G01X-903557Y-3458788D02*
G01X-903557Y-3450909D01*
G01X-903254Y-3441515D01*
G01X-902951Y-3440000D01*
G01X-837497Y-3440000D01*
G01X-837497Y-3458788D01*
G01X-903557Y-3458788D01*
G37*
G36*
G01X-1275073Y-3518182D02*
G01X-1275679Y-3516364D01*
G01X-1276891Y-3513333D01*
G01X-1280527Y-3502424D01*
G01X-1282345Y-3496364D01*
G01X-1290527Y-3471818D01*
G01X-1291436Y-3468485D01*
G01X-1298709Y-3446667D01*
G01X-1301133Y-3438788D01*
G01X-1309315Y-3414242D01*
G01X-1309921Y-3411818D01*
G01X-1316285Y-3392727D01*
G01X-1318103Y-3386667D01*
G01X-1319921Y-3381212D01*
G01X-1320830Y-3378182D01*
G01X-1321133Y-3376364D01*
G01X-1310527Y-3376364D01*
G01X-1302497Y-3376591D01*
G01X-1299618Y-3377273D01*
G01X-1296588Y-3386364D01*
G01X-1295982Y-3388788D01*
G01X-1295073Y-3391515D01*
G01X-1291436Y-3403636D01*
G01X-1290527Y-3406364D01*
G01X-1289618Y-3409697D01*
G01X-1287497Y-3416060D01*
G01X-1286891Y-3418485D01*
G01X-1285982Y-3421212D01*
G01X-1282345Y-3433333D01*
G01X-1281436Y-3436060D01*
G01X-1280527Y-3439394D01*
G01X-1278406Y-3445757D01*
G01X-1277800Y-3448182D01*
G01X-1276891Y-3450909D01*
G01X-1273255Y-3463030D01*
G01X-1272345Y-3465758D01*
G01X-1271436Y-3469091D01*
G01X-1269315Y-3475455D01*
G01X-1268709Y-3477879D01*
G01X-1267800Y-3480606D01*
G01X-1266891Y-3483636D01*
G01X-1265982Y-3485758D01*
G01X-1265376Y-3485682D01*
G01X-1264770Y-3484849D01*
G01X-1263861Y-3482727D01*
G01X-1263255Y-3480303D01*
G01X-1262345Y-3477576D01*
G01X-1260527Y-3471515D01*
G01X-1259618Y-3468788D01*
G01X-1258709Y-3465455D01*
G01X-1249012Y-3433939D01*
G01X-1248103Y-3431212D01*
G01X-1247497Y-3428788D01*
G01X-1246588Y-3426060D01*
G01X-1242951Y-3413939D01*
G01X-1242042Y-3411212D01*
G01X-1241133Y-3407879D01*
G01X-1239012Y-3401515D01*
G01X-1238406Y-3399091D01*
G01X-1237497Y-3396364D01*
G01X-1233860Y-3384242D01*
G01X-1232951Y-3381515D01*
G01X-1232042Y-3378182D01*
G01X-1231436Y-3376364D01*
G01X-1221133Y-3376364D01*
G01X-1210527Y-3376970D01*
G01X-1210830Y-3378788D01*
G01X-1212648Y-3384242D01*
G01X-1214466Y-3390303D01*
G01X-1221739Y-3412121D01*
G01X-1223557Y-3418182D01*
G01X-1230830Y-3440000D01*
G01X-1232648Y-3446060D01*
G01X-1239921Y-3467879D01*
G01X-1241739Y-3473939D01*
G01X-1249921Y-3498485D01*
G01X-1250830Y-3501818D01*
G01X-1256285Y-3518182D01*
G01X-1275073Y-3518182D01*
G37*
G36*
G01X-1194466Y-3458788D02*
G01X-1194466Y-3440000D01*
G01X-1128406Y-3440000D01*
G01X-1128406Y-3458788D01*
G01X-1194466Y-3458788D01*
G37*
G36*
G01X-1096285Y-3518182D02*
G01X-1096285Y-3376364D01*
G01X-1087800Y-3376364D01*
G01X-1077800Y-3376667D01*
G01X-1076285Y-3376970D01*
G01X-1076285Y-3518182D01*
G01X-1096285Y-3518182D01*
G37*
G36*
G01X-1041133Y-3518182D02*
G01X-1041133Y-3376364D01*
G01X-1032648Y-3376364D01*
G01X-1025982Y-3376667D01*
G01X-1022951Y-3377576D01*
G01X-1020830Y-3380303D01*
G01X-1019012Y-3383333D01*
G01X-1017194Y-3386061D01*
G01X-1011133Y-3395757D01*
G01X-1009315Y-3398485D01*
G01X-1007497Y-3401515D01*
G01X-1005678Y-3404242D01*
G01X-999618Y-3413939D01*
G01X-997800Y-3416667D01*
G01X-994769Y-3421515D01*
G01X-992951Y-3424545D01*
G01X-991133Y-3427273D01*
G01X-988103Y-3432121D01*
G01X-986285Y-3434848D01*
G01X-983254Y-3439697D01*
G01X-981436Y-3442727D01*
G01X-979618Y-3445454D01*
G01X-976588Y-3450303D01*
G01X-974769Y-3453030D01*
G01X-971739Y-3457879D01*
G01X-969921Y-3460909D01*
G01X-968103Y-3463636D01*
G01X-962042Y-3473333D01*
G01X-960224Y-3476061D01*
G01X-958406Y-3479091D01*
G01X-956891Y-3480909D01*
G01X-956436Y-3468030D01*
G01X-956285Y-3428788D01*
G01X-956285Y-3376364D01*
G01X-936285Y-3376364D01*
G01X-936285Y-3518182D01*
G01X-945376Y-3518182D01*
G01X-952421Y-3517879D01*
G01X-955376Y-3516970D01*
G01X-957194Y-3514545D01*
G01X-959012Y-3511818D01*
G01X-962042Y-3506970D01*
G01X-963860Y-3504242D01*
G01X-966891Y-3499394D01*
G01X-968709Y-3496667D01*
G01X-970527Y-3493636D01*
G01X-974163Y-3488182D01*
G01X-977194Y-3483333D01*
G01X-979012Y-3480606D01*
G01X-982042Y-3475758D01*
G01X-983860Y-3473030D01*
G01X-985678Y-3470000D01*
G01X-989315Y-3464545D01*
G01X-992345Y-3459697D01*
G01X-994163Y-3456970D01*
G01X-997194Y-3452121D01*
G01X-999012Y-3449394D01*
G01X-1002042Y-3444545D01*
G01X-1003860Y-3441818D01*
G01X-1006891Y-3436970D01*
G01X-1008709Y-3434242D01*
G01X-1010527Y-3431212D01*
G01X-1014163Y-3425757D01*
G01X-1015981Y-3422727D01*
G01X-1019618Y-3417273D01*
G01X-1021133Y-3415454D01*
G01X-1021588Y-3428106D01*
G01X-1021739Y-3466667D01*
G01X-1021739Y-3518182D01*
G01X-1041133Y-3518182D01*
G37*
G36*
G01X1226625Y-3518182D02*
G01X1226625Y-3476970D01*
G01X1246625Y-3476970D01*
G01X1246928Y-3499697D01*
G01X1263594Y-3500000D01*
G01X1282079Y-3499697D01*
G01X1286322Y-3499091D01*
G01X1289352Y-3498485D01*
G01X1291776Y-3497879D01*
G01X1294200Y-3496970D01*
G01X1296625Y-3495758D01*
G01X1298746Y-3494242D01*
G01X1301776Y-3491212D01*
G01X1302988Y-3489394D01*
G01X1304200Y-3486970D01*
G01X1305109Y-3484545D01*
G01X1305715Y-3479697D01*
G01X1305715Y-3476667D01*
G01X1305109Y-3472424D01*
G01X1304503Y-3469394D01*
G01X1303897Y-3467273D01*
G01X1302988Y-3465152D01*
G01X1301473Y-3462727D01*
G01X1299655Y-3460606D01*
G01X1298140Y-3459091D01*
G01X1296322Y-3457576D01*
G01X1293897Y-3456364D01*
G01X1290564Y-3455454D01*
G01X1287534Y-3454848D01*
G01X1266625Y-3454545D01*
G01X1246625Y-3454545D01*
G01X1246625Y-3476970D01*
G01X1246625Y-3476970D01*
G01X1226625Y-3476970D01*
G01X1226625Y-3415757D01*
G01X1246625Y-3415757D01*
G01X1246928Y-3436666D01*
G01X1263897Y-3436970D01*
G01X1281473Y-3436666D01*
G01X1283897Y-3436363D01*
G01X1286928Y-3436060D01*
G01X1289958Y-3435454D01*
G01X1292988Y-3434545D01*
G01X1296018Y-3433030D01*
G01X1298443Y-3431212D01*
G01X1300564Y-3428788D01*
G01X1302382Y-3425454D01*
G01X1303291Y-3422727D01*
G01X1303897Y-3417879D01*
G01X1303897Y-3416363D01*
G01X1303594Y-3413636D01*
G01X1302988Y-3409394D01*
G01X1301776Y-3405757D01*
G01X1300564Y-3403636D01*
G01X1298746Y-3401515D01*
G01X1296625Y-3399394D01*
G01X1294503Y-3398182D01*
G01X1292079Y-3396970D01*
G01X1289049Y-3396061D01*
G01X1286322Y-3395454D01*
G01X1266019Y-3395151D01*
G01X1246625Y-3395151D01*
G01X1246625Y-3415757D01*
G01X1246625Y-3415757D01*
G01X1226625Y-3415757D01*
G01X1226625Y-3376364D01*
G01X1255716Y-3376364D01*
G01X1285715Y-3376667D01*
G01X1288443Y-3376970D01*
G01X1291776Y-3377273D01*
G01X1294806Y-3377879D01*
G01X1297231Y-3378485D01*
G01X1299958Y-3379091D01*
G01X1302685Y-3380000D01*
G01X1308140Y-3382727D01*
G01X1310261Y-3384242D01*
G01X1311776Y-3385151D01*
G01X1313897Y-3386970D01*
G01X1316322Y-3390000D01*
G01X1318443Y-3393030D01*
G01X1319958Y-3395454D01*
G01X1320867Y-3397576D01*
G01X1321776Y-3400000D01*
G01X1322685Y-3403030D01*
G01X1323291Y-3405757D01*
G01X1323594Y-3408182D01*
G01X1323897Y-3411212D01*
G01X1323897Y-3415454D01*
G01X1323291Y-3420909D01*
G01X1322382Y-3424848D01*
G01X1321473Y-3427273D01*
G01X1320261Y-3430000D01*
G01X1318746Y-3432424D01*
G01X1317534Y-3434545D01*
G01X1316019Y-3436363D01*
G01X1312988Y-3439394D01*
G01X1310867Y-3440909D01*
G01X1308140Y-3442424D01*
G01X1305412Y-3443636D01*
G01X1302382Y-3444545D01*
G01X1301094Y-3445000D01*
G01X1300867Y-3445757D01*
G01X1302685Y-3446970D01*
G01X1305412Y-3447879D01*
G01X1308140Y-3449091D01*
G01X1310564Y-3450303D01*
G01X1312988Y-3451818D01*
G01X1315109Y-3453636D01*
G01X1316625Y-3455151D01*
G01X1318443Y-3457273D01*
G01X1320261Y-3460000D01*
G01X1321776Y-3462424D01*
G01X1322988Y-3464849D01*
G01X1324200Y-3468182D01*
G01X1325110Y-3471212D01*
G01X1325716Y-3476667D01*
G01X1326019Y-3479697D01*
G01X1325716Y-3482727D01*
G01X1325413Y-3484849D01*
G01X1325110Y-3487576D01*
G01X1323897Y-3492424D01*
G01X1322988Y-3495152D01*
G01X1321776Y-3497879D01*
G01X1320564Y-3500000D01*
G01X1319655Y-3501818D01*
G01X1318443Y-3503636D01*
G01X1316928Y-3505151D01*
G01X1315412Y-3506970D01*
G01X1313897Y-3508182D01*
G01X1312685Y-3509394D01*
G01X1310564Y-3511212D01*
G01X1307534Y-3513030D01*
G01X1304806Y-3514545D01*
G01X1301776Y-3515758D01*
G01X1299049Y-3516667D01*
G01X1293594Y-3517879D01*
G01X1259655Y-3518182D01*
G01X1226625Y-3518182D01*
G37*
G36*
G01X647836Y-3520000D02*
G01X641170Y-3519697D01*
G01X639049Y-3519091D01*
G01X636624Y-3518788D01*
G01X633897Y-3518182D01*
G01X630867Y-3516970D01*
G01X627533Y-3515758D01*
G01X624806Y-3514545D01*
G01X622382Y-3513333D01*
G01X619958Y-3511818D01*
G01X617836Y-3510606D01*
G01X616321Y-3509394D01*
G01X611776Y-3504848D01*
G01X609352Y-3501818D01*
G01X607836Y-3500000D01*
G01X606321Y-3497576D01*
G01X604806Y-3494848D01*
G01X603594Y-3492424D01*
G01X602382Y-3489697D01*
G01X600261Y-3483333D01*
G01X599049Y-3476061D01*
G01X598746Y-3449394D01*
G01X599049Y-3420909D01*
G01X599655Y-3416667D01*
G01X600261Y-3413636D01*
G01X600867Y-3411212D01*
G01X601473Y-3408485D01*
G01X602382Y-3405757D01*
G01X604806Y-3400303D01*
G01X606018Y-3398182D01*
G01X607533Y-3395757D01*
G01X609049Y-3393636D01*
G01X611473Y-3390606D01*
G01X616624Y-3385454D01*
G01X619049Y-3383636D01*
G01X620867Y-3382424D01*
G01X625109Y-3380000D01*
G01X627533Y-3378788D01*
G01X630867Y-3377576D01*
G01X633594Y-3376667D01*
G01X640261Y-3375455D01*
G01X646018Y-3375151D01*
G01X653594Y-3375455D01*
G01X657230Y-3376061D01*
G01X659958Y-3376667D01*
G01X663594Y-3377576D01*
G01X666624Y-3378788D01*
G01X669351Y-3380000D01*
G01X671776Y-3381212D01*
G01X673897Y-3382424D01*
G01X677533Y-3384848D01*
G01X679351Y-3386364D01*
G01X686018Y-3393030D01*
G01X688139Y-3396061D01*
G01X689958Y-3398788D01*
G01X691473Y-3401515D01*
G01X692685Y-3403939D01*
G01X693594Y-3406060D01*
G01X694503Y-3408485D01*
G01X695412Y-3411212D01*
G01X696321Y-3414848D01*
G01X696927Y-3416970D01*
G01X676321Y-3416970D01*
G01X675715Y-3415151D01*
G01X674503Y-3412424D01*
G01X673291Y-3410000D01*
G01X671473Y-3406970D01*
G01X669654Y-3404545D01*
G01X666624Y-3401515D01*
G01X664503Y-3399697D01*
G01X662079Y-3398182D01*
G01X659655Y-3396970D01*
G01X656321Y-3395757D01*
G01X653594Y-3394848D01*
G01X649048Y-3394545D01*
G01X643291Y-3394848D01*
G01X639352Y-3395757D01*
G01X636018Y-3396970D01*
G01X633594Y-3398182D01*
G01X631473Y-3399394D01*
G01X629655Y-3400909D01*
G01X626018Y-3404545D01*
G01X623897Y-3407576D01*
G01X622382Y-3410606D01*
G01X621170Y-3413333D01*
G01X620261Y-3416060D01*
G01X619655Y-3418485D01*
G01X619049Y-3423333D01*
G01X618746Y-3446363D01*
G01X619049Y-3469394D01*
G01X619352Y-3471818D01*
G01X619655Y-3474849D01*
G01X620261Y-3477273D01*
G01X620867Y-3480000D01*
G01X621776Y-3482727D01*
G01X622988Y-3485152D01*
G01X624503Y-3487879D01*
G01X626018Y-3490303D01*
G01X627533Y-3492121D01*
G01X629049Y-3493636D01*
G01X631170Y-3495455D01*
G01X634200Y-3497273D01*
G01X636927Y-3498788D01*
G01X639958Y-3499697D01*
G01X642685Y-3500303D01*
G01X646321Y-3500606D01*
G01X649958Y-3500303D01*
G01X653594Y-3499697D01*
G01X657533Y-3498788D01*
G01X660261Y-3497576D01*
G01X662382Y-3496364D01*
G01X664200Y-3495455D01*
G01X666018Y-3494242D01*
G01X667533Y-3492727D01*
G01X669351Y-3491212D01*
G01X671473Y-3488788D01*
G01X673291Y-3485758D01*
G01X674806Y-3482727D01*
G01X676018Y-3479394D01*
G01X676321Y-3477576D01*
G01X696927Y-3477576D01*
G01X696624Y-3478788D01*
G01X695715Y-3482121D01*
G01X694503Y-3486061D01*
G01X693291Y-3489091D01*
G01X692079Y-3491818D01*
G01X690867Y-3494242D01*
G01X689655Y-3496364D01*
G01X688139Y-3498788D01*
G01X686018Y-3501515D01*
G01X684200Y-3503939D01*
G01X679655Y-3508485D01*
G01X675109Y-3512121D01*
G01X672988Y-3513333D01*
G01X666927Y-3516364D01*
G01X663594Y-3517576D01*
G01X660867Y-3518485D01*
G01X654200Y-3519697D01*
G01X647836Y-3520000D01*
G37*
G36*
G01X1128443Y-3458788D02*
G01X1128443Y-3450909D01*
G01X1128746Y-3441515D01*
G01X1129049Y-3440000D01*
G01X1194503Y-3440000D01*
G01X1194503Y-3458788D01*
G01X1128443Y-3458788D01*
G37*
G36*
G01X756927Y-3518182D02*
G01X756321Y-3516364D01*
G01X755109Y-3513333D01*
G01X751473Y-3502424D01*
G01X749655Y-3496364D01*
G01X741473Y-3471818D01*
G01X740564Y-3468485D01*
G01X733291Y-3446667D01*
G01X730867Y-3438788D01*
G01X722685Y-3414242D01*
G01X722079Y-3411818D01*
G01X715715Y-3392727D01*
G01X713897Y-3386667D01*
G01X712079Y-3381212D01*
G01X711170Y-3378182D01*
G01X710867Y-3376364D01*
G01X721473Y-3376364D01*
G01X729503Y-3376591D01*
G01X732382Y-3377273D01*
G01X735412Y-3386364D01*
G01X736018Y-3388788D01*
G01X736927Y-3391515D01*
G01X740564Y-3403636D01*
G01X741473Y-3406364D01*
G01X742382Y-3409697D01*
G01X744503Y-3416060D01*
G01X745109Y-3418485D01*
G01X746018Y-3421212D01*
G01X749655Y-3433333D01*
G01X750564Y-3436060D01*
G01X751473Y-3439394D01*
G01X753594Y-3445757D01*
G01X754200Y-3448182D01*
G01X755109Y-3450909D01*
G01X758745Y-3463030D01*
G01X759655Y-3465758D01*
G01X760564Y-3469091D01*
G01X762685Y-3475455D01*
G01X763291Y-3477879D01*
G01X764200Y-3480606D01*
G01X765109Y-3483636D01*
G01X766018Y-3485758D01*
G01X766624Y-3485682D01*
G01X767230Y-3484849D01*
G01X768139Y-3482727D01*
G01X768745Y-3480303D01*
G01X769655Y-3477576D01*
G01X771473Y-3471515D01*
G01X772382Y-3468788D01*
G01X773291Y-3465455D01*
G01X782988Y-3433939D01*
G01X783897Y-3431212D01*
G01X784503Y-3428788D01*
G01X785412Y-3426060D01*
G01X789049Y-3413939D01*
G01X789958Y-3411212D01*
G01X790867Y-3407879D01*
G01X792988Y-3401515D01*
G01X793594Y-3399091D01*
G01X794503Y-3396364D01*
G01X798140Y-3384242D01*
G01X799049Y-3381515D01*
G01X799958Y-3378182D01*
G01X800564Y-3376364D01*
G01X810867Y-3376364D01*
G01X821473Y-3376970D01*
G01X821170Y-3378788D01*
G01X819352Y-3384242D01*
G01X817534Y-3390303D01*
G01X810261Y-3412121D01*
G01X808443Y-3418182D01*
G01X801170Y-3440000D01*
G01X799352Y-3446060D01*
G01X792079Y-3467879D01*
G01X790261Y-3473939D01*
G01X782079Y-3498485D01*
G01X781170Y-3501818D01*
G01X775715Y-3518182D01*
G01X756927Y-3518182D01*
G37*
G36*
G01X837534Y-3458788D02*
G01X837534Y-3440000D01*
G01X903594Y-3440000D01*
G01X903594Y-3458788D01*
G01X837534Y-3458788D01*
G37*
G36*
G01X935715Y-3518182D02*
G01X935715Y-3376364D01*
G01X944200Y-3376364D01*
G01X954200Y-3376667D01*
G01X955715Y-3376970D01*
G01X955715Y-3518182D01*
G01X935715Y-3518182D01*
G37*
G36*
G01X990867Y-3518182D02*
G01X990867Y-3376364D01*
G01X999352Y-3376364D01*
G01X1006018Y-3376667D01*
G01X1009049Y-3377576D01*
G01X1011170Y-3380303D01*
G01X1012988Y-3383333D01*
G01X1014806Y-3386061D01*
G01X1020867Y-3395757D01*
G01X1022685Y-3398485D01*
G01X1024503Y-3401515D01*
G01X1026322Y-3404242D01*
G01X1032382Y-3413939D01*
G01X1034200Y-3416667D01*
G01X1037231Y-3421515D01*
G01X1039049Y-3424545D01*
G01X1040867Y-3427273D01*
G01X1043897Y-3432121D01*
G01X1045715Y-3434848D01*
G01X1048746Y-3439697D01*
G01X1050564Y-3442727D01*
G01X1052382Y-3445454D01*
G01X1055412Y-3450303D01*
G01X1057231Y-3453030D01*
G01X1060261Y-3457879D01*
G01X1062079Y-3460909D01*
G01X1063897Y-3463636D01*
G01X1069958Y-3473333D01*
G01X1071776Y-3476061D01*
G01X1073594Y-3479091D01*
G01X1075109Y-3480909D01*
G01X1075564Y-3468030D01*
G01X1075715Y-3428788D01*
G01X1075715Y-3376364D01*
G01X1095715Y-3376364D01*
G01X1095715Y-3518182D01*
G01X1086624Y-3518182D01*
G01X1079579Y-3517879D01*
G01X1076624Y-3516970D01*
G01X1074806Y-3514545D01*
G01X1072988Y-3511818D01*
G01X1069958Y-3506970D01*
G01X1068140Y-3504242D01*
G01X1065109Y-3499394D01*
G01X1063291Y-3496667D01*
G01X1061473Y-3493636D01*
G01X1057837Y-3488182D01*
G01X1054806Y-3483333D01*
G01X1052988Y-3480606D01*
G01X1049958Y-3475758D01*
G01X1048140Y-3473030D01*
G01X1046322Y-3470000D01*
G01X1042685Y-3464545D01*
G01X1039655Y-3459697D01*
G01X1037837Y-3456970D01*
G01X1034806Y-3452121D01*
G01X1032988Y-3449394D01*
G01X1029958Y-3444545D01*
G01X1028140Y-3441818D01*
G01X1025109Y-3436970D01*
G01X1023291Y-3434242D01*
G01X1021473Y-3431212D01*
G01X1017837Y-3425757D01*
G01X1016019Y-3422727D01*
G01X1012382Y-3417273D01*
G01X1010867Y-3415454D01*
G01X1010412Y-3428106D01*
G01X1010261Y-3466667D01*
G01X1010261Y-3518182D01*
G01X990867Y-3518182D01*
G37*
G04 Text End*

G04 PolygonModel Start*
G54D10*
G01X-1864908Y5312478D02*
G01X-2233208Y4944178D01*
G01X-2245908Y5312478D02*
G01X-1877608Y4944178D01*
G01X2076450Y5327650D02*
G01X1708150Y4959350D01*
G01X1695450Y5327650D02*
G01X2063750Y4959350D01*
G01X-1863508Y2124778D02*
G01X-2231808Y1756478D01*
G01X-2244508Y2124778D02*
G01X-1876208Y1756478D01*
G01X2074192Y2124778D02*
G01X1705892Y1756478D01*
G01X1693192Y2124778D02*
G01X2061492Y1756478D01*

G04 Circle Start*
G01X-2322108Y5134678D02*
G03X-1788708Y5134678I266700J0D01*
G03X-2322108Y5134678I-266700J0D01*
G01X1619250Y5149850D02*
G03X2152650Y5149850I266700J0D01*
G03X1619250Y5149850I-266700J0D01*
G01X-2320708Y1946978D02*
G03X-1787308Y1946978I266700J0D01*
G03X-2320708Y1946978I-266700J0D01*
G01X1616992Y1946978D02*
G03X2150392Y1946978I266700J0D01*
G03X1616992Y1946978I-266700J0D01*
G04 Circle End*

M02*

