G04 Layer: DrillDrawingLayer*
G04 EasyEDA Pro v3.2.149.88089769, 2026-07-14 20:32:07*
G04 Gerber Generator version 0.3*
G04 Scale: 100 percent, Rotated: No, Reflected: No*
G04 Dimensions in millimeters*
G04 Leading zeros omitted, absolute positions, 4 integers and 5 decimals*
G04 Generated by one-click*
G04 Object Configs: Pad,Via,Track,Text,Image,Dimension,BoardOutline,BoardCutout,CopperFilled,SolidRegion,FPCStiffener,Line,PlaneZone,ComponentProperty,ComponentSilkscreen,TearDrop*
G04 Layer Configs: 1,2,3,4,5,6,7,8,9,10,11,13,14,71,56*
G04 Copper Areas: 0*
%FSLAX45Y45*%
%MOMM*%
%AMIconRect*4,1,4,0.28,-0.28,-0.28,-0.28,-0.28,0.28,0.28,0.28,0.28,-0.28,0*4,0,4,0.233333,-0.233333,0.233333,0.233333,-0.233333,0.233333,-0.233333,-0.233333,0.233333,-0.233333,0*%
%AMIconTriangle*4,1,3,-0.339593,0.240473,0.339593,0.240473,0,-0.37884,-0.339593,0.240473,0*4,0,3,-0.265673,0.19404,0,-0.27342,0.266233,0.19404,-0.265673,0.19404,0*%
%ADD10IconRect*%
%ADD11C,0.616X0.522667*%
%ADD12IconTriangle*%
%ADD13C,0.2032*%
%ADD14C,0.254*%
G75*


G04 Drill Drawing Start*
G54D10*
G01X-1858558Y6131979D03*
G01X-1857158Y-6110821D03*
G01X1710842Y6131979D03*
G01X1712242Y-6110821D03*
G54D11*
G01X-2055408Y5134678D03*
G01X-2054008Y1946978D03*
G01X1883692Y1946978D03*
G01X1885950Y5149850D03*
G54D12*
G01X-1576200Y-2240300D03*
G01X-1576200Y-754400D03*
G01X-1068200Y-3980200D03*
G01X-572900Y-754400D03*
G01X-64900Y-2240300D03*
G01X430400Y-754400D03*
G01X938400Y-3980200D03*
G01X1433700Y-2240300D03*
G01X1433700Y-754400D03*
G04 Drill Drawing End*

G04 Text Start*
G54D13*
G01X4745546Y6212094D02*
G01X4745546Y6091952D01*
G01X4745546Y6212094D02*
G01X4791266Y6091952D01*
G01X4836986Y6212094D02*
G01X4791266Y6091952D01*
G01X4836986Y6212094D02*
G01X4836986Y6091952D01*
G01X4953318Y6171962D02*
G01X4953318Y6091952D01*
G01X4953318Y6154944D02*
G01X4941888Y6166374D01*
G01X4930458Y6171962D01*
G01X4913440Y6171962D01*
G01X4902010Y6166374D01*
G01X4890580Y6154944D01*
G01X4884738Y6137672D01*
G01X4884738Y6126242D01*
G01X4890580Y6109224D01*
G01X4902010Y6097794D01*
G01X4913440Y6091952D01*
G01X4930458Y6091952D01*
G01X4941888Y6097794D01*
G01X4953318Y6109224D01*
G01X5001070Y6171962D02*
G01X5001070Y6091952D01*
G01X5001070Y6137672D02*
G01X5006912Y6154944D01*
G01X5018342Y6166374D01*
G01X5029772Y6171962D01*
G01X5046790Y6171962D01*
G01X5094542Y6212094D02*
G01X5094542Y6091952D01*
G01X5151692Y6171962D02*
G01X5094542Y6114812D01*
G01X5117402Y6137672D02*
G01X5157534Y6091952D01*
G01X6282826Y6183392D02*
G01X6276984Y6194822D01*
G01X6265554Y6206252D01*
G01X6254124Y6212094D01*
G01X6231264Y6212094D01*
G01X6219834Y6206252D01*
G01X6208404Y6194822D01*
G01X6202816Y6183392D01*
G01X6196974Y6166374D01*
G01X6196974Y6137672D01*
G01X6202816Y6120654D01*
G01X6208404Y6109224D01*
G01X6219834Y6097794D01*
G01X6231264Y6091952D01*
G01X6254124Y6091952D01*
G01X6265554Y6097794D01*
G01X6276984Y6109224D01*
G01X6282826Y6120654D01*
G01X6359280Y6171962D02*
G01X6347850Y6166374D01*
G01X6336420Y6154944D01*
G01X6330578Y6137672D01*
G01X6330578Y6126242D01*
G01X6336420Y6109224D01*
G01X6347850Y6097794D01*
G01X6359280Y6091952D01*
G01X6376298Y6091952D01*
G01X6387728Y6097794D01*
G01X6399158Y6109224D01*
G01X6405000Y6126242D01*
G01X6405000Y6137672D01*
G01X6399158Y6154944D01*
G01X6387728Y6166374D01*
G01X6376298Y6171962D01*
G01X6359280Y6171962D01*
G01X6452752Y6171962D02*
G01X6452752Y6114812D01*
G01X6458594Y6097794D01*
G01X6470024Y6091952D01*
G01X6487042Y6091952D01*
G01X6498472Y6097794D01*
G01X6515744Y6114812D01*
G01X6515744Y6171962D02*
G01X6515744Y6091952D01*
G01X6563496Y6171962D02*
G01X6563496Y6091952D01*
G01X6563496Y6149102D02*
G01X6580768Y6166374D01*
G01X6592198Y6171962D01*
G01X6609216Y6171962D01*
G01X6620646Y6166374D01*
G01X6626488Y6149102D01*
G01X6626488Y6091952D01*
G01X6691512Y6212094D02*
G01X6691512Y6114812D01*
G01X6697100Y6097794D01*
G01X6708530Y6091952D01*
G01X6719960Y6091952D01*
G01X6674240Y6171962D02*
G01X6714372Y6171962D01*
G01X7691147Y6194822D02*
G01X7679717Y6206252D01*
G01X7662699Y6212094D01*
G01X7639839Y6212094D01*
G01X7622567Y6206252D01*
G01X7611137Y6194822D01*
G01X7611137Y6183392D01*
G01X7616979Y6171962D01*
G01X7622567Y6166374D01*
G01X7633997Y6160532D01*
G01X7668287Y6149102D01*
G01X7679717Y6143514D01*
G01X7685559Y6137672D01*
G01X7691147Y6126242D01*
G01X7691147Y6109224D01*
G01X7679717Y6097794D01*
G01X7662699Y6091952D01*
G01X7639839Y6091952D01*
G01X7622567Y6097794D01*
G01X7611137Y6109224D01*
G01X7738899Y6212094D02*
G01X7744741Y6206252D01*
G01X7750329Y6212094D01*
G01X7744741Y6217682D01*
G01X7738899Y6212094D01*
G01X7744741Y6171962D02*
G01X7744741Y6091952D01*
G01X7861073Y6171962D02*
G01X7798081Y6091952D01*
G01X7798081Y6171962D02*
G01X7861073Y6171962D01*
G01X7798081Y6091952D02*
G01X7861073Y6091952D01*
G01X7908825Y6137672D02*
G01X7977405Y6137672D01*
G01X7977405Y6149102D01*
G01X7971817Y6160532D01*
G01X7965975Y6166374D01*
G01X7954545Y6171962D01*
G01X7937527Y6171962D01*
G01X7926097Y6166374D01*
G01X7914667Y6154944D01*
G01X7908825Y6137672D01*
G01X7908825Y6126242D01*
G01X7914667Y6109224D01*
G01X7926097Y6097794D01*
G01X7937527Y6091952D01*
G01X7954545Y6091952D01*
G01X7965975Y6097794D01*
G01X7977405Y6109224D01*
G01X11692047Y6212094D02*
G01X11692047Y6091952D01*
G01X11692047Y6212094D02*
G01X11743609Y6212094D01*
G01X11760627Y6206252D01*
G01X11766469Y6200664D01*
G01X11772057Y6189234D01*
G01X11772057Y6171962D01*
G01X11766469Y6160532D01*
G01X11760627Y6154944D01*
G01X11743609Y6149102D01*
G01X11692047Y6149102D01*
G01X11819809Y6212094D02*
G01X11819809Y6091952D01*
G01X11936141Y6171962D02*
G01X11936141Y6091952D01*
G01X11936141Y6154944D02*
G01X11924711Y6166374D01*
G01X11913281Y6171962D01*
G01X11896263Y6171962D01*
G01X11884833Y6166374D01*
G01X11873403Y6154944D01*
G01X11867561Y6137672D01*
G01X11867561Y6126242D01*
G01X11873403Y6109224D01*
G01X11884833Y6097794D01*
G01X11896263Y6091952D01*
G01X11913281Y6091952D01*
G01X11924711Y6097794D01*
G01X11936141Y6109224D01*
G01X12001165Y6212094D02*
G01X12001165Y6114812D01*
G01X12006753Y6097794D01*
G01X12018183Y6091952D01*
G01X12029613Y6091952D01*
G01X11983893Y6171962D02*
G01X12024025Y6171962D01*
G01X12077365Y6137672D02*
G01X12145945Y6137672D01*
G01X12145945Y6149102D01*
G01X12140357Y6160532D01*
G01X12134515Y6166374D01*
G01X12123085Y6171962D01*
G01X12106067Y6171962D01*
G01X12094637Y6166374D01*
G01X12083207Y6154944D01*
G01X12077365Y6137672D01*
G01X12077365Y6126242D01*
G01X12083207Y6109224D01*
G01X12094637Y6097794D01*
G01X12106067Y6091952D01*
G01X12123085Y6091952D01*
G01X12134515Y6097794D01*
G01X12145945Y6109224D01*
G01X12262277Y6212094D02*
G01X12262277Y6091952D01*
G01X12262277Y6154944D02*
G01X12250847Y6166374D01*
G01X12239417Y6171962D01*
G01X12222399Y6171962D01*
G01X12210969Y6166374D01*
G01X12199539Y6154944D01*
G01X12193697Y6137672D01*
G01X12193697Y6126242D01*
G01X12199539Y6109224D01*
G01X12210969Y6097794D01*
G01X12222399Y6091952D01*
G01X12239417Y6091952D01*
G01X12250847Y6097794D01*
G01X12262277Y6109224D01*
G01X13233464Y6194822D02*
G01X13222034Y6206252D01*
G01X13205016Y6212094D01*
G01X13182156Y6212094D01*
G01X13164884Y6206252D01*
G01X13153454Y6194822D01*
G01X13153454Y6183392D01*
G01X13159296Y6171962D01*
G01X13164884Y6166374D01*
G01X13176314Y6160532D01*
G01X13210604Y6149102D01*
G01X13222034Y6143514D01*
G01X13227876Y6137672D01*
G01X13233464Y6126242D01*
G01X13233464Y6109224D01*
G01X13222034Y6097794D01*
G01X13205016Y6091952D01*
G01X13182156Y6091952D01*
G01X13164884Y6097794D01*
G01X13153454Y6109224D01*
G01X13281216Y6212094D02*
G01X13281216Y6091952D01*
G01X13281216Y6149102D02*
G01X13298488Y6166374D01*
G01X13309918Y6171962D01*
G01X13326936Y6171962D01*
G01X13338366Y6166374D01*
G01X13344208Y6149102D01*
G01X13344208Y6091952D01*
G01X13460540Y6171962D02*
G01X13460540Y6091952D01*
G01X13460540Y6154944D02*
G01X13449110Y6166374D01*
G01X13437680Y6171962D01*
G01X13420662Y6171962D01*
G01X13409232Y6166374D01*
G01X13397802Y6154944D01*
G01X13391960Y6137672D01*
G01X13391960Y6126242D01*
G01X13397802Y6109224D01*
G01X13409232Y6097794D01*
G01X13420662Y6091952D01*
G01X13437680Y6091952D01*
G01X13449110Y6097794D01*
G01X13460540Y6109224D01*
G01X13508292Y6171962D02*
G01X13508292Y6052074D01*
G01X13508292Y6154944D02*
G01X13519722Y6166374D01*
G01X13531152Y6171962D01*
G01X13548424Y6171962D01*
G01X13559854Y6166374D01*
G01X13571284Y6154944D01*
G01X13576872Y6137672D01*
G01X13576872Y6126242D01*
G01X13571284Y6109224D01*
G01X13559854Y6097794D01*
G01X13548424Y6091952D01*
G01X13531152Y6091952D01*
G01X13519722Y6097794D01*
G01X13508292Y6109224D01*
G01X13624624Y6137672D02*
G01X13693204Y6137672D01*
G01X13693204Y6149102D01*
G01X13687616Y6160532D01*
G01X13681774Y6166374D01*
G01X13670344Y6171962D01*
G01X13653326Y6171962D01*
G01X13641896Y6166374D01*
G01X13630466Y6154944D01*
G01X13624624Y6137672D01*
G01X13624624Y6126242D01*
G01X13630466Y6109224D01*
G01X13641896Y6097794D01*
G01X13653326Y6091952D01*
G01X13670344Y6091952D01*
G01X13681774Y6097794D01*
G01X13693204Y6109224D01*
G01X14584635Y6212094D02*
G01X14630355Y6091952D01*
G01X14676075Y6212094D02*
G01X14630355Y6091952D01*
G01X14723827Y6212094D02*
G01X14729669Y6206252D01*
G01X14735257Y6212094D01*
G01X14729669Y6217682D01*
G01X14723827Y6212094D01*
G01X14729669Y6171962D02*
G01X14729669Y6091952D01*
G01X14851589Y6171962D02*
G01X14851589Y6091952D01*
G01X14851589Y6154944D02*
G01X14840159Y6166374D01*
G01X14828729Y6171962D01*
G01X14811711Y6171962D01*
G01X14800281Y6166374D01*
G01X14788851Y6154944D01*
G01X14783009Y6137672D01*
G01X14783009Y6126242D01*
G01X14788851Y6109224D01*
G01X14800281Y6097794D01*
G01X14811711Y6091952D01*
G01X14828729Y6091952D01*
G01X14840159Y6097794D01*
G01X14851589Y6109224D01*
G01X15002211Y6234954D02*
G01X14899341Y6052074D01*
G01X15049963Y6212094D02*
G01X15049963Y6091952D01*
G01X15049963Y6212094D02*
G01X15101525Y6212094D01*
G01X15118543Y6206252D01*
G01X15124385Y6200664D01*
G01X15129973Y6189234D01*
G01X15129973Y6171962D01*
G01X15124385Y6160532D01*
G01X15118543Y6154944D01*
G01X15101525Y6149102D01*
G01X15049963Y6149102D01*
G01X15246305Y6171962D02*
G01X15246305Y6091952D01*
G01X15246305Y6154944D02*
G01X15234875Y6166374D01*
G01X15223445Y6171962D01*
G01X15206427Y6171962D01*
G01X15194997Y6166374D01*
G01X15183567Y6154944D01*
G01X15177725Y6137672D01*
G01X15177725Y6126242D01*
G01X15183567Y6109224D01*
G01X15194997Y6097794D01*
G01X15206427Y6091952D01*
G01X15223445Y6091952D01*
G01X15234875Y6097794D01*
G01X15246305Y6109224D01*
G01X15362637Y6212094D02*
G01X15362637Y6091952D01*
G01X15362637Y6154944D02*
G01X15351207Y6166374D01*
G01X15339777Y6171962D01*
G01X15322759Y6171962D01*
G01X15311329Y6166374D01*
G01X15299899Y6154944D01*
G01X15294057Y6137672D01*
G01X15294057Y6126242D01*
G01X15299899Y6109224D01*
G01X15311329Y6097794D01*
G01X15322759Y6091952D01*
G01X15339777Y6091952D01*
G01X15351207Y6097794D01*
G01X15362637Y6109224D01*
G01X16253814Y6212094D02*
G01X16253814Y6091952D01*
G01X16253814Y6212094D02*
G01X16305376Y6212094D01*
G01X16322394Y6206252D01*
G01X16328236Y6200664D01*
G01X16333824Y6189234D01*
G01X16333824Y6171962D01*
G01X16328236Y6160532D01*
G01X16322394Y6154944D01*
G01X16305376Y6149102D01*
G01X16253814Y6149102D01*
G01X16450156Y6171962D02*
G01X16450156Y6091952D01*
G01X16450156Y6154944D02*
G01X16438726Y6166374D01*
G01X16427296Y6171962D01*
G01X16410278Y6171962D01*
G01X16398848Y6166374D01*
G01X16387418Y6154944D01*
G01X16381576Y6137672D01*
G01X16381576Y6126242D01*
G01X16387418Y6109224D01*
G01X16398848Y6097794D01*
G01X16410278Y6091952D01*
G01X16427296Y6091952D01*
G01X16438726Y6097794D01*
G01X16450156Y6109224D01*
G01X16566488Y6212094D02*
G01X16566488Y6091952D01*
G01X16566488Y6154944D02*
G01X16555058Y6166374D01*
G01X16543628Y6171962D01*
G01X16526610Y6171962D01*
G01X16515180Y6166374D01*
G01X16503750Y6154944D01*
G01X16497908Y6137672D01*
G01X16497908Y6126242D01*
G01X16503750Y6109224D01*
G01X16515180Y6097794D01*
G01X16526610Y6091952D01*
G01X16543628Y6091952D01*
G01X16555058Y6097794D01*
G01X16566488Y6109224D01*
G01X16822266Y6194822D02*
G01X16810836Y6206252D01*
G01X16793818Y6212094D01*
G01X16770958Y6212094D01*
G01X16753686Y6206252D01*
G01X16742256Y6194822D01*
G01X16742256Y6183392D01*
G01X16748098Y6171962D01*
G01X16753686Y6166374D01*
G01X16765116Y6160532D01*
G01X16799406Y6149102D01*
G01X16810836Y6143514D01*
G01X16816678Y6137672D01*
G01X16822266Y6126242D01*
G01X16822266Y6109224D01*
G01X16810836Y6097794D01*
G01X16793818Y6091952D01*
G01X16770958Y6091952D01*
G01X16753686Y6097794D01*
G01X16742256Y6109224D01*
G01X16870018Y6212094D02*
G01X16870018Y6091952D01*
G01X16870018Y6149102D02*
G01X16887290Y6166374D01*
G01X16898720Y6171962D01*
G01X16915738Y6171962D01*
G01X16927168Y6166374D01*
G01X16933010Y6149102D01*
G01X16933010Y6091952D01*
G01X17049342Y6171962D02*
G01X17049342Y6091952D01*
G01X17049342Y6154944D02*
G01X17037912Y6166374D01*
G01X17026482Y6171962D01*
G01X17009464Y6171962D01*
G01X16998034Y6166374D01*
G01X16986604Y6154944D01*
G01X16980762Y6137672D01*
G01X16980762Y6126242D01*
G01X16986604Y6109224D01*
G01X16998034Y6097794D01*
G01X17009464Y6091952D01*
G01X17026482Y6091952D01*
G01X17037912Y6097794D01*
G01X17049342Y6109224D01*
G01X17097094Y6171962D02*
G01X17097094Y6052074D01*
G01X17097094Y6154944D02*
G01X17108524Y6166374D01*
G01X17119954Y6171962D01*
G01X17137226Y6171962D01*
G01X17148656Y6166374D01*
G01X17160086Y6154944D01*
G01X17165674Y6137672D01*
G01X17165674Y6126242D01*
G01X17160086Y6109224D01*
G01X17148656Y6097794D01*
G01X17137226Y6091952D01*
G01X17119954Y6091952D01*
G01X17108524Y6097794D01*
G01X17097094Y6109224D01*
G01X17213426Y6137672D02*
G01X17282006Y6137672D01*
G01X17282006Y6149102D01*
G01X17276418Y6160532D01*
G01X17270576Y6166374D01*
G01X17259146Y6171962D01*
G01X17242128Y6171962D01*
G01X17230698Y6166374D01*
G01X17219268Y6154944D01*
G01X17213426Y6137672D01*
G01X17213426Y6126242D01*
G01X17219268Y6109224D01*
G01X17230698Y6097794D01*
G01X17242128Y6091952D01*
G01X17259146Y6091952D01*
G01X17270576Y6097794D01*
G01X17282006Y6109224D01*
G01X18173183Y6212094D02*
G01X18173183Y6091952D01*
G01X18173183Y6091952D02*
G01X18241763Y6091952D01*
G01X18358095Y6171962D02*
G01X18358095Y6091952D01*
G01X18358095Y6154944D02*
G01X18346665Y6166374D01*
G01X18335235Y6171962D01*
G01X18318217Y6171962D01*
G01X18306787Y6166374D01*
G01X18295357Y6154944D01*
G01X18289515Y6137672D01*
G01X18289515Y6126242D01*
G01X18295357Y6109224D01*
G01X18306787Y6097794D01*
G01X18318217Y6091952D01*
G01X18335235Y6091952D01*
G01X18346665Y6097794D01*
G01X18358095Y6109224D01*
G01X18411689Y6171962D02*
G01X18445979Y6091952D01*
G01X18480269Y6171962D02*
G01X18445979Y6091952D01*
G01X18434549Y6069092D01*
G01X18423119Y6057662D01*
G01X18411689Y6052074D01*
G01X18405847Y6052074D01*
G01X18528021Y6137672D02*
G01X18596601Y6137672D01*
G01X18596601Y6149102D01*
G01X18591013Y6160532D01*
G01X18585171Y6166374D01*
G01X18573741Y6171962D01*
G01X18556723Y6171962D01*
G01X18545293Y6166374D01*
G01X18533863Y6154944D01*
G01X18528021Y6137672D01*
G01X18528021Y6126242D01*
G01X18533863Y6109224D01*
G01X18545293Y6097794D01*
G01X18556723Y6091952D01*
G01X18573741Y6091952D01*
G01X18585171Y6097794D01*
G01X18596601Y6109224D01*
G01X18644353Y6171962D02*
G01X18644353Y6091952D01*
G01X18644353Y6137672D02*
G01X18650195Y6154944D01*
G01X18661625Y6166374D01*
G01X18673055Y6171962D01*
G01X18690073Y6171962D01*
G01X18865841Y6212094D02*
G01X18865841Y6091952D01*
G01X18865841Y6212094D02*
G01X18917403Y6212094D01*
G01X18934421Y6206252D01*
G01X18940263Y6200664D01*
G01X18945851Y6189234D01*
G01X18945851Y6171962D01*
G01X18940263Y6160532D01*
G01X18934421Y6154944D01*
G01X18917403Y6149102D01*
G01X18865841Y6149102D01*
G01X19062183Y6171962D02*
G01X19062183Y6091952D01*
G01X19062183Y6154944D02*
G01X19050753Y6166374D01*
G01X19039323Y6171962D01*
G01X19022305Y6171962D01*
G01X19010875Y6166374D01*
G01X18999445Y6154944D01*
G01X18993603Y6137672D01*
G01X18993603Y6126242D01*
G01X18999445Y6109224D01*
G01X19010875Y6097794D01*
G01X19022305Y6091952D01*
G01X19039323Y6091952D01*
G01X19050753Y6097794D01*
G01X19062183Y6109224D01*
G01X19109935Y6212094D02*
G01X19115777Y6206252D01*
G01X19121365Y6212094D01*
G01X19115777Y6217682D01*
G01X19109935Y6212094D01*
G01X19115777Y6171962D02*
G01X19115777Y6091952D01*
G01X19169117Y6171962D02*
G01X19169117Y6091952D01*
G01X19169117Y6137672D02*
G01X19174959Y6154944D01*
G01X19186389Y6166374D01*
G01X19197819Y6171962D01*
G01X19214837Y6171962D01*
G01X6254124Y5631523D02*
G01X6196974Y5551513D01*
G01X6282826Y5551513D01*
G01X6254124Y5631523D02*
G01X6254124Y5511381D01*
G01X7611137Y5608663D02*
G01X7622567Y5614251D01*
G01X7639839Y5631523D01*
G01X7639839Y5511381D01*
G01X7693433Y5602821D02*
G01X7693433Y5608663D01*
G01X7699021Y5620093D01*
G01X7704863Y5625681D01*
G01X7716293Y5631523D01*
G01X7739153Y5631523D01*
G01X7750583Y5625681D01*
G01X7756171Y5620093D01*
G01X7762013Y5608663D01*
G01X7762013Y5597233D01*
G01X7756171Y5585803D01*
G01X7744741Y5568531D01*
G01X7687591Y5511381D01*
G01X7767601Y5511381D01*
G01X7883933Y5614251D02*
G01X7878345Y5625681D01*
G01X7861073Y5631523D01*
G01X7849643Y5631523D01*
G01X7832625Y5625681D01*
G01X7821195Y5608663D01*
G01X7815353Y5579961D01*
G01X7815353Y5551513D01*
G01X7821195Y5528653D01*
G01X7832625Y5517223D01*
G01X7849643Y5511381D01*
G01X7855485Y5511381D01*
G01X7872503Y5517223D01*
G01X7883933Y5528653D01*
G01X7889775Y5545671D01*
G01X7889775Y5551513D01*
G01X7883933Y5568531D01*
G01X7872503Y5579961D01*
G01X7855485Y5585803D01*
G01X7849643Y5585803D01*
G01X7832625Y5579961D01*
G01X7821195Y5568531D01*
G01X7815353Y5551513D01*
G01X7943369Y5540083D02*
G01X7937527Y5534241D01*
G01X7943369Y5528653D01*
G01X7948957Y5534241D01*
G01X7943369Y5540083D01*
G01X8030999Y5631523D02*
G01X8013981Y5625681D01*
G01X8002551Y5608663D01*
G01X7996709Y5579961D01*
G01X7996709Y5562943D01*
G01X8002551Y5534241D01*
G01X8013981Y5517223D01*
G01X8030999Y5511381D01*
G01X8042429Y5511381D01*
G01X8059701Y5517223D01*
G01X8071131Y5534241D01*
G01X8076719Y5562943D01*
G01X8076719Y5579961D01*
G01X8071131Y5608663D01*
G01X8059701Y5625681D01*
G01X8042429Y5631523D01*
G01X8030999Y5631523D01*
G01X8124471Y5591391D02*
G01X8187463Y5511381D01*
G01X8187463Y5591391D02*
G01X8124471Y5511381D01*
G01X8241057Y5602821D02*
G01X8241057Y5608663D01*
G01X8246645Y5620093D01*
G01X8252487Y5625681D01*
G01X8263917Y5631523D01*
G01X8286777Y5631523D01*
G01X8298207Y5625681D01*
G01X8303795Y5620093D01*
G01X8309637Y5608663D01*
G01X8309637Y5597233D01*
G01X8303795Y5585803D01*
G01X8292365Y5568531D01*
G01X8235215Y5511381D01*
G01X8315225Y5511381D01*
G01X8374407Y5631523D02*
G01X8437399Y5631523D01*
G01X8403109Y5585803D01*
G01X8420127Y5585803D01*
G01X8431557Y5579961D01*
G01X8437399Y5574373D01*
G01X8442987Y5557101D01*
G01X8442987Y5545671D01*
G01X8437399Y5528653D01*
G01X8425969Y5517223D01*
G01X8408697Y5511381D01*
G01X8391679Y5511381D01*
G01X8374407Y5517223D01*
G01X8368819Y5522811D01*
G01X8362977Y5534241D01*
G01X8559319Y5614251D02*
G01X8553731Y5625681D01*
G01X8536459Y5631523D01*
G01X8525029Y5631523D01*
G01X8508011Y5625681D01*
G01X8496581Y5608663D01*
G01X8490739Y5579961D01*
G01X8490739Y5551513D01*
G01X8496581Y5528653D01*
G01X8508011Y5517223D01*
G01X8525029Y5511381D01*
G01X8530871Y5511381D01*
G01X8547889Y5517223D01*
G01X8559319Y5528653D01*
G01X8565161Y5545671D01*
G01X8565161Y5551513D01*
G01X8559319Y5568531D01*
G01X8547889Y5579961D01*
G01X8530871Y5585803D01*
G01X8525029Y5585803D01*
G01X8508011Y5579961D01*
G01X8496581Y5568531D01*
G01X8490739Y5551513D01*
G01X8618755Y5540083D02*
G01X8612913Y5534241D01*
G01X8618755Y5528653D01*
G01X8624343Y5534241D01*
G01X8618755Y5540083D01*
G01X8677937Y5602821D02*
G01X8677937Y5608663D01*
G01X8683525Y5620093D01*
G01X8689367Y5625681D01*
G01X8700797Y5631523D01*
G01X8723657Y5631523D01*
G01X8735087Y5625681D01*
G01X8740675Y5620093D01*
G01X8746517Y5608663D01*
G01X8746517Y5597233D01*
G01X8740675Y5585803D01*
G01X8729245Y5568531D01*
G01X8672095Y5511381D01*
G01X8752105Y5511381D01*
G01X8799857Y5591391D02*
G01X8799857Y5511381D01*
G01X8799857Y5568531D02*
G01X8817129Y5585803D01*
G01X8828559Y5591391D01*
G01X8845577Y5591391D01*
G01X8857007Y5585803D01*
G01X8862849Y5568531D01*
G01X8862849Y5511381D01*
G01X8862849Y5568531D02*
G01X8879867Y5585803D01*
G01X8891297Y5591391D01*
G01X8908569Y5591391D01*
G01X8919999Y5585803D01*
G01X8925587Y5568531D01*
G01X8925587Y5511381D01*
G01X8973339Y5631523D02*
G01X8979181Y5625681D01*
G01X8984769Y5631523D01*
G01X8979181Y5637111D01*
G01X8973339Y5631523D01*
G01X8979181Y5591391D02*
G01X8979181Y5511381D01*
G01X9032521Y5631523D02*
G01X9032521Y5511381D01*
G01X9120405Y5654383D02*
G01X9108975Y5642953D01*
G01X9097545Y5625681D01*
G01X9086115Y5602821D01*
G01X9080273Y5574373D01*
G01X9080273Y5551513D01*
G01X9086115Y5522811D01*
G01X9097545Y5499951D01*
G01X9108975Y5482933D01*
G01X9120405Y5471503D01*
G01X9179587Y5631523D02*
G01X9242579Y5631523D01*
G01X9208289Y5585803D01*
G01X9225307Y5585803D01*
G01X9236737Y5579961D01*
G01X9242579Y5574373D01*
G01X9248167Y5557101D01*
G01X9248167Y5545671D01*
G01X9242579Y5528653D01*
G01X9231149Y5517223D01*
G01X9213877Y5511381D01*
G01X9196859Y5511381D01*
G01X9179587Y5517223D01*
G01X9173999Y5522811D01*
G01X9168157Y5534241D01*
G01X9301761Y5540083D02*
G01X9295919Y5534241D01*
G01X9301761Y5528653D01*
G01X9307349Y5534241D01*
G01X9301761Y5540083D01*
G01X9360943Y5602821D02*
G01X9360943Y5608663D01*
G01X9366531Y5620093D01*
G01X9372373Y5625681D01*
G01X9383803Y5631523D01*
G01X9406663Y5631523D01*
G01X9418093Y5625681D01*
G01X9423681Y5620093D01*
G01X9429523Y5608663D01*
G01X9429523Y5597233D01*
G01X9423681Y5585803D01*
G01X9412251Y5568531D01*
G01X9355101Y5511381D01*
G01X9435111Y5511381D01*
G01X9517153Y5631523D02*
G01X9500135Y5625681D01*
G01X9488705Y5608663D01*
G01X9482863Y5579961D01*
G01X9482863Y5562943D01*
G01X9488705Y5534241D01*
G01X9500135Y5517223D01*
G01X9517153Y5511381D01*
G01X9528583Y5511381D01*
G01X9545855Y5517223D01*
G01X9557285Y5534241D01*
G01X9562873Y5562943D01*
G01X9562873Y5579961D01*
G01X9557285Y5608663D01*
G01X9545855Y5625681D01*
G01X9528583Y5631523D01*
G01X9517153Y5631523D01*
G01X9644915Y5631523D02*
G01X9627897Y5625681D01*
G01X9616467Y5608663D01*
G01X9610625Y5579961D01*
G01X9610625Y5562943D01*
G01X9616467Y5534241D01*
G01X9627897Y5517223D01*
G01X9644915Y5511381D01*
G01X9656345Y5511381D01*
G01X9673617Y5517223D01*
G01X9685047Y5534241D01*
G01X9690635Y5562943D01*
G01X9690635Y5579961D01*
G01X9685047Y5608663D01*
G01X9673617Y5625681D01*
G01X9656345Y5631523D01*
G01X9644915Y5631523D01*
G01X9738387Y5591391D02*
G01X9801379Y5511381D01*
G01X9801379Y5591391D02*
G01X9738387Y5511381D01*
G01X9917711Y5614251D02*
G01X9912123Y5625681D01*
G01X9894851Y5631523D01*
G01X9883421Y5631523D01*
G01X9866403Y5625681D01*
G01X9854973Y5608663D01*
G01X9849131Y5579961D01*
G01X9849131Y5551513D01*
G01X9854973Y5528653D01*
G01X9866403Y5517223D01*
G01X9883421Y5511381D01*
G01X9889263Y5511381D01*
G01X9906281Y5517223D01*
G01X9917711Y5528653D01*
G01X9923553Y5545671D01*
G01X9923553Y5551513D01*
G01X9917711Y5568531D01*
G01X9906281Y5579961D01*
G01X9889263Y5585803D01*
G01X9883421Y5585803D01*
G01X9866403Y5579961D01*
G01X9854973Y5568531D01*
G01X9849131Y5551513D01*
G01X9977147Y5540083D02*
G01X9971305Y5534241D01*
G01X9977147Y5528653D01*
G01X9982735Y5534241D01*
G01X9977147Y5540083D01*
G01X10064777Y5631523D02*
G01X10047759Y5625681D01*
G01X10036329Y5608663D01*
G01X10030487Y5579961D01*
G01X10030487Y5562943D01*
G01X10036329Y5534241D01*
G01X10047759Y5517223D01*
G01X10064777Y5511381D01*
G01X10076207Y5511381D01*
G01X10093479Y5517223D01*
G01X10104909Y5534241D01*
G01X10110497Y5562943D01*
G01X10110497Y5579961D01*
G01X10104909Y5608663D01*
G01X10093479Y5625681D01*
G01X10076207Y5631523D01*
G01X10064777Y5631523D01*
G01X10192539Y5631523D02*
G01X10175521Y5625681D01*
G01X10164091Y5608663D01*
G01X10158249Y5579961D01*
G01X10158249Y5562943D01*
G01X10164091Y5534241D01*
G01X10175521Y5517223D01*
G01X10192539Y5511381D01*
G01X10203969Y5511381D01*
G01X10221241Y5517223D01*
G01X10232671Y5534241D01*
G01X10238259Y5562943D01*
G01X10238259Y5579961D01*
G01X10232671Y5608663D01*
G01X10221241Y5625681D01*
G01X10203969Y5631523D01*
G01X10192539Y5631523D01*
G01X10320301Y5631523D02*
G01X10303283Y5625681D01*
G01X10291853Y5608663D01*
G01X10286011Y5579961D01*
G01X10286011Y5562943D01*
G01X10291853Y5534241D01*
G01X10303283Y5517223D01*
G01X10320301Y5511381D01*
G01X10331731Y5511381D01*
G01X10349003Y5517223D01*
G01X10360433Y5534241D01*
G01X10366021Y5562943D01*
G01X10366021Y5579961D01*
G01X10360433Y5608663D01*
G01X10349003Y5625681D01*
G01X10331731Y5631523D01*
G01X10320301Y5631523D01*
G01X10413773Y5591391D02*
G01X10413773Y5511381D01*
G01X10413773Y5568531D02*
G01X10431045Y5585803D01*
G01X10442475Y5591391D01*
G01X10459493Y5591391D01*
G01X10470923Y5585803D01*
G01X10476765Y5568531D01*
G01X10476765Y5511381D01*
G01X10476765Y5568531D02*
G01X10493783Y5585803D01*
G01X10505213Y5591391D01*
G01X10522485Y5591391D01*
G01X10533915Y5585803D01*
G01X10539503Y5568531D01*
G01X10539503Y5511381D01*
G01X10587255Y5591391D02*
G01X10587255Y5511381D01*
G01X10587255Y5568531D02*
G01X10604527Y5585803D01*
G01X10615957Y5591391D01*
G01X10632975Y5591391D01*
G01X10644405Y5585803D01*
G01X10650247Y5568531D01*
G01X10650247Y5511381D01*
G01X10650247Y5568531D02*
G01X10667265Y5585803D01*
G01X10678695Y5591391D01*
G01X10695967Y5591391D01*
G01X10707397Y5585803D01*
G01X10712985Y5568531D01*
G01X10712985Y5511381D01*
G01X10760737Y5654383D02*
G01X10772167Y5642953D01*
G01X10783597Y5625681D01*
G01X10795027Y5602821D01*
G01X10800869Y5574373D01*
G01X10800869Y5551513D01*
G01X10795027Y5522811D01*
G01X10783597Y5499951D01*
G01X10772167Y5482933D01*
G01X10760737Y5471503D01*
G01X11692047Y5631523D02*
G01X11692047Y5511381D01*
G01X11692047Y5631523D02*
G01X11743609Y5631523D01*
G01X11760627Y5625681D01*
G01X11766469Y5620093D01*
G01X11772057Y5608663D01*
G01X11772057Y5591391D01*
G01X11766469Y5579961D01*
G01X11760627Y5574373D01*
G01X11743609Y5568531D01*
G01X11692047Y5568531D01*
G01X11859941Y5631523D02*
G01X11859941Y5511381D01*
G01X11819809Y5631523D02*
G01X11899819Y5631523D01*
G01X11947571Y5631523D02*
G01X11947571Y5511381D01*
G01X12027581Y5631523D02*
G01X12027581Y5511381D01*
G01X11947571Y5574373D02*
G01X12027581Y5574373D01*
G01X13233464Y5614251D02*
G01X13222034Y5625681D01*
G01X13205016Y5631523D01*
G01X13182156Y5631523D01*
G01X13164884Y5625681D01*
G01X13153454Y5614251D01*
G01X13153454Y5602821D01*
G01X13159296Y5591391D01*
G01X13164884Y5585803D01*
G01X13176314Y5579961D01*
G01X13210604Y5568531D01*
G01X13222034Y5562943D01*
G01X13227876Y5557101D01*
G01X13233464Y5545671D01*
G01X13233464Y5528653D01*
G01X13222034Y5517223D01*
G01X13205016Y5511381D01*
G01X13182156Y5511381D01*
G01X13164884Y5517223D01*
G01X13153454Y5528653D01*
G01X13281216Y5631523D02*
G01X13281216Y5511381D01*
G01X13357670Y5591391D02*
G01X13346240Y5585803D01*
G01X13334810Y5574373D01*
G01X13328968Y5557101D01*
G01X13328968Y5545671D01*
G01X13334810Y5528653D01*
G01X13346240Y5517223D01*
G01X13357670Y5511381D01*
G01X13374688Y5511381D01*
G01X13386118Y5517223D01*
G01X13397548Y5528653D01*
G01X13403390Y5545671D01*
G01X13403390Y5557101D01*
G01X13397548Y5574373D01*
G01X13386118Y5585803D01*
G01X13374688Y5591391D01*
G01X13357670Y5591391D01*
G01X13468414Y5631523D02*
G01X13468414Y5534241D01*
G01X13474002Y5517223D01*
G01X13485432Y5511381D01*
G01X13496862Y5511381D01*
G01X13451142Y5591391D02*
G01X13491274Y5591391D01*
G01X14584635Y5631523D02*
G01X14584635Y5511381D01*
G01X14584635Y5631523D02*
G01X14636197Y5631523D01*
G01X14653215Y5625681D01*
G01X14659057Y5620093D01*
G01X14664645Y5608663D01*
G01X14664645Y5591391D01*
G01X14659057Y5579961D01*
G01X14653215Y5574373D01*
G01X14636197Y5568531D01*
G01X14584635Y5568531D01*
G01X14780977Y5591391D02*
G01X14780977Y5511381D01*
G01X14780977Y5574373D02*
G01X14769547Y5585803D01*
G01X14758117Y5591391D01*
G01X14741099Y5591391D01*
G01X14729669Y5585803D01*
G01X14718239Y5574373D01*
G01X14712397Y5557101D01*
G01X14712397Y5545671D01*
G01X14718239Y5528653D01*
G01X14729669Y5517223D01*
G01X14741099Y5511381D01*
G01X14758117Y5511381D01*
G01X14769547Y5517223D01*
G01X14780977Y5528653D01*
G01X14897309Y5631523D02*
G01X14897309Y5511381D01*
G01X14897309Y5574373D02*
G01X14885879Y5585803D01*
G01X14874449Y5591391D01*
G01X14857431Y5591391D01*
G01X14846001Y5585803D01*
G01X14834571Y5574373D01*
G01X14828729Y5557101D01*
G01X14828729Y5545671D01*
G01X14834571Y5528653D01*
G01X14846001Y5517223D01*
G01X14857431Y5511381D01*
G01X14874449Y5511381D01*
G01X14885879Y5517223D01*
G01X14897309Y5528653D01*
G01X16288104Y5631523D02*
G01X16276674Y5625681D01*
G01X16265244Y5614251D01*
G01X16259656Y5602821D01*
G01X16253814Y5585803D01*
G01X16253814Y5557101D01*
G01X16259656Y5540083D01*
G01X16265244Y5528653D01*
G01X16276674Y5517223D01*
G01X16288104Y5511381D01*
G01X16310964Y5511381D01*
G01X16322394Y5517223D01*
G01X16333824Y5528653D01*
G01X16339666Y5540083D01*
G01X16345254Y5557101D01*
G01X16345254Y5585803D01*
G01X16339666Y5602821D01*
G01X16333824Y5614251D01*
G01X16322394Y5625681D01*
G01X16310964Y5631523D01*
G01X16288104Y5631523D01*
G01X16393006Y5591391D02*
G01X16427296Y5511381D01*
G01X16461586Y5591391D02*
G01X16427296Y5511381D01*
G01X16577918Y5591391D02*
G01X16577918Y5511381D01*
G01X16577918Y5574373D02*
G01X16566488Y5585803D01*
G01X16555058Y5591391D01*
G01X16538040Y5591391D01*
G01X16526610Y5585803D01*
G01X16515180Y5574373D01*
G01X16509338Y5557101D01*
G01X16509338Y5545671D01*
G01X16515180Y5528653D01*
G01X16526610Y5517223D01*
G01X16538040Y5511381D01*
G01X16555058Y5511381D01*
G01X16566488Y5517223D01*
G01X16577918Y5528653D01*
G01X16625670Y5631523D02*
G01X16625670Y5511381D01*
G01X18213315Y5631523D02*
G01X18213315Y5511381D01*
G01X18173183Y5631523D02*
G01X18253193Y5631523D01*
G01X18329647Y5591391D02*
G01X18318217Y5585803D01*
G01X18306787Y5574373D01*
G01X18300945Y5557101D01*
G01X18300945Y5545671D01*
G01X18306787Y5528653D01*
G01X18318217Y5517223D01*
G01X18329647Y5511381D01*
G01X18346665Y5511381D01*
G01X18358095Y5517223D01*
G01X18369525Y5528653D01*
G01X18375367Y5545671D01*
G01X18375367Y5557101D01*
G01X18369525Y5574373D01*
G01X18358095Y5585803D01*
G01X18346665Y5591391D01*
G01X18329647Y5591391D01*
G01X18423119Y5591391D02*
G01X18423119Y5471503D01*
G01X18423119Y5574373D02*
G01X18434549Y5585803D01*
G01X18445979Y5591391D01*
G01X18463251Y5591391D01*
G01X18474681Y5585803D01*
G01X18486111Y5574373D01*
G01X18491699Y5557101D01*
G01X18491699Y5545671D01*
G01X18486111Y5528653D01*
G01X18474681Y5517223D01*
G01X18463251Y5511381D01*
G01X18445979Y5511381D01*
G01X18434549Y5517223D01*
G01X18423119Y5528653D01*
G01X18667467Y5631523D02*
G01X18667467Y5511381D01*
G01X18667467Y5511381D02*
G01X18736047Y5511381D01*
G01X18852379Y5591391D02*
G01X18852379Y5511381D01*
G01X18852379Y5574373D02*
G01X18840949Y5585803D01*
G01X18829519Y5591391D01*
G01X18812501Y5591391D01*
G01X18801071Y5585803D01*
G01X18789641Y5574373D01*
G01X18783799Y5557101D01*
G01X18783799Y5545671D01*
G01X18789641Y5528653D01*
G01X18801071Y5517223D01*
G01X18812501Y5511381D01*
G01X18829519Y5511381D01*
G01X18840949Y5517223D01*
G01X18852379Y5528653D01*
G01X18905973Y5591391D02*
G01X18940263Y5511381D01*
G01X18974553Y5591391D02*
G01X18940263Y5511381D01*
G01X18928833Y5488521D01*
G01X18917403Y5477091D01*
G01X18905973Y5471503D01*
G01X18900131Y5471503D01*
G01X19022305Y5557101D02*
G01X19090885Y5557101D01*
G01X19090885Y5568531D01*
G01X19085297Y5579961D01*
G01X19079455Y5585803D01*
G01X19068025Y5591391D01*
G01X19051007Y5591391D01*
G01X19039577Y5585803D01*
G01X19028147Y5574373D01*
G01X19022305Y5557101D01*
G01X19022305Y5545671D01*
G01X19028147Y5528653D01*
G01X19039577Y5517223D01*
G01X19051007Y5511381D01*
G01X19068025Y5511381D01*
G01X19079455Y5517223D01*
G01X19090885Y5528653D01*
G01X19138637Y5591391D02*
G01X19138637Y5511381D01*
G01X19138637Y5557101D02*
G01X19144479Y5574373D01*
G01X19155909Y5585803D01*
G01X19167339Y5591391D01*
G01X19184357Y5591391D01*
G01X19232109Y5562943D02*
G01X19334979Y5562943D01*
G01X19382731Y5631523D02*
G01X19382731Y5511381D01*
G01X19382731Y5631523D02*
G01X19434293Y5631523D01*
G01X19451311Y5625681D01*
G01X19457153Y5620093D01*
G01X19462741Y5608663D01*
G01X19462741Y5597233D01*
G01X19457153Y5585803D01*
G01X19451311Y5579961D01*
G01X19434293Y5574373D01*
G01X19382731Y5574373D02*
G01X19434293Y5574373D01*
G01X19451311Y5568531D01*
G01X19457153Y5562943D01*
G01X19462741Y5551513D01*
G01X19462741Y5534241D01*
G01X19457153Y5522811D01*
G01X19451311Y5517223D01*
G01X19434293Y5511381D01*
G01X19382731Y5511381D01*
G01X19539195Y5591391D02*
G01X19527765Y5585803D01*
G01X19516335Y5574373D01*
G01X19510493Y5557101D01*
G01X19510493Y5545671D01*
G01X19516335Y5528653D01*
G01X19527765Y5517223D01*
G01X19539195Y5511381D01*
G01X19556213Y5511381D01*
G01X19567643Y5517223D01*
G01X19579073Y5528653D01*
G01X19584915Y5545671D01*
G01X19584915Y5557101D01*
G01X19579073Y5574373D01*
G01X19567643Y5585803D01*
G01X19556213Y5591391D01*
G01X19539195Y5591391D01*
G01X19649939Y5631523D02*
G01X19649939Y5534241D01*
G01X19655527Y5517223D01*
G01X19666957Y5511381D01*
G01X19678387Y5511381D01*
G01X19632667Y5591391D02*
G01X19672799Y5591391D01*
G01X19743411Y5631523D02*
G01X19743411Y5534241D01*
G01X19748999Y5517223D01*
G01X19760429Y5511381D01*
G01X19771859Y5511381D01*
G01X19726139Y5591391D02*
G01X19766271Y5591391D01*
G01X19848313Y5591391D02*
G01X19836883Y5585803D01*
G01X19825453Y5574373D01*
G01X19819611Y5557101D01*
G01X19819611Y5545671D01*
G01X19825453Y5528653D01*
G01X19836883Y5517223D01*
G01X19848313Y5511381D01*
G01X19865331Y5511381D01*
G01X19876761Y5517223D01*
G01X19888191Y5528653D01*
G01X19894033Y5545671D01*
G01X19894033Y5557101D01*
G01X19888191Y5574373D01*
G01X19876761Y5585803D01*
G01X19865331Y5591391D01*
G01X19848313Y5591391D01*
G01X19941785Y5591391D02*
G01X19941785Y5511381D01*
G01X19941785Y5568531D02*
G01X19959057Y5585803D01*
G01X19970487Y5591391D01*
G01X19987505Y5591391D01*
G01X19998935Y5585803D01*
G01X20004777Y5568531D01*
G01X20004777Y5511381D01*
G01X20004777Y5568531D02*
G01X20021795Y5585803D01*
G01X20033225Y5591391D01*
G01X20050497Y5591391D01*
G01X20061927Y5585803D01*
G01X20067515Y5568531D01*
G01X20067515Y5511381D01*
G01X20243283Y5631523D02*
G01X20243283Y5511381D01*
G01X20243283Y5511381D02*
G01X20311863Y5511381D01*
G01X20428195Y5591391D02*
G01X20428195Y5511381D01*
G01X20428195Y5574373D02*
G01X20416765Y5585803D01*
G01X20405335Y5591391D01*
G01X20388317Y5591391D01*
G01X20376887Y5585803D01*
G01X20365457Y5574373D01*
G01X20359615Y5557101D01*
G01X20359615Y5545671D01*
G01X20365457Y5528653D01*
G01X20376887Y5517223D01*
G01X20388317Y5511381D01*
G01X20405335Y5511381D01*
G01X20416765Y5517223D01*
G01X20428195Y5528653D01*
G01X20481789Y5591391D02*
G01X20516079Y5511381D01*
G01X20550369Y5591391D02*
G01X20516079Y5511381D01*
G01X20504649Y5488521D01*
G01X20493219Y5477091D01*
G01X20481789Y5471503D01*
G01X20475947Y5471503D01*
G01X20598121Y5557101D02*
G01X20666701Y5557101D01*
G01X20666701Y5568531D01*
G01X20661113Y5579961D01*
G01X20655271Y5585803D01*
G01X20643841Y5591391D01*
G01X20626823Y5591391D01*
G01X20615393Y5585803D01*
G01X20603963Y5574373D01*
G01X20598121Y5557101D01*
G01X20598121Y5545671D01*
G01X20603963Y5528653D01*
G01X20615393Y5517223D01*
G01X20626823Y5511381D01*
G01X20643841Y5511381D01*
G01X20655271Y5517223D01*
G01X20666701Y5528653D01*
G01X20714453Y5591391D02*
G01X20714453Y5511381D01*
G01X20714453Y5557101D02*
G01X20720295Y5574373D01*
G01X20731725Y5585803D01*
G01X20743155Y5591391D01*
G01X20760173Y5591391D01*
G01X6254124Y5050951D02*
G01X6196974Y4970941D01*
G01X6282826Y4970941D01*
G01X6254124Y5050951D02*
G01X6254124Y4930809D01*
G01X7611137Y5028091D02*
G01X7622567Y5033679D01*
G01X7639839Y5050951D01*
G01X7639839Y4930809D01*
G01X7693433Y5022249D02*
G01X7693433Y5028091D01*
G01X7699021Y5039521D01*
G01X7704863Y5045109D01*
G01X7716293Y5050951D01*
G01X7739153Y5050951D01*
G01X7750583Y5045109D01*
G01X7756171Y5039521D01*
G01X7762013Y5028091D01*
G01X7762013Y5016661D01*
G01X7756171Y5005231D01*
G01X7744741Y4987959D01*
G01X7687591Y4930809D01*
G01X7767601Y4930809D01*
G01X7883933Y5033679D02*
G01X7878345Y5045109D01*
G01X7861073Y5050951D01*
G01X7849643Y5050951D01*
G01X7832625Y5045109D01*
G01X7821195Y5028091D01*
G01X7815353Y4999389D01*
G01X7815353Y4970941D01*
G01X7821195Y4948081D01*
G01X7832625Y4936651D01*
G01X7849643Y4930809D01*
G01X7855485Y4930809D01*
G01X7872503Y4936651D01*
G01X7883933Y4948081D01*
G01X7889775Y4965099D01*
G01X7889775Y4970941D01*
G01X7883933Y4987959D01*
G01X7872503Y4999389D01*
G01X7855485Y5005231D01*
G01X7849643Y5005231D01*
G01X7832625Y4999389D01*
G01X7821195Y4987959D01*
G01X7815353Y4970941D01*
G01X7943369Y4959511D02*
G01X7937527Y4953669D01*
G01X7943369Y4948081D01*
G01X7948957Y4953669D01*
G01X7943369Y4959511D01*
G01X8030999Y5050951D02*
G01X8013981Y5045109D01*
G01X8002551Y5028091D01*
G01X7996709Y4999389D01*
G01X7996709Y4982371D01*
G01X8002551Y4953669D01*
G01X8013981Y4936651D01*
G01X8030999Y4930809D01*
G01X8042429Y4930809D01*
G01X8059701Y4936651D01*
G01X8071131Y4953669D01*
G01X8076719Y4982371D01*
G01X8076719Y4999389D01*
G01X8071131Y5028091D01*
G01X8059701Y5045109D01*
G01X8042429Y5050951D01*
G01X8030999Y5050951D01*
G01X8124471Y5010819D02*
G01X8187463Y4930809D01*
G01X8187463Y5010819D02*
G01X8124471Y4930809D01*
G01X8235215Y5028091D02*
G01X8246645Y5033679D01*
G01X8263917Y5050951D01*
G01X8263917Y4930809D01*
G01X8317511Y5022249D02*
G01X8317511Y5028091D01*
G01X8323099Y5039521D01*
G01X8328941Y5045109D01*
G01X8340371Y5050951D01*
G01X8363231Y5050951D01*
G01X8374661Y5045109D01*
G01X8380249Y5039521D01*
G01X8386091Y5028091D01*
G01X8386091Y5016661D01*
G01X8380249Y5005231D01*
G01X8368819Y4987959D01*
G01X8311669Y4930809D01*
G01X8391679Y4930809D01*
G01X8508011Y5033679D02*
G01X8502423Y5045109D01*
G01X8485151Y5050951D01*
G01X8473721Y5050951D01*
G01X8456703Y5045109D01*
G01X8445273Y5028091D01*
G01X8439431Y4999389D01*
G01X8439431Y4970941D01*
G01X8445273Y4948081D01*
G01X8456703Y4936651D01*
G01X8473721Y4930809D01*
G01X8479563Y4930809D01*
G01X8496581Y4936651D01*
G01X8508011Y4948081D01*
G01X8513853Y4965099D01*
G01X8513853Y4970941D01*
G01X8508011Y4987959D01*
G01X8496581Y4999389D01*
G01X8479563Y5005231D01*
G01X8473721Y5005231D01*
G01X8456703Y4999389D01*
G01X8445273Y4987959D01*
G01X8439431Y4970941D01*
G01X8567447Y4959511D02*
G01X8561605Y4953669D01*
G01X8567447Y4948081D01*
G01X8573035Y4953669D01*
G01X8567447Y4959511D01*
G01X8655077Y5050951D02*
G01X8638059Y5045109D01*
G01X8626629Y5028091D01*
G01X8620787Y4999389D01*
G01X8620787Y4982371D01*
G01X8626629Y4953669D01*
G01X8638059Y4936651D01*
G01X8655077Y4930809D01*
G01X8666507Y4930809D01*
G01X8683779Y4936651D01*
G01X8695209Y4953669D01*
G01X8700797Y4982371D01*
G01X8700797Y4999389D01*
G01X8695209Y5028091D01*
G01X8683779Y5045109D01*
G01X8666507Y5050951D01*
G01X8655077Y5050951D01*
G01X8748549Y5010819D02*
G01X8748549Y4930809D01*
G01X8748549Y4987959D02*
G01X8765821Y5005231D01*
G01X8777251Y5010819D01*
G01X8794269Y5010819D01*
G01X8805699Y5005231D01*
G01X8811541Y4987959D01*
G01X8811541Y4930809D01*
G01X8811541Y4987959D02*
G01X8828559Y5005231D01*
G01X8839989Y5010819D01*
G01X8857261Y5010819D01*
G01X8868691Y5005231D01*
G01X8874279Y4987959D01*
G01X8874279Y4930809D01*
G01X8922031Y5050951D02*
G01X8927873Y5045109D01*
G01X8933461Y5050951D01*
G01X8927873Y5056539D01*
G01X8922031Y5050951D01*
G01X8927873Y5010819D02*
G01X8927873Y4930809D01*
G01X8981213Y5050951D02*
G01X8981213Y4930809D01*
G01X9069097Y5073811D02*
G01X9057667Y5062381D01*
G01X9046237Y5045109D01*
G01X9034807Y5022249D01*
G01X9028965Y4993801D01*
G01X9028965Y4970941D01*
G01X9034807Y4942239D01*
G01X9046237Y4919379D01*
G01X9057667Y4902361D01*
G01X9069097Y4890931D01*
G01X9128279Y5050951D02*
G01X9191271Y5050951D01*
G01X9156981Y5005231D01*
G01X9173999Y5005231D01*
G01X9185429Y4999389D01*
G01X9191271Y4993801D01*
G01X9196859Y4976529D01*
G01X9196859Y4965099D01*
G01X9191271Y4948081D01*
G01X9179841Y4936651D01*
G01X9162569Y4930809D01*
G01X9145551Y4930809D01*
G01X9128279Y4936651D01*
G01X9122691Y4942239D01*
G01X9116849Y4953669D01*
G01X9250453Y4959511D02*
G01X9244611Y4953669D01*
G01X9250453Y4948081D01*
G01X9256041Y4953669D01*
G01X9250453Y4959511D01*
G01X9309635Y5022249D02*
G01X9309635Y5028091D01*
G01X9315223Y5039521D01*
G01X9321065Y5045109D01*
G01X9332495Y5050951D01*
G01X9355355Y5050951D01*
G01X9366785Y5045109D01*
G01X9372373Y5039521D01*
G01X9378215Y5028091D01*
G01X9378215Y5016661D01*
G01X9372373Y5005231D01*
G01X9360943Y4987959D01*
G01X9303793Y4930809D01*
G01X9383803Y4930809D01*
G01X9465845Y5050951D02*
G01X9448827Y5045109D01*
G01X9437397Y5028091D01*
G01X9431555Y4999389D01*
G01X9431555Y4982371D01*
G01X9437397Y4953669D01*
G01X9448827Y4936651D01*
G01X9465845Y4930809D01*
G01X9477275Y4930809D01*
G01X9494547Y4936651D01*
G01X9505977Y4953669D01*
G01X9511565Y4982371D01*
G01X9511565Y4999389D01*
G01X9505977Y5028091D01*
G01X9494547Y5045109D01*
G01X9477275Y5050951D01*
G01X9465845Y5050951D01*
G01X9593607Y5050951D02*
G01X9576589Y5045109D01*
G01X9565159Y5028091D01*
G01X9559317Y4999389D01*
G01X9559317Y4982371D01*
G01X9565159Y4953669D01*
G01X9576589Y4936651D01*
G01X9593607Y4930809D01*
G01X9605037Y4930809D01*
G01X9622309Y4936651D01*
G01X9633739Y4953669D01*
G01X9639327Y4982371D01*
G01X9639327Y4999389D01*
G01X9633739Y5028091D01*
G01X9622309Y5045109D01*
G01X9605037Y5050951D01*
G01X9593607Y5050951D01*
G01X9687079Y5010819D02*
G01X9750071Y4930809D01*
G01X9750071Y5010819D02*
G01X9687079Y4930809D01*
G01X9809253Y5050951D02*
G01X9872245Y5050951D01*
G01X9837955Y5005231D01*
G01X9854973Y5005231D01*
G01X9866403Y4999389D01*
G01X9872245Y4993801D01*
G01X9877833Y4976529D01*
G01X9877833Y4965099D01*
G01X9872245Y4948081D01*
G01X9860815Y4936651D01*
G01X9843543Y4930809D01*
G01X9826525Y4930809D01*
G01X9809253Y4936651D01*
G01X9803665Y4942239D01*
G01X9797823Y4953669D01*
G01X9931427Y4959511D02*
G01X9925585Y4953669D01*
G01X9931427Y4948081D01*
G01X9937015Y4953669D01*
G01X9931427Y4959511D01*
G01X9990609Y5022249D02*
G01X9990609Y5028091D01*
G01X9996197Y5039521D01*
G01X10002039Y5045109D01*
G01X10013469Y5050951D01*
G01X10036329Y5050951D01*
G01X10047759Y5045109D01*
G01X10053347Y5039521D01*
G01X10059189Y5028091D01*
G01X10059189Y5016661D01*
G01X10053347Y5005231D01*
G01X10041917Y4987959D01*
G01X9984767Y4930809D01*
G01X10064777Y4930809D01*
G01X10146819Y5050951D02*
G01X10129801Y5045109D01*
G01X10118371Y5028091D01*
G01X10112529Y4999389D01*
G01X10112529Y4982371D01*
G01X10118371Y4953669D01*
G01X10129801Y4936651D01*
G01X10146819Y4930809D01*
G01X10158249Y4930809D01*
G01X10175521Y4936651D01*
G01X10186951Y4953669D01*
G01X10192539Y4982371D01*
G01X10192539Y4999389D01*
G01X10186951Y5028091D01*
G01X10175521Y5045109D01*
G01X10158249Y5050951D01*
G01X10146819Y5050951D01*
G01X10274581Y5050951D02*
G01X10257563Y5045109D01*
G01X10246133Y5028091D01*
G01X10240291Y4999389D01*
G01X10240291Y4982371D01*
G01X10246133Y4953669D01*
G01X10257563Y4936651D01*
G01X10274581Y4930809D01*
G01X10286011Y4930809D01*
G01X10303283Y4936651D01*
G01X10314713Y4953669D01*
G01X10320301Y4982371D01*
G01X10320301Y4999389D01*
G01X10314713Y5028091D01*
G01X10303283Y5045109D01*
G01X10286011Y5050951D01*
G01X10274581Y5050951D01*
G01X10368053Y5010819D02*
G01X10368053Y4930809D01*
G01X10368053Y4987959D02*
G01X10385325Y5005231D01*
G01X10396755Y5010819D01*
G01X10413773Y5010819D01*
G01X10425203Y5005231D01*
G01X10431045Y4987959D01*
G01X10431045Y4930809D01*
G01X10431045Y4987959D02*
G01X10448063Y5005231D01*
G01X10459493Y5010819D01*
G01X10476765Y5010819D01*
G01X10488195Y5005231D01*
G01X10493783Y4987959D01*
G01X10493783Y4930809D01*
G01X10541535Y5010819D02*
G01X10541535Y4930809D01*
G01X10541535Y4987959D02*
G01X10558807Y5005231D01*
G01X10570237Y5010819D01*
G01X10587255Y5010819D01*
G01X10598685Y5005231D01*
G01X10604527Y4987959D01*
G01X10604527Y4930809D01*
G01X10604527Y4987959D02*
G01X10621545Y5005231D01*
G01X10632975Y5010819D01*
G01X10650247Y5010819D01*
G01X10661677Y5005231D01*
G01X10667265Y4987959D01*
G01X10667265Y4930809D01*
G01X10715017Y5073811D02*
G01X10726447Y5062381D01*
G01X10737877Y5045109D01*
G01X10749307Y5022249D01*
G01X10755149Y4993801D01*
G01X10755149Y4970941D01*
G01X10749307Y4942239D01*
G01X10737877Y4919379D01*
G01X10726447Y4902361D01*
G01X10715017Y4890931D01*
G01X11692047Y5050951D02*
G01X11692047Y4930809D01*
G01X11692047Y5050951D02*
G01X11743609Y5050951D01*
G01X11760627Y5045109D01*
G01X11766469Y5039521D01*
G01X11772057Y5028091D01*
G01X11772057Y5010819D01*
G01X11766469Y4999389D01*
G01X11760627Y4993801D01*
G01X11743609Y4987959D01*
G01X11692047Y4987959D01*
G01X11859941Y5050951D02*
G01X11859941Y4930809D01*
G01X11819809Y5050951D02*
G01X11899819Y5050951D01*
G01X11947571Y5050951D02*
G01X11947571Y4930809D01*
G01X12027581Y5050951D02*
G01X12027581Y4930809D01*
G01X11947571Y4993801D02*
G01X12027581Y4993801D01*
G01X13153454Y5050951D02*
G01X13153454Y4930809D01*
G01X13153454Y5050951D02*
G01X13205016Y5050951D01*
G01X13222034Y5045109D01*
G01X13227876Y5039521D01*
G01X13233464Y5028091D01*
G01X13233464Y5016661D01*
G01X13227876Y5005231D01*
G01X13222034Y4999389D01*
G01X13205016Y4993801D01*
G01X13153454Y4993801D01*
G01X13193586Y4993801D02*
G01X13233464Y4930809D01*
G01X13309918Y5010819D02*
G01X13298488Y5005231D01*
G01X13287058Y4993801D01*
G01X13281216Y4976529D01*
G01X13281216Y4965099D01*
G01X13287058Y4948081D01*
G01X13298488Y4936651D01*
G01X13309918Y4930809D01*
G01X13326936Y4930809D01*
G01X13338366Y4936651D01*
G01X13349796Y4948081D01*
G01X13355638Y4965099D01*
G01X13355638Y4976529D01*
G01X13349796Y4993801D01*
G01X13338366Y5005231D01*
G01X13326936Y5010819D01*
G01X13309918Y5010819D01*
G01X13403390Y5010819D02*
G01X13403390Y4953669D01*
G01X13409232Y4936651D01*
G01X13420662Y4930809D01*
G01X13437680Y4930809D01*
G01X13449110Y4936651D01*
G01X13466382Y4953669D01*
G01X13466382Y5010819D02*
G01X13466382Y4930809D01*
G01X13514134Y5010819D02*
G01X13514134Y4930809D01*
G01X13514134Y4987959D02*
G01X13531406Y5005231D01*
G01X13542836Y5010819D01*
G01X13559854Y5010819D01*
G01X13571284Y5005231D01*
G01X13577126Y4987959D01*
G01X13577126Y4930809D01*
G01X13693458Y5050951D02*
G01X13693458Y4930809D01*
G01X13693458Y4993801D02*
G01X13682028Y5005231D01*
G01X13670598Y5010819D01*
G01X13653580Y5010819D01*
G01X13642150Y5005231D01*
G01X13630720Y4993801D01*
G01X13624878Y4976529D01*
G01X13624878Y4965099D01*
G01X13630720Y4948081D01*
G01X13642150Y4936651D01*
G01X13653580Y4930809D01*
G01X13670598Y4930809D01*
G01X13682028Y4936651D01*
G01X13693458Y4948081D01*
G01X14584635Y5050951D02*
G01X14584635Y4930809D01*
G01X14584635Y5050951D02*
G01X14636197Y5050951D01*
G01X14653215Y5045109D01*
G01X14659057Y5039521D01*
G01X14664645Y5028091D01*
G01X14664645Y5010819D01*
G01X14659057Y4999389D01*
G01X14653215Y4993801D01*
G01X14636197Y4987959D01*
G01X14584635Y4987959D01*
G01X14780977Y5010819D02*
G01X14780977Y4930809D01*
G01X14780977Y4993801D02*
G01X14769547Y5005231D01*
G01X14758117Y5010819D01*
G01X14741099Y5010819D01*
G01X14729669Y5005231D01*
G01X14718239Y4993801D01*
G01X14712397Y4976529D01*
G01X14712397Y4965099D01*
G01X14718239Y4948081D01*
G01X14729669Y4936651D01*
G01X14741099Y4930809D01*
G01X14758117Y4930809D01*
G01X14769547Y4936651D01*
G01X14780977Y4948081D01*
G01X14897309Y5050951D02*
G01X14897309Y4930809D01*
G01X14897309Y4993801D02*
G01X14885879Y5005231D01*
G01X14874449Y5010819D01*
G01X14857431Y5010819D01*
G01X14846001Y5005231D01*
G01X14834571Y4993801D01*
G01X14828729Y4976529D01*
G01X14828729Y4965099D01*
G01X14834571Y4948081D01*
G01X14846001Y4936651D01*
G01X14857431Y4930809D01*
G01X14874449Y4930809D01*
G01X14885879Y4936651D01*
G01X14897309Y4948081D01*
G01X16253814Y5050951D02*
G01X16253814Y4930809D01*
G01X16253814Y5050951D02*
G01X16305376Y5050951D01*
G01X16322394Y5045109D01*
G01X16328236Y5039521D01*
G01X16333824Y5028091D01*
G01X16333824Y5016661D01*
G01X16328236Y5005231D01*
G01X16322394Y4999389D01*
G01X16305376Y4993801D01*
G01X16253814Y4993801D01*
G01X16293946Y4993801D02*
G01X16333824Y4930809D01*
G01X16410278Y5010819D02*
G01X16398848Y5005231D01*
G01X16387418Y4993801D01*
G01X16381576Y4976529D01*
G01X16381576Y4965099D01*
G01X16387418Y4948081D01*
G01X16398848Y4936651D01*
G01X16410278Y4930809D01*
G01X16427296Y4930809D01*
G01X16438726Y4936651D01*
G01X16450156Y4948081D01*
G01X16455998Y4965099D01*
G01X16455998Y4976529D01*
G01X16450156Y4993801D01*
G01X16438726Y5005231D01*
G01X16427296Y5010819D01*
G01X16410278Y5010819D01*
G01X16503750Y5010819D02*
G01X16503750Y4953669D01*
G01X16509592Y4936651D01*
G01X16521022Y4930809D01*
G01X16538040Y4930809D01*
G01X16549470Y4936651D01*
G01X16566742Y4953669D01*
G01X16566742Y5010819D02*
G01X16566742Y4930809D01*
G01X16614494Y5010819D02*
G01X16614494Y4930809D01*
G01X16614494Y4987959D02*
G01X16631766Y5005231D01*
G01X16643196Y5010819D01*
G01X16660214Y5010819D01*
G01X16671644Y5005231D01*
G01X16677486Y4987959D01*
G01X16677486Y4930809D01*
G01X16793818Y5050951D02*
G01X16793818Y4930809D01*
G01X16793818Y4993801D02*
G01X16782388Y5005231D01*
G01X16770958Y5010819D01*
G01X16753940Y5010819D01*
G01X16742510Y5005231D01*
G01X16731080Y4993801D01*
G01X16725238Y4976529D01*
G01X16725238Y4965099D01*
G01X16731080Y4948081D01*
G01X16742510Y4936651D01*
G01X16753940Y4930809D01*
G01X16770958Y4930809D01*
G01X16782388Y4936651D01*
G01X16793818Y4948081D01*
G01X18213315Y5050951D02*
G01X18213315Y4930809D01*
G01X18173183Y5050951D02*
G01X18253193Y5050951D01*
G01X18329647Y5010819D02*
G01X18318217Y5005231D01*
G01X18306787Y4993801D01*
G01X18300945Y4976529D01*
G01X18300945Y4965099D01*
G01X18306787Y4948081D01*
G01X18318217Y4936651D01*
G01X18329647Y4930809D01*
G01X18346665Y4930809D01*
G01X18358095Y4936651D01*
G01X18369525Y4948081D01*
G01X18375367Y4965099D01*
G01X18375367Y4976529D01*
G01X18369525Y4993801D01*
G01X18358095Y5005231D01*
G01X18346665Y5010819D01*
G01X18329647Y5010819D01*
G01X18423119Y5010819D02*
G01X18423119Y4890931D01*
G01X18423119Y4993801D02*
G01X18434549Y5005231D01*
G01X18445979Y5010819D01*
G01X18463251Y5010819D01*
G01X18474681Y5005231D01*
G01X18486111Y4993801D01*
G01X18491699Y4976529D01*
G01X18491699Y4965099D01*
G01X18486111Y4948081D01*
G01X18474681Y4936651D01*
G01X18463251Y4930809D01*
G01X18445979Y4930809D01*
G01X18434549Y4936651D01*
G01X18423119Y4948081D01*
G01X18667467Y5050951D02*
G01X18667467Y4930809D01*
G01X18667467Y4930809D02*
G01X18736047Y4930809D01*
G01X18852379Y5010819D02*
G01X18852379Y4930809D01*
G01X18852379Y4993801D02*
G01X18840949Y5005231D01*
G01X18829519Y5010819D01*
G01X18812501Y5010819D01*
G01X18801071Y5005231D01*
G01X18789641Y4993801D01*
G01X18783799Y4976529D01*
G01X18783799Y4965099D01*
G01X18789641Y4948081D01*
G01X18801071Y4936651D01*
G01X18812501Y4930809D01*
G01X18829519Y4930809D01*
G01X18840949Y4936651D01*
G01X18852379Y4948081D01*
G01X18905973Y5010819D02*
G01X18940263Y4930809D01*
G01X18974553Y5010819D02*
G01X18940263Y4930809D01*
G01X18928833Y4907949D01*
G01X18917403Y4896519D01*
G01X18905973Y4890931D01*
G01X18900131Y4890931D01*
G01X19022305Y4976529D02*
G01X19090885Y4976529D01*
G01X19090885Y4987959D01*
G01X19085297Y4999389D01*
G01X19079455Y5005231D01*
G01X19068025Y5010819D01*
G01X19051007Y5010819D01*
G01X19039577Y5005231D01*
G01X19028147Y4993801D01*
G01X19022305Y4976529D01*
G01X19022305Y4965099D01*
G01X19028147Y4948081D01*
G01X19039577Y4936651D01*
G01X19051007Y4930809D01*
G01X19068025Y4930809D01*
G01X19079455Y4936651D01*
G01X19090885Y4948081D01*
G01X19138637Y5010819D02*
G01X19138637Y4930809D01*
G01X19138637Y4976529D02*
G01X19144479Y4993801D01*
G01X19155909Y5005231D01*
G01X19167339Y5010819D01*
G01X19184357Y5010819D01*
G01X19232109Y4982371D02*
G01X19334979Y4982371D01*
G01X19382731Y5050951D02*
G01X19382731Y4930809D01*
G01X19382731Y5050951D02*
G01X19434293Y5050951D01*
G01X19451311Y5045109D01*
G01X19457153Y5039521D01*
G01X19462741Y5028091D01*
G01X19462741Y5016661D01*
G01X19457153Y5005231D01*
G01X19451311Y4999389D01*
G01X19434293Y4993801D01*
G01X19382731Y4993801D02*
G01X19434293Y4993801D01*
G01X19451311Y4987959D01*
G01X19457153Y4982371D01*
G01X19462741Y4970941D01*
G01X19462741Y4953669D01*
G01X19457153Y4942239D01*
G01X19451311Y4936651D01*
G01X19434293Y4930809D01*
G01X19382731Y4930809D01*
G01X19539195Y5010819D02*
G01X19527765Y5005231D01*
G01X19516335Y4993801D01*
G01X19510493Y4976529D01*
G01X19510493Y4965099D01*
G01X19516335Y4948081D01*
G01X19527765Y4936651D01*
G01X19539195Y4930809D01*
G01X19556213Y4930809D01*
G01X19567643Y4936651D01*
G01X19579073Y4948081D01*
G01X19584915Y4965099D01*
G01X19584915Y4976529D01*
G01X19579073Y4993801D01*
G01X19567643Y5005231D01*
G01X19556213Y5010819D01*
G01X19539195Y5010819D01*
G01X19649939Y5050951D02*
G01X19649939Y4953669D01*
G01X19655527Y4936651D01*
G01X19666957Y4930809D01*
G01X19678387Y4930809D01*
G01X19632667Y5010819D02*
G01X19672799Y5010819D01*
G01X19743411Y5050951D02*
G01X19743411Y4953669D01*
G01X19748999Y4936651D01*
G01X19760429Y4930809D01*
G01X19771859Y4930809D01*
G01X19726139Y5010819D02*
G01X19766271Y5010819D01*
G01X19848313Y5010819D02*
G01X19836883Y5005231D01*
G01X19825453Y4993801D01*
G01X19819611Y4976529D01*
G01X19819611Y4965099D01*
G01X19825453Y4948081D01*
G01X19836883Y4936651D01*
G01X19848313Y4930809D01*
G01X19865331Y4930809D01*
G01X19876761Y4936651D01*
G01X19888191Y4948081D01*
G01X19894033Y4965099D01*
G01X19894033Y4976529D01*
G01X19888191Y4993801D01*
G01X19876761Y5005231D01*
G01X19865331Y5010819D01*
G01X19848313Y5010819D01*
G01X19941785Y5010819D02*
G01X19941785Y4930809D01*
G01X19941785Y4987959D02*
G01X19959057Y5005231D01*
G01X19970487Y5010819D01*
G01X19987505Y5010819D01*
G01X19998935Y5005231D01*
G01X20004777Y4987959D01*
G01X20004777Y4930809D01*
G01X20004777Y4987959D02*
G01X20021795Y5005231D01*
G01X20033225Y5010819D01*
G01X20050497Y5010819D01*
G01X20061927Y5005231D01*
G01X20067515Y4987959D01*
G01X20067515Y4930809D01*
G01X20243283Y5050951D02*
G01X20243283Y4930809D01*
G01X20243283Y4930809D02*
G01X20311863Y4930809D01*
G01X20428195Y5010819D02*
G01X20428195Y4930809D01*
G01X20428195Y4993801D02*
G01X20416765Y5005231D01*
G01X20405335Y5010819D01*
G01X20388317Y5010819D01*
G01X20376887Y5005231D01*
G01X20365457Y4993801D01*
G01X20359615Y4976529D01*
G01X20359615Y4965099D01*
G01X20365457Y4948081D01*
G01X20376887Y4936651D01*
G01X20388317Y4930809D01*
G01X20405335Y4930809D01*
G01X20416765Y4936651D01*
G01X20428195Y4948081D01*
G01X20481789Y5010819D02*
G01X20516079Y4930809D01*
G01X20550369Y5010819D02*
G01X20516079Y4930809D01*
G01X20504649Y4907949D01*
G01X20493219Y4896519D01*
G01X20481789Y4890931D01*
G01X20475947Y4890931D01*
G01X20598121Y4976529D02*
G01X20666701Y4976529D01*
G01X20666701Y4987959D01*
G01X20661113Y4999389D01*
G01X20655271Y5005231D01*
G01X20643841Y5010819D01*
G01X20626823Y5010819D01*
G01X20615393Y5005231D01*
G01X20603963Y4993801D01*
G01X20598121Y4976529D01*
G01X20598121Y4965099D01*
G01X20603963Y4948081D01*
G01X20615393Y4936651D01*
G01X20626823Y4930809D01*
G01X20643841Y4930809D01*
G01X20655271Y4936651D01*
G01X20666701Y4948081D01*
G01X20714453Y5010819D02*
G01X20714453Y4930809D01*
G01X20714453Y4976529D02*
G01X20720295Y4993801D01*
G01X20731725Y5005231D01*
G01X20743155Y5010819D01*
G01X20760173Y5010819D01*
G01X6271396Y4430248D02*
G01X6265554Y4413230D01*
G01X6254124Y4401800D01*
G01X6237106Y4395958D01*
G01X6231264Y4395958D01*
G01X6214246Y4401800D01*
G01X6202816Y4413230D01*
G01X6196974Y4430248D01*
G01X6196974Y4436090D01*
G01X6202816Y4453108D01*
G01X6214246Y4464538D01*
G01X6231264Y4470380D01*
G01X6237106Y4470380D01*
G01X6254124Y4464538D01*
G01X6265554Y4453108D01*
G01X6271396Y4430248D01*
G01X6271396Y4401800D01*
G01X6265554Y4373098D01*
G01X6254124Y4356080D01*
G01X6237106Y4350238D01*
G01X6225676Y4350238D01*
G01X6208404Y4356080D01*
G01X6202816Y4367510D01*
G01X7616979Y4441678D02*
G01X7616979Y4447520D01*
G01X7622567Y4458950D01*
G01X7628409Y4464538D01*
G01X7639839Y4470380D01*
G01X7662699Y4470380D01*
G01X7674129Y4464538D01*
G01X7679717Y4458950D01*
G01X7685559Y4447520D01*
G01X7685559Y4436090D01*
G01X7679717Y4424660D01*
G01X7668287Y4407388D01*
G01X7611137Y4350238D01*
G01X7691147Y4350238D01*
G01X7796049Y4470380D02*
G01X7738899Y4390370D01*
G01X7824751Y4390370D01*
G01X7796049Y4470380D02*
G01X7796049Y4350238D01*
G01X7901205Y4470380D02*
G01X7883933Y4464538D01*
G01X7878345Y4453108D01*
G01X7878345Y4441678D01*
G01X7883933Y4430248D01*
G01X7895363Y4424660D01*
G01X7918223Y4418818D01*
G01X7935495Y4413230D01*
G01X7946925Y4401800D01*
G01X7952513Y4390370D01*
G01X7952513Y4373098D01*
G01X7946925Y4361668D01*
G01X7941083Y4356080D01*
G01X7924065Y4350238D01*
G01X7901205Y4350238D01*
G01X7883933Y4356080D01*
G01X7878345Y4361668D01*
G01X7872503Y4373098D01*
G01X7872503Y4390370D01*
G01X7878345Y4401800D01*
G01X7889775Y4413230D01*
G01X7906793Y4418818D01*
G01X7929653Y4424660D01*
G01X7941083Y4430248D01*
G01X7946925Y4441678D01*
G01X7946925Y4453108D01*
G01X7941083Y4464538D01*
G01X7924065Y4470380D01*
G01X7901205Y4470380D01*
G01X8006107Y4378940D02*
G01X8000265Y4373098D01*
G01X8006107Y4367510D01*
G01X8011695Y4373098D01*
G01X8006107Y4378940D01*
G01X8139457Y4470380D02*
G01X8082307Y4350238D01*
G01X8059447Y4470380D02*
G01X8139457Y4470380D01*
G01X8187209Y4430248D02*
G01X8187209Y4350238D01*
G01X8187209Y4407388D02*
G01X8204481Y4424660D01*
G01X8215911Y4430248D01*
G01X8232929Y4430248D01*
G01X8244359Y4424660D01*
G01X8250201Y4407388D01*
G01X8250201Y4350238D01*
G01X8250201Y4407388D02*
G01X8267219Y4424660D01*
G01X8278649Y4430248D01*
G01X8295921Y4430248D01*
G01X8307351Y4424660D01*
G01X8312939Y4407388D01*
G01X8312939Y4350238D01*
G01X8360691Y4470380D02*
G01X8366533Y4464538D01*
G01X8372121Y4470380D01*
G01X8366533Y4475968D01*
G01X8360691Y4470380D01*
G01X8366533Y4430248D02*
G01X8366533Y4350238D01*
G01X8419873Y4470380D02*
G01X8419873Y4350238D01*
G01X8507757Y4493240D02*
G01X8496327Y4481810D01*
G01X8484897Y4464538D01*
G01X8473467Y4441678D01*
G01X8467625Y4413230D01*
G01X8467625Y4390370D01*
G01X8473467Y4361668D01*
G01X8484897Y4338808D01*
G01X8496327Y4321790D01*
G01X8507757Y4310360D01*
G01X8624089Y4453108D02*
G01X8618501Y4464538D01*
G01X8601229Y4470380D01*
G01X8589799Y4470380D01*
G01X8572781Y4464538D01*
G01X8561351Y4447520D01*
G01X8555509Y4418818D01*
G01X8555509Y4390370D01*
G01X8561351Y4367510D01*
G01X8572781Y4356080D01*
G01X8589799Y4350238D01*
G01X8595641Y4350238D01*
G01X8612659Y4356080D01*
G01X8624089Y4367510D01*
G01X8629931Y4384528D01*
G01X8629931Y4390370D01*
G01X8624089Y4407388D01*
G01X8612659Y4418818D01*
G01X8595641Y4424660D01*
G01X8589799Y4424660D01*
G01X8572781Y4418818D01*
G01X8561351Y4407388D01*
G01X8555509Y4390370D01*
G01X8683525Y4378940D02*
G01X8677683Y4373098D01*
G01X8683525Y4367510D01*
G01X8689113Y4373098D01*
G01X8683525Y4378940D01*
G01X8748295Y4470380D02*
G01X8811287Y4470380D01*
G01X8776997Y4424660D01*
G01X8794015Y4424660D01*
G01X8805445Y4418818D01*
G01X8811287Y4413230D01*
G01X8816875Y4395958D01*
G01X8816875Y4384528D01*
G01X8811287Y4367510D01*
G01X8799857Y4356080D01*
G01X8782585Y4350238D01*
G01X8765567Y4350238D01*
G01X8748295Y4356080D01*
G01X8742707Y4361668D01*
G01X8736865Y4373098D01*
G01X8864627Y4447520D02*
G01X8876057Y4453108D01*
G01X8893329Y4470380D01*
G01X8893329Y4350238D01*
G01X8969783Y4470380D02*
G01X8952511Y4464538D01*
G01X8946923Y4453108D01*
G01X8946923Y4441678D01*
G01X8952511Y4430248D01*
G01X8963941Y4424660D01*
G01X8986801Y4418818D01*
G01X9004073Y4413230D01*
G01X9015503Y4401800D01*
G01X9021091Y4390370D01*
G01X9021091Y4373098D01*
G01X9015503Y4361668D01*
G01X9009661Y4356080D01*
G01X8992643Y4350238D01*
G01X8969783Y4350238D01*
G01X8952511Y4356080D01*
G01X8946923Y4361668D01*
G01X8941081Y4373098D01*
G01X8941081Y4390370D01*
G01X8946923Y4401800D01*
G01X8958353Y4413230D01*
G01X8975371Y4418818D01*
G01X8998231Y4424660D01*
G01X9009661Y4430248D01*
G01X9015503Y4441678D01*
G01X9015503Y4453108D01*
G01X9009661Y4464538D01*
G01X8992643Y4470380D01*
G01X8969783Y4470380D01*
G01X9068843Y4430248D02*
G01X9068843Y4350238D01*
G01X9068843Y4407388D02*
G01X9086115Y4424660D01*
G01X9097545Y4430248D01*
G01X9114563Y4430248D01*
G01X9125993Y4424660D01*
G01X9131835Y4407388D01*
G01X9131835Y4350238D01*
G01X9131835Y4407388D02*
G01X9148853Y4424660D01*
G01X9160283Y4430248D01*
G01X9177555Y4430248D01*
G01X9188985Y4424660D01*
G01X9194573Y4407388D01*
G01X9194573Y4350238D01*
G01X9242325Y4430248D02*
G01X9242325Y4350238D01*
G01X9242325Y4407388D02*
G01X9259597Y4424660D01*
G01X9271027Y4430248D01*
G01X9288045Y4430248D01*
G01X9299475Y4424660D01*
G01X9305317Y4407388D01*
G01X9305317Y4350238D01*
G01X9305317Y4407388D02*
G01X9322335Y4424660D01*
G01X9333765Y4430248D01*
G01X9351037Y4430248D01*
G01X9362467Y4424660D01*
G01X9368055Y4407388D01*
G01X9368055Y4350238D01*
G01X9415807Y4493240D02*
G01X9427237Y4481810D01*
G01X9438667Y4464538D01*
G01X9450097Y4441678D01*
G01X9455939Y4413230D01*
G01X9455939Y4390370D01*
G01X9450097Y4361668D01*
G01X9438667Y4338808D01*
G01X9427237Y4321790D01*
G01X9415807Y4310360D01*
G01X11692047Y4470380D02*
G01X11692047Y4350238D01*
G01X11692047Y4470380D02*
G01X11772057Y4350238D01*
G01X11772057Y4470380D02*
G01X11772057Y4350238D01*
G01X11819809Y4470380D02*
G01X11819809Y4350238D01*
G01X11819809Y4470380D02*
G01X11871371Y4470380D01*
G01X11888389Y4464538D01*
G01X11894231Y4458950D01*
G01X11899819Y4447520D01*
G01X11899819Y4430248D01*
G01X11894231Y4418818D01*
G01X11888389Y4413230D01*
G01X11871371Y4407388D01*
G01X11819809Y4407388D01*
G01X11987703Y4470380D02*
G01X11987703Y4350238D01*
G01X11947571Y4470380D02*
G01X12027581Y4470380D01*
G01X12075333Y4470380D02*
G01X12075333Y4350238D01*
G01X12155343Y4470380D02*
G01X12155343Y4350238D01*
G01X12075333Y4413230D02*
G01X12155343Y4413230D01*
G01X13153454Y4470380D02*
G01X13153454Y4350238D01*
G01X13153454Y4470380D02*
G01X13205016Y4470380D01*
G01X13222034Y4464538D01*
G01X13227876Y4458950D01*
G01X13233464Y4447520D01*
G01X13233464Y4436090D01*
G01X13227876Y4424660D01*
G01X13222034Y4418818D01*
G01X13205016Y4413230D01*
G01X13153454Y4413230D01*
G01X13193586Y4413230D02*
G01X13233464Y4350238D01*
G01X13309918Y4430248D02*
G01X13298488Y4424660D01*
G01X13287058Y4413230D01*
G01X13281216Y4395958D01*
G01X13281216Y4384528D01*
G01X13287058Y4367510D01*
G01X13298488Y4356080D01*
G01X13309918Y4350238D01*
G01X13326936Y4350238D01*
G01X13338366Y4356080D01*
G01X13349796Y4367510D01*
G01X13355638Y4384528D01*
G01X13355638Y4395958D01*
G01X13349796Y4413230D01*
G01X13338366Y4424660D01*
G01X13326936Y4430248D01*
G01X13309918Y4430248D01*
G01X13403390Y4430248D02*
G01X13403390Y4373098D01*
G01X13409232Y4356080D01*
G01X13420662Y4350238D01*
G01X13437680Y4350238D01*
G01X13449110Y4356080D01*
G01X13466382Y4373098D01*
G01X13466382Y4430248D02*
G01X13466382Y4350238D01*
G01X13514134Y4430248D02*
G01X13514134Y4350238D01*
G01X13514134Y4407388D02*
G01X13531406Y4424660D01*
G01X13542836Y4430248D01*
G01X13559854Y4430248D01*
G01X13571284Y4424660D01*
G01X13577126Y4407388D01*
G01X13577126Y4350238D01*
G01X13693458Y4470380D02*
G01X13693458Y4350238D01*
G01X13693458Y4413230D02*
G01X13682028Y4424660D01*
G01X13670598Y4430248D01*
G01X13653580Y4430248D01*
G01X13642150Y4424660D01*
G01X13630720Y4413230D01*
G01X13624878Y4395958D01*
G01X13624878Y4384528D01*
G01X13630720Y4367510D01*
G01X13642150Y4356080D01*
G01X13653580Y4350238D01*
G01X13670598Y4350238D01*
G01X13682028Y4356080D01*
G01X13693458Y4367510D01*
G01X14584635Y4470380D02*
G01X14630355Y4350238D01*
G01X14676075Y4470380D02*
G01X14630355Y4350238D01*
G01X14723827Y4470380D02*
G01X14729669Y4464538D01*
G01X14735257Y4470380D01*
G01X14729669Y4475968D01*
G01X14723827Y4470380D01*
G01X14729669Y4430248D02*
G01X14729669Y4350238D01*
G01X14851589Y4430248D02*
G01X14851589Y4350238D01*
G01X14851589Y4413230D02*
G01X14840159Y4424660D01*
G01X14828729Y4430248D01*
G01X14811711Y4430248D01*
G01X14800281Y4424660D01*
G01X14788851Y4413230D01*
G01X14783009Y4395958D01*
G01X14783009Y4384528D01*
G01X14788851Y4367510D01*
G01X14800281Y4356080D01*
G01X14811711Y4350238D01*
G01X14828729Y4350238D01*
G01X14840159Y4356080D01*
G01X14851589Y4367510D01*
G01X18213315Y4470380D02*
G01X18213315Y4350238D01*
G01X18173183Y4470380D02*
G01X18253193Y4470380D01*
G01X18329647Y4430248D02*
G01X18318217Y4424660D01*
G01X18306787Y4413230D01*
G01X18300945Y4395958D01*
G01X18300945Y4384528D01*
G01X18306787Y4367510D01*
G01X18318217Y4356080D01*
G01X18329647Y4350238D01*
G01X18346665Y4350238D01*
G01X18358095Y4356080D01*
G01X18369525Y4367510D01*
G01X18375367Y4384528D01*
G01X18375367Y4395958D01*
G01X18369525Y4413230D01*
G01X18358095Y4424660D01*
G01X18346665Y4430248D01*
G01X18329647Y4430248D01*
G01X18423119Y4430248D02*
G01X18423119Y4310360D01*
G01X18423119Y4413230D02*
G01X18434549Y4424660D01*
G01X18445979Y4430248D01*
G01X18463251Y4430248D01*
G01X18474681Y4424660D01*
G01X18486111Y4413230D01*
G01X18491699Y4395958D01*
G01X18491699Y4384528D01*
G01X18486111Y4367510D01*
G01X18474681Y4356080D01*
G01X18463251Y4350238D01*
G01X18445979Y4350238D01*
G01X18434549Y4356080D01*
G01X18423119Y4367510D01*
G01X18667467Y4470380D02*
G01X18667467Y4350238D01*
G01X18667467Y4350238D02*
G01X18736047Y4350238D01*
G01X18852379Y4430248D02*
G01X18852379Y4350238D01*
G01X18852379Y4413230D02*
G01X18840949Y4424660D01*
G01X18829519Y4430248D01*
G01X18812501Y4430248D01*
G01X18801071Y4424660D01*
G01X18789641Y4413230D01*
G01X18783799Y4395958D01*
G01X18783799Y4384528D01*
G01X18789641Y4367510D01*
G01X18801071Y4356080D01*
G01X18812501Y4350238D01*
G01X18829519Y4350238D01*
G01X18840949Y4356080D01*
G01X18852379Y4367510D01*
G01X18905973Y4430248D02*
G01X18940263Y4350238D01*
G01X18974553Y4430248D02*
G01X18940263Y4350238D01*
G01X18928833Y4327378D01*
G01X18917403Y4315948D01*
G01X18905973Y4310360D01*
G01X18900131Y4310360D01*
G01X19022305Y4395958D02*
G01X19090885Y4395958D01*
G01X19090885Y4407388D01*
G01X19085297Y4418818D01*
G01X19079455Y4424660D01*
G01X19068025Y4430248D01*
G01X19051007Y4430248D01*
G01X19039577Y4424660D01*
G01X19028147Y4413230D01*
G01X19022305Y4395958D01*
G01X19022305Y4384528D01*
G01X19028147Y4367510D01*
G01X19039577Y4356080D01*
G01X19051007Y4350238D01*
G01X19068025Y4350238D01*
G01X19079455Y4356080D01*
G01X19090885Y4367510D01*
G01X19138637Y4430248D02*
G01X19138637Y4350238D01*
G01X19138637Y4395958D02*
G01X19144479Y4413230D01*
G01X19155909Y4424660D01*
G01X19167339Y4430248D01*
G01X19184357Y4430248D01*
G01X19232109Y4401800D02*
G01X19334979Y4401800D01*
G01X19382731Y4470380D02*
G01X19382731Y4350238D01*
G01X19382731Y4470380D02*
G01X19434293Y4470380D01*
G01X19451311Y4464538D01*
G01X19457153Y4458950D01*
G01X19462741Y4447520D01*
G01X19462741Y4436090D01*
G01X19457153Y4424660D01*
G01X19451311Y4418818D01*
G01X19434293Y4413230D01*
G01X19382731Y4413230D02*
G01X19434293Y4413230D01*
G01X19451311Y4407388D01*
G01X19457153Y4401800D01*
G01X19462741Y4390370D01*
G01X19462741Y4373098D01*
G01X19457153Y4361668D01*
G01X19451311Y4356080D01*
G01X19434293Y4350238D01*
G01X19382731Y4350238D01*
G01X19539195Y4430248D02*
G01X19527765Y4424660D01*
G01X19516335Y4413230D01*
G01X19510493Y4395958D01*
G01X19510493Y4384528D01*
G01X19516335Y4367510D01*
G01X19527765Y4356080D01*
G01X19539195Y4350238D01*
G01X19556213Y4350238D01*
G01X19567643Y4356080D01*
G01X19579073Y4367510D01*
G01X19584915Y4384528D01*
G01X19584915Y4395958D01*
G01X19579073Y4413230D01*
G01X19567643Y4424660D01*
G01X19556213Y4430248D01*
G01X19539195Y4430248D01*
G01X19649939Y4470380D02*
G01X19649939Y4373098D01*
G01X19655527Y4356080D01*
G01X19666957Y4350238D01*
G01X19678387Y4350238D01*
G01X19632667Y4430248D02*
G01X19672799Y4430248D01*
G01X19743411Y4470380D02*
G01X19743411Y4373098D01*
G01X19748999Y4356080D01*
G01X19760429Y4350238D01*
G01X19771859Y4350238D01*
G01X19726139Y4430248D02*
G01X19766271Y4430248D01*
G01X19848313Y4430248D02*
G01X19836883Y4424660D01*
G01X19825453Y4413230D01*
G01X19819611Y4395958D01*
G01X19819611Y4384528D01*
G01X19825453Y4367510D01*
G01X19836883Y4356080D01*
G01X19848313Y4350238D01*
G01X19865331Y4350238D01*
G01X19876761Y4356080D01*
G01X19888191Y4367510D01*
G01X19894033Y4384528D01*
G01X19894033Y4395958D01*
G01X19888191Y4413230D01*
G01X19876761Y4424660D01*
G01X19865331Y4430248D01*
G01X19848313Y4430248D01*
G01X19941785Y4430248D02*
G01X19941785Y4350238D01*
G01X19941785Y4407388D02*
G01X19959057Y4424660D01*
G01X19970487Y4430248D01*
G01X19987505Y4430248D01*
G01X19998935Y4424660D01*
G01X20004777Y4407388D01*
G01X20004777Y4350238D01*
G01X20004777Y4407388D02*
G01X20021795Y4424660D01*
G01X20033225Y4430248D01*
G01X20050497Y4430248D01*
G01X20061927Y4424660D01*
G01X20067515Y4407388D01*
G01X20067515Y4350238D01*
G01X20243283Y4470380D02*
G01X20243283Y4350238D01*
G01X20243283Y4350238D02*
G01X20311863Y4350238D01*
G01X20428195Y4430248D02*
G01X20428195Y4350238D01*
G01X20428195Y4413230D02*
G01X20416765Y4424660D01*
G01X20405335Y4430248D01*
G01X20388317Y4430248D01*
G01X20376887Y4424660D01*
G01X20365457Y4413230D01*
G01X20359615Y4395958D01*
G01X20359615Y4384528D01*
G01X20365457Y4367510D01*
G01X20376887Y4356080D01*
G01X20388317Y4350238D01*
G01X20405335Y4350238D01*
G01X20416765Y4356080D01*
G01X20428195Y4367510D01*
G01X20481789Y4430248D02*
G01X20516079Y4350238D01*
G01X20550369Y4430248D02*
G01X20516079Y4350238D01*
G01X20504649Y4327378D01*
G01X20493219Y4315948D01*
G01X20481789Y4310360D01*
G01X20475947Y4310360D01*
G01X20598121Y4395958D02*
G01X20666701Y4395958D01*
G01X20666701Y4407388D01*
G01X20661113Y4418818D01*
G01X20655271Y4424660D01*
G01X20643841Y4430248D01*
G01X20626823Y4430248D01*
G01X20615393Y4424660D01*
G01X20603963Y4413230D01*
G01X20598121Y4395958D01*
G01X20598121Y4384528D01*
G01X20603963Y4367510D01*
G01X20615393Y4356080D01*
G01X20626823Y4350238D01*
G01X20643841Y4350238D01*
G01X20655271Y4356080D01*
G01X20666701Y4367510D01*
G01X20714453Y4430248D02*
G01X20714453Y4350238D01*
G01X20714453Y4395958D02*
G01X20720295Y4413230D01*
G01X20731725Y4424660D01*
G01X20743155Y4430248D01*
G01X20760173Y4430248D01*

G04 Image Start*
G36*
G01X4903369Y4823501D02*
G01X4895629Y4822913D01*
G01X4887786Y4822714D01*
G01X4879943Y4822913D01*
G01X4872202Y4823501D01*
G01X4864575Y4824470D01*
G01X4857070Y4825810D01*
G01X4842464Y4829565D01*
G01X4828462Y4834690D01*
G01X4815140Y4841107D01*
G01X4802574Y4848740D01*
G01X4790842Y4857513D01*
G01X4780020Y4867348D01*
G01X4770184Y4878171D01*
G01X4761411Y4889903D01*
G01X4753778Y4902468D01*
G01X4747361Y4915790D01*
G01X4742237Y4929792D01*
G01X4738482Y4944398D01*
G01X4737142Y4951903D01*
G01X4736172Y4959531D01*
G01X4735584Y4967271D01*
G01X4735386Y4975114D01*
G01X4760786Y4975114D01*
G01X4761443Y4962148D01*
G01X4763371Y4949552D01*
G01X4766505Y4937390D01*
G01X4770782Y4925727D01*
G01X4776137Y4914628D01*
G01X4782505Y4904157D01*
G01X4789823Y4894377D01*
G01X4798025Y4885354D01*
G01X4807049Y4877151D01*
G01X4816828Y4869833D01*
G01X4827300Y4863465D01*
G01X4838399Y4858110D01*
G01X4850062Y4853834D01*
G01X4862223Y4850699D01*
G01X4862223Y4850699D01*
G01X4874819Y4848771D01*
G01X4887786Y4848114D01*
G01X4900752Y4848771D01*
G01X4913348Y4850699D01*
G01X4925510Y4853834D01*
G01X4937172Y4858110D01*
G01X4948272Y4863465D01*
G01X4958743Y4869833D01*
G01X4968523Y4877151D01*
G01X4977546Y4885354D01*
G01X4985749Y4894377D01*
G01X4993066Y4904157D01*
G01X4999435Y4914628D01*
G01X5004790Y4925727D01*
G01X5009066Y4937390D01*
G01X5012201Y4949552D01*
G01X5014129Y4962148D01*
G01X5014786Y4975114D01*
G01X5014129Y4988081D01*
G01X5012201Y5000677D01*
G01X5009066Y5012838D01*
G01X5004790Y5024501D01*
G01X4999435Y5035600D01*
G01X4993066Y5046072D01*
G01X4985749Y5055851D01*
G01X4977546Y5064875D01*
G01X4968523Y5073077D01*
G01X4958743Y5080395D01*
G01X4948272Y5086763D01*
G01X4937172Y5092118D01*
G01X4925510Y5096395D01*
G01X4913348Y5099529D01*
G01X4900752Y5101457D01*
G01X4887786Y5102114D01*
G01X4874819Y5101457D01*
G01X4862223Y5099529D01*
G01X4850062Y5096395D01*
G01X4838399Y5092118D01*
G01X4827300Y5086763D01*
G01X4816828Y5080395D01*
G01X4807049Y5073077D01*
G01X4798025Y5064875D01*
G01X4789823Y5055851D01*
G01X4782505Y5046072D01*
G01X4776137Y5035600D01*
G01X4770782Y5024501D01*
G01X4766505Y5012838D01*
G01X4763371Y5000677D01*
G01X4761443Y4988081D01*
G01X4760786Y4975114D01*
G01X4735386Y4975114D01*
G01X4735584Y4982957D01*
G01X4736172Y4990697D01*
G01X4737142Y4998325D01*
G01X4738482Y5005830D01*
G01X4742237Y5020436D01*
G01X4747361Y5034438D01*
G01X4753778Y5047760D01*
G01X4761411Y5060326D01*
G01X4770184Y5072058D01*
G01X4780020Y5082880D01*
G01X4790842Y5092716D01*
G01X4802574Y5101489D01*
G01X4815140Y5109122D01*
G01X4828462Y5115539D01*
G01X4842464Y5120663D01*
G01X4857070Y5124418D01*
G01X4864575Y5125758D01*
G01X4872202Y5126727D01*
G01X4879943Y5127316D01*
G01X4887786Y5127514D01*
G01X4895629Y5127316D01*
G01X4903369Y5126727D01*
G01X4910996Y5125758D01*
G01X4918502Y5124418D01*
G01X4933108Y5120663D01*
G01X4947110Y5115539D01*
G01X4960432Y5109122D01*
G01X4972997Y5101489D01*
G01X4984729Y5092716D01*
G01X4995552Y5082880D01*
G01X5005387Y5072058D01*
G01X5014160Y5060326D01*
G01X5021793Y5047760D01*
G01X5028210Y5034438D01*
G01X5033335Y5020436D01*
G01X5037090Y5005830D01*
G01X5038430Y4998325D01*
G01X5039399Y4990697D01*
G01X5039987Y4982957D01*
G01X5040186Y4975114D01*
G01X5039987Y4967271D01*
G01X5039399Y4959531D01*
G01X5038430Y4951903D01*
G01X5037090Y4944398D01*
G01X5033335Y4929792D01*
G01X5028210Y4915790D01*
G01X5021793Y4902468D01*
G01X5014160Y4889903D01*
G01X5005387Y4878171D01*
G01X4995552Y4867348D01*
G01X4984729Y4857513D01*
G01X4972997Y4848740D01*
G01X4960432Y4841107D01*
G01X4947110Y4834690D01*
G01X4933108Y4829565D01*
G01X4918502Y4825810D01*
G01X4910996Y4824470D01*
G01X4903369Y4823501D01*
G37*
G36*
G01X4735386Y4546943D02*
G01X5040186Y4546943D01*
G01X4887786Y4282986D01*
G01X4750051Y4521543D01*
G01X4779379Y4521543D01*
G01X4887786Y4333786D01*
G01X4996193Y4521543D01*
G01X4996193Y4521543D01*
G01X4779379Y4521543D01*
G01X4750051Y4521543D01*
G01X4735386Y4546943D01*
G37*
G36*
G01X4735386Y5708086D02*
G01X5014786Y5708086D01*
G01X5014786Y5428686D01*
G01X4735386Y5428686D01*
G01X4735386Y5682686D01*
G01X4760786Y5682686D01*
G01X4760786Y5454086D01*
G01X4989386Y5454086D01*
G01X4989386Y5682686D01*
G01X4989386Y5682686D01*
G01X4760786Y5682686D01*
G01X4735386Y5682686D01*
G01X4735386Y5708086D01*
G37*

G04 PolygonModel Start*
G54D14*
G01X4445100Y4111514D02*
G01X21350905Y4111514D01*
G01X4445100Y4692086D02*
G01X21350905Y4692086D01*
G01X4445100Y5272657D02*
G01X21350905Y5272657D01*
G01X4445100Y5853229D02*
G01X21350905Y5853229D01*
G01X4445100Y6433800D02*
G01X21350905Y6433800D01*
G01X4445100Y6433800D02*
G01X4445100Y4136914D01*
G01X5896529Y6433800D02*
G01X5896529Y4136914D01*
G01X7310692Y6433800D02*
G01X7310692Y4136914D01*
G01X11391601Y6433800D02*
G01X11391601Y4136914D01*
G01X12853008Y6433800D02*
G01X12853008Y4136914D01*
G01X14284189Y6433800D02*
G01X14284189Y4136914D01*
G01X15953368Y6433800D02*
G01X15953368Y4136914D01*
G01X17872737Y6433800D02*
G01X17872737Y4136914D01*
G01X21350905Y6433800D02*
G01X21350905Y4136914D01*

M02*

