G04 Layer: TopLayer*
G04 EasyEDA Pro v2.2.47.7, 2026-05-03 22:28:34*
G04 Gerber Generator version 0.3*
G04 Scale: 100 percent, Rotated: No, Reflected: No*
G04 Dimensions in millimeters*
G04 Leading zeros omitted, absolute positions, 4 integers and 5 decimals*
G04 Generated by one-click*
G04 Object Configs: Pad,Via,Track,Text,Image,Dimension,BoardOutline,BoardCutout,CopperFilled,SolidRegion,FPCStiffener,Line,PlaneZone,ComponentProperty,ComponentSilkscreen,TearDrop*
G04 Layer Configs: 1,2,3,4,5,6,7,8,9,10,11,13,14,71,56*
G04 Copper Areas: 1*
%FSLAX45Y45*%
%MOMM*%
%ADD10C,0.2032*%
%ADD11O,7.0X4.2*%
%ADD12C,3.2004*%
%ADD13C,0.0537*%
G75*


G04 Copper Start*
G36*
G01X2409286Y6397986D02*
G01X2409286Y-6380386D01*
G01X-2569086Y-6380386D01*
G01X-2569086Y-3980200D01*
G01X-1419918Y-3980200D01*
G01X-1417991Y-4016965D01*
G01X-1412232Y-4053326D01*
G01X-1402704Y-4088887D01*
G01X-1389510Y-4123257D01*
G01X-1372797Y-4156059D01*
G01X-1352746Y-4186935D01*
G01X-1329577Y-4215545D01*
G01X-1303545Y-4241577D01*
G01X-1274935Y-4264746D01*
G01X-1244059Y-4284797D01*
G01X-1211257Y-4301510D01*
G01X-1176887Y-4314704D01*
G01X-1141326Y-4324232D01*
G01X-1104965Y-4329991D01*
G01X-1068200Y-4331918D01*
G01X-1031436Y-4329991D01*
G01X-995074Y-4324232D01*
G01X-959513Y-4314704D01*
G01X-925144Y-4301510D01*
G01X-892341Y-4284797D01*
G01X-861465Y-4264746D01*
G01X-832855Y-4241577D01*
G01X-806823Y-4215545D01*
G01X-783654Y-4186935D01*
G01X-763603Y-4156059D01*
G01X-746890Y-4123257D01*
G01X-733696Y-4088887D01*
G01X-724168Y-4053326D01*
G01X-718409Y-4016965D01*
G01X-716482Y-3980200D01*
G01X586682Y-3980200D01*
G01X588609Y-4016965D01*
G01X594368Y-4053326D01*
G01X603896Y-4088887D01*
G01X617090Y-4123257D01*
G01X633803Y-4156059D01*
G01X653854Y-4186935D01*
G01X677023Y-4215545D01*
G01X703055Y-4241577D01*
G01X731665Y-4264746D01*
G01X762541Y-4284797D01*
G01X795343Y-4301510D01*
G01X829713Y-4314704D01*
G01X865274Y-4324232D01*
G01X901635Y-4329991D01*
G01X938400Y-4331918D01*
G01X975164Y-4329991D01*
G01X1011526Y-4324232D01*
G01X1047087Y-4314704D01*
G01X1081456Y-4301510D01*
G01X1114259Y-4284797D01*
G01X1145135Y-4264746D01*
G01X1173745Y-4241577D01*
G01X1199777Y-4215545D01*
G01X1222946Y-4186935D01*
G01X1242997Y-4156059D01*
G01X1259710Y-4123257D01*
G01X1272904Y-4088887D01*
G01X1282432Y-4053326D01*
G01X1288191Y-4016965D01*
G01X1290118Y-3980200D01*
G01X1288191Y-3943436D01*
G01X1282432Y-3907074D01*
G01X1272904Y-3871513D01*
G01X1259710Y-3837144D01*
G01X1242997Y-3804341D01*
G01X1222946Y-3773465D01*
G01X1199777Y-3744855D01*
G01X1173745Y-3718823D01*
G01X1145135Y-3695654D01*
G01X1114259Y-3675603D01*
G01X1081456Y-3658890D01*
G01X1047087Y-3645697D01*
G01X1011526Y-3636168D01*
G01X975164Y-3630409D01*
G01X938400Y-3628482D01*
G01X901635Y-3630409D01*
G01X865274Y-3636168D01*
G01X829713Y-3645697D01*
G01X795343Y-3658890D01*
G01X762541Y-3675603D01*
G01X731665Y-3695654D01*
G01X703055Y-3718823D01*
G01X677023Y-3744855D01*
G01X653854Y-3773465D01*
G01X633803Y-3804341D01*
G01X617090Y-3837144D01*
G01X603896Y-3871513D01*
G01X594368Y-3907074D01*
G01X588609Y-3943436D01*
G01X586682Y-3980200D01*
G01X586682Y-3980200D01*
G01X-716482Y-3980200D01*
G01X-718409Y-3943436D01*
G01X-724168Y-3907074D01*
G01X-733696Y-3871513D01*
G01X-746890Y-3837144D01*
G01X-763603Y-3804341D01*
G01X-783654Y-3773465D01*
G01X-806823Y-3744855D01*
G01X-832855Y-3718823D01*
G01X-861465Y-3695654D01*
G01X-892341Y-3675603D01*
G01X-925144Y-3658890D01*
G01X-959513Y-3645697D01*
G01X-995074Y-3636168D01*
G01X-1031436Y-3630409D01*
G01X-1068200Y-3628482D01*
G01X-1104965Y-3630409D01*
G01X-1141326Y-3636168D01*
G01X-1176887Y-3645697D01*
G01X-1211257Y-3658890D01*
G01X-1244059Y-3675603D01*
G01X-1274935Y-3695654D01*
G01X-1303545Y-3718823D01*
G01X-1329577Y-3744855D01*
G01X-1352746Y-3773465D01*
G01X-1372797Y-3804341D01*
G01X-1389510Y-3837144D01*
G01X-1402704Y-3871513D01*
G01X-1412232Y-3907074D01*
G01X-1417991Y-3943436D01*
G01X-1419918Y-3980200D01*
G01X-1419918Y-3980200D01*
G01X-2569086Y-3980200D01*
G01X-2569086Y-2240300D01*
G01X-1927918Y-2240300D01*
G01X-1925991Y-2277065D01*
G01X-1920232Y-2313426D01*
G01X-1910704Y-2348987D01*
G01X-1897510Y-2383357D01*
G01X-1880797Y-2416159D01*
G01X-1860746Y-2447035D01*
G01X-1837577Y-2475645D01*
G01X-1811545Y-2501677D01*
G01X-1782935Y-2524846D01*
G01X-1752059Y-2544897D01*
G01X-1719257Y-2561610D01*
G01X-1684887Y-2574804D01*
G01X-1649326Y-2584332D01*
G01X-1612965Y-2590091D01*
G01X-1576200Y-2592018D01*
G01X-1539436Y-2590091D01*
G01X-1503074Y-2584332D01*
G01X-1467513Y-2574804D01*
G01X-1433144Y-2561610D01*
G01X-1400341Y-2544897D01*
G01X-1369465Y-2524846D01*
G01X-1340855Y-2501677D01*
G01X-1314823Y-2475645D01*
G01X-1291654Y-2447035D01*
G01X-1271603Y-2416159D01*
G01X-1254890Y-2383357D01*
G01X-1241696Y-2348987D01*
G01X-1232168Y-2313426D01*
G01X-1226409Y-2277065D01*
G01X-1224482Y-2240300D01*
G01X-416618Y-2240300D01*
G01X-414691Y-2277065D01*
G01X-408932Y-2313426D01*
G01X-399404Y-2348987D01*
G01X-386210Y-2383357D01*
G01X-369497Y-2416159D01*
G01X-349446Y-2447035D01*
G01X-326277Y-2475645D01*
G01X-300245Y-2501677D01*
G01X-271635Y-2524846D01*
G01X-240759Y-2544897D01*
G01X-207957Y-2561610D01*
G01X-173587Y-2574804D01*
G01X-138026Y-2584332D01*
G01X-101665Y-2590091D01*
G01X-64900Y-2592018D01*
G01X-28136Y-2590091D01*
G01X8226Y-2584332D01*
G01X43787Y-2574804D01*
G01X78156Y-2561610D01*
G01X110959Y-2544897D01*
G01X141835Y-2524846D01*
G01X170445Y-2501677D01*
G01X196477Y-2475645D01*
G01X219646Y-2447035D01*
G01X239697Y-2416159D01*
G01X256410Y-2383357D01*
G01X269604Y-2348987D01*
G01X279132Y-2313426D01*
G01X284891Y-2277065D01*
G01X286818Y-2240300D01*
G01X1081982Y-2240300D01*
G01X1083909Y-2277065D01*
G01X1089668Y-2313426D01*
G01X1099196Y-2348987D01*
G01X1112390Y-2383357D01*
G01X1129103Y-2416159D01*
G01X1149154Y-2447035D01*
G01X1172323Y-2475645D01*
G01X1198355Y-2501677D01*
G01X1226965Y-2524846D01*
G01X1257841Y-2544897D01*
G01X1290643Y-2561610D01*
G01X1325013Y-2574804D01*
G01X1360574Y-2584332D01*
G01X1396935Y-2590091D01*
G01X1433700Y-2592018D01*
G01X1470464Y-2590091D01*
G01X1506826Y-2584332D01*
G01X1542387Y-2574804D01*
G01X1576756Y-2561610D01*
G01X1609559Y-2544897D01*
G01X1640435Y-2524846D01*
G01X1669045Y-2501677D01*
G01X1695077Y-2475645D01*
G01X1718246Y-2447035D01*
G01X1738297Y-2416159D01*
G01X1755010Y-2383357D01*
G01X1768204Y-2348987D01*
G01X1777732Y-2313426D01*
G01X1783491Y-2277065D01*
G01X1785418Y-2240300D01*
G01X1783491Y-2203536D01*
G01X1777732Y-2167174D01*
G01X1768204Y-2131613D01*
G01X1755010Y-2097244D01*
G01X1738297Y-2064441D01*
G01X1718246Y-2033565D01*
G01X1695077Y-2004955D01*
G01X1669045Y-1978923D01*
G01X1640435Y-1955754D01*
G01X1609559Y-1935703D01*
G01X1576756Y-1918990D01*
G01X1542387Y-1905797D01*
G01X1506826Y-1896268D01*
G01X1470464Y-1890509D01*
G01X1433700Y-1888582D01*
G01X1396935Y-1890509D01*
G01X1360574Y-1896268D01*
G01X1325013Y-1905797D01*
G01X1290643Y-1918990D01*
G01X1257841Y-1935703D01*
G01X1226965Y-1955754D01*
G01X1198355Y-1978923D01*
G01X1172323Y-2004955D01*
G01X1149154Y-2033565D01*
G01X1129103Y-2064441D01*
G01X1112390Y-2097244D01*
G01X1099196Y-2131613D01*
G01X1089668Y-2167174D01*
G01X1083909Y-2203536D01*
G01X1081982Y-2240300D01*
G01X1081982Y-2240300D01*
G01X286818Y-2240300D01*
G01X284891Y-2203536D01*
G01X279132Y-2167174D01*
G01X269604Y-2131613D01*
G01X256410Y-2097244D01*
G01X239697Y-2064441D01*
G01X219646Y-2033565D01*
G01X196477Y-2004955D01*
G01X170445Y-1978923D01*
G01X141835Y-1955754D01*
G01X110959Y-1935703D01*
G01X78156Y-1918990D01*
G01X43787Y-1905797D01*
G01X8226Y-1896268D01*
G01X-28136Y-1890509D01*
G01X-64900Y-1888582D01*
G01X-101665Y-1890509D01*
G01X-138026Y-1896268D01*
G01X-173587Y-1905797D01*
G01X-207957Y-1918990D01*
G01X-240759Y-1935703D01*
G01X-271635Y-1955754D01*
G01X-300245Y-1978923D01*
G01X-326277Y-2004955D01*
G01X-349446Y-2033565D01*
G01X-369497Y-2064441D01*
G01X-386210Y-2097244D01*
G01X-399404Y-2131613D01*
G01X-408932Y-2167174D01*
G01X-414691Y-2203536D01*
G01X-416618Y-2240300D01*
G01X-416618Y-2240300D01*
G01X-1224482Y-2240300D01*
G01X-1226409Y-2203536D01*
G01X-1232168Y-2167174D01*
G01X-1241696Y-2131613D01*
G01X-1254890Y-2097244D01*
G01X-1271603Y-2064441D01*
G01X-1291654Y-2033565D01*
G01X-1314823Y-2004955D01*
G01X-1340855Y-1978923D01*
G01X-1369465Y-1955754D01*
G01X-1400341Y-1935703D01*
G01X-1433144Y-1918990D01*
G01X-1467513Y-1905797D01*
G01X-1503074Y-1896268D01*
G01X-1539436Y-1890509D01*
G01X-1576200Y-1888582D01*
G01X-1612965Y-1890509D01*
G01X-1649326Y-1896268D01*
G01X-1684887Y-1905797D01*
G01X-1719257Y-1918990D01*
G01X-1752059Y-1935703D01*
G01X-1782935Y-1955754D01*
G01X-1811545Y-1978923D01*
G01X-1837577Y-2004955D01*
G01X-1860746Y-2033565D01*
G01X-1880797Y-2064441D01*
G01X-1897510Y-2097244D01*
G01X-1910704Y-2131613D01*
G01X-1920232Y-2167174D01*
G01X-1925991Y-2203536D01*
G01X-1927918Y-2240300D01*
G01X-1927918Y-2240300D01*
G01X-2569086Y-2240300D01*
G01X-2569086Y-754400D01*
G01X-1927918Y-754400D01*
G01X-1925991Y-791165D01*
G01X-1920232Y-827526D01*
G01X-1910704Y-863087D01*
G01X-1897510Y-897457D01*
G01X-1880797Y-930259D01*
G01X-1860746Y-961135D01*
G01X-1837577Y-989745D01*
G01X-1811545Y-1015777D01*
G01X-1782935Y-1038946D01*
G01X-1752059Y-1058997D01*
G01X-1719257Y-1075710D01*
G01X-1684887Y-1088904D01*
G01X-1649326Y-1098432D01*
G01X-1612965Y-1104191D01*
G01X-1576200Y-1106118D01*
G01X-1539436Y-1104191D01*
G01X-1503074Y-1098432D01*
G01X-1467513Y-1088904D01*
G01X-1433144Y-1075710D01*
G01X-1400341Y-1058997D01*
G01X-1369465Y-1038946D01*
G01X-1340855Y-1015777D01*
G01X-1314823Y-989745D01*
G01X-1291654Y-961135D01*
G01X-1271603Y-930259D01*
G01X-1254890Y-897457D01*
G01X-1241696Y-863087D01*
G01X-1232168Y-827526D01*
G01X-1226409Y-791165D01*
G01X-1224482Y-754400D01*
G01X-924618Y-754400D01*
G01X-922691Y-791165D01*
G01X-916932Y-827526D01*
G01X-907404Y-863087D01*
G01X-894210Y-897457D01*
G01X-877497Y-930259D01*
G01X-857446Y-961135D01*
G01X-834277Y-989745D01*
G01X-808245Y-1015777D01*
G01X-779635Y-1038946D01*
G01X-748759Y-1058997D01*
G01X-715957Y-1075710D01*
G01X-681587Y-1088904D01*
G01X-646026Y-1098432D01*
G01X-609665Y-1104191D01*
G01X-572900Y-1106118D01*
G01X-536136Y-1104191D01*
G01X-499774Y-1098432D01*
G01X-464213Y-1088904D01*
G01X-429844Y-1075710D01*
G01X-397041Y-1058997D01*
G01X-366165Y-1038946D01*
G01X-337555Y-1015777D01*
G01X-311523Y-989745D01*
G01X-288354Y-961135D01*
G01X-268303Y-930259D01*
G01X-251590Y-897457D01*
G01X-238396Y-863087D01*
G01X-228868Y-827526D01*
G01X-223109Y-791165D01*
G01X-221182Y-754400D01*
G01X78682Y-754400D01*
G01X80609Y-791165D01*
G01X86368Y-827526D01*
G01X95896Y-863087D01*
G01X109090Y-897457D01*
G01X125803Y-930259D01*
G01X145854Y-961135D01*
G01X169023Y-989745D01*
G01X195055Y-1015777D01*
G01X223665Y-1038946D01*
G01X254541Y-1058997D01*
G01X287343Y-1075710D01*
G01X321713Y-1088904D01*
G01X357274Y-1098432D01*
G01X393635Y-1104191D01*
G01X430400Y-1106118D01*
G01X467164Y-1104191D01*
G01X503526Y-1098432D01*
G01X539087Y-1088904D01*
G01X573456Y-1075710D01*
G01X606259Y-1058997D01*
G01X637135Y-1038946D01*
G01X665745Y-1015777D01*
G01X691777Y-989745D01*
G01X714946Y-961135D01*
G01X734997Y-930259D01*
G01X751710Y-897457D01*
G01X764904Y-863087D01*
G01X774432Y-827526D01*
G01X780191Y-791165D01*
G01X782118Y-754400D01*
G01X1081982Y-754400D01*
G01X1083909Y-791165D01*
G01X1089668Y-827526D01*
G01X1099196Y-863087D01*
G01X1112390Y-897457D01*
G01X1129103Y-930259D01*
G01X1149154Y-961135D01*
G01X1172323Y-989745D01*
G01X1198355Y-1015777D01*
G01X1226965Y-1038946D01*
G01X1257841Y-1058997D01*
G01X1290643Y-1075710D01*
G01X1325013Y-1088904D01*
G01X1360574Y-1098432D01*
G01X1396935Y-1104191D01*
G01X1433700Y-1106118D01*
G01X1470464Y-1104191D01*
G01X1506826Y-1098432D01*
G01X1542387Y-1088904D01*
G01X1576756Y-1075710D01*
G01X1609559Y-1058997D01*
G01X1640435Y-1038946D01*
G01X1669045Y-1015777D01*
G01X1695077Y-989745D01*
G01X1718246Y-961135D01*
G01X1738297Y-930259D01*
G01X1755010Y-897457D01*
G01X1768204Y-863087D01*
G01X1777732Y-827526D01*
G01X1783491Y-791165D01*
G01X1785418Y-754400D01*
G01X1783491Y-717636D01*
G01X1777732Y-681274D01*
G01X1768204Y-645713D01*
G01X1755010Y-611344D01*
G01X1738297Y-578541D01*
G01X1718246Y-547665D01*
G01X1695077Y-519055D01*
G01X1669045Y-493023D01*
G01X1640435Y-469854D01*
G01X1609559Y-449803D01*
G01X1576756Y-433090D01*
G01X1542387Y-419897D01*
G01X1506826Y-410368D01*
G01X1470464Y-404609D01*
G01X1433700Y-402682D01*
G01X1396935Y-404609D01*
G01X1360574Y-410368D01*
G01X1325013Y-419897D01*
G01X1290643Y-433090D01*
G01X1257841Y-449803D01*
G01X1226965Y-469854D01*
G01X1198355Y-493023D01*
G01X1172323Y-519055D01*
G01X1149154Y-547665D01*
G01X1129103Y-578541D01*
G01X1112390Y-611344D01*
G01X1099196Y-645713D01*
G01X1089668Y-681274D01*
G01X1083909Y-717636D01*
G01X1081982Y-754400D01*
G01X1081982Y-754400D01*
G01X782118Y-754400D01*
G01X780191Y-717636D01*
G01X774432Y-681274D01*
G01X764904Y-645713D01*
G01X751710Y-611344D01*
G01X734997Y-578541D01*
G01X714946Y-547665D01*
G01X691777Y-519055D01*
G01X665745Y-493023D01*
G01X637135Y-469854D01*
G01X606259Y-449803D01*
G01X573456Y-433090D01*
G01X539087Y-419897D01*
G01X503526Y-410368D01*
G01X467164Y-404609D01*
G01X430400Y-402682D01*
G01X393635Y-404609D01*
G01X357274Y-410368D01*
G01X321713Y-419897D01*
G01X287343Y-433090D01*
G01X254541Y-449803D01*
G01X223665Y-469854D01*
G01X195055Y-493023D01*
G01X169023Y-519055D01*
G01X145854Y-547665D01*
G01X125803Y-578541D01*
G01X109090Y-611344D01*
G01X95896Y-645713D01*
G01X86368Y-681274D01*
G01X80609Y-717636D01*
G01X78682Y-754400D01*
G01X78682Y-754400D01*
G01X-221182Y-754400D01*
G01X-223109Y-717636D01*
G01X-228868Y-681274D01*
G01X-238396Y-645713D01*
G01X-251590Y-611344D01*
G01X-268303Y-578541D01*
G01X-288354Y-547665D01*
G01X-311523Y-519055D01*
G01X-337555Y-493023D01*
G01X-366165Y-469854D01*
G01X-397041Y-449803D01*
G01X-429844Y-433090D01*
G01X-464213Y-419897D01*
G01X-499774Y-410368D01*
G01X-536136Y-404609D01*
G01X-572900Y-402682D01*
G01X-609665Y-404609D01*
G01X-646026Y-410368D01*
G01X-681587Y-419897D01*
G01X-715957Y-433090D01*
G01X-748759Y-449803D01*
G01X-779635Y-469854D01*
G01X-808245Y-493023D01*
G01X-834277Y-519055D01*
G01X-857446Y-547665D01*
G01X-877497Y-578541D01*
G01X-894210Y-611344D01*
G01X-907404Y-645713D01*
G01X-916932Y-681274D01*
G01X-922691Y-717636D01*
G01X-924618Y-754400D01*
G01X-924618Y-754400D01*
G01X-1224482Y-754400D01*
G01X-1226409Y-717636D01*
G01X-1232168Y-681274D01*
G01X-1241696Y-645713D01*
G01X-1254890Y-611344D01*
G01X-1271603Y-578541D01*
G01X-1291654Y-547665D01*
G01X-1314823Y-519055D01*
G01X-1340855Y-493023D01*
G01X-1369465Y-469854D01*
G01X-1400341Y-449803D01*
G01X-1433144Y-433090D01*
G01X-1467513Y-419897D01*
G01X-1503074Y-410368D01*
G01X-1539436Y-404609D01*
G01X-1576200Y-402682D01*
G01X-1612965Y-404609D01*
G01X-1649326Y-410368D01*
G01X-1684887Y-419897D01*
G01X-1719257Y-433090D01*
G01X-1752059Y-449803D01*
G01X-1782935Y-469854D01*
G01X-1811545Y-493023D01*
G01X-1837577Y-519055D01*
G01X-1860746Y-547665D01*
G01X-1880797Y-578541D01*
G01X-1897510Y-611344D01*
G01X-1910704Y-645713D01*
G01X-1920232Y-681274D01*
G01X-1925991Y-717636D01*
G01X-1927918Y-754400D01*
G01X-1927918Y-754400D01*
G01X-2569086Y-754400D01*
G01X-2569086Y865203D01*
G01X-1762820Y865203D01*
G01X-1760894Y828438D01*
G01X-1755135Y792077D01*
G01X-1745606Y756516D01*
G01X-1732413Y722146D01*
G01X-1715699Y689344D01*
G01X-1695648Y658468D01*
G01X-1672480Y629858D01*
G01X-1646448Y603826D01*
G01X-1617837Y580657D01*
G01X-1586962Y560606D01*
G01X-1554159Y543893D01*
G01X-1519789Y530699D01*
G01X-1484229Y521171D01*
G01X-1447867Y515412D01*
G01X-1411103Y513485D01*
G01X-1374338Y515412D01*
G01X-1337976Y521171D01*
G01X-1302416Y530699D01*
G01X-1268046Y543893D01*
G01X-1235244Y560606D01*
G01X-1204368Y580657D01*
G01X-1175757Y603826D01*
G01X-1149725Y629858D01*
G01X-1126557Y658468D01*
G01X-1106506Y689344D01*
G01X-1089792Y722146D01*
G01X-1076599Y756516D01*
G01X-1067071Y792077D01*
G01X-1061311Y828438D01*
G01X-1059837Y856576D01*
G01X-389360Y856576D01*
G01X-387433Y819812D01*
G01X-381674Y783450D01*
G01X-372146Y747890D01*
G01X-358952Y713520D01*
G01X-342239Y680717D01*
G01X-322188Y649842D01*
G01X-299019Y621231D01*
G01X-272987Y595199D01*
G01X-244377Y572031D01*
G01X-213501Y551980D01*
G01X-180699Y535266D01*
G01X-146329Y522073D01*
G01X-110768Y512544D01*
G01X-74407Y506785D01*
G01X-37642Y504859D01*
G01X-878Y506785D01*
G01X35484Y512544D01*
G01X71045Y522073D01*
G01X105415Y535266D01*
G01X138217Y551980D01*
G01X169093Y572031D01*
G01X197703Y595199D01*
G01X223735Y621231D01*
G01X246904Y649842D01*
G01X266955Y680717D01*
G01X283668Y713520D01*
G01X296862Y747890D01*
G01X306390Y783450D01*
G01X312149Y819812D01*
G01X314076Y856576D01*
G01X312149Y893341D01*
G01X306390Y929703D01*
G01X296862Y965263D01*
G01X283668Y999633D01*
G01X266955Y1032435D01*
G01X246904Y1063311D01*
G01X223735Y1091922D01*
G01X197703Y1117954D01*
G01X169093Y1141122D01*
G01X138217Y1161173D01*
G01X105415Y1177887D01*
G01X71045Y1191080D01*
G01X35484Y1200608D01*
G01X-878Y1206367D01*
G01X-37642Y1208294D01*
G01X-74407Y1206367D01*
G01X-110768Y1200608D01*
G01X-146329Y1191080D01*
G01X-180699Y1177887D01*
G01X-213501Y1161173D01*
G01X-244377Y1141122D01*
G01X-272987Y1117954D01*
G01X-299019Y1091922D01*
G01X-322188Y1063311D01*
G01X-342239Y1032435D01*
G01X-358952Y999633D01*
G01X-372146Y965263D01*
G01X-381674Y929703D01*
G01X-387433Y893341D01*
G01X-389360Y856576D01*
G01X-389360Y856576D01*
G01X-1059837Y856576D01*
G01X-1059385Y865203D01*
G01X-1061311Y901968D01*
G01X-1067071Y938329D01*
G01X-1076599Y973890D01*
G01X-1089792Y1008260D01*
G01X-1106506Y1041062D01*
G01X-1126557Y1071938D01*
G01X-1149725Y1100548D01*
G01X-1175757Y1126580D01*
G01X-1204368Y1149749D01*
G01X-1235244Y1169800D01*
G01X-1268046Y1186513D01*
G01X-1302416Y1199707D01*
G01X-1337976Y1209235D01*
G01X-1374338Y1214994D01*
G01X-1411103Y1216921D01*
G01X-1447867Y1214994D01*
G01X-1484229Y1209235D01*
G01X-1519789Y1199707D01*
G01X-1554159Y1186513D01*
G01X-1586962Y1169800D01*
G01X-1617837Y1149749D01*
G01X-1646448Y1126580D01*
G01X-1672480Y1100548D01*
G01X-1695648Y1071938D01*
G01X-1715699Y1041062D01*
G01X-1732413Y1008260D01*
G01X-1745606Y973890D01*
G01X-1755135Y938329D01*
G01X-1760894Y901968D01*
G01X-1762820Y865203D01*
G01X-1762820Y865203D01*
G01X-2569086Y865203D01*
G01X-2569086Y5149300D01*
G01X-1458464Y5149300D01*
G01X-1458464Y2463800D01*
G01X-1456711Y2452733D01*
G01X-1451624Y2442749D01*
G01X-1443701Y2434826D01*
G01X-1433717Y2429739D01*
G01X-1422650Y2427986D01*
G01X1262850Y2427986D01*
G01X1273917Y2429739D01*
G01X1283901Y2434826D01*
G01X1291824Y2442749D01*
G01X1296911Y2452733D01*
G01X1298664Y2463800D01*
G01X1298664Y5149300D01*
G01X1296911Y5160367D01*
G01X1291824Y5170351D01*
G01X1283901Y5178274D01*
G01X1273917Y5183361D01*
G01X1262850Y5185114D01*
G01X-1422650Y5185114D01*
G01X-1422650Y5185114D01*
G01X-1433717Y5183361D01*
G01X-1443701Y5178274D01*
G01X-1451624Y5170351D01*
G01X-1456711Y5160367D01*
G01X-1458464Y5149300D01*
G01X-2569086Y5149300D01*
G01X-2569086Y6397986D01*
G01X2409286Y6397986D01*
G37*
G54D10*
G01X2409286Y6397986D02*
G01X2409286Y-6380386D01*
G01X-2569086Y-6380386D01*
G01X-2569086Y6397986D01*
G01X2409286Y6397986D01*
G01X-1927918Y-2240300D02*
G03X-1224482Y-2240300I351718J0D01*
G03X-1927918Y-2240300I-351718J0D01*
G01X-1927918Y-754400D02*
G03X-1224482Y-754400I351718J0D01*
G03X-1927918Y-754400I-351718J0D01*
G01X-1762820Y865203D02*
G03X-1059385Y865203I351718J0D01*
G03X-1762820Y865203I-351718J0D01*
G01X-1422650Y5185114D02*
G03X-1458464Y5149300I0J-35814D01*
G01X-1458464Y2463800D01*
G03X-1422650Y2427986I35814J0D01*
G01X1262850Y2427986D01*
G03X1298664Y2463800I0J35814D01*
G01X1298664Y5149300D01*
G03X1262850Y5185114I-35814J0D01*
G01X-1422650Y5185114D01*
G01X-1419918Y-3980200D02*
G03X-716482Y-3980200I351718J0D01*
G03X-1419918Y-3980200I-351718J0D01*
G01X-924618Y-754400D02*
G03X-221182Y-754400I351718J0D01*
G03X-924618Y-754400I-351718J0D01*
G01X-416618Y-2240300D02*
G03X286818Y-2240300I351718J0D01*
G03X-416618Y-2240300I-351718J0D01*
G01X-389360Y856576D02*
G03X314076Y856576I351718J0D01*
G03X-389360Y856576I-351718J0D01*
G01X78682Y-754400D02*
G03X782118Y-754400I351718J0D01*
G03X78682Y-754400I-351718J0D01*
G01X586682Y-3980200D02*
G03X1290118Y-3980200I351718J0D01*
G03X586682Y-3980200I-351718J0D01*
G01X1081982Y-754400D02*
G03X1785418Y-754400I351718J0D01*
G03X1081982Y-754400I-351718J0D01*
G01X1081982Y-2240300D02*
G03X1785418Y-2240300I351718J0D01*
G03X1081982Y-2240300I-351718J0D01*
G04 Copper End*

G04 Pad Start*
G54D11*
G01X-1854900Y-6116200D03*
G01X-1854900Y6133800D03*
G01X1705100Y6133800D03*
G01X1705100Y-6116200D03*
G54D12*
G01X1888750Y5146813D03*
G01X1888750Y1941333D03*
G01X-2061250Y1946413D03*
G01X-2051050Y5137150D03*
G04 Pad End*

M02*

