G04 Layer: TopSilkscreenLayer*
G04 EasyEDA Pro v3.2.149.88089769, 2026-07-14 20:32:07*
G04 Gerber Generator version 0.3*
G04 Scale: 100 percent, Rotated: No, Reflected: No*
G04 Dimensions in millimeters*
G04 Leading zeros omitted, absolute positions, 4 integers and 5 decimals*
G04 Generated by one-click*
G04 Object Configs: Pad,Via,Track,Text,Image,Dimension,BoardOutline,BoardCutout,CopperFilled,SolidRegion,FPCStiffener,Line,PlaneZone,ComponentProperty,ComponentSilkscreen,TearDrop*
G04 Layer Configs: 1,2,3,4,5,6,7,8,9,10,11,13,14,71,56*
G04 Copper Areas: 0*
%FSLAX45Y45*%
%MOMM*%
%ADD10C,0.254*%
%ADD11C,0.4757*%
G75*


G04 Text Start*
G36*
G01X244794Y-201822D02*
G01X239870Y-201443D01*
G01X237597Y-201065D01*
G01X234567Y-200686D01*
G01X230021Y-199928D01*
G01X225097Y-198792D01*
G01X221688Y-197655D01*
G01X218658Y-196519D01*
G01X215627Y-195004D01*
G01X212218Y-193110D01*
G01X208809Y-190837D01*
G01X206157Y-188943D01*
G01X204264Y-187428D01*
G01X198582Y-181746D01*
G01X195551Y-177958D01*
G01X193658Y-174928D01*
G01X191385Y-171140D01*
G01X189491Y-167352D01*
G01X187976Y-163944D01*
G01X185703Y-156368D01*
G01X184567Y-151443D01*
G01X183809Y-146898D01*
G01X183430Y-112807D01*
G01X183809Y-78716D01*
G01X184567Y-73413D01*
G01X185324Y-69625D01*
G01X186460Y-64701D01*
G01X187597Y-61292D01*
G01X188355Y-58640D01*
G01X189491Y-55989D01*
G01X192900Y-49171D01*
G01X194794Y-46140D01*
G01X199339Y-40080D01*
G01X205779Y-33640D01*
G01X209567Y-30989D01*
G01X212976Y-28716D01*
G01X216385Y-26822D01*
G01X219794Y-25307D01*
G01X226612Y-23034D01*
G01X231158Y-21898D01*
G01X235324Y-21140D01*
G01X242142Y-20762D01*
G01X251233Y-21140D01*
G01X255779Y-21898D01*
G01X258430Y-22277D01*
G01X261461Y-23034D01*
G01X264870Y-24171D01*
G01X267900Y-25307D01*
G01X270551Y-26443D01*
G01X273960Y-27959D01*
G01X277748Y-30231D01*
G01X280400Y-32125D01*
G01X282294Y-33262D01*
G01X284188Y-34777D01*
G01X289870Y-40459D01*
G01X292900Y-44247D01*
G01X295173Y-46898D01*
G01X297446Y-50307D01*
G01X299339Y-53716D01*
G01X300854Y-56746D01*
G01X304264Y-65837D01*
G01X305400Y-70383D01*
G01X306157Y-73034D01*
G01X280400Y-73034D01*
G01X279642Y-70762D01*
G01X278127Y-66974D01*
G01X276612Y-63943D01*
G01X274718Y-60913D01*
G01X272824Y-58262D01*
G01X269036Y-54474D01*
G01X265248Y-51443D01*
G01X262597Y-49550D01*
G01X259567Y-48034D01*
G01X255779Y-46519D01*
G01X251991Y-45383D01*
G01X245930Y-45004D01*
G01X239112Y-45383D01*
G01X235324Y-46140D01*
G01X231158Y-47277D01*
G01X227748Y-48792D01*
G01X225476Y-49928D01*
G01X221688Y-52958D01*
G01X219794Y-54853D01*
G01X216006Y-59398D01*
G01X214112Y-62428D01*
G01X212597Y-65459D01*
G01X211460Y-68489D01*
G01X210324Y-71898D01*
G01X209567Y-74928D01*
G01X208809Y-80989D01*
G01X208430Y-110155D01*
G01X208809Y-139322D01*
G01X209188Y-141974D01*
G01X209567Y-145383D01*
G01X210324Y-149171D01*
G01X211460Y-153337D01*
G01X212976Y-157504D01*
G01X214870Y-160913D01*
G01X217142Y-164322D01*
G01X219415Y-166974D01*
G01X223203Y-170762D01*
G01X225097Y-172277D01*
G01X227748Y-173792D01*
G01X231158Y-175307D01*
G01X234946Y-176443D01*
G01X238354Y-177201D01*
G01X243279Y-177580D01*
G01X248203Y-177201D01*
G01X252370Y-176443D01*
G01X256915Y-175307D01*
G01X260324Y-173792D01*
G01X264112Y-171898D01*
G01X266764Y-170004D01*
G01X269036Y-168489D01*
G01X272067Y-165837D01*
G01X275097Y-162049D01*
G01X277370Y-158262D01*
G01X278885Y-154853D01*
G01X280400Y-151065D01*
G01X281158Y-148792D01*
G01X293279Y-148792D01*
G01X305400Y-149171D01*
G01X305021Y-151822D01*
G01X304264Y-155231D01*
G01X303127Y-158640D01*
G01X301612Y-162807D01*
G01X300097Y-166595D01*
G01X298203Y-170383D01*
G01X295930Y-173792D01*
G01X294415Y-176443D01*
G01X292900Y-178337D01*
G01X291006Y-180231D01*
G01X287976Y-184019D01*
G01X286082Y-185913D01*
G01X280400Y-190459D01*
G01X275855Y-193489D01*
G01X273203Y-195004D01*
G01X269794Y-196519D01*
G01X263733Y-198792D01*
G01X259945Y-199928D01*
G01X256536Y-200686D01*
G01X250476Y-201443D01*
G01X244794Y-201822D01*
G37*
G36*
G01X555400Y-199550D02*
G01X555400Y-148034D01*
G01X580400Y-148034D01*
G01X580779Y-176443D01*
G01X603127Y-176822D01*
G01X626233Y-176443D01*
G01X630779Y-175686D01*
G01X636461Y-174550D01*
G01X640248Y-173034D01*
G01X643657Y-171140D01*
G01X647067Y-168489D01*
G01X650097Y-165080D01*
G01X652370Y-161292D01*
G01X653506Y-158262D01*
G01X654642Y-150307D01*
G01X653885Y-145004D01*
G01X653506Y-141595D01*
G01X652748Y-138565D01*
G01X651991Y-135913D01*
G01X650855Y-133262D01*
G01X648960Y-130231D01*
G01X646688Y-127580D01*
G01X644794Y-125686D01*
G01X642142Y-123792D01*
G01X638733Y-122277D01*
G01X634567Y-121140D01*
G01X630779Y-120383D01*
G01X605021Y-120004D01*
G01X580400Y-120004D01*
G01X580400Y-148034D01*
G01X580400Y-148034D01*
G01X555400Y-148034D01*
G01X555400Y-71519D01*
G01X580400Y-71519D01*
G01X580779Y-97656D01*
G01X601991Y-98034D01*
G01X623960Y-97656D01*
G01X626991Y-97277D01*
G01X631536Y-96898D01*
G01X635324Y-96140D01*
G01X637976Y-95383D01*
G01X640627Y-94246D01*
G01X642900Y-92731D01*
G01X646688Y-89701D01*
G01X648582Y-87049D01*
G01X650097Y-84019D01*
G01X651233Y-80610D01*
G01X651991Y-75686D01*
G01X651991Y-71898D01*
G01X651612Y-68489D01*
G01X650855Y-63565D01*
G01X649339Y-59019D01*
G01X647824Y-56368D01*
G01X645552Y-53716D01*
G01X642521Y-50686D01*
G01X639870Y-49171D01*
G01X637218Y-48034D01*
G01X633809Y-46898D01*
G01X630779Y-46140D01*
G01X605021Y-45762D01*
G01X580400Y-45762D01*
G01X580400Y-71519D01*
G01X580400Y-71519D01*
G01X555400Y-71519D01*
G01X555400Y-22277D01*
G01X591764Y-22277D01*
G01X629264Y-22656D01*
G01X636839Y-23413D01*
G01X640627Y-24171D01*
G01X645930Y-25307D01*
G01X650097Y-26822D01*
G01X653506Y-28337D01*
G01X657294Y-30231D01*
G01X659945Y-32125D01*
G01X665248Y-36671D01*
G01X667521Y-39322D01*
G01X671309Y-45004D01*
G01X672824Y-48034D01*
G01X674339Y-51822D01*
G01X675476Y-55610D01*
G01X676233Y-59019D01*
G01X676991Y-65837D01*
G01X677370Y-68489D01*
G01X676612Y-73792D01*
G01X676233Y-77201D01*
G01X675476Y-80989D01*
G01X674339Y-84777D01*
G01X672824Y-88186D01*
G01X671309Y-91216D01*
G01X669794Y-93489D01*
G01X668658Y-95383D01*
G01X667142Y-97277D01*
G01X665248Y-99171D01*
G01X662597Y-101444D01*
G01X659188Y-103716D01*
G01X655400Y-105610D01*
G01X651612Y-107125D01*
G01X648582Y-107883D01*
G01X647635Y-108167D01*
G01X647824Y-109019D01*
G01X650476Y-110534D01*
G01X653885Y-111671D01*
G01X657294Y-113186D01*
G01X660703Y-115080D01*
G01X663355Y-116595D01*
G01X665248Y-118110D01*
G01X669036Y-121898D01*
G01X670930Y-124549D01*
G01X673203Y-127959D01*
G01X675097Y-131746D01*
G01X676612Y-135155D01*
G01X677749Y-138565D01*
G01X678506Y-141595D01*
G01X679264Y-147656D01*
G01X679642Y-151065D01*
G01X679264Y-155231D01*
G01X678506Y-160534D01*
G01X677370Y-166216D01*
G01X675854Y-170762D01*
G01X673961Y-174928D01*
G01X672067Y-177958D01*
G01X670551Y-180231D01*
G01X667521Y-184019D01*
G01X663733Y-187807D01*
G01X661082Y-190080D01*
G01X658430Y-191974D01*
G01X655779Y-193489D01*
G01X652748Y-195004D01*
G01X649718Y-196140D01*
G01X646309Y-197277D01*
G01X642142Y-198413D01*
G01X638354Y-199171D01*
G01X596309Y-199550D01*
G01X555400Y-199550D01*
G37*
G36*
G01X383999Y-199265D02*
G01X380779Y-198413D01*
G01X379642Y-195762D01*
G01X375097Y-182125D01*
G01X372824Y-174550D01*
G01X363733Y-147277D01*
G01X361461Y-139701D01*
G01X352370Y-112428D01*
G01X350097Y-104852D01*
G01X341006Y-77580D01*
G01X338733Y-70004D01*
G01X329642Y-42731D01*
G01X327370Y-35156D01*
G01X325097Y-28337D01*
G01X323961Y-24549D01*
G01X323582Y-22277D01*
G01X336839Y-22277D01*
G01X346877Y-22656D01*
G01X350476Y-23792D01*
G01X351612Y-26822D01*
G01X353885Y-34398D01*
G01X355021Y-37807D01*
G01X356158Y-41974D01*
G01X358809Y-49928D01*
G01X359567Y-52958D01*
G01X360703Y-56368D01*
G01X365249Y-71519D01*
G01X366385Y-74928D01*
G01X367521Y-79095D01*
G01X370173Y-87049D01*
G01X370930Y-90080D01*
G01X372067Y-93489D01*
G01X376612Y-108640D01*
G01X377748Y-112050D01*
G01X378885Y-116216D01*
G01X381536Y-124171D01*
G01X382294Y-127201D01*
G01X383430Y-130610D01*
G01X387976Y-145762D01*
G01X389112Y-149171D01*
G01X390248Y-153337D01*
G01X391764Y-157883D01*
G01X392521Y-159493D01*
G01X393279Y-159777D01*
G01X394415Y-158262D01*
G01X395173Y-155231D01*
G01X396309Y-151822D01*
G01X400855Y-136671D01*
G01X401991Y-133262D01*
G01X403127Y-129095D01*
G01X405779Y-121140D01*
G01X406536Y-118110D01*
G01X407673Y-114701D01*
G01X409945Y-107125D01*
G01X411082Y-103716D01*
G01X412218Y-99549D01*
G01X424339Y-60156D01*
G01X425476Y-56746D01*
G01X426233Y-53716D01*
G01X427370Y-50307D01*
G01X429642Y-42731D01*
G01X430779Y-39322D01*
G01X431915Y-35156D01*
G01X434567Y-27201D01*
G01X435324Y-24171D01*
G01X435703Y-22277D01*
G01X462218Y-22277D01*
G01X461839Y-24171D01*
G01X452748Y-51443D01*
G01X451612Y-55610D01*
G01X442521Y-82883D01*
G01X439491Y-92731D01*
G01X429264Y-123413D01*
G01X428506Y-126443D01*
G01X420551Y-150307D01*
G01X418279Y-157883D01*
G01X408051Y-188565D01*
G01X406915Y-192731D01*
G01X404642Y-199550D01*
G01X392900Y-199550D01*
G01X383999Y-199265D01*
G37*
G36*
G01X1178776Y-201822D02*
G01X1173094Y-201443D01*
G01X1168170Y-200686D01*
G01X1162109Y-199550D01*
G01X1156806Y-198034D01*
G01X1153018Y-196519D01*
G01X1149988Y-195004D01*
G01X1146579Y-193489D01*
G01X1143548Y-191595D01*
G01X1140897Y-190080D01*
G01X1139003Y-188565D01*
G01X1131427Y-180989D01*
G01X1129154Y-177958D01*
G01X1126882Y-174550D01*
G01X1124988Y-171519D01*
G01X1123094Y-167731D01*
G01X1121579Y-164322D01*
G01X1120442Y-160913D01*
G01X1119306Y-157125D01*
G01X1118170Y-152201D01*
G01X1117412Y-147656D01*
G01X1117033Y-113943D01*
G01X1117073Y-110155D01*
G01X1142033Y-110155D01*
G01X1142412Y-140837D01*
G01X1143170Y-146140D01*
G01X1143927Y-149928D01*
G01X1145063Y-154095D01*
G01X1146579Y-157504D01*
G01X1148094Y-160534D01*
G01X1149609Y-163186D01*
G01X1151503Y-165459D01*
G01X1156048Y-170004D01*
G01X1159458Y-172277D01*
G01X1162109Y-173792D01*
G01X1165518Y-175307D01*
G01X1168927Y-176443D01*
G01X1173473Y-176822D01*
G01X1173473Y-176822D01*
G01X1177260Y-177201D01*
G01X1180670Y-177201D01*
G01X1187109Y-176443D01*
G01X1192033Y-175307D01*
G01X1195442Y-173792D01*
G01X1198473Y-172277D01*
G01X1201503Y-170383D01*
G01X1204155Y-168110D01*
G01X1207942Y-164322D01*
G01X1209458Y-162428D01*
G01X1210973Y-159777D01*
G01X1212488Y-156746D01*
G01X1214003Y-152959D01*
G01X1215139Y-149171D01*
G01X1215897Y-143868D01*
G01X1216276Y-112807D01*
G01X1215897Y-81746D01*
G01X1215139Y-76443D01*
G01X1214382Y-72655D01*
G01X1213245Y-68489D01*
G01X1211730Y-65080D01*
G01X1209836Y-61292D01*
G01X1207942Y-58640D01*
G01X1206427Y-56746D01*
G01X1202639Y-52958D01*
G01X1200367Y-51065D01*
G01X1198094Y-49550D01*
G01X1195821Y-48413D01*
G01X1192791Y-47277D01*
G01X1189003Y-46140D01*
G01X1185594Y-45383D01*
G01X1180291Y-45004D01*
G01X1174988Y-45383D01*
G01X1172336Y-45762D01*
G01X1168170Y-46519D01*
G01X1163624Y-48034D01*
G01X1159836Y-49928D01*
G01X1157185Y-51822D01*
G01X1154912Y-53337D01*
G01X1152639Y-55231D01*
G01X1149609Y-59019D01*
G01X1147715Y-62049D01*
G01X1145821Y-65459D01*
G01X1144306Y-69625D01*
G01X1143170Y-73413D01*
G01X1142412Y-79474D01*
G01X1142033Y-110155D01*
G01X1117073Y-110155D01*
G01X1117412Y-77958D01*
G01X1118927Y-68868D01*
G01X1120064Y-63943D01*
G01X1121200Y-60534D01*
G01X1122336Y-57504D01*
G01X1124609Y-52201D01*
G01X1126124Y-49550D01*
G01X1128018Y-46519D01*
G01X1129912Y-43868D01*
G01X1132942Y-40080D01*
G01X1139382Y-33640D01*
G01X1143170Y-30989D01*
G01X1146579Y-28716D01*
G01X1149988Y-26822D01*
G01X1153397Y-25307D01*
G01X1160215Y-23034D01*
G01X1165139Y-21898D01*
G01X1169685Y-21140D01*
G01X1177260Y-20762D01*
G01X1186351Y-21140D01*
G01X1190897Y-21898D01*
G01X1194685Y-22656D01*
G01X1200745Y-24171D01*
G01X1204155Y-25307D01*
G01X1207563Y-26822D01*
G01X1211351Y-28716D01*
G01X1218170Y-33262D01*
G01X1220821Y-35534D01*
G01X1227639Y-42352D01*
G01X1229533Y-45004D01*
G01X1233321Y-51065D01*
G01X1234836Y-54095D01*
G01X1237109Y-59398D01*
G01X1238245Y-63186D01*
G01X1239382Y-66595D01*
G01X1240897Y-74928D01*
G01X1241276Y-110155D01*
G01X1240897Y-145383D01*
G01X1240139Y-149928D01*
G01X1239003Y-155989D01*
G01X1237488Y-160913D01*
G01X1235973Y-165080D01*
G01X1234457Y-168489D01*
G01X1232942Y-171519D01*
G01X1231427Y-173792D01*
G01X1230291Y-176065D01*
G01X1228776Y-178337D01*
G01X1224230Y-183640D01*
G01X1220442Y-187428D01*
G01X1218548Y-188943D01*
G01X1215897Y-190837D01*
G01X1212488Y-193110D01*
G01X1209079Y-195004D01*
G01X1206048Y-196519D01*
G01X1203018Y-197655D01*
G01X1199609Y-198792D01*
G01X1195442Y-199928D01*
G01X1191654Y-200686D01*
G01X1184079Y-201443D01*
G01X1178776Y-201822D01*
G37*
G36*
G01X1336730Y-201822D02*
G01X1328018Y-201443D01*
G01X1320442Y-199928D01*
G01X1317412Y-199171D01*
G01X1314003Y-198413D01*
G01X1310594Y-197277D01*
G01X1307942Y-196140D01*
G01X1304533Y-194625D01*
G01X1300745Y-192352D01*
G01X1295442Y-188565D01*
G01X1292791Y-186292D01*
G01X1289003Y-182504D01*
G01X1286730Y-179474D01*
G01X1282942Y-173792D01*
G01X1281427Y-171140D01*
G01X1279912Y-167352D01*
G01X1278397Y-163186D01*
G01X1277261Y-159777D01*
G01X1275745Y-152959D01*
G01X1274988Y-146140D01*
G01X1274609Y-83640D01*
G01X1274609Y-22277D01*
G01X1299609Y-22277D01*
G01X1299609Y-82504D01*
G01X1299988Y-145383D01*
G01X1300745Y-149171D01*
G01X1301503Y-152580D01*
G01X1302639Y-155989D01*
G01X1305670Y-162049D01*
G01X1307185Y-164322D01*
G01X1310215Y-168110D01*
G01X1312867Y-170383D01*
G01X1315518Y-172277D01*
G01X1318170Y-173792D01*
G01X1322336Y-175307D01*
G01X1325745Y-176443D01*
G01X1328397Y-176822D01*
G01X1333321Y-177201D01*
G01X1337867Y-177201D01*
G01X1345442Y-176443D01*
G01X1348851Y-175686D01*
G01X1352639Y-174550D01*
G01X1356049Y-173034D01*
G01X1358700Y-171519D01*
G01X1360594Y-170383D01*
G01X1362488Y-168868D01*
G01X1366276Y-165080D01*
G01X1368170Y-162428D01*
G01X1370064Y-159019D01*
G01X1371579Y-155610D01*
G01X1372715Y-152201D01*
G01X1373473Y-149171D01*
G01X1374230Y-143110D01*
G01X1374609Y-82125D01*
G01X1374609Y-22277D01*
G01X1398851Y-22277D01*
G01X1398851Y-82883D01*
G01X1398473Y-146140D01*
G01X1397715Y-151443D01*
G01X1396958Y-155231D01*
G01X1396200Y-158640D01*
G01X1395063Y-163186D01*
G01X1393548Y-166974D01*
G01X1392033Y-170383D01*
G01X1390518Y-173413D01*
G01X1388624Y-176443D01*
G01X1384836Y-181746D01*
G01X1382564Y-184398D01*
G01X1378776Y-188186D01*
G01X1376882Y-189701D01*
G01X1374230Y-191595D01*
G01X1371200Y-193489D01*
G01X1365139Y-196519D01*
G01X1362109Y-197655D01*
G01X1358700Y-198792D01*
G01X1354533Y-199928D01*
G01X1350745Y-200686D01*
G01X1344685Y-201443D01*
G01X1336730Y-201822D01*
G37*
G36*
G01X1466276Y-199550D02*
G01X1466276Y-45762D01*
G01X1416276Y-45762D01*
G01X1416276Y-22277D01*
G01X1541276Y-22277D01*
G01X1541276Y-45762D01*
G01X1491276Y-45762D01*
G01X1491276Y-199550D01*
G01X1466276Y-199550D01*
G37*
G36*
G01X1628397Y-199550D02*
G01X1628397Y-148034D01*
G01X1652639Y-148034D01*
G01X1653018Y-176443D01*
G01X1675745Y-176822D01*
G01X1699230Y-176443D01*
G01X1703776Y-175686D01*
G01X1709458Y-174550D01*
G01X1713245Y-173034D01*
G01X1716276Y-171519D01*
G01X1718548Y-169625D01*
G01X1722336Y-165837D01*
G01X1723851Y-163565D01*
G01X1724988Y-161292D01*
G01X1726124Y-158640D01*
G01X1726882Y-154853D01*
G01X1727261Y-151443D01*
G01X1727261Y-148034D01*
G01X1726503Y-142353D01*
G01X1725367Y-137428D01*
G01X1724230Y-134398D01*
G01X1723094Y-132125D01*
G01X1721579Y-129852D01*
G01X1719685Y-127580D01*
G01X1717791Y-125686D01*
G01X1715139Y-123792D01*
G01X1711730Y-122277D01*
G01X1707563Y-121140D01*
G01X1703776Y-120383D01*
G01X1677639Y-120004D01*
G01X1652639Y-120004D01*
G01X1652639Y-148034D01*
G01X1652639Y-148034D01*
G01X1628397Y-148034D01*
G01X1628397Y-71519D01*
G01X1652639Y-71519D01*
G01X1653018Y-97656D01*
G01X1674609Y-98034D01*
G01X1696957Y-97656D01*
G01X1699609Y-97277D01*
G01X1704533Y-96898D01*
G01X1709458Y-95762D01*
G01X1712488Y-94625D01*
G01X1714761Y-93489D01*
G01X1717033Y-91974D01*
G01X1719306Y-90080D01*
G01X1721200Y-87428D01*
G01X1723094Y-84019D01*
G01X1724230Y-80989D01*
G01X1724609Y-73034D01*
G01X1723851Y-63565D01*
G01X1722336Y-59398D01*
G01X1720821Y-56746D01*
G01X1719306Y-54474D01*
G01X1716654Y-51822D01*
G01X1713245Y-49550D01*
G01X1710215Y-48034D01*
G01X1706806Y-46898D01*
G01X1703776Y-46140D01*
G01X1677639Y-45762D01*
G01X1652639Y-45762D01*
G01X1652639Y-71519D01*
G01X1652639Y-71519D01*
G01X1628397Y-71519D01*
G01X1628397Y-22277D01*
G01X1664761Y-22277D01*
G01X1702260Y-22656D01*
G01X1709079Y-23413D01*
G01X1713624Y-24171D01*
G01X1718548Y-25307D01*
G01X1721958Y-26443D01*
G01X1724988Y-27580D01*
G01X1728018Y-29095D01*
G01X1731806Y-31368D01*
G01X1734836Y-33640D01*
G01X1738624Y-37428D01*
G01X1741655Y-41216D01*
G01X1743548Y-43868D01*
G01X1745064Y-46898D01*
G01X1746579Y-50307D01*
G01X1748094Y-55231D01*
G01X1749230Y-59019D01*
G01X1749609Y-68110D01*
G01X1749230Y-77201D01*
G01X1748473Y-80610D01*
G01X1747336Y-84398D01*
G01X1745821Y-87807D01*
G01X1743927Y-91595D01*
G01X1742033Y-94246D01*
G01X1740518Y-96519D01*
G01X1737867Y-99549D01*
G01X1734836Y-101822D01*
G01X1732185Y-103716D01*
G01X1729154Y-105231D01*
G01X1726503Y-106368D01*
G01X1723094Y-107504D01*
G01X1720442Y-108640D01*
G01X1721200Y-109777D01*
G01X1724609Y-110913D01*
G01X1728776Y-112428D01*
G01X1732564Y-114322D01*
G01X1736352Y-116974D01*
G01X1739382Y-119246D01*
G01X1741276Y-121140D01*
G01X1742791Y-123034D01*
G01X1745821Y-127580D01*
G01X1747336Y-130231D01*
G01X1748851Y-133640D01*
G01X1750367Y-137807D01*
G01X1751503Y-141595D01*
G01X1751882Y-145004D01*
G01X1752261Y-149171D01*
G01X1752261Y-152201D01*
G01X1751882Y-155610D01*
G01X1751503Y-160534D01*
G01X1750367Y-165837D01*
G01X1748851Y-170383D01*
G01X1747336Y-173792D01*
G01X1745821Y-176822D01*
G01X1742791Y-181368D01*
G01X1740897Y-183640D01*
G01X1736352Y-188186D01*
G01X1733321Y-190459D01*
G01X1731427Y-191974D01*
G01X1728776Y-193489D01*
G01X1725745Y-195004D01*
G01X1722715Y-196140D01*
G01X1719306Y-197277D01*
G01X1715139Y-198413D01*
G01X1711351Y-199171D01*
G01X1669306Y-199550D01*
G01X1628397Y-199550D01*
G37*
G36*
G01X-461537Y-199360D02*
G01X-464567Y-198792D01*
G01X-463430Y-195762D01*
G01X-457370Y-179095D01*
G01X-455855Y-175307D01*
G01X-454718Y-171898D01*
G01X-450173Y-159777D01*
G01X-449036Y-156368D01*
G01X-447521Y-152580D01*
G01X-441461Y-135913D01*
G01X-440855Y-134398D01*
G01X-416082Y-134398D01*
G01X-416082Y-137050D01*
G01X-388809Y-137428D01*
G01X-368733Y-137144D01*
G01X-362294Y-136292D01*
G01X-363052Y-133262D01*
G01X-364188Y-129852D01*
G01X-365703Y-126065D01*
G01X-371764Y-107883D01*
G01X-374794Y-99549D01*
G01X-380855Y-81368D01*
G01X-382370Y-77580D01*
G01X-388052Y-60534D01*
G01X-389188Y-58262D01*
G01X-389946Y-58546D01*
G01X-390703Y-60156D01*
G01X-392218Y-63943D01*
G01X-399037Y-84398D01*
G01X-401309Y-90459D01*
G01X-406991Y-107504D01*
G01X-409264Y-113565D01*
G01X-414946Y-130610D01*
G01X-416082Y-134398D01*
G01X-416082Y-134398D01*
G01X-440855Y-134398D01*
G01X-439946Y-132125D01*
G01X-438809Y-128716D01*
G01X-431991Y-110534D01*
G01X-430855Y-107125D01*
G01X-429339Y-103337D01*
G01X-423279Y-86671D01*
G01X-421764Y-82883D01*
G01X-420627Y-79474D01*
G01X-416082Y-67352D01*
G01X-414946Y-63943D01*
G01X-413430Y-60156D01*
G01X-407370Y-43489D01*
G01X-405855Y-39701D01*
G01X-404718Y-36292D01*
G01X-400173Y-24171D01*
G01X-399794Y-22277D01*
G01X-390324Y-22277D01*
G01X-379718Y-22656D01*
G01X-377824Y-24928D01*
G01X-373279Y-37428D01*
G01X-371764Y-41216D01*
G01X-370627Y-44625D01*
G01X-366082Y-56746D01*
G01X-364945Y-60156D01*
G01X-363430Y-63943D01*
G01X-357370Y-80610D01*
G01X-355854Y-84398D01*
G01X-354718Y-87807D01*
G01X-350173Y-99928D01*
G01X-349036Y-103337D01*
G01X-347521Y-107125D01*
G01X-341461Y-123792D01*
G01X-339945Y-127580D01*
G01X-338809Y-130989D01*
G01X-334264Y-143110D01*
G01X-333127Y-146519D01*
G01X-331612Y-150307D01*
G01X-325552Y-166974D01*
G01X-324036Y-170762D01*
G01X-322900Y-174171D01*
G01X-318355Y-186292D01*
G01X-317218Y-189701D01*
G01X-315703Y-193489D01*
G01X-314188Y-197655D01*
G01X-313430Y-199550D01*
G01X-326688Y-199550D01*
G01X-336820Y-199171D01*
G01X-340703Y-198034D01*
G01X-342218Y-194246D01*
G01X-346764Y-180610D01*
G01X-349794Y-172277D01*
G01X-353582Y-160913D01*
G01X-389188Y-160913D01*
G01X-416082Y-161197D01*
G01X-425552Y-162049D01*
G01X-427067Y-165459D01*
G01X-433127Y-183640D01*
G01X-434642Y-187428D01*
G01X-438052Y-197655D01*
G01X-438430Y-199550D01*
G01X-451688Y-199550D01*
G01X-461537Y-199360D01*
G37*
G36*
G01X-619680Y-199265D02*
G01X-622900Y-198413D01*
G01X-624036Y-195762D01*
G01X-628582Y-182125D01*
G01X-630855Y-174550D01*
G01X-639946Y-147277D01*
G01X-642218Y-139701D01*
G01X-651309Y-112428D01*
G01X-653582Y-104852D01*
G01X-662673Y-77580D01*
G01X-664946Y-70004D01*
G01X-674036Y-42731D01*
G01X-676309Y-35156D01*
G01X-678582Y-28337D01*
G01X-679718Y-24549D01*
G01X-680097Y-22277D01*
G01X-666839Y-22277D01*
G01X-656802Y-22656D01*
G01X-653203Y-23792D01*
G01X-652067Y-26822D01*
G01X-649794Y-34398D01*
G01X-648658Y-37807D01*
G01X-647521Y-41974D01*
G01X-644870Y-49928D01*
G01X-644112Y-52958D01*
G01X-642976Y-56368D01*
G01X-638430Y-71519D01*
G01X-637294Y-74928D01*
G01X-636158Y-79095D01*
G01X-633506Y-87049D01*
G01X-632749Y-90080D01*
G01X-631612Y-93489D01*
G01X-627067Y-108640D01*
G01X-625930Y-112050D01*
G01X-624794Y-116216D01*
G01X-622143Y-124171D01*
G01X-621385Y-127201D01*
G01X-620248Y-130610D01*
G01X-615703Y-145762D01*
G01X-614567Y-149171D01*
G01X-613430Y-153337D01*
G01X-611915Y-157883D01*
G01X-611158Y-159493D01*
G01X-610400Y-159777D01*
G01X-609264Y-158262D01*
G01X-608506Y-155231D01*
G01X-607370Y-151822D01*
G01X-602824Y-136671D01*
G01X-601688Y-133262D01*
G01X-600551Y-129095D01*
G01X-597900Y-121140D01*
G01X-597143Y-118110D01*
G01X-596006Y-114701D01*
G01X-593733Y-107125D01*
G01X-592597Y-103716D01*
G01X-591461Y-99549D01*
G01X-579339Y-60156D01*
G01X-578203Y-56746D01*
G01X-577446Y-53716D01*
G01X-576309Y-50307D01*
G01X-574036Y-42731D01*
G01X-572900Y-39322D01*
G01X-571764Y-35156D01*
G01X-569112Y-27201D01*
G01X-568355Y-24171D01*
G01X-567976Y-22277D01*
G01X-541461Y-22277D01*
G01X-541839Y-24171D01*
G01X-550930Y-51443D01*
G01X-552067Y-55610D01*
G01X-561158Y-82883D01*
G01X-564188Y-92731D01*
G01X-574415Y-123413D01*
G01X-575173Y-126443D01*
G01X-583127Y-150307D01*
G01X-585400Y-157883D01*
G01X-595627Y-188565D01*
G01X-596764Y-192731D01*
G01X-599036Y-199550D01*
G01X-610779Y-199550D01*
G01X-619680Y-199265D01*
G37*
G36*
G01X-758885Y-201822D02*
G01X-763809Y-201443D01*
G01X-766082Y-201065D01*
G01X-769112Y-200686D01*
G01X-773658Y-199928D01*
G01X-778582Y-198792D01*
G01X-781991Y-197655D01*
G01X-785021Y-196519D01*
G01X-788051Y-195004D01*
G01X-791461Y-193110D01*
G01X-794870Y-190837D01*
G01X-797521Y-188943D01*
G01X-799415Y-187428D01*
G01X-805097Y-181746D01*
G01X-808127Y-177958D01*
G01X-810021Y-174928D01*
G01X-812294Y-171140D01*
G01X-814188Y-167352D01*
G01X-815703Y-163944D01*
G01X-817976Y-156368D01*
G01X-819112Y-151443D01*
G01X-819870Y-146898D01*
G01X-820249Y-112807D01*
G01X-819870Y-78716D01*
G01X-819112Y-73413D01*
G01X-818355Y-69625D01*
G01X-817218Y-64701D01*
G01X-816082Y-61292D01*
G01X-815324Y-58640D01*
G01X-814188Y-55989D01*
G01X-810779Y-49171D01*
G01X-808885Y-46140D01*
G01X-804339Y-40080D01*
G01X-797900Y-33640D01*
G01X-794112Y-30989D01*
G01X-790703Y-28716D01*
G01X-787294Y-26822D01*
G01X-783885Y-25307D01*
G01X-777067Y-23034D01*
G01X-772521Y-21898D01*
G01X-768355Y-21140D01*
G01X-761536Y-20762D01*
G01X-752446Y-21140D01*
G01X-747900Y-21898D01*
G01X-745248Y-22277D01*
G01X-742218Y-23034D01*
G01X-738809Y-24171D01*
G01X-735779Y-25307D01*
G01X-733127Y-26443D01*
G01X-729718Y-27959D01*
G01X-725930Y-30231D01*
G01X-723279Y-32125D01*
G01X-721385Y-33262D01*
G01X-719491Y-34777D01*
G01X-713809Y-40459D01*
G01X-710779Y-44247D01*
G01X-708506Y-46898D01*
G01X-706233Y-50307D01*
G01X-704339Y-53716D01*
G01X-702824Y-56746D01*
G01X-699415Y-65837D01*
G01X-698279Y-70383D01*
G01X-697521Y-73034D01*
G01X-723279Y-73034D01*
G01X-724036Y-70762D01*
G01X-725551Y-66974D01*
G01X-727067Y-63943D01*
G01X-728961Y-60913D01*
G01X-730855Y-58262D01*
G01X-734642Y-54474D01*
G01X-738430Y-51443D01*
G01X-741082Y-49550D01*
G01X-744112Y-48034D01*
G01X-747900Y-46519D01*
G01X-751688Y-45383D01*
G01X-757749Y-45004D01*
G01X-764567Y-45383D01*
G01X-768355Y-46140D01*
G01X-772521Y-47277D01*
G01X-775930Y-48792D01*
G01X-778203Y-49928D01*
G01X-781991Y-52958D01*
G01X-783885Y-54853D01*
G01X-787673Y-59398D01*
G01X-789567Y-62428D01*
G01X-791082Y-65459D01*
G01X-792218Y-68489D01*
G01X-793355Y-71898D01*
G01X-794112Y-74928D01*
G01X-794870Y-80989D01*
G01X-795249Y-110155D01*
G01X-794870Y-139322D01*
G01X-794491Y-141974D01*
G01X-794112Y-145383D01*
G01X-793355Y-149171D01*
G01X-792218Y-153337D01*
G01X-790703Y-157504D01*
G01X-788809Y-160913D01*
G01X-786536Y-164322D01*
G01X-784264Y-166974D01*
G01X-780476Y-170762D01*
G01X-778582Y-172277D01*
G01X-775930Y-173792D01*
G01X-772521Y-175307D01*
G01X-768733Y-176443D01*
G01X-765324Y-177201D01*
G01X-760400Y-177580D01*
G01X-755476Y-177201D01*
G01X-751309Y-176443D01*
G01X-746764Y-175307D01*
G01X-743355Y-173792D01*
G01X-739567Y-171898D01*
G01X-736915Y-170004D01*
G01X-734642Y-168489D01*
G01X-731612Y-165837D01*
G01X-728582Y-162049D01*
G01X-726309Y-158262D01*
G01X-724794Y-154853D01*
G01X-723279Y-151065D01*
G01X-722521Y-148792D01*
G01X-710400Y-148792D01*
G01X-698279Y-149171D01*
G01X-698658Y-151822D01*
G01X-699415Y-155231D01*
G01X-700552Y-158640D01*
G01X-702067Y-162807D01*
G01X-703582Y-166595D01*
G01X-705476Y-170383D01*
G01X-707749Y-173792D01*
G01X-709264Y-176443D01*
G01X-710779Y-178337D01*
G01X-712673Y-180231D01*
G01X-715703Y-184019D01*
G01X-717597Y-185913D01*
G01X-723279Y-190459D01*
G01X-727824Y-193489D01*
G01X-730476Y-195004D01*
G01X-733885Y-196519D01*
G01X-739945Y-198792D01*
G01X-743733Y-199928D01*
G01X-747143Y-200686D01*
G01X-753203Y-201443D01*
G01X-758885Y-201822D01*
G37*
G36*
G01X-1394761Y-199243D02*
G01X-1397791Y-198391D01*
G01X-1396655Y-195361D01*
G01X-1392109Y-182861D01*
G01X-1390594Y-179073D01*
G01X-1389458Y-175664D01*
G01X-1384912Y-163542D01*
G01X-1383776Y-160134D01*
G01X-1382261Y-156346D01*
G01X-1379230Y-148012D01*
G01X-1377715Y-144224D01*
G01X-1376579Y-140815D01*
G01X-1375158Y-137027D01*
G01X-1350064Y-137027D01*
G01X-1322412Y-137406D01*
G01X-1302052Y-137217D01*
G01X-1295518Y-136649D01*
G01X-1296276Y-133997D01*
G01X-1301958Y-116952D01*
G01X-1304230Y-110891D01*
G01X-1311048Y-90436D01*
G01X-1313321Y-84376D01*
G01X-1319003Y-67330D01*
G01X-1321276Y-61270D01*
G01X-1321939Y-60039D01*
G01X-1323170Y-60133D01*
G01X-1324401Y-61175D01*
G01X-1325064Y-62785D01*
G01X-1328473Y-73012D01*
G01X-1330745Y-79073D01*
G01X-1337564Y-99527D01*
G01X-1339079Y-103315D01*
G01X-1345139Y-121497D01*
G01X-1348170Y-129830D01*
G01X-1349685Y-134376D01*
G01X-1349685Y-134376D01*
G01X-1350064Y-137027D01*
G01X-1375158Y-137027D01*
G01X-1372033Y-128694D01*
G01X-1370897Y-125285D01*
G01X-1369382Y-121497D01*
G01X-1363321Y-104830D01*
G01X-1361806Y-101042D01*
G01X-1360670Y-97634D01*
G01X-1356124Y-85512D01*
G01X-1354988Y-82103D01*
G01X-1353473Y-78315D01*
G01X-1347412Y-61649D01*
G01X-1345897Y-57861D01*
G01X-1344761Y-54452D01*
G01X-1340215Y-42330D01*
G01X-1339079Y-38921D01*
G01X-1336806Y-32861D01*
G01X-1335291Y-29073D01*
G01X-1333018Y-22255D01*
G01X-1311806Y-22255D01*
G01X-1311427Y-24149D01*
G01X-1310291Y-27558D01*
G01X-1308776Y-31346D01*
G01X-1302715Y-48012D01*
G01X-1301200Y-51800D01*
G01X-1300064Y-55209D01*
G01X-1295518Y-67330D01*
G01X-1294382Y-70740D01*
G01X-1292867Y-74527D01*
G01X-1286806Y-91194D01*
G01X-1285291Y-94982D01*
G01X-1284155Y-98391D01*
G01X-1279609Y-110512D01*
G01X-1278473Y-113921D01*
G01X-1276958Y-117709D01*
G01X-1270897Y-134376D01*
G01X-1269382Y-138164D01*
G01X-1268245Y-141573D01*
G01X-1263700Y-153694D01*
G01X-1262564Y-157103D01*
G01X-1260291Y-163164D01*
G01X-1258776Y-166952D01*
G01X-1252715Y-183618D01*
G01X-1251200Y-187406D01*
G01X-1250064Y-190815D01*
G01X-1248927Y-193845D01*
G01X-1247791Y-197255D01*
G01X-1247412Y-199527D01*
G01X-1260291Y-199527D01*
G01X-1270139Y-199149D01*
G01X-1273927Y-198012D01*
G01X-1275442Y-194224D01*
G01X-1276958Y-189679D01*
G01X-1278473Y-185891D01*
G01X-1285291Y-165437D01*
G01X-1286427Y-162406D01*
G01X-1295518Y-161270D01*
G01X-1322033Y-160891D01*
G01X-1358397Y-161649D01*
G01X-1359912Y-164300D01*
G01X-1362185Y-171118D01*
G01X-1364458Y-177179D01*
G01X-1371276Y-197633D01*
G01X-1371655Y-199527D01*
G01X-1384912Y-199527D01*
G01X-1394761Y-199243D01*
G37*
G36*
G01X-1831124Y-201800D02*
G01X-1836806Y-201421D01*
G01X-1841730Y-200664D01*
G01X-1847791Y-199527D01*
G01X-1853094Y-198012D01*
G01X-1856882Y-196497D01*
G01X-1859912Y-194982D01*
G01X-1863321Y-193467D01*
G01X-1866352Y-191573D01*
G01X-1869003Y-190058D01*
G01X-1870897Y-188542D01*
G01X-1878473Y-180967D01*
G01X-1880746Y-177936D01*
G01X-1883018Y-174527D01*
G01X-1884912Y-171497D01*
G01X-1886806Y-167709D01*
G01X-1888321Y-164300D01*
G01X-1889458Y-160891D01*
G01X-1890594Y-157103D01*
G01X-1891730Y-152179D01*
G01X-1892488Y-147633D01*
G01X-1892867Y-113921D01*
G01X-1892827Y-110133D01*
G01X-1867867Y-110133D01*
G01X-1867488Y-140815D01*
G01X-1866730Y-146118D01*
G01X-1865973Y-149906D01*
G01X-1864837Y-154073D01*
G01X-1863321Y-157482D01*
G01X-1861806Y-160512D01*
G01X-1860291Y-163164D01*
G01X-1858397Y-165437D01*
G01X-1853852Y-169982D01*
G01X-1850442Y-172255D01*
G01X-1847791Y-173770D01*
G01X-1844382Y-175285D01*
G01X-1840973Y-176421D01*
G01X-1836427Y-176800D01*
G01X-1836427Y-176800D01*
G01X-1832640Y-177179D01*
G01X-1829230Y-177179D01*
G01X-1822791Y-176421D01*
G01X-1817867Y-175285D01*
G01X-1814458Y-173770D01*
G01X-1811427Y-172255D01*
G01X-1808397Y-170361D01*
G01X-1805745Y-168088D01*
G01X-1801958Y-164300D01*
G01X-1800442Y-162406D01*
G01X-1798927Y-159755D01*
G01X-1797412Y-156724D01*
G01X-1795897Y-152936D01*
G01X-1794761Y-149149D01*
G01X-1794003Y-143846D01*
G01X-1793624Y-112785D01*
G01X-1794003Y-81724D01*
G01X-1794761Y-76421D01*
G01X-1795518Y-72633D01*
G01X-1796655Y-68467D01*
G01X-1798170Y-65058D01*
G01X-1800064Y-61270D01*
G01X-1801958Y-58618D01*
G01X-1803473Y-56724D01*
G01X-1807261Y-52936D01*
G01X-1809533Y-51043D01*
G01X-1811806Y-49527D01*
G01X-1814079Y-48391D01*
G01X-1817109Y-47255D01*
G01X-1820897Y-46118D01*
G01X-1824306Y-45361D01*
G01X-1829609Y-44982D01*
G01X-1834912Y-45361D01*
G01X-1837564Y-45740D01*
G01X-1841730Y-46497D01*
G01X-1846276Y-48012D01*
G01X-1850064Y-49906D01*
G01X-1852715Y-51800D01*
G01X-1854988Y-53315D01*
G01X-1857261Y-55209D01*
G01X-1860291Y-58997D01*
G01X-1862185Y-62027D01*
G01X-1864079Y-65436D01*
G01X-1865594Y-69603D01*
G01X-1866730Y-73391D01*
G01X-1867488Y-79452D01*
G01X-1867867Y-110133D01*
G01X-1892827Y-110133D01*
G01X-1892488Y-77936D01*
G01X-1890973Y-68845D01*
G01X-1889836Y-63921D01*
G01X-1888700Y-60512D01*
G01X-1887564Y-57482D01*
G01X-1885291Y-52179D01*
G01X-1883776Y-49527D01*
G01X-1881882Y-46497D01*
G01X-1879988Y-43845D01*
G01X-1876958Y-40058D01*
G01X-1870518Y-33618D01*
G01X-1866730Y-30967D01*
G01X-1863321Y-28694D01*
G01X-1859912Y-26800D01*
G01X-1856503Y-25285D01*
G01X-1849685Y-23012D01*
G01X-1844761Y-21876D01*
G01X-1840215Y-21118D01*
G01X-1832640Y-20740D01*
G01X-1823549Y-21118D01*
G01X-1819003Y-21876D01*
G01X-1815215Y-22633D01*
G01X-1809155Y-24149D01*
G01X-1805745Y-25285D01*
G01X-1802337Y-26800D01*
G01X-1798549Y-28694D01*
G01X-1791730Y-33239D01*
G01X-1789079Y-35512D01*
G01X-1782261Y-42330D01*
G01X-1780367Y-44982D01*
G01X-1776579Y-51043D01*
G01X-1775064Y-54073D01*
G01X-1772791Y-59376D01*
G01X-1771655Y-63164D01*
G01X-1770518Y-66573D01*
G01X-1769003Y-74906D01*
G01X-1768624Y-110133D01*
G01X-1769003Y-145361D01*
G01X-1769761Y-149906D01*
G01X-1770897Y-155967D01*
G01X-1772412Y-160891D01*
G01X-1773927Y-165058D01*
G01X-1775443Y-168467D01*
G01X-1776958Y-171497D01*
G01X-1778473Y-173770D01*
G01X-1779609Y-176043D01*
G01X-1781124Y-178315D01*
G01X-1785670Y-183618D01*
G01X-1789458Y-187406D01*
G01X-1791352Y-188921D01*
G01X-1794003Y-190815D01*
G01X-1797412Y-193088D01*
G01X-1800821Y-194982D01*
G01X-1803852Y-196497D01*
G01X-1806882Y-197633D01*
G01X-1810291Y-198770D01*
G01X-1814458Y-199906D01*
G01X-1818246Y-200664D01*
G01X-1825821Y-201421D01*
G01X-1831124Y-201800D01*
G37*
G36*
G01X-1673170Y-201800D02*
G01X-1681882Y-201421D01*
G01X-1689458Y-199906D01*
G01X-1692488Y-199149D01*
G01X-1695897Y-198391D01*
G01X-1699306Y-197255D01*
G01X-1701958Y-196118D01*
G01X-1705367Y-194603D01*
G01X-1709155Y-192330D01*
G01X-1714458Y-188542D01*
G01X-1717109Y-186270D01*
G01X-1720897Y-182482D01*
G01X-1723170Y-179452D01*
G01X-1726958Y-173770D01*
G01X-1728473Y-171118D01*
G01X-1729988Y-167330D01*
G01X-1731503Y-163164D01*
G01X-1732639Y-159755D01*
G01X-1734155Y-152936D01*
G01X-1734912Y-146118D01*
G01X-1735291Y-83618D01*
G01X-1735291Y-22255D01*
G01X-1710291Y-22255D01*
G01X-1710291Y-82482D01*
G01X-1709912Y-145361D01*
G01X-1709155Y-149149D01*
G01X-1708397Y-152558D01*
G01X-1707261Y-155967D01*
G01X-1704230Y-162027D01*
G01X-1702715Y-164300D01*
G01X-1699685Y-168088D01*
G01X-1697033Y-170361D01*
G01X-1694382Y-172255D01*
G01X-1691730Y-173770D01*
G01X-1687564Y-175285D01*
G01X-1684155Y-176421D01*
G01X-1681503Y-176800D01*
G01X-1676579Y-177179D01*
G01X-1672033Y-177179D01*
G01X-1664458Y-176421D01*
G01X-1661049Y-175664D01*
G01X-1657261Y-174527D01*
G01X-1653851Y-173012D01*
G01X-1651200Y-171497D01*
G01X-1649306Y-170361D01*
G01X-1647412Y-168845D01*
G01X-1643624Y-165058D01*
G01X-1641730Y-162406D01*
G01X-1639836Y-158997D01*
G01X-1638321Y-155588D01*
G01X-1637185Y-152179D01*
G01X-1636427Y-149149D01*
G01X-1635670Y-143088D01*
G01X-1635291Y-82103D01*
G01X-1635291Y-22255D01*
G01X-1611049Y-22255D01*
G01X-1611049Y-82861D01*
G01X-1611427Y-146118D01*
G01X-1612185Y-151421D01*
G01X-1612942Y-155209D01*
G01X-1613700Y-158618D01*
G01X-1614837Y-163164D01*
G01X-1616352Y-166952D01*
G01X-1617867Y-170361D01*
G01X-1619382Y-173391D01*
G01X-1621276Y-176421D01*
G01X-1625064Y-181724D01*
G01X-1627336Y-184376D01*
G01X-1631124Y-188164D01*
G01X-1633018Y-189679D01*
G01X-1635670Y-191573D01*
G01X-1638700Y-193467D01*
G01X-1644761Y-196497D01*
G01X-1647791Y-197633D01*
G01X-1651200Y-198770D01*
G01X-1655367Y-199906D01*
G01X-1659155Y-200664D01*
G01X-1665215Y-201421D01*
G01X-1673170Y-201800D01*
G37*
G36*
G01X-1543624Y-199527D02*
G01X-1543624Y-45740D01*
G01X-1593624Y-45740D01*
G01X-1593624Y-22255D01*
G01X-1468624Y-22255D01*
G01X-1468624Y-45740D01*
G01X-1518624Y-45740D01*
G01X-1518624Y-199527D01*
G01X-1543624Y-199527D01*
G37*
G36*
G01X-1326200Y-1719527D02*
G01X-1325064Y-1717255D01*
G01X-1323170Y-1712709D01*
G01X-1321654Y-1708921D01*
G01X-1320518Y-1705512D01*
G01X-1315973Y-1693391D01*
G01X-1314836Y-1689982D01*
G01X-1313321Y-1686194D01*
G01X-1307261Y-1669527D01*
G01X-1305745Y-1665740D01*
G01X-1304609Y-1662330D01*
G01X-1301768Y-1654755D01*
G01X-1277336Y-1654755D01*
G01X-1277336Y-1657027D01*
G01X-1249685Y-1657406D01*
G01X-1222412Y-1657406D01*
G01X-1223170Y-1655133D01*
G01X-1224685Y-1651345D01*
G01X-1231503Y-1630891D01*
G01X-1233776Y-1624830D01*
G01X-1240594Y-1604376D01*
G01X-1242867Y-1598315D01*
G01X-1248548Y-1581270D01*
G01X-1249685Y-1578618D01*
G01X-1250443Y-1578334D01*
G01X-1251200Y-1578997D01*
G01X-1252336Y-1582027D01*
G01X-1258018Y-1599073D01*
G01X-1260291Y-1605133D01*
G01X-1265973Y-1622179D01*
G01X-1268245Y-1628240D01*
G01X-1275064Y-1648694D01*
G01X-1277336Y-1654755D01*
G01X-1277336Y-1654755D01*
G01X-1301768Y-1654755D01*
G01X-1300064Y-1650209D01*
G01X-1298927Y-1646800D01*
G01X-1297412Y-1643012D01*
G01X-1291351Y-1626345D01*
G01X-1289836Y-1622558D01*
G01X-1288700Y-1619149D01*
G01X-1284155Y-1607027D01*
G01X-1283018Y-1603618D01*
G01X-1281503Y-1599830D01*
G01X-1275442Y-1583164D01*
G01X-1273927Y-1579376D01*
G01X-1272791Y-1575967D01*
G01X-1268245Y-1563845D01*
G01X-1267109Y-1560437D01*
G01X-1265594Y-1556649D01*
G01X-1261049Y-1544149D01*
G01X-1260291Y-1542255D01*
G01X-1251579Y-1542255D01*
G01X-1240973Y-1542633D01*
G01X-1239458Y-1543391D01*
G01X-1238700Y-1544906D01*
G01X-1234155Y-1557027D01*
G01X-1233018Y-1560437D01*
G01X-1231503Y-1564224D01*
G01X-1225443Y-1580891D01*
G01X-1223927Y-1584679D01*
G01X-1222791Y-1588088D01*
G01X-1218245Y-1600209D01*
G01X-1217109Y-1603618D01*
G01X-1215594Y-1607406D01*
G01X-1209533Y-1624073D01*
G01X-1208018Y-1627861D01*
G01X-1206882Y-1631270D01*
G01X-1200064Y-1649452D01*
G01X-1198927Y-1652861D01*
G01X-1197412Y-1656649D01*
G01X-1191351Y-1673315D01*
G01X-1189836Y-1677103D01*
G01X-1188700Y-1680512D01*
G01X-1184155Y-1692633D01*
G01X-1183018Y-1696043D01*
G01X-1180745Y-1702103D01*
G01X-1179230Y-1705891D01*
G01X-1177715Y-1710437D01*
G01X-1176200Y-1714224D01*
G01X-1175064Y-1717633D01*
G01X-1174685Y-1719527D01*
G01X-1201200Y-1719527D01*
G01X-1206503Y-1703618D01*
G01X-1208018Y-1699830D01*
G01X-1213700Y-1682785D01*
G01X-1214079Y-1680891D01*
G01X-1248548Y-1680891D01*
G01X-1284912Y-1681270D01*
G01X-1286427Y-1682027D01*
G01X-1287185Y-1683542D01*
G01X-1291730Y-1697179D01*
G01X-1294003Y-1703239D01*
G01X-1297412Y-1713467D01*
G01X-1298549Y-1717255D01*
G01X-1298927Y-1719527D01*
G01X-1326200Y-1719527D01*
G37*
G36*
G01X-1903473Y-1721800D02*
G01X-1909533Y-1721421D01*
G01X-1914458Y-1720664D01*
G01X-1920518Y-1719527D01*
G01X-1924306Y-1718391D01*
G01X-1927337Y-1717633D01*
G01X-1930367Y-1716497D01*
G01X-1936427Y-1713467D01*
G01X-1939458Y-1711573D01*
G01X-1943246Y-1708921D01*
G01X-1946276Y-1706649D01*
G01X-1951958Y-1700967D01*
G01X-1953473Y-1699073D01*
G01X-1955367Y-1696421D01*
G01X-1957639Y-1692633D01*
G01X-1961049Y-1685815D01*
G01X-1962185Y-1682406D01*
G01X-1963321Y-1678618D01*
G01X-1964458Y-1674073D01*
G01X-1965215Y-1669906D01*
G01X-1965594Y-1634300D01*
G01X-1965215Y-1598694D01*
G01X-1964458Y-1593391D01*
G01X-1963700Y-1589603D01*
G01X-1962564Y-1584679D01*
G01X-1961427Y-1581270D01*
G01X-1960670Y-1578618D01*
G01X-1959533Y-1575967D01*
G01X-1956503Y-1569906D01*
G01X-1954609Y-1566876D01*
G01X-1951958Y-1563088D01*
G01X-1949685Y-1560058D01*
G01X-1943246Y-1553618D01*
G01X-1939458Y-1550967D01*
G01X-1936048Y-1548694D01*
G01X-1932640Y-1546800D01*
G01X-1929230Y-1545285D01*
G01X-1922412Y-1543012D01*
G01X-1917488Y-1541876D01*
G01X-1912943Y-1541118D01*
G01X-1905745Y-1540740D01*
G01X-1897033Y-1541118D01*
G01X-1889458Y-1542633D01*
G01X-1884533Y-1543770D01*
G01X-1880367Y-1545285D01*
G01X-1874306Y-1548315D01*
G01X-1870897Y-1550209D01*
G01X-1868245Y-1551724D01*
G01X-1866352Y-1553239D01*
G01X-1861806Y-1557027D01*
G01X-1858018Y-1560815D01*
G01X-1854988Y-1564603D01*
G01X-1853094Y-1567255D01*
G01X-1850821Y-1570664D01*
G01X-1847412Y-1577482D01*
G01X-1845897Y-1580891D01*
G01X-1843245Y-1588845D01*
G01X-1842867Y-1591497D01*
G01X-1845992Y-1592633D01*
G01X-1855367Y-1593012D01*
G01X-1869003Y-1592255D01*
G01X-1870518Y-1589603D01*
G01X-1871655Y-1586573D01*
G01X-1873170Y-1583542D01*
G01X-1874685Y-1580891D01*
G01X-1876200Y-1578618D01*
G01X-1878094Y-1576346D01*
G01X-1881882Y-1572558D01*
G01X-1883776Y-1571043D01*
G01X-1886427Y-1569527D01*
G01X-1889458Y-1568012D01*
G01X-1893245Y-1566497D01*
G01X-1897033Y-1565361D01*
G01X-1903473Y-1564982D01*
G01X-1909912Y-1565361D01*
G01X-1912564Y-1565740D01*
G01X-1915594Y-1566497D01*
G01X-1919003Y-1568012D01*
G01X-1922791Y-1569906D01*
G01X-1925442Y-1571800D01*
G01X-1927337Y-1573315D01*
G01X-1931124Y-1577103D01*
G01X-1933018Y-1579376D01*
G01X-1934912Y-1582406D01*
G01X-1936427Y-1585437D01*
G01X-1937564Y-1588467D01*
G01X-1938700Y-1591876D01*
G01X-1939458Y-1594906D01*
G01X-1940215Y-1600967D01*
G01X-1940594Y-1631649D01*
G01X-1940215Y-1663088D01*
G01X-1939458Y-1668391D01*
G01X-1938321Y-1673315D01*
G01X-1936806Y-1677103D01*
G01X-1934912Y-1680891D01*
G01X-1933397Y-1683542D01*
G01X-1931882Y-1685437D01*
G01X-1928094Y-1689224D01*
G01X-1925064Y-1691497D01*
G01X-1921276Y-1693770D01*
G01X-1917867Y-1695285D01*
G01X-1913700Y-1696421D01*
G01X-1909912Y-1697179D01*
G01X-1904609Y-1697558D01*
G01X-1898549Y-1697179D01*
G01X-1894003Y-1696421D01*
G01X-1889836Y-1695285D01*
G01X-1886427Y-1693770D01*
G01X-1882639Y-1691876D01*
G01X-1879988Y-1689982D01*
G01X-1878094Y-1688467D01*
G01X-1875443Y-1685815D01*
G01X-1873170Y-1682785D01*
G01X-1871655Y-1680512D01*
G01X-1870140Y-1677482D01*
G01X-1868624Y-1673315D01*
G01X-1867488Y-1669906D01*
G01X-1866730Y-1664603D01*
G01X-1866352Y-1655891D01*
G01X-1866352Y-1648315D01*
G01X-1901958Y-1648315D01*
G01X-1901958Y-1624073D01*
G01X-1873170Y-1624073D01*
G01X-1842488Y-1624452D01*
G01X-1840594Y-1624830D01*
G01X-1840594Y-1639603D01*
G01X-1840973Y-1655512D01*
G01X-1841352Y-1659679D01*
G01X-1841730Y-1666118D01*
G01X-1842488Y-1670664D01*
G01X-1843245Y-1674073D01*
G01X-1844382Y-1678618D01*
G01X-1845518Y-1682027D01*
G01X-1846655Y-1685058D01*
G01X-1848170Y-1688467D01*
G01X-1849685Y-1691497D01*
G01X-1851200Y-1693770D01*
G01X-1852336Y-1696043D01*
G01X-1853852Y-1698315D01*
G01X-1858397Y-1703618D01*
G01X-1862942Y-1708164D01*
G01X-1866730Y-1710815D01*
G01X-1870140Y-1713088D01*
G01X-1873548Y-1714982D01*
G01X-1876579Y-1716497D01*
G01X-1879609Y-1717633D01*
G01X-1883018Y-1718770D01*
G01X-1887185Y-1719906D01*
G01X-1890973Y-1720664D01*
G01X-1897791Y-1721421D01*
G01X-1903473Y-1721800D01*
G37*
G36*
G01X-1824685Y-1719527D02*
G01X-1823927Y-1717633D01*
G01X-1822412Y-1714224D01*
G01X-1821276Y-1710815D01*
G01X-1816730Y-1698694D01*
G01X-1815594Y-1695285D01*
G01X-1814079Y-1691497D01*
G01X-1808018Y-1674831D01*
G01X-1806503Y-1671043D01*
G01X-1805367Y-1667633D01*
G01X-1800821Y-1655512D01*
G01X-1800442Y-1654376D01*
G01X-1775821Y-1654376D01*
G01X-1775821Y-1657027D01*
G01X-1748548Y-1657406D01*
G01X-1721655Y-1657406D01*
G01X-1722033Y-1655891D01*
G01X-1723170Y-1652103D01*
G01X-1729230Y-1633921D01*
G01X-1730746Y-1630133D01*
G01X-1737564Y-1609679D01*
G01X-1739837Y-1603618D01*
G01X-1745518Y-1586573D01*
G01X-1747791Y-1580512D01*
G01X-1748927Y-1578239D01*
G01X-1749685Y-1578524D01*
G01X-1750443Y-1580133D01*
G01X-1754988Y-1593770D01*
G01X-1758018Y-1602103D01*
G01X-1764079Y-1620285D01*
G01X-1765594Y-1624073D01*
G01X-1772412Y-1644527D01*
G01X-1774685Y-1650588D01*
G01X-1775821Y-1654376D01*
G01X-1775821Y-1654376D01*
G01X-1800442Y-1654376D01*
G01X-1799685Y-1652103D01*
G01X-1797412Y-1646042D01*
G01X-1795897Y-1642255D01*
G01X-1789836Y-1625588D01*
G01X-1788321Y-1621800D01*
G01X-1787185Y-1618391D01*
G01X-1782640Y-1606270D01*
G01X-1781503Y-1602861D01*
G01X-1779988Y-1599073D01*
G01X-1773927Y-1582406D01*
G01X-1772412Y-1578618D01*
G01X-1771276Y-1575209D01*
G01X-1766730Y-1563088D01*
G01X-1765594Y-1559679D01*
G01X-1761049Y-1547558D01*
G01X-1759912Y-1544149D01*
G01X-1759533Y-1542255D01*
G01X-1738321Y-1542255D01*
G01X-1737564Y-1544527D01*
G01X-1734533Y-1552861D01*
G01X-1733018Y-1556649D01*
G01X-1731882Y-1560058D01*
G01X-1727336Y-1572179D01*
G01X-1726200Y-1575588D01*
G01X-1724685Y-1579376D01*
G01X-1718624Y-1596043D01*
G01X-1717109Y-1599830D01*
G01X-1715973Y-1603240D01*
G01X-1711427Y-1615361D01*
G01X-1710291Y-1618770D01*
G01X-1708776Y-1622558D01*
G01X-1702715Y-1639224D01*
G01X-1701200Y-1643012D01*
G01X-1700064Y-1646421D01*
G01X-1695518Y-1658543D01*
G01X-1694382Y-1661952D01*
G01X-1692867Y-1665740D01*
G01X-1686806Y-1682406D01*
G01X-1685291Y-1686194D01*
G01X-1684155Y-1689603D01*
G01X-1679609Y-1701724D01*
G01X-1678473Y-1705133D01*
G01X-1676958Y-1708921D01*
G01X-1673927Y-1717255D01*
G01X-1673170Y-1719527D01*
G01X-1684912Y-1719527D01*
G01X-1698549Y-1719149D01*
G01X-1700064Y-1718391D01*
G01X-1700821Y-1716876D01*
G01X-1703094Y-1710058D01*
G01X-1705367Y-1703997D01*
G01X-1711049Y-1686952D01*
G01X-1712185Y-1683164D01*
G01X-1712564Y-1680891D01*
G01X-1748548Y-1680891D01*
G01X-1775726Y-1681175D01*
G01X-1785291Y-1682027D01*
G01X-1786427Y-1685058D01*
G01X-1789836Y-1695285D01*
G01X-1791352Y-1699073D01*
G01X-1798170Y-1719527D01*
G01X-1824685Y-1719527D01*
G37*
G36*
G01X-1625443Y-1719527D02*
G01X-1625443Y-1565740D01*
G01X-1675442Y-1565740D01*
G01X-1675442Y-1542255D01*
G01X-1550442Y-1542255D01*
G01X-1550442Y-1565740D01*
G01X-1600443Y-1565740D01*
G01X-1600443Y-1719527D01*
G01X-1625443Y-1719527D01*
G37*
G36*
G01X-1525442Y-1719527D02*
G01X-1525442Y-1542255D01*
G01X-1411806Y-1542255D01*
G01X-1411806Y-1565740D01*
G01X-1500443Y-1565740D01*
G01X-1500443Y-1620285D01*
G01X-1425442Y-1620285D01*
G01X-1425442Y-1643770D01*
G01X-1500443Y-1643770D01*
G01X-1500443Y-1696043D01*
G01X-1411806Y-1696043D01*
G01X-1411806Y-1719527D01*
G01X-1525442Y-1719527D01*
G37*
G36*
G01X202524Y-1719527D02*
G01X202524Y-1668012D01*
G01X226767Y-1668012D01*
G01X227145Y-1696421D01*
G01X249115Y-1696800D01*
G01X273358Y-1696421D01*
G01X277903Y-1695664D01*
G01X283964Y-1694149D01*
G01X286994Y-1693012D01*
G01X290024Y-1691497D01*
G01X292676Y-1689603D01*
G01X296464Y-1685815D01*
G01X297979Y-1683542D01*
G01X299115Y-1680891D01*
G01X300251Y-1677861D01*
G01X301009Y-1669906D01*
G01X300251Y-1660815D01*
G01X299115Y-1657027D01*
G01X297979Y-1653997D01*
G01X296085Y-1650588D01*
G01X294191Y-1647937D01*
G01X292297Y-1646042D01*
G01X289645Y-1644149D01*
G01X285857Y-1642255D01*
G01X282449Y-1641118D01*
G01X277145Y-1640361D01*
G01X251388Y-1639982D01*
G01X226767Y-1639982D01*
G01X226767Y-1668012D01*
G01X226767Y-1668012D01*
G01X202524Y-1668012D01*
G01X202524Y-1591497D01*
G01X226767Y-1591497D01*
G01X227145Y-1617634D01*
G01X248358Y-1618012D01*
G01X270327Y-1617634D01*
G01X274873Y-1617255D01*
G01X280933Y-1616497D01*
G01X285479Y-1614982D01*
G01X288509Y-1613467D01*
G01X291539Y-1611194D01*
G01X294948Y-1607785D01*
G01X297221Y-1603618D01*
G01X298358Y-1600209D01*
G01X298736Y-1593012D01*
G01X297979Y-1584300D01*
G01X296464Y-1579755D01*
G01X294948Y-1576724D01*
G01X293433Y-1574452D01*
G01X290782Y-1571800D01*
G01X287373Y-1569527D01*
G01X284342Y-1568012D01*
G01X280554Y-1566876D01*
G01X277145Y-1566118D01*
G01X251388Y-1565740D01*
G01X226767Y-1565740D01*
G01X226767Y-1591497D01*
G01X226767Y-1591497D01*
G01X202524Y-1591497D01*
G01X202524Y-1542255D01*
G01X238509Y-1542255D01*
G01X275630Y-1542633D01*
G01X279039Y-1543012D01*
G01X283206Y-1543391D01*
G01X287752Y-1544149D01*
G01X292676Y-1545285D01*
G01X296842Y-1546800D01*
G01X300630Y-1548315D01*
G01X304039Y-1550209D01*
G01X307070Y-1552103D01*
G01X309342Y-1553997D01*
G01X313130Y-1557785D01*
G01X315403Y-1560815D01*
G01X317676Y-1564224D01*
G01X319191Y-1566876D01*
G01X320327Y-1569906D01*
G01X321464Y-1573315D01*
G01X322600Y-1577482D01*
G01X323357Y-1581270D01*
G01X323736Y-1588845D01*
G01X323357Y-1596421D01*
G01X322600Y-1599830D01*
G01X321464Y-1603997D01*
G01X319949Y-1607785D01*
G01X316918Y-1613088D01*
G01X315024Y-1615739D01*
G01X313130Y-1617634D01*
G01X311236Y-1619906D01*
G01X308964Y-1621421D01*
G01X307070Y-1622937D01*
G01X304039Y-1624830D01*
G01X300630Y-1626345D01*
G01X296842Y-1627482D01*
G01X293812Y-1628618D01*
G01X293907Y-1629281D01*
G01X294948Y-1629755D01*
G01X298736Y-1630891D01*
G01X302903Y-1632406D01*
G01X308206Y-1635058D01*
G01X310100Y-1636573D01*
G01X312373Y-1638467D01*
G01X314267Y-1640361D01*
G01X315782Y-1642255D01*
G01X318054Y-1644906D01*
G01X319949Y-1647937D01*
G01X321464Y-1650588D01*
G01X322979Y-1653997D01*
G01X324494Y-1658543D01*
G01X325630Y-1662330D01*
G01X326009Y-1670664D01*
G01X325630Y-1678997D01*
G01X324873Y-1682785D01*
G01X323736Y-1687709D01*
G01X322221Y-1691876D01*
G01X320327Y-1695664D01*
G01X318433Y-1698694D01*
G01X316918Y-1700967D01*
G01X313888Y-1704755D01*
G01X311236Y-1707406D01*
G01X308206Y-1709679D01*
G01X305555Y-1711573D01*
G01X302524Y-1713467D01*
G01X299494Y-1714982D01*
G01X295706Y-1716497D01*
G01X292297Y-1717633D01*
G01X284721Y-1719149D01*
G01X243055Y-1719527D01*
G01X202524Y-1719527D01*
G37*
G36*
G01X-392173Y-1721800D02*
G01X-398233Y-1721421D01*
G01X-403158Y-1720664D01*
G01X-409218Y-1719527D01*
G01X-413006Y-1718391D01*
G01X-416037Y-1717633D01*
G01X-419067Y-1716497D01*
G01X-425127Y-1713467D01*
G01X-428158Y-1711573D01*
G01X-431946Y-1708921D01*
G01X-434976Y-1706649D01*
G01X-440658Y-1700967D01*
G01X-442173Y-1699073D01*
G01X-444067Y-1696421D01*
G01X-446339Y-1692633D01*
G01X-449749Y-1685815D01*
G01X-450885Y-1682406D01*
G01X-452021Y-1678618D01*
G01X-453158Y-1674073D01*
G01X-453915Y-1669906D01*
G01X-454294Y-1634300D01*
G01X-453915Y-1598694D01*
G01X-453158Y-1593391D01*
G01X-452400Y-1589603D01*
G01X-451264Y-1584679D01*
G01X-450127Y-1581270D01*
G01X-449370Y-1578618D01*
G01X-448233Y-1575967D01*
G01X-445203Y-1569906D01*
G01X-443309Y-1566876D01*
G01X-440658Y-1563088D01*
G01X-438385Y-1560058D01*
G01X-431946Y-1553618D01*
G01X-428158Y-1550967D01*
G01X-424748Y-1548694D01*
G01X-421340Y-1546800D01*
G01X-417930Y-1545285D01*
G01X-411112Y-1543012D01*
G01X-406188Y-1541876D01*
G01X-401643Y-1541118D01*
G01X-394445Y-1540740D01*
G01X-385733Y-1541118D01*
G01X-378158Y-1542633D01*
G01X-373233Y-1543770D01*
G01X-369067Y-1545285D01*
G01X-363006Y-1548315D01*
G01X-359597Y-1550209D01*
G01X-356945Y-1551724D01*
G01X-355052Y-1553239D01*
G01X-350506Y-1557027D01*
G01X-346718Y-1560815D01*
G01X-343688Y-1564603D01*
G01X-341794Y-1567255D01*
G01X-339521Y-1570664D01*
G01X-336112Y-1577482D01*
G01X-334597Y-1580891D01*
G01X-331945Y-1588845D01*
G01X-331567Y-1591497D01*
G01X-334692Y-1592633D01*
G01X-344067Y-1593012D01*
G01X-357703Y-1592255D01*
G01X-359218Y-1589603D01*
G01X-360355Y-1586573D01*
G01X-361870Y-1583542D01*
G01X-363385Y-1580891D01*
G01X-364900Y-1578618D01*
G01X-366794Y-1576346D01*
G01X-370582Y-1572558D01*
G01X-372476Y-1571043D01*
G01X-375127Y-1569527D01*
G01X-378158Y-1568012D01*
G01X-381945Y-1566497D01*
G01X-385733Y-1565361D01*
G01X-392173Y-1564982D01*
G01X-398612Y-1565361D01*
G01X-401264Y-1565740D01*
G01X-404294Y-1566497D01*
G01X-407703Y-1568012D01*
G01X-411491Y-1569906D01*
G01X-414142Y-1571800D01*
G01X-416037Y-1573315D01*
G01X-419824Y-1577103D01*
G01X-421718Y-1579376D01*
G01X-423612Y-1582406D01*
G01X-425127Y-1585437D01*
G01X-426264Y-1588467D01*
G01X-427400Y-1591876D01*
G01X-428158Y-1594906D01*
G01X-428915Y-1600967D01*
G01X-429294Y-1631649D01*
G01X-428915Y-1663088D01*
G01X-428158Y-1668391D01*
G01X-427021Y-1673315D01*
G01X-425506Y-1677103D01*
G01X-423612Y-1680891D01*
G01X-422097Y-1683542D01*
G01X-420582Y-1685437D01*
G01X-416794Y-1689224D01*
G01X-413764Y-1691497D01*
G01X-409976Y-1693770D01*
G01X-406567Y-1695285D01*
G01X-402400Y-1696421D01*
G01X-398612Y-1697179D01*
G01X-393309Y-1697558D01*
G01X-387249Y-1697179D01*
G01X-382703Y-1696421D01*
G01X-378536Y-1695285D01*
G01X-375127Y-1693770D01*
G01X-371339Y-1691876D01*
G01X-368688Y-1689982D01*
G01X-366794Y-1688467D01*
G01X-364143Y-1685815D01*
G01X-361870Y-1682785D01*
G01X-360355Y-1680512D01*
G01X-358840Y-1677482D01*
G01X-357324Y-1673315D01*
G01X-356188Y-1669906D01*
G01X-355430Y-1664603D01*
G01X-355052Y-1655891D01*
G01X-355052Y-1648315D01*
G01X-390658Y-1648315D01*
G01X-390658Y-1624073D01*
G01X-361870Y-1624073D01*
G01X-331188Y-1624452D01*
G01X-329294Y-1624830D01*
G01X-329294Y-1639603D01*
G01X-329673Y-1655512D01*
G01X-330052Y-1659679D01*
G01X-330430Y-1666118D01*
G01X-331188Y-1670664D01*
G01X-331945Y-1674073D01*
G01X-333082Y-1678618D01*
G01X-334218Y-1682027D01*
G01X-335355Y-1685058D01*
G01X-336870Y-1688467D01*
G01X-338385Y-1691497D01*
G01X-339900Y-1693770D01*
G01X-341036Y-1696043D01*
G01X-342552Y-1698315D01*
G01X-347097Y-1703618D01*
G01X-351642Y-1708164D01*
G01X-355430Y-1710815D01*
G01X-358840Y-1713088D01*
G01X-362248Y-1714982D01*
G01X-365279Y-1716497D01*
G01X-368309Y-1717633D01*
G01X-371718Y-1718770D01*
G01X-375885Y-1719906D01*
G01X-379673Y-1720664D01*
G01X-386491Y-1721421D01*
G01X-392173Y-1721800D01*
G37*
G36*
G01X-313385Y-1719527D02*
G01X-312627Y-1717633D01*
G01X-311112Y-1714224D01*
G01X-309976Y-1710815D01*
G01X-305430Y-1698694D01*
G01X-304294Y-1695285D01*
G01X-302779Y-1691497D01*
G01X-296718Y-1674831D01*
G01X-295203Y-1671043D01*
G01X-294067Y-1667633D01*
G01X-289521Y-1655512D01*
G01X-289142Y-1654376D01*
G01X-264521Y-1654376D01*
G01X-264521Y-1657027D01*
G01X-237248Y-1657406D01*
G01X-210355Y-1657406D01*
G01X-210733Y-1655891D01*
G01X-211870Y-1652103D01*
G01X-217930Y-1633921D01*
G01X-219446Y-1630133D01*
G01X-226264Y-1609679D01*
G01X-228537Y-1603618D01*
G01X-234218Y-1586573D01*
G01X-236491Y-1580512D01*
G01X-237627Y-1578239D01*
G01X-238385Y-1578524D01*
G01X-239143Y-1580133D01*
G01X-243688Y-1593770D01*
G01X-246718Y-1602103D01*
G01X-252779Y-1620285D01*
G01X-254294Y-1624073D01*
G01X-261112Y-1644527D01*
G01X-263385Y-1650588D01*
G01X-264521Y-1654376D01*
G01X-264521Y-1654376D01*
G01X-289142Y-1654376D01*
G01X-288385Y-1652103D01*
G01X-286112Y-1646042D01*
G01X-284597Y-1642255D01*
G01X-278536Y-1625588D01*
G01X-277021Y-1621800D01*
G01X-275885Y-1618391D01*
G01X-271340Y-1606270D01*
G01X-270203Y-1602861D01*
G01X-268688Y-1599073D01*
G01X-262627Y-1582406D01*
G01X-261112Y-1578618D01*
G01X-259976Y-1575209D01*
G01X-255430Y-1563088D01*
G01X-254294Y-1559679D01*
G01X-249749Y-1547558D01*
G01X-248612Y-1544149D01*
G01X-248233Y-1542255D01*
G01X-227021Y-1542255D01*
G01X-226264Y-1544527D01*
G01X-223233Y-1552861D01*
G01X-221718Y-1556649D01*
G01X-220582Y-1560058D01*
G01X-216036Y-1572179D01*
G01X-214900Y-1575588D01*
G01X-213385Y-1579376D01*
G01X-207324Y-1596043D01*
G01X-205809Y-1599830D01*
G01X-204673Y-1603240D01*
G01X-200127Y-1615361D01*
G01X-198991Y-1618770D01*
G01X-197476Y-1622558D01*
G01X-191415Y-1639224D01*
G01X-189900Y-1643012D01*
G01X-188764Y-1646421D01*
G01X-184218Y-1658543D01*
G01X-183082Y-1661952D01*
G01X-181567Y-1665740D01*
G01X-175506Y-1682406D01*
G01X-173991Y-1686194D01*
G01X-172855Y-1689603D01*
G01X-168309Y-1701724D01*
G01X-167173Y-1705133D01*
G01X-165658Y-1708921D01*
G01X-162627Y-1717255D01*
G01X-161870Y-1719527D01*
G01X-173612Y-1719527D01*
G01X-187249Y-1719149D01*
G01X-188764Y-1718391D01*
G01X-189521Y-1716876D01*
G01X-191794Y-1710058D01*
G01X-194067Y-1703997D01*
G01X-199749Y-1686952D01*
G01X-200885Y-1683164D01*
G01X-201264Y-1680891D01*
G01X-237248Y-1680891D01*
G01X-264426Y-1681175D01*
G01X-273991Y-1682027D01*
G01X-275127Y-1685058D01*
G01X-278536Y-1695285D01*
G01X-280052Y-1699073D01*
G01X-286870Y-1719527D01*
G01X-313385Y-1719527D01*
G37*
G36*
G01X-114143Y-1719527D02*
G01X-114143Y-1565740D01*
G01X-164142Y-1565740D01*
G01X-164142Y-1542255D01*
G01X-39142Y-1542255D01*
G01X-39142Y-1565740D01*
G01X-89143Y-1565740D01*
G01X-89143Y-1719527D01*
G01X-114143Y-1719527D01*
G37*
G36*
G01X-14142Y-1719527D02*
G01X-14142Y-1542255D01*
G01X99494Y-1542255D01*
G01X99494Y-1565740D01*
G01X10857Y-1565740D01*
G01X10857Y-1620285D01*
G01X85858Y-1620285D01*
G01X85858Y-1643770D01*
G01X10857Y-1643770D01*
G01X10857Y-1696043D01*
G01X99494Y-1696043D01*
G01X99494Y-1719527D01*
G01X-14142Y-1719527D01*
G37*
G36*
G01X1367412Y-1630891D02*
G01X1367412Y-1719527D01*
G01X1391654Y-1719527D01*
G01X1391654Y-1693770D01*
G01X1391939Y-1674262D01*
G01X1392791Y-1667255D01*
G01X1398851Y-1659679D01*
G01X1406427Y-1650588D01*
G01X1409458Y-1646800D01*
G01X1417033Y-1637709D01*
G01X1418548Y-1635815D01*
G01X1420443Y-1634300D01*
G01X1421673Y-1634395D01*
G01X1422336Y-1635436D01*
G01X1423473Y-1637709D01*
G01X1424988Y-1639982D01*
G01X1426503Y-1642633D01*
G01X1428397Y-1645664D01*
G01X1435215Y-1657027D01*
G01X1437109Y-1660436D01*
G01X1438624Y-1663088D01*
G01X1440518Y-1666118D01*
G01X1454154Y-1688845D01*
G01X1456048Y-1692255D01*
G01X1457564Y-1694906D01*
G01X1459457Y-1697936D01*
G01X1470821Y-1716876D01*
G01X1473094Y-1719149D01*
G01X1488246Y-1719527D01*
G01X1498662Y-1719243D01*
G01X1501882Y-1718391D01*
G01X1500745Y-1716118D01*
G01X1498852Y-1713088D01*
G01X1494306Y-1705512D01*
G01X1492412Y-1702103D01*
G01X1490897Y-1699452D01*
G01X1489003Y-1696421D01*
G01X1473094Y-1669906D01*
G01X1471200Y-1666497D01*
G01X1469685Y-1663846D01*
G01X1467791Y-1660815D01*
G01X1451882Y-1634300D01*
G01X1449988Y-1630891D01*
G01X1448473Y-1628240D01*
G01X1446579Y-1625209D01*
G01X1439760Y-1613846D01*
G01X1439098Y-1612046D01*
G01X1439382Y-1610436D01*
G01X1445063Y-1603618D01*
G01X1448094Y-1599830D01*
G01X1455670Y-1590740D01*
G01X1458700Y-1586952D01*
G01X1462488Y-1582406D01*
G01X1465518Y-1578618D01*
G01X1473094Y-1569527D01*
G01X1476124Y-1565740D01*
G01X1483700Y-1556649D01*
G01X1486730Y-1552861D01*
G01X1494874Y-1543107D01*
G01X1494306Y-1542633D01*
G01X1479155Y-1542255D01*
G01X1465139Y-1542255D01*
G01X1464003Y-1544149D01*
G01X1461730Y-1546800D01*
G01X1460215Y-1548694D01*
G01X1459079Y-1550588D01*
G01X1451503Y-1560058D01*
G01X1449230Y-1563088D01*
G01X1440139Y-1574452D01*
G01X1437867Y-1577482D01*
G01X1431806Y-1585058D01*
G01X1429533Y-1588088D01*
G01X1423473Y-1595664D01*
G01X1421200Y-1598694D01*
G01X1415139Y-1606270D01*
G01X1412867Y-1609300D01*
G01X1406806Y-1616876D01*
G01X1404533Y-1619906D01*
G01X1395442Y-1631270D01*
G01X1393548Y-1633543D01*
G01X1392602Y-1634111D01*
G01X1392033Y-1633543D01*
G01X1391654Y-1587330D01*
G01X1391654Y-1542255D01*
G01X1367412Y-1542255D01*
G01X1367412Y-1630891D01*
G37*
G36*
G01X1663624Y-1630891D02*
G01X1663624Y-1719527D01*
G01X1687867Y-1719527D01*
G01X1687867Y-1655133D01*
G01X1688151Y-1606933D01*
G01X1689003Y-1591118D01*
G01X1690518Y-1592633D01*
G01X1692033Y-1595285D01*
G01X1695821Y-1601346D01*
G01X1698094Y-1604755D01*
G01X1701882Y-1610815D01*
G01X1706427Y-1617634D01*
G01X1708700Y-1621421D01*
G01X1710973Y-1624830D01*
G01X1714761Y-1630891D01*
G01X1717033Y-1634300D01*
G01X1720821Y-1640361D01*
G01X1723094Y-1643770D01*
G01X1726882Y-1649830D01*
G01X1729155Y-1653240D01*
G01X1732943Y-1659300D01*
G01X1735215Y-1662709D01*
G01X1739003Y-1668770D01*
G01X1741276Y-1672179D01*
G01X1745064Y-1678239D01*
G01X1749609Y-1685058D01*
G01X1751882Y-1688845D01*
G01X1754155Y-1692255D01*
G01X1757942Y-1698315D01*
G01X1760215Y-1701724D01*
G01X1764003Y-1707785D01*
G01X1766276Y-1711194D01*
G01X1770064Y-1717255D01*
G01X1772336Y-1719149D01*
G01X1784079Y-1719527D01*
G01X1794685Y-1719527D01*
G01X1794685Y-1542255D01*
G01X1770442Y-1542255D01*
G01X1770064Y-1544149D01*
G01X1769685Y-1609679D01*
G01X1769495Y-1657311D01*
G01X1768927Y-1672936D01*
G01X1767033Y-1670664D01*
G01X1764761Y-1666876D01*
G01X1762488Y-1663467D01*
G01X1754912Y-1651345D01*
G01X1752639Y-1647937D01*
G01X1750367Y-1644149D01*
G01X1748094Y-1640739D01*
G01X1740518Y-1628618D01*
G01X1738246Y-1625209D01*
G01X1735973Y-1621421D01*
G01X1732185Y-1615361D01*
G01X1729912Y-1611952D01*
G01X1726124Y-1605891D01*
G01X1723852Y-1602482D01*
G01X1721579Y-1598694D01*
G01X1717791Y-1592633D01*
G01X1715518Y-1589224D01*
G01X1707942Y-1577103D01*
G01X1705670Y-1573694D01*
G01X1703397Y-1569906D01*
G01X1699609Y-1563845D01*
G01X1697336Y-1560437D01*
G01X1693548Y-1554376D01*
G01X1691276Y-1550967D01*
G01X1689003Y-1547179D01*
G01X1687109Y-1544149D01*
G01X1685215Y-1542633D01*
G01X1673851Y-1542255D01*
G01X1663624Y-1542255D01*
G01X1663624Y-1630891D01*
G37*
G36*
G01X1124609Y-1721421D02*
G01X1129533Y-1721800D01*
G01X1135215Y-1721421D01*
G01X1141276Y-1720664D01*
G01X1144685Y-1719906D01*
G01X1148473Y-1718770D01*
G01X1154533Y-1716497D01*
G01X1157942Y-1714982D01*
G01X1160594Y-1713467D01*
G01X1165139Y-1710437D01*
G01X1170821Y-1705891D01*
G01X1172715Y-1703997D01*
G01X1175746Y-1700209D01*
G01X1177639Y-1698315D01*
G01X1179154Y-1696421D01*
G01X1180670Y-1693770D01*
G01X1182942Y-1690361D01*
G01X1184836Y-1686573D01*
G01X1186352Y-1682785D01*
G01X1187867Y-1678618D01*
G01X1189003Y-1675209D01*
G01X1189760Y-1671800D01*
G01X1190139Y-1669149D01*
G01X1178018Y-1668770D01*
G01X1165897Y-1668770D01*
G01X1165139Y-1671043D01*
G01X1163624Y-1674831D01*
G01X1162109Y-1678239D01*
G01X1159836Y-1682027D01*
G01X1156806Y-1685815D01*
G01X1153776Y-1688467D01*
G01X1151503Y-1689982D01*
G01X1148851Y-1691876D01*
G01X1145064Y-1693770D01*
G01X1141654Y-1695285D01*
G01X1137109Y-1696421D01*
G01X1132942Y-1697179D01*
G01X1128018Y-1697558D01*
G01X1123094Y-1697179D01*
G01X1119685Y-1696421D01*
G01X1115897Y-1695285D01*
G01X1112488Y-1693770D01*
G01X1109836Y-1692255D01*
G01X1107942Y-1690740D01*
G01X1104155Y-1686952D01*
G01X1101882Y-1684300D01*
G01X1099609Y-1680891D01*
G01X1097715Y-1677482D01*
G01X1096200Y-1673315D01*
G01X1095064Y-1669149D01*
G01X1094306Y-1665361D01*
G01X1093927Y-1661952D01*
G01X1093548Y-1659300D01*
G01X1093170Y-1630133D01*
G01X1093548Y-1600967D01*
G01X1094306Y-1594906D01*
G01X1095064Y-1591876D01*
G01X1096200Y-1588467D01*
G01X1097336Y-1585437D01*
G01X1098852Y-1582406D01*
G01X1100745Y-1579376D01*
G01X1104533Y-1574830D01*
G01X1106427Y-1572936D01*
G01X1110215Y-1569906D01*
G01X1112488Y-1568770D01*
G01X1115897Y-1567255D01*
G01X1120064Y-1566118D01*
G01X1123852Y-1565361D01*
G01X1130670Y-1564982D01*
G01X1136730Y-1565361D01*
G01X1140518Y-1566497D01*
G01X1144306Y-1568012D01*
G01X1147336Y-1569527D01*
G01X1149988Y-1571421D01*
G01X1153776Y-1574452D01*
G01X1157564Y-1578239D01*
G01X1159458Y-1580891D01*
G01X1161352Y-1583921D01*
G01X1162867Y-1586952D01*
G01X1164382Y-1590740D01*
G01X1165139Y-1593012D01*
G01X1190897Y-1593012D01*
G01X1190139Y-1590361D01*
G01X1189003Y-1585815D01*
G01X1185594Y-1576724D01*
G01X1184079Y-1573694D01*
G01X1182185Y-1570285D01*
G01X1179912Y-1566876D01*
G01X1177639Y-1564224D01*
G01X1174609Y-1560437D01*
G01X1168927Y-1554755D01*
G01X1167033Y-1553239D01*
G01X1165139Y-1552103D01*
G01X1162488Y-1550209D01*
G01X1158700Y-1547936D01*
G01X1155291Y-1546421D01*
G01X1152639Y-1545285D01*
G01X1149609Y-1544149D01*
G01X1146200Y-1543012D01*
G01X1143170Y-1542255D01*
G01X1140518Y-1541876D01*
G01X1135973Y-1541118D01*
G01X1126882Y-1540740D01*
G01X1120064Y-1541118D01*
G01X1115897Y-1541876D01*
G01X1111351Y-1543012D01*
G01X1104533Y-1545285D01*
G01X1101124Y-1546800D01*
G01X1097715Y-1548694D01*
G01X1094306Y-1550967D01*
G01X1090518Y-1553618D01*
G01X1084079Y-1560058D01*
G01X1079533Y-1566118D01*
G01X1077639Y-1569148D01*
G01X1074230Y-1575967D01*
G01X1073094Y-1578618D01*
G01X1072336Y-1581270D01*
G01X1071200Y-1584679D01*
G01X1070063Y-1589603D01*
G01X1069306Y-1593391D01*
G01X1068548Y-1598694D01*
G01X1068170Y-1632785D01*
G01X1068548Y-1666876D01*
G01X1069306Y-1671421D01*
G01X1070442Y-1676346D01*
G01X1072715Y-1683921D01*
G01X1074230Y-1687330D01*
G01X1076124Y-1691118D01*
G01X1078397Y-1694906D01*
G01X1080291Y-1697936D01*
G01X1083321Y-1701724D01*
G01X1089003Y-1707406D01*
G01X1090897Y-1708921D01*
G01X1093548Y-1710815D01*
G01X1096957Y-1713088D01*
G01X1100367Y-1714982D01*
G01X1103397Y-1716497D01*
G01X1106427Y-1717633D01*
G01X1109836Y-1718770D01*
G01X1114761Y-1719906D01*
G01X1119306Y-1720664D01*
G01X1122336Y-1721043D01*
G01X1124609Y-1721421D01*
G37*
G36*
G01X1223473Y-1632785D02*
G01X1223473Y-1719527D01*
G01X1337867Y-1719527D01*
G01X1337867Y-1696043D01*
G01X1248473Y-1696043D01*
G01X1248473Y-1542255D01*
G01X1224230Y-1542255D01*
G01X1223852Y-1544149D01*
G01X1223473Y-1632785D01*
G37*
G36*
G01X1594685Y-1630891D02*
G01X1594685Y-1719527D01*
G01X1619685Y-1719527D01*
G01X1619685Y-1542255D01*
G01X1594685Y-1542255D01*
G01X1594685Y-1630891D01*
G37*
G36*
G01X-1409488Y-3444500D02*
G01X-1414412Y-3444121D01*
G01X-1416685Y-3443742D01*
G01X-1419715Y-3443364D01*
G01X-1424261Y-3442606D01*
G01X-1429185Y-3441470D01*
G01X-1432594Y-3440333D01*
G01X-1435624Y-3439197D01*
G01X-1438655Y-3437682D01*
G01X-1442064Y-3435788D01*
G01X-1445473Y-3433515D01*
G01X-1448124Y-3431621D01*
G01X-1450018Y-3430106D01*
G01X-1455700Y-3424424D01*
G01X-1458730Y-3420636D01*
G01X-1460624Y-3417606D01*
G01X-1462897Y-3413818D01*
G01X-1464791Y-3410030D01*
G01X-1466306Y-3406621D01*
G01X-1468579Y-3399046D01*
G01X-1469715Y-3394121D01*
G01X-1470473Y-3389576D01*
G01X-1470852Y-3355485D01*
G01X-1470473Y-3321394D01*
G01X-1469715Y-3316091D01*
G01X-1468958Y-3312303D01*
G01X-1467821Y-3307379D01*
G01X-1466685Y-3303970D01*
G01X-1465927Y-3301318D01*
G01X-1464791Y-3298667D01*
G01X-1461382Y-3291848D01*
G01X-1459488Y-3288818D01*
G01X-1454943Y-3282757D01*
G01X-1448503Y-3276318D01*
G01X-1444715Y-3273667D01*
G01X-1441306Y-3271394D01*
G01X-1437897Y-3269500D01*
G01X-1434488Y-3267985D01*
G01X-1427670Y-3265712D01*
G01X-1423124Y-3264576D01*
G01X-1418958Y-3263818D01*
G01X-1412139Y-3263439D01*
G01X-1403049Y-3263818D01*
G01X-1398503Y-3264576D01*
G01X-1395851Y-3264955D01*
G01X-1392821Y-3265712D01*
G01X-1389412Y-3266848D01*
G01X-1386382Y-3267985D01*
G01X-1383730Y-3269121D01*
G01X-1380321Y-3270636D01*
G01X-1376533Y-3272909D01*
G01X-1373882Y-3274803D01*
G01X-1371988Y-3275939D01*
G01X-1370094Y-3277454D01*
G01X-1364412Y-3283136D01*
G01X-1361382Y-3286924D01*
G01X-1359109Y-3289576D01*
G01X-1356836Y-3292985D01*
G01X-1354942Y-3296394D01*
G01X-1353427Y-3299424D01*
G01X-1350018Y-3308515D01*
G01X-1348882Y-3313061D01*
G01X-1348124Y-3315712D01*
G01X-1373882Y-3315712D01*
G01X-1374639Y-3313439D01*
G01X-1376155Y-3309651D01*
G01X-1377670Y-3306621D01*
G01X-1379564Y-3303591D01*
G01X-1381458Y-3300939D01*
G01X-1385245Y-3297151D01*
G01X-1389033Y-3294121D01*
G01X-1391685Y-3292227D01*
G01X-1394715Y-3290712D01*
G01X-1398503Y-3289197D01*
G01X-1402291Y-3288060D01*
G01X-1408352Y-3287682D01*
G01X-1415170Y-3288060D01*
G01X-1418958Y-3288818D01*
G01X-1423124Y-3289955D01*
G01X-1426533Y-3291470D01*
G01X-1428806Y-3292606D01*
G01X-1432594Y-3295636D01*
G01X-1434488Y-3297530D01*
G01X-1438276Y-3302076D01*
G01X-1440170Y-3305106D01*
G01X-1441685Y-3308136D01*
G01X-1442821Y-3311167D01*
G01X-1443958Y-3314576D01*
G01X-1444715Y-3317606D01*
G01X-1445473Y-3323667D01*
G01X-1445852Y-3352833D01*
G01X-1445473Y-3382000D01*
G01X-1445094Y-3384652D01*
G01X-1444715Y-3388061D01*
G01X-1443958Y-3391848D01*
G01X-1442821Y-3396015D01*
G01X-1441306Y-3400182D01*
G01X-1439412Y-3403591D01*
G01X-1437139Y-3407000D01*
G01X-1434867Y-3409652D01*
G01X-1431079Y-3413439D01*
G01X-1429185Y-3414955D01*
G01X-1426533Y-3416470D01*
G01X-1423124Y-3417985D01*
G01X-1419336Y-3419121D01*
G01X-1415927Y-3419879D01*
G01X-1411003Y-3420258D01*
G01X-1406079Y-3419879D01*
G01X-1401912Y-3419121D01*
G01X-1397367Y-3417985D01*
G01X-1393958Y-3416470D01*
G01X-1390170Y-3414576D01*
G01X-1387518Y-3412682D01*
G01X-1385245Y-3411167D01*
G01X-1382215Y-3408515D01*
G01X-1379185Y-3404727D01*
G01X-1376912Y-3400939D01*
G01X-1375397Y-3397530D01*
G01X-1373882Y-3393743D01*
G01X-1373124Y-3391470D01*
G01X-1361003Y-3391470D01*
G01X-1348882Y-3391848D01*
G01X-1349261Y-3394500D01*
G01X-1350018Y-3397909D01*
G01X-1351155Y-3401318D01*
G01X-1352670Y-3405485D01*
G01X-1354185Y-3409273D01*
G01X-1356079Y-3413060D01*
G01X-1358352Y-3416470D01*
G01X-1359867Y-3419121D01*
G01X-1361382Y-3421015D01*
G01X-1363276Y-3422909D01*
G01X-1366306Y-3426697D01*
G01X-1368200Y-3428591D01*
G01X-1373882Y-3433136D01*
G01X-1378427Y-3436167D01*
G01X-1381079Y-3437682D01*
G01X-1384488Y-3439197D01*
G01X-1390548Y-3441470D01*
G01X-1394336Y-3442606D01*
G01X-1397746Y-3443364D01*
G01X-1403806Y-3444121D01*
G01X-1409488Y-3444500D01*
G37*
G36*
G01X-1270283Y-3441943D02*
G01X-1273503Y-3441091D01*
G01X-1274639Y-3438439D01*
G01X-1279185Y-3424803D01*
G01X-1281458Y-3417227D01*
G01X-1290549Y-3389955D01*
G01X-1292821Y-3382379D01*
G01X-1301912Y-3355106D01*
G01X-1304185Y-3347530D01*
G01X-1313276Y-3320258D01*
G01X-1315549Y-3312682D01*
G01X-1324640Y-3285409D01*
G01X-1326912Y-3277833D01*
G01X-1329185Y-3271015D01*
G01X-1330321Y-3267227D01*
G01X-1330700Y-3264955D01*
G01X-1317442Y-3264955D01*
G01X-1307405Y-3265333D01*
G01X-1303806Y-3266470D01*
G01X-1302670Y-3269500D01*
G01X-1300397Y-3277076D01*
G01X-1299261Y-3280485D01*
G01X-1298124Y-3284652D01*
G01X-1295473Y-3292606D01*
G01X-1294715Y-3295636D01*
G01X-1293579Y-3299045D01*
G01X-1289033Y-3314197D01*
G01X-1287897Y-3317606D01*
G01X-1286761Y-3321773D01*
G01X-1284109Y-3329727D01*
G01X-1283352Y-3332758D01*
G01X-1282215Y-3336167D01*
G01X-1277670Y-3351318D01*
G01X-1276533Y-3354727D01*
G01X-1275397Y-3358894D01*
G01X-1272746Y-3366848D01*
G01X-1271988Y-3369879D01*
G01X-1270851Y-3373288D01*
G01X-1266306Y-3388440D01*
G01X-1265170Y-3391848D01*
G01X-1264033Y-3396015D01*
G01X-1262518Y-3400561D01*
G01X-1261761Y-3402170D01*
G01X-1261003Y-3402454D01*
G01X-1259867Y-3400939D01*
G01X-1259109Y-3397909D01*
G01X-1257973Y-3394500D01*
G01X-1253427Y-3379349D01*
G01X-1252291Y-3375939D01*
G01X-1251155Y-3371773D01*
G01X-1248503Y-3363818D01*
G01X-1247746Y-3360788D01*
G01X-1246609Y-3357379D01*
G01X-1244336Y-3349803D01*
G01X-1243200Y-3346394D01*
G01X-1242064Y-3342227D01*
G01X-1229942Y-3302833D01*
G01X-1228806Y-3299424D01*
G01X-1228049Y-3296394D01*
G01X-1226912Y-3292985D01*
G01X-1224639Y-3285409D01*
G01X-1223503Y-3282000D01*
G01X-1222367Y-3277833D01*
G01X-1219715Y-3269879D01*
G01X-1218958Y-3266848D01*
G01X-1218579Y-3264955D01*
G01X-1192064Y-3264955D01*
G01X-1192442Y-3266848D01*
G01X-1201533Y-3294121D01*
G01X-1202670Y-3298288D01*
G01X-1211761Y-3325561D01*
G01X-1214791Y-3335409D01*
G01X-1225018Y-3366091D01*
G01X-1225776Y-3369121D01*
G01X-1233730Y-3392985D01*
G01X-1236003Y-3400561D01*
G01X-1246230Y-3431242D01*
G01X-1247367Y-3435409D01*
G01X-1249639Y-3442227D01*
G01X-1261382Y-3442227D01*
G01X-1270283Y-3441943D01*
G37*
G36*
G01X-1098882Y-3442227D02*
G01X-1098882Y-3264955D01*
G01X-1073882Y-3264955D01*
G01X-1073882Y-3442227D01*
G01X-1098882Y-3442227D01*
G37*
G36*
G01X-1029942Y-3442227D02*
G01X-1029942Y-3264955D01*
G01X-1019715Y-3264955D01*
G01X-1008352Y-3265333D01*
G01X-1006458Y-3266848D01*
G01X-1004564Y-3269879D01*
G01X-1002291Y-3273667D01*
G01X-1000018Y-3277076D01*
G01X-996230Y-3283136D01*
G01X-993958Y-3286545D01*
G01X-990170Y-3292606D01*
G01X-987897Y-3296394D01*
G01X-985624Y-3299803D01*
G01X-978049Y-3311924D01*
G01X-975776Y-3315333D01*
G01X-973503Y-3319121D01*
G01X-971230Y-3322530D01*
G01X-963655Y-3334651D01*
G01X-961382Y-3338061D01*
G01X-957594Y-3344121D01*
G01X-955321Y-3347909D01*
G01X-953048Y-3351318D01*
G01X-945473Y-3363439D01*
G01X-943200Y-3366848D01*
G01X-940927Y-3370636D01*
G01X-938655Y-3374045D01*
G01X-931079Y-3386167D01*
G01X-928806Y-3389576D01*
G01X-926533Y-3393364D01*
G01X-924640Y-3395636D01*
G01X-924071Y-3380011D01*
G01X-923882Y-3332379D01*
G01X-923503Y-3266848D01*
G01X-923124Y-3264955D01*
G01X-898882Y-3264955D01*
G01X-898882Y-3442227D01*
G01X-909488Y-3442227D01*
G01X-921230Y-3441849D01*
G01X-923503Y-3439955D01*
G01X-927291Y-3433894D01*
G01X-929564Y-3430485D01*
G01X-933351Y-3424424D01*
G01X-935624Y-3421015D01*
G01X-939412Y-3414955D01*
G01X-941685Y-3411545D01*
G01X-943958Y-3407757D01*
G01X-948503Y-3400939D01*
G01X-952291Y-3394879D01*
G01X-954564Y-3391470D01*
G01X-958351Y-3385409D01*
G01X-960624Y-3382000D01*
G01X-964412Y-3375939D01*
G01X-966685Y-3372530D01*
G01X-970473Y-3366470D01*
G01X-972745Y-3363061D01*
G01X-976533Y-3357000D01*
G01X-978806Y-3353591D01*
G01X-982594Y-3347530D01*
G01X-984867Y-3344121D01*
G01X-987140Y-3340333D01*
G01X-991685Y-3333515D01*
G01X-995473Y-3327455D01*
G01X-997746Y-3324045D01*
G01X-1001533Y-3317985D01*
G01X-1003049Y-3315333D01*
G01X-1004564Y-3313818D01*
G01X-1005416Y-3329633D01*
G01X-1005700Y-3377833D01*
G01X-1005700Y-3442227D01*
G01X-1029942Y-3442227D01*
G37*
G36*
G01X-804943Y-3442227D02*
G01X-804185Y-3440712D01*
G01X-802670Y-3437682D01*
G01X-801533Y-3434273D01*
G01X-796988Y-3422151D01*
G01X-795852Y-3418742D01*
G01X-794336Y-3414955D01*
G01X-788276Y-3398288D01*
G01X-786761Y-3394500D01*
G01X-785624Y-3391091D01*
G01X-781079Y-3378970D01*
G01X-780574Y-3377455D01*
G01X-756079Y-3377455D01*
G01X-756079Y-3379727D01*
G01X-728427Y-3380106D01*
G01X-708067Y-3379917D01*
G01X-701533Y-3379349D01*
G01X-702670Y-3376318D01*
G01X-708730Y-3358136D01*
G01X-711761Y-3349803D01*
G01X-717821Y-3331621D01*
G01X-720852Y-3323288D01*
G01X-726912Y-3305106D01*
G01X-728427Y-3301697D01*
G01X-729185Y-3301224D01*
G01X-729942Y-3302076D01*
G01X-731458Y-3305864D01*
G01X-736003Y-3319500D01*
G01X-737518Y-3323288D01*
G01X-744336Y-3343742D01*
G01X-745851Y-3347530D01*
G01X-753427Y-3370258D01*
G01X-754942Y-3374045D01*
G01X-756079Y-3377455D01*
G01X-756079Y-3377455D01*
G01X-780574Y-3377455D01*
G01X-779942Y-3375561D01*
G01X-778427Y-3371773D01*
G01X-772367Y-3355106D01*
G01X-770851Y-3351318D01*
G01X-769715Y-3347909D01*
G01X-765170Y-3335788D01*
G01X-764033Y-3332379D01*
G01X-761761Y-3326318D01*
G01X-760245Y-3322530D01*
G01X-754185Y-3305864D01*
G01X-752670Y-3302076D01*
G01X-751533Y-3298667D01*
G01X-746988Y-3286545D01*
G01X-745851Y-3283136D01*
G01X-744336Y-3279349D01*
G01X-739791Y-3266848D01*
G01X-739033Y-3264955D01*
G01X-730321Y-3264955D01*
G01X-719715Y-3265333D01*
G01X-718200Y-3266091D01*
G01X-717442Y-3267606D01*
G01X-715170Y-3273667D01*
G01X-714033Y-3277076D01*
G01X-712518Y-3280864D01*
G01X-706458Y-3297530D01*
G01X-704943Y-3301318D01*
G01X-703806Y-3304727D01*
G01X-696988Y-3322909D01*
G01X-695852Y-3326318D01*
G01X-694336Y-3330106D01*
G01X-688276Y-3346773D01*
G01X-686761Y-3350560D01*
G01X-685624Y-3353970D01*
G01X-681079Y-3366091D01*
G01X-679943Y-3369500D01*
G01X-678427Y-3373288D01*
G01X-672367Y-3389955D01*
G01X-670852Y-3393743D01*
G01X-669715Y-3397151D01*
G01X-665170Y-3409273D01*
G01X-664033Y-3412682D01*
G01X-662518Y-3416470D01*
G01X-656458Y-3433136D01*
G01X-654942Y-3436924D01*
G01X-653806Y-3440333D01*
G01X-653427Y-3442227D01*
G01X-665927Y-3442227D01*
G01X-679564Y-3441470D01*
G01X-681079Y-3438818D01*
G01X-684488Y-3428591D01*
G01X-686761Y-3422530D01*
G01X-692442Y-3405485D01*
G01X-692821Y-3403591D01*
G01X-764791Y-3403591D01*
G01X-765548Y-3405485D01*
G01X-767064Y-3409652D01*
G01X-770094Y-3418742D01*
G01X-771609Y-3422530D01*
G01X-776155Y-3436167D01*
G01X-777291Y-3439955D01*
G01X-777670Y-3442227D01*
G01X-804943Y-3442227D01*
G37*
G36*
G01X597112Y-3444500D02*
G01X592188Y-3444121D01*
G01X589915Y-3443742D01*
G01X586885Y-3443364D01*
G01X582339Y-3442606D01*
G01X577415Y-3441470D01*
G01X574006Y-3440333D01*
G01X570976Y-3439197D01*
G01X567945Y-3437682D01*
G01X564536Y-3435788D01*
G01X561127Y-3433515D01*
G01X558476Y-3431621D01*
G01X556582Y-3430106D01*
G01X550900Y-3424424D01*
G01X547870Y-3420636D01*
G01X545976Y-3417606D01*
G01X543703Y-3413818D01*
G01X541809Y-3410030D01*
G01X540294Y-3406621D01*
G01X538021Y-3399046D01*
G01X536885Y-3394121D01*
G01X536127Y-3389576D01*
G01X535748Y-3355485D01*
G01X536127Y-3321394D01*
G01X536885Y-3316091D01*
G01X537642Y-3312303D01*
G01X538779Y-3307379D01*
G01X539915Y-3303970D01*
G01X540673Y-3301318D01*
G01X541809Y-3298667D01*
G01X545218Y-3291848D01*
G01X547112Y-3288818D01*
G01X551657Y-3282757D01*
G01X558097Y-3276318D01*
G01X561885Y-3273667D01*
G01X565294Y-3271394D01*
G01X568703Y-3269500D01*
G01X572112Y-3267985D01*
G01X578930Y-3265712D01*
G01X583476Y-3264576D01*
G01X587642Y-3263818D01*
G01X594461Y-3263439D01*
G01X603551Y-3263818D01*
G01X608097Y-3264576D01*
G01X610749Y-3264955D01*
G01X613779Y-3265712D01*
G01X617188Y-3266848D01*
G01X620218Y-3267985D01*
G01X622870Y-3269121D01*
G01X626279Y-3270636D01*
G01X630067Y-3272909D01*
G01X632718Y-3274803D01*
G01X634612Y-3275939D01*
G01X636506Y-3277454D01*
G01X642188Y-3283136D01*
G01X645218Y-3286924D01*
G01X647491Y-3289576D01*
G01X649764Y-3292985D01*
G01X651658Y-3296394D01*
G01X653173Y-3299424D01*
G01X656582Y-3308515D01*
G01X657718Y-3313061D01*
G01X658476Y-3315712D01*
G01X632718Y-3315712D01*
G01X631961Y-3313439D01*
G01X630445Y-3309651D01*
G01X628930Y-3306621D01*
G01X627036Y-3303591D01*
G01X625142Y-3300939D01*
G01X621355Y-3297151D01*
G01X617567Y-3294121D01*
G01X614915Y-3292227D01*
G01X611885Y-3290712D01*
G01X608097Y-3289197D01*
G01X604309Y-3288060D01*
G01X598248Y-3287682D01*
G01X591430Y-3288060D01*
G01X587642Y-3288818D01*
G01X583476Y-3289955D01*
G01X580067Y-3291470D01*
G01X577794Y-3292606D01*
G01X574006Y-3295636D01*
G01X572112Y-3297530D01*
G01X568324Y-3302076D01*
G01X566430Y-3305106D01*
G01X564915Y-3308136D01*
G01X563779Y-3311167D01*
G01X562642Y-3314576D01*
G01X561885Y-3317606D01*
G01X561127Y-3323667D01*
G01X560748Y-3352833D01*
G01X561127Y-3382000D01*
G01X561506Y-3384652D01*
G01X561885Y-3388061D01*
G01X562642Y-3391848D01*
G01X563779Y-3396015D01*
G01X565294Y-3400182D01*
G01X567188Y-3403591D01*
G01X569461Y-3407000D01*
G01X571733Y-3409652D01*
G01X575521Y-3413439D01*
G01X577415Y-3414955D01*
G01X580067Y-3416470D01*
G01X583476Y-3417985D01*
G01X587264Y-3419121D01*
G01X590673Y-3419879D01*
G01X595597Y-3420258D01*
G01X600521Y-3419879D01*
G01X604688Y-3419121D01*
G01X609233Y-3417985D01*
G01X612642Y-3416470D01*
G01X616430Y-3414576D01*
G01X619082Y-3412682D01*
G01X621355Y-3411167D01*
G01X624385Y-3408515D01*
G01X627415Y-3404727D01*
G01X629688Y-3400939D01*
G01X631203Y-3397530D01*
G01X632718Y-3393743D01*
G01X633476Y-3391470D01*
G01X645597Y-3391470D01*
G01X657718Y-3391848D01*
G01X657339Y-3394500D01*
G01X656582Y-3397909D01*
G01X655445Y-3401318D01*
G01X653930Y-3405485D01*
G01X652415Y-3409273D01*
G01X650521Y-3413060D01*
G01X648248Y-3416470D01*
G01X646733Y-3419121D01*
G01X645218Y-3421015D01*
G01X643324Y-3422909D01*
G01X640294Y-3426697D01*
G01X638400Y-3428591D01*
G01X632718Y-3433136D01*
G01X628173Y-3436167D01*
G01X625521Y-3437682D01*
G01X622112Y-3439197D01*
G01X616052Y-3441470D01*
G01X612264Y-3442606D01*
G01X608854Y-3443364D01*
G01X602794Y-3444121D01*
G01X597112Y-3444500D01*
G37*
G36*
G01X736317Y-3441943D02*
G01X733097Y-3441091D01*
G01X731961Y-3438439D01*
G01X727415Y-3424803D01*
G01X725142Y-3417227D01*
G01X716051Y-3389955D01*
G01X713779Y-3382379D01*
G01X704688Y-3355106D01*
G01X702415Y-3347530D01*
G01X693324Y-3320258D01*
G01X691051Y-3312682D01*
G01X681960Y-3285409D01*
G01X679688Y-3277833D01*
G01X677415Y-3271015D01*
G01X676279Y-3267227D01*
G01X675900Y-3264955D01*
G01X689158Y-3264955D01*
G01X699195Y-3265333D01*
G01X702794Y-3266470D01*
G01X703930Y-3269500D01*
G01X706203Y-3277076D01*
G01X707339Y-3280485D01*
G01X708476Y-3284652D01*
G01X711127Y-3292606D01*
G01X711885Y-3295636D01*
G01X713021Y-3299045D01*
G01X717567Y-3314197D01*
G01X718703Y-3317606D01*
G01X719839Y-3321773D01*
G01X722491Y-3329727D01*
G01X723248Y-3332758D01*
G01X724385Y-3336167D01*
G01X728930Y-3351318D01*
G01X730067Y-3354727D01*
G01X731203Y-3358894D01*
G01X733854Y-3366848D01*
G01X734612Y-3369879D01*
G01X735749Y-3373288D01*
G01X740294Y-3388440D01*
G01X741430Y-3391848D01*
G01X742567Y-3396015D01*
G01X744082Y-3400561D01*
G01X744839Y-3402170D01*
G01X745597Y-3402454D01*
G01X746733Y-3400939D01*
G01X747491Y-3397909D01*
G01X748627Y-3394500D01*
G01X753173Y-3379349D01*
G01X754309Y-3375939D01*
G01X755445Y-3371773D01*
G01X758097Y-3363818D01*
G01X758854Y-3360788D01*
G01X759991Y-3357379D01*
G01X762264Y-3349803D01*
G01X763400Y-3346394D01*
G01X764536Y-3342227D01*
G01X776658Y-3302833D01*
G01X777794Y-3299424D01*
G01X778551Y-3296394D01*
G01X779688Y-3292985D01*
G01X781961Y-3285409D01*
G01X783097Y-3282000D01*
G01X784233Y-3277833D01*
G01X786885Y-3269879D01*
G01X787642Y-3266848D01*
G01X788021Y-3264955D01*
G01X814536Y-3264955D01*
G01X814158Y-3266848D01*
G01X805067Y-3294121D01*
G01X803930Y-3298288D01*
G01X794839Y-3325561D01*
G01X791809Y-3335409D01*
G01X781582Y-3366091D01*
G01X780824Y-3369121D01*
G01X772870Y-3392985D01*
G01X770597Y-3400561D01*
G01X760370Y-3431242D01*
G01X759233Y-3435409D01*
G01X756961Y-3442227D01*
G01X745218Y-3442227D01*
G01X736317Y-3441943D01*
G37*
G36*
G01X907718Y-3442227D02*
G01X907718Y-3264955D01*
G01X932718Y-3264955D01*
G01X932718Y-3442227D01*
G01X907718Y-3442227D01*
G37*
G36*
G01X976658Y-3442227D02*
G01X976658Y-3264955D01*
G01X986885Y-3264955D01*
G01X998248Y-3265333D01*
G01X1000142Y-3266848D01*
G01X1002036Y-3269879D01*
G01X1004309Y-3273667D01*
G01X1006582Y-3277076D01*
G01X1010370Y-3283136D01*
G01X1012642Y-3286545D01*
G01X1016430Y-3292606D01*
G01X1018703Y-3296394D01*
G01X1020976Y-3299803D01*
G01X1028551Y-3311924D01*
G01X1030824Y-3315333D01*
G01X1033097Y-3319121D01*
G01X1035370Y-3322530D01*
G01X1042945Y-3334651D01*
G01X1045218Y-3338061D01*
G01X1049006Y-3344121D01*
G01X1051279Y-3347909D01*
G01X1053552Y-3351318D01*
G01X1061127Y-3363439D01*
G01X1063400Y-3366848D01*
G01X1065673Y-3370636D01*
G01X1067945Y-3374045D01*
G01X1075521Y-3386167D01*
G01X1077794Y-3389576D01*
G01X1080067Y-3393364D01*
G01X1081960Y-3395636D01*
G01X1082529Y-3380011D01*
G01X1082718Y-3332379D01*
G01X1083097Y-3266848D01*
G01X1083476Y-3264955D01*
G01X1107718Y-3264955D01*
G01X1107718Y-3442227D01*
G01X1097112Y-3442227D01*
G01X1085370Y-3441849D01*
G01X1083097Y-3439955D01*
G01X1079309Y-3433894D01*
G01X1077036Y-3430485D01*
G01X1073249Y-3424424D01*
G01X1070976Y-3421015D01*
G01X1067188Y-3414955D01*
G01X1064915Y-3411545D01*
G01X1062642Y-3407757D01*
G01X1058097Y-3400939D01*
G01X1054309Y-3394879D01*
G01X1052036Y-3391470D01*
G01X1048249Y-3385409D01*
G01X1045976Y-3382000D01*
G01X1042188Y-3375939D01*
G01X1039915Y-3372530D01*
G01X1036127Y-3366470D01*
G01X1033855Y-3363061D01*
G01X1030067Y-3357000D01*
G01X1027794Y-3353591D01*
G01X1024006Y-3347530D01*
G01X1021733Y-3344121D01*
G01X1019460Y-3340333D01*
G01X1014915Y-3333515D01*
G01X1011127Y-3327455D01*
G01X1008854Y-3324045D01*
G01X1005067Y-3317985D01*
G01X1003551Y-3315333D01*
G01X1002036Y-3313818D01*
G01X1001184Y-3329633D01*
G01X1000900Y-3377833D01*
G01X1000900Y-3442227D01*
G01X976658Y-3442227D01*
G37*
G36*
G01X1219082Y-3442227D02*
G01X1219082Y-3390712D01*
G01X1243324Y-3390712D01*
G01X1243703Y-3419121D01*
G01X1265673Y-3419500D01*
G01X1289915Y-3419121D01*
G01X1294461Y-3418364D01*
G01X1300521Y-3416848D01*
G01X1303552Y-3415712D01*
G01X1306582Y-3414197D01*
G01X1309233Y-3412303D01*
G01X1313021Y-3408515D01*
G01X1314536Y-3406242D01*
G01X1315673Y-3403591D01*
G01X1316809Y-3400561D01*
G01X1317567Y-3393743D01*
G01X1317188Y-3385788D01*
G01X1316051Y-3380864D01*
G01X1314536Y-3376697D01*
G01X1313021Y-3374045D01*
G01X1311127Y-3371394D01*
G01X1308855Y-3368742D01*
G01X1306203Y-3366848D01*
G01X1302415Y-3364955D01*
G01X1299006Y-3363818D01*
G01X1293703Y-3363061D01*
G01X1267945Y-3362682D01*
G01X1243324Y-3362682D01*
G01X1243324Y-3390712D01*
G01X1243324Y-3390712D01*
G01X1219082Y-3390712D01*
G01X1219082Y-3314197D01*
G01X1243324Y-3314197D01*
G01X1243703Y-3340333D01*
G01X1264915Y-3340712D01*
G01X1286885Y-3340333D01*
G01X1291430Y-3339954D01*
G01X1297491Y-3339197D01*
G01X1302036Y-3337682D01*
G01X1305067Y-3336167D01*
G01X1308097Y-3333894D01*
G01X1311506Y-3330485D01*
G01X1313779Y-3326318D01*
G01X1314915Y-3322909D01*
G01X1315294Y-3317227D01*
G01X1314915Y-3309273D01*
G01X1313779Y-3304348D01*
G01X1312264Y-3300939D01*
G01X1310748Y-3298288D01*
G01X1309233Y-3296394D01*
G01X1307339Y-3294500D01*
G01X1305445Y-3292985D01*
G01X1303173Y-3291848D01*
G01X1300521Y-3290712D01*
G01X1297112Y-3289576D01*
G01X1293703Y-3288818D01*
G01X1267945Y-3288439D01*
G01X1243324Y-3288439D01*
G01X1243324Y-3314197D01*
G01X1243324Y-3314197D01*
G01X1219082Y-3314197D01*
G01X1219082Y-3264955D01*
G01X1255067Y-3264955D01*
G01X1292188Y-3265333D01*
G01X1295597Y-3265712D01*
G01X1299764Y-3266091D01*
G01X1304309Y-3266848D01*
G01X1309233Y-3267985D01*
G01X1313400Y-3269500D01*
G01X1317188Y-3271015D01*
G01X1320597Y-3272909D01*
G01X1323249Y-3274424D01*
G01X1325142Y-3275939D01*
G01X1329688Y-3280485D01*
G01X1331960Y-3283515D01*
G01X1335748Y-3289576D01*
G01X1336885Y-3292606D01*
G01X1338021Y-3296015D01*
G01X1339158Y-3300182D01*
G01X1339915Y-3303970D01*
G01X1340294Y-3311167D01*
G01X1339915Y-3318364D01*
G01X1339158Y-3322530D01*
G01X1338021Y-3326697D01*
G01X1336506Y-3330106D01*
G01X1334991Y-3333136D01*
G01X1333476Y-3335788D01*
G01X1331582Y-3338439D01*
G01X1329688Y-3340333D01*
G01X1328173Y-3342227D01*
G01X1325900Y-3344121D01*
G01X1323249Y-3346015D01*
G01X1317188Y-3349045D01*
G01X1313400Y-3350182D01*
G01X1310370Y-3351318D01*
G01X1310559Y-3351981D01*
G01X1311885Y-3352455D01*
G01X1315294Y-3353591D01*
G01X1319082Y-3355106D01*
G01X1322112Y-3356621D01*
G01X1324764Y-3358136D01*
G01X1327415Y-3360030D01*
G01X1333476Y-3366091D01*
G01X1335748Y-3369500D01*
G01X1337642Y-3372909D01*
G01X1339536Y-3376697D01*
G01X1341051Y-3381242D01*
G01X1342188Y-3385030D01*
G01X1342567Y-3392606D01*
G01X1342188Y-3400939D01*
G01X1341430Y-3405485D01*
G01X1340294Y-3410409D01*
G01X1338779Y-3414576D01*
G01X1337264Y-3417606D01*
G01X1335748Y-3420258D01*
G01X1334233Y-3422530D01*
G01X1329688Y-3428212D01*
G01X1327794Y-3430106D01*
G01X1325900Y-3431621D01*
G01X1323249Y-3433515D01*
G01X1319461Y-3435788D01*
G01X1316051Y-3437682D01*
G01X1312264Y-3439197D01*
G01X1308855Y-3440333D01*
G01X1301279Y-3441849D01*
G01X1259612Y-3442227D01*
G01X1219082Y-3442227D01*
G37*
G04 Text End*
G54D10*

M02*

