;TYPE=PLATED
;Layer: PTH_Through_Via
;EasyEDA Pro Client v2.2.47.7, 2026-05-04 20:37:10
;Gerber Generator version 0.3
M48
METRIC,LZ,0000.00000
;Hole size 1 = 0.30500 METRIC
T01C0.30500
%
G05
G90
T01
X23.11387Y-46.49813
X42.545Y-42.037
X39.751Y-43.815
X37.973Y-46.609
X34.671Y-48.26
X33.528Y-51.308
X29.972Y-52.705
X27.051Y-55.499
X24.92156Y-57.63579
X23.241Y-59.436
X20.90236Y-61.75696
X17.97632Y-64.632
X18.288Y-71.374
X18.288Y-76.835
X44.196Y-44.323
X41.91Y-46.355
X39.751Y-48.26
X37.846Y-50.165
X36.195Y-51.816
X34.29Y-53.848
X32.304Y-58.39209
X29.718Y-61.214
X25.146Y-61.087
X26.65742Y-65.17505
X21.336Y-64.516
X26.416Y-97.155
X27.559Y-98.171
X23.622Y-103.759
X26.543Y-104.394
X42.926Y-79.756
X4.7526Y-116.1514
X4.7526Y-113.1514
X4.7526Y-110.1514
X4.7526Y-107.1514
X4.7526Y-104.1514
X4.7526Y-101.15141
X4.7526Y-98.15141
X4.7526Y-95.15141
X4.7526Y-71.15141
X4.7526Y-68.15142
X4.7526Y-65.15142
X4.7526Y-62.15142
X4.7526Y-59.15142
X4.7526Y-56.15142
X4.7526Y-41.15142
X4.7526Y-38.15142
X4.7526Y-35.15143
X4.7526Y-32.15143
X4.7526Y-29.15143
X4.7526Y-26.15143
X4.7526Y-23.15143
X4.7526Y-20.15143
X4.7526Y-17.15143
X4.7526Y-14.15143
X4.7526Y-11.15143
X7.7526Y-116.1514
X7.7526Y-113.1514
X7.7526Y-110.1514
X7.7526Y-107.1514
X7.7526Y-104.1514
X7.7526Y-101.15141
X7.7526Y-95.15141
X7.7526Y-92.15141
X7.7526Y-89.15141
X7.7526Y-86.15141
X7.7526Y-83.15141
X7.7526Y-77.15141
X7.7526Y-71.15141
X7.7526Y-68.15142
X7.7526Y-65.15142
X7.7526Y-62.15142
X7.7526Y-59.15142
X7.7526Y-50.15142
X8.2606Y-47.15142
X7.7526Y-41.15142
X7.7526Y-38.15142
X7.7526Y-35.15143
X7.7526Y-32.15143
X7.7526Y-29.15143
X7.7526Y-26.15143
X7.7526Y-23.15143
X7.7526Y-20.15143
X7.7526Y-17.15143
X7.7526Y-14.15143
X7.7526Y-11.15143
X10.7526Y-116.1514
X10.7526Y-113.1514
X10.7526Y-110.1514
X10.7526Y-107.1514
X10.7526Y-104.1514
X10.7526Y-98.15141
X10.7526Y-95.15141
X10.7526Y-86.15141
X10.7526Y-53.15142
X10.7526Y-50.15142
X10.66764Y-47.12474
X10.7526Y-41.15142
X10.7526Y-38.15142
X10.7526Y-35.15143
X10.7526Y-32.15143
X10.7526Y-29.15143
X10.7526Y-26.15143
X10.7526Y-23.15143
X10.7526Y-20.15143
X10.7526Y-17.15143
X10.7526Y-14.15143
X10.7526Y-11.15143
X13.7526Y-116.1514
X13.7526Y-113.1514
X13.8796Y-101.15141
X13.7526Y-95.15141
X13.7526Y-92.15141
X13.7526Y-89.15141
X13.7526Y-86.15141
X13.7526Y-83.15141
X13.7526Y-80.15141
X13.7526Y-77.15141
X13.7526Y-74.15141
X13.7526Y-71.15141
X13.7526Y-62.15142
X13.7526Y-59.15142
X11.2126Y-56.53242
X13.7526Y-53.15142
X13.7526Y-50.15142
X13.7526Y-41.15142
X13.7526Y-38.15142
X13.7526Y-35.15143
X13.7526Y-32.15143
X13.7526Y-29.15143
X13.7526Y-26.15143
X13.7526Y-23.15143
X13.7526Y-20.15143
X13.7526Y-17.15143
X13.7526Y-14.15143
X13.7526Y-11.15143
X16.7526Y-116.1514
X16.7526Y-113.1514
X17.2606Y-101.15141
X16.7526Y-95.15141
X16.7526Y-89.15141
X16.6256Y-59.53242
X16.7526Y-50.15142
X16.7526Y-47.15142
X16.7526Y-41.15142
X16.7526Y-38.15142
X16.7526Y-35.15143
X16.7526Y-32.15143
X16.7526Y-29.15143
X16.7526Y-26.15143
X16.7526Y-23.15143
X16.7526Y-20.15143
X16.7526Y-17.15143
X16.7526Y-14.15143
X16.7526Y-11.15143
X19.75259Y-116.1514
X19.75259Y-113.1514
X19.75259Y-110.1514
X19.75259Y-107.1514
X19.75259Y-101.15141
X19.75259Y-98.15141
X19.75259Y-47.15142
X19.75259Y-41.15142
X19.75259Y-38.15142
X19.75259Y-35.15143
X19.75259Y-32.15143
X19.75259Y-29.15143
X19.75259Y-26.15143
X19.75259Y-23.15143
X19.75259Y-20.15143
X19.75259Y-17.15143
X19.75259Y-14.15143
X19.75259Y-11.15143
X22.75259Y-116.1514
X22.75259Y-113.1514
X22.75259Y-110.1514
X22.75259Y-107.1514
X22.75259Y-92.15141
X22.75259Y-86.15141
X22.75259Y-83.15141
X22.75259Y-80.15141
X22.75259Y-77.15141
X22.75259Y-74.15141
X22.75259Y-68.15142
X22.75259Y-65.15142
X22.75259Y-53.15142
X22.75259Y-41.15142
X22.75259Y-38.15142
X22.75259Y-35.15143
X22.75259Y-32.15143
X22.75259Y-11.15143
X25.75259Y-116.1514
X25.75259Y-113.1514
X25.75259Y-110.1514
X25.75259Y-107.1514
X25.75259Y-101.15141
X25.75259Y-77.15141
X25.75259Y-74.15141
X25.75259Y-71.15141
X25.75259Y-65.15142
X25.75259Y-50.15142
X25.75259Y-41.15142
X25.75259Y-38.15142
X25.75259Y-35.15143
X25.75259Y-32.15143
X25.75259Y-11.15143
X28.75259Y-116.1514
X28.75259Y-113.1514
X28.75259Y-110.1514
X28.75259Y-107.1514
X28.75259Y-98.15141
X28.75259Y-92.15141
X28.75259Y-89.15141
X28.75259Y-86.15141
X28.75259Y-71.15141
X28.75259Y-59.15142
X28.75259Y-47.15142
X28.75259Y-41.15142
X28.75259Y-38.15142
X28.75259Y-35.15143
X28.75259Y-32.15143
X28.75259Y-11.15143
X31.75259Y-116.1514
X31.75259Y-113.1514
X31.75259Y-110.1514
X31.75259Y-107.1514
X31.75259Y-98.15141
X31.75259Y-71.15141
X31.75259Y-65.15142
X31.75259Y-62.15142
X31.75259Y-59.15142
X31.75259Y-41.15142
X31.75259Y-38.15142
X31.75259Y-35.15143
X31.75259Y-32.15143
X31.75259Y-29.15143
X31.75259Y-26.15143
X31.75259Y-23.15143
X31.75259Y-20.15143
X31.75259Y-17.15143
X31.75259Y-14.15143
X31.75259Y-11.15143
X34.75259Y-116.1514
X34.75259Y-113.1514
X34.75259Y-89.15141
X34.75259Y-77.15141
X34.75259Y-71.15141
X34.75259Y-68.15142
X34.75259Y-62.15142
X34.75259Y-59.15142
X34.75259Y-56.15142
X34.75259Y-53.15142
X34.75259Y-50.15142
X34.75259Y-41.15142
X34.75259Y-38.15142
X34.75259Y-35.15143
X34.75259Y-32.15143
X34.75259Y-29.15143
X34.75259Y-26.15143
X34.75259Y-23.15143
X34.75259Y-20.15143
X34.75259Y-17.15143
X34.75259Y-14.15143
X34.75259Y-11.15143
X37.75259Y-116.1514
X37.75259Y-113.1514
X37.75259Y-110.1514
X37.75259Y-107.1514
X37.75259Y-83.15141
X37.75259Y-77.15141
X37.75259Y-74.15141
X37.75259Y-71.15141
X37.75259Y-68.15142
X37.75259Y-65.15142
X37.75259Y-59.15142
X37.75259Y-56.15142
X37.75259Y-53.15142
X37.75259Y-38.15142
X37.75259Y-35.15143
X37.75259Y-32.15143
X37.75259Y-29.15143
X37.75259Y-26.15143
X37.75259Y-23.15143
X37.75259Y-20.15143
X37.75259Y-17.15143
X37.75259Y-14.15143
X37.75259Y-11.15143
X40.75259Y-116.1514
X40.75259Y-113.1514
X40.75259Y-110.1514
X40.75259Y-107.1514
X40.75259Y-104.1514
X40.75259Y-101.15141
X40.75259Y-71.15141
X40.75259Y-44.15142
X40.75259Y-35.15143
X40.75259Y-32.15143
X40.75259Y-29.15143
X40.75259Y-26.15143
X40.75259Y-23.15143
X40.75259Y-20.15143
X40.75259Y-17.15143
X40.75259Y-14.15143
X40.75259Y-11.15143
X43.75259Y-116.1514
X43.75259Y-113.1514
X43.75259Y-110.1514
X43.75259Y-107.1514
X43.75259Y-101.15141
X43.75259Y-83.15141
X43.75259Y-77.15141
X43.75259Y-74.15141
X43.75259Y-68.15142
X43.75259Y-65.15142
X43.75259Y-62.15142
X43.75259Y-59.15142
X43.75259Y-56.15142
X43.75259Y-53.15142
X43.75259Y-50.15142
X43.75259Y-47.15142
X43.75259Y-38.15142
X43.75259Y-32.15143
X43.75259Y-29.15143
X43.75259Y-26.15143
X43.75259Y-23.15143
X43.75259Y-20.15143
X43.75259Y-17.15143
X43.75259Y-14.15143
X43.75259Y-11.15143
X46.75259Y-116.1514
X46.75259Y-113.1514
X46.75259Y-71.15141
X46.75259Y-29.15143
X46.75259Y-26.15143
X46.75259Y-23.15143
X46.75259Y-20.15143
X46.75259Y-17.15143
X46.75259Y-14.15143
X46.75259Y-11.15143
X13.62814Y-110.1514
X13.62814Y-107.1514
X13.62814Y-98.15141
X19.62813Y-89.15141
X19.62813Y-53.15142
X28.62813Y-80.15141
X28.62813Y-77.15141
X31.62813Y-92.15141
X31.62813Y-89.15141
X37.62813Y-62.15142
X37.62813Y-47.15142
X40.62813Y-98.15141
X43.62813Y-41.15142
X44.45Y-97.282
X45.085Y-94.869
X36.576Y-91.821
X34.544Y-93.599
X28.702Y-93.98
X36.449Y-86.487
X29.464Y-100.203
X29.464Y-103.61604
X15.367Y-103.505
X18.288Y-58.674
X8.128Y-45.212
X14.224Y-45.593
X15.748Y-65.151
X13.462Y-67.056
X20.066Y-69.342
X17.272Y-53.65765
X18.288Y-57.404
M30