;TYPE=PLATED
;Layer: PTH_Through
;EasyEDA Pro Client v2.2.47.7, 2026-04-30 22:47:58
;Gerber Generator version 0.3
M48
METRIC,LZ,0000.00000
;Hole size 1 = 0.30500 METRIC
T01C0.30500
;Hole size 2 = 0.60000 METRIC
T02C0.60000
;Hole size 3 = 1.00000 METRIC
T03C1.00000
;Hole size 4 = 1.04999 METRIC
T04C1.04999
;Hole size 5 = 1.10002 METRIC
T05C1.10002
;Hole size 6 = 1.20000 METRIC
T06C1.20000
;Hole size 7 = 1.30002 METRIC
T07C1.30002
;Hole size 8 = 1.50002 METRIC
T08C1.50002
%
G05
G90
T01
X23.11387Y-46.49813
X42.545Y-42.037
X39.751Y-43.815
X37.973Y-46.609
X34.671Y-48.26
X33.528Y-51.308
X29.972Y-52.705
X27.051Y-55.499
X24.92156Y-57.63579
X23.241Y-59.436
X20.90236Y-61.75696
X17.97632Y-64.632
X18.288Y-71.374
X18.288Y-76.835
X44.196Y-44.323
X41.91Y-46.355
X39.751Y-48.26
X37.846Y-50.165
X36.195Y-51.816
X34.29Y-53.848
X32.304Y-58.39209
X29.718Y-61.214
X25.146Y-61.087
X26.65742Y-65.17505
X21.336Y-64.516
X26.416Y-97.155
X27.559Y-98.171
X23.622Y-103.759
X26.543Y-104.394
X42.926Y-79.756
X4.7526Y-116.1514
X4.7526Y-113.1514
X4.7526Y-110.1514
X4.7526Y-107.1514
X4.7526Y-104.1514
X4.7526Y-101.15141
X4.7526Y-98.15141
X4.7526Y-95.15141
X4.7526Y-71.15141
X4.7526Y-68.15142
X4.7526Y-65.15142
X4.7526Y-62.15142
X4.7526Y-59.15142
X4.7526Y-56.15142
X4.7526Y-41.15142
X4.7526Y-38.15142
X4.7526Y-35.15143
X4.7526Y-32.15143
X4.7526Y-29.15143
X4.7526Y-26.15143
X4.7526Y-23.15143
X4.7526Y-20.15143
X4.7526Y-17.15143
X4.7526Y-14.15143
X4.7526Y-11.15143
X7.7526Y-116.1514
X7.7526Y-113.1514
X7.7526Y-110.1514
X7.7526Y-107.1514
X7.7526Y-104.1514
X7.7526Y-101.15141
X7.7526Y-95.15141
X7.7526Y-92.15141
X7.7526Y-89.15141
X7.7526Y-86.15141
X7.7526Y-83.15141
X7.7526Y-77.15141
X7.7526Y-71.15141
X7.7526Y-68.15142
X7.7526Y-65.15142
X7.7526Y-62.15142
X7.7526Y-59.15142
X7.7526Y-50.15142
X8.2606Y-47.15142
X7.7526Y-41.15142
X7.7526Y-38.15142
X7.7526Y-35.15143
X7.7526Y-32.15143
X7.7526Y-29.15143
X7.7526Y-26.15143
X7.7526Y-23.15143
X7.7526Y-20.15143
X7.7526Y-17.15143
X7.7526Y-14.15143
X7.7526Y-11.15143
X10.7526Y-116.1514
X10.7526Y-113.1514
X10.7526Y-110.1514
X10.7526Y-107.1514
X10.7526Y-104.1514
X10.7526Y-98.15141
X10.7526Y-95.15141
X10.7526Y-86.15141
X10.7526Y-53.15142
X10.7526Y-50.15142
X10.66764Y-47.12474
X10.7526Y-41.15142
X10.7526Y-38.15142
X10.7526Y-35.15143
X10.7526Y-32.15143
X10.7526Y-29.15143
X10.7526Y-26.15143
X10.7526Y-23.15143
X10.7526Y-20.15143
X10.7526Y-17.15143
X10.7526Y-14.15143
X10.7526Y-11.15143
X13.7526Y-116.1514
X13.7526Y-113.1514
X13.8796Y-101.15141
X13.7526Y-95.15141
X13.7526Y-92.15141
X13.7526Y-89.15141
X13.7526Y-86.15141
X13.7526Y-83.15141
X13.7526Y-80.15141
X13.7526Y-77.15141
X13.7526Y-74.15141
X13.7526Y-71.15141
X13.7526Y-62.15142
X13.7526Y-59.15142
X11.2126Y-56.53242
X13.7526Y-53.15142
X13.7526Y-50.15142
X13.7526Y-41.15142
X13.7526Y-38.15142
X13.7526Y-35.15143
X13.7526Y-32.15143
X13.7526Y-29.15143
X13.7526Y-26.15143
X13.7526Y-23.15143
X13.7526Y-20.15143
X13.7526Y-17.15143
X13.7526Y-14.15143
X13.7526Y-11.15143
X16.7526Y-116.1514
X16.7526Y-113.1514
X17.2606Y-101.15141
X16.7526Y-95.15141
X16.7526Y-89.15141
X16.6256Y-59.53242
X16.7526Y-50.15142
X16.7526Y-47.15142
X16.7526Y-41.15142
X16.7526Y-38.15142
X16.7526Y-35.15143
X16.7526Y-32.15143
X16.7526Y-29.15143
X16.7526Y-26.15143
X16.7526Y-23.15143
X16.7526Y-20.15143
X16.7526Y-17.15143
X16.7526Y-14.15143
X16.7526Y-11.15143
X19.75259Y-116.1514
X19.75259Y-113.1514
X19.75259Y-110.1514
X19.75259Y-107.1514
X19.75259Y-101.15141
X19.75259Y-98.15141
X19.75259Y-47.15142
X19.75259Y-41.15142
X19.75259Y-38.15142
X19.75259Y-35.15143
X19.75259Y-32.15143
X19.75259Y-29.15143
X19.75259Y-26.15143
X19.75259Y-23.15143
X19.75259Y-20.15143
X19.75259Y-17.15143
X19.75259Y-14.15143
X19.75259Y-11.15143
X22.75259Y-116.1514
X22.75259Y-113.1514
X22.75259Y-110.1514
X22.75259Y-107.1514
X22.75259Y-92.15141
X22.75259Y-86.15141
X22.75259Y-83.15141
X22.75259Y-80.15141
X22.75259Y-77.15141
X22.75259Y-74.15141
X22.75259Y-68.15142
X22.75259Y-65.15142
X22.75259Y-53.15142
X22.75259Y-41.15142
X22.75259Y-38.15142
X22.75259Y-35.15143
X22.75259Y-32.15143
X22.75259Y-11.15143
X25.75259Y-116.1514
X25.75259Y-113.1514
X25.75259Y-110.1514
X25.75259Y-107.1514
X25.75259Y-101.15141
X25.75259Y-77.15141
X25.75259Y-74.15141
X25.75259Y-71.15141
X25.75259Y-65.15142
X25.75259Y-50.15142
X25.75259Y-41.15142
X25.75259Y-38.15142
X25.75259Y-35.15143
X25.75259Y-32.15143
X25.75259Y-11.15143
X28.75259Y-116.1514
X28.75259Y-113.1514
X28.75259Y-110.1514
X28.75259Y-107.1514
X28.75259Y-98.15141
X28.75259Y-92.15141
X28.75259Y-89.15141
X28.75259Y-86.15141
X28.75259Y-71.15141
X28.75259Y-59.15142
X28.75259Y-47.15142
X28.75259Y-41.15142
X28.75259Y-38.15142
X28.75259Y-35.15143
X28.75259Y-32.15143
X28.75259Y-11.15143
X31.75259Y-116.1514
X31.75259Y-113.1514
X31.75259Y-110.1514
X31.75259Y-107.1514
X31.75259Y-98.15141
X31.75259Y-71.15141
X31.75259Y-65.15142
X31.75259Y-62.15142
X31.75259Y-59.15142
X31.75259Y-41.15142
X31.75259Y-38.15142
X31.75259Y-35.15143
X31.75259Y-32.15143
X31.75259Y-29.15143
X31.75259Y-26.15143
X31.75259Y-23.15143
X31.75259Y-20.15143
X31.75259Y-17.15143
X31.75259Y-14.15143
X31.75259Y-11.15143
X34.75259Y-116.1514
X34.75259Y-113.1514
X34.75259Y-89.15141
X34.75259Y-77.15141
X34.75259Y-71.15141
X34.75259Y-68.15142
X34.75259Y-62.15142
X34.75259Y-59.15142
X34.75259Y-56.15142
X34.75259Y-53.15142
X34.75259Y-50.15142
X34.75259Y-41.15142
X34.75259Y-38.15142
X34.75259Y-35.15143
X34.75259Y-32.15143
X34.75259Y-29.15143
X34.75259Y-26.15143
X34.75259Y-23.15143
X34.75259Y-20.15143
X34.75259Y-17.15143
X34.75259Y-14.15143
X34.75259Y-11.15143
X37.75259Y-116.1514
X37.75259Y-113.1514
X37.75259Y-110.1514
X37.75259Y-107.1514
X37.75259Y-83.15141
X37.75259Y-77.15141
X37.75259Y-74.15141
X37.75259Y-71.15141
X37.75259Y-68.15142
X37.75259Y-65.15142
X37.75259Y-59.15142
X37.75259Y-56.15142
X37.75259Y-53.15142
X37.75259Y-38.15142
X37.75259Y-35.15143
X37.75259Y-32.15143
X37.75259Y-29.15143
X37.75259Y-26.15143
X37.75259Y-23.15143
X37.75259Y-20.15143
X37.75259Y-17.15143
X37.75259Y-14.15143
X37.75259Y-11.15143
X40.75259Y-116.1514
X40.75259Y-113.1514
X40.75259Y-110.1514
X40.75259Y-107.1514
X40.75259Y-104.1514
X40.75259Y-101.15141
X40.75259Y-71.15141
X40.75259Y-44.15142
X40.75259Y-35.15143
X40.75259Y-32.15143
X40.75259Y-29.15143
X40.75259Y-26.15143
X40.75259Y-23.15143
X40.75259Y-20.15143
X40.75259Y-17.15143
X40.75259Y-14.15143
X40.75259Y-11.15143
X43.75259Y-116.1514
X43.75259Y-113.1514
X43.75259Y-110.1514
X43.75259Y-107.1514
X43.75259Y-101.15141
X43.75259Y-83.15141
X43.75259Y-77.15141
X43.75259Y-74.15141
X43.75259Y-68.15142
X43.75259Y-65.15142
X43.75259Y-62.15142
X43.75259Y-59.15142
X43.75259Y-56.15142
X43.75259Y-53.15142
X43.75259Y-50.15142
X43.75259Y-47.15142
X43.75259Y-38.15142
X43.75259Y-32.15143
X43.75259Y-29.15143
X43.75259Y-26.15143
X43.75259Y-23.15143
X43.75259Y-20.15143
X43.75259Y-17.15143
X43.75259Y-14.15143
X43.75259Y-11.15143
X46.75259Y-116.1514
X46.75259Y-113.1514
X46.75259Y-71.15141
X46.75259Y-29.15143
X46.75259Y-26.15143
X46.75259Y-23.15143
X46.75259Y-20.15143
X46.75259Y-17.15143
X46.75259Y-14.15143
X46.75259Y-11.15143
X13.62814Y-110.1514
X13.62814Y-107.1514
X13.62814Y-98.15141
X19.62813Y-89.15141
X19.62813Y-53.15142
X28.62813Y-80.15141
X28.62813Y-77.15141
X31.62813Y-92.15141
X31.62813Y-89.15141
X37.62813Y-62.15142
X37.62813Y-47.15142
X40.62813Y-98.15141
X43.62813Y-41.15142
X44.45Y-97.282
X45.085Y-94.869
X36.576Y-91.821
X34.544Y-93.599
X28.702Y-93.98
X36.449Y-86.487
X29.464Y-100.203
X29.464Y-103.61604
X15.367Y-103.505
X18.288Y-58.674
X8.128Y-45.212
X14.224Y-45.593
X15.748Y-65.151
X13.462Y-67.056
X20.066Y-69.342
X17.272Y-53.65765
X18.288Y-57.404
T02
X20.82Y-75.262G85X19.82Y-75.262
X20.82Y-78.362G85X19.82Y-78.362
X20.82Y-66.962G85X19.82Y-66.962
X30.853Y-75.262G85X29.853Y-75.262
X30.853Y-78.362G85X29.853Y-78.362
X30.853Y-66.962G85X29.853Y-66.962
X40.886Y-75.262G85X39.886Y-75.262
X40.886Y-78.362G85X39.886Y-78.362
X40.886Y-66.962G85X39.886Y-66.962
X10.787Y-75.262G85X9.787Y-75.262
X10.787Y-78.362G85X9.787Y-78.362
X10.787Y-66.962G85X9.787Y-66.962
X40.886Y-90.121G85X39.886Y-90.121
X40.886Y-93.221G85X39.886Y-93.221
X40.886Y-81.821G85X39.886Y-81.821
X10.787Y-90.121G85X9.787Y-90.121
X10.787Y-93.221G85X9.787Y-93.221
X10.787Y-81.821G85X9.787Y-81.821
X25.9Y-90.121G85X24.9Y-90.121
X25.9Y-93.221G85X24.9Y-93.221
X25.9Y-81.821G85X24.9Y-81.821
X15.867Y-107.52G85X14.867Y-107.52
X15.867Y-110.62G85X14.867Y-110.62
X15.867Y-99.22G85X14.867Y-99.22
X35.933Y-107.52G85X34.933Y-107.52
X35.933Y-110.62G85X34.933Y-110.62
X35.933Y-99.22G85X34.933Y-99.22
T03
X9.43801Y-48.19287
X11.938Y-48.19287
X14.438Y-48.19287
T04
X46.22797Y-73.279
X46.22797Y-75.819
X46.22797Y-78.359
X46.22797Y-80.899
X46.22797Y-83.439
X46.22797Y-85.979
X46.22797Y-88.519
X46.22797Y-91.059
X46.22797Y-93.599
X46.22797Y-96.139
X46.22797Y-98.679
X46.22797Y-101.219
T05
X46.228Y-50.673
X46.228Y-48.133
X46.228Y-45.593
X46.228Y-43.053
X46.228Y-40.513
X46.228Y-37.973
X46.228Y-35.433
X46.228Y-32.893
X4.318Y-91.059
X4.318Y-88.519
X4.318Y-85.979
X4.318Y-83.439
X4.318Y-80.899
X4.318Y-78.359
X4.318Y-75.819
X4.318Y-73.279
X4.318Y-45.339
X4.318Y-47.879
X4.318Y-50.419
X4.318Y-52.959
T06
X16.988Y-55.69295G85X16.388Y-55.69295
X7.488Y-55.69295G85X6.888Y-55.69295
T07
X23.11387Y-63.25705
X25.65387Y-63.25705
X28.19387Y-63.25705
X23.11387Y-48.75695
X28.19387Y-48.75695
T08
X31.15386Y-55.00695G85X31.15386Y-56.50692
X20.15388Y-55.00695G85X20.15388Y-56.50692
M30