G04 Layer: TopLayer*
G04 EasyEDA Pro v2.2.47.7, 2026-04-30 22:47:58*
G04 Gerber Generator version 0.3*
G04 Scale: 100 percent, Rotated: No, Reflected: No*
G04 Dimensions in millimeters*
G04 Leading zeros omitted, absolute positions, 4 integers and 5 decimals*
G04 Generated by one-click*
G04 Object Configs: Pad,Via,Track,Text,Image,Dimension,BoardOutline,BoardCutout,CopperFilled,SolidRegion,FPCStiffener,Line,PlaneZone,ComponentProperty,ComponentSilkscreen,TearDrop*
G04 Layer Configs: 1,15,16,2,3,4,5,6,7,8,9,10,11,13,14,71,72,56*
G04 Copper Areas: 135*
%FSLAX45Y45*%
%MOMM*%
%AMRoundRect*1,1,$1,$2,$3*1,1,$1,$4,$5*1,1,$1,0-$2,0-$3*1,1,$1,0-$4,0-$5*20,1,$1,$2,$3,$4,$5,0*20,1,$1,$4,$5,0-$2,0-$3,0*20,1,$1,0-$2,0-$3,0-$4,0-$5,0*20,1,$1,0-$4,0-$5,$2,$3,0*4,1,4,$2,$3,$4,$5,0-$2,0-$3,0-$4,0-$5,$2,$3,0*%
%ADD10C,0.2032*%
%ADD11C,0.254*%
%ADD12R,1.13254X1.37701*%
%ADD13R,1.37701X1.13254*%
%ADD14RoundRect,1.3X-0.65X0.65X0.65X0.65*%
%ADD15O,3.1X2.1*%
%ADD16R,1.07X0.6*%
%ADD17C,1.8*%
%ADD18O,2.3035X3.99999*%
%ADD19O,2.3X3.99999*%
%ADD20C,1.7*%
%ADD21R,1.7X1.5748*%
%ADD22R,1.7X1.7*%
%ADD23R,1.41X1.35001*%
%ADD24O,2.79999X2.0*%
%ADD25C,0.61*%
G75*


G04 Copper Start*
G36*
G01X175260Y-11915140D02*
G01X175260Y-11073628D01*
G01X1346367Y-11073628D01*
G01X1350195Y-11096568D01*
G01X1357746Y-11118564D01*
G01X1368815Y-11139018D01*
G01X1383100Y-11157371D01*
G01X1400210Y-11173122D01*
G01X1419680Y-11185842D01*
G01X1440978Y-11195184D01*
G01X1463523Y-11200893D01*
G01X1486700Y-11202814D01*
G01X1586700Y-11202814D01*
G01X1609877Y-11200893D01*
G01X1632422Y-11195184D01*
G01X1653720Y-11185842D01*
G01X1673190Y-11173122D01*
G01X1690300Y-11157371D01*
G01X1704585Y-11139018D01*
G01X1715654Y-11118564D01*
G01X1723205Y-11096568D01*
G01X1727033Y-11073628D01*
G01X1727033Y-11050372D01*
G01X3352967Y-11050372D01*
G01X3352967Y-11073628D01*
G01X3356795Y-11096568D01*
G01X3364346Y-11118564D01*
G01X3375415Y-11139018D01*
G01X3389700Y-11157371D01*
G01X3406810Y-11173122D01*
G01X3426280Y-11185842D01*
G01X3447578Y-11195184D01*
G01X3470123Y-11200893D01*
G01X3493300Y-11202814D01*
G01X3593300Y-11202814D01*
G01X3616477Y-11200893D01*
G01X3639022Y-11195184D01*
G01X3660320Y-11185842D01*
G01X3679790Y-11173122D01*
G01X3696900Y-11157371D01*
G01X3711185Y-11139018D01*
G01X3722254Y-11118564D01*
G01X3729805Y-11096568D01*
G01X3733633Y-11073628D01*
G01X3733633Y-11050372D01*
G01X3729805Y-11027432D01*
G01X3722254Y-11005436D01*
G01X3711185Y-10984982D01*
G01X3705807Y-10978073D01*
G01X4492735Y-10978073D01*
G01X4492735Y-11091327D01*
G01X4494488Y-11102394D01*
G01X4499575Y-11112378D01*
G01X4507499Y-11120301D01*
G01X4517482Y-11125388D01*
G01X4528549Y-11127141D01*
G01X4666251Y-11127141D01*
G01X4666251Y-11127141D01*
G01X4677318Y-11125388D01*
G01X4687301Y-11120301D01*
G01X4695225Y-11112378D01*
G01X4700312Y-11102394D01*
G01X4702065Y-11091327D01*
G01X4702065Y-10978073D01*
G01X4700312Y-10967006D01*
G01X4695225Y-10957022D01*
G01X4687301Y-10949099D01*
G01X4677318Y-10944012D01*
G01X4666251Y-10942259D01*
G01X4528549Y-10942259D01*
G01X4517482Y-10944012D01*
G01X4507499Y-10949099D01*
G01X4499575Y-10957022D01*
G01X4494488Y-10967006D01*
G01X4492735Y-10978073D01*
G01X3705807Y-10978073D01*
G01X3696900Y-10966629D01*
G01X3679790Y-10950878D01*
G01X3660320Y-10938158D01*
G01X3639022Y-10928816D01*
G01X3616477Y-10923106D01*
G01X3593300Y-10921186D01*
G01X3593300Y-10921186D01*
G01X3493300Y-10921186D01*
G01X3470123Y-10923106D01*
G01X3447578Y-10928816D01*
G01X3426280Y-10938158D01*
G01X3406810Y-10950878D01*
G01X3389700Y-10966629D01*
G01X3375415Y-10984982D01*
G01X3364346Y-11005436D01*
G01X3356795Y-11027432D01*
G01X3352967Y-11050372D01*
G01X1727033Y-11050372D01*
G01X1723205Y-11027432D01*
G01X1715654Y-11005436D01*
G01X1704585Y-10984982D01*
G01X1690300Y-10966629D01*
G01X1673190Y-10950878D01*
G01X1653720Y-10938158D01*
G01X1632422Y-10928816D01*
G01X1609877Y-10923106D01*
G01X1586700Y-10921186D01*
G01X1586700Y-10921186D01*
G01X1486700Y-10921186D01*
G01X1463523Y-10923106D01*
G01X1440978Y-10928816D01*
G01X1419680Y-10938158D01*
G01X1400210Y-10950878D01*
G01X1383100Y-10966629D01*
G01X1368815Y-10984982D01*
G01X1357746Y-11005436D01*
G01X1350195Y-11027432D01*
G01X1346367Y-11050372D01*
G01X1346367Y-11073628D01*
G01X175260Y-11073628D01*
G01X175260Y-10687000D01*
G01X1370886Y-10687000D01*
G01X1370886Y-10817000D01*
G01X1372823Y-10836668D01*
G01X1378560Y-10855580D01*
G01X1387876Y-10873009D01*
G01X1400414Y-10888286D01*
G01X1415691Y-10900824D01*
G01X1433120Y-10910140D01*
G01X1452032Y-10915877D01*
G01X1471700Y-10917814D01*
G01X1601700Y-10917814D01*
G01X1601700Y-10917814D01*
G01X1621368Y-10915877D01*
G01X1640280Y-10910140D01*
G01X1657709Y-10900824D01*
G01X1672986Y-10888286D01*
G01X1685524Y-10873009D01*
G01X1694840Y-10855580D01*
G01X1700577Y-10836668D01*
G01X1702514Y-10817000D01*
G01X1702514Y-10687000D01*
G01X3377486Y-10687000D01*
G01X3377486Y-10817000D01*
G01X3379423Y-10836668D01*
G01X3385160Y-10855580D01*
G01X3394476Y-10873009D01*
G01X3407014Y-10888286D01*
G01X3422291Y-10900824D01*
G01X3439720Y-10910140D01*
G01X3458632Y-10915877D01*
G01X3478300Y-10917814D01*
G01X3608300Y-10917814D01*
G01X3608300Y-10917814D01*
G01X3627968Y-10915877D01*
G01X3646880Y-10910140D01*
G01X3664309Y-10900824D01*
G01X3679586Y-10888286D01*
G01X3692124Y-10873009D01*
G01X3701440Y-10855580D01*
G01X3707177Y-10836668D01*
G01X3709114Y-10817000D01*
G01X3709114Y-10687000D01*
G01X3707177Y-10667332D01*
G01X3701440Y-10648420D01*
G01X3692124Y-10630991D01*
G01X3679586Y-10615714D01*
G01X3664309Y-10603176D01*
G01X3646880Y-10593860D01*
G01X3627968Y-10588123D01*
G01X3608300Y-10586186D01*
G01X3478300Y-10586186D01*
G01X3458632Y-10588123D01*
G01X3439720Y-10593860D01*
G01X3422291Y-10603176D01*
G01X3407014Y-10615714D01*
G01X3394476Y-10630991D01*
G01X3385160Y-10648420D01*
G01X3379423Y-10667332D01*
G01X3377486Y-10687000D01*
G01X1702514Y-10687000D01*
G01X1700577Y-10667332D01*
G01X1694840Y-10648420D01*
G01X1685524Y-10630991D01*
G01X1672986Y-10615714D01*
G01X1657709Y-10603176D01*
G01X1640280Y-10593860D01*
G01X1621368Y-10588123D01*
G01X1601700Y-10586186D01*
G01X1471700Y-10586186D01*
G01X1452032Y-10588123D01*
G01X1433120Y-10593860D01*
G01X1415691Y-10603176D01*
G01X1400414Y-10615714D01*
G01X1387876Y-10630991D01*
G01X1378560Y-10648420D01*
G01X1372823Y-10667332D01*
G01X1370886Y-10687000D01*
G01X175260Y-10687000D01*
G01X175260Y-9105900D01*
G01X310986Y-9105900D01*
G01X312822Y-9126879D01*
G01X318272Y-9147221D01*
G01X327172Y-9166307D01*
G01X339251Y-9183558D01*
G01X354142Y-9198449D01*
G01X371393Y-9210528D01*
G01X390479Y-9219428D01*
G01X410821Y-9224878D01*
G01X431800Y-9226714D01*
G01X452779Y-9224878D01*
G01X473121Y-9219428D01*
G01X492207Y-9210528D01*
G01X509458Y-9198449D01*
G01X524349Y-9183558D01*
G01X536428Y-9166307D01*
G01X545328Y-9147221D01*
G01X550778Y-9126879D01*
G01X552614Y-9105900D01*
G01X550778Y-9084921D01*
G01X545328Y-9064579D01*
G01X536428Y-9045493D01*
G01X524349Y-9028242D01*
G01X509458Y-9013351D01*
G01X492207Y-9001272D01*
G01X473121Y-8992372D01*
G01X452779Y-8986922D01*
G01X431800Y-8985086D01*
G01X431800Y-8985086D01*
G01X410821Y-8986922D01*
G01X390479Y-8992372D01*
G01X371393Y-9001272D01*
G01X354142Y-9013351D01*
G01X339251Y-9028242D01*
G01X327172Y-9045493D01*
G01X318272Y-9064579D01*
G01X312822Y-9084921D01*
G01X310986Y-9105900D01*
G01X175260Y-9105900D01*
G01X175260Y-8851900D01*
G01X310986Y-8851900D01*
G01X312822Y-8872879D01*
G01X318272Y-8893221D01*
G01X327172Y-8912307D01*
G01X339251Y-8929558D01*
G01X354142Y-8944449D01*
G01X371393Y-8956528D01*
G01X390479Y-8965428D01*
G01X410821Y-8970878D01*
G01X431800Y-8972714D01*
G01X452779Y-8970878D01*
G01X473121Y-8965428D01*
G01X492207Y-8956528D01*
G01X509458Y-8944449D01*
G01X524349Y-8929558D01*
G01X536428Y-8912307D01*
G01X545328Y-8893221D01*
G01X550778Y-8872879D01*
G01X552614Y-8851900D01*
G01X550778Y-8830921D01*
G01X545328Y-8810579D01*
G01X536428Y-8791493D01*
G01X524349Y-8774242D01*
G01X509458Y-8759351D01*
G01X492207Y-8747272D01*
G01X473121Y-8738372D01*
G01X452779Y-8732922D01*
G01X431800Y-8731086D01*
G01X431800Y-8731086D01*
G01X410821Y-8732922D01*
G01X390479Y-8738372D01*
G01X371393Y-8747272D01*
G01X354142Y-8759351D01*
G01X339251Y-8774242D01*
G01X327172Y-8791493D01*
G01X318272Y-8810579D01*
G01X312822Y-8830921D01*
G01X310986Y-8851900D01*
G01X175260Y-8851900D01*
G01X175260Y-8597900D01*
G01X310986Y-8597900D01*
G01X312822Y-8618879D01*
G01X318272Y-8639221D01*
G01X327172Y-8658307D01*
G01X339251Y-8675558D01*
G01X354142Y-8690449D01*
G01X371393Y-8702528D01*
G01X390479Y-8711428D01*
G01X410821Y-8716878D01*
G01X431800Y-8718714D01*
G01X452779Y-8716878D01*
G01X473121Y-8711428D01*
G01X492207Y-8702528D01*
G01X509458Y-8690449D01*
G01X524349Y-8675558D01*
G01X536428Y-8658307D01*
G01X545328Y-8639221D01*
G01X550778Y-8618879D01*
G01X552614Y-8597900D01*
G01X550778Y-8576921D01*
G01X545328Y-8556579D01*
G01X536428Y-8537493D01*
G01X524349Y-8520242D01*
G01X509458Y-8505351D01*
G01X492207Y-8493272D01*
G01X473121Y-8484372D01*
G01X452779Y-8478922D01*
G01X431800Y-8477086D01*
G01X431800Y-8477086D01*
G01X410821Y-8478922D01*
G01X390479Y-8484372D01*
G01X371393Y-8493272D01*
G01X354142Y-8505351D01*
G01X339251Y-8520242D01*
G01X327172Y-8537493D01*
G01X318272Y-8556579D01*
G01X312822Y-8576921D01*
G01X310986Y-8597900D01*
G01X175260Y-8597900D01*
G01X175260Y-8343900D01*
G01X310986Y-8343900D01*
G01X312822Y-8364879D01*
G01X318272Y-8385221D01*
G01X327172Y-8404307D01*
G01X339251Y-8421558D01*
G01X354142Y-8436449D01*
G01X371393Y-8448528D01*
G01X390479Y-8457428D01*
G01X410821Y-8462878D01*
G01X431800Y-8464714D01*
G01X452779Y-8462878D01*
G01X473121Y-8457428D01*
G01X492207Y-8448528D01*
G01X509458Y-8436449D01*
G01X524349Y-8421558D01*
G01X536428Y-8404307D01*
G01X545328Y-8385221D01*
G01X550778Y-8364879D01*
G01X552614Y-8343900D01*
G01X550778Y-8322921D01*
G01X545328Y-8302579D01*
G01X536428Y-8283493D01*
G01X524349Y-8266242D01*
G01X509458Y-8251351D01*
G01X492207Y-8239272D01*
G01X473121Y-8230372D01*
G01X452779Y-8224922D01*
G01X431800Y-8223086D01*
G01X431800Y-8223086D01*
G01X410821Y-8224922D01*
G01X390479Y-8230372D01*
G01X371393Y-8239272D01*
G01X354142Y-8251351D01*
G01X339251Y-8266242D01*
G01X327172Y-8283493D01*
G01X318272Y-8302579D01*
G01X312822Y-8322921D01*
G01X310986Y-8343900D01*
G01X175260Y-8343900D01*
G01X175260Y-8089900D01*
G01X310986Y-8089900D01*
G01X312822Y-8110879D01*
G01X318272Y-8131221D01*
G01X327172Y-8150307D01*
G01X339251Y-8167558D01*
G01X354142Y-8182449D01*
G01X371393Y-8194528D01*
G01X390479Y-8203428D01*
G01X410821Y-8208878D01*
G01X431800Y-8210714D01*
G01X452779Y-8208878D01*
G01X473121Y-8203428D01*
G01X492207Y-8194528D01*
G01X509458Y-8182449D01*
G01X524349Y-8167558D01*
G01X536428Y-8150307D01*
G01X545328Y-8131221D01*
G01X550778Y-8110879D01*
G01X552614Y-8089900D01*
G01X550778Y-8068921D01*
G01X545328Y-8048579D01*
G01X536428Y-8029493D01*
G01X524349Y-8012242D01*
G01X509458Y-7997351D01*
G01X492207Y-7985272D01*
G01X473121Y-7976372D01*
G01X452779Y-7970922D01*
G01X431800Y-7969086D01*
G01X431800Y-7969086D01*
G01X410821Y-7970922D01*
G01X390479Y-7976372D01*
G01X371393Y-7985272D01*
G01X354142Y-7997351D01*
G01X339251Y-8012242D01*
G01X327172Y-8029493D01*
G01X318272Y-8048579D01*
G01X312822Y-8068921D01*
G01X310986Y-8089900D01*
G01X175260Y-8089900D01*
G01X175260Y-7835900D01*
G01X310986Y-7835900D01*
G01X312822Y-7856879D01*
G01X318272Y-7877221D01*
G01X327172Y-7896307D01*
G01X339251Y-7913558D01*
G01X354142Y-7928449D01*
G01X371393Y-7940528D01*
G01X390479Y-7949428D01*
G01X410821Y-7954878D01*
G01X431800Y-7956714D01*
G01X452779Y-7954878D01*
G01X473121Y-7949428D01*
G01X492207Y-7940528D01*
G01X509458Y-7928449D01*
G01X524349Y-7913558D01*
G01X536428Y-7896307D01*
G01X545328Y-7877221D01*
G01X550778Y-7856879D01*
G01X552614Y-7835900D01*
G01X550778Y-7814921D01*
G01X545328Y-7794579D01*
G01X536428Y-7775493D01*
G01X524349Y-7758242D01*
G01X509458Y-7743351D01*
G01X492207Y-7731272D01*
G01X473121Y-7722372D01*
G01X452779Y-7716922D01*
G01X431800Y-7715086D01*
G01X431800Y-7715086D01*
G01X410821Y-7716922D01*
G01X390479Y-7722372D01*
G01X371393Y-7731272D01*
G01X354142Y-7743351D01*
G01X339251Y-7758242D01*
G01X327172Y-7775493D01*
G01X318272Y-7794579D01*
G01X312822Y-7814921D01*
G01X310986Y-7835900D01*
G01X175260Y-7835900D01*
G01X175260Y-7581900D01*
G01X310986Y-7581900D01*
G01X312822Y-7602879D01*
G01X318272Y-7623221D01*
G01X327172Y-7642307D01*
G01X339251Y-7659558D01*
G01X354142Y-7674449D01*
G01X371393Y-7686528D01*
G01X390479Y-7695428D01*
G01X410821Y-7700878D01*
G01X431800Y-7702714D01*
G01X452779Y-7700878D01*
G01X473121Y-7695428D01*
G01X492207Y-7686528D01*
G01X509458Y-7674449D01*
G01X524349Y-7659558D01*
G01X536428Y-7642307D01*
G01X545328Y-7623221D01*
G01X550778Y-7602879D01*
G01X552614Y-7581900D01*
G01X550778Y-7560921D01*
G01X545328Y-7540579D01*
G01X536428Y-7521493D01*
G01X524349Y-7504242D01*
G01X509458Y-7489351D01*
G01X492207Y-7477272D01*
G01X473121Y-7468372D01*
G01X452779Y-7462922D01*
G01X431800Y-7461086D01*
G01X431800Y-7461086D01*
G01X410821Y-7462922D01*
G01X390479Y-7468372D01*
G01X371393Y-7477272D01*
G01X354142Y-7489351D01*
G01X339251Y-7504242D01*
G01X327172Y-7521493D01*
G01X318272Y-7540579D01*
G01X312822Y-7560921D01*
G01X310986Y-7581900D01*
G01X175260Y-7581900D01*
G01X175260Y-7454900D01*
G01X611886Y-7454900D01*
G01X611886Y-9753600D01*
G01X613539Y-9766156D01*
G01X618386Y-9777857D01*
G01X626095Y-9787905D01*
G01X1311895Y-10473705D01*
G01X1321943Y-10481414D01*
G01X1333644Y-10486261D01*
G01X1346200Y-10487914D01*
G01X2609090Y-10487914D01*
G01X2621461Y-10497012D01*
G01X2635594Y-10503021D01*
G01X2650729Y-10505618D01*
G01X2666056Y-10504664D01*
G01X2680753Y-10500210D01*
G01X2694031Y-10492494D01*
G01X2705178Y-10481932D01*
G01X2713597Y-10469089D01*
G01X2718836Y-10454653D01*
G01X2720614Y-10439400D01*
G01X2718836Y-10424147D01*
G01X2713597Y-10409711D01*
G01X2705178Y-10396868D01*
G01X2694031Y-10386306D01*
G01X2680753Y-10378590D01*
G01X2666056Y-10374136D01*
G01X2650729Y-10373182D01*
G01X2635594Y-10375779D01*
G01X2621461Y-10381788D01*
G01X2609090Y-10390886D01*
G01X2426799Y-10390886D01*
G01X2428505Y-10374801D01*
G01X2426266Y-10358781D01*
G01X2420216Y-10343780D01*
G01X2410714Y-10330690D01*
G01X2410714Y-10230895D01*
G01X2758236Y-9883373D01*
G01X2774329Y-9880802D01*
G01X2789309Y-9874384D01*
G01X2802270Y-9864506D01*
G01X2812432Y-9851765D01*
G01X2819179Y-9836931D01*
G01X2822105Y-9820899D01*
G01X2821033Y-9804638D01*
G01X2816026Y-9789129D01*
G01X2807389Y-9775310D01*
G01X2795642Y-9764014D01*
G01X3439350Y-9764014D01*
G01X3422014Y-9773362D01*
G01X3406825Y-9785903D01*
G01X3394365Y-9801157D01*
G01X3385109Y-9818544D01*
G01X3379410Y-9837398D01*
G01X3377486Y-9857000D01*
G01X3377486Y-9987000D01*
G01X3379423Y-10006668D01*
G01X3385160Y-10025580D01*
G01X3394476Y-10043009D01*
G01X3407014Y-10058286D01*
G01X3422291Y-10070824D01*
G01X3439720Y-10080140D01*
G01X3458632Y-10085877D01*
G01X3478300Y-10087814D01*
G01X3608300Y-10087814D01*
G01X3627968Y-10085877D01*
G01X3646880Y-10080140D01*
G01X3664309Y-10070824D01*
G01X3679586Y-10058286D01*
G01X3692124Y-10043009D01*
G01X3701440Y-10025580D01*
G01X3707177Y-10006668D01*
G01X3709114Y-9987000D01*
G01X3709114Y-9857000D01*
G01X3707190Y-9837398D01*
G01X3701491Y-9818544D01*
G01X3692235Y-9801157D01*
G01X3679775Y-9785903D01*
G01X3664586Y-9773362D01*
G01X3647250Y-9764014D01*
G01X4043905Y-9764014D01*
G01X4142486Y-9862595D01*
G01X4142486Y-10221900D01*
G01X4144139Y-10234456D01*
G01X4148986Y-10246157D01*
G01X4156695Y-10256204D01*
G01X4492735Y-10592244D01*
G01X4492735Y-10684927D01*
G01X4494488Y-10695994D01*
G01X4499575Y-10705978D01*
G01X4507499Y-10713901D01*
G01X4517482Y-10718988D01*
G01X4528549Y-10720741D01*
G01X4561586Y-10720741D01*
G01X4561586Y-10742259D01*
G01X4528549Y-10742259D01*
G01X4517482Y-10744012D01*
G01X4507499Y-10749099D01*
G01X4499575Y-10757022D01*
G01X4494488Y-10767006D01*
G01X4492735Y-10778073D01*
G01X4492735Y-10891327D01*
G01X4494488Y-10902394D01*
G01X4499575Y-10912378D01*
G01X4507499Y-10920301D01*
G01X4517482Y-10925388D01*
G01X4528549Y-10927141D01*
G01X4666251Y-10927141D01*
G01X4677318Y-10925388D01*
G01X4687301Y-10920301D01*
G01X4695225Y-10912378D01*
G01X4700312Y-10902394D01*
G01X4702065Y-10891327D01*
G01X4702065Y-10778073D01*
G01X4700312Y-10767006D01*
G01X4695225Y-10757022D01*
G01X4687301Y-10749099D01*
G01X4677318Y-10744012D01*
G01X4666251Y-10742259D01*
G01X4658614Y-10742259D01*
G01X4658614Y-10720741D01*
G01X4666251Y-10720741D01*
G01X4677318Y-10718988D01*
G01X4687301Y-10713901D01*
G01X4695225Y-10705978D01*
G01X4700312Y-10695994D01*
G01X4702065Y-10684927D01*
G01X4702065Y-10571673D01*
G01X4700312Y-10560606D01*
G01X4695225Y-10550622D01*
G01X4687301Y-10542699D01*
G01X4677318Y-10537612D01*
G01X4666251Y-10535859D01*
G01X4573568Y-10535859D01*
G01X4558450Y-10520741D01*
G01X4666251Y-10520741D01*
G01X4677318Y-10518988D01*
G01X4687301Y-10513901D01*
G01X4695225Y-10505978D01*
G01X4700312Y-10495994D01*
G01X4702065Y-10484927D01*
G01X4702065Y-10404945D01*
G01X4847605Y-10259405D01*
G01X4855314Y-10249357D01*
G01X4860161Y-10237657D01*
G01X4861814Y-10225100D01*
G01X4861814Y-7708900D01*
G01X4860161Y-7696344D01*
G01X4855314Y-7684643D01*
G01X4847605Y-7674595D01*
G01X4748445Y-7575436D01*
G01X4745560Y-7554357D01*
G01X4739164Y-7534066D01*
G01X4729440Y-7515143D01*
G01X4716667Y-7498129D01*
G01X4701210Y-7483510D01*
G01X4683511Y-7471705D01*
G01X4664075Y-7463050D01*
G01X4643460Y-7457794D01*
G01X4622253Y-7456087D01*
G01X4601062Y-7457978D01*
G01X4580493Y-7463412D01*
G01X4561133Y-7472234D01*
G01X4543536Y-7484192D01*
G01X4528206Y-7498944D01*
G01X4515581Y-7516069D01*
G01X4506022Y-7535075D01*
G01X4499802Y-7555421D01*
G01X4497099Y-7576524D01*
G01X4497990Y-7597780D01*
G01X4502450Y-7618583D01*
G01X4510351Y-7638336D01*
G01X4521468Y-7656476D01*
G01X4535483Y-7672483D01*
G01X4551994Y-7685900D01*
G01X4570530Y-7696343D01*
G01X4590560Y-7703514D01*
G01X4611512Y-7707207D01*
G01X4632787Y-7707317D01*
G01X4653776Y-7703840D01*
G01X4673880Y-7696877D01*
G01X4692522Y-7686626D01*
G01X4709171Y-7673380D01*
G01X4764786Y-7728995D01*
G01X4764786Y-10205005D01*
G01X4633932Y-10335859D01*
G01X4528549Y-10335859D01*
G01X4517482Y-10337612D01*
G01X4507499Y-10342699D01*
G01X4499575Y-10350622D01*
G01X4494488Y-10360606D01*
G01X4492735Y-10371673D01*
G01X4492735Y-10455026D01*
G01X4239514Y-10201805D01*
G01X4239514Y-10121900D01*
G01X4496984Y-10121900D01*
G01X4498895Y-10143747D01*
G01X4504571Y-10164931D01*
G01X4513839Y-10184807D01*
G01X4526418Y-10202772D01*
G01X4541926Y-10218279D01*
G01X4559891Y-10230858D01*
G01X4579767Y-10240126D01*
G01X4600950Y-10245802D01*
G01X4622797Y-10247714D01*
G01X4644645Y-10245802D01*
G01X4665828Y-10240126D01*
G01X4685704Y-10230858D01*
G01X4703669Y-10218279D01*
G01X4719176Y-10202772D01*
G01X4731755Y-10184807D01*
G01X4741024Y-10164931D01*
G01X4746700Y-10143747D01*
G01X4748611Y-10121900D01*
G01X4746700Y-10100053D01*
G01X4741024Y-10078869D01*
G01X4731755Y-10058993D01*
G01X4719176Y-10041028D01*
G01X4703669Y-10025521D01*
G01X4685704Y-10012942D01*
G01X4665828Y-10003674D01*
G01X4644645Y-9997998D01*
G01X4622797Y-9996086D01*
G01X4622797Y-9996086D01*
G01X4600950Y-9997998D01*
G01X4579767Y-10003674D01*
G01X4559891Y-10012942D01*
G01X4541926Y-10025521D01*
G01X4526418Y-10041028D01*
G01X4513839Y-10058993D01*
G01X4504571Y-10078869D01*
G01X4498895Y-10100053D01*
G01X4496984Y-10121900D01*
G01X4239514Y-10121900D01*
G01X4239514Y-9842500D01*
G01X4237861Y-9829944D01*
G01X4233014Y-9818243D01*
G01X4225305Y-9808195D01*
G01X4098305Y-9681195D01*
G01X4088257Y-9673486D01*
G01X4076556Y-9668639D01*
G01X4064000Y-9666986D01*
G01X2686810Y-9666986D01*
G01X2674439Y-9657888D01*
G01X2660306Y-9651879D01*
G01X2645171Y-9649282D01*
G01X2629844Y-9650236D01*
G01X2615147Y-9654690D01*
G01X2601869Y-9662406D01*
G01X2590722Y-9672968D01*
G01X2582303Y-9685811D01*
G01X2577064Y-9700247D01*
G01X2575286Y-9715500D01*
G01X2577064Y-9730753D01*
G01X2582303Y-9745189D01*
G01X2590722Y-9758032D01*
G01X2601869Y-9768594D01*
G01X2615147Y-9776310D01*
G01X2629844Y-9780764D01*
G01X2645171Y-9781718D01*
G01X2660306Y-9779121D01*
G01X2674439Y-9773112D01*
G01X2686810Y-9764014D01*
G01X2716158Y-9764014D01*
G01X2705392Y-9774129D01*
G01X2697132Y-9786377D01*
G01X2691789Y-9800150D01*
G01X2689627Y-9814764D01*
G01X2327895Y-10176495D01*
G01X2320186Y-10186543D01*
G01X2315339Y-10198244D01*
G01X2313686Y-10210800D01*
G01X2313686Y-10330690D01*
G01X2304184Y-10343780D01*
G01X2298134Y-10358781D01*
G01X2295895Y-10374801D01*
G01X2297601Y-10390886D01*
G01X1366295Y-10390886D01*
G01X832409Y-9857000D01*
G01X1370886Y-9857000D01*
G01X1370886Y-9987000D01*
G01X1372823Y-10006668D01*
G01X1378560Y-10025580D01*
G01X1387876Y-10043009D01*
G01X1400414Y-10058286D01*
G01X1415691Y-10070824D01*
G01X1433120Y-10080140D01*
G01X1452032Y-10085877D01*
G01X1471700Y-10087814D01*
G01X1601700Y-10087814D01*
G01X1601700Y-10087814D01*
G01X1621368Y-10085877D01*
G01X1640280Y-10080140D01*
G01X1657709Y-10070824D01*
G01X1672986Y-10058286D01*
G01X1685524Y-10043009D01*
G01X1694840Y-10025580D01*
G01X1700577Y-10006668D01*
G01X1702514Y-9987000D01*
G01X1702514Y-9857000D01*
G01X1700577Y-9837332D01*
G01X1694840Y-9818420D01*
G01X1685524Y-9800991D01*
G01X1672986Y-9785714D01*
G01X1657709Y-9773176D01*
G01X1640280Y-9763860D01*
G01X1621368Y-9758123D01*
G01X1601700Y-9756186D01*
G01X1471700Y-9756186D01*
G01X1452032Y-9758123D01*
G01X1433120Y-9763860D01*
G01X1415691Y-9773176D01*
G01X1400414Y-9785714D01*
G01X1387876Y-9800991D01*
G01X1378560Y-9818420D01*
G01X1372823Y-9837332D01*
G01X1370886Y-9857000D01*
G01X832409Y-9857000D01*
G01X708914Y-9733505D01*
G01X708914Y-9333728D01*
G01X838367Y-9333728D01*
G01X842195Y-9356668D01*
G01X849746Y-9378664D01*
G01X860815Y-9399118D01*
G01X875100Y-9417471D01*
G01X892210Y-9433222D01*
G01X911680Y-9445942D01*
G01X932978Y-9455284D01*
G01X955523Y-9460993D01*
G01X978700Y-9462914D01*
G01X1078700Y-9462914D01*
G01X1101877Y-9460993D01*
G01X1124422Y-9455284D01*
G01X1145720Y-9445942D01*
G01X1165190Y-9433222D01*
G01X1182300Y-9417471D01*
G01X1196585Y-9399118D01*
G01X1207654Y-9378664D01*
G01X1215205Y-9356668D01*
G01X1219033Y-9333728D01*
G01X1219033Y-9310472D01*
G01X1215205Y-9287532D01*
G01X1207654Y-9265536D01*
G01X1196585Y-9245082D01*
G01X1182300Y-9226729D01*
G01X1165190Y-9210978D01*
G01X1145720Y-9198258D01*
G01X1124422Y-9188916D01*
G01X1101877Y-9183206D01*
G01X1078700Y-9181286D01*
G01X1078700Y-9181286D01*
G01X978700Y-9181286D01*
G01X955523Y-9183206D01*
G01X932978Y-9188916D01*
G01X911680Y-9198258D01*
G01X892210Y-9210978D01*
G01X875100Y-9226729D01*
G01X860815Y-9245082D01*
G01X849746Y-9265536D01*
G01X842195Y-9287532D01*
G01X838367Y-9310472D01*
G01X838367Y-9333728D01*
G01X708914Y-9333728D01*
G01X708914Y-8947100D01*
G01X862886Y-8947100D01*
G01X862886Y-9077100D01*
G01X864823Y-9096768D01*
G01X870560Y-9115680D01*
G01X879876Y-9133109D01*
G01X892414Y-9148386D01*
G01X907691Y-9160924D01*
G01X925120Y-9170240D01*
G01X944032Y-9175977D01*
G01X963700Y-9177914D01*
G01X1093700Y-9177914D01*
G01X1093700Y-9177914D01*
G01X1113368Y-9175977D01*
G01X1132280Y-9170240D01*
G01X1149709Y-9160924D01*
G01X1164986Y-9148386D01*
G01X1177524Y-9133109D01*
G01X1186840Y-9115680D01*
G01X1192577Y-9096768D01*
G01X1194514Y-9077100D01*
G01X1194514Y-9024349D01*
G01X1598259Y-9024349D01*
G01X1598259Y-9162051D01*
G01X1600012Y-9173118D01*
G01X1605099Y-9183101D01*
G01X1613022Y-9191025D01*
G01X1623006Y-9196112D01*
G01X1634073Y-9197865D01*
G01X1642186Y-9197865D01*
G01X1642186Y-9272600D01*
G01X1643839Y-9285157D01*
G01X1648686Y-9296857D01*
G01X1656396Y-9306905D01*
G01X1908795Y-9559305D01*
G01X1918843Y-9567014D01*
G01X1930544Y-9571861D01*
G01X1943100Y-9573514D01*
G01X4043905Y-9573514D01*
G01X4372595Y-9902205D01*
G01X4382643Y-9909914D01*
G01X4394344Y-9914761D01*
G01X4406900Y-9916414D01*
G01X4506713Y-9916414D01*
G01X4516703Y-9935525D01*
G01X4529810Y-9952649D01*
G01X4545648Y-9967283D01*
G01X4563752Y-9978998D01*
G01X4583592Y-9987449D01*
G01X4604583Y-9992388D01*
G01X4626109Y-9993670D01*
G01X4647537Y-9991257D01*
G01X4668239Y-9985221D01*
G01X4687607Y-9975737D01*
G01X4705070Y-9963086D01*
G01X4720116Y-9947639D01*
G01X4732303Y-9929849D01*
G01X4741273Y-9910239D01*
G01X4746763Y-9889385D01*
G01X4748611Y-9867900D01*
G01X4746763Y-9846415D01*
G01X4741273Y-9825561D01*
G01X4732303Y-9805951D01*
G01X4720116Y-9788161D01*
G01X4705070Y-9772714D01*
G01X4687607Y-9760063D01*
G01X4668239Y-9750579D01*
G01X4647537Y-9744543D01*
G01X4626109Y-9742130D01*
G01X4604583Y-9743412D01*
G01X4583592Y-9748351D01*
G01X4563752Y-9756802D01*
G01X4545648Y-9768517D01*
G01X4529810Y-9783151D01*
G01X4516703Y-9800275D01*
G01X4506713Y-9819386D01*
G01X4426995Y-9819386D01*
G01X4130323Y-9522714D01*
G01X4132805Y-9522714D01*
G01X4258295Y-9648205D01*
G01X4268343Y-9655914D01*
G01X4280044Y-9660761D01*
G01X4292600Y-9662414D01*
G01X4506713Y-9662414D01*
G01X4516703Y-9681525D01*
G01X4529810Y-9698649D01*
G01X4545648Y-9713283D01*
G01X4563752Y-9724998D01*
G01X4583592Y-9733449D01*
G01X4604583Y-9738388D01*
G01X4626109Y-9739670D01*
G01X4647537Y-9737257D01*
G01X4668239Y-9731221D01*
G01X4687607Y-9721737D01*
G01X4705070Y-9709086D01*
G01X4720116Y-9693639D01*
G01X4732303Y-9675849D01*
G01X4741273Y-9656239D01*
G01X4746763Y-9635385D01*
G01X4748611Y-9613900D01*
G01X4746763Y-9592415D01*
G01X4741273Y-9571561D01*
G01X4732303Y-9551951D01*
G01X4720116Y-9534161D01*
G01X4705070Y-9518714D01*
G01X4687607Y-9506063D01*
G01X4668239Y-9496579D01*
G01X4647537Y-9490543D01*
G01X4626109Y-9488130D01*
G01X4604583Y-9489412D01*
G01X4583592Y-9494351D01*
G01X4563752Y-9502802D01*
G01X4545648Y-9514517D01*
G01X4529810Y-9529151D01*
G01X4516703Y-9546275D01*
G01X4506713Y-9565386D01*
G01X4312695Y-9565386D01*
G01X4269597Y-9522288D01*
G01X4278122Y-9525758D01*
G01X4287249Y-9526941D01*
G01X4424951Y-9526941D01*
G01X4436018Y-9525188D01*
G01X4446001Y-9520101D01*
G01X4453925Y-9512178D01*
G01X4459012Y-9502194D01*
G01X4460765Y-9491127D01*
G01X4460765Y-9398444D01*
G01X4497005Y-9362204D01*
G01X4499138Y-9383081D01*
G01X4504711Y-9403313D01*
G01X4513569Y-9422337D01*
G01X4525467Y-9439624D01*
G01X4540072Y-9454693D01*
G01X4556979Y-9467124D01*
G01X4575717Y-9476573D01*
G01X4595765Y-9482775D01*
G01X4616565Y-9485559D01*
G01X4637538Y-9484847D01*
G01X4658101Y-9480659D01*
G01X4677682Y-9473111D01*
G01X4695736Y-9462413D01*
G01X4711761Y-9448864D01*
G01X4725311Y-9432839D01*
G01X4736009Y-9414785D01*
G01X4743557Y-9395204D01*
G01X4747745Y-9374641D01*
G01X4748457Y-9353667D01*
G01X4745673Y-9332867D01*
G01X4739470Y-9312820D01*
G01X4730022Y-9294082D01*
G01X4717590Y-9277175D01*
G01X4702521Y-9262569D01*
G01X4685234Y-9250672D01*
G01X4666210Y-9241813D01*
G01X4645978Y-9236240D01*
G01X4625102Y-9234107D01*
G01X4627586Y-9231623D01*
G01X4648718Y-9229015D01*
G01X4669108Y-9222881D01*
G01X4688171Y-9213396D01*
G01X4705361Y-9200833D01*
G01X4720187Y-9185551D01*
G01X4732224Y-9167988D01*
G01X4741127Y-9148646D01*
G01X4746641Y-9128080D01*
G01X4748607Y-9106879D01*
G01X4746971Y-9085650D01*
G01X4741778Y-9065001D01*
G01X4733177Y-9045523D01*
G01X4721416Y-9027775D01*
G01X4706829Y-9012263D01*
G01X4689836Y-8999434D01*
G01X4670923Y-8989654D01*
G01X4650631Y-8983204D01*
G01X4629543Y-8980267D01*
G01X4608261Y-8980929D01*
G01X4587395Y-8985170D01*
G01X4567544Y-8992868D01*
G01X4549275Y-9003804D01*
G01X4533111Y-9017664D01*
G01X4519517Y-9034052D01*
G01X4508880Y-9052497D01*
G01X4501506Y-9072471D01*
G01X4497606Y-9093403D01*
G01X4497291Y-9114693D01*
G01X4500571Y-9135731D01*
G01X4507352Y-9155914D01*
G01X4517439Y-9174665D01*
G01X4530543Y-9191447D01*
G01X4460765Y-9261226D01*
G01X4460765Y-9177873D01*
G01X4459012Y-9166806D01*
G01X4453925Y-9156822D01*
G01X4446001Y-9148899D01*
G01X4436018Y-9143812D01*
G01X4424951Y-9142059D01*
G01X4404614Y-9142059D01*
G01X4404614Y-8851900D01*
G01X4496984Y-8851900D01*
G01X4498895Y-8873747D01*
G01X4504571Y-8894931D01*
G01X4513839Y-8914807D01*
G01X4526418Y-8932772D01*
G01X4541926Y-8948279D01*
G01X4559891Y-8960858D01*
G01X4579767Y-8970126D01*
G01X4600950Y-8975802D01*
G01X4622797Y-8977714D01*
G01X4644645Y-8975802D01*
G01X4665828Y-8970126D01*
G01X4685704Y-8960858D01*
G01X4703669Y-8948279D01*
G01X4719176Y-8932772D01*
G01X4731755Y-8914807D01*
G01X4741024Y-8894931D01*
G01X4746700Y-8873747D01*
G01X4748611Y-8851900D01*
G01X4746700Y-8830053D01*
G01X4741024Y-8808869D01*
G01X4731755Y-8788993D01*
G01X4719176Y-8771028D01*
G01X4703669Y-8755521D01*
G01X4685704Y-8742942D01*
G01X4665828Y-8733674D01*
G01X4644645Y-8727998D01*
G01X4622797Y-8726086D01*
G01X4622797Y-8726086D01*
G01X4600950Y-8727998D01*
G01X4579767Y-8733674D01*
G01X4559891Y-8742942D01*
G01X4541926Y-8755521D01*
G01X4526418Y-8771028D01*
G01X4513839Y-8788993D01*
G01X4504571Y-8808869D01*
G01X4498895Y-8830053D01*
G01X4496984Y-8851900D01*
G01X4404614Y-8851900D01*
G01X4404614Y-8597900D01*
G01X4496984Y-8597900D01*
G01X4498895Y-8619747D01*
G01X4504571Y-8640931D01*
G01X4513839Y-8660807D01*
G01X4526418Y-8678772D01*
G01X4541926Y-8694279D01*
G01X4559891Y-8706858D01*
G01X4579767Y-8716126D01*
G01X4600950Y-8721802D01*
G01X4622797Y-8723714D01*
G01X4644645Y-8721802D01*
G01X4665828Y-8716126D01*
G01X4685704Y-8706858D01*
G01X4703669Y-8694279D01*
G01X4719176Y-8678772D01*
G01X4731755Y-8660807D01*
G01X4741024Y-8640931D01*
G01X4746700Y-8619747D01*
G01X4748611Y-8597900D01*
G01X4746700Y-8576053D01*
G01X4741024Y-8554869D01*
G01X4731755Y-8534993D01*
G01X4719176Y-8517028D01*
G01X4703669Y-8501521D01*
G01X4685704Y-8488942D01*
G01X4665828Y-8479674D01*
G01X4644645Y-8473998D01*
G01X4622797Y-8472086D01*
G01X4622797Y-8472086D01*
G01X4600950Y-8473998D01*
G01X4579767Y-8479674D01*
G01X4559891Y-8488942D01*
G01X4541926Y-8501521D01*
G01X4526418Y-8517028D01*
G01X4513839Y-8534993D01*
G01X4504571Y-8554869D01*
G01X4498895Y-8576053D01*
G01X4496984Y-8597900D01*
G01X4404614Y-8597900D01*
G01X4404614Y-8499600D01*
G01X4402961Y-8487044D01*
G01X4398114Y-8475343D01*
G01X4390405Y-8465295D01*
G01X4269009Y-8343900D01*
G01X4496984Y-8343900D01*
G01X4498895Y-8365747D01*
G01X4504571Y-8386931D01*
G01X4513839Y-8406807D01*
G01X4526418Y-8424772D01*
G01X4541926Y-8440279D01*
G01X4559891Y-8452858D01*
G01X4579767Y-8462126D01*
G01X4600950Y-8467802D01*
G01X4622797Y-8469714D01*
G01X4644645Y-8467802D01*
G01X4665828Y-8462126D01*
G01X4685704Y-8452858D01*
G01X4703669Y-8440279D01*
G01X4719176Y-8424772D01*
G01X4731755Y-8406807D01*
G01X4741024Y-8386931D01*
G01X4746700Y-8365747D01*
G01X4748611Y-8343900D01*
G01X4746700Y-8322053D01*
G01X4741024Y-8300869D01*
G01X4731755Y-8280993D01*
G01X4719176Y-8263028D01*
G01X4703669Y-8247521D01*
G01X4685704Y-8234942D01*
G01X4665828Y-8225674D01*
G01X4644645Y-8219998D01*
G01X4622797Y-8218086D01*
G01X4622797Y-8218086D01*
G01X4600950Y-8219998D01*
G01X4579767Y-8225674D01*
G01X4559891Y-8234942D01*
G01X4541926Y-8247521D01*
G01X4526418Y-8263028D01*
G01X4513839Y-8280993D01*
G01X4504571Y-8300869D01*
G01X4498895Y-8322053D01*
G01X4496984Y-8343900D01*
G01X4269009Y-8343900D01*
G01X4200394Y-8275285D01*
G01X4203404Y-8261335D01*
G01X4204414Y-8247100D01*
G01X4204414Y-8117100D01*
G01X4202477Y-8097432D01*
G01X4200192Y-8089900D01*
G01X4496984Y-8089900D01*
G01X4498895Y-8111747D01*
G01X4504571Y-8132931D01*
G01X4513839Y-8152807D01*
G01X4526418Y-8170772D01*
G01X4541926Y-8186279D01*
G01X4559891Y-8198858D01*
G01X4579767Y-8208126D01*
G01X4600950Y-8213802D01*
G01X4622797Y-8215714D01*
G01X4644645Y-8213802D01*
G01X4665828Y-8208126D01*
G01X4685704Y-8198858D01*
G01X4703669Y-8186279D01*
G01X4719176Y-8170772D01*
G01X4731755Y-8152807D01*
G01X4741024Y-8132931D01*
G01X4746700Y-8111747D01*
G01X4748611Y-8089900D01*
G01X4746700Y-8068053D01*
G01X4741024Y-8046869D01*
G01X4731755Y-8026993D01*
G01X4719176Y-8009028D01*
G01X4703669Y-7993521D01*
G01X4685704Y-7980942D01*
G01X4665828Y-7971674D01*
G01X4644645Y-7965998D01*
G01X4622797Y-7964086D01*
G01X4622797Y-7964086D01*
G01X4600950Y-7965998D01*
G01X4579767Y-7971674D01*
G01X4559891Y-7980942D01*
G01X4541926Y-7993521D01*
G01X4526418Y-8009028D01*
G01X4513839Y-8026993D01*
G01X4504571Y-8046869D01*
G01X4498895Y-8068053D01*
G01X4496984Y-8089900D01*
G01X4200192Y-8089900D01*
G01X4196740Y-8078520D01*
G01X4187424Y-8061091D01*
G01X4174886Y-8045814D01*
G01X4159609Y-8033276D01*
G01X4142180Y-8023960D01*
G01X4123268Y-8018223D01*
G01X4103600Y-8016286D01*
G01X3973600Y-8016286D01*
G01X3953932Y-8018223D01*
G01X3935020Y-8023960D01*
G01X3917591Y-8033276D01*
G01X3902314Y-8045814D01*
G01X3889776Y-8061091D01*
G01X3880460Y-8078520D01*
G01X3874723Y-8097432D01*
G01X3872786Y-8117100D01*
G01X3872786Y-8247100D01*
G01X3874723Y-8266768D01*
G01X3880460Y-8285680D01*
G01X3889776Y-8303109D01*
G01X3902314Y-8318386D01*
G01X3917591Y-8330924D01*
G01X3935020Y-8340240D01*
G01X3953932Y-8345977D01*
G01X3973600Y-8347914D01*
G01X4103600Y-8347914D01*
G01X4117835Y-8346904D01*
G01X4131785Y-8343894D01*
G01X4307586Y-8519695D01*
G01X4307586Y-9142059D01*
G01X4307586Y-9142059D01*
G01X4287249Y-9142059D01*
G01X4276182Y-9143812D01*
G01X4266199Y-9148899D01*
G01X4258275Y-9156822D01*
G01X4253188Y-9166806D01*
G01X4251435Y-9177873D01*
G01X4251435Y-9291127D01*
G01X4253188Y-9302194D01*
G01X4258275Y-9312178D01*
G01X4266199Y-9320101D01*
G01X4276182Y-9325188D01*
G01X4287249Y-9326941D01*
G01X4395050Y-9326941D01*
G01X4379932Y-9342059D01*
G01X4287249Y-9342059D01*
G01X4276182Y-9343812D01*
G01X4266199Y-9348899D01*
G01X4258275Y-9356822D01*
G01X4253188Y-9366806D01*
G01X4251435Y-9377873D01*
G01X4251435Y-9491127D01*
G01X4252618Y-9500254D01*
G01X4256088Y-9508779D01*
G01X4187205Y-9439895D01*
G01X4176718Y-9431935D01*
G01X4193502Y-9416037D01*
G01X4207459Y-9397606D01*
G01X4218212Y-9377140D01*
G01X4225471Y-9355190D01*
G01X4229040Y-9332349D01*
G01X4228825Y-9309231D01*
G01X4224829Y-9286460D01*
G01X4217162Y-9264650D01*
G01X4206029Y-9244388D01*
G01X4191730Y-9226221D01*
G01X4174652Y-9210639D01*
G01X4155255Y-9198061D01*
G01X4134060Y-9188826D01*
G01X4111641Y-9183184D01*
G01X4088600Y-9181286D01*
G01X3988600Y-9181286D01*
G01X3966190Y-9183081D01*
G01X3944351Y-9188419D01*
G01X3923641Y-9197165D01*
G01X3904585Y-9209095D01*
G01X3887672Y-9223906D01*
G01X3873331Y-9241220D01*
G01X3861928Y-9260595D01*
G01X3853755Y-9281538D01*
G01X3849018Y-9303515D01*
G01X3847839Y-9325966D01*
G01X3850248Y-9348318D01*
G01X3856184Y-9370002D01*
G01X3865495Y-9390465D01*
G01X3877944Y-9409185D01*
G01X3893214Y-9425686D01*
G01X3818869Y-9425686D01*
G01X3481741Y-9088557D01*
G01X3481741Y-9024349D01*
G01X3479988Y-9013282D01*
G01X3474901Y-9003299D01*
G01X3466978Y-8995375D01*
G01X3456994Y-8990288D01*
G01X3445927Y-8988535D01*
G01X3332673Y-8988535D01*
G01X3321606Y-8990288D01*
G01X3311622Y-8995375D01*
G01X3303699Y-9003299D01*
G01X3298612Y-9013282D01*
G01X3296859Y-9024349D01*
G01X3296859Y-9162051D01*
G01X3298612Y-9173118D01*
G01X3303699Y-9183101D01*
G01X3311622Y-9191025D01*
G01X3321606Y-9196112D01*
G01X3332673Y-9197865D01*
G01X3445927Y-9197865D01*
G01X3453103Y-9197138D01*
G01X3732451Y-9476486D01*
G01X1963195Y-9476486D01*
G01X1797181Y-9310472D01*
G01X2349667Y-9310472D01*
G01X2349667Y-9333728D01*
G01X2353495Y-9356668D01*
G01X2361046Y-9378664D01*
G01X2372115Y-9399118D01*
G01X2386400Y-9417471D01*
G01X2403510Y-9433222D01*
G01X2422980Y-9445942D01*
G01X2444278Y-9455284D01*
G01X2466823Y-9460993D01*
G01X2490000Y-9462914D01*
G01X2590000Y-9462914D01*
G01X2613177Y-9460993D01*
G01X2635722Y-9455284D01*
G01X2657020Y-9445942D01*
G01X2676490Y-9433222D01*
G01X2693600Y-9417471D01*
G01X2707885Y-9399118D01*
G01X2718954Y-9378664D01*
G01X2726505Y-9356668D01*
G01X2730333Y-9333728D01*
G01X2730333Y-9310472D01*
G01X2726505Y-9287532D01*
G01X2718954Y-9265536D01*
G01X2707885Y-9245082D01*
G01X2693600Y-9226729D01*
G01X2676490Y-9210978D01*
G01X2657020Y-9198258D01*
G01X2635722Y-9188916D01*
G01X2613177Y-9183206D01*
G01X2590000Y-9181286D01*
G01X2590000Y-9181286D01*
G01X2490000Y-9181286D01*
G01X2466823Y-9183206D01*
G01X2444278Y-9188916D01*
G01X2422980Y-9198258D01*
G01X2403510Y-9210978D01*
G01X2386400Y-9226729D01*
G01X2372115Y-9245082D01*
G01X2361046Y-9265536D01*
G01X2353495Y-9287532D01*
G01X2349667Y-9310472D01*
G01X1797181Y-9310472D01*
G01X1739214Y-9252505D01*
G01X1739214Y-9197865D01*
G01X1747327Y-9197865D01*
G01X1758394Y-9196112D01*
G01X1768378Y-9191025D01*
G01X1776301Y-9183101D01*
G01X1781388Y-9173118D01*
G01X1783141Y-9162051D01*
G01X1783141Y-9024349D01*
G01X1798259Y-9024349D01*
G01X1798259Y-9162051D01*
G01X1800012Y-9173118D01*
G01X1805099Y-9183101D01*
G01X1813022Y-9191025D01*
G01X1823006Y-9196112D01*
G01X1834073Y-9197865D01*
G01X1947327Y-9197865D01*
G01X1958394Y-9196112D01*
G01X1968378Y-9191025D01*
G01X1976301Y-9183101D01*
G01X1981388Y-9173118D01*
G01X1983141Y-9162051D01*
G01X1983141Y-9024349D01*
G01X1981551Y-9013797D01*
G01X1976922Y-9004181D01*
G01X1969665Y-8996356D01*
G01X1960425Y-8991017D01*
G01X1950022Y-8988637D01*
G01X1950022Y-8947100D01*
G01X2374186Y-8947100D01*
G01X2374186Y-9077100D01*
G01X2376123Y-9096768D01*
G01X2381860Y-9115680D01*
G01X2391176Y-9133109D01*
G01X2403714Y-9148386D01*
G01X2418991Y-9160924D01*
G01X2436420Y-9170240D01*
G01X2455332Y-9175977D01*
G01X2475000Y-9177914D01*
G01X2605000Y-9177914D01*
G01X2605000Y-9177914D01*
G01X2624668Y-9175977D01*
G01X2643580Y-9170240D01*
G01X2661009Y-9160924D01*
G01X2676286Y-9148386D01*
G01X2688824Y-9133109D01*
G01X2698140Y-9115680D01*
G01X2703877Y-9096768D01*
G01X2705814Y-9077100D01*
G01X2705814Y-9024349D01*
G01X3096859Y-9024349D01*
G01X3096859Y-9162051D01*
G01X3098612Y-9173118D01*
G01X3103699Y-9183101D01*
G01X3111622Y-9191025D01*
G01X3121606Y-9196112D01*
G01X3132673Y-9197865D01*
G01X3245927Y-9197865D01*
G01X3256994Y-9196112D01*
G01X3266978Y-9191025D01*
G01X3274901Y-9183101D01*
G01X3279988Y-9173118D01*
G01X3281741Y-9162051D01*
G01X3281741Y-9024349D01*
G01X3280309Y-9014324D01*
G01X3276128Y-9005099D01*
G01X3269531Y-8997415D01*
G01X3261047Y-8991884D01*
G01X3305831Y-8947100D01*
G01X3872786Y-8947100D01*
G01X3872786Y-9077100D01*
G01X3874723Y-9096768D01*
G01X3880460Y-9115680D01*
G01X3889776Y-9133109D01*
G01X3902314Y-9148386D01*
G01X3917591Y-9160924D01*
G01X3935020Y-9170240D01*
G01X3953932Y-9175977D01*
G01X3973600Y-9177914D01*
G01X4103600Y-9177914D01*
G01X4103600Y-9177914D01*
G01X4123268Y-9175977D01*
G01X4142180Y-9170240D01*
G01X4159609Y-9160924D01*
G01X4174886Y-9148386D01*
G01X4187424Y-9133109D01*
G01X4196740Y-9115680D01*
G01X4202477Y-9096768D01*
G01X4204414Y-9077100D01*
G01X4204414Y-8947100D01*
G01X4202477Y-8927432D01*
G01X4196740Y-8908520D01*
G01X4187424Y-8891091D01*
G01X4174886Y-8875814D01*
G01X4159609Y-8863276D01*
G01X4142180Y-8853960D01*
G01X4123268Y-8848223D01*
G01X4103600Y-8846286D01*
G01X3973600Y-8846286D01*
G01X3953932Y-8848223D01*
G01X3935020Y-8853960D01*
G01X3917591Y-8863276D01*
G01X3902314Y-8875814D01*
G01X3889776Y-8891091D01*
G01X3880460Y-8908520D01*
G01X3874723Y-8927432D01*
G01X3872786Y-8947100D01*
G01X3305831Y-8947100D01*
G01X3402195Y-8850736D01*
G01X3402195Y-8850736D01*
G01X3452899Y-8850736D01*
G01X3463967Y-8848983D01*
G01X3473950Y-8843896D01*
G01X3481874Y-8835973D01*
G01X3486961Y-8825989D01*
G01X3488713Y-8814922D01*
G01X3488713Y-8754922D01*
G01X3486961Y-8743855D01*
G01X3481874Y-8733871D01*
G01X3473950Y-8725948D01*
G01X3463967Y-8720861D01*
G01X3452899Y-8719108D01*
G01X3345899Y-8719108D01*
G01X3334832Y-8720861D01*
G01X3324848Y-8725948D01*
G01X3316925Y-8733871D01*
G01X3311838Y-8743855D01*
G01X3310085Y-8754922D01*
G01X3310085Y-8805627D01*
G01X3154996Y-8960717D01*
G01X3148412Y-8968911D01*
G01X3143747Y-8978332D01*
G01X3141222Y-8988535D01*
G01X3132673Y-8988535D01*
G01X3121606Y-8990288D01*
G01X3111622Y-8995375D01*
G01X3103699Y-9003299D01*
G01X3098612Y-9013282D01*
G01X3096859Y-9024349D01*
G01X2705814Y-9024349D01*
G01X2705814Y-8947100D01*
G01X2703877Y-8927432D01*
G01X2698140Y-8908520D01*
G01X2688824Y-8891091D01*
G01X2676286Y-8875814D01*
G01X2661009Y-8863276D01*
G01X2643580Y-8853960D01*
G01X2624668Y-8848223D01*
G01X2605000Y-8846286D01*
G01X2475000Y-8846286D01*
G01X2455332Y-8848223D01*
G01X2436420Y-8853960D01*
G01X2418991Y-8863276D01*
G01X2403714Y-8875814D01*
G01X2391176Y-8891091D01*
G01X2381860Y-8908520D01*
G01X2376123Y-8927432D01*
G01X2374186Y-8947100D01*
G01X1950022Y-8947100D01*
G01X1950022Y-8860310D01*
G01X1955008Y-8860310D01*
G01X1966075Y-8858557D01*
G01X1976058Y-8853470D01*
G01X1983982Y-8845547D01*
G01X1989069Y-8835563D01*
G01X1990822Y-8824496D01*
G01X1990822Y-8764496D01*
G01X1989069Y-8753429D01*
G01X1983982Y-8743445D01*
G01X1976058Y-8735522D01*
G01X1966075Y-8730435D01*
G01X1955008Y-8728682D01*
G01X1848007Y-8728682D01*
G01X1836940Y-8730435D01*
G01X1826957Y-8735522D01*
G01X1819033Y-8743445D01*
G01X1813946Y-8753429D01*
G01X1812193Y-8764496D01*
G01X1812193Y-8824496D01*
G01X1813946Y-8835563D01*
G01X1819033Y-8845547D01*
G01X1826957Y-8853470D01*
G01X1836940Y-8858557D01*
G01X1848007Y-8860310D01*
G01X1852994Y-8860310D01*
G01X1852994Y-8988535D01*
G01X1834073Y-8988535D01*
G01X1834073Y-8988535D01*
G01X1823006Y-8990288D01*
G01X1813022Y-8995375D01*
G01X1805099Y-9003299D01*
G01X1800012Y-9013282D01*
G01X1798259Y-9024349D01*
G01X1783141Y-9024349D01*
G01X1781388Y-9013282D01*
G01X1776301Y-9003299D01*
G01X1768378Y-8995375D01*
G01X1758394Y-8990288D01*
G01X1747327Y-8988535D01*
G01X1716373Y-8988535D01*
G01X1704052Y-8983060D01*
G01X1690700Y-8981186D01*
G01X1677348Y-8983060D01*
G01X1665027Y-8988535D01*
G01X1634073Y-8988535D01*
G01X1623006Y-8990288D01*
G01X1613022Y-8995375D01*
G01X1605099Y-9003299D01*
G01X1600012Y-9013282D01*
G01X1598259Y-9024349D01*
G01X1194514Y-9024349D01*
G01X1194514Y-8947100D01*
G01X1192577Y-8927432D01*
G01X1186840Y-8908520D01*
G01X1177524Y-8891091D01*
G01X1164986Y-8875814D01*
G01X1149709Y-8863276D01*
G01X1132280Y-8853960D01*
G01X1113368Y-8848223D01*
G01X1093700Y-8846286D01*
G01X963700Y-8846286D01*
G01X944032Y-8848223D01*
G01X925120Y-8853960D01*
G01X907691Y-8863276D01*
G01X892414Y-8875814D01*
G01X879876Y-8891091D01*
G01X870560Y-8908520D01*
G01X864823Y-8927432D01*
G01X862886Y-8947100D01*
G01X708914Y-8947100D01*
G01X708914Y-8669500D01*
G01X1565178Y-8669500D01*
G01X1565178Y-8729500D01*
G01X1566931Y-8740567D01*
G01X1572018Y-8750551D01*
G01X1579942Y-8758474D01*
G01X1589925Y-8763561D01*
G01X1600992Y-8765314D01*
G01X1707993Y-8765314D01*
G01X1719060Y-8763561D01*
G01X1729043Y-8758474D01*
G01X1736967Y-8750551D01*
G01X1742054Y-8740567D01*
G01X1743807Y-8729500D01*
G01X1743807Y-8669500D01*
G01X1743658Y-8666244D01*
G01X1812193Y-8597708D01*
G01X1812193Y-8634504D01*
G01X1813946Y-8645571D01*
G01X1819033Y-8655555D01*
G01X1826957Y-8663478D01*
G01X1836940Y-8668565D01*
G01X1848007Y-8670318D01*
G01X1955008Y-8670318D01*
G01X1966075Y-8668565D01*
G01X1976058Y-8663478D01*
G01X1983982Y-8655555D01*
G01X1989069Y-8645571D01*
G01X1990822Y-8634504D01*
G01X1990822Y-8574504D01*
G01X1989069Y-8563437D01*
G01X1983982Y-8553453D01*
G01X1976058Y-8545530D01*
G01X1966075Y-8540443D01*
G01X1955008Y-8538690D01*
G01X1871212Y-8538690D01*
G01X1897837Y-8512065D01*
G01X1934627Y-8512065D01*
G01X1945694Y-8510312D01*
G01X1955678Y-8505225D01*
G01X1963601Y-8497301D01*
G01X1968688Y-8487318D01*
G01X1970441Y-8476251D01*
G01X1970441Y-8338549D01*
G01X1968688Y-8327482D01*
G01X1963601Y-8317499D01*
G01X1955678Y-8309575D01*
G01X1945694Y-8304488D01*
G01X1934627Y-8302735D01*
G01X1926514Y-8302600D01*
G01X1924861Y-8290043D01*
G01X1920014Y-8278343D01*
G01X1912304Y-8268295D01*
G01X1851274Y-8207265D01*
G01X1921927Y-8207265D01*
G01X1932994Y-8205512D01*
G01X1942978Y-8200425D01*
G01X1950901Y-8192501D01*
G01X1955988Y-8182518D01*
G01X1957741Y-8171451D01*
G01X1957741Y-8117100D01*
G01X2374186Y-8117100D01*
G01X2374186Y-8247100D01*
G01X2376123Y-8266768D01*
G01X2381860Y-8285680D01*
G01X2391176Y-8303109D01*
G01X2403714Y-8318386D01*
G01X2418991Y-8330924D01*
G01X2436420Y-8340240D01*
G01X2455332Y-8345977D01*
G01X2475000Y-8347914D01*
G01X2605000Y-8347914D01*
G01X2624668Y-8345977D01*
G01X2643580Y-8340240D01*
G01X2661009Y-8330924D01*
G01X2676286Y-8318386D01*
G01X2688824Y-8303109D01*
G01X2698140Y-8285680D01*
G01X2703877Y-8266768D01*
G01X2705814Y-8247100D01*
G01X2705814Y-8138414D01*
G01X3096859Y-8138414D01*
G01X3096859Y-8158751D01*
G01X3098612Y-8169818D01*
G01X3103699Y-8179801D01*
G01X3111622Y-8187725D01*
G01X3121606Y-8192812D01*
G01X3132673Y-8194565D01*
G01X3245927Y-8194565D01*
G01X3256994Y-8192812D01*
G01X3266978Y-8187725D01*
G01X3274901Y-8179801D01*
G01X3279988Y-8169818D01*
G01X3281741Y-8158751D01*
G01X3281741Y-8021049D01*
G01X3279988Y-8009982D01*
G01X3274901Y-7999999D01*
G01X3266978Y-7992075D01*
G01X3256994Y-7986988D01*
G01X3245927Y-7985235D01*
G01X3132673Y-7985235D01*
G01X3121606Y-7986988D01*
G01X3111622Y-7992075D01*
G01X3103699Y-7999999D01*
G01X3098612Y-8009982D01*
G01X3096859Y-8021049D01*
G01X3096859Y-8041386D01*
G01X2671565Y-8041386D01*
G01X2656909Y-8030677D01*
G01X2640570Y-8022769D01*
G01X2623078Y-8017920D01*
G01X2605000Y-8016286D01*
G01X2605000Y-8016286D01*
G01X2475000Y-8016286D01*
G01X2455332Y-8018223D01*
G01X2436420Y-8023960D01*
G01X2418991Y-8033276D01*
G01X2403714Y-8045814D01*
G01X2391176Y-8061091D01*
G01X2381860Y-8078520D01*
G01X2376123Y-8097432D01*
G01X2374186Y-8117100D01*
G01X1957741Y-8117100D01*
G01X1957741Y-8033749D01*
G01X1955988Y-8022682D01*
G01X1950901Y-8012699D01*
G01X1942978Y-8004775D01*
G01X1932994Y-7999688D01*
G01X1921927Y-7997935D01*
G01X1829244Y-7997935D01*
G01X1737614Y-7906305D01*
G01X1737614Y-7824572D01*
G01X1841667Y-7824572D01*
G01X1841667Y-7847828D01*
G01X1845495Y-7870768D01*
G01X1853046Y-7892764D01*
G01X1864115Y-7913218D01*
G01X1878400Y-7931571D01*
G01X1895510Y-7947322D01*
G01X1914980Y-7960042D01*
G01X1936278Y-7969384D01*
G01X1958823Y-7975093D01*
G01X1982000Y-7977014D01*
G01X2082000Y-7977014D01*
G01X2105177Y-7975093D01*
G01X2127722Y-7969384D01*
G01X2149020Y-7960042D01*
G01X2168490Y-7947322D01*
G01X2185600Y-7931571D01*
G01X2199885Y-7913218D01*
G01X2210954Y-7892764D01*
G01X2218505Y-7870768D01*
G01X2222333Y-7847828D01*
G01X2222333Y-7824572D01*
G01X2844967Y-7824572D01*
G01X2844967Y-7847828D01*
G01X2848795Y-7870768D01*
G01X2856346Y-7892764D01*
G01X2867415Y-7913218D01*
G01X2881700Y-7931571D01*
G01X2898810Y-7947322D01*
G01X2918280Y-7960042D01*
G01X2939578Y-7969384D01*
G01X2962123Y-7975093D01*
G01X2985300Y-7977014D01*
G01X3085300Y-7977014D01*
G01X3108477Y-7975093D01*
G01X3131022Y-7969384D01*
G01X3152320Y-7960042D01*
G01X3171790Y-7947322D01*
G01X3188900Y-7931571D01*
G01X3203185Y-7913218D01*
G01X3214254Y-7892764D01*
G01X3221805Y-7870768D01*
G01X3225633Y-7847828D01*
G01X3225633Y-7824572D01*
G01X3221805Y-7801632D01*
G01X3214254Y-7779636D01*
G01X3203185Y-7759182D01*
G01X3188900Y-7740829D01*
G01X3171790Y-7725078D01*
G01X3152320Y-7712358D01*
G01X3131022Y-7703016D01*
G01X3108477Y-7697306D01*
G01X3085300Y-7695386D01*
G01X3085300Y-7695386D01*
G01X2985300Y-7695386D01*
G01X2962123Y-7697306D01*
G01X2939578Y-7703016D01*
G01X2918280Y-7712358D01*
G01X2898810Y-7725078D01*
G01X2881700Y-7740829D01*
G01X2867415Y-7759182D01*
G01X2856346Y-7779636D01*
G01X2848795Y-7801632D01*
G01X2844967Y-7824572D01*
G01X2222333Y-7824572D01*
G01X2218505Y-7801632D01*
G01X2210954Y-7779636D01*
G01X2199885Y-7759182D01*
G01X2185600Y-7740829D01*
G01X2168490Y-7725078D01*
G01X2149020Y-7712358D01*
G01X2127722Y-7703016D01*
G01X2105177Y-7697306D01*
G01X2082000Y-7695386D01*
G01X2082000Y-7695386D01*
G01X1982000Y-7695386D01*
G01X1958823Y-7697306D01*
G01X1936278Y-7703016D01*
G01X1914980Y-7712358D01*
G01X1895510Y-7725078D01*
G01X1878400Y-7740829D01*
G01X1864115Y-7759182D01*
G01X1853046Y-7779636D01*
G01X1845495Y-7801632D01*
G01X1841667Y-7824572D01*
G01X1737614Y-7824572D01*
G01X1737614Y-7461200D01*
G01X1866186Y-7461200D01*
G01X1866186Y-7591200D01*
G01X1868123Y-7610868D01*
G01X1873860Y-7629780D01*
G01X1883176Y-7647209D01*
G01X1895714Y-7662486D01*
G01X1910991Y-7675024D01*
G01X1928420Y-7684340D01*
G01X1947332Y-7690077D01*
G01X1967000Y-7692014D01*
G01X2097000Y-7692014D01*
G01X2097000Y-7692014D01*
G01X2116668Y-7690077D01*
G01X2135580Y-7684340D01*
G01X2153009Y-7675024D01*
G01X2168286Y-7662486D01*
G01X2180824Y-7647209D01*
G01X2190140Y-7629780D01*
G01X2195877Y-7610868D01*
G01X2197814Y-7591200D01*
G01X2197814Y-7461200D01*
G01X2869486Y-7461200D01*
G01X2869486Y-7591200D01*
G01X2871423Y-7610868D01*
G01X2877160Y-7629780D01*
G01X2886476Y-7647209D01*
G01X2899014Y-7662486D01*
G01X2914291Y-7675024D01*
G01X2931720Y-7684340D01*
G01X2950632Y-7690077D01*
G01X2970300Y-7692014D01*
G01X3100300Y-7692014D01*
G01X3100300Y-7692014D01*
G01X3119968Y-7690077D01*
G01X3138880Y-7684340D01*
G01X3156309Y-7675024D01*
G01X3171586Y-7662486D01*
G01X3184124Y-7647209D01*
G01X3193440Y-7629780D01*
G01X3199177Y-7610868D01*
G01X3201114Y-7591200D01*
G01X3201114Y-7461200D01*
G01X3199177Y-7441532D01*
G01X3193440Y-7422620D01*
G01X3184124Y-7405191D01*
G01X3171586Y-7389914D01*
G01X3156309Y-7377376D01*
G01X3138880Y-7368060D01*
G01X3119968Y-7362323D01*
G01X3100300Y-7360386D01*
G01X2970300Y-7360386D01*
G01X2950632Y-7362323D01*
G01X2931720Y-7368060D01*
G01X2914291Y-7377376D01*
G01X2899014Y-7389914D01*
G01X2886476Y-7405191D01*
G01X2877160Y-7422620D01*
G01X2871423Y-7441532D01*
G01X2869486Y-7461200D01*
G01X2197814Y-7461200D01*
G01X2195877Y-7441532D01*
G01X2190140Y-7422620D01*
G01X2180824Y-7405191D01*
G01X2168286Y-7389914D01*
G01X2153009Y-7377376D01*
G01X2135580Y-7368060D01*
G01X2116668Y-7362323D01*
G01X2097000Y-7360386D01*
G01X1967000Y-7360386D01*
G01X1947332Y-7362323D01*
G01X1928420Y-7368060D01*
G01X1910991Y-7377376D01*
G01X1895714Y-7389914D01*
G01X1883176Y-7405191D01*
G01X1873860Y-7422620D01*
G01X1868123Y-7441532D01*
G01X1866186Y-7461200D01*
G01X1737614Y-7461200D01*
G01X1737614Y-6446295D01*
G01X4084095Y-4099814D01*
G01X4505677Y-4099814D01*
G01X3306211Y-5299280D01*
G01X3056208Y-5299280D01*
G01X3043651Y-5300933D01*
G01X3031951Y-5305780D01*
G01X3021903Y-5313489D01*
G01X1794495Y-6540897D01*
G01X1786786Y-6550945D01*
G01X1781939Y-6562645D01*
G01X1780286Y-6575202D01*
G01X1780286Y-6908800D01*
G01X1781939Y-6921356D01*
G01X1786786Y-6933057D01*
G01X1794495Y-6943105D01*
G01X2111995Y-7260605D01*
G01X2122043Y-7268314D01*
G01X2133744Y-7273161D01*
G01X2146300Y-7274814D01*
G01X3256505Y-7274814D01*
G01X3570986Y-7589295D01*
G01X3570986Y-8146005D01*
G01X3426955Y-8290035D01*
G01X3362574Y-8290035D01*
G01X3421533Y-8231076D01*
G01X3430333Y-8220700D01*
G01X3435906Y-8208289D01*
G01X3437814Y-8194819D01*
G01X3437814Y-8194565D01*
G01X3445927Y-8194565D01*
G01X3456994Y-8192812D01*
G01X3466978Y-8187725D01*
G01X3474901Y-8179801D01*
G01X3479988Y-8169818D01*
G01X3481741Y-8158751D01*
G01X3481741Y-8021049D01*
G01X3479988Y-8009982D01*
G01X3474901Y-7999999D01*
G01X3466978Y-7992075D01*
G01X3456994Y-7986988D01*
G01X3445927Y-7985235D01*
G01X3332673Y-7985235D01*
G01X3321606Y-7986988D01*
G01X3311622Y-7992075D01*
G01X3303699Y-7999999D01*
G01X3298612Y-8009982D01*
G01X3296859Y-8021049D01*
G01X3296859Y-8158751D01*
G01X3298672Y-8170002D01*
G01X3303929Y-8180114D01*
G01X3312096Y-8188063D01*
G01X3322347Y-8193044D01*
G01X3225356Y-8290035D01*
G01X3132673Y-8290035D01*
G01X3121606Y-8291788D01*
G01X3111622Y-8296875D01*
G01X3103699Y-8304799D01*
G01X3098612Y-8314782D01*
G01X3096859Y-8325849D01*
G01X3096859Y-8463551D01*
G01X3098657Y-8474755D01*
G01X3103870Y-8484835D01*
G01X3103870Y-8624112D01*
G01X3098884Y-8624112D01*
G01X3087817Y-8625865D01*
G01X3077833Y-8630952D01*
G01X3069910Y-8638875D01*
G01X3064823Y-8648859D01*
G01X3063070Y-8659926D01*
G01X3063070Y-8719926D01*
G01X3064823Y-8730993D01*
G01X3069910Y-8740977D01*
G01X3077833Y-8748900D01*
G01X3087817Y-8753987D01*
G01X3098884Y-8755740D01*
G01X3205884Y-8755740D01*
G01X3216952Y-8753987D01*
G01X3226935Y-8748900D01*
G01X3234859Y-8740977D01*
G01X3239946Y-8730993D01*
G01X3241698Y-8719926D01*
G01X3241698Y-8659926D01*
G01X3239946Y-8648859D01*
G01X3234859Y-8638875D01*
G01X3226935Y-8630952D01*
G01X3216952Y-8625865D01*
G01X3205884Y-8624112D01*
G01X3200898Y-8624112D01*
G01X3200898Y-8564930D01*
G01X3310085Y-8564930D01*
G01X3310085Y-8624930D01*
G01X3310085Y-8624930D01*
G01X3311838Y-8635997D01*
G01X3316925Y-8645981D01*
G01X3324848Y-8653904D01*
G01X3334832Y-8658991D01*
G01X3345899Y-8660744D01*
G01X3452899Y-8660744D01*
G01X3463967Y-8658991D01*
G01X3473950Y-8653904D01*
G01X3481874Y-8645981D01*
G01X3486961Y-8635997D01*
G01X3488713Y-8624930D01*
G01X3488713Y-8564930D01*
G01X3486961Y-8553863D01*
G01X3481874Y-8543879D01*
G01X3473950Y-8535956D01*
G01X3463967Y-8530869D01*
G01X3452899Y-8529116D01*
G01X3345899Y-8529116D01*
G01X3334832Y-8530869D01*
G01X3324848Y-8535956D01*
G01X3316925Y-8543879D01*
G01X3311838Y-8553863D01*
G01X3310085Y-8564930D01*
G01X3200898Y-8564930D01*
G01X3200898Y-8499365D01*
G01X3245927Y-8499365D01*
G01X3256994Y-8497612D01*
G01X3266978Y-8492525D01*
G01X3274901Y-8484601D01*
G01X3279988Y-8474618D01*
G01X3281741Y-8463551D01*
G01X3281741Y-8370868D01*
G01X3296859Y-8355750D01*
G01X3296859Y-8463551D01*
G01X3298612Y-8474618D01*
G01X3303699Y-8484601D01*
G01X3311622Y-8492525D01*
G01X3321606Y-8497612D01*
G01X3332673Y-8499365D01*
G01X3445927Y-8499365D01*
G01X3456994Y-8497612D01*
G01X3466978Y-8492525D01*
G01X3474901Y-8484601D01*
G01X3479988Y-8474618D01*
G01X3481741Y-8463551D01*
G01X3481741Y-8372469D01*
G01X3653805Y-8200405D01*
G01X3661514Y-8190357D01*
G01X3666361Y-8178656D01*
G01X3668014Y-8166100D01*
G01X3668014Y-7824572D01*
G01X3848267Y-7824572D01*
G01X3848267Y-7847828D01*
G01X3852095Y-7870768D01*
G01X3859646Y-7892764D01*
G01X3870715Y-7913218D01*
G01X3885000Y-7931571D01*
G01X3902110Y-7947322D01*
G01X3921580Y-7960042D01*
G01X3942878Y-7969384D01*
G01X3965423Y-7975093D01*
G01X3988600Y-7977014D01*
G01X4088600Y-7977014D01*
G01X4111777Y-7975093D01*
G01X4134322Y-7969384D01*
G01X4155620Y-7960042D01*
G01X4175090Y-7947322D01*
G01X4192200Y-7931571D01*
G01X4206485Y-7913218D01*
G01X4217554Y-7892764D01*
G01X4225105Y-7870768D01*
G01X4228933Y-7847828D01*
G01X4228933Y-7824572D01*
G01X4225105Y-7801632D01*
G01X4217554Y-7779636D01*
G01X4206485Y-7759182D01*
G01X4192200Y-7740829D01*
G01X4175090Y-7725078D01*
G01X4155620Y-7712358D01*
G01X4134322Y-7703016D01*
G01X4111777Y-7697306D01*
G01X4088600Y-7695386D01*
G01X4088600Y-7695386D01*
G01X3988600Y-7695386D01*
G01X3965423Y-7697306D01*
G01X3942878Y-7703016D01*
G01X3921580Y-7712358D01*
G01X3902110Y-7725078D01*
G01X3885000Y-7740829D01*
G01X3870715Y-7759182D01*
G01X3859646Y-7779636D01*
G01X3852095Y-7801632D01*
G01X3848267Y-7824572D01*
G01X3668014Y-7824572D01*
G01X3668014Y-7569200D01*
G01X3666361Y-7556644D01*
G01X3661514Y-7544943D01*
G01X3653805Y-7534895D01*
G01X3580109Y-7461200D01*
G01X3872786Y-7461200D01*
G01X3872786Y-7591200D01*
G01X3874723Y-7610868D01*
G01X3880460Y-7629780D01*
G01X3889776Y-7647209D01*
G01X3902314Y-7662486D01*
G01X3917591Y-7675024D01*
G01X3935020Y-7684340D01*
G01X3953932Y-7690077D01*
G01X3973600Y-7692014D01*
G01X4103600Y-7692014D01*
G01X4103600Y-7692014D01*
G01X4123268Y-7690077D01*
G01X4142180Y-7684340D01*
G01X4159609Y-7675024D01*
G01X4174886Y-7662486D01*
G01X4187424Y-7647209D01*
G01X4196740Y-7629780D01*
G01X4202477Y-7610868D01*
G01X4204414Y-7591200D01*
G01X4204414Y-7461200D01*
G01X4202477Y-7441532D01*
G01X4196740Y-7422620D01*
G01X4187424Y-7405191D01*
G01X4174886Y-7389914D01*
G01X4159609Y-7377376D01*
G01X4142180Y-7368060D01*
G01X4123268Y-7362323D01*
G01X4103600Y-7360386D01*
G01X3973600Y-7360386D01*
G01X3953932Y-7362323D01*
G01X3935020Y-7368060D01*
G01X3917591Y-7377376D01*
G01X3902314Y-7389914D01*
G01X3889776Y-7405191D01*
G01X3880460Y-7422620D01*
G01X3874723Y-7441532D01*
G01X3872786Y-7461200D01*
G01X3580109Y-7461200D01*
G01X3310905Y-7191995D01*
G01X3300857Y-7184286D01*
G01X3289156Y-7179439D01*
G01X3276600Y-7177786D01*
G01X2166395Y-7177786D01*
G01X1877314Y-6888705D01*
G01X1877314Y-6807242D01*
G01X1887175Y-6822775D01*
G01X1899695Y-6836256D01*
G01X1914456Y-6847238D01*
G01X1930967Y-6855355D01*
G01X1948678Y-6860335D01*
G01X1967000Y-6862014D01*
G01X2097000Y-6862014D01*
G01X2116668Y-6860077D01*
G01X2135580Y-6854340D01*
G01X2153009Y-6845024D01*
G01X2168286Y-6832486D01*
G01X2180824Y-6817209D01*
G01X2190140Y-6799780D01*
G01X2195877Y-6780868D01*
G01X2197814Y-6761200D01*
G01X2197814Y-6744714D01*
G01X2739900Y-6744714D01*
G01X2752456Y-6743061D01*
G01X2764157Y-6738214D01*
G01X2774205Y-6730505D01*
G01X2869486Y-6635223D01*
G01X2869486Y-6761200D01*
G01X2871423Y-6780868D01*
G01X2877160Y-6799780D01*
G01X2886476Y-6817209D01*
G01X2899014Y-6832486D01*
G01X2914291Y-6845024D01*
G01X2931720Y-6854340D01*
G01X2950632Y-6860077D01*
G01X2970300Y-6862014D01*
G01X3100300Y-6862014D01*
G01X3119968Y-6860077D01*
G01X3138880Y-6854340D01*
G01X3156309Y-6845024D01*
G01X3171586Y-6832486D01*
G01X3184124Y-6817209D01*
G01X3193440Y-6799780D01*
G01X3199177Y-6780868D01*
G01X3201114Y-6761200D01*
G01X3201114Y-6744714D01*
G01X3362200Y-6744714D01*
G01X3374756Y-6743061D01*
G01X3386457Y-6738214D01*
G01X3396505Y-6730505D01*
G01X3495809Y-6631200D01*
G01X3872786Y-6631200D01*
G01X3872786Y-6761200D01*
G01X3874723Y-6780868D01*
G01X3880460Y-6799780D01*
G01X3889776Y-6817209D01*
G01X3902314Y-6832486D01*
G01X3917591Y-6845024D01*
G01X3935020Y-6854340D01*
G01X3953932Y-6860077D01*
G01X3973600Y-6862014D01*
G01X4103600Y-6862014D01*
G01X4103600Y-6862014D01*
G01X4123268Y-6860077D01*
G01X4142180Y-6854340D01*
G01X4159609Y-6845024D01*
G01X4174886Y-6832486D01*
G01X4187424Y-6817209D01*
G01X4196740Y-6799780D01*
G01X4202477Y-6780868D01*
G01X4204414Y-6761200D01*
G01X4204414Y-6631200D01*
G01X4202477Y-6611532D01*
G01X4196740Y-6592620D01*
G01X4187424Y-6575191D01*
G01X4174886Y-6559914D01*
G01X4159609Y-6547376D01*
G01X4142180Y-6538060D01*
G01X4123268Y-6532323D01*
G01X4103600Y-6530386D01*
G01X3973600Y-6530386D01*
G01X3953932Y-6532323D01*
G01X3935020Y-6538060D01*
G01X3917591Y-6547376D01*
G01X3902314Y-6559914D01*
G01X3889776Y-6575191D01*
G01X3880460Y-6592620D01*
G01X3874723Y-6611532D01*
G01X3872786Y-6631200D01*
G01X3495809Y-6631200D01*
G01X3566505Y-6560504D01*
G01X3574215Y-6550457D01*
G01X3579061Y-6538756D01*
G01X3580714Y-6526200D01*
G01X3580714Y-6467365D01*
G01X3588827Y-6467365D01*
G01X3599894Y-6465612D01*
G01X3609878Y-6460525D01*
G01X3617801Y-6452601D01*
G01X3622888Y-6442618D01*
G01X3624641Y-6431551D01*
G01X3624641Y-6293849D01*
G01X3622888Y-6282782D01*
G01X3617801Y-6272799D01*
G01X3609878Y-6264875D01*
G01X3599894Y-6259788D01*
G01X3588827Y-6258035D01*
G01X3475573Y-6258035D01*
G01X3464506Y-6259788D01*
G01X3454522Y-6264875D01*
G01X3446599Y-6272799D01*
G01X3441512Y-6282782D01*
G01X3439759Y-6293849D01*
G01X3439759Y-6431551D01*
G01X3441512Y-6442618D01*
G01X3446599Y-6452601D01*
G01X3454522Y-6460525D01*
G01X3464506Y-6465612D01*
G01X3475573Y-6467365D01*
G01X3483686Y-6467365D01*
G01X3483686Y-6506105D01*
G01X3342105Y-6647686D01*
G01X3201114Y-6647686D01*
G01X3201114Y-6631200D01*
G01X3199177Y-6611532D01*
G01X3193440Y-6592620D01*
G01X3184124Y-6575191D01*
G01X3171586Y-6559914D01*
G01X3156309Y-6547376D01*
G01X3138880Y-6538060D01*
G01X3119968Y-6532323D01*
G01X3100300Y-6530386D01*
G01X2974323Y-6530386D01*
G01X3052569Y-6452140D01*
G01X3060518Y-6460301D01*
G01X3070627Y-6465553D01*
G01X3081873Y-6467365D01*
G01X3195127Y-6467365D01*
G01X3206194Y-6465612D01*
G01X3216178Y-6460525D01*
G01X3224101Y-6452601D01*
G01X3229188Y-6442618D01*
G01X3230941Y-6431551D01*
G01X3230941Y-6293849D01*
G01X3229188Y-6282782D01*
G01X3224101Y-6272799D01*
G01X3216178Y-6264875D01*
G01X3206194Y-6259788D01*
G01X3195127Y-6258035D01*
G01X3081873Y-6258035D01*
G01X3070806Y-6259788D01*
G01X3060822Y-6264875D01*
G01X3052899Y-6272799D01*
G01X3047812Y-6282782D01*
G01X3046059Y-6293849D01*
G01X3046059Y-6339625D01*
G01X3034198Y-6341591D01*
G01X3023185Y-6346413D01*
G01X3013695Y-6353795D01*
G01X2719805Y-6647686D01*
G01X2197814Y-6647686D01*
G01X2197814Y-6631200D01*
G01X2195877Y-6611532D01*
G01X2190140Y-6592620D01*
G01X2180824Y-6575191D01*
G01X2168286Y-6559914D01*
G01X2153009Y-6547376D01*
G01X2135580Y-6538060D01*
G01X2116668Y-6532323D01*
G01X2097000Y-6530386D01*
G01X1967000Y-6530386D01*
G01X1952318Y-6531461D01*
G01X1937948Y-6534663D01*
G01X2195220Y-6277391D01*
G01X2188668Y-6297974D01*
G01X2185733Y-6319374D01*
G01X2186502Y-6340960D01*
G01X2190952Y-6362097D01*
G01X2198952Y-6382161D01*
G01X2210265Y-6400561D01*
G01X2224560Y-6416755D01*
G01X2241414Y-6430265D01*
G01X2260330Y-6440693D01*
G01X2280751Y-6447732D01*
G01X2302076Y-6451174D01*
G01X2323674Y-6450917D01*
G01X2344911Y-6446970D01*
G01X2365159Y-6439449D01*
G01X2383823Y-6428575D01*
G01X2400351Y-6414669D01*
G01X2414257Y-6398140D01*
G01X2425131Y-6379477D01*
G01X2432653Y-6359228D01*
G01X2436600Y-6337992D01*
G01X2436746Y-6325705D01*
G01X2439573Y-6325705D01*
G01X2441485Y-6347552D01*
G01X2447161Y-6368736D01*
G01X2456429Y-6388612D01*
G01X2469008Y-6406576D01*
G01X2484516Y-6422084D01*
G01X2502480Y-6434663D01*
G01X2522356Y-6443931D01*
G01X2543540Y-6449607D01*
G01X2565387Y-6451519D01*
G01X2587235Y-6449607D01*
G01X2608418Y-6443931D01*
G01X2628294Y-6434663D01*
G01X2646259Y-6422084D01*
G01X2661766Y-6406576D01*
G01X2674345Y-6388612D01*
G01X2683614Y-6368736D01*
G01X2689290Y-6347552D01*
G01X2691201Y-6325705D01*
G01X2693573Y-6325705D01*
G01X2695485Y-6347552D01*
G01X2701161Y-6368736D01*
G01X2710429Y-6388612D01*
G01X2723008Y-6406576D01*
G01X2738516Y-6422084D01*
G01X2756480Y-6434663D01*
G01X2776356Y-6443931D01*
G01X2797540Y-6449607D01*
G01X2819387Y-6451519D01*
G01X2841235Y-6449607D01*
G01X2862418Y-6443931D01*
G01X2882294Y-6434663D01*
G01X2900259Y-6422084D01*
G01X2915766Y-6406576D01*
G01X2928345Y-6388612D01*
G01X2937614Y-6368736D01*
G01X2943290Y-6347552D01*
G01X2945201Y-6325705D01*
G01X2943290Y-6303858D01*
G01X2937614Y-6282674D01*
G01X2928345Y-6262798D01*
G01X2915766Y-6244833D01*
G01X2900259Y-6229326D01*
G01X2882294Y-6216747D01*
G01X2862418Y-6207479D01*
G01X2841235Y-6201802D01*
G01X2819387Y-6199891D01*
G01X2797540Y-6201802D01*
G01X2776356Y-6207479D01*
G01X2756480Y-6216747D01*
G01X2738516Y-6229326D01*
G01X2723008Y-6244833D01*
G01X2710429Y-6262798D01*
G01X2701161Y-6282674D01*
G01X2695485Y-6303858D01*
G01X2693573Y-6325705D01*
G01X2693573Y-6325705D01*
G01X2691201Y-6325705D01*
G01X2689290Y-6303858D01*
G01X2683614Y-6282674D01*
G01X2674345Y-6262798D01*
G01X2661766Y-6244833D01*
G01X2646259Y-6229326D01*
G01X2628294Y-6216747D01*
G01X2608418Y-6207479D01*
G01X2587235Y-6201802D01*
G01X2565387Y-6199891D01*
G01X2543540Y-6201802D01*
G01X2522356Y-6207479D01*
G01X2502480Y-6216747D01*
G01X2484516Y-6229326D01*
G01X2469008Y-6244833D01*
G01X2456429Y-6262798D01*
G01X2447161Y-6282674D01*
G01X2441485Y-6303858D01*
G01X2439573Y-6325705D01*
G01X2439573Y-6325705D01*
G01X2436746Y-6325705D01*
G01X2436856Y-6316393D01*
G01X2433414Y-6295069D01*
G01X2426375Y-6274648D01*
G01X2415947Y-6255731D01*
G01X2402437Y-6238878D01*
G01X2386244Y-6224583D01*
G01X2367844Y-6213269D01*
G01X2347779Y-6205269D01*
G01X2326643Y-6200819D01*
G01X2305056Y-6200050D01*
G01X2283656Y-6202985D01*
G01X2263074Y-6209537D01*
G01X2964585Y-5508026D01*
G01X2964585Y-5660694D01*
G01X2966442Y-5684286D01*
G01X2971966Y-5707298D01*
G01X2981023Y-5729162D01*
G01X2993388Y-5749340D01*
G01X3008757Y-5767335D01*
G01X3026753Y-5782704D01*
G01X3046931Y-5795070D01*
G01X3068795Y-5804126D01*
G01X3091806Y-5809651D01*
G01X3115399Y-5811507D01*
G01X3138991Y-5809651D01*
G01X3162003Y-5804126D01*
G01X3183867Y-5795070D01*
G01X3204045Y-5782704D01*
G01X3222040Y-5767335D01*
G01X3237410Y-5749340D01*
G01X3249775Y-5729162D01*
G01X3258831Y-5707298D01*
G01X3264356Y-5684286D01*
G01X3266213Y-5660694D01*
G01X3266213Y-5490694D01*
G01X3264836Y-5470360D01*
G01X3260729Y-5450397D01*
G01X3253969Y-5431170D01*
G01X3244678Y-5413030D01*
G01X3233026Y-5396308D01*
G01X3326306Y-5396308D01*
G01X3338862Y-5394655D01*
G01X3350563Y-5389808D01*
G01X3360611Y-5382099D01*
G01X4461386Y-4281323D01*
G01X4461386Y-4352065D01*
G01X4463039Y-4364621D01*
G01X4467886Y-4376322D01*
G01X4475595Y-4386369D01*
G01X4541731Y-4452505D01*
G01X4552835Y-4460807D01*
G01X4536334Y-4474922D01*
G01X4522626Y-4491763D01*
G01X4512155Y-4510786D01*
G01X4394200Y-4510786D01*
G01X4381644Y-4512439D01*
G01X4369943Y-4517286D01*
G01X4359895Y-4524995D01*
G01X3304195Y-5580696D01*
G01X3296485Y-5590743D01*
G01X3291639Y-5602444D01*
G01X3289986Y-5615000D01*
G01X3289986Y-6258035D01*
G01X3281873Y-6258035D01*
G01X3270806Y-6259788D01*
G01X3260822Y-6264875D01*
G01X3252899Y-6272799D01*
G01X3247812Y-6282782D01*
G01X3246059Y-6293849D01*
G01X3246059Y-6431551D01*
G01X3247812Y-6442618D01*
G01X3252899Y-6452601D01*
G01X3260822Y-6460525D01*
G01X3270806Y-6465612D01*
G01X3281873Y-6467365D01*
G01X3395127Y-6467365D01*
G01X3406194Y-6465612D01*
G01X3416178Y-6460525D01*
G01X3424101Y-6452601D01*
G01X3429188Y-6442618D01*
G01X3430941Y-6431551D01*
G01X3430941Y-6293849D01*
G01X3429188Y-6282782D01*
G01X3424101Y-6272799D01*
G01X3416178Y-6264875D01*
G01X3406194Y-6259788D01*
G01X3395127Y-6258035D01*
G01X3387014Y-6258035D01*
G01X3387014Y-5635095D01*
G01X4414295Y-4607814D01*
G01X4512155Y-4607814D01*
G01X4522088Y-4626032D01*
G01X4534993Y-4642281D01*
G01X4550487Y-4656083D01*
G01X4568115Y-4667029D01*
G01X4587356Y-4674798D01*
G01X4607643Y-4679159D01*
G01X4628376Y-4679985D01*
G01X4648945Y-4677251D01*
G01X4668743Y-4671037D01*
G01X4687186Y-4661527D01*
G01X4687186Y-4711073D01*
G01X4668743Y-4701563D01*
G01X4648945Y-4695349D01*
G01X4628376Y-4692615D01*
G01X4607643Y-4693441D01*
G01X4587356Y-4697802D01*
G01X4568115Y-4705571D01*
G01X4550487Y-4716517D01*
G01X4534993Y-4730319D01*
G01X4522088Y-4746568D01*
G01X4512155Y-4764786D01*
G01X4457700Y-4764786D01*
G01X4445144Y-4766439D01*
G01X4433443Y-4771286D01*
G01X4423395Y-4778995D01*
G01X4232895Y-4969495D01*
G01X4225186Y-4979543D01*
G01X4220339Y-4991244D01*
G01X4218686Y-5003800D01*
G01X4218686Y-5807605D01*
G01X3768255Y-6258035D01*
G01X3675573Y-6258035D01*
G01X3664506Y-6259788D01*
G01X3654522Y-6264875D01*
G01X3646599Y-6272799D01*
G01X3641512Y-6282782D01*
G01X3639759Y-6293849D01*
G01X3639759Y-6431551D01*
G01X3641512Y-6442618D01*
G01X3646599Y-6452601D01*
G01X3654522Y-6460525D01*
G01X3664506Y-6465612D01*
G01X3675573Y-6467365D01*
G01X3788827Y-6467365D01*
G01X3799894Y-6465612D01*
G01X3809878Y-6460525D01*
G01X3817801Y-6452601D01*
G01X3822888Y-6442618D01*
G01X3824641Y-6431551D01*
G01X3824641Y-6338868D01*
G01X4301505Y-5862004D01*
G01X4309214Y-5851957D01*
G01X4314061Y-5840256D01*
G01X4315714Y-5827700D01*
G01X4315714Y-5023895D01*
G01X4477795Y-4861814D01*
G01X4512155Y-4861814D01*
G01X4522626Y-4880837D01*
G01X4536334Y-4897678D01*
G01X4552835Y-4911793D01*
G01X4541731Y-4920095D01*
G01X4475595Y-4986231D01*
G01X4467886Y-4996278D01*
G01X4463039Y-5007979D01*
G01X4461386Y-5020535D01*
G01X4461386Y-5114065D01*
G01X4463039Y-5126621D01*
G01X4467886Y-5138322D01*
G01X4475595Y-5148369D01*
G01X4574286Y-5247060D01*
G01X4574286Y-6914105D01*
G01X4258295Y-7230095D01*
G01X4250586Y-7240143D01*
G01X4245739Y-7251844D01*
G01X4244086Y-7264400D01*
G01X4244086Y-7930390D01*
G01X4234988Y-7942761D01*
G01X4228979Y-7956894D01*
G01X4226382Y-7972029D01*
G01X4227336Y-7987356D01*
G01X4231790Y-8002053D01*
G01X4239506Y-8015331D01*
G01X4250068Y-8026478D01*
G01X4262911Y-8034897D01*
G01X4277347Y-8040136D01*
G01X4292600Y-8041914D01*
G01X4307853Y-8040136D01*
G01X4322289Y-8034897D01*
G01X4335132Y-8026478D01*
G01X4345694Y-8015331D01*
G01X4353410Y-8002053D01*
G01X4357864Y-7987356D01*
G01X4358818Y-7972029D01*
G01X4356221Y-7956894D01*
G01X4350212Y-7942761D01*
G01X4341114Y-7930390D01*
G01X4341114Y-7835900D01*
G01X4496984Y-7835900D01*
G01X4498895Y-7857747D01*
G01X4504571Y-7878931D01*
G01X4513839Y-7898807D01*
G01X4526418Y-7916772D01*
G01X4541926Y-7932279D01*
G01X4559891Y-7944858D01*
G01X4579767Y-7954126D01*
G01X4600950Y-7959802D01*
G01X4622797Y-7961714D01*
G01X4644645Y-7959802D01*
G01X4665828Y-7954126D01*
G01X4685704Y-7944858D01*
G01X4703669Y-7932279D01*
G01X4719176Y-7916772D01*
G01X4731755Y-7898807D01*
G01X4741024Y-7878931D01*
G01X4746700Y-7857747D01*
G01X4748611Y-7835900D01*
G01X4746700Y-7814053D01*
G01X4741024Y-7792869D01*
G01X4731755Y-7772993D01*
G01X4719176Y-7755028D01*
G01X4703669Y-7739521D01*
G01X4685704Y-7726942D01*
G01X4665828Y-7717674D01*
G01X4644645Y-7711998D01*
G01X4622797Y-7710086D01*
G01X4622797Y-7710086D01*
G01X4600950Y-7711998D01*
G01X4579767Y-7717674D01*
G01X4559891Y-7726942D01*
G01X4541926Y-7739521D01*
G01X4526418Y-7755028D01*
G01X4513839Y-7772993D01*
G01X4504571Y-7792869D01*
G01X4498895Y-7814053D01*
G01X4496984Y-7835900D01*
G01X4341114Y-7835900D01*
G01X4341114Y-7327900D01*
G01X4496984Y-7327900D01*
G01X4498895Y-7349747D01*
G01X4504571Y-7370931D01*
G01X4513839Y-7390807D01*
G01X4526418Y-7408772D01*
G01X4541926Y-7424279D01*
G01X4559891Y-7436858D01*
G01X4579767Y-7446126D01*
G01X4600950Y-7451802D01*
G01X4622797Y-7453714D01*
G01X4644645Y-7451802D01*
G01X4665828Y-7446126D01*
G01X4685704Y-7436858D01*
G01X4703669Y-7424279D01*
G01X4719176Y-7408772D01*
G01X4731755Y-7390807D01*
G01X4741024Y-7370931D01*
G01X4746700Y-7349747D01*
G01X4748611Y-7327900D01*
G01X4746700Y-7306053D01*
G01X4741024Y-7284869D01*
G01X4731755Y-7264993D01*
G01X4719176Y-7247028D01*
G01X4703669Y-7231521D01*
G01X4685704Y-7218942D01*
G01X4665828Y-7209674D01*
G01X4644645Y-7203998D01*
G01X4622797Y-7202086D01*
G01X4622797Y-7202086D01*
G01X4600950Y-7203998D01*
G01X4579767Y-7209674D01*
G01X4559891Y-7218942D01*
G01X4541926Y-7231521D01*
G01X4526418Y-7247028D01*
G01X4513839Y-7264993D01*
G01X4504571Y-7284869D01*
G01X4498895Y-7306053D01*
G01X4496984Y-7327900D01*
G01X4341114Y-7327900D01*
G01X4341114Y-7284495D01*
G01X4657105Y-6968505D01*
G01X4664814Y-6958457D01*
G01X4669661Y-6946756D01*
G01X4671314Y-6934200D01*
G01X4671314Y-5226965D01*
G01X4669661Y-5214408D01*
G01X4664814Y-5202708D01*
G01X4657105Y-5192660D01*
G01X4649558Y-5185113D01*
G01X4669881Y-5178563D01*
G01X4688733Y-5168536D01*
G01X4705526Y-5155348D01*
G01X4719734Y-5139409D01*
G01X4730915Y-5121217D01*
G01X4738719Y-5101342D01*
G01X4742901Y-5080403D01*
G01X4743332Y-5059055D01*
G01X4739998Y-5037964D01*
G01X4733003Y-5017790D01*
G01X4722566Y-4999162D01*
G01X4709012Y-4982662D01*
G01X4692765Y-4968807D01*
G01X4703869Y-4960505D01*
G01X4770005Y-4894369D01*
G01X4777714Y-4884322D01*
G01X4782561Y-4872621D01*
G01X4784214Y-4860065D01*
G01X4784214Y-4512535D01*
G01X4782561Y-4499979D01*
G01X4777714Y-4488278D01*
G01X4770005Y-4478231D01*
G01X4703869Y-4412095D01*
G01X4692765Y-4403793D01*
G01X4707465Y-4391485D01*
G01X4720032Y-4377007D01*
G01X4730152Y-4360722D01*
G01X4737567Y-4343042D01*
G01X4742093Y-4324412D01*
G01X4743614Y-4305300D01*
G01X4742093Y-4286188D01*
G01X4737567Y-4267558D01*
G01X4730152Y-4249878D01*
G01X4720032Y-4233593D01*
G01X4707465Y-4219115D01*
G01X4692765Y-4206807D01*
G01X4703869Y-4198505D01*
G01X4770005Y-4132369D01*
G01X4777714Y-4122322D01*
G01X4782561Y-4110621D01*
G01X4784214Y-4098065D01*
G01X4784214Y-4004535D01*
G01X4782561Y-3991979D01*
G01X4777714Y-3980278D01*
G01X4770005Y-3970231D01*
G01X4703869Y-3904095D01*
G01X4692765Y-3895793D01*
G01X4707935Y-3883021D01*
G01X4720811Y-3867938D01*
G01X4731047Y-3850953D01*
G01X4738366Y-3832522D01*
G01X4742571Y-3813142D01*
G01X4743549Y-3793335D01*
G01X4741273Y-3773635D01*
G01X4735806Y-3754573D01*
G01X4727294Y-3736661D01*
G01X4715966Y-3720384D01*
G01X4702128Y-3706179D01*
G01X4686153Y-3694429D01*
G01X4668471Y-3685451D01*
G01X4649558Y-3679487D01*
G01X4657105Y-3671940D01*
G01X4663389Y-3664208D01*
G01X4667962Y-3655355D01*
G01X4686836Y-3645747D01*
G01X4703742Y-3632990D01*
G01X4718161Y-3617477D01*
G01X4729649Y-3599685D01*
G01X4737854Y-3580160D01*
G01X4742522Y-3559502D01*
G01X4743512Y-3538346D01*
G01X4740792Y-3517343D01*
G01X4734447Y-3497137D01*
G01X4724670Y-3478350D01*
G01X4711762Y-3461559D01*
G01X4696121Y-3447279D01*
G01X4678227Y-3435951D01*
G01X4658629Y-3427921D01*
G01X4637930Y-3423437D01*
G01X4616767Y-3422637D01*
G01X4595788Y-3425545D01*
G01X4575640Y-3432071D01*
G01X4556941Y-3442015D01*
G01X4540266Y-3455073D01*
G01X4526127Y-3470841D01*
G01X4514959Y-3488836D01*
G01X4507105Y-3508505D01*
G01X4502807Y-3529243D01*
G01X4502196Y-3550413D01*
G01X4505291Y-3571364D01*
G01X4511997Y-3591453D01*
G01X4522109Y-3610063D01*
G01X4535315Y-3626620D01*
G01X4551209Y-3640617D01*
G01X4475595Y-3716231D01*
G01X4467886Y-3726278D01*
G01X4463039Y-3737979D01*
G01X4461386Y-3750535D01*
G01X4461386Y-3844065D01*
G01X4463039Y-3856621D01*
G01X4467886Y-3868322D01*
G01X4475595Y-3878369D01*
G01X4541731Y-3944505D01*
G01X4552835Y-3952807D01*
G01X4536334Y-3966922D01*
G01X4522626Y-3983763D01*
G01X4512155Y-4002786D01*
G01X4064000Y-4002786D01*
G01X4051444Y-4004439D01*
G01X4039743Y-4009286D01*
G01X4029695Y-4016995D01*
G01X1654795Y-6391895D01*
G01X1647086Y-6401943D01*
G01X1642239Y-6413644D01*
G01X1640586Y-6426200D01*
G01X1640586Y-7926400D01*
G01X1640586Y-7926400D01*
G01X1642239Y-7938957D01*
G01X1647086Y-7950657D01*
G01X1654795Y-7960705D01*
G01X1692026Y-7997935D01*
G01X1608673Y-7997935D01*
G01X1597606Y-7999688D01*
G01X1587622Y-8004775D01*
G01X1579699Y-8012699D01*
G01X1574612Y-8022682D01*
G01X1572859Y-8033749D01*
G01X1572859Y-8171451D01*
G01X1574612Y-8182518D01*
G01X1579699Y-8192501D01*
G01X1587622Y-8200425D01*
G01X1597606Y-8205512D01*
G01X1608673Y-8207265D01*
G01X1714056Y-8207265D01*
G01X1811047Y-8304256D01*
G01X1800796Y-8309237D01*
G01X1792629Y-8317186D01*
G01X1787372Y-8327298D01*
G01X1785559Y-8338549D01*
G01X1785559Y-8476251D01*
G01X1786862Y-8485822D01*
G01X1638997Y-8633686D01*
G01X1600992Y-8633686D01*
G01X1589925Y-8635439D01*
G01X1579942Y-8640526D01*
G01X1572018Y-8648449D01*
G01X1566931Y-8658433D01*
G01X1565178Y-8669500D01*
G01X708914Y-8669500D01*
G01X708914Y-8117100D01*
G01X862886Y-8117100D01*
G01X862886Y-8247100D01*
G01X864823Y-8266768D01*
G01X870560Y-8285680D01*
G01X879876Y-8303109D01*
G01X892414Y-8318386D01*
G01X907691Y-8330924D01*
G01X925120Y-8340240D01*
G01X944032Y-8345977D01*
G01X963700Y-8347914D01*
G01X1093700Y-8347914D01*
G01X1107935Y-8346904D01*
G01X1121885Y-8343894D01*
G01X1219695Y-8441705D01*
G01X1229743Y-8449414D01*
G01X1241444Y-8454261D01*
G01X1254000Y-8455914D01*
G01X1585559Y-8455914D01*
G01X1585559Y-8476251D01*
G01X1587312Y-8487318D01*
G01X1592399Y-8497301D01*
G01X1600322Y-8505225D01*
G01X1610306Y-8510312D01*
G01X1621373Y-8512065D01*
G01X1734627Y-8512065D01*
G01X1745694Y-8510312D01*
G01X1755678Y-8505225D01*
G01X1763601Y-8497301D01*
G01X1768688Y-8487318D01*
G01X1770441Y-8476251D01*
G01X1770441Y-8338549D01*
G01X1768688Y-8327482D01*
G01X1763601Y-8317499D01*
G01X1755678Y-8309575D01*
G01X1745694Y-8304488D01*
G01X1734627Y-8302735D01*
G01X1621373Y-8302735D01*
G01X1610306Y-8304488D01*
G01X1600322Y-8309575D01*
G01X1592399Y-8317499D01*
G01X1587312Y-8327482D01*
G01X1585559Y-8338549D01*
G01X1585559Y-8358886D01*
G01X1274095Y-8358886D01*
G01X1190494Y-8275285D01*
G01X1190494Y-8275285D01*
G01X1193504Y-8261335D01*
G01X1194514Y-8247100D01*
G01X1194514Y-8117100D01*
G01X1192577Y-8097432D01*
G01X1186840Y-8078520D01*
G01X1177524Y-8061091D01*
G01X1164986Y-8045814D01*
G01X1149709Y-8033276D01*
G01X1132280Y-8023960D01*
G01X1113368Y-8018223D01*
G01X1093700Y-8016286D01*
G01X963700Y-8016286D01*
G01X944032Y-8018223D01*
G01X925120Y-8023960D01*
G01X907691Y-8033276D01*
G01X892414Y-8045814D01*
G01X879876Y-8061091D01*
G01X870560Y-8078520D01*
G01X864823Y-8097432D01*
G01X862886Y-8117100D01*
G01X708914Y-8117100D01*
G01X708914Y-7847828D01*
G01X838367Y-7847828D01*
G01X842195Y-7870768D01*
G01X849746Y-7892764D01*
G01X860815Y-7913218D01*
G01X875100Y-7931571D01*
G01X892210Y-7947322D01*
G01X911680Y-7960042D01*
G01X932978Y-7969384D01*
G01X955523Y-7975093D01*
G01X978700Y-7977014D01*
G01X1078700Y-7977014D01*
G01X1101877Y-7975093D01*
G01X1124422Y-7969384D01*
G01X1145720Y-7960042D01*
G01X1165190Y-7947322D01*
G01X1182300Y-7931571D01*
G01X1196585Y-7913218D01*
G01X1207654Y-7892764D01*
G01X1215205Y-7870768D01*
G01X1219033Y-7847828D01*
G01X1219033Y-7824572D01*
G01X1215205Y-7801632D01*
G01X1207654Y-7779636D01*
G01X1196585Y-7759182D01*
G01X1182300Y-7740829D01*
G01X1165190Y-7725078D01*
G01X1145720Y-7712358D01*
G01X1124422Y-7703016D01*
G01X1101877Y-7697306D01*
G01X1078700Y-7695386D01*
G01X1078700Y-7695386D01*
G01X978700Y-7695386D01*
G01X955523Y-7697306D01*
G01X932978Y-7703016D01*
G01X911680Y-7712358D01*
G01X892210Y-7725078D01*
G01X875100Y-7740829D01*
G01X860815Y-7759182D01*
G01X849746Y-7779636D01*
G01X842195Y-7801632D01*
G01X838367Y-7824572D01*
G01X838367Y-7847828D01*
G01X708914Y-7847828D01*
G01X708914Y-7474995D01*
G01X722709Y-7461200D01*
G01X862886Y-7461200D01*
G01X862886Y-7591200D01*
G01X864823Y-7610868D01*
G01X870560Y-7629780D01*
G01X879876Y-7647209D01*
G01X892414Y-7662486D01*
G01X907691Y-7675024D01*
G01X925120Y-7684340D01*
G01X944032Y-7690077D01*
G01X963700Y-7692014D01*
G01X1093700Y-7692014D01*
G01X1093700Y-7692014D01*
G01X1113368Y-7690077D01*
G01X1132280Y-7684340D01*
G01X1149709Y-7675024D01*
G01X1164986Y-7662486D01*
G01X1177524Y-7647209D01*
G01X1186840Y-7629780D01*
G01X1192577Y-7610868D01*
G01X1194514Y-7591200D01*
G01X1194514Y-7461200D01*
G01X1192577Y-7441532D01*
G01X1186840Y-7422620D01*
G01X1177524Y-7405191D01*
G01X1164986Y-7389914D01*
G01X1149709Y-7377376D01*
G01X1132280Y-7368060D01*
G01X1113368Y-7362323D01*
G01X1093700Y-7360386D01*
G01X963700Y-7360386D01*
G01X944032Y-7362323D01*
G01X925120Y-7368060D01*
G01X907691Y-7377376D01*
G01X892414Y-7389914D01*
G01X879876Y-7405191D01*
G01X870560Y-7422620D01*
G01X864823Y-7441532D01*
G01X862886Y-7461200D01*
G01X722709Y-7461200D01*
G01X1278905Y-6905005D01*
G01X1286614Y-6894957D01*
G01X1291461Y-6883256D01*
G01X1293114Y-6870700D01*
G01X1293114Y-6687595D01*
G01X4576855Y-3403854D01*
G01X4707800Y-3403854D01*
G01X4718867Y-3402101D01*
G01X4728851Y-3397014D01*
G01X4736774Y-3389091D01*
G01X4741861Y-3379107D01*
G01X4743614Y-3368040D01*
G01X4743614Y-3210560D01*
G01X4741861Y-3199493D01*
G01X4736774Y-3189509D01*
G01X4728851Y-3181586D01*
G01X4718867Y-3176499D01*
G01X4707800Y-3174746D01*
G01X4537800Y-3174746D01*
G01X4526733Y-3176499D01*
G01X4516749Y-3181586D01*
G01X4508826Y-3189509D01*
G01X4503739Y-3199493D01*
G01X4501986Y-3210560D01*
G01X4501986Y-3341505D01*
G01X2942666Y-4900825D01*
G01X2945142Y-4879545D01*
G01X2943972Y-4858154D01*
G01X2939190Y-4837271D01*
G01X2930934Y-4817502D01*
G01X2919444Y-4799420D01*
G01X2905052Y-4783551D01*
G01X2888177Y-4770352D01*
G01X2869307Y-4760209D01*
G01X2848990Y-4753413D01*
G01X2827814Y-4750164D01*
G01X2806394Y-4750554D01*
G01X2785351Y-4754573D01*
G01X2765295Y-4762103D01*
G01X2746807Y-4772927D01*
G01X2730423Y-4786731D01*
G01X2716620Y-4803115D01*
G01X2705795Y-4821603D01*
G01X2698265Y-4841659D01*
G01X2694246Y-4862702D01*
G01X2693856Y-4884122D01*
G01X2697106Y-4905298D01*
G01X2703901Y-4925615D01*
G01X2714045Y-4944485D01*
G01X2727243Y-4961360D01*
G01X2743113Y-4975752D01*
G01X2761194Y-4987242D01*
G01X2780963Y-4995498D01*
G01X2801846Y-5000280D01*
G01X2823237Y-5001450D01*
G01X2844517Y-4998974D01*
G01X2165183Y-5678308D01*
G01X2166215Y-5660694D01*
G01X2166215Y-5490694D01*
G01X2164358Y-5467101D01*
G01X2158834Y-5444090D01*
G01X2149777Y-5422226D01*
G01X2137412Y-5402048D01*
G01X2122043Y-5384052D01*
G01X2104047Y-5368683D01*
G01X2083869Y-5356318D01*
G01X2062005Y-5347261D01*
G01X2038994Y-5341737D01*
G01X2015401Y-5339880D01*
G01X1991809Y-5341737D01*
G01X1968797Y-5347261D01*
G01X1946933Y-5356318D01*
G01X1926755Y-5368683D01*
G01X1908760Y-5384052D01*
G01X1893390Y-5402048D01*
G01X1881025Y-5422226D01*
G01X1871969Y-5444090D01*
G01X1866444Y-5467101D01*
G01X1864587Y-5490694D01*
G01X1864587Y-5660694D01*
G01X1866359Y-5683744D01*
G01X1871633Y-5706253D01*
G01X1880286Y-5727691D01*
G01X1892113Y-5747555D01*
G01X1906838Y-5765378D01*
G01X1924113Y-5780741D01*
G01X1943534Y-5793283D01*
G01X1964643Y-5802709D01*
G01X1986945Y-5808798D01*
G01X2009916Y-5811408D01*
G01X2033016Y-5810475D01*
G01X1210295Y-6633195D01*
G01X1202586Y-6643243D01*
G01X1197739Y-6654944D01*
G01X1196086Y-6667500D01*
G01X1196086Y-6850605D01*
G01X1196086Y-6850605D01*
G01X626095Y-7420595D01*
G01X618386Y-7430643D01*
G01X613539Y-7442344D01*
G01X611886Y-7454900D01*
G01X175260Y-7454900D01*
G01X175260Y-7406640D01*
G01X310986Y-7406640D01*
G01X312739Y-7417707D01*
G01X317826Y-7427691D01*
G01X325749Y-7435614D01*
G01X335733Y-7440701D01*
G01X346800Y-7442454D01*
G01X516800Y-7442454D01*
G01X527867Y-7440701D01*
G01X537851Y-7435614D01*
G01X545774Y-7427691D01*
G01X550861Y-7417707D01*
G01X552614Y-7406640D01*
G01X552614Y-7249160D01*
G01X550861Y-7238093D01*
G01X545774Y-7228109D01*
G01X537851Y-7220186D01*
G01X527867Y-7215099D01*
G01X516800Y-7213346D01*
G01X346800Y-7213346D01*
G01X335733Y-7215099D01*
G01X325749Y-7220186D01*
G01X317826Y-7228109D01*
G01X312739Y-7238093D01*
G01X310986Y-7249160D01*
G01X310986Y-7406640D01*
G01X310986Y-7406640D01*
G01X175260Y-7406640D01*
G01X175260Y-6631200D01*
G01X862886Y-6631200D01*
G01X862886Y-6761200D01*
G01X864823Y-6780868D01*
G01X870560Y-6799780D01*
G01X879876Y-6817209D01*
G01X892414Y-6832486D01*
G01X907691Y-6845024D01*
G01X925120Y-6854340D01*
G01X944032Y-6860077D01*
G01X963700Y-6862014D01*
G01X1093700Y-6862014D01*
G01X1093700Y-6862014D01*
G01X1113368Y-6860077D01*
G01X1132280Y-6854340D01*
G01X1149709Y-6845024D01*
G01X1164986Y-6832486D01*
G01X1177524Y-6817209D01*
G01X1186840Y-6799780D01*
G01X1192577Y-6780868D01*
G01X1194514Y-6761200D01*
G01X1194514Y-6631200D01*
G01X1192577Y-6611532D01*
G01X1186840Y-6592620D01*
G01X1177524Y-6575191D01*
G01X1164986Y-6559914D01*
G01X1149709Y-6547376D01*
G01X1132280Y-6538060D01*
G01X1113368Y-6532323D01*
G01X1093700Y-6530386D01*
G01X963700Y-6530386D01*
G01X944032Y-6532323D01*
G01X925120Y-6538060D01*
G01X907691Y-6547376D01*
G01X892414Y-6559914D01*
G01X879876Y-6575191D01*
G01X870560Y-6592620D01*
G01X864823Y-6611532D01*
G01X862886Y-6631200D01*
G01X175260Y-6631200D01*
G01X175260Y-5558090D01*
G01X543445Y-5558090D01*
G01X543445Y-5580521D01*
G01X547137Y-5602646D01*
G01X554420Y-5623861D01*
G01X565096Y-5643589D01*
G01X578873Y-5661290D01*
G01X595376Y-5676482D01*
G01X614154Y-5688750D01*
G01X634696Y-5697761D01*
G01X656440Y-5703267D01*
G01X678795Y-5705119D01*
G01X758795Y-5705119D01*
G01X781149Y-5703267D01*
G01X802893Y-5697761D01*
G01X823435Y-5688750D01*
G01X842213Y-5676482D01*
G01X858716Y-5661290D01*
G01X872493Y-5643589D01*
G01X883169Y-5623861D01*
G01X890452Y-5602646D01*
G01X894144Y-5580521D01*
G01X894144Y-5558090D01*
G01X890452Y-5535965D01*
G01X883169Y-5514750D01*
G01X872493Y-5495022D01*
G01X858716Y-5477321D01*
G01X842213Y-5462129D01*
G01X823435Y-5449861D01*
G01X802893Y-5440851D01*
G01X781149Y-5435344D01*
G01X758795Y-5433492D01*
G01X758795Y-5433492D01*
G01X678795Y-5433492D01*
G01X656440Y-5435344D01*
G01X634696Y-5440851D01*
G01X614154Y-5449861D01*
G01X595376Y-5462129D01*
G01X578873Y-5477321D01*
G01X565096Y-5495022D01*
G01X554420Y-5514750D01*
G01X547137Y-5535965D01*
G01X543445Y-5558090D01*
G01X175260Y-5558090D01*
G01X175260Y-5295900D01*
G01X310986Y-5295900D01*
G01X312822Y-5316879D01*
G01X318272Y-5337221D01*
G01X327172Y-5356307D01*
G01X339251Y-5373558D01*
G01X354142Y-5388449D01*
G01X371393Y-5400528D01*
G01X390479Y-5409428D01*
G01X410821Y-5414878D01*
G01X431800Y-5416714D01*
G01X452779Y-5414878D01*
G01X473121Y-5409428D01*
G01X492207Y-5400528D01*
G01X509458Y-5388449D01*
G01X524349Y-5373558D01*
G01X536428Y-5356307D01*
G01X545328Y-5337221D01*
G01X550778Y-5316879D01*
G01X552614Y-5295900D01*
G01X550778Y-5274921D01*
G01X545328Y-5254579D01*
G01X536428Y-5235493D01*
G01X524349Y-5218242D01*
G01X509458Y-5203351D01*
G01X492207Y-5191272D01*
G01X473121Y-5182372D01*
G01X452779Y-5176922D01*
G01X431800Y-5175086D01*
G01X431800Y-5175086D01*
G01X410821Y-5176922D01*
G01X390479Y-5182372D01*
G01X371393Y-5191272D01*
G01X354142Y-5203351D01*
G01X339251Y-5218242D01*
G01X327172Y-5235493D01*
G01X318272Y-5254579D01*
G01X312822Y-5274921D01*
G01X310986Y-5295900D01*
G01X175260Y-5295900D01*
G01X175260Y-5041900D01*
G01X310986Y-5041900D01*
G01X312822Y-5062879D01*
G01X318272Y-5083221D01*
G01X327172Y-5102307D01*
G01X339251Y-5119558D01*
G01X354142Y-5134449D01*
G01X371393Y-5146528D01*
G01X390479Y-5155428D01*
G01X410821Y-5160878D01*
G01X431800Y-5162714D01*
G01X452779Y-5160878D01*
G01X473121Y-5155428D01*
G01X492207Y-5146528D01*
G01X509458Y-5134449D01*
G01X524349Y-5119558D01*
G01X536428Y-5102307D01*
G01X545328Y-5083221D01*
G01X550778Y-5062879D01*
G01X552614Y-5041900D01*
G01X550778Y-5020921D01*
G01X545328Y-5000579D01*
G01X536428Y-4981493D01*
G01X524349Y-4964242D01*
G01X509458Y-4949351D01*
G01X492207Y-4937272D01*
G01X473121Y-4928372D01*
G01X452779Y-4922922D01*
G01X431800Y-4921086D01*
G01X431800Y-4921086D01*
G01X410821Y-4922922D01*
G01X390479Y-4928372D01*
G01X371393Y-4937272D01*
G01X354142Y-4949351D01*
G01X339251Y-4964242D01*
G01X327172Y-4981493D01*
G01X318272Y-5000579D01*
G01X312822Y-5020921D01*
G01X310986Y-5041900D01*
G01X175260Y-5041900D01*
G01X175260Y-4787900D01*
G01X310986Y-4787900D01*
G01X312822Y-4808879D01*
G01X318272Y-4829221D01*
G01X327172Y-4848307D01*
G01X339251Y-4865558D01*
G01X354142Y-4880449D01*
G01X371393Y-4892528D01*
G01X390479Y-4901428D01*
G01X410821Y-4906878D01*
G01X431800Y-4908714D01*
G01X452779Y-4906878D01*
G01X473121Y-4901428D01*
G01X492207Y-4892528D01*
G01X509458Y-4880449D01*
G01X524349Y-4865558D01*
G01X536428Y-4848307D01*
G01X545328Y-4829221D01*
G01X547988Y-4819294D01*
G01X822974Y-4819294D01*
G01X824809Y-4840274D01*
G01X830260Y-4860615D01*
G01X839160Y-4879701D01*
G01X851239Y-4896952D01*
G01X866130Y-4911843D01*
G01X883381Y-4923922D01*
G01X902467Y-4932822D01*
G01X922809Y-4938273D01*
G01X943788Y-4940108D01*
G01X964767Y-4938273D01*
G01X985109Y-4932822D01*
G01X1004195Y-4923922D01*
G01X1021445Y-4911843D01*
G01X1036337Y-4896952D01*
G01X1048416Y-4879701D01*
G01X1057316Y-4860615D01*
G01X1062766Y-4840274D01*
G01X1064602Y-4819294D01*
G01X1062766Y-4798315D01*
G01X1057316Y-4777974D01*
G01X1048416Y-4758887D01*
G01X1036337Y-4741637D01*
G01X1021445Y-4726746D01*
G01X1004195Y-4714667D01*
G01X985109Y-4705767D01*
G01X964767Y-4700316D01*
G01X943788Y-4698481D01*
G01X922809Y-4700316D01*
G01X902467Y-4705767D01*
G01X883381Y-4714667D01*
G01X866130Y-4726746D01*
G01X851239Y-4741637D01*
G01X839160Y-4758887D01*
G01X830260Y-4777974D01*
G01X824809Y-4798315D01*
G01X822974Y-4819294D01*
G01X822974Y-4819294D01*
G01X547988Y-4819294D01*
G01X550778Y-4808879D01*
G01X552614Y-4787900D01*
G01X550778Y-4766921D01*
G01X545328Y-4746579D01*
G01X536428Y-4727493D01*
G01X524349Y-4710242D01*
G01X509458Y-4695351D01*
G01X492207Y-4683272D01*
G01X473121Y-4674372D01*
G01X452779Y-4668922D01*
G01X431800Y-4667086D01*
G01X431800Y-4667086D01*
G01X410821Y-4668922D01*
G01X390479Y-4674372D01*
G01X371393Y-4683272D01*
G01X354142Y-4695351D01*
G01X339251Y-4710242D01*
G01X327172Y-4727493D01*
G01X318272Y-4746579D01*
G01X312822Y-4766921D01*
G01X310986Y-4787900D01*
G01X175260Y-4787900D01*
G01X175260Y-4618900D01*
G01X310986Y-4618900D01*
G01X312739Y-4629967D01*
G01X317826Y-4639951D01*
G01X325749Y-4647874D01*
G01X335733Y-4652961D01*
G01X346800Y-4654714D01*
G01X516800Y-4654714D01*
G01X527867Y-4652961D01*
G01X537851Y-4647874D01*
G01X545774Y-4639951D01*
G01X550861Y-4629967D01*
G01X552614Y-4618900D01*
G01X552614Y-4504499D01*
G01X860486Y-4504499D01*
G01X860486Y-4639500D01*
G01X862239Y-4650568D01*
G01X867326Y-4660551D01*
G01X875249Y-4668475D01*
G01X885233Y-4673562D01*
G01X896300Y-4675314D01*
G01X1037300Y-4675314D01*
G01X1048656Y-4673467D01*
G01X1058839Y-4668114D01*
G01X1066800Y-4659809D01*
G01X1074761Y-4668114D01*
G01X1084944Y-4673467D01*
G01X1096300Y-4675314D01*
G01X1118286Y-4675314D01*
G01X1118286Y-4724989D01*
G01X1103331Y-4739223D01*
G01X1091019Y-4755796D01*
G01X1081708Y-4774223D01*
G01X1075671Y-4793966D01*
G01X1073083Y-4814449D01*
G01X1074021Y-4835074D01*
G01X1078457Y-4855238D01*
G01X1086261Y-4874352D01*
G01X1097206Y-4891858D01*
G01X1110971Y-4907245D01*
G01X1127155Y-4920064D01*
G01X1145286Y-4929940D01*
G01X1145286Y-5384800D01*
G01X1146939Y-5397356D01*
G01X1151786Y-5409057D01*
G01X1159495Y-5419105D01*
G01X1642095Y-5901705D01*
G01X1652143Y-5909414D01*
G01X1663844Y-5914261D01*
G01X1676400Y-5915914D01*
G01X1783590Y-5915914D01*
G01X1795961Y-5925012D01*
G01X1810094Y-5931021D01*
G01X1825229Y-5933618D01*
G01X1840556Y-5932664D01*
G01X1855253Y-5928210D01*
G01X1868531Y-5920494D01*
G01X1879678Y-5909932D01*
G01X1888097Y-5897089D01*
G01X1893336Y-5882653D01*
G01X1895114Y-5867400D01*
G01X1893336Y-5852147D01*
G01X1888097Y-5837711D01*
G01X1879678Y-5824868D01*
G01X1868531Y-5814306D01*
G01X1855253Y-5806590D01*
G01X1840556Y-5802136D01*
G01X1825229Y-5801182D01*
G01X1810094Y-5803779D01*
G01X1795961Y-5809788D01*
G01X1783590Y-5818886D01*
G01X1696495Y-5818886D01*
G01X1568709Y-5691100D01*
G01X1568709Y-5691100D01*
G01X1587946Y-5698827D01*
G01X1608135Y-5703537D01*
G01X1628805Y-5705119D01*
G01X1708805Y-5705119D01*
G01X1731160Y-5703267D01*
G01X1752904Y-5697761D01*
G01X1773446Y-5688750D01*
G01X1792224Y-5676482D01*
G01X1808727Y-5661290D01*
G01X1822504Y-5643589D01*
G01X1833180Y-5623861D01*
G01X1840463Y-5602646D01*
G01X1844155Y-5580521D01*
G01X1844155Y-5558090D01*
G01X1840463Y-5535965D01*
G01X1833180Y-5514750D01*
G01X1822504Y-5495022D01*
G01X1808727Y-5477321D01*
G01X1792224Y-5462129D01*
G01X1773446Y-5449861D01*
G01X1752904Y-5440851D01*
G01X1731160Y-5435344D01*
G01X1708805Y-5433492D01*
G01X1628805Y-5433492D01*
G01X1605949Y-5435429D01*
G01X1583744Y-5441185D01*
G01X1562825Y-5450596D01*
G01X1543788Y-5463393D01*
G01X1527177Y-5479211D01*
G01X1513464Y-5497600D01*
G01X1503041Y-5518034D01*
G01X1496207Y-5539930D01*
G01X1493154Y-5562665D01*
G01X1493971Y-5585589D01*
G01X1498635Y-5608048D01*
G01X1507012Y-5629402D01*
G01X1242314Y-5364705D01*
G01X1242314Y-4929940D01*
G01X1261549Y-4919325D01*
G01X1278543Y-4905402D01*
G01X1292736Y-4888632D01*
G01X1303656Y-4869569D01*
G01X1310944Y-4848844D01*
G01X1314359Y-4827142D01*
G01X1314154Y-4819294D01*
G01X1322973Y-4819294D01*
G01X1324808Y-4840274D01*
G01X1330259Y-4860615D01*
G01X1339159Y-4879701D01*
G01X1351238Y-4896952D01*
G01X1366129Y-4911843D01*
G01X1383380Y-4923922D01*
G01X1402466Y-4932822D01*
G01X1422808Y-4938273D01*
G01X1443787Y-4940108D01*
G01X1464766Y-4938273D01*
G01X1485108Y-4932822D01*
G01X1504194Y-4923922D01*
G01X1521444Y-4911843D01*
G01X1536336Y-4896952D01*
G01X1548415Y-4879701D01*
G01X1550283Y-4875695D01*
G01X2185573Y-4875695D01*
G01X2187485Y-4897542D01*
G01X2193161Y-4918726D01*
G01X2202429Y-4938602D01*
G01X2215008Y-4956567D01*
G01X2230516Y-4972074D01*
G01X2248480Y-4984653D01*
G01X2268356Y-4993921D01*
G01X2289540Y-4999598D01*
G01X2311387Y-5001509D01*
G01X2333235Y-4999598D01*
G01X2354418Y-4993921D01*
G01X2374294Y-4984653D01*
G01X2392259Y-4972074D01*
G01X2407766Y-4956567D01*
G01X2420345Y-4938602D01*
G01X2429614Y-4918726D01*
G01X2435290Y-4897542D01*
G01X2437201Y-4875695D01*
G01X2435290Y-4853848D01*
G01X2429614Y-4832664D01*
G01X2420345Y-4812788D01*
G01X2407766Y-4794824D01*
G01X2392259Y-4779316D01*
G01X2374294Y-4766737D01*
G01X2354418Y-4757469D01*
G01X2333235Y-4751793D01*
G01X2311387Y-4749881D01*
G01X2289540Y-4751793D01*
G01X2268356Y-4757469D01*
G01X2248480Y-4766737D01*
G01X2230516Y-4779316D01*
G01X2215008Y-4794824D01*
G01X2202429Y-4812788D01*
G01X2193161Y-4832664D01*
G01X2187485Y-4853848D01*
G01X2185573Y-4875695D01*
G01X2185573Y-4875695D01*
G01X1550283Y-4875695D01*
G01X1557315Y-4860615D01*
G01X1562765Y-4840274D01*
G01X1564601Y-4819294D01*
G01X1562765Y-4798315D01*
G01X1557315Y-4777974D01*
G01X1548415Y-4758887D01*
G01X1536336Y-4741637D01*
G01X1521444Y-4726746D01*
G01X1504194Y-4714667D01*
G01X1485108Y-4705767D01*
G01X1464766Y-4700316D01*
G01X1443787Y-4698481D01*
G01X1422808Y-4700316D01*
G01X1402466Y-4705767D01*
G01X1383380Y-4714667D01*
G01X1366129Y-4726746D01*
G01X1351238Y-4741637D01*
G01X1339159Y-4758887D01*
G01X1330259Y-4777974D01*
G01X1324808Y-4798315D01*
G01X1322973Y-4819294D01*
G01X1322973Y-4819294D01*
G01X1314154Y-4819294D01*
G01X1313787Y-4805180D01*
G01X1309247Y-4783685D01*
G01X1300889Y-4763367D01*
G01X1288991Y-4744899D01*
G01X1273945Y-4728891D01*
G01X1256248Y-4715872D01*
G01X1236487Y-4706273D01*
G01X1215314Y-4700412D01*
G01X1215314Y-4675314D01*
G01X1237300Y-4675314D01*
G01X1248367Y-4673562D01*
G01X1258351Y-4668475D01*
G01X1266274Y-4660551D01*
G01X1271361Y-4650568D01*
G01X1271481Y-4649813D01*
G01X2245073Y-4649813D01*
G01X2247000Y-4665683D01*
G01X2252669Y-4680631D01*
G01X2261751Y-4693787D01*
G01X2273717Y-4704388D01*
G01X2287872Y-4711818D01*
G01X2303394Y-4715643D01*
G01X2319381Y-4715643D01*
G01X2334903Y-4711818D01*
G01X2349058Y-4704388D01*
G01X2361024Y-4693787D01*
G01X2370105Y-4680631D01*
G01X2375774Y-4665683D01*
G01X2377701Y-4649813D01*
G01X2375774Y-4633943D01*
G01X2370105Y-4618995D01*
G01X2361024Y-4605839D01*
G01X2349058Y-4595237D01*
G01X2334903Y-4587808D01*
G01X2319381Y-4583982D01*
G01X2303394Y-4583982D01*
G01X2287872Y-4587808D01*
G01X2273717Y-4595237D01*
G01X2261751Y-4605839D01*
G01X2252669Y-4618995D01*
G01X2247000Y-4633943D01*
G01X2245073Y-4649813D01*
G01X2245073Y-4649813D01*
G01X1271481Y-4649813D01*
G01X1273114Y-4639500D01*
G01X1273114Y-4504499D01*
G01X1271361Y-4493432D01*
G01X1266274Y-4483449D01*
G01X1258351Y-4475525D01*
G01X1248367Y-4470438D01*
G01X1237300Y-4468685D01*
G01X1096300Y-4468685D01*
G01X1084944Y-4470533D01*
G01X1074761Y-4475886D01*
G01X1066800Y-4484191D01*
G01X1058839Y-4475886D01*
G01X1048656Y-4470533D01*
G01X1037300Y-4468685D01*
G01X896300Y-4468685D01*
G01X885233Y-4470438D01*
G01X875249Y-4475525D01*
G01X867326Y-4483449D01*
G01X862239Y-4493432D01*
G01X860486Y-4504499D01*
G01X552614Y-4504499D01*
G01X552614Y-4448900D01*
G01X550861Y-4437833D01*
G01X545774Y-4427849D01*
G01X537851Y-4419926D01*
G01X527867Y-4414839D01*
G01X516800Y-4413086D01*
G01X346800Y-4413086D01*
G01X335733Y-4414839D01*
G01X325749Y-4419926D01*
G01X317826Y-4427849D01*
G01X312739Y-4437833D01*
G01X310986Y-4448900D01*
G01X310986Y-4618900D01*
G01X310986Y-4618900D01*
G01X175260Y-4618900D01*
G01X175260Y-1231900D01*
G01X2097786Y-1231900D01*
G01X2097786Y-2984500D01*
G01X2099539Y-2995567D01*
G01X2104626Y-3005551D01*
G01X2112549Y-3013474D01*
G01X2122533Y-3018561D01*
G01X2133600Y-3020314D01*
G01X3098800Y-3020314D01*
G01X3109867Y-3018561D01*
G01X3119851Y-3013474D01*
G01X3127774Y-3005551D01*
G01X3132861Y-2995567D01*
G01X3134614Y-2984500D01*
G01X3134614Y-1231900D01*
G01X3132861Y-1220833D01*
G01X3127774Y-1210849D01*
G01X3119851Y-1202926D01*
G01X3109867Y-1197839D01*
G01X3098800Y-1196086D01*
G01X2133600Y-1196086D01*
G01X2133600Y-1196086D01*
G01X2122533Y-1197839D01*
G01X2112549Y-1202926D01*
G01X2104626Y-1210849D01*
G01X2099539Y-1220833D01*
G01X2097786Y-1231900D01*
G01X175260Y-1231900D01*
G01X175260Y-988314D01*
G01X4891186Y-988314D01*
G01X4891186Y-11915140D01*
G01X175260Y-11915140D01*
G37*
G54D10*
G01X175260Y-11915140D02*
G01X175260Y-988314D01*
G01X4891186Y-988314D01*
G01X4891186Y-11915140D01*
G01X175260Y-11915140D01*
G01X310986Y-7406640D02*
G03X346800Y-7442454I35814J0D01*
G01X516800Y-7442454D01*
G03X552614Y-7406640I0J35814D01*
G01X552614Y-7249160D01*
G03X516800Y-7213346I-35814J0D01*
G01X346800Y-7213346D01*
G03X310986Y-7249160I0J-35814D01*
G01X310986Y-7406640D01*
G01X431800Y-7715086D02*
G03X431800Y-7956714I0J-120814D01*
G03X431800Y-7715086I0J120814D01*
G01X431800Y-7461086D02*
G03X431800Y-7702714I0J-120814D01*
G03X431800Y-7461086I0J120814D01*
G01X310986Y-4618900D02*
G03X346800Y-4654714I35814J0D01*
G01X516800Y-4654714D01*
G03X552614Y-4618900I0J35814D01*
G01X552614Y-4448900D01*
G03X516800Y-4413086I-35814J0D01*
G01X346800Y-4413086D01*
G03X310986Y-4448900I0J-35814D01*
G01X310986Y-4618900D01*
G01X431800Y-4667086D02*
G03X431800Y-4908714I0J-120814D01*
G03X431800Y-4667086I0J120814D01*
G01X431800Y-4921086D02*
G03X431800Y-5162714I0J-120814D01*
G03X431800Y-4921086I0J120814D01*
G01X431800Y-8223086D02*
G03X431800Y-8464714I0J-120814D01*
G03X431800Y-8223086I0J120814D01*
G01X431800Y-7969086D02*
G03X431800Y-8210714I0J-120814D01*
G03X431800Y-7969086I0J120814D01*
G01X431800Y-5175086D02*
G03X431800Y-5416714I0J-120814D01*
G03X431800Y-5175086I0J120814D01*
G01X431800Y-8477086D02*
G03X431800Y-8718714I0J-120814D01*
G03X431800Y-8477086I0J120814D01*
G01X431800Y-8731086D02*
G03X431800Y-8972714I0J-120814D01*
G03X431800Y-8731086I0J120814D01*
G01X431800Y-8985086D02*
G03X431800Y-9226714I0J-120814D01*
G03X431800Y-8985086I0J120814D01*
G01X758795Y-5433492D02*
G01X678795Y-5433492D01*
G03X678795Y-5705119I0J-135814D01*
G01X758795Y-5705119D01*
G03X758795Y-5433492I0J135814D01*
G01X1196086Y-6850605D02*
G01X626095Y-7420595D01*
G03X611886Y-7454900I34305J-34305D01*
G01X611886Y-9753600D01*
G03X626095Y-9787905I48514J0D01*
G01X1311895Y-10473705D01*
G03X1346200Y-10487914I34305J34305D01*
G01X2609090Y-10487914D01*
G03X2720614Y-10439400I45210J48514D01*
G03X2609090Y-10390886I-66314J0D01*
G01X2426799Y-10390886D01*
G03X2410714Y-10330690I-64599J14986D01*
G01X2410714Y-10230895D01*
G01X2758236Y-9883373D01*
G03X2795642Y-9764014I-2336J66273D01*
G01X3439350Y-9764014D01*
G03X3377486Y-9857000I38950J-92986D01*
G01X3377486Y-9987000D01*
G03X3478300Y-10087814I100814J0D01*
G01X3608300Y-10087814D01*
G03X3709114Y-9987000I0J100814D01*
G01X3709114Y-9857000D01*
G03X3647250Y-9764014I-100814J0D01*
G01X4043905Y-9764014D01*
G01X4142486Y-9862595D01*
G01X4142486Y-10221900D01*
G03X4156695Y-10256204I48514J0D01*
G01X4492735Y-10592244D01*
G01X4492735Y-10684927D01*
G03X4528549Y-10720741I35814J0D01*
G01X4561586Y-10720741D01*
G01X4561586Y-10742259D01*
G01X4528549Y-10742259D01*
G03X4492735Y-10778073I0J-35814D01*
G01X4492735Y-10891327D01*
G03X4528549Y-10927141I35814J0D01*
G01X4666251Y-10927141D01*
G03X4702065Y-10891327I0J35814D01*
G01X4702065Y-10778073D01*
G03X4666251Y-10742259I-35814J0D01*
G01X4658614Y-10742259D01*
G01X4658614Y-10720741D01*
G01X4666251Y-10720741D01*
G03X4702065Y-10684927I0J35814D01*
G01X4702065Y-10571673D01*
G03X4666251Y-10535859I-35814J0D01*
G01X4573568Y-10535859D01*
G01X4558450Y-10520741D01*
G01X4666251Y-10520741D01*
G03X4702065Y-10484927I0J35814D01*
G01X4702065Y-10404945D01*
G01X4847605Y-10259405D01*
G03X4861814Y-10225100I-34305J34305D01*
G01X4861814Y-7708900D01*
G03X4847605Y-7674595I-48514J0D01*
G01X4748445Y-7575436D01*
G03X4506022Y-7535075I-125648J-6464D01*
G03X4709171Y-7673380I116776J-46825D01*
G01X4764786Y-7728995D01*
G01X4764786Y-10205005D01*
G01X4633932Y-10335859D01*
G01X4528549Y-10335859D01*
G03X4492735Y-10371673I0J-35814D01*
G01X4492735Y-10455026D01*
G01X4239514Y-10201805D01*
G01X4239514Y-9842500D01*
G03X4225305Y-9808195I-48514J0D01*
G01X4098305Y-9681195D01*
G03X4064000Y-9666986I-34305J-34305D01*
G01X2686810Y-9666986D01*
G03X2575286Y-9715500I-45210J-48514D01*
G03X2686810Y-9764014I66314J0D01*
G01X2716158Y-9764014D01*
G03X2689627Y-9814764I39742J-53086D01*
G01X2327895Y-10176495D01*
G03X2313686Y-10210800I34305J-34305D01*
G01X2313686Y-10330690D01*
G03X2297601Y-10390886I48514J-45210D01*
G01X1366295Y-10390886D01*
G01X708914Y-9733505D01*
G01X708914Y-7474995D01*
G01X1278905Y-6905005D01*
G03X1293114Y-6870700I-34305J34305D01*
G01X1293114Y-6687595D01*
G01X4576855Y-3403854D01*
G01X4707800Y-3403854D01*
G03X4743614Y-3368040I0J35814D01*
G01X4743614Y-3210560D01*
G03X4707800Y-3174746I-35814J0D01*
G01X4537800Y-3174746D01*
G03X4501986Y-3210560I0J-35814D01*
G01X4501986Y-3341505D01*
G01X2942666Y-4900825D01*
G03X2730423Y-4786731I-123279J25130D01*
G03X2844517Y-4998974I88964J-88964D01*
G01X2165183Y-5678308D01*
G03X2166215Y-5660694I-149782J17615D01*
G01X2166215Y-5490694D01*
G03X1864587Y-5490694I-150814J0D01*
G01X1864587Y-5660694D01*
G03X2033016Y-5810475I150814J0D01*
G01X1210295Y-6633195D01*
G03X1196086Y-6667500I34305J-34305D01*
G01X1196086Y-6850605D01*
G01X822974Y-4819294D02*
G03X1064602Y-4819294I120814J0D01*
G03X822974Y-4819294I-120814J0D01*
G01X1078700Y-7695386D02*
G01X978700Y-7695386D01*
G03X978700Y-7977014I0J-140814D01*
G01X1078700Y-7977014D01*
G03X1078700Y-7695386I0J140814D01*
G01X1078700Y-9181286D02*
G01X978700Y-9181286D01*
G03X978700Y-9462914I0J-140814D01*
G01X1078700Y-9462914D01*
G03X1078700Y-9181286I0J140814D01*
G01X1568709Y-5691100D02*
G03X1628805Y-5705119I60097J121794D01*
G01X1708805Y-5705119D01*
G03X1708805Y-5433492I0J135814D01*
G01X1628805Y-5433492D01*
G03X1507012Y-5629402I0J-135814D01*
G01X1242314Y-5364705D01*
G01X1242314Y-4929940D01*
G03X1215314Y-4700412I-48514J110645D01*
G01X1215314Y-4675314D01*
G01X1237300Y-4675314D01*
G03X1273114Y-4639500I0J35814D01*
G01X1273114Y-4504499D01*
G03X1237300Y-4468685I-35814J0D01*
G01X1096300Y-4468685D01*
G03X1066800Y-4484191I0J-35814D01*
G03X1037300Y-4468685I-29500J-20308D01*
G01X896300Y-4468685D01*
G03X860486Y-4504499I0J-35814D01*
G01X860486Y-4639500D01*
G03X896300Y-4675314I35814J0D01*
G01X1037300Y-4675314D01*
G03X1066800Y-4659809I0J35814D01*
G03X1096300Y-4675314I29500J20308D01*
G01X1118286Y-4675314D01*
G01X1118286Y-4724989D01*
G03X1145286Y-4929940I75514J-94306D01*
G01X1145286Y-5384800D01*
G03X1159495Y-5419105I48514J0D01*
G01X1642095Y-5901705D01*
G03X1676400Y-5915914I34305J34305D01*
G01X1783590Y-5915914D01*
G03X1895114Y-5867400I45210J48514D01*
G03X1783590Y-5818886I-66314J0D01*
G01X1696495Y-5818886D01*
G01X1568709Y-5691100D01*
G01X1093700Y-7692014D02*
G03X1194514Y-7591200I0J100814D01*
G01X1194514Y-7461200D01*
G03X1093700Y-7360386I-100814J0D01*
G01X963700Y-7360386D01*
G03X862886Y-7461200I0J-100814D01*
G01X862886Y-7591200D01*
G03X963700Y-7692014I100814J0D01*
G01X1093700Y-7692014D01*
G01X1190494Y-8275285D02*
G03X1194514Y-8247100I-96794J28185D01*
G01X1194514Y-8117100D01*
G03X1093700Y-8016286I-100814J0D01*
G01X963700Y-8016286D01*
G03X862886Y-8117100I0J-100814D01*
G01X862886Y-8247100D01*
G03X963700Y-8347914I100814J0D01*
G01X1093700Y-8347914D01*
G03X1121885Y-8343894I0J100814D01*
G01X1219695Y-8441705D01*
G03X1254000Y-8455914I34305J34305D01*
G01X1585559Y-8455914D01*
G01X1585559Y-8476251D01*
G03X1621373Y-8512065I35814J0D01*
G01X1734627Y-8512065D01*
G03X1770441Y-8476251I0J35814D01*
G01X1770441Y-8338549D01*
G03X1734627Y-8302735I-35814J0D01*
G01X1621373Y-8302735D01*
G03X1585559Y-8338549I0J-35814D01*
G01X1585559Y-8358886D01*
G01X1274095Y-8358886D01*
G01X1190494Y-8275285D01*
G01X1093700Y-9177914D02*
G03X1194514Y-9077100I0J100814D01*
G01X1194514Y-8947100D01*
G03X1093700Y-8846286I-100814J0D01*
G01X963700Y-8846286D01*
G03X862886Y-8947100I0J-100814D01*
G01X862886Y-9077100D01*
G03X963700Y-9177914I100814J0D01*
G01X1093700Y-9177914D01*
G01X1093700Y-6862014D02*
G03X1194514Y-6761200I0J100814D01*
G01X1194514Y-6631200D01*
G03X1093700Y-6530386I-100814J0D01*
G01X963700Y-6530386D01*
G03X862886Y-6631200I0J-100814D01*
G01X862886Y-6761200D01*
G03X963700Y-6862014I100814J0D01*
G01X1093700Y-6862014D01*
G01X1322973Y-4819294D02*
G03X1564601Y-4819294I120814J0D01*
G03X1322973Y-4819294I-120814J0D01*
G01X1586700Y-10921186D02*
G01X1486700Y-10921186D01*
G03X1486700Y-11202814I0J-140814D01*
G01X1586700Y-11202814D01*
G03X1586700Y-10921186I0J140814D01*
G01X1601700Y-10917814D02*
G03X1702514Y-10817000I0J100814D01*
G01X1702514Y-10687000D01*
G03X1601700Y-10586186I-100814J0D01*
G01X1471700Y-10586186D01*
G03X1370886Y-10687000I0J-100814D01*
G01X1370886Y-10817000D01*
G03X1471700Y-10917814I100814J0D01*
G01X1601700Y-10917814D01*
G01X1601700Y-10087814D02*
G03X1702514Y-9987000I0J100814D01*
G01X1702514Y-9857000D01*
G03X1601700Y-9756186I-100814J0D01*
G01X1471700Y-9756186D01*
G03X1370886Y-9857000I0J-100814D01*
G01X1370886Y-9987000D01*
G03X1471700Y-10087814I100814J0D01*
G01X1601700Y-10087814D01*
G01X1640586Y-7926400D02*
G03X1654795Y-7960705I48514J0D01*
G01X1692026Y-7997935D01*
G01X1608673Y-7997935D01*
G03X1572859Y-8033749I0J-35814D01*
G01X1572859Y-8171451D01*
G03X1608673Y-8207265I35814J0D01*
G01X1714056Y-8207265D01*
G01X1811047Y-8304256D01*
G03X1785559Y-8338549I10326J-34293D01*
G01X1785559Y-8476251D01*
G03X1786862Y-8485822I35814J0D01*
G01X1638997Y-8633686D01*
G01X1600992Y-8633686D01*
G03X1565178Y-8669500I0J-35814D01*
G01X1565178Y-8729500D01*
G03X1600992Y-8765314I35814J0D01*
G01X1707993Y-8765314D01*
G03X1743807Y-8729500I0J35814D01*
G01X1743807Y-8669500D01*
G03X1743658Y-8666244I-35814J0D01*
G01X1812193Y-8597708D01*
G01X1812193Y-8634504D01*
G03X1848007Y-8670318I35814J0D01*
G01X1955008Y-8670318D01*
G03X1990822Y-8634504I0J35814D01*
G01X1990822Y-8574504D01*
G03X1955008Y-8538690I-35814J0D01*
G01X1871212Y-8538690D01*
G01X1897837Y-8512065D01*
G01X1934627Y-8512065D01*
G03X1970441Y-8476251I0J35814D01*
G01X1970441Y-8338549D01*
G03X1934627Y-8302735I-35814J0D01*
G01X1926514Y-8302600D01*
G03X1912304Y-8268295I-48514J0D01*
G01X1851274Y-8207265D01*
G01X1921927Y-8207265D01*
G03X1957741Y-8171451I0J35814D01*
G01X1957741Y-8033749D01*
G03X1921927Y-7997935I-35814J0D01*
G01X1829244Y-7997935D01*
G01X1737614Y-7906305D01*
G01X1737614Y-6446295D01*
G01X4084095Y-4099814D01*
G01X4505677Y-4099814D01*
G01X3306211Y-5299280D01*
G01X3056208Y-5299280D01*
G03X3021903Y-5313489I0J-48514D01*
G01X1794495Y-6540897D01*
G03X1780286Y-6575202I34305J-34305D01*
G01X1780286Y-6908800D01*
G03X1794495Y-6943105I48514J0D01*
G01X2111995Y-7260605D01*
G03X2146300Y-7274814I34305J34305D01*
G01X3256505Y-7274814D01*
G01X3570986Y-7589295D01*
G01X3570986Y-8146005D01*
G01X3426955Y-8290035D01*
G01X3362574Y-8290035D01*
G01X3421533Y-8231076D01*
G03X3437814Y-8194819I-32234J36258D01*
G01X3437814Y-8194565D01*
G01X3445927Y-8194565D01*
G03X3481741Y-8158751I0J35814D01*
G01X3481741Y-8021049D01*
G03X3445927Y-7985235I-35814J0D01*
G01X3332673Y-7985235D01*
G03X3296859Y-8021049I0J-35814D01*
G01X3296859Y-8158751D01*
G03X3322347Y-8193044I35814J0D01*
G01X3225356Y-8290035D01*
G01X3132673Y-8290035D01*
G03X3096859Y-8325849I0J-35814D01*
G01X3096859Y-8463551D01*
G03X3103870Y-8484835I35814J0D01*
G01X3103870Y-8624112D01*
G01X3098884Y-8624112D01*
G03X3063070Y-8659926I0J-35814D01*
G01X3063070Y-8719926D01*
G03X3098884Y-8755740I35814J0D01*
G01X3205884Y-8755740D01*
G03X3241698Y-8719926I0J35814D01*
G01X3241698Y-8659926D01*
G03X3205884Y-8624112I-35814J0D01*
G01X3200898Y-8624112D01*
G01X3200898Y-8499365D01*
G01X3245927Y-8499365D01*
G03X3281741Y-8463551I0J35814D01*
G01X3281741Y-8370868D01*
G01X3296859Y-8355750D01*
G01X3296859Y-8463551D01*
G03X3332673Y-8499365I35814J0D01*
G01X3445927Y-8499365D01*
G03X3481741Y-8463551I0J35814D01*
G01X3481741Y-8372469D01*
G01X3653805Y-8200405D01*
G03X3668014Y-8166100I-34305J34305D01*
G01X3668014Y-7569200D01*
G03X3653805Y-7534895I-48514J0D01*
G01X3310905Y-7191995D01*
G03X3276600Y-7177786I-34305J-34305D01*
G01X2166395Y-7177786D01*
G01X1877314Y-6888705D01*
G01X1877314Y-6807242D01*
G03X1967000Y-6862014I89686J46042D01*
G01X2097000Y-6862014D01*
G03X2197814Y-6761200I0J100814D01*
G01X2197814Y-6744714D01*
G01X2739900Y-6744714D01*
G03X2774205Y-6730505I0J48514D01*
G01X2869486Y-6635223D01*
G01X2869486Y-6761200D01*
G03X2970300Y-6862014I100814J0D01*
G01X3100300Y-6862014D01*
G03X3201114Y-6761200I0J100814D01*
G01X3201114Y-6744714D01*
G01X3362200Y-6744714D01*
G03X3396505Y-6730505I0J48514D01*
G01X3566505Y-6560504D01*
G03X3580714Y-6526200I-34305J34305D01*
G01X3580714Y-6467365D01*
G01X3588827Y-6467365D01*
G03X3624641Y-6431551I0J35814D01*
G01X3624641Y-6293849D01*
G03X3588827Y-6258035I-35814J0D01*
G01X3475573Y-6258035D01*
G03X3439759Y-6293849I0J-35814D01*
G01X3439759Y-6431551D01*
G03X3475573Y-6467365I35814J0D01*
G01X3483686Y-6467365D01*
G01X3483686Y-6506105D01*
G01X3342105Y-6647686D01*
G01X3201114Y-6647686D01*
G01X3201114Y-6631200D01*
G03X3100300Y-6530386I-100814J0D01*
G01X2974323Y-6530386D01*
G01X3052569Y-6452140D01*
G03X3081873Y-6467365I29304J20589D01*
G01X3195127Y-6467365D01*
G03X3230941Y-6431551I0J35814D01*
G01X3230941Y-6293849D01*
G03X3195127Y-6258035I-35814J0D01*
G01X3081873Y-6258035D01*
G03X3046059Y-6293849I0J-35814D01*
G01X3046059Y-6339625D01*
G03X3013695Y-6353795I1941J-48475D01*
G01X2719805Y-6647686D01*
G01X2197814Y-6647686D01*
G01X2197814Y-6631200D01*
G03X2097000Y-6530386I-100814J0D01*
G01X1967000Y-6530386D01*
G03X1937948Y-6534663I0J-100814D01*
G01X2195220Y-6277391D01*
G03X2400351Y-6414669I116168J-48314D01*
G03X2263074Y-6209537I-88964J88964D01*
G01X2964585Y-5508026D01*
G01X2964585Y-5660694D01*
G03X3266213Y-5660694I150814J0D01*
G01X3266213Y-5490694D01*
G03X3233026Y-5396308I-150814J0D01*
G01X3326306Y-5396308D01*
G03X3360611Y-5382099I0J48514D01*
G01X4461386Y-4281323D01*
G01X4461386Y-4352065D01*
G03X4475595Y-4386369I48514J0D01*
G01X4541731Y-4452505D01*
G03X4552835Y-4460807I34305J34305D01*
G03X4512155Y-4510786I69965J-98493D01*
G01X4394200Y-4510786D01*
G03X4359895Y-4524995I0J-48514D01*
G01X3304195Y-5580696D01*
G03X3289986Y-5615000I34305J-34305D01*
G01X3289986Y-6258035D01*
G01X3281873Y-6258035D01*
G03X3246059Y-6293849I0J-35814D01*
G01X3246059Y-6431551D01*
G03X3281873Y-6467365I35814J0D01*
G01X3395127Y-6467365D01*
G03X3430941Y-6431551I0J35814D01*
G01X3430941Y-6293849D01*
G03X3395127Y-6258035I-35814J0D01*
G01X3387014Y-6258035D01*
G01X3387014Y-5635095D01*
G01X4414295Y-4607814D01*
G01X4512155Y-4607814D01*
G03X4587356Y-4674798I110645J48514D01*
G03X4687186Y-4661527I35444J115498D01*
G01X4687186Y-4711073D01*
G03X4587356Y-4697802I-64386J-102227D01*
G03X4512155Y-4764786I35444J-115498D01*
G01X4457700Y-4764786D01*
G03X4423395Y-4778995I0J-48514D01*
G01X4232895Y-4969495D01*
G03X4218686Y-5003800I34305J-34305D01*
G01X4218686Y-5807605D01*
G01X3768255Y-6258035D01*
G01X3675573Y-6258035D01*
G03X3639759Y-6293849I0J-35814D01*
G01X3639759Y-6431551D01*
G03X3675573Y-6467365I35814J0D01*
G01X3788827Y-6467365D01*
G03X3824641Y-6431551I0J35814D01*
G01X3824641Y-6338868D01*
G01X4301505Y-5862004D01*
G03X4315714Y-5827700I-34305J34305D01*
G01X4315714Y-5023895D01*
G01X4477795Y-4861814D01*
G01X4512155Y-4861814D01*
G03X4552835Y-4911793I110645J48514D01*
G03X4541731Y-4920095I23200J-42607D01*
G01X4475595Y-4986231D01*
G03X4461386Y-5020535I34305J-34305D01*
G01X4461386Y-5114065D01*
G03X4475595Y-5148369I48514J0D01*
G01X4574286Y-5247060D01*
G01X4574286Y-6914105D01*
G01X4258295Y-7230095D01*
G03X4244086Y-7264400I34305J-34305D01*
G01X4244086Y-7930390D01*
G03X4292600Y-8041914I48514J-45210D01*
G03X4341114Y-7930390I0J66314D01*
G01X4341114Y-7284495D01*
G01X4657105Y-6968505D01*
G03X4671314Y-6934200I-34305J34305D01*
G01X4671314Y-5226965D01*
G03X4657105Y-5192660I-48514J0D01*
G01X4649558Y-5185113D01*
G03X4692765Y-4968807I-26758J117813D01*
G03X4703869Y-4960505I-23200J42607D01*
G01X4770005Y-4894369D01*
G03X4784214Y-4860065I-34305J34305D01*
G01X4784214Y-4512535D01*
G03X4770005Y-4478231I-48514J0D01*
G01X4703869Y-4412095D01*
G03X4692765Y-4403793I-34305J-34305D01*
G03X4743614Y-4305300I-69965J98493D01*
G03X4692765Y-4206807I-120814J0D01*
G03X4703869Y-4198505I-23200J42607D01*
G01X4770005Y-4132369D01*
G03X4784214Y-4098065I-34305J34305D01*
G01X4784214Y-4004535D01*
G03X4770005Y-3970231I-48514J0D01*
G01X4703869Y-3904095D01*
G03X4692765Y-3895793I-34305J-34305D01*
G03X4741273Y-3773635I-69965J98493D01*
G03X4649558Y-3679487I-118473J-23665D01*
G01X4657105Y-3671940D01*
G03X4667962Y-3655355I-34305J34305D01*
G03X4637930Y-3423437I-45162J112055D01*
G03X4551209Y-3640617I-15130J-119863D01*
G01X4475595Y-3716231D01*
G03X4461386Y-3750535I34305J-34305D01*
G01X4461386Y-3844065D01*
G03X4475595Y-3878369I48514J0D01*
G01X4541731Y-3944505D01*
G03X4552835Y-3952807I34305J34305D01*
G03X4512155Y-4002786I69965J-98493D01*
G01X4064000Y-4002786D01*
G03X4029695Y-4016995I0J-48514D01*
G01X1654795Y-6391895D01*
G03X1640586Y-6426200I34305J-34305D01*
G01X1640586Y-7926400D01*
G01X4307586Y-9142059D02*
G01X4287249Y-9142059D01*
G03X4251435Y-9177873I0J-35814D01*
G01X4251435Y-9291127D01*
G03X4287249Y-9326941I35814J0D01*
G01X4395050Y-9326941D01*
G01X4379932Y-9342059D01*
G01X4287249Y-9342059D01*
G03X4251435Y-9377873I0J-35814D01*
G01X4251435Y-9491127D01*
G03X4256088Y-9508779I35814J0D01*
G01X4187205Y-9439895D01*
G03X4176718Y-9431935I-34305J-34305D01*
G03X4088600Y-9181286I-88118J109835D01*
G01X3988600Y-9181286D01*
G03X3893214Y-9425686I0J-140814D01*
G01X3818869Y-9425686D01*
G01X3481741Y-9088557D01*
G01X3481741Y-9024349D01*
G03X3445927Y-8988535I-35814J0D01*
G01X3332673Y-8988535D01*
G03X3296859Y-9024349I0J-35814D01*
G01X3296859Y-9162051D01*
G03X3332673Y-9197865I35814J0D01*
G01X3445927Y-9197865D01*
G03X3453103Y-9197138I0J35814D01*
G01X3732451Y-9476486D01*
G01X1963195Y-9476486D01*
G01X1739214Y-9252505D01*
G01X1739214Y-9197865D01*
G01X1747327Y-9197865D01*
G03X1783141Y-9162051I0J35814D01*
G01X1783141Y-9024349D01*
G03X1747327Y-8988535I-35814J0D01*
G01X1716373Y-8988535D01*
G03X1665027Y-8988535I-25673J-41165D01*
G01X1634073Y-8988535D01*
G03X1598259Y-9024349I0J-35814D01*
G01X1598259Y-9162051D01*
G03X1634073Y-9197865I35814J0D01*
G01X1642186Y-9197865D01*
G01X1642186Y-9272600D01*
G03X1656396Y-9306905I48514J0D01*
G01X1908795Y-9559305D01*
G03X1943100Y-9573514I34305J34305D01*
G01X4043905Y-9573514D01*
G01X4372595Y-9902205D01*
G03X4406900Y-9916414I34305J34305D01*
G01X4506713Y-9916414D01*
G03X4748611Y-9867900I116084J48514D01*
G03X4506713Y-9819386I-125814J0D01*
G01X4426995Y-9819386D01*
G01X4130323Y-9522714D01*
G01X4132805Y-9522714D01*
G01X4258295Y-9648205D01*
G03X4292600Y-9662414I34305J34305D01*
G01X4506713Y-9662414D01*
G03X4748611Y-9613900I116084J48514D01*
G03X4506713Y-9565386I-125814J0D01*
G01X4312695Y-9565386D01*
G01X4269597Y-9522288D01*
G03X4287249Y-9526941I17652J31162D01*
G01X4424951Y-9526941D01*
G03X4460765Y-9491127I0J35814D01*
G01X4460765Y-9398444D01*
G01X4497005Y-9362204D01*
G03X4711761Y-9448864I125793J2304D01*
G03X4625102Y-9234107I-88964J88964D01*
G01X4627586Y-9231623D01*
G03X4670923Y-8989654I-4789J125723D01*
G03X4530543Y-9191447I-48125J-116246D01*
G01X4460765Y-9261226D01*
G01X4460765Y-9177873D01*
G03X4424951Y-9142059I-35814J0D01*
G01X4404614Y-9142059D01*
G01X4404614Y-8499600D01*
G03X4390405Y-8465295I-48514J0D01*
G01X4200394Y-8275285D01*
G03X4204414Y-8247100I-96794J28185D01*
G01X4204414Y-8117100D01*
G03X4103600Y-8016286I-100814J0D01*
G01X3973600Y-8016286D01*
G03X3872786Y-8117100I0J-100814D01*
G01X3872786Y-8247100D01*
G03X3973600Y-8347914I100814J0D01*
G01X4103600Y-8347914D01*
G03X4131785Y-8343894I0J100814D01*
G01X4307586Y-8519695D01*
G01X4307586Y-9142059D01*
G01X1834073Y-8988535D02*
G03X1798259Y-9024349I0J-35814D01*
G01X1798259Y-9162051D01*
G03X1834073Y-9197865I35814J0D01*
G01X1947327Y-9197865D01*
G03X1983141Y-9162051I0J35814D01*
G01X1983141Y-9024349D01*
G03X1950022Y-8988637I-35814J0D01*
G01X1950022Y-8860310D01*
G01X1955008Y-8860310D01*
G03X1990822Y-8824496I0J35814D01*
G01X1990822Y-8764496D01*
G03X1955008Y-8728682I-35814J0D01*
G01X1848007Y-8728682D01*
G03X1812193Y-8764496I0J-35814D01*
G01X1812193Y-8824496D01*
G03X1848007Y-8860310I35814J0D01*
G01X1852994Y-8860310D01*
G01X1852994Y-8988535D01*
G01X1834073Y-8988535D01*
G01X2082000Y-7695386D02*
G01X1982000Y-7695386D01*
G03X1982000Y-7977014I0J-140814D01*
G01X2082000Y-7977014D01*
G03X2082000Y-7695386I0J140814D01*
G01X2097000Y-7692014D02*
G03X2197814Y-7591200I0J100814D01*
G01X2197814Y-7461200D01*
G03X2097000Y-7360386I-100814J0D01*
G01X1967000Y-7360386D01*
G03X1866186Y-7461200I0J-100814D01*
G01X1866186Y-7591200D01*
G03X1967000Y-7692014I100814J0D01*
G01X2097000Y-7692014D01*
G01X2133600Y-1196086D02*
G03X2097786Y-1231900I0J-35814D01*
G01X2097786Y-2984500D01*
G03X2133600Y-3020314I35814J0D01*
G01X3098800Y-3020314D01*
G03X3134614Y-2984500I0J35814D01*
G01X3134614Y-1231900D01*
G03X3098800Y-1196086I-35814J0D01*
G01X2133600Y-1196086D01*
G01X2185573Y-4875695D02*
G03X2437201Y-4875695I125814J0D01*
G03X2185573Y-4875695I-125814J0D01*
G01X2245073Y-4649813D02*
G03X2377701Y-4649813I66314J0D01*
G03X2245073Y-4649813I-66314J0D01*
G01X2590000Y-9181286D02*
G01X2490000Y-9181286D01*
G03X2490000Y-9462914I0J-140814D01*
G01X2590000Y-9462914D01*
G03X2590000Y-9181286I0J140814D01*
G01X2605000Y-8016286D02*
G01X2475000Y-8016286D01*
G03X2374186Y-8117100I0J-100814D01*
G01X2374186Y-8247100D01*
G03X2475000Y-8347914I100814J0D01*
G01X2605000Y-8347914D01*
G03X2705814Y-8247100I0J100814D01*
G01X2705814Y-8138414D01*
G01X3096859Y-8138414D01*
G01X3096859Y-8158751D01*
G03X3132673Y-8194565I35814J0D01*
G01X3245927Y-8194565D01*
G03X3281741Y-8158751I0J35814D01*
G01X3281741Y-8021049D01*
G03X3245927Y-7985235I-35814J0D01*
G01X3132673Y-7985235D01*
G03X3096859Y-8021049I0J-35814D01*
G01X3096859Y-8041386D01*
G01X2671565Y-8041386D01*
G03X2605000Y-8016286I-66565J-75714D01*
G01X2605000Y-9177914D02*
G03X2705814Y-9077100I0J100814D01*
G01X2705814Y-8947100D01*
G03X2605000Y-8846286I-100814J0D01*
G01X2475000Y-8846286D01*
G03X2374186Y-8947100I0J-100814D01*
G01X2374186Y-9077100D01*
G03X2475000Y-9177914I100814J0D01*
G01X2605000Y-9177914D01*
G01X2439573Y-6325705D02*
G03X2691201Y-6325705I125814J0D01*
G03X2439573Y-6325705I-125814J0D01*
G01X2693573Y-6325705D02*
G03X2945201Y-6325705I125814J0D01*
G03X2693573Y-6325705I-125814J0D01*
G01X3085300Y-7695386D02*
G01X2985300Y-7695386D01*
G03X2985300Y-7977014I0J-140814D01*
G01X3085300Y-7977014D01*
G03X3085300Y-7695386I0J140814D01*
G01X3100300Y-7692014D02*
G03X3201114Y-7591200I0J100814D01*
G01X3201114Y-7461200D01*
G03X3100300Y-7360386I-100814J0D01*
G01X2970300Y-7360386D01*
G03X2869486Y-7461200I0J-100814D01*
G01X2869486Y-7591200D01*
G03X2970300Y-7692014I100814J0D01*
G01X3100300Y-7692014D01*
G01X3402195Y-8850736D02*
G01X3452899Y-8850736D01*
G03X3488713Y-8814922I0J35814D01*
G01X3488713Y-8754922D01*
G03X3452899Y-8719108I-35814J0D01*
G01X3345899Y-8719108D01*
G03X3310085Y-8754922I0J-35814D01*
G01X3310085Y-8805627D01*
G01X3154996Y-8960717D01*
G03X3141222Y-8988535I34305J-34305D01*
G01X3132673Y-8988535D01*
G03X3096859Y-9024349I0J-35814D01*
G01X3096859Y-9162051D01*
G03X3132673Y-9197865I35814J0D01*
G01X3245927Y-9197865D01*
G03X3281741Y-9162051I0J35814D01*
G01X3281741Y-9024349D01*
G03X3261047Y-8991884I-35814J0D01*
G01X3402195Y-8850736D01*
G01X3310085Y-8624930D02*
G03X3345899Y-8660744I35814J0D01*
G01X3452899Y-8660744D01*
G03X3488713Y-8624930I0J35814D01*
G01X3488713Y-8564930D01*
G03X3452899Y-8529116I-35814J0D01*
G01X3345899Y-8529116D01*
G03X3310085Y-8564930I0J-35814D01*
G01X3310085Y-8624930D01*
G01X3593300Y-10921186D02*
G01X3493300Y-10921186D01*
G03X3493300Y-11202814I0J-140814D01*
G01X3593300Y-11202814D01*
G03X3593300Y-10921186I0J140814D01*
G01X3608300Y-10917814D02*
G03X3709114Y-10817000I0J100814D01*
G01X3709114Y-10687000D01*
G03X3608300Y-10586186I-100814J0D01*
G01X3478300Y-10586186D01*
G03X3377486Y-10687000I0J-100814D01*
G01X3377486Y-10817000D01*
G03X3478300Y-10917814I100814J0D01*
G01X3608300Y-10917814D01*
G01X4088600Y-7695386D02*
G01X3988600Y-7695386D01*
G03X3988600Y-7977014I0J-140814D01*
G01X4088600Y-7977014D01*
G03X4088600Y-7695386I0J140814D01*
G01X4103600Y-7692014D02*
G03X4204414Y-7591200I0J100814D01*
G01X4204414Y-7461200D01*
G03X4103600Y-7360386I-100814J0D01*
G01X3973600Y-7360386D01*
G03X3872786Y-7461200I0J-100814D01*
G01X3872786Y-7591200D01*
G03X3973600Y-7692014I100814J0D01*
G01X4103600Y-7692014D01*
G01X4103600Y-9177914D02*
G03X4204414Y-9077100I0J100814D01*
G01X4204414Y-8947100D01*
G03X4103600Y-8846286I-100814J0D01*
G01X3973600Y-8846286D01*
G03X3872786Y-8947100I0J-100814D01*
G01X3872786Y-9077100D01*
G03X3973600Y-9177914I100814J0D01*
G01X4103600Y-9177914D01*
G01X4103600Y-6862014D02*
G03X4204414Y-6761200I0J100814D01*
G01X4204414Y-6631200D01*
G03X4103600Y-6530386I-100814J0D01*
G01X3973600Y-6530386D01*
G03X3872786Y-6631200I0J-100814D01*
G01X3872786Y-6761200D01*
G03X3973600Y-6862014I100814J0D01*
G01X4103600Y-6862014D01*
G01X4666251Y-11127141D02*
G03X4702065Y-11091327I0J35814D01*
G01X4702065Y-10978073D01*
G03X4666251Y-10942259I-35814J0D01*
G01X4528549Y-10942259D01*
G03X4492735Y-10978073I0J-35814D01*
G01X4492735Y-11091327D01*
G03X4528549Y-11127141I35814J0D01*
G01X4666251Y-11127141D01*
G01X4622797Y-7202086D02*
G03X4622797Y-7453714I0J-125814D01*
G03X4622797Y-7202086I0J125814D01*
G01X4622797Y-9996086D02*
G03X4622797Y-10247714I0J-125814D01*
G03X4622797Y-9996086I0J125814D01*
G01X4622797Y-7710086D02*
G03X4622797Y-7961714I0J-125814D01*
G03X4622797Y-7710086I0J125814D01*
G01X4622797Y-8218086D02*
G03X4622797Y-8469714I0J-125814D01*
G03X4622797Y-8218086I0J125814D01*
G01X4622797Y-8472086D02*
G03X4622797Y-8723714I0J-125814D01*
G03X4622797Y-8472086I0J125814D01*
G01X4622797Y-7964086D02*
G03X4622797Y-8215714I0J-125814D01*
G03X4622797Y-7964086I0J125814D01*
G01X4622797Y-8726086D02*
G03X4622797Y-8977714I0J-125814D01*
G03X4622797Y-8726086I0J125814D01*
G54D11*
G01X1848261Y-8604504D02*
G01X1822353Y-8604504D01*
G01X1954754Y-8604504D02*
G01X1980662Y-8604504D01*
G01X1901508Y-8574758D02*
G01X1901508Y-8548850D01*
G01X1901508Y-8634250D02*
G01X1901508Y-8660158D01*
G01X3346153Y-8594930D02*
G01X3320245Y-8594930D01*
G01X3452645Y-8594930D02*
G01X3478553Y-8594930D01*
G01X3399399Y-8565184D02*
G01X3399399Y-8539276D01*
G01X3399399Y-8624676D02*
G01X3399399Y-8650584D01*
G01X896554Y-4572000D02*
G01X870646Y-4572000D01*
G01X966800Y-4504753D02*
G01X966800Y-4478845D01*
G01X966800Y-4639246D02*
G01X966800Y-4665154D01*
G01X4597400Y-11091073D02*
G01X4597400Y-11116981D01*
G01X4597400Y-10978327D02*
G01X4597400Y-10952419D01*
G01X4528803Y-11034700D02*
G01X4502895Y-11034700D01*
G01X4665997Y-11034700D02*
G01X4691905Y-11034700D01*
G01X579049Y-5569306D02*
G01X553141Y-5569306D01*
G01X858540Y-5569306D02*
G01X884448Y-5569306D01*
G01X718795Y-5469560D02*
G01X718795Y-5443652D01*
G01X718795Y-5669051D02*
G01X718795Y-5694959D01*
G01X431800Y-5211154D02*
G01X431800Y-5185246D01*
G01X431800Y-5380646D02*
G01X431800Y-5406554D01*
G01X516546Y-5295900D02*
G01X542454Y-5295900D01*
G01X347054Y-5295900D02*
G01X321146Y-5295900D01*
G01X431800Y-7249414D02*
G01X431800Y-7223506D01*
G01X431800Y-7406386D02*
G01X431800Y-7432294D01*
G01X516546Y-7327900D02*
G01X542454Y-7327900D01*
G01X347054Y-7327900D02*
G01X321146Y-7327900D01*
G01X431800Y-8513154D02*
G01X431800Y-8487246D01*
G01X431800Y-8682646D02*
G01X431800Y-8708554D01*
G01X516546Y-8597900D02*
G01X542454Y-8597900D01*
G01X347054Y-8597900D02*
G01X321146Y-8597900D01*
G01X431800Y-8005154D02*
G01X431800Y-7979246D01*
G01X431800Y-8174646D02*
G01X431800Y-8200554D01*
G01X516546Y-8089900D02*
G01X542454Y-8089900D01*
G01X347054Y-8089900D02*
G01X321146Y-8089900D01*
G01X873954Y-7836200D02*
G01X848046Y-7836200D01*
G01X1183446Y-7836200D02*
G01X1209354Y-7836200D01*
G01X1028700Y-7731454D02*
G01X1028700Y-7705546D01*
G01X1028700Y-7940946D02*
G01X1028700Y-7966854D01*
G01X873954Y-9322100D02*
G01X848046Y-9322100D01*
G01X1183446Y-9322100D02*
G01X1209354Y-9322100D01*
G01X1028700Y-9217354D02*
G01X1028700Y-9191446D01*
G01X1028700Y-9426846D02*
G01X1028700Y-9452754D01*
G01X431800Y-9021154D02*
G01X431800Y-8995246D01*
G01X431800Y-9190646D02*
G01X431800Y-9216554D01*
G01X516546Y-9105900D02*
G01X542454Y-9105900D01*
G01X347054Y-9105900D02*
G01X321146Y-9105900D01*
G01X859042Y-4819294D02*
G01X833134Y-4819294D01*
G01X1028534Y-4819294D02*
G01X1054442Y-4819294D01*
G01X943788Y-4734549D02*
G01X943788Y-4708641D01*
G01X943788Y-4904040D02*
G01X943788Y-4929948D01*
G01X431800Y-4449154D02*
G01X431800Y-4423246D01*
G01X431800Y-4618646D02*
G01X431800Y-4644554D01*
G01X516546Y-4533900D02*
G01X542454Y-4533900D01*
G01X347054Y-4533900D02*
G01X321146Y-4533900D01*
G01X2015401Y-5775439D02*
G01X2015401Y-5801347D01*
G01X2015401Y-5375948D02*
G01X2015401Y-5350040D01*
G01X1900655Y-5575694D02*
G01X1874747Y-5575694D01*
G01X2130147Y-5575694D02*
G01X2156055Y-5575694D01*
G01X1529060Y-5569306D02*
G01X1503152Y-5569306D01*
G01X1808551Y-5569306D02*
G01X1834459Y-5569306D01*
G01X1668805Y-5469560D02*
G01X1668805Y-5443652D01*
G01X1668805Y-5669051D02*
G01X1668805Y-5694959D01*
G01X1406954Y-10752000D02*
G01X1381046Y-10752000D01*
G01X1666446Y-10752000D02*
G01X1692354Y-10752000D01*
G01X1536700Y-10622254D02*
G01X1536700Y-10596346D01*
G01X1536700Y-10881746D02*
G01X1536700Y-10907654D01*
G01X1381954Y-11062000D02*
G01X1356046Y-11062000D01*
G01X1691446Y-11062000D02*
G01X1717354Y-11062000D01*
G01X1536700Y-10957254D02*
G01X1536700Y-10931346D01*
G01X1536700Y-11166746D02*
G01X1536700Y-11192654D01*
G01X1877254Y-7836200D02*
G01X1851346Y-7836200D01*
G01X2186746Y-7836200D02*
G01X2212654Y-7836200D01*
G01X2032000Y-7731454D02*
G01X2032000Y-7705546D01*
G01X2032000Y-7940946D02*
G01X2032000Y-7966854D01*
G01X2880554Y-7836200D02*
G01X2854646Y-7836200D01*
G01X3190046Y-7836200D02*
G01X3215954Y-7836200D01*
G01X3035300Y-7731454D02*
G01X3035300Y-7705546D01*
G01X3035300Y-7940946D02*
G01X3035300Y-7966854D01*
G01X3115399Y-5775439D02*
G01X3115399Y-5801347D01*
G01X3000653Y-5575694D02*
G01X2974745Y-5575694D01*
G01X3230145Y-5575694D02*
G01X3256053Y-5575694D01*
G01X2729641Y-4875695D02*
G01X2703733Y-4875695D01*
G01X2909133Y-4875695D02*
G01X2935041Y-4875695D01*
G01X2819387Y-4785949D02*
G01X2819387Y-4760041D01*
G01X2819387Y-4965441D02*
G01X2819387Y-4991349D01*
G01X2475641Y-6325705D02*
G01X2449733Y-6325705D01*
G01X2655133Y-6325705D02*
G01X2681041Y-6325705D01*
G01X2565387Y-6235959D02*
G01X2565387Y-6210051D01*
G01X2565387Y-6415451D02*
G01X2565387Y-6441359D01*
G01X2385254Y-9322100D02*
G01X2359346Y-9322100D01*
G01X2694746Y-9322100D02*
G01X2720654Y-9322100D01*
G01X2540000Y-9217354D02*
G01X2540000Y-9191446D01*
G01X2540000Y-9426846D02*
G01X2540000Y-9452754D01*
G01X3388554Y-11062000D02*
G01X3362646Y-11062000D01*
G01X3698046Y-11062000D02*
G01X3723954Y-11062000D01*
G01X3543300Y-10957254D02*
G01X3543300Y-10931346D01*
G01X3543300Y-11166746D02*
G01X3543300Y-11192654D01*
G01X3413554Y-10752000D02*
G01X3387646Y-10752000D01*
G01X3673046Y-10752000D02*
G01X3698954Y-10752000D01*
G01X3543300Y-10622254D02*
G01X3543300Y-10596346D01*
G01X3543300Y-10881746D02*
G01X3543300Y-10907654D01*
G01X3883854Y-9322100D02*
G01X3857946Y-9322100D01*
G01X4193346Y-9322100D02*
G01X4219254Y-9322100D01*
G01X4038600Y-9217354D02*
G01X4038600Y-9191446D01*
G01X3908854Y-9012100D02*
G01X3882946Y-9012100D01*
G01X4168346Y-9012100D02*
G01X4194254Y-9012100D01*
G01X4038600Y-8882354D02*
G01X4038600Y-8856446D01*
G01X4038600Y-9141846D02*
G01X4038600Y-9167754D01*
G01X3883854Y-7836200D02*
G01X3857946Y-7836200D01*
G01X4193346Y-7836200D02*
G01X4219254Y-7836200D01*
G01X4038600Y-7731454D02*
G01X4038600Y-7705546D01*
G01X4038600Y-7940946D02*
G01X4038600Y-7966854D01*
G01X4622797Y-7238154D02*
G01X4622797Y-7212246D01*
G01X4622797Y-7417646D02*
G01X4622797Y-7443554D01*
G01X4712543Y-7327900D02*
G01X4738451Y-7327900D01*
G01X4533052Y-7327900D02*
G01X4507144Y-7327900D01*
G01X4622797Y-10032154D02*
G01X4622797Y-10006246D01*
G01X4622797Y-10211646D02*
G01X4622797Y-10237554D01*
G01X4712543Y-10121900D02*
G01X4738451Y-10121900D01*
G01X4533052Y-10121900D02*
G01X4507144Y-10121900D01*
G01X4622797Y-7746154D02*
G01X4622797Y-7720246D01*
G01X4622797Y-7925646D02*
G01X4622797Y-7951554D01*
G01X4712543Y-7835900D02*
G01X4738451Y-7835900D01*
G01X4533052Y-7835900D02*
G01X4507144Y-7835900D01*
G01X4622797Y-8762154D02*
G01X4622797Y-8736246D01*
G01X4622797Y-8941646D02*
G01X4622797Y-8967554D01*
G01X4712543Y-8851900D02*
G01X4738451Y-8851900D01*
G01X4533052Y-8851900D02*
G01X4507144Y-8851900D01*
G01X4622797Y-9449646D02*
G01X4622797Y-9475554D01*
G01X4712543Y-9359900D02*
G01X4738451Y-9359900D01*
G01X4707546Y-3797300D02*
G01X4733454Y-3797300D01*
G01X4707546Y-4305300D02*
G01X4733454Y-4305300D01*
G01X4707546Y-5067300D02*
G01X4733454Y-5067300D01*
G04 Copper End*

G04 Pad Start*
G54D12*
G01X3138500Y-6362700D03*
G01X3338500Y-6362700D03*
G01X3532200Y-6362700D03*
G01X3732200Y-6362700D03*
G54D13*
G01X4356100Y-9234500D03*
G01X4356100Y-9434500D03*
G54D12*
G01X1678000Y-8407400D03*
G01X1878000Y-8407400D03*
G01X1890700Y-9093200D03*
G01X1690700Y-9093200D03*
G01X3189300Y-8089900D03*
G01X3389300Y-8089900D03*
G01X3189300Y-9093200D03*
G01X3389300Y-9093200D03*
G54D14*
G01X2032000Y-7526200D03*
G54D15*
G01X2032000Y-7836200D03*
G54D14*
G01X2032000Y-6696200D03*
G01X3035300Y-7526200D03*
G54D15*
G01X3035300Y-7836200D03*
G54D14*
G01X3035300Y-6696200D03*
G01X4038600Y-7526200D03*
G54D15*
G01X4038600Y-7836200D03*
G54D14*
G01X4038600Y-6696200D03*
G01X1028700Y-7526200D03*
G54D15*
G01X1028700Y-7836200D03*
G54D14*
G01X1028700Y-6696200D03*
G01X4038600Y-9012100D03*
G54D15*
G01X4038600Y-9322100D03*
G54D14*
G01X4038600Y-8182100D03*
G01X1028700Y-9012100D03*
G54D15*
G01X1028700Y-9322100D03*
G54D14*
G01X1028700Y-8182100D03*
G01X2540000Y-9012100D03*
G54D15*
G01X2540000Y-9322100D03*
G54D14*
G01X2540000Y-8182100D03*
G01X1536700Y-10752000D03*
G54D15*
G01X1536700Y-11062000D03*
G54D14*
G01X1536700Y-9922000D03*
G01X3543300Y-10752000D03*
G54D15*
G01X3543300Y-11062000D03*
G54D14*
G01X3543300Y-9922000D03*
G54D16*
G01X1901508Y-8794496D03*
G01X1901508Y-8604504D03*
G01X1654493Y-8699500D03*
G01X3399399Y-8784922D03*
G01X3399399Y-8594930D03*
G01X3152384Y-8689926D03*
G54D12*
G01X1865300Y-8102600D03*
G01X1665300Y-8102600D03*
G01X3389300Y-8394700D03*
G01X3189300Y-8394700D03*
G54D13*
G01X4597400Y-10834700D03*
G01X4597400Y-11034700D03*
G01X4597400Y-10428300D03*
G01X4597400Y-10628300D03*
G54D17*
G01X2311387Y-6325705D03*
G01X2565387Y-6325705D03*
G01X2819387Y-6325705D03*
G01X2311387Y-4875695D03*
G01X2819387Y-4875695D03*
G54D19*
G01X3115399Y-5575694D03*
G01X2015401Y-5575694D03*
G54D17*
G01X4622797Y-7327900D03*
G01X4622797Y-7581900D03*
G01X4622797Y-7835900D03*
G01X4622797Y-8089900D03*
G01X4622797Y-8343900D03*
G01X4622797Y-8597900D03*
G01X4622797Y-8851900D03*
G01X4622797Y-9105900D03*
G01X4622797Y-9359900D03*
G01X4622797Y-9613900D03*
G01X4622797Y-9867900D03*
G01X4622797Y-10121900D03*
G54D20*
G01X4622800Y-5067300D03*
G01X4622800Y-4813300D03*
G01X4622800Y-4559300D03*
G01X4622800Y-4305300D03*
G01X4622800Y-4051300D03*
G01X4622800Y-3797300D03*
G01X4622800Y-3543300D03*
G54D21*
G01X4622800Y-3289300D03*
G54D20*
G01X431800Y-9105900D03*
G01X431800Y-8851900D03*
G01X431800Y-8597900D03*
G01X431800Y-8343900D03*
G01X431800Y-8089900D03*
G01X431800Y-7835900D03*
G01X431800Y-7581900D03*
G54D21*
G01X431800Y-7327900D03*
G54D22*
G01X431800Y-4533900D03*
G54D20*
G01X431800Y-4787900D03*
G01X431800Y-5041900D03*
G01X431800Y-5295900D03*
G54D23*
G01X1166800Y-4572000D03*
G01X966800Y-4572000D03*
G54D20*
G01X943788Y-4819294D03*
G01X1193800Y-4819294D03*
G01X1443787Y-4819294D03*
G54D24*
G01X1668805Y-5569306D03*
G01X718795Y-5569306D03*
G04 Pad End*

G04 Via Start*
G54D25*
G01X2311387Y-4649813D03*
G01X4254500Y-4203700D03*
G01X3975100Y-4381500D03*
G01X3797300Y-4660900D03*
G01X3467100Y-4826000D03*
G01X3352800Y-5130800D03*
G01X2997200Y-5270500D03*
G01X2705100Y-5549900D03*
G01X2492156Y-5763579D03*
G01X2324100Y-5943600D03*
G01X2090236Y-6175696D03*
G01X1797632Y-6463200D03*
G01X1828800Y-7137400D03*
G01X1828800Y-7683500D03*
G01X4419600Y-4432300D03*
G01X4191000Y-4635500D03*
G01X3975100Y-4826000D03*
G01X3784600Y-5016500D03*
G01X3619500Y-5181600D03*
G01X3429000Y-5384800D03*
G01X3230400Y-5839209D03*
G01X2971800Y-6121400D03*
G01X2514600Y-6108700D03*
G01X2665742Y-6517505D03*
G01X2133600Y-6451600D03*
G01X2641600Y-9715500D03*
G01X2755900Y-9817100D03*
G01X2362200Y-10375900D03*
G01X2654300Y-10439400D03*
G01X4292600Y-7975600D03*
G01X475260Y-11615140D03*
G01X475260Y-11315140D03*
G01X475260Y-11015140D03*
G01X475260Y-10715140D03*
G01X475260Y-10415140D03*
G01X475260Y-10115141D03*
G01X475260Y-9815141D03*
G01X475260Y-9515141D03*
G01X475260Y-7115141D03*
G01X475260Y-6815142D03*
G01X475260Y-6515142D03*
G01X475260Y-6215142D03*
G01X475260Y-5915142D03*
G01X475260Y-5615142D03*
G01X475260Y-4115142D03*
G01X475260Y-3815142D03*
G01X475260Y-3515143D03*
G01X475260Y-3215143D03*
G01X475260Y-2915143D03*
G01X475260Y-2615143D03*
G01X475260Y-2315143D03*
G01X475260Y-2015143D03*
G01X475260Y-1715143D03*
G01X475260Y-1415143D03*
G01X475260Y-1115143D03*
G01X775260Y-11615140D03*
G01X775260Y-11315140D03*
G01X775260Y-11015140D03*
G01X775260Y-10715140D03*
G01X775260Y-10415140D03*
G01X775260Y-10115141D03*
G01X775260Y-9515141D03*
G01X775260Y-9215141D03*
G01X775260Y-8915141D03*
G01X775260Y-8615141D03*
G01X775260Y-8315141D03*
G01X775260Y-7715141D03*
G01X775260Y-7115141D03*
G01X775260Y-6815142D03*
G01X775260Y-6515142D03*
G01X775260Y-6215142D03*
G01X775260Y-5915142D03*
G01X775260Y-5015142D03*
G01X826060Y-4715142D03*
G01X775260Y-4115142D03*
G01X775260Y-3815142D03*
G01X775260Y-3515143D03*
G01X775260Y-3215143D03*
G01X775260Y-2915143D03*
G01X775260Y-2615143D03*
G01X775260Y-2315143D03*
G01X775260Y-2015143D03*
G01X775260Y-1715143D03*
G01X775260Y-1415143D03*
G01X775260Y-1115143D03*
G01X1075260Y-11615140D03*
G01X1075260Y-11315140D03*
G01X1075260Y-11015140D03*
G01X1075260Y-10715140D03*
G01X1075260Y-10415140D03*
G01X1075260Y-9815141D03*
G01X1075260Y-9515141D03*
G01X1075260Y-8615141D03*
G01X1075260Y-5315142D03*
G01X1075260Y-5015142D03*
G01X1066764Y-4712474D03*
G01X1075260Y-4115142D03*
G01X1075260Y-3815142D03*
G01X1075260Y-3515143D03*
G01X1075260Y-3215143D03*
G01X1075260Y-2915143D03*
G01X1075260Y-2615143D03*
G01X1075260Y-2315143D03*
G01X1075260Y-2015143D03*
G01X1075260Y-1715143D03*
G01X1075260Y-1415143D03*
G01X1075260Y-1115143D03*
G01X1375260Y-11615140D03*
G01X1375260Y-11315140D03*
G01X1387960Y-10115141D03*
G01X1375260Y-9515141D03*
G01X1375260Y-9215141D03*
G01X1375260Y-8915141D03*
G01X1375260Y-8615141D03*
G01X1375260Y-8315141D03*
G01X1375260Y-8015141D03*
G01X1375260Y-7715141D03*
G01X1375260Y-7415141D03*
G01X1375260Y-7115141D03*
G01X1375260Y-6215142D03*
G01X1375260Y-5915142D03*
G01X1121260Y-5653242D03*
G01X1375260Y-5315142D03*
G01X1375260Y-5015142D03*
G01X1375260Y-4115142D03*
G01X1375260Y-3815142D03*
G01X1375260Y-3515143D03*
G01X1375260Y-3215143D03*
G01X1375260Y-2915143D03*
G01X1375260Y-2615143D03*
G01X1375260Y-2315143D03*
G01X1375260Y-2015143D03*
G01X1375260Y-1715143D03*
G01X1375260Y-1415143D03*
G01X1375260Y-1115143D03*
G01X1675260Y-11615140D03*
G01X1675260Y-11315140D03*
G01X1726060Y-10115141D03*
G01X1675260Y-9515141D03*
G01X1675260Y-8915141D03*
G01X1662560Y-5953242D03*
G01X1675260Y-5015142D03*
G01X1675260Y-4715142D03*
G01X1675260Y-4115142D03*
G01X1675260Y-3815142D03*
G01X1675260Y-3515143D03*
G01X1675260Y-3215143D03*
G01X1675260Y-2915143D03*
G01X1675260Y-2615143D03*
G01X1675260Y-2315143D03*
G01X1675260Y-2015143D03*
G01X1675260Y-1715143D03*
G01X1675260Y-1415143D03*
G01X1675260Y-1115143D03*
G01X1975259Y-11615140D03*
G01X1975259Y-11315140D03*
G01X1975259Y-11015140D03*
G01X1975259Y-10715140D03*
G01X1975259Y-10115141D03*
G01X1975259Y-9815141D03*
G01X1975259Y-4715142D03*
G01X1975259Y-4115142D03*
G01X1975259Y-3815142D03*
G01X1975259Y-3515143D03*
G01X1975259Y-3215143D03*
G01X1975259Y-2915143D03*
G01X1975259Y-2615143D03*
G01X1975259Y-2315143D03*
G01X1975259Y-2015143D03*
G01X1975259Y-1715143D03*
G01X1975259Y-1415143D03*
G01X1975259Y-1115143D03*
G01X2275259Y-11615140D03*
G01X2275259Y-11315140D03*
G01X2275259Y-11015140D03*
G01X2275259Y-10715140D03*
G01X2275259Y-9215141D03*
G01X2275259Y-8615141D03*
G01X2275259Y-8315141D03*
G01X2275259Y-8015141D03*
G01X2275259Y-7715141D03*
G01X2275259Y-7415141D03*
G01X2275259Y-6815142D03*
G01X2275259Y-6515142D03*
G01X2275259Y-5315142D03*
G01X2275259Y-4115142D03*
G01X2275259Y-3815142D03*
G01X2275259Y-3515143D03*
G01X2275259Y-3215143D03*
G01X2275259Y-1115143D03*
G01X2575259Y-11615140D03*
G01X2575259Y-11315140D03*
G01X2575259Y-11015140D03*
G01X2575259Y-10715140D03*
G01X2575259Y-10115141D03*
G01X2575259Y-7715141D03*
G01X2575259Y-7415141D03*
G01X2575259Y-7115141D03*
G01X2575259Y-6515142D03*
G01X2575259Y-5015142D03*
G01X2575259Y-4115142D03*
G01X2575259Y-3815142D03*
G01X2575259Y-3515143D03*
G01X2575259Y-3215143D03*
G01X2575259Y-1115143D03*
G01X2875259Y-11615140D03*
G01X2875259Y-11315140D03*
G01X2875259Y-11015140D03*
G01X2875259Y-10715140D03*
G01X2875259Y-9815141D03*
G01X2875259Y-9215141D03*
G01X2875259Y-8915141D03*
G01X2875259Y-8615141D03*
G01X2875259Y-7115141D03*
G01X2875259Y-5915142D03*
G01X2875259Y-4715142D03*
G01X2875259Y-4115142D03*
G01X2875259Y-3815142D03*
G01X2875259Y-3515143D03*
G01X2875259Y-3215143D03*
G01X2875259Y-1115143D03*
G01X3175259Y-11615140D03*
G01X3175259Y-11315140D03*
G01X3175259Y-11015140D03*
G01X3175259Y-10715140D03*
G01X3175259Y-9815141D03*
G01X3175259Y-7115141D03*
G01X3175259Y-6515142D03*
G01X3175259Y-6215142D03*
G01X3175259Y-5915142D03*
G01X3175259Y-4115142D03*
G01X3175259Y-3815142D03*
G01X3175259Y-3515143D03*
G01X3175259Y-3215143D03*
G01X3175259Y-2915143D03*
G01X3175259Y-2615143D03*
G01X3175259Y-2315143D03*
G01X3175259Y-2015143D03*
G01X3175259Y-1715143D03*
G01X3175259Y-1415143D03*
G01X3175259Y-1115143D03*
G01X3475259Y-11615140D03*
G01X3475259Y-11315140D03*
G01X3475259Y-8915141D03*
G01X3475259Y-7715141D03*
G01X3475259Y-7115141D03*
G01X3475259Y-6815142D03*
G01X3475259Y-6215142D03*
G01X3475259Y-5915142D03*
G01X3475259Y-5615142D03*
G01X3475259Y-5315142D03*
G01X3475259Y-5015142D03*
G01X3475259Y-4115142D03*
G01X3475259Y-3815142D03*
G01X3475259Y-3515143D03*
G01X3475259Y-3215143D03*
G01X3475259Y-2915143D03*
G01X3475259Y-2615143D03*
G01X3475259Y-2315143D03*
G01X3475259Y-2015143D03*
G01X3475259Y-1715143D03*
G01X3475259Y-1415143D03*
G01X3475259Y-1115143D03*
G01X3775259Y-11615140D03*
G01X3775259Y-11315140D03*
G01X3775259Y-11015140D03*
G01X3775259Y-10715140D03*
G01X3775259Y-8315141D03*
G01X3775259Y-7715141D03*
G01X3775259Y-7415141D03*
G01X3775259Y-7115141D03*
G01X3775259Y-6815142D03*
G01X3775259Y-6515142D03*
G01X3775259Y-5915142D03*
G01X3775259Y-5615142D03*
G01X3775259Y-5315142D03*
G01X3775259Y-3815142D03*
G01X3775259Y-3515143D03*
G01X3775259Y-3215143D03*
G01X3775259Y-2915143D03*
G01X3775259Y-2615143D03*
G01X3775259Y-2315143D03*
G01X3775259Y-2015143D03*
G01X3775259Y-1715143D03*
G01X3775259Y-1415143D03*
G01X3775259Y-1115143D03*
G01X4075259Y-11615140D03*
G01X4075259Y-11315140D03*
G01X4075259Y-11015140D03*
G01X4075259Y-10715140D03*
G01X4075259Y-10415140D03*
G01X4075259Y-10115141D03*
G01X4075259Y-7115141D03*
G01X4075259Y-4415142D03*
G01X4075259Y-3515143D03*
G01X4075259Y-3215143D03*
G01X4075259Y-2915143D03*
G01X4075259Y-2615143D03*
G01X4075259Y-2315143D03*
G01X4075259Y-2015143D03*
G01X4075259Y-1715143D03*
G01X4075259Y-1415143D03*
G01X4075259Y-1115143D03*
G01X4375259Y-11615140D03*
G01X4375259Y-11315140D03*
G01X4375259Y-11015140D03*
G01X4375259Y-10715140D03*
G01X4375259Y-10115141D03*
G01X4375259Y-8315141D03*
G01X4375259Y-7715141D03*
G01X4375259Y-7415141D03*
G01X4375259Y-6815142D03*
G01X4375259Y-6515142D03*
G01X4375259Y-6215142D03*
G01X4375259Y-5915142D03*
G01X4375259Y-5615142D03*
G01X4375259Y-5315142D03*
G01X4375259Y-5015142D03*
G01X4375259Y-4715142D03*
G01X4375259Y-3815142D03*
G01X4375259Y-3215143D03*
G01X4375259Y-2915143D03*
G01X4375259Y-2615143D03*
G01X4375259Y-2315143D03*
G01X4375259Y-2015143D03*
G01X4375259Y-1715143D03*
G01X4375259Y-1415143D03*
G01X4375259Y-1115143D03*
G01X4675259Y-11615140D03*
G01X4675259Y-11315140D03*
G01X4675259Y-7115141D03*
G01X4675259Y-2915143D03*
G01X4675259Y-2615143D03*
G01X4675259Y-2315143D03*
G01X4675259Y-2015143D03*
G01X4675259Y-1715143D03*
G01X4675259Y-1415143D03*
G01X4675259Y-1115143D03*
G01X1362814Y-11015140D03*
G01X1362814Y-10715140D03*
G01X1362814Y-9815141D03*
G01X1962813Y-8915141D03*
G01X1962813Y-5315142D03*
G01X2862813Y-8015141D03*
G01X2862813Y-7715141D03*
G01X3162813Y-9215141D03*
G01X3162813Y-8915141D03*
G01X3762813Y-6215142D03*
G01X3762813Y-4715142D03*
G01X4062813Y-9815141D03*
G01X4362813Y-4115142D03*
G01X4445000Y-9728200D03*
G01X4508500Y-9486900D03*
G01X3657600Y-9182100D03*
G01X3454400Y-9359900D03*
G01X2870200Y-9398000D03*
G01X3644900Y-8648700D03*
G01X2946400Y-10020300D03*
G01X2946400Y-10361604D03*
G01X1536700Y-10350500D03*
G01X1828800Y-5867400D03*
G01X812800Y-4521200D03*
G01X1422400Y-4559300D03*
G01X1574800Y-6515100D03*
G01X1346200Y-6705600D03*
G01X2006600Y-6934200D03*
G01X1727200Y-5365765D03*
G01X1828800Y-5740400D03*
G04 Via End*

G04 Track Start*
G54D11*
G01X2311387Y-4649813D02*
G01X2313000Y-4648200D01*
G01X3138500Y-6362700D02*
G01X3113100Y-6388100D01*
G01X3048000Y-6388100D01*
G01X2739900Y-6696200D01*
G01X2032000Y-6696200D01*
G01X3532200Y-6362700D02*
G01X3532200Y-6526200D01*
G01X3362200Y-6696200D02*
G01X3035300Y-6696200D01*
G01X3532200Y-6526200D02*
G01X3362200Y-6696200D01*
G01X3732200Y-6362700D02*
G01X4267200Y-5827700D01*
G01X4267200Y-5003800D01*
G01X4457700Y-4813300D01*
G01X4622800Y-4813300D01*
G01X4622800Y-4559300D02*
G01X4394200Y-4559300D01*
G01X3338500Y-5615000D02*
G01X3338500Y-6362700D01*
G01X4394200Y-4559300D02*
G01X3338500Y-5615000D01*
G01X1943100Y-9525000D02*
G01X1690700Y-9272600D01*
G01X1690700Y-9029700D01*
G01X1890700Y-9080500D02*
G01X1901508Y-9069692D01*
G01X1901508Y-8781796D01*
G01X1878000Y-8463293D02*
G01X1654493Y-8686800D01*
G01X1878000Y-8382000D02*
G01X1878000Y-8463293D01*
G01X1665300Y-8089900D02*
G01X1878000Y-8302600D01*
G01X1878000Y-8382000D01*
G01X1678000Y-8407400D02*
G01X1254000Y-8407400D01*
G01X1028700Y-8182100D01*
G01X3189300Y-9093200D02*
G01X3189300Y-8995021D01*
G01X3399399Y-8784922D01*
G01X3152384Y-8689926D02*
G01X3152384Y-8431616D01*
G01X3189300Y-8394700D01*
G01X3189300Y-8089900D02*
G01X2632200Y-8089900D01*
G01X2540000Y-8182100D01*
G01X3389300Y-8089900D02*
G01X3389300Y-8194700D01*
G01X3189300Y-8394700D01*
G01X4622800Y-4051300D02*
G01X4064000Y-4051300D01*
G01X1689100Y-6426200D01*
G01X1689100Y-7926400D01*
G01X1865300Y-8102600D01*
G01X4622800Y-4051300D02*
G01X3326306Y-5347794D01*
G01X3056208Y-5347794D01*
G01X1828800Y-6575202D01*
G01X2146300Y-7226300D02*
G01X3276600Y-7226300D01*
G01X3619500Y-7569200D01*
G01X3619500Y-8166100D01*
G01X3390900Y-8394700D01*
G01X3389300Y-8394700D01*
G01X1828800Y-6575202D02*
G01X1828800Y-6908800D01*
G01X2146300Y-7226300D01*
G01X4610100Y-10428300D02*
G01X4813300Y-10225100D01*
G01X4813300Y-7708900D01*
G01X4686300Y-7581900D01*
G01X4622797Y-7581900D01*
G01X4356100Y-9434500D02*
G01X4622797Y-9167802D01*
G01X4622797Y-9105900D01*
G01X4356100Y-9234500D02*
G01X4356100Y-8499600D01*
G01X4038600Y-8182100D01*
G01X4610100Y-10834700D02*
G01X4610100Y-10628300D01*
G01X4191000Y-10221900D02*
G01X4597400Y-10628300D01*
G01X4064000Y-9715500D02*
G01X4191000Y-9842500D01*
G01X4191000Y-10221900D01*
G01X2641600Y-9715500D02*
G01X4064000Y-9715500D01*
G01X2755900Y-9817100D02*
G01X2362200Y-10210800D01*
G01X2362200Y-10375900D01*
G01X4622800Y-3289300D02*
G01X1244600Y-6667500D01*
G01X1244600Y-6870700D01*
G01X660400Y-7454900D01*
G01X660400Y-9753600D01*
G01X1346200Y-10439400D01*
G01X2654300Y-10439400D01*
G01X4622800Y-3543300D02*
G01X4622800Y-3637635D01*
G01X4509900Y-3750535D01*
G01X4509900Y-3844065D01*
G01X4576035Y-3910200D01*
G01X4594600Y-3910200D01*
G01X4622800Y-3938400D01*
G01X4669565Y-3938400D01*
G01X4735700Y-4004535D01*
G01X4735700Y-4098065D01*
G01X4669565Y-4164200D01*
G01X4651000Y-4164200D01*
G01X4622800Y-4192400D01*
G01X4576035Y-4192400D01*
G01X4509900Y-4258535D01*
G01X4509900Y-4352065D01*
G01X4576035Y-4418200D01*
G01X4594600Y-4418200D01*
G01X4622800Y-4446400D01*
G01X4669565Y-4446400D01*
G01X4735700Y-4860065D02*
G01X4669565Y-4926200D01*
G01X4651000Y-4926200D01*
G01X4622800Y-4954400D01*
G01X4576035Y-4954400D01*
G01X4509900Y-5020535D01*
G01X4509900Y-5114065D01*
G01X4622800Y-5226965D01*
G01X4669565Y-4446400D02*
G01X4735700Y-4512535D01*
G01X4735700Y-4860065D01*
G01X4622800Y-5226965D02*
G01X4622800Y-6934200D01*
G01X4292600Y-7264400D02*
G01X4292600Y-7975600D01*
G01X4622800Y-6934200D02*
G01X4292600Y-7264400D01*
G01X4064000Y-9525000D02*
G01X1943100Y-9525000D01*
G01X4622797Y-9867900D02*
G01X4406900Y-9867900D01*
G01X4064000Y-9525000D01*
G01X3427847Y-9103273D02*
G01X3399373Y-9103274D01*
G01X3389300Y-9093200D01*
G01X4622797Y-9613900D02*
G01X4292600Y-9613900D01*
G01X4152900Y-9474200D01*
G01X3798774Y-9474200D01*
G01X3427847Y-9103273D01*
G01X1676400Y-5867400D02*
G01X1193800Y-5384800D01*
G01X1193800Y-4870099D01*
G01X1828800Y-5867400D02*
G01X1676400Y-5867400D01*
G01X1166800Y-4597400D02*
G01X1166800Y-4843099D01*
G01X1193800Y-4870099D01*
G04 Track End*

M02*

