G04 Layer: TopPasteMaskLayer*
G04 EasyEDA Pro v2.2.47.7, 2026-04-30 22:47:58*
G04 Gerber Generator version 0.3*
G04 Scale: 100 percent, Rotated: No, Reflected: No*
G04 Dimensions in millimeters*
G04 Leading zeros omitted, absolute positions, 4 integers and 5 decimals*
G04 Generated by one-click*
G04 Object Configs: Pad,Via,Track,Text,Image,Dimension,BoardOutline,BoardCutout,CopperFilled,SolidRegion,FPCStiffener,Line,PlaneZone,ComponentProperty,ComponentSilkscreen,TearDrop*
G04 Layer Configs: 1,15,16,2,3,4,5,6,7,8,9,10,11,13,14,71,72,56*
G04 Copper Areas: 0*
%FSLAX45Y45*%
%MOMM*%
%ADD10R,1.07X0.6*%
%ADD11C,0.8346*%
G75*


G04 PolygonModel Start*
G36*
G01X3408502Y-6298700D02*
G01X3408502Y-6426698D01*
G01X3403501Y-6431699D01*
G01X3288500Y-6431699D01*
G01X3283501Y-6426698D01*
G01X3282998Y-6385695D01*
G01X3327999Y-6385695D01*
G01X3327999Y-6340696D01*
G01X3283999Y-6340696D01*
G01X3283501Y-6298700D01*
G01X3288500Y-6293698D01*
G01X3403501Y-6293698D01*
G01X3408502Y-6298700D01*
G37*
G36*
G01X3193501Y-6298700D02*
G01X3193499Y-6340696D01*
G01X3149001Y-6340696D01*
G01X3149001Y-6385695D01*
G01X3192998Y-6385695D01*
G01X3193501Y-6426698D01*
G01X3188500Y-6431699D01*
G01X3073502Y-6431699D01*
G01X3068500Y-6426698D01*
G01X3068500Y-6298700D01*
G01X3073502Y-6293698D01*
G01X3188500Y-6293698D01*
G01X3193501Y-6298700D01*
G37*
G36*
G01X3802202Y-6298700D02*
G01X3802202Y-6426698D01*
G01X3797201Y-6431699D01*
G01X3682200Y-6431699D01*
G01X3677201Y-6426698D01*
G01X3676698Y-6385695D01*
G01X3721699Y-6385695D01*
G01X3721699Y-6340696D01*
G01X3677699Y-6340696D01*
G01X3677201Y-6298700D01*
G01X3682200Y-6293698D01*
G01X3797201Y-6293698D01*
G01X3802202Y-6298700D01*
G37*
G36*
G01X3587201Y-6298700D02*
G01X3587199Y-6340696D01*
G01X3542701Y-6340696D01*
G01X3542701Y-6385695D01*
G01X3586698Y-6385695D01*
G01X3587201Y-6426698D01*
G01X3582200Y-6431699D01*
G01X3467202Y-6431699D01*
G01X3462200Y-6426698D01*
G01X3462200Y-6298700D01*
G01X3467202Y-6293698D01*
G01X3582200Y-6293698D01*
G01X3587201Y-6298700D01*
G37*
G36*
G01X4420100Y-9504502D02*
G01X4292102Y-9504502D01*
G01X4287101Y-9499501D01*
G01X4287101Y-9384500D01*
G01X4292102Y-9379501D01*
G01X4333105Y-9378998D01*
G01X4333105Y-9423999D01*
G01X4378104Y-9423999D01*
G01X4378104Y-9379999D01*
G01X4420100Y-9379501D01*
G01X4425102Y-9384500D01*
G01X4425102Y-9499501D01*
G01X4420100Y-9504502D01*
G37*
G36*
G01X4420100Y-9289501D02*
G01X4378104Y-9289499D01*
G01X4378104Y-9245001D01*
G01X4333105Y-9245001D01*
G01X4333105Y-9288998D01*
G01X4292102Y-9289501D01*
G01X4287101Y-9284500D01*
G01X4287101Y-9169502D01*
G01X4292102Y-9164500D01*
G01X4420100Y-9164500D01*
G01X4425102Y-9169502D01*
G01X4425102Y-9284500D01*
G01X4420100Y-9289501D01*
G37*
G36*
G01X1948002Y-8343400D02*
G01X1948002Y-8471398D01*
G01X1943001Y-8476399D01*
G01X1828000Y-8476399D01*
G01X1823001Y-8471398D01*
G01X1822498Y-8430395D01*
G01X1867499Y-8430395D01*
G01X1867499Y-8385396D01*
G01X1823499Y-8385396D01*
G01X1823001Y-8343400D01*
G01X1828000Y-8338398D01*
G01X1943001Y-8338398D01*
G01X1948002Y-8343400D01*
G37*
G36*
G01X1733001Y-8343400D02*
G01X1732999Y-8385396D01*
G01X1688501Y-8385396D01*
G01X1688501Y-8430395D01*
G01X1732498Y-8430395D01*
G01X1733001Y-8471398D01*
G01X1728000Y-8476399D01*
G01X1613002Y-8476399D01*
G01X1608000Y-8471398D01*
G01X1608000Y-8343400D01*
G01X1613002Y-8338398D01*
G01X1728000Y-8338398D01*
G01X1733001Y-8343400D01*
G37*
G36*
G01X1620698Y-9157200D02*
G01X1620698Y-9029202D01*
G01X1625699Y-9024201D01*
G01X1740700Y-9024201D01*
G01X1745699Y-9029202D01*
G01X1746202Y-9070205D01*
G01X1701201Y-9070205D01*
G01X1701201Y-9115204D01*
G01X1745201Y-9115204D01*
G01X1745699Y-9157200D01*
G01X1740700Y-9162202D01*
G01X1625699Y-9162202D01*
G01X1620698Y-9157200D01*
G37*
G36*
G01X1835699Y-9157200D02*
G01X1835701Y-9115204D01*
G01X1880199Y-9115204D01*
G01X1880199Y-9070205D01*
G01X1836202Y-9070205D01*
G01X1835699Y-9029202D01*
G01X1840700Y-9024201D01*
G01X1955698Y-9024201D01*
G01X1960700Y-9029202D01*
G01X1960700Y-9157200D01*
G01X1955698Y-9162202D01*
G01X1840700Y-9162202D01*
G01X1835699Y-9157200D01*
G37*
G36*
G01X3459302Y-8025900D02*
G01X3459302Y-8153898D01*
G01X3454301Y-8158899D01*
G01X3339300Y-8158899D01*
G01X3334301Y-8153898D01*
G01X3333798Y-8112895D01*
G01X3378799Y-8112895D01*
G01X3378799Y-8067896D01*
G01X3334799Y-8067896D01*
G01X3334301Y-8025900D01*
G01X3339300Y-8020898D01*
G01X3454301Y-8020898D01*
G01X3459302Y-8025900D01*
G37*
G36*
G01X3244301Y-8025900D02*
G01X3244299Y-8067896D01*
G01X3199801Y-8067896D01*
G01X3199801Y-8112895D01*
G01X3243798Y-8112895D01*
G01X3244301Y-8153898D01*
G01X3239300Y-8158899D01*
G01X3124302Y-8158899D01*
G01X3119300Y-8153898D01*
G01X3119300Y-8025900D01*
G01X3124302Y-8020898D01*
G01X3239300Y-8020898D01*
G01X3244301Y-8025900D01*
G37*
G36*
G01X3459302Y-9029200D02*
G01X3459302Y-9157198D01*
G01X3454301Y-9162199D01*
G01X3339300Y-9162199D01*
G01X3334301Y-9157198D01*
G01X3333798Y-9116195D01*
G01X3378799Y-9116195D01*
G01X3378799Y-9071196D01*
G01X3334799Y-9071196D01*
G01X3334301Y-9029200D01*
G01X3339300Y-9024198D01*
G01X3454301Y-9024198D01*
G01X3459302Y-9029200D01*
G37*
G36*
G01X3244301Y-9029200D02*
G01X3244299Y-9071196D01*
G01X3199801Y-9071196D01*
G01X3199801Y-9116195D01*
G01X3243798Y-9116195D01*
G01X3244301Y-9157198D01*
G01X3239300Y-9162199D01*
G01X3124302Y-9162199D01*
G01X3119300Y-9157198D01*
G01X3119300Y-9029200D01*
G01X3124302Y-9024198D01*
G01X3239300Y-9024198D01*
G01X3244301Y-9029200D01*
G37*
G36*
G01X1595298Y-8166600D02*
G01X1595298Y-8038602D01*
G01X1600299Y-8033601D01*
G01X1715300Y-8033601D01*
G01X1720299Y-8038602D01*
G01X1720802Y-8079605D01*
G01X1675801Y-8079605D01*
G01X1675801Y-8124604D01*
G01X1719801Y-8124604D01*
G01X1720299Y-8166600D01*
G01X1715300Y-8171602D01*
G01X1600299Y-8171602D01*
G01X1595298Y-8166600D01*
G37*
G36*
G01X1810299Y-8166600D02*
G01X1810301Y-8124604D01*
G01X1854799Y-8124604D01*
G01X1854799Y-8079605D01*
G01X1810802Y-8079605D01*
G01X1810299Y-8038602D01*
G01X1815300Y-8033601D01*
G01X1930298Y-8033601D01*
G01X1935300Y-8038602D01*
G01X1935300Y-8166600D01*
G01X1930298Y-8171602D01*
G01X1815300Y-8171602D01*
G01X1810299Y-8166600D01*
G37*
G36*
G01X3119298Y-8458700D02*
G01X3119298Y-8330702D01*
G01X3124299Y-8325701D01*
G01X3239300Y-8325701D01*
G01X3244299Y-8330702D01*
G01X3244802Y-8371705D01*
G01X3199801Y-8371705D01*
G01X3199801Y-8416704D01*
G01X3243801Y-8416704D01*
G01X3244299Y-8458700D01*
G01X3239300Y-8463702D01*
G01X3124299Y-8463702D01*
G01X3119298Y-8458700D01*
G37*
G36*
G01X3334299Y-8458700D02*
G01X3334301Y-8416704D01*
G01X3378799Y-8416704D01*
G01X3378799Y-8371705D01*
G01X3334802Y-8371705D01*
G01X3334299Y-8330702D01*
G01X3339300Y-8325701D01*
G01X3454298Y-8325701D01*
G01X3459300Y-8330702D01*
G01X3459300Y-8458700D01*
G01X3454298Y-8463702D01*
G01X3339300Y-8463702D01*
G01X3334299Y-8458700D01*
G37*
G36*
G01X4661400Y-11104702D02*
G01X4533402Y-11104702D01*
G01X4528401Y-11099701D01*
G01X4528401Y-10984700D01*
G01X4533402Y-10979701D01*
G01X4574405Y-10979198D01*
G01X4574405Y-11024199D01*
G01X4619404Y-11024199D01*
G01X4619404Y-10980199D01*
G01X4661400Y-10979701D01*
G01X4666402Y-10984700D01*
G01X4666402Y-11099701D01*
G01X4661400Y-11104702D01*
G37*
G36*
G01X4661400Y-10889701D02*
G01X4619404Y-10889699D01*
G01X4619404Y-10845201D01*
G01X4574405Y-10845201D01*
G01X4574405Y-10889198D01*
G01X4533402Y-10889701D01*
G01X4528401Y-10884700D01*
G01X4528401Y-10769702D01*
G01X4533402Y-10764700D01*
G01X4661400Y-10764700D01*
G01X4666402Y-10769702D01*
G01X4666402Y-10884700D01*
G01X4661400Y-10889701D01*
G37*
G36*
G01X4661400Y-10698302D02*
G01X4533402Y-10698302D01*
G01X4528401Y-10693301D01*
G01X4528401Y-10578300D01*
G01X4533402Y-10573301D01*
G01X4574405Y-10572798D01*
G01X4574405Y-10617799D01*
G01X4619404Y-10617799D01*
G01X4619404Y-10573799D01*
G01X4661400Y-10573301D01*
G01X4666402Y-10578300D01*
G01X4666402Y-10693301D01*
G01X4661400Y-10698302D01*
G37*
G36*
G01X4661400Y-10483301D02*
G01X4619404Y-10483299D01*
G01X4619404Y-10438801D01*
G01X4574405Y-10438801D01*
G01X4574405Y-10482798D01*
G01X4533402Y-10483301D01*
G01X4528401Y-10478300D01*
G01X4528401Y-10363302D01*
G01X4533402Y-10358300D01*
G01X4661400Y-10358300D01*
G01X4666402Y-10363302D01*
G01X4666402Y-10478300D01*
G01X4661400Y-10483301D01*
G37*
G36*
G01X896303Y-4636000D02*
G01X896303Y-4508002D01*
G01X901304Y-4503001D01*
G01X1016305Y-4503001D01*
G01X1021304Y-4508002D01*
G01X1021806Y-4549005D01*
G01X976805Y-4549005D01*
G01X976805Y-4594004D01*
G01X1020806Y-4594004D01*
G01X1021304Y-4636000D01*
G01X1016305Y-4641002D01*
G01X901304Y-4641002D01*
G01X896303Y-4636000D01*
G37*
G36*
G01X1237298Y-4508000D02*
G01X1237298Y-4635998D01*
G01X1232296Y-4640999D01*
G01X1117295Y-4640999D01*
G01X1112296Y-4635998D01*
G01X1111794Y-4594995D01*
G01X1156795Y-4594995D01*
G01X1156795Y-4549996D01*
G01X1112794Y-4549996D01*
G01X1112296Y-4508000D01*
G01X1117295Y-4502998D01*
G01X1232296Y-4502998D01*
G01X1237298Y-4508000D01*
G37*

G04 Pad Start*
G54D10*
G01X1901508Y-8794496D03*
G01X1901508Y-8604504D03*
G01X1654493Y-8699500D03*
G01X3399399Y-8784922D03*
G01X3399399Y-8594930D03*
G01X3152384Y-8689926D03*
G04 Pad End*

M02*

