G04 Layer: InnerLayer1*
G04 EasyEDA Pro v2.2.47.7, 2026-05-04 20:37:10*
G04 Gerber Generator version 0.3*
G04 Scale: 100 percent, Rotated: No, Reflected: No*
G04 Dimensions in millimeters*
G04 Leading zeros omitted, absolute positions, 4 integers and 5 decimals*
G04 Generated by one-click*
G04 Object Configs: Pad,Via,Track,Text,Image,Dimension,BoardOutline,BoardCutout,CopperFilled,SolidRegion,FPCStiffener,Line,PlaneZone,ComponentProperty,ComponentSilkscreen,TearDrop*
G04 Layer Configs: 1,15,16,2,3,4,5,6,7,8,9,10,11,13,14,71,72,56*
G04 Copper Areas: 0*
%FSLAX45Y45*%
%MOMM*%
%AMRoundRect*1,1,$1,$2,$3*1,1,$1,$4,$5*1,1,$1,0-$2,0-$3*1,1,$1,0-$4,0-$5*20,1,$1,$2,$3,$4,$5,0*20,1,$1,$4,$5,0-$2,0-$3,0*20,1,$1,0-$2,0-$3,0-$4,0-$5,0*20,1,$1,0-$4,0-$5,$2,$3,0*4,1,4,$2,$3,$4,$5,0-$2,0-$3,0-$4,0-$5,$2,$3,0*%
%ADD10RoundRect,1.3X-0.65X0.65X0.65X0.65*%
%ADD11O,3.1X2.1*%
%ADD12C,1.8*%
%ADD13O,2.3X3.99999*%
%ADD14C,1.7*%
%ADD15R,1.7047X1.5748*%
%ADD16R,1.7X1.5748*%
%ADD17R,1.7X1.7*%
%ADD18O,2.79999X2.0*%
%ADD19C,0.61*%
G75*


G04 PlaneZone Start*
G36*
G01X4901346Y-978154D02*
G01X4901346Y-11926846D01*
G01X152654Y-11926846D01*
G01X152654Y-978154D01*
G01X4901346Y-978154D01*
G37*
%LPC*%
G36*
G01X431800Y-8995246D02*
G03X431800Y-9216554I0J-110654D01*
G03X431800Y-8995246I0J110654D01*
G37*
G36*
G01X321146Y-4618900D02*
G03X346800Y-4644554I25654J0D01*
G01X516800Y-4644554D01*
G03X542454Y-4618900I0J25654D01*
G01X542454Y-4448900D01*
G03X516800Y-4423246I-25654J0D01*
G01X346800Y-4423246D01*
G03X321146Y-4448900I0J-25654D01*
G01X321146Y-4618900D01*
G37*
G36*
G01X431800Y-4931246D02*
G03X431800Y-5152554I0J-110654D01*
G03X431800Y-4931246I0J110654D01*
G37*
G36*
G01X431800Y-4677246D02*
G03X431800Y-4898554I0J-110654D01*
G03X431800Y-4677246I0J110654D01*
G37*
G36*
G01X431800Y-7725246D02*
G03X431800Y-7946554I0J-110654D01*
G03X431800Y-7725246I0J110654D01*
G37*
G36*
G01X431800Y-7471246D02*
G03X431800Y-7692554I0J-110654D01*
G03X431800Y-7471246I0J110654D01*
G37*
G36*
G01X431800Y-8487246D02*
G03X431800Y-8708554I0J-110654D01*
G03X431800Y-8487246I0J110654D01*
G37*
G36*
G01X431800Y-8233246D02*
G03X431800Y-8454554I0J-110654D01*
G03X431800Y-8233246I0J110654D01*
G37*
G36*
G01X431800Y-7979246D02*
G03X431800Y-8200554I0J-110654D01*
G03X431800Y-7979246I0J110654D01*
G37*
G36*
G01X431800Y-8741246D02*
G03X431800Y-8962554I0J-110654D01*
G03X431800Y-8741246I0J110654D01*
G37*
G36*
G01X321146Y-7406640D02*
G03X346800Y-7432294I25654J0D01*
G01X516800Y-7432294D01*
G03X542454Y-7406640I0J25654D01*
G01X542454Y-7249160D01*
G03X516800Y-7223506I-25654J0D01*
G01X346800Y-7223506D01*
G03X321146Y-7249160I0J-25654D01*
G01X321146Y-7406640D01*
G37*
G36*
G01X431800Y-5185246D02*
G03X431800Y-5406554I0J-110654D01*
G03X431800Y-5185246I0J110654D01*
G37*
G36*
G01X758795Y-5443652D02*
G01X678795Y-5443652D01*
G03X678795Y-5694959I0J-125654D01*
G01X758795Y-5694959D01*
G03X758795Y-5443652I0J125654D01*
G37*
G36*
G01X833134Y-4819294D02*
G03X1054442Y-4819294I110654J0D01*
G03X833134Y-4819294I-110654J0D01*
G37*
G36*
G01X1078700Y-7705546D02*
G01X978700Y-7705546D01*
G03X978700Y-7966854I0J-130654D01*
G01X1078700Y-7966854D01*
G03X1078700Y-7705546I0J130654D01*
G37*
G36*
G01X1078700Y-9191446D02*
G01X978700Y-9191446D01*
G03X978700Y-9452754I0J-130654D01*
G01X1078700Y-9452754D01*
G03X1078700Y-9191446I0J130654D01*
G37*
G36*
G01X1093700Y-6851854D02*
G03X1184354Y-6761200I0J90654D01*
G01X1184354Y-6631200D01*
G03X1093700Y-6540546I-90654J0D01*
G01X963700Y-6540546D01*
G03X873046Y-6631200I0J-90654D01*
G01X873046Y-6761200D01*
G03X963700Y-6851854I90654J0D01*
G01X1093700Y-6851854D01*
G37*
G36*
G01X1093700Y-8337754D02*
G03X1184354Y-8247100I0J90654D01*
G01X1184354Y-8117100D01*
G03X1093700Y-8026446I-90654J0D01*
G01X963700Y-8026446D01*
G03X873046Y-8117100I0J-90654D01*
G01X873046Y-8247100D01*
G03X963700Y-8337754I90654J0D01*
G01X1093700Y-8337754D01*
G37*
G36*
G01X1093700Y-7681854D02*
G03X1184354Y-7591200I0J90654D01*
G01X1184354Y-7461200D01*
G03X1093700Y-7370546I-90654J0D01*
G01X963700Y-7370546D01*
G03X873046Y-7461200I0J-90654D01*
G01X873046Y-7591200D01*
G03X963700Y-7681854I90654J0D01*
G01X1093700Y-7681854D01*
G37*
G36*
G01X1093700Y-9167754D02*
G03X1184354Y-9077100I0J90654D01*
G01X1184354Y-8947100D01*
G03X1093700Y-8856446I-90654J0D01*
G01X963700Y-8856446D01*
G03X873046Y-8947100I0J-90654D01*
G01X873046Y-9077100D01*
G03X963700Y-9167754I90654J0D01*
G01X1093700Y-9167754D01*
G37*
G36*
G01X1083146Y-4819294D02*
G03X1304454Y-4819294I110654J0D01*
G03X1083146Y-4819294I-110654J0D01*
G37*
G36*
G01X1333133Y-4819294D02*
G03X1554441Y-4819294I110654J0D01*
G03X1333133Y-4819294I-110654J0D01*
G37*
G36*
G01X1586700Y-10931346D02*
G01X1486700Y-10931346D01*
G03X1486700Y-11192654I0J-130654D01*
G01X1586700Y-11192654D01*
G03X1586700Y-10931346I0J130654D01*
G37*
G36*
G01X1601700Y-10077654D02*
G03X1692354Y-9987000I0J90654D01*
G01X1692354Y-9857000D01*
G03X1601700Y-9766346I-90654J0D01*
G01X1471700Y-9766346D01*
G03X1381046Y-9857000I0J-90654D01*
G01X1381046Y-9987000D01*
G03X1471700Y-10077654I90654J0D01*
G01X1601700Y-10077654D01*
G37*
G36*
G01X1601700Y-10907654D02*
G03X1692354Y-10817000I0J90654D01*
G01X1692354Y-10687000D01*
G03X1601700Y-10596346I-90654J0D01*
G01X1471700Y-10596346D01*
G03X1381046Y-10687000I0J-90654D01*
G01X1381046Y-10817000D01*
G03X1471700Y-10907654I90654J0D01*
G01X1601700Y-10907654D01*
G37*
G36*
G01X1708805Y-5443652D02*
G01X1628805Y-5443652D01*
G03X1628805Y-5694959I0J-125654D01*
G01X1708805Y-5694959D01*
G03X1708805Y-5443652I0J125654D01*
G37*
G36*
G01X1772646Y-5867400D02*
G03X1884954Y-5867400I56154J0D01*
G03X1772646Y-5867400I-56154J0D01*
G37*
G36*
G01X2082000Y-7705546D02*
G01X1982000Y-7705546D01*
G03X1982000Y-7966854I0J-130654D01*
G01X2082000Y-7966854D01*
G03X2082000Y-7705546I0J130654D01*
G37*
G36*
G01X1874747Y-5490694D02*
G01X1874747Y-5660694D01*
G03X2156055Y-5660694I140654J0D01*
G01X2156055Y-5490694D01*
G03X1874747Y-5490694I-140654J0D01*
G37*
G36*
G01X2097000Y-7681854D02*
G03X2187654Y-7591200I0J90654D01*
G01X2187654Y-7461200D01*
G03X2097000Y-7370546I-90654J0D01*
G01X1967000Y-7370546D01*
G03X1876346Y-7461200I0J-90654D01*
G01X1876346Y-7591200D01*
G03X1967000Y-7681854I90654J0D01*
G01X2097000Y-7681854D01*
G37*
G36*
G01X2097000Y-6851854D02*
G03X2187654Y-6761200I0J90654D01*
G01X2187654Y-6631200D01*
G03X2097000Y-6540546I-90654J0D01*
G01X1967000Y-6540546D01*
G03X1876346Y-6631200I0J-90654D01*
G01X1876346Y-6761200D01*
G03X1967000Y-6851854I90654J0D01*
G01X2097000Y-6851854D01*
G37*
G36*
G01X2133600Y-1206246D02*
G03X2107946Y-1231900I0J-25654D01*
G01X2107946Y-2984500D01*
G03X2133600Y-3010154I25654J0D01*
G01X3098800Y-3010154D01*
G03X3124454Y-2984500I0J25654D01*
G01X3124454Y-1231900D01*
G03X3098800Y-1206246I-25654J0D01*
G01X2133600Y-1206246D01*
G37*
G36*
G01X2195733Y-4875695D02*
G03X2427041Y-4875695I115654J0D01*
G03X2195733Y-4875695I-115654J0D01*
G37*
G36*
G01X2195733Y-6325705D02*
G03X2427041Y-6325705I115654J0D01*
G03X2195733Y-6325705I-115654J0D01*
G37*
G36*
G01X2255233Y-4649813D02*
G03X2367541Y-4649813I56154J0D01*
G03X2255233Y-4649813I-56154J0D01*
G37*
G36*
G01X2306046Y-10375900D02*
G03X2418354Y-10375900I56154J0D01*
G03X2306046Y-10375900I-56154J0D01*
G37*
G36*
G01X2590000Y-9191446D02*
G01X2490000Y-9191446D01*
G03X2490000Y-9452754I0J-130654D01*
G01X2590000Y-9452754D01*
G03X2590000Y-9191446I0J130654D01*
G37*
G36*
G01X2605000Y-8337754D02*
G03X2695654Y-8247100I0J90654D01*
G01X2695654Y-8117100D01*
G03X2605000Y-8026446I-90654J0D01*
G01X2475000Y-8026446D01*
G03X2384346Y-8117100I0J-90654D01*
G01X2384346Y-8247100D01*
G03X2475000Y-8337754I90654J0D01*
G01X2605000Y-8337754D01*
G37*
G36*
G01X2605000Y-9167754D02*
G03X2695654Y-9077100I0J90654D01*
G01X2695654Y-8947100D01*
G03X2605000Y-8856446I-90654J0D01*
G01X2475000Y-8856446D01*
G03X2384346Y-8947100I0J-90654D01*
G01X2384346Y-9077100D01*
G03X2475000Y-9167754I90654J0D01*
G01X2605000Y-9167754D01*
G37*
G36*
G01X2449733Y-6325705D02*
G03X2681041Y-6325705I115654J0D01*
G03X2449733Y-6325705I-115654J0D01*
G37*
G36*
G01X2585446Y-9715500D02*
G03X2697754Y-9715500I56154J0D01*
G03X2585446Y-9715500I-56154J0D01*
G37*
G36*
G01X2598146Y-10439400D02*
G03X2710454Y-10439400I56154J0D01*
G03X2598146Y-10439400I-56154J0D01*
G37*
G36*
G01X2699746Y-9817100D02*
G03X2812054Y-9817100I56154J0D01*
G03X2699746Y-9817100I-56154J0D01*
G37*
G36*
G01X2703733Y-4875695D02*
G03X2935041Y-4875695I115654J0D01*
G03X2703733Y-4875695I-115654J0D01*
G37*
G36*
G01X2703733Y-6325705D02*
G03X2935041Y-6325705I115654J0D01*
G03X2703733Y-6325705I-115654J0D01*
G37*
G36*
G01X3085300Y-7705546D02*
G01X2985300Y-7705546D01*
G03X2985300Y-7966854I0J-130654D01*
G01X3085300Y-7966854D01*
G03X3085300Y-7705546I0J130654D01*
G37*
G36*
G01X3100300Y-6851854D02*
G03X3190954Y-6761200I0J90654D01*
G01X3190954Y-6631200D01*
G03X3100300Y-6540546I-90654J0D01*
G01X2970300Y-6540546D01*
G03X2879646Y-6631200I0J-90654D01*
G01X2879646Y-6761200D01*
G03X2970300Y-6851854I90654J0D01*
G01X3100300Y-6851854D01*
G37*
G36*
G01X3100300Y-7681854D02*
G03X3190954Y-7591200I0J90654D01*
G01X3190954Y-7461200D01*
G03X3100300Y-7370546I-90654J0D01*
G01X2970300Y-7370546D01*
G03X2879646Y-7461200I0J-90654D01*
G01X2879646Y-7591200D01*
G03X2970300Y-7681854I90654J0D01*
G01X3100300Y-7681854D01*
G37*
G36*
G01X2974745Y-5490694D02*
G01X2974745Y-5660694D01*
G03X3256053Y-5660694I140654J0D01*
G01X3256053Y-5490694D01*
G03X2974745Y-5490694I-140654J0D01*
G37*
G36*
G01X3593300Y-10931346D02*
G01X3493300Y-10931346D01*
G03X3493300Y-11192654I0J-130654D01*
G01X3593300Y-11192654D01*
G03X3593300Y-10931346I0J130654D01*
G37*
G36*
G01X3608300Y-10077654D02*
G03X3698954Y-9987000I0J90654D01*
G01X3698954Y-9857000D01*
G03X3608300Y-9766346I-90654J0D01*
G01X3478300Y-9766346D01*
G03X3387646Y-9857000I0J-90654D01*
G01X3387646Y-9987000D01*
G03X3478300Y-10077654I90654J0D01*
G01X3608300Y-10077654D01*
G37*
G36*
G01X3608300Y-10907654D02*
G03X3698954Y-10817000I0J90654D01*
G01X3698954Y-10687000D01*
G03X3608300Y-10596346I-90654J0D01*
G01X3478300Y-10596346D01*
G03X3387646Y-10687000I0J-90654D01*
G01X3387646Y-10817000D01*
G03X3478300Y-10907654I90654J0D01*
G01X3608300Y-10907654D01*
G37*
G36*
G01X4088600Y-7705546D02*
G01X3988600Y-7705546D01*
G03X3988600Y-7966854I0J-130654D01*
G01X4088600Y-7966854D01*
G03X4088600Y-7705546I0J130654D01*
G37*
G36*
G01X4088600Y-9191446D02*
G01X3988600Y-9191446D01*
G03X3988600Y-9452754I0J-130654D01*
G01X4088600Y-9452754D01*
G03X4088600Y-9191446I0J130654D01*
G37*
G36*
G01X4103600Y-6851854D02*
G03X4194254Y-6761200I0J90654D01*
G01X4194254Y-6631200D01*
G03X4103600Y-6540546I-90654J0D01*
G01X3973600Y-6540546D01*
G03X3882946Y-6631200I0J-90654D01*
G01X3882946Y-6761200D01*
G03X3973600Y-6851854I90654J0D01*
G01X4103600Y-6851854D01*
G37*
G36*
G01X4103600Y-8337754D02*
G03X4194254Y-8247100I0J90654D01*
G01X4194254Y-8117100D01*
G03X4103600Y-8026446I-90654J0D01*
G01X3973600Y-8026446D01*
G03X3882946Y-8117100I0J-90654D01*
G01X3882946Y-8247100D01*
G03X3973600Y-8337754I90654J0D01*
G01X4103600Y-8337754D01*
G37*
G36*
G01X4103600Y-7681854D02*
G03X4194254Y-7591200I0J90654D01*
G01X4194254Y-7461200D01*
G03X4103600Y-7370546I-90654J0D01*
G01X3973600Y-7370546D01*
G03X3882946Y-7461200I0J-90654D01*
G01X3882946Y-7591200D01*
G03X3973600Y-7681854I90654J0D01*
G01X4103600Y-7681854D01*
G37*
G36*
G01X4103600Y-9167754D02*
G03X4194254Y-9077100I0J90654D01*
G01X4194254Y-8947100D01*
G03X4103600Y-8856446I-90654J0D01*
G01X3973600Y-8856446D01*
G03X3882946Y-8947100I0J-90654D01*
G01X3882946Y-9077100D01*
G03X3973600Y-9167754I90654J0D01*
G01X4103600Y-9167754D01*
G37*
G36*
G01X4236446Y-7975600D02*
G03X4348754Y-7975600I56154J0D01*
G03X4236446Y-7975600I-56154J0D01*
G37*
G36*
G01X4622797Y-7212246D02*
G03X4622797Y-7443554I0J-115654D01*
G03X4622797Y-7212246I0J115654D01*
G37*
G36*
G01X4622797Y-8228246D02*
G03X4622797Y-8459554I0J-115654D01*
G03X4622797Y-8228246I0J115654D01*
G37*
G36*
G01X4622797Y-8482246D02*
G03X4622797Y-8713554I0J-115654D01*
G03X4622797Y-8482246I0J115654D01*
G37*
G36*
G01X4622797Y-7974246D02*
G03X4622797Y-8205554I0J-115654D01*
G03X4622797Y-7974246I0J115654D01*
G37*
G36*
G01X4622797Y-7466246D02*
G03X4622797Y-7697554I0J-115654D01*
G03X4622797Y-7466246I0J115654D01*
G37*
G36*
G01X4622797Y-7720246D02*
G03X4622797Y-7951554I0J-115654D01*
G03X4622797Y-7720246I0J115654D01*
G37*
G36*
G01X4622797Y-8736246D02*
G03X4622797Y-8967554I0J-115654D01*
G03X4622797Y-8736246I0J115654D01*
G37*
G36*
G01X4622797Y-8990246D02*
G03X4622797Y-9221554I0J-115654D01*
G03X4622797Y-8990246I0J115654D01*
G37*
G36*
G01X4622797Y-9752246D02*
G03X4622797Y-9983554I0J-115654D01*
G03X4622797Y-9752246I0J115654D01*
G37*
G36*
G01X4622797Y-9498246D02*
G03X4622797Y-9729554I0J-115654D01*
G03X4622797Y-9498246I0J115654D01*
G37*
G36*
G01X4622797Y-10006246D02*
G03X4622797Y-10237554I0J-115654D01*
G03X4622797Y-10006246I0J115654D01*
G37*
G36*
G01X4622797Y-9244246D02*
G03X4622797Y-9475554I0J-115654D01*
G03X4622797Y-9244246I0J115654D01*
G37*
G36*
G01X4512146Y-3368040D02*
G03X4537800Y-3393694I25654J0D01*
G01X4707800Y-3393694D01*
G03X4733454Y-3368040I0J25654D01*
G01X4733454Y-3210560D01*
G03X4707800Y-3184906I-25654J0D01*
G01X4537800Y-3184906D01*
G03X4512146Y-3210560I0J-25654D01*
G01X4512146Y-3368040D01*
G37*
G36*
G01X4622800Y-3432646D02*
G03X4622800Y-3653954I0J-110654D01*
G03X4622800Y-3432646I0J110654D01*
G37*
G36*
G01X4622800Y-3686646D02*
G03X4622800Y-3907954I0J-110654D01*
G03X4622800Y-3686646I0J110654D01*
G37*
G36*
G01X4622800Y-3940646D02*
G03X4622800Y-4161954I0J-110654D01*
G03X4622800Y-3940646I0J110654D01*
G37*
G36*
G01X4622800Y-4194646D02*
G03X4622800Y-4415954I0J-110654D01*
G03X4622800Y-4194646I0J110654D01*
G37*
G36*
G01X4622800Y-4448646D02*
G03X4622800Y-4669954I0J-110654D01*
G03X4622800Y-4448646I0J110654D01*
G37*
G36*
G01X4622800Y-4702646D02*
G03X4622800Y-4923954I0J-110654D01*
G03X4622800Y-4702646I0J110654D01*
G37*
G36*
G01X4622800Y-4956646D02*
G03X4622800Y-5177954I0J-110654D01*
G03X4622800Y-4956646I0J110654D01*
G37*
%LPD*%
G36*
G01X1874747Y-5588394D02*
G02X1874747Y-5562994I0J12700D01*
G01X1900655Y-5562994D01*
G02X1900655Y-5588394I0J-12700D01*
G01X1874747Y-5588394D01*
G37*
G36*
G01X2974745Y-5588394D02*
G02X2974745Y-5562994I0J12700D01*
G01X3000653Y-5562994D01*
G02X3000653Y-5588394I0J-12700D01*
G01X2974745Y-5588394D01*
G37*
G36*
G01X2130147Y-5588394D02*
G02X2130147Y-5562994I0J12700D01*
G01X2156055Y-5562994D01*
G02X2156055Y-5588394I0J-12700D01*
G01X2130147Y-5588394D01*
G37*
G36*
G01X1808551Y-5582006D02*
G02X1808551Y-5556606I0J12700D01*
G01X1834459Y-5556606D01*
G02X1834459Y-5582006I0J-12700D01*
G01X1808551Y-5582006D01*
G37*
G36*
G01X3230145Y-5588394D02*
G02X3230145Y-5562994I0J12700D01*
G01X3256053Y-5562994D01*
G02X3256053Y-5588394I0J-12700D01*
G01X3230145Y-5588394D01*
G37*
G36*
G01X4507144Y-7340600D02*
G02X4507144Y-7315200I0J12700D01*
G01X4533052Y-7315200D01*
G02X4533052Y-7340600I0J-12700D01*
G01X4507144Y-7340600D01*
G37*
G36*
G01X4507144Y-10134600D02*
G02X4507144Y-10109200I0J12700D01*
G01X4533052Y-10109200D01*
G02X4533052Y-10134600I0J-12700D01*
G01X4507144Y-10134600D01*
G37*
G36*
G01X4507144Y-7848600D02*
G02X4507144Y-7823200I0J12700D01*
G01X4533052Y-7823200D01*
G02X4533052Y-7848600I0J-12700D01*
G01X4507144Y-7848600D01*
G37*
G36*
G01X4507144Y-8864600D02*
G02X4507144Y-8839200I0J12700D01*
G01X4533052Y-8839200D01*
G02X4533052Y-8864600I0J-12700D01*
G01X4507144Y-8864600D01*
G37*
G36*
G01X4507144Y-9372600D02*
G02X4507144Y-9347200I0J12700D01*
G01X4533052Y-9347200D01*
G02X4533052Y-9372600I0J-12700D01*
G01X4507144Y-9372600D01*
G37*
G36*
G01X4512146Y-3810000D02*
G02X4512146Y-3784600I0J12700D01*
G01X4538054Y-3784600D01*
G02X4538054Y-3810000I0J-12700D01*
G01X4512146Y-3810000D01*
G37*
G36*
G01X4512146Y-4318000D02*
G02X4512146Y-4292600I0J12700D01*
G01X4538054Y-4292600D01*
G02X4538054Y-4318000I0J-12700D01*
G01X4512146Y-4318000D01*
G37*
G36*
G01X4512146Y-5080000D02*
G02X4512146Y-5054600I0J12700D01*
G01X4538054Y-5054600D01*
G02X4538054Y-5080000I0J-12700D01*
G01X4512146Y-5080000D01*
G37*
G36*
G01X848046Y-9334800D02*
G02X848046Y-9309400I0J12700D01*
G01X873954Y-9309400D01*
G02X873954Y-9334800I0J-12700D01*
G01X848046Y-9334800D01*
G37*
G36*
G01X1183446Y-9334800D02*
G02X1183446Y-9309400I0J12700D01*
G01X1209354Y-9309400D01*
G02X1209354Y-9334800I0J-12700D01*
G01X1183446Y-9334800D01*
G37*
G36*
G01X848046Y-7848900D02*
G02X848046Y-7823500I0J12700D01*
G01X873954Y-7823500D01*
G02X873954Y-7848900I0J-12700D01*
G01X848046Y-7848900D01*
G37*
G36*
G01X1183446Y-7848900D02*
G02X1183446Y-7823500I0J12700D01*
G01X1209354Y-7823500D01*
G02X1209354Y-7848900I0J-12700D01*
G01X1183446Y-7848900D01*
G37*
G36*
G01X833134Y-4831994D02*
G02X833134Y-4806594I0J12700D01*
G01X859042Y-4806594D01*
G02X859042Y-4831994I0J-12700D01*
G01X833134Y-4831994D01*
G37*
G36*
G01X1028534Y-4831994D02*
G02X1028534Y-4806594I0J12700D01*
G01X1054442Y-4806594D01*
G02X1054442Y-4831994I0J-12700D01*
G01X1028534Y-4831994D01*
G37*
G36*
G01X1503152Y-5582006D02*
G02X1503152Y-5556606I0J12700D01*
G01X1529060Y-5556606D01*
G02X1529060Y-5582006I0J-12700D01*
G01X1503152Y-5582006D01*
G37*
G36*
G01X1356046Y-11074700D02*
G02X1356046Y-11049300I0J12700D01*
G01X1381954Y-11049300D01*
G02X1381954Y-11074700I0J-12700D01*
G01X1356046Y-11074700D01*
G37*
G36*
G01X553141Y-5582006D02*
G02X553141Y-5556606I0J12700D01*
G01X579049Y-5556606D01*
G02X579049Y-5582006I0J-12700D01*
G01X553141Y-5582006D01*
G37*
G36*
G01X516546Y-9118600D02*
G02X516546Y-9093200I0J12700D01*
G01X542454Y-9093200D01*
G02X542454Y-9118600I0J-12700D01*
G01X516546Y-9118600D01*
G37*
G36*
G01X321146Y-5308600D02*
G02X321146Y-5283200I0J12700D01*
G01X347054Y-5283200D01*
G02X347054Y-5308600I0J-12700D01*
G01X321146Y-5308600D01*
G37*
G36*
G01X858540Y-5582006D02*
G02X858540Y-5556606I0J12700D01*
G01X884448Y-5556606D01*
G02X884448Y-5582006I0J-12700D01*
G01X858540Y-5582006D01*
G37*
G36*
G01X516546Y-8610600D02*
G02X516546Y-8585200I0J12700D01*
G01X542454Y-8585200D01*
G02X542454Y-8610600I0J-12700D01*
G01X516546Y-8610600D01*
G37*
G36*
G01X516546Y-8102600D02*
G02X516546Y-8077200I0J12700D01*
G01X542454Y-8077200D01*
G02X542454Y-8102600I0J-12700D01*
G01X516546Y-8102600D01*
G37*
G36*
G01X1381046Y-10764700D02*
G02X1381046Y-10739300I0J12700D01*
G01X1406954Y-10739300D01*
G02X1406954Y-10764700I0J-12700D01*
G01X1381046Y-10764700D01*
G37*
G36*
G01X1666446Y-10764700D02*
G02X1666446Y-10739300I0J12700D01*
G01X1692354Y-10739300D01*
G02X1692354Y-10764700I0J-12700D01*
G01X1666446Y-10764700D01*
G37*
G36*
G01X1691446Y-11074700D02*
G02X1691446Y-11049300I0J12700D01*
G01X1717354Y-11049300D01*
G02X1717354Y-11074700I0J-12700D01*
G01X1691446Y-11074700D01*
G37*
G36*
G01X1851346Y-7848900D02*
G02X1851346Y-7823500I0J12700D01*
G01X1877254Y-7823500D01*
G02X1877254Y-7848900I0J-12700D01*
G01X1851346Y-7848900D01*
G37*
G36*
G01X2186746Y-7848900D02*
G02X2186746Y-7823500I0J12700D01*
G01X2212654Y-7823500D01*
G02X2212654Y-7848900I0J-12700D01*
G01X2186746Y-7848900D01*
G37*
G36*
G01X2854646Y-7848900D02*
G02X2854646Y-7823500I0J12700D01*
G01X2880554Y-7823500D01*
G02X2880554Y-7848900I0J-12700D01*
G01X2854646Y-7848900D01*
G37*
G36*
G01X3190046Y-7848900D02*
G02X3190046Y-7823500I0J12700D01*
G01X3215954Y-7823500D01*
G02X3215954Y-7848900I0J-12700D01*
G01X3190046Y-7848900D01*
G37*
G36*
G01X2703733Y-4888395D02*
G02X2703733Y-4862995I0J12700D01*
G01X2729641Y-4862995D01*
G02X2729641Y-4888395I0J-12700D01*
G01X2703733Y-4888395D01*
G37*
G36*
G01X2909133Y-4888395D02*
G02X2909133Y-4862995I0J12700D01*
G01X2935041Y-4862995D01*
G02X2935041Y-4888395I0J-12700D01*
G01X2909133Y-4888395D01*
G37*
G36*
G01X2449733Y-6338405D02*
G02X2449733Y-6313005I0J12700D01*
G01X2475641Y-6313005D01*
G02X2475641Y-6338405I0J-12700D01*
G01X2449733Y-6338405D01*
G37*
G36*
G01X2655133Y-6338405D02*
G02X2655133Y-6313005I0J12700D01*
G01X2681041Y-6313005D01*
G02X2681041Y-6338405I0J-12700D01*
G01X2655133Y-6338405D01*
G37*
G36*
G01X2359346Y-9334800D02*
G02X2359346Y-9309400I0J12700D01*
G01X2385254Y-9309400D01*
G02X2385254Y-9334800I0J-12700D01*
G01X2359346Y-9334800D01*
G37*
G36*
G01X2694746Y-9334800D02*
G02X2694746Y-9309400I0J12700D01*
G01X2720654Y-9309400D01*
G02X2720654Y-9334800I0J-12700D01*
G01X2694746Y-9334800D01*
G37*
G36*
G01X321146Y-8610600D02*
G02X321146Y-8585200I0J12700D01*
G01X347054Y-8585200D01*
G02X347054Y-8610600I0J-12700D01*
G01X321146Y-8610600D01*
G37*
G36*
G01X321146Y-8102600D02*
G02X321146Y-8077200I0J12700D01*
G01X347054Y-8077200D01*
G02X347054Y-8102600I0J-12700D01*
G01X321146Y-8102600D01*
G37*
G36*
G01X516546Y-5308600D02*
G02X516546Y-5283200I0J12700D01*
G01X542454Y-5283200D01*
G02X542454Y-5308600I0J-12700D01*
G01X516546Y-5308600D01*
G37*
G36*
G01X516546Y-7340600D02*
G02X516546Y-7315200I0J12700D01*
G01X542454Y-7315200D01*
G02X542454Y-7340600I0J-12700D01*
G01X516546Y-7340600D01*
G37*
G36*
G01X516546Y-4546600D02*
G02X516546Y-4521200I0J12700D01*
G01X542454Y-4521200D01*
G02X542454Y-4546600I0J-12700D01*
G01X516546Y-4546600D01*
G37*
G36*
G01X321146Y-7340600D02*
G02X321146Y-7315200I0J12700D01*
G01X347054Y-7315200D01*
G02X347054Y-7340600I0J-12700D01*
G01X321146Y-7340600D01*
G37*
G36*
G01X321146Y-9118600D02*
G02X321146Y-9093200I0J12700D01*
G01X347054Y-9093200D01*
G02X347054Y-9118600I0J-12700D01*
G01X321146Y-9118600D01*
G37*
G36*
G01X321146Y-4546600D02*
G02X321146Y-4521200I0J12700D01*
G01X347054Y-4521200D01*
G02X347054Y-4546600I0J-12700D01*
G01X321146Y-4546600D01*
G37*
G36*
G01X3362646Y-11074700D02*
G02X3362646Y-11049300I0J12700D01*
G01X3388554Y-11049300D01*
G02X3388554Y-11074700I0J-12700D01*
G01X3362646Y-11074700D01*
G37*
G36*
G01X3698046Y-11074700D02*
G02X3698046Y-11049300I0J12700D01*
G01X3723954Y-11049300D01*
G02X3723954Y-11074700I0J-12700D01*
G01X3698046Y-11074700D01*
G37*
G36*
G01X3387646Y-10764700D02*
G02X3387646Y-10739300I0J12700D01*
G01X3413554Y-10739300D01*
G02X3413554Y-10764700I0J-12700D01*
G01X3387646Y-10764700D01*
G37*
G36*
G01X3673046Y-10764700D02*
G02X3673046Y-10739300I0J12700D01*
G01X3698954Y-10739300D01*
G02X3698954Y-10764700I0J-12700D01*
G01X3673046Y-10764700D01*
G37*
G36*
G01X3857946Y-9334800D02*
G02X3857946Y-9309400I0J12700D01*
G01X3883854Y-9309400D01*
G02X3883854Y-9334800I0J-12700D01*
G01X3857946Y-9334800D01*
G37*
G36*
G01X4193346Y-9334800D02*
G02X4193346Y-9309400I0J12700D01*
G01X4219254Y-9309400D01*
G02X4219254Y-9334800I0J-12700D01*
G01X4193346Y-9334800D01*
G37*
G36*
G01X3882946Y-9024800D02*
G02X3882946Y-8999400I0J12700D01*
G01X3908854Y-8999400D01*
G02X3908854Y-9024800I0J-12700D01*
G01X3882946Y-9024800D01*
G37*
G36*
G01X4168346Y-9024800D02*
G02X4168346Y-8999400I0J12700D01*
G01X4194254Y-8999400D01*
G02X4194254Y-9024800I0J-12700D01*
G01X4168346Y-9024800D01*
G37*
G36*
G01X3857946Y-7848900D02*
G02X3857946Y-7823500I0J12700D01*
G01X3883854Y-7823500D01*
G02X3883854Y-7848900I0J-12700D01*
G01X3857946Y-7848900D01*
G37*
G36*
G01X4193346Y-7848900D02*
G02X4193346Y-7823500I0J12700D01*
G01X4219254Y-7823500D01*
G02X4219254Y-7848900I0J-12700D01*
G01X4193346Y-7848900D01*
G37*
G36*
G01X4712543Y-7340600D02*
G02X4712543Y-7315200I0J12700D01*
G01X4738451Y-7315200D01*
G02X4738451Y-7340600I0J-12700D01*
G01X4712543Y-7340600D01*
G37*
G36*
G01X4712543Y-10134600D02*
G02X4712543Y-10109200I0J12700D01*
G01X4738451Y-10109200D01*
G02X4738451Y-10134600I0J-12700D01*
G01X4712543Y-10134600D01*
G37*
G36*
G01X4712543Y-7848600D02*
G02X4712543Y-7823200I0J12700D01*
G01X4738451Y-7823200D01*
G02X4738451Y-7848600I0J-12700D01*
G01X4712543Y-7848600D01*
G37*
G36*
G01X4712543Y-8864600D02*
G02X4712543Y-8839200I0J12700D01*
G01X4738451Y-8839200D01*
G02X4738451Y-8864600I0J-12700D01*
G01X4712543Y-8864600D01*
G37*
G36*
G01X4712543Y-9372600D02*
G02X4712543Y-9347200I0J12700D01*
G01X4738451Y-9347200D01*
G02X4738451Y-9372600I0J-12700D01*
G01X4712543Y-9372600D01*
G37*
G36*
G01X4707546Y-3810000D02*
G02X4707546Y-3784600I0J12700D01*
G01X4733454Y-3784600D01*
G02X4733454Y-3810000I0J-12700D01*
G01X4707546Y-3810000D01*
G37*
G36*
G01X4707546Y-4318000D02*
G02X4707546Y-4292600I0J12700D01*
G01X4733454Y-4292600D01*
G02X4733454Y-4318000I0J-12700D01*
G01X4707546Y-4318000D01*
G37*
G36*
G01X4707546Y-5080000D02*
G02X4707546Y-5054600I0J12700D01*
G01X4733454Y-5054600D01*
G02X4733454Y-5080000I0J-12700D01*
G01X4707546Y-5080000D01*
G37*
G36*
G01X444500Y-7249414D02*
G02X419100Y-7249414I-12700J0D01*
G01X419100Y-7223506D01*
G02X444500Y-7223506I12700J0D01*
G01X444500Y-7249414D01*
G37*
G36*
G01X444500Y-9021154D02*
G02X419100Y-9021154I-12700J0D01*
G01X419100Y-8995246D01*
G02X444500Y-8995246I12700J0D01*
G01X444500Y-9021154D01*
G37*
G36*
G01X4635497Y-7238154D02*
G02X4610097Y-7238154I-12700J0D01*
G01X4610097Y-7212246D01*
G02X4635497Y-7212246I12700J0D01*
G01X4635497Y-7238154D01*
G37*
G36*
G01X4610097Y-7417646D02*
G02X4635497Y-7417646I12700J0D01*
G01X4635497Y-7443554D01*
G02X4610097Y-7443554I-12700J0D01*
G01X4610097Y-7417646D01*
G37*
G36*
G01X4635497Y-10032154D02*
G02X4610097Y-10032154I-12700J0D01*
G01X4610097Y-10006246D01*
G02X4635497Y-10006246I12700J0D01*
G01X4635497Y-10032154D01*
G37*
G36*
G01X4610097Y-10211646D02*
G02X4635497Y-10211646I12700J0D01*
G01X4635497Y-10237554D01*
G02X4610097Y-10237554I-12700J0D01*
G01X4610097Y-10211646D01*
G37*
G36*
G01X4635497Y-7746154D02*
G02X4610097Y-7746154I-12700J0D01*
G01X4610097Y-7720246D01*
G02X4635497Y-7720246I12700J0D01*
G01X4635497Y-7746154D01*
G37*
G36*
G01X4610097Y-7925646D02*
G02X4635497Y-7925646I12700J0D01*
G01X4635497Y-7951554D01*
G02X4610097Y-7951554I-12700J0D01*
G01X4610097Y-7925646D01*
G37*
G36*
G01X4635497Y-8762154D02*
G02X4610097Y-8762154I-12700J0D01*
G01X4610097Y-8736246D01*
G02X4635497Y-8736246I12700J0D01*
G01X4635497Y-8762154D01*
G37*
G36*
G01X4610097Y-8941646D02*
G02X4635497Y-8941646I12700J0D01*
G01X4635497Y-8967554D01*
G02X4610097Y-8967554I-12700J0D01*
G01X4610097Y-8941646D01*
G37*
G36*
G01X4635497Y-9270154D02*
G02X4610097Y-9270154I-12700J0D01*
G01X4610097Y-9244246D01*
G02X4635497Y-9244246I12700J0D01*
G01X4635497Y-9270154D01*
G37*
G36*
G01X4610097Y-9449646D02*
G02X4635497Y-9449646I12700J0D01*
G01X4635497Y-9475554D01*
G02X4610097Y-9475554I-12700J0D01*
G01X4610097Y-9449646D01*
G37*
G36*
G01X2002701Y-5775439D02*
G02X2028101Y-5775439I12700J0D01*
G01X2028101Y-5801347D01*
G02X2002701Y-5801347I-12700J0D01*
G01X2002701Y-5775439D01*
G37*
G36*
G01X3102699Y-5775439D02*
G02X3128099Y-5775439I12700J0D01*
G01X3128099Y-5801347D01*
G02X3102699Y-5801347I-12700J0D01*
G01X3102699Y-5775439D01*
G37*
G36*
G01X3128099Y-5375948D02*
G02X3102699Y-5375948I-12700J0D01*
G01X3102699Y-5350040D01*
G02X3128099Y-5350040I12700J0D01*
G01X3128099Y-5375948D01*
G37*
G36*
G01X2832087Y-4785949D02*
G02X2806687Y-4785949I-12700J0D01*
G01X2806687Y-4760041D01*
G02X2832087Y-4760041I12700J0D01*
G01X2832087Y-4785949D01*
G37*
G36*
G01X2806687Y-4965441D02*
G02X2832087Y-4965441I12700J0D01*
G01X2832087Y-4991349D01*
G02X2806687Y-4991349I-12700J0D01*
G01X2806687Y-4965441D01*
G37*
G36*
G01X2578087Y-6235959D02*
G02X2552687Y-6235959I-12700J0D01*
G01X2552687Y-6210051D01*
G02X2578087Y-6210051I12700J0D01*
G01X2578087Y-6235959D01*
G37*
G36*
G01X2552687Y-6415451D02*
G02X2578087Y-6415451I12700J0D01*
G01X2578087Y-6441359D01*
G02X2552687Y-6441359I-12700J0D01*
G01X2552687Y-6415451D01*
G37*
G36*
G01X731495Y-5469560D02*
G02X706095Y-5469560I-12700J0D01*
G01X706095Y-5443652D01*
G02X731495Y-5443652I12700J0D01*
G01X731495Y-5469560D01*
G37*
G36*
G01X706095Y-5669051D02*
G02X731495Y-5669051I12700J0D01*
G01X731495Y-5694959D01*
G02X706095Y-5694959I-12700J0D01*
G01X706095Y-5669051D01*
G37*
G36*
G01X444500Y-5211154D02*
G02X419100Y-5211154I-12700J0D01*
G01X419100Y-5185246D01*
G02X444500Y-5185246I12700J0D01*
G01X444500Y-5211154D01*
G37*
G36*
G01X419100Y-5380646D02*
G02X444500Y-5380646I12700J0D01*
G01X444500Y-5406554D01*
G02X419100Y-5406554I-12700J0D01*
G01X419100Y-5380646D01*
G37*
G36*
G01X419100Y-7406386D02*
G02X444500Y-7406386I12700J0D01*
G01X444500Y-7432294D01*
G02X419100Y-7432294I-12700J0D01*
G01X419100Y-7406386D01*
G37*
G36*
G01X1041400Y-9217354D02*
G02X1016000Y-9217354I-12700J0D01*
G01X1016000Y-9191446D01*
G02X1041400Y-9191446I12700J0D01*
G01X1041400Y-9217354D01*
G37*
G36*
G01X1016000Y-9426846D02*
G02X1041400Y-9426846I12700J0D01*
G01X1041400Y-9452754D01*
G02X1016000Y-9452754I-12700J0D01*
G01X1016000Y-9426846D01*
G37*
G36*
G01X419100Y-9190646D02*
G02X444500Y-9190646I12700J0D01*
G01X444500Y-9216554D01*
G02X419100Y-9216554I-12700J0D01*
G01X419100Y-9190646D01*
G37*
G36*
G01X444500Y-8513154D02*
G02X419100Y-8513154I-12700J0D01*
G01X419100Y-8487246D01*
G02X444500Y-8487246I12700J0D01*
G01X444500Y-8513154D01*
G37*
G36*
G01X419100Y-8682646D02*
G02X444500Y-8682646I12700J0D01*
G01X444500Y-8708554D01*
G02X419100Y-8708554I-12700J0D01*
G01X419100Y-8682646D01*
G37*
G36*
G01X444500Y-8005154D02*
G02X419100Y-8005154I-12700J0D01*
G01X419100Y-7979246D01*
G02X444500Y-7979246I12700J0D01*
G01X444500Y-8005154D01*
G37*
G36*
G01X419100Y-8174646D02*
G02X444500Y-8174646I12700J0D01*
G01X444500Y-8200554D01*
G02X419100Y-8200554I-12700J0D01*
G01X419100Y-8174646D01*
G37*
G36*
G01X1041400Y-7731454D02*
G02X1016000Y-7731454I-12700J0D01*
G01X1016000Y-7705546D01*
G02X1041400Y-7705546I12700J0D01*
G01X1041400Y-7731454D01*
G37*
G36*
G01X1016000Y-7940946D02*
G02X1041400Y-7940946I12700J0D01*
G01X1041400Y-7966854D01*
G02X1016000Y-7966854I-12700J0D01*
G01X1016000Y-7940946D01*
G37*
G36*
G01X956488Y-4734549D02*
G02X931088Y-4734549I-12700J0D01*
G01X931088Y-4708641D01*
G02X956488Y-4708641I12700J0D01*
G01X956488Y-4734549D01*
G37*
G36*
G01X931088Y-4904040D02*
G02X956488Y-4904040I12700J0D01*
G01X956488Y-4929948D01*
G02X931088Y-4929948I-12700J0D01*
G01X931088Y-4904040D01*
G37*
G36*
G01X444500Y-4449154D02*
G02X419100Y-4449154I-12700J0D01*
G01X419100Y-4423246D01*
G02X444500Y-4423246I12700J0D01*
G01X444500Y-4449154D01*
G37*
G36*
G01X419100Y-4618646D02*
G02X444500Y-4618646I12700J0D01*
G01X444500Y-4644554D01*
G02X419100Y-4644554I-12700J0D01*
G01X419100Y-4618646D01*
G37*
G36*
G01X2028101Y-5375948D02*
G02X2002701Y-5375948I-12700J0D01*
G01X2002701Y-5350040D01*
G02X2028101Y-5350040I12700J0D01*
G01X2028101Y-5375948D01*
G37*
G36*
G01X1681505Y-5469560D02*
G02X1656105Y-5469560I-12700J0D01*
G01X1656105Y-5443652D01*
G02X1681505Y-5443652I12700J0D01*
G01X1681505Y-5469560D01*
G37*
G36*
G01X1656105Y-5669051D02*
G02X1681505Y-5669051I12700J0D01*
G01X1681505Y-5694959D01*
G02X1656105Y-5694959I-12700J0D01*
G01X1656105Y-5669051D01*
G37*
G36*
G01X1549400Y-10622254D02*
G02X1524000Y-10622254I-12700J0D01*
G01X1524000Y-10596346D01*
G02X1549400Y-10596346I12700J0D01*
G01X1549400Y-10622254D01*
G37*
G36*
G01X1524000Y-10881746D02*
G02X1549400Y-10881746I12700J0D01*
G01X1549400Y-10907654D01*
G02X1524000Y-10907654I-12700J0D01*
G01X1524000Y-10881746D01*
G37*
G36*
G01X1549400Y-10957254D02*
G02X1524000Y-10957254I-12700J0D01*
G01X1524000Y-10931346D01*
G02X1549400Y-10931346I12700J0D01*
G01X1549400Y-10957254D01*
G37*
G36*
G01X1524000Y-11166746D02*
G02X1549400Y-11166746I12700J0D01*
G01X1549400Y-11192654D01*
G02X1524000Y-11192654I-12700J0D01*
G01X1524000Y-11166746D01*
G37*
G36*
G01X2044700Y-7731454D02*
G02X2019300Y-7731454I-12700J0D01*
G01X2019300Y-7705546D01*
G02X2044700Y-7705546I12700J0D01*
G01X2044700Y-7731454D01*
G37*
G36*
G01X2019300Y-7940946D02*
G02X2044700Y-7940946I12700J0D01*
G01X2044700Y-7966854D01*
G02X2019300Y-7966854I-12700J0D01*
G01X2019300Y-7940946D01*
G37*
G36*
G01X3048000Y-7731454D02*
G02X3022600Y-7731454I-12700J0D01*
G01X3022600Y-7705546D01*
G02X3048000Y-7705546I12700J0D01*
G01X3048000Y-7731454D01*
G37*
G36*
G01X3022600Y-7940946D02*
G02X3048000Y-7940946I12700J0D01*
G01X3048000Y-7966854D01*
G02X3022600Y-7966854I-12700J0D01*
G01X3022600Y-7940946D01*
G37*
G36*
G01X2552700Y-9217354D02*
G02X2527300Y-9217354I-12700J0D01*
G01X2527300Y-9191446D01*
G02X2552700Y-9191446I12700J0D01*
G01X2552700Y-9217354D01*
G37*
G36*
G01X2527300Y-9426846D02*
G02X2552700Y-9426846I12700J0D01*
G01X2552700Y-9452754D01*
G02X2527300Y-9452754I-12700J0D01*
G01X2527300Y-9426846D01*
G37*
G36*
G01X3556000Y-10957254D02*
G02X3530600Y-10957254I-12700J0D01*
G01X3530600Y-10931346D01*
G02X3556000Y-10931346I12700J0D01*
G01X3556000Y-10957254D01*
G37*
G36*
G01X3530600Y-11166746D02*
G02X3556000Y-11166746I12700J0D01*
G01X3556000Y-11192654D01*
G02X3530600Y-11192654I-12700J0D01*
G01X3530600Y-11166746D01*
G37*
G36*
G01X3556000Y-10622254D02*
G02X3530600Y-10622254I-12700J0D01*
G01X3530600Y-10596346D01*
G02X3556000Y-10596346I12700J0D01*
G01X3556000Y-10622254D01*
G37*
G36*
G01X3530600Y-10881746D02*
G02X3556000Y-10881746I12700J0D01*
G01X3556000Y-10907654D01*
G02X3530600Y-10907654I-12700J0D01*
G01X3530600Y-10881746D01*
G37*
G36*
G01X4051300Y-9217354D02*
G02X4025900Y-9217354I-12700J0D01*
G01X4025900Y-9191446D01*
G02X4051300Y-9191446I12700J0D01*
G01X4051300Y-9217354D01*
G37*
G36*
G01X4025900Y-9426846D02*
G02X4051300Y-9426846I12700J0D01*
G01X4051300Y-9452754D01*
G02X4025900Y-9452754I-12700J0D01*
G01X4025900Y-9426846D01*
G37*
G36*
G01X4051300Y-8882354D02*
G02X4025900Y-8882354I-12700J0D01*
G01X4025900Y-8856446D01*
G02X4051300Y-8856446I12700J0D01*
G01X4051300Y-8882354D01*
G37*
G36*
G01X4025900Y-9141846D02*
G02X4051300Y-9141846I12700J0D01*
G01X4051300Y-9167754D01*
G02X4025900Y-9167754I-12700J0D01*
G01X4025900Y-9141846D01*
G37*
G36*
G01X4051300Y-7731454D02*
G02X4025900Y-7731454I-12700J0D01*
G01X4025900Y-7705546D01*
G02X4051300Y-7705546I12700J0D01*
G01X4051300Y-7731454D01*
G37*
G36*
G01X4025900Y-7940946D02*
G02X4051300Y-7940946I12700J0D01*
G01X4051300Y-7966854D01*
G02X4025900Y-7966854I-12700J0D01*
G01X4025900Y-7940946D01*
G37*
G36*
G01X4635500Y-3712554D02*
G02X4610100Y-3712554I-12700J0D01*
G01X4610100Y-3686646D01*
G02X4635500Y-3686646I12700J0D01*
G01X4635500Y-3712554D01*
G37*
G36*
G01X4610100Y-3882046D02*
G02X4635500Y-3882046I12700J0D01*
G01X4635500Y-3907954D01*
G02X4610100Y-3907954I-12700J0D01*
G01X4610100Y-3882046D01*
G37*
G36*
G01X4635500Y-4220554D02*
G02X4610100Y-4220554I-12700J0D01*
G01X4610100Y-4194646D01*
G02X4635500Y-4194646I12700J0D01*
G01X4635500Y-4220554D01*
G37*
G36*
G01X4610100Y-4390046D02*
G02X4635500Y-4390046I12700J0D01*
G01X4635500Y-4415954D01*
G02X4610100Y-4415954I-12700J0D01*
G01X4610100Y-4390046D01*
G37*
G36*
G01X4635500Y-4982554D02*
G02X4610100Y-4982554I-12700J0D01*
G01X4610100Y-4956646D01*
G02X4635500Y-4956646I12700J0D01*
G01X4635500Y-4982554D01*
G37*
G36*
G01X4610100Y-5152046D02*
G02X4635500Y-5152046I12700J0D01*
G01X4635500Y-5177954D01*
G02X4610100Y-5177954I-12700J0D01*
G01X4610100Y-5152046D01*
G37*
G04 PlaneZone End*

G04 Pad Start*
G54D10*
G01X2032000Y-7526200D03*
G54D11*
G01X2032000Y-7836200D03*
G54D10*
G01X2032000Y-6696200D03*
G01X3035300Y-7526200D03*
G54D11*
G01X3035300Y-7836200D03*
G54D10*
G01X3035300Y-6696200D03*
G01X4038600Y-7526200D03*
G54D11*
G01X4038600Y-7836200D03*
G54D10*
G01X4038600Y-6696200D03*
G01X1028700Y-7526200D03*
G54D11*
G01X1028700Y-7836200D03*
G54D10*
G01X1028700Y-6696200D03*
G01X4038600Y-9012100D03*
G54D11*
G01X4038600Y-9322100D03*
G54D10*
G01X4038600Y-8182100D03*
G01X1028700Y-9012100D03*
G54D11*
G01X1028700Y-9322100D03*
G54D10*
G01X1028700Y-8182100D03*
G01X2540000Y-9012100D03*
G54D11*
G01X2540000Y-9322100D03*
G54D10*
G01X2540000Y-8182100D03*
G01X1536700Y-10752000D03*
G54D11*
G01X1536700Y-11062000D03*
G54D10*
G01X1536700Y-9922000D03*
G01X3543300Y-10752000D03*
G54D11*
G01X3543300Y-11062000D03*
G54D10*
G01X3543300Y-9922000D03*
G54D12*
G01X2311387Y-6325705D03*
G01X2565387Y-6325705D03*
G01X2819387Y-6325705D03*
G01X2311387Y-4875695D03*
G01X2819387Y-4875695D03*
G54D13*
G01X3115399Y-5575694D03*
G01X2015401Y-5575694D03*
G54D12*
G01X4622797Y-7327900D03*
G01X4622797Y-7581900D03*
G01X4622797Y-7835900D03*
G01X4622797Y-8089900D03*
G01X4622797Y-8343900D03*
G01X4622797Y-8597900D03*
G01X4622797Y-8851900D03*
G01X4622797Y-9105900D03*
G01X4622797Y-9359900D03*
G01X4622797Y-9613900D03*
G01X4622797Y-9867900D03*
G01X4622797Y-10121900D03*
G54D14*
G01X4622800Y-5067300D03*
G01X4622800Y-4813300D03*
G01X4622800Y-4559300D03*
G01X4622800Y-4305300D03*
G01X4622800Y-4051300D03*
G01X4622800Y-3797300D03*
G01X4622800Y-3543300D03*
G54D16*
G01X4622800Y-3289300D03*
G54D14*
G01X431800Y-9105900D03*
G01X431800Y-8851900D03*
G01X431800Y-8597900D03*
G01X431800Y-8343900D03*
G01X431800Y-8089900D03*
G01X431800Y-7835900D03*
G01X431800Y-7581900D03*
G54D16*
G01X431800Y-7327900D03*
G54D17*
G01X431800Y-4533900D03*
G54D14*
G01X431800Y-4787900D03*
G01X431800Y-5041900D03*
G01X431800Y-5295900D03*
G01X943788Y-4819294D03*
G01X1193800Y-4819294D03*
G01X1443787Y-4819294D03*
G54D18*
G01X1668805Y-5569306D03*
G01X718795Y-5569306D03*
G04 Pad End*

G04 Via Start*
G54D19*
G01X2311387Y-4649813D03*
G01X4254500Y-4203700D03*
G01X3975100Y-4381500D03*
G01X3797300Y-4660900D03*
G01X3467100Y-4826000D03*
G01X3352800Y-5130800D03*
G01X2997200Y-5270500D03*
G01X2705100Y-5549900D03*
G01X2492156Y-5763579D03*
G01X2324100Y-5943600D03*
G01X2090236Y-6175696D03*
G01X1797632Y-6463200D03*
G01X1828800Y-7137400D03*
G01X1828800Y-7683500D03*
G01X4419600Y-4432300D03*
G01X4191000Y-4635500D03*
G01X3975100Y-4826000D03*
G01X3784600Y-5016500D03*
G01X3619500Y-5181600D03*
G01X3429000Y-5384800D03*
G01X3230400Y-5839209D03*
G01X2971800Y-6121400D03*
G01X2514600Y-6108700D03*
G01X2665742Y-6517505D03*
G01X2133600Y-6451600D03*
G01X2641600Y-9715500D03*
G01X2755900Y-9817100D03*
G01X2362200Y-10375900D03*
G01X2654300Y-10439400D03*
G01X4292600Y-7975600D03*
G01X475260Y-11615140D03*
G01X475260Y-11315140D03*
G01X475260Y-11015140D03*
G01X475260Y-10715140D03*
G01X475260Y-10415140D03*
G01X475260Y-10115141D03*
G01X475260Y-9815141D03*
G01X475260Y-9515141D03*
G01X475260Y-7115141D03*
G01X475260Y-6815142D03*
G01X475260Y-6515142D03*
G01X475260Y-6215142D03*
G01X475260Y-5915142D03*
G01X475260Y-5615142D03*
G01X475260Y-4115142D03*
G01X475260Y-3815142D03*
G01X475260Y-3515143D03*
G01X475260Y-3215143D03*
G01X475260Y-2915143D03*
G01X475260Y-2615143D03*
G01X475260Y-2315143D03*
G01X475260Y-2015143D03*
G01X475260Y-1715143D03*
G01X475260Y-1415143D03*
G01X475260Y-1115143D03*
G01X775260Y-11615140D03*
G01X775260Y-11315140D03*
G01X775260Y-11015140D03*
G01X775260Y-10715140D03*
G01X775260Y-10415140D03*
G01X775260Y-10115141D03*
G01X775260Y-9515141D03*
G01X775260Y-9215141D03*
G01X775260Y-8915141D03*
G01X775260Y-8615141D03*
G01X775260Y-8315141D03*
G01X775260Y-7715141D03*
G01X775260Y-7115141D03*
G01X775260Y-6815142D03*
G01X775260Y-6515142D03*
G01X775260Y-6215142D03*
G01X775260Y-5915142D03*
G01X775260Y-5015142D03*
G01X826060Y-4715142D03*
G01X775260Y-4115142D03*
G01X775260Y-3815142D03*
G01X775260Y-3515143D03*
G01X775260Y-3215143D03*
G01X775260Y-2915143D03*
G01X775260Y-2615143D03*
G01X775260Y-2315143D03*
G01X775260Y-2015143D03*
G01X775260Y-1715143D03*
G01X775260Y-1415143D03*
G01X775260Y-1115143D03*
G01X1075260Y-11615140D03*
G01X1075260Y-11315140D03*
G01X1075260Y-11015140D03*
G01X1075260Y-10715140D03*
G01X1075260Y-10415140D03*
G01X1075260Y-9815141D03*
G01X1075260Y-9515141D03*
G01X1075260Y-8615141D03*
G01X1075260Y-5315142D03*
G01X1075260Y-5015142D03*
G01X1066764Y-4712474D03*
G01X1075260Y-4115142D03*
G01X1075260Y-3815142D03*
G01X1075260Y-3515143D03*
G01X1075260Y-3215143D03*
G01X1075260Y-2915143D03*
G01X1075260Y-2615143D03*
G01X1075260Y-2315143D03*
G01X1075260Y-2015143D03*
G01X1075260Y-1715143D03*
G01X1075260Y-1415143D03*
G01X1075260Y-1115143D03*
G01X1375260Y-11615140D03*
G01X1375260Y-11315140D03*
G01X1387960Y-10115141D03*
G01X1375260Y-9515141D03*
G01X1375260Y-9215141D03*
G01X1375260Y-8915141D03*
G01X1375260Y-8615141D03*
G01X1375260Y-8315141D03*
G01X1375260Y-8015141D03*
G01X1375260Y-7715141D03*
G01X1375260Y-7415141D03*
G01X1375260Y-7115141D03*
G01X1375260Y-6215142D03*
G01X1375260Y-5915142D03*
G01X1121260Y-5653242D03*
G01X1375260Y-5315142D03*
G01X1375260Y-5015142D03*
G01X1375260Y-4115142D03*
G01X1375260Y-3815142D03*
G01X1375260Y-3515143D03*
G01X1375260Y-3215143D03*
G01X1375260Y-2915143D03*
G01X1375260Y-2615143D03*
G01X1375260Y-2315143D03*
G01X1375260Y-2015143D03*
G01X1375260Y-1715143D03*
G01X1375260Y-1415143D03*
G01X1375260Y-1115143D03*
G01X1675260Y-11615140D03*
G01X1675260Y-11315140D03*
G01X1726060Y-10115141D03*
G01X1675260Y-9515141D03*
G01X1675260Y-8915141D03*
G01X1662560Y-5953242D03*
G01X1675260Y-5015142D03*
G01X1675260Y-4715142D03*
G01X1675260Y-4115142D03*
G01X1675260Y-3815142D03*
G01X1675260Y-3515143D03*
G01X1675260Y-3215143D03*
G01X1675260Y-2915143D03*
G01X1675260Y-2615143D03*
G01X1675260Y-2315143D03*
G01X1675260Y-2015143D03*
G01X1675260Y-1715143D03*
G01X1675260Y-1415143D03*
G01X1675260Y-1115143D03*
G01X1975259Y-11615140D03*
G01X1975259Y-11315140D03*
G01X1975259Y-11015140D03*
G01X1975259Y-10715140D03*
G01X1975259Y-10115141D03*
G01X1975259Y-9815141D03*
G01X1975259Y-4715142D03*
G01X1975259Y-4115142D03*
G01X1975259Y-3815142D03*
G01X1975259Y-3515143D03*
G01X1975259Y-3215143D03*
G01X1975259Y-2915143D03*
G01X1975259Y-2615143D03*
G01X1975259Y-2315143D03*
G01X1975259Y-2015143D03*
G01X1975259Y-1715143D03*
G01X1975259Y-1415143D03*
G01X1975259Y-1115143D03*
G01X2275259Y-11615140D03*
G01X2275259Y-11315140D03*
G01X2275259Y-11015140D03*
G01X2275259Y-10715140D03*
G01X2275259Y-9215141D03*
G01X2275259Y-8615141D03*
G01X2275259Y-8315141D03*
G01X2275259Y-8015141D03*
G01X2275259Y-7715141D03*
G01X2275259Y-7415141D03*
G01X2275259Y-6815142D03*
G01X2275259Y-6515142D03*
G01X2275259Y-5315142D03*
G01X2275259Y-4115142D03*
G01X2275259Y-3815142D03*
G01X2275259Y-3515143D03*
G01X2275259Y-3215143D03*
G01X2275259Y-1115143D03*
G01X2575259Y-11615140D03*
G01X2575259Y-11315140D03*
G01X2575259Y-11015140D03*
G01X2575259Y-10715140D03*
G01X2575259Y-10115141D03*
G01X2575259Y-7715141D03*
G01X2575259Y-7415141D03*
G01X2575259Y-7115141D03*
G01X2575259Y-6515142D03*
G01X2575259Y-5015142D03*
G01X2575259Y-4115142D03*
G01X2575259Y-3815142D03*
G01X2575259Y-3515143D03*
G01X2575259Y-3215143D03*
G01X2575259Y-1115143D03*
G01X2875259Y-11615140D03*
G01X2875259Y-11315140D03*
G01X2875259Y-11015140D03*
G01X2875259Y-10715140D03*
G01X2875259Y-9815141D03*
G01X2875259Y-9215141D03*
G01X2875259Y-8915141D03*
G01X2875259Y-8615141D03*
G01X2875259Y-7115141D03*
G01X2875259Y-5915142D03*
G01X2875259Y-4715142D03*
G01X2875259Y-4115142D03*
G01X2875259Y-3815142D03*
G01X2875259Y-3515143D03*
G01X2875259Y-3215143D03*
G01X2875259Y-1115143D03*
G01X3175259Y-11615140D03*
G01X3175259Y-11315140D03*
G01X3175259Y-11015140D03*
G01X3175259Y-10715140D03*
G01X3175259Y-9815141D03*
G01X3175259Y-7115141D03*
G01X3175259Y-6515142D03*
G01X3175259Y-6215142D03*
G01X3175259Y-5915142D03*
G01X3175259Y-4115142D03*
G01X3175259Y-3815142D03*
G01X3175259Y-3515143D03*
G01X3175259Y-3215143D03*
G01X3175259Y-2915143D03*
G01X3175259Y-2615143D03*
G01X3175259Y-2315143D03*
G01X3175259Y-2015143D03*
G01X3175259Y-1715143D03*
G01X3175259Y-1415143D03*
G01X3175259Y-1115143D03*
G01X3475259Y-11615140D03*
G01X3475259Y-11315140D03*
G01X3475259Y-8915141D03*
G01X3475259Y-7715141D03*
G01X3475259Y-7115141D03*
G01X3475259Y-6815142D03*
G01X3475259Y-6215142D03*
G01X3475259Y-5915142D03*
G01X3475259Y-5615142D03*
G01X3475259Y-5315142D03*
G01X3475259Y-5015142D03*
G01X3475259Y-4115142D03*
G01X3475259Y-3815142D03*
G01X3475259Y-3515143D03*
G01X3475259Y-3215143D03*
G01X3475259Y-2915143D03*
G01X3475259Y-2615143D03*
G01X3475259Y-2315143D03*
G01X3475259Y-2015143D03*
G01X3475259Y-1715143D03*
G01X3475259Y-1415143D03*
G01X3475259Y-1115143D03*
G01X3775259Y-11615140D03*
G01X3775259Y-11315140D03*
G01X3775259Y-11015140D03*
G01X3775259Y-10715140D03*
G01X3775259Y-8315141D03*
G01X3775259Y-7715141D03*
G01X3775259Y-7415141D03*
G01X3775259Y-7115141D03*
G01X3775259Y-6815142D03*
G01X3775259Y-6515142D03*
G01X3775259Y-5915142D03*
G01X3775259Y-5615142D03*
G01X3775259Y-5315142D03*
G01X3775259Y-3815142D03*
G01X3775259Y-3515143D03*
G01X3775259Y-3215143D03*
G01X3775259Y-2915143D03*
G01X3775259Y-2615143D03*
G01X3775259Y-2315143D03*
G01X3775259Y-2015143D03*
G01X3775259Y-1715143D03*
G01X3775259Y-1415143D03*
G01X3775259Y-1115143D03*
G01X4075259Y-11615140D03*
G01X4075259Y-11315140D03*
G01X4075259Y-11015140D03*
G01X4075259Y-10715140D03*
G01X4075259Y-10415140D03*
G01X4075259Y-10115141D03*
G01X4075259Y-7115141D03*
G01X4075259Y-4415142D03*
G01X4075259Y-3515143D03*
G01X4075259Y-3215143D03*
G01X4075259Y-2915143D03*
G01X4075259Y-2615143D03*
G01X4075259Y-2315143D03*
G01X4075259Y-2015143D03*
G01X4075259Y-1715143D03*
G01X4075259Y-1415143D03*
G01X4075259Y-1115143D03*
G01X4375259Y-11615140D03*
G01X4375259Y-11315140D03*
G01X4375259Y-11015140D03*
G01X4375259Y-10715140D03*
G01X4375259Y-10115141D03*
G01X4375259Y-8315141D03*
G01X4375259Y-7715141D03*
G01X4375259Y-7415141D03*
G01X4375259Y-6815142D03*
G01X4375259Y-6515142D03*
G01X4375259Y-6215142D03*
G01X4375259Y-5915142D03*
G01X4375259Y-5615142D03*
G01X4375259Y-5315142D03*
G01X4375259Y-5015142D03*
G01X4375259Y-4715142D03*
G01X4375259Y-3815142D03*
G01X4375259Y-3215143D03*
G01X4375259Y-2915143D03*
G01X4375259Y-2615143D03*
G01X4375259Y-2315143D03*
G01X4375259Y-2015143D03*
G01X4375259Y-1715143D03*
G01X4375259Y-1415143D03*
G01X4375259Y-1115143D03*
G01X4675259Y-11615140D03*
G01X4675259Y-11315140D03*
G01X4675259Y-7115141D03*
G01X4675259Y-2915143D03*
G01X4675259Y-2615143D03*
G01X4675259Y-2315143D03*
G01X4675259Y-2015143D03*
G01X4675259Y-1715143D03*
G01X4675259Y-1415143D03*
G01X4675259Y-1115143D03*
G01X1362814Y-11015140D03*
G01X1362814Y-10715140D03*
G01X1362814Y-9815141D03*
G01X1962813Y-8915141D03*
G01X1962813Y-5315142D03*
G01X2862813Y-8015141D03*
G01X2862813Y-7715141D03*
G01X3162813Y-9215141D03*
G01X3162813Y-8915141D03*
G01X3762813Y-6215142D03*
G01X3762813Y-4715142D03*
G01X4062813Y-9815141D03*
G01X4362813Y-4115142D03*
G01X4445000Y-9728200D03*
G01X4508500Y-9486900D03*
G01X3657600Y-9182100D03*
G01X3454400Y-9359900D03*
G01X2870200Y-9398000D03*
G01X3644900Y-8648700D03*
G01X2946400Y-10020300D03*
G01X2946400Y-10361604D03*
G01X1536700Y-10350500D03*
G01X1828800Y-5867400D03*
G01X812800Y-4521200D03*
G01X1422400Y-4559300D03*
G01X1574800Y-6515100D03*
G01X1346200Y-6705600D03*
G01X2006600Y-6934200D03*
G01X1727200Y-5365765D03*
G01X1828800Y-5740400D03*
G04 Via End*

M02*

