G04 Layer: BottomSilkscreenLayer*
G04 EasyEDA Pro v2.2.47.7, 2026-04-30 22:47:58*
G04 Gerber Generator version 0.3*
G04 Scale: 100 percent, Rotated: No, Reflected: No*
G04 Dimensions in millimeters*
G04 Leading zeros omitted, absolute positions, 4 integers and 5 decimals*
G04 Generated by one-click*
G04 Object Configs: Pad,Via,Track,Text,Image,Dimension,BoardOutline,BoardCutout,CopperFilled,SolidRegion,FPCStiffener,Line,PlaneZone,ComponentProperty,ComponentSilkscreen,TearDrop*
G04 Layer Configs: 1,15,16,2,3,4,5,6,7,8,9,10,11,13,14,71,72,56*
G04 Copper Areas: 0*
%FSLAX45Y45*%
%MOMM*%
%ADD10C,0.1524*%
%ADD11C,0.254*%
%ADD12C,0.3*%
%ADD13C,0.3968*%
G75*


G04 Text Start*
G54D10*
G01X2936240Y-10804398D02*
G01X2942590Y-10807446D01*
G01X2948686Y-10813796D01*
G01X2951734Y-10819892D01*
G01X2951734Y-10832338D01*
G01X2948686Y-10838434D01*
G01X2942590Y-10844784D01*
G01X2936240Y-10847832D01*
G01X2927096Y-10850880D01*
G01X2911602Y-10850880D01*
G01X2902204Y-10847832D01*
G01X2896108Y-10844784D01*
G01X2889758Y-10838434D01*
G01X2886710Y-10832338D01*
G01X2886710Y-10819892D01*
G01X2889758Y-10813796D01*
G01X2896108Y-10807446D01*
G01X2902204Y-10804398D01*
G01X2951734Y-10743438D02*
G01X2908554Y-10774172D01*
G01X2908554Y-10727944D01*
G01X2951734Y-10743438D02*
G01X2886710Y-10743438D01*
G01X2951734Y-10679176D02*
G01X2948686Y-10688574D01*
G01X2939288Y-10694670D01*
G01X2924048Y-10697718D01*
G01X2914650Y-10697718D01*
G01X2899156Y-10694670D01*
G01X2889758Y-10688574D01*
G01X2886710Y-10679176D01*
G01X2886710Y-10673080D01*
G01X2889758Y-10663682D01*
G01X2899156Y-10657586D01*
G01X2914650Y-10654538D01*
G01X2924048Y-10654538D01*
G01X2939288Y-10657586D01*
G01X2948686Y-10663682D01*
G01X2951734Y-10673080D01*
G01X2951734Y-10679176D01*
G01X2098040Y-9674098D02*
G01X2104390Y-9677146D01*
G01X2110486Y-9683496D01*
G01X2113534Y-9689592D01*
G01X2113534Y-9702038D01*
G01X2110486Y-9708134D01*
G01X2104390Y-9714484D01*
G01X2098040Y-9717532D01*
G01X2088896Y-9720580D01*
G01X2073402Y-9720580D01*
G01X2064004Y-9717532D01*
G01X2057908Y-9714484D01*
G01X2051558Y-9708134D01*
G01X2048510Y-9702038D01*
G01X2048510Y-9689592D01*
G01X2051558Y-9683496D01*
G01X2057908Y-9677146D01*
G01X2064004Y-9674098D01*
G01X2113534Y-9613138D02*
G01X2070354Y-9643872D01*
G01X2070354Y-9597644D01*
G01X2113534Y-9613138D02*
G01X2048510Y-9613138D01*
G01X2101088Y-9567418D02*
G01X2104390Y-9561322D01*
G01X2113534Y-9552178D01*
G01X2048510Y-9552178D01*
G01X3832337Y-6135787D02*
G01X3897361Y-6135787D01*
G01X3832337Y-6135787D02*
G01X3832337Y-6163727D01*
G01X3835385Y-6172871D01*
G01X3838433Y-6175919D01*
G01X3844783Y-6179221D01*
G01X3850879Y-6179221D01*
G01X3856975Y-6175919D01*
G01X3860023Y-6172871D01*
G01X3863325Y-6163727D01*
G01X3863325Y-6135787D01*
G01X3863325Y-6157377D02*
G01X3897361Y-6179221D01*
G01X3844783Y-6209447D02*
G01X3841481Y-6215543D01*
G01X3832337Y-6224687D01*
G01X3897361Y-6224687D01*
G01X3832337Y-6291997D02*
G01X3832337Y-6261009D01*
G01X3860023Y-6257961D01*
G01X3856975Y-6261009D01*
G01X3853927Y-6270153D01*
G01X3853927Y-6279551D01*
G01X3856975Y-6288949D01*
G01X3863325Y-6295045D01*
G01X3872469Y-6298093D01*
G01X3878819Y-6298093D01*
G01X3887963Y-6295045D01*
G01X3894313Y-6288949D01*
G01X3897361Y-6279551D01*
G01X3897361Y-6270153D01*
G01X3894313Y-6261009D01*
G01X3891011Y-6257961D01*
G01X3884915Y-6254913D01*
G01X822437Y-6034187D02*
G01X887461Y-6034187D01*
G01X822437Y-6034187D02*
G01X822437Y-6062127D01*
G01X825485Y-6071271D01*
G01X828533Y-6074319D01*
G01X834883Y-6077621D01*
G01X840979Y-6077621D01*
G01X847075Y-6074319D01*
G01X850123Y-6071271D01*
G01X853425Y-6062127D01*
G01X853425Y-6034187D01*
G01X853425Y-6055777D02*
G01X887461Y-6077621D01*
G01X834883Y-6107847D02*
G01X831581Y-6113943D01*
G01X822437Y-6123087D01*
G01X887461Y-6123087D01*
G01X831581Y-6190397D02*
G01X825485Y-6187349D01*
G01X822437Y-6177951D01*
G01X822437Y-6171855D01*
G01X825485Y-6162457D01*
G01X834883Y-6156361D01*
G01X850123Y-6153313D01*
G01X865617Y-6153313D01*
G01X878063Y-6156361D01*
G01X884413Y-6162457D01*
G01X887461Y-6171855D01*
G01X887461Y-6174903D01*
G01X884413Y-6184047D01*
G01X878063Y-6190397D01*
G01X868919Y-6193445D01*
G01X865617Y-6193445D01*
G01X856473Y-6190397D01*
G01X850123Y-6184047D01*
G01X847075Y-6174903D01*
G01X847075Y-6171855D01*
G01X850123Y-6162457D01*
G01X856473Y-6156361D01*
G01X865617Y-6153313D01*
G01X4399280Y-8452866D02*
G01X4399280Y-8517890D01*
G01X4399280Y-8452866D02*
G01X4371340Y-8452866D01*
G01X4362196Y-8455914D01*
G01X4359148Y-8458962D01*
G01X4355846Y-8465312D01*
G01X4355846Y-8471408D01*
G01X4359148Y-8477504D01*
G01X4362196Y-8480552D01*
G01X4371340Y-8483854D01*
G01X4399280Y-8483854D01*
G01X4377690Y-8483854D02*
G01X4355846Y-8517890D01*
G01X4322572Y-8468360D02*
G01X4322572Y-8465312D01*
G01X4319524Y-8458962D01*
G01X4316476Y-8455914D01*
G01X4310380Y-8452866D01*
G01X4297934Y-8452866D01*
G01X4291584Y-8455914D01*
G01X4288536Y-8458962D01*
G01X4285488Y-8465312D01*
G01X4285488Y-8471408D01*
G01X4288536Y-8477504D01*
G01X4294886Y-8486902D01*
G01X4325620Y-8517890D01*
G01X4282440Y-8517890D01*
G01X4215130Y-8452866D02*
G01X4246118Y-8452866D01*
G01X4249166Y-8480552D01*
G01X4246118Y-8477504D01*
G01X4236974Y-8474456D01*
G01X4227576Y-8474456D01*
G01X4218178Y-8477504D01*
G01X4212082Y-8483854D01*
G01X4209034Y-8492998D01*
G01X4209034Y-8499348D01*
G01X4212082Y-8508492D01*
G01X4218178Y-8514842D01*
G01X4227576Y-8517890D01*
G01X4236974Y-8517890D01*
G01X4246118Y-8514842D01*
G01X4249166Y-8511540D01*
G01X4252214Y-8505444D01*
G01X4399280Y-8681466D02*
G01X4399280Y-8746490D01*
G01X4399280Y-8681466D02*
G01X4371340Y-8681466D01*
G01X4362196Y-8684514D01*
G01X4359148Y-8687562D01*
G01X4355846Y-8693912D01*
G01X4355846Y-8700008D01*
G01X4359148Y-8706104D01*
G01X4362196Y-8709152D01*
G01X4371340Y-8712454D01*
G01X4399280Y-8712454D01*
G01X4377690Y-8712454D02*
G01X4355846Y-8746490D01*
G01X4322572Y-8696960D02*
G01X4322572Y-8693912D01*
G01X4319524Y-8687562D01*
G01X4316476Y-8684514D01*
G01X4310380Y-8681466D01*
G01X4297934Y-8681466D01*
G01X4291584Y-8684514D01*
G01X4288536Y-8687562D01*
G01X4285488Y-8693912D01*
G01X4285488Y-8700008D01*
G01X4288536Y-8706104D01*
G01X4294886Y-8715502D01*
G01X4325620Y-8746490D01*
G01X4282440Y-8746490D01*
G01X4209034Y-8681466D02*
G01X4240022Y-8746490D01*
G01X4252214Y-8681466D02*
G01X4209034Y-8681466D01*
G01X2507234Y-10660380D02*
G01X2460752Y-10660380D01*
G01X2451608Y-10657332D01*
G01X2445258Y-10650982D01*
G01X2442210Y-10641838D01*
G01X2442210Y-10635488D01*
G01X2445258Y-10626344D01*
G01X2451608Y-10620248D01*
G01X2460752Y-10616946D01*
G01X2507234Y-10616946D01*
G01X2491740Y-10583672D02*
G01X2494788Y-10583672D01*
G01X2501138Y-10580624D01*
G01X2504186Y-10577576D01*
G01X2507234Y-10571480D01*
G01X2507234Y-10559034D01*
G01X2504186Y-10552684D01*
G01X2501138Y-10549636D01*
G01X2494788Y-10546588D01*
G01X2488692Y-10546588D01*
G01X2482596Y-10549636D01*
G01X2473198Y-10555986D01*
G01X2442210Y-10586720D01*
G01X2442210Y-10543540D01*
G01X2507234Y-10507218D02*
G01X2507234Y-10473182D01*
G01X2482596Y-10491724D01*
G01X2482596Y-10482580D01*
G01X2479548Y-10476230D01*
G01X2476246Y-10473182D01*
G01X2467102Y-10470134D01*
G01X2460752Y-10470134D01*
G01X2451608Y-10473182D01*
G01X2445258Y-10479278D01*
G01X2442210Y-10488676D01*
G01X2442210Y-10498074D01*
G01X2445258Y-10507218D01*
G01X2448560Y-10510266D01*
G01X2454656Y-10513314D01*
G01X2689860Y-9591802D02*
G01X2683510Y-9588754D01*
G01X2677414Y-9582404D01*
G01X2674366Y-9576308D01*
G01X2674366Y-9563862D01*
G01X2677414Y-9557766D01*
G01X2683510Y-9551416D01*
G01X2689860Y-9548368D01*
G01X2699004Y-9545320D01*
G01X2714498Y-9545320D01*
G01X2723896Y-9548368D01*
G01X2729992Y-9551416D01*
G01X2736342Y-9557766D01*
G01X2739390Y-9563862D01*
G01X2739390Y-9576308D01*
G01X2736342Y-9582404D01*
G01X2729992Y-9588754D01*
G01X2723896Y-9591802D01*
G01X2674366Y-9652762D02*
G01X2717546Y-9622028D01*
G01X2717546Y-9668256D01*
G01X2674366Y-9652762D02*
G01X2739390Y-9652762D01*
G01X2689860Y-9701530D02*
G01X2686812Y-9701530D01*
G01X2680462Y-9704578D01*
G01X2677414Y-9707626D01*
G01X2674366Y-9713722D01*
G01X2674366Y-9726168D01*
G01X2677414Y-9732518D01*
G01X2680462Y-9735566D01*
G01X2686812Y-9738614D01*
G01X2692908Y-9738614D01*
G01X2699004Y-9735566D01*
G01X2708402Y-9729216D01*
G01X2739390Y-9698482D01*
G01X2739390Y-9741662D01*
G01X1800098Y-6207760D02*
G01X1803146Y-6201410D01*
G01X1809496Y-6195314D01*
G01X1815592Y-6192266D01*
G01X1828038Y-6192266D01*
G01X1834134Y-6195314D01*
G01X1840484Y-6201410D01*
G01X1843532Y-6207760D01*
G01X1846580Y-6216904D01*
G01X1846580Y-6232398D01*
G01X1843532Y-6241796D01*
G01X1840484Y-6247892D01*
G01X1834134Y-6254242D01*
G01X1828038Y-6257290D01*
G01X1815592Y-6257290D01*
G01X1809496Y-6254242D01*
G01X1803146Y-6247892D01*
G01X1800098Y-6241796D01*
G01X1739138Y-6192266D02*
G01X1769872Y-6235446D01*
G01X1723644Y-6235446D01*
G01X1739138Y-6192266D02*
G01X1739138Y-6257290D01*
G01X1662684Y-6192266D02*
G01X1693418Y-6235446D01*
G01X1647190Y-6235446D01*
G01X1662684Y-6192266D02*
G01X1662684Y-6257290D01*
G01X2263122Y-4837620D02*
G01X2260074Y-4843970D01*
G01X2253724Y-4850066D01*
G01X2247628Y-4853114D01*
G01X2235182Y-4853114D01*
G01X2229086Y-4850066D01*
G01X2222736Y-4843970D01*
G01X2219688Y-4837620D01*
G01X2216640Y-4828476D01*
G01X2216640Y-4812982D01*
G01X2219688Y-4803584D01*
G01X2222736Y-4797488D01*
G01X2229086Y-4791138D01*
G01X2235182Y-4788090D01*
G01X2247628Y-4788090D01*
G01X2253724Y-4791138D01*
G01X2260074Y-4797488D01*
G01X2263122Y-4803584D01*
G01X2324082Y-4853114D02*
G01X2293348Y-4809934D01*
G01X2339576Y-4809934D01*
G01X2324082Y-4853114D02*
G01X2324082Y-4788090D01*
G01X2375898Y-4853114D02*
G01X2409934Y-4853114D01*
G01X2391392Y-4828476D01*
G01X2400536Y-4828476D01*
G01X2406886Y-4825428D01*
G01X2409934Y-4822126D01*
G01X2412982Y-4812982D01*
G01X2412982Y-4806632D01*
G01X2409934Y-4797488D01*
G01X2403838Y-4791138D01*
G01X2394440Y-4788090D01*
G01X2385042Y-4788090D01*
G01X2375898Y-4791138D01*
G01X2372850Y-4794440D01*
G01X2369802Y-4800536D01*
G01X3362198Y-6131560D02*
G01X3365246Y-6125210D01*
G01X3371596Y-6119114D01*
G01X3377692Y-6116066D01*
G01X3390138Y-6116066D01*
G01X3396234Y-6119114D01*
G01X3402584Y-6125210D01*
G01X3405632Y-6131560D01*
G01X3408680Y-6140704D01*
G01X3408680Y-6156198D01*
G01X3405632Y-6165596D01*
G01X3402584Y-6171692D01*
G01X3396234Y-6178042D01*
G01X3390138Y-6181090D01*
G01X3377692Y-6181090D01*
G01X3371596Y-6178042D01*
G01X3365246Y-6171692D01*
G01X3362198Y-6165596D01*
G01X3301238Y-6116066D02*
G01X3331972Y-6159246D01*
G01X3285744Y-6159246D01*
G01X3301238Y-6116066D02*
G01X3301238Y-6181090D01*
G01X3218434Y-6116066D02*
G01X3249422Y-6116066D01*
G01X3252470Y-6143752D01*
G01X3249422Y-6140704D01*
G01X3240278Y-6137656D01*
G01X3230880Y-6137656D01*
G01X3221482Y-6140704D01*
G01X3215386Y-6147054D01*
G01X3212338Y-6156198D01*
G01X3212338Y-6162548D01*
G01X3215386Y-6171692D01*
G01X3221482Y-6178042D01*
G01X3230880Y-6181090D01*
G01X3240278Y-6181090D01*
G01X3249422Y-6178042D01*
G01X3252470Y-6174740D01*
G01X3255518Y-6168644D01*
G01X1463563Y-10285313D02*
G01X1398539Y-10285313D01*
G01X1463563Y-10285313D02*
G01X1463563Y-10257373D01*
G01X1460515Y-10248229D01*
G01X1457467Y-10245181D01*
G01X1451117Y-10241879D01*
G01X1445021Y-10241879D01*
G01X1438925Y-10245181D01*
G01X1435877Y-10248229D01*
G01X1432575Y-10257373D01*
G01X1432575Y-10285313D01*
G01X1432575Y-10263723D02*
G01X1398539Y-10241879D01*
G01X1448069Y-10208605D02*
G01X1451117Y-10208605D01*
G01X1457467Y-10205557D01*
G01X1460515Y-10202509D01*
G01X1463563Y-10196413D01*
G01X1463563Y-10183967D01*
G01X1460515Y-10177617D01*
G01X1457467Y-10174569D01*
G01X1451117Y-10171521D01*
G01X1445021Y-10171521D01*
G01X1438925Y-10174569D01*
G01X1429527Y-10180919D01*
G01X1398539Y-10211653D01*
G01X1398539Y-10168473D01*
G01X1463563Y-10107513D02*
G01X1420383Y-10138247D01*
G01X1420383Y-10092019D01*
G01X1463563Y-10107513D02*
G01X1398539Y-10107513D01*
G01X3322066Y-10234320D02*
G01X3387090Y-10234320D01*
G01X3322066Y-10234320D02*
G01X3322066Y-10262260D01*
G01X3325114Y-10271404D01*
G01X3328162Y-10274452D01*
G01X3334512Y-10277754D01*
G01X3340608Y-10277754D01*
G01X3346704Y-10274452D01*
G01X3349752Y-10271404D01*
G01X3353054Y-10262260D01*
G01X3353054Y-10234320D01*
G01X3353054Y-10255910D02*
G01X3387090Y-10277754D01*
G01X3337560Y-10311028D02*
G01X3334512Y-10311028D01*
G01X3328162Y-10314076D01*
G01X3325114Y-10317124D01*
G01X3322066Y-10323220D01*
G01X3322066Y-10335666D01*
G01X3325114Y-10342016D01*
G01X3328162Y-10345064D01*
G01X3334512Y-10348112D01*
G01X3340608Y-10348112D01*
G01X3346704Y-10345064D01*
G01X3356102Y-10338714D01*
G01X3387090Y-10307980D01*
G01X3387090Y-10351160D01*
G01X3322066Y-10396626D02*
G01X3325114Y-10387482D01*
G01X3331210Y-10384434D01*
G01X3337560Y-10384434D01*
G01X3343656Y-10387482D01*
G01X3346704Y-10393578D01*
G01X3349752Y-10406024D01*
G01X3353054Y-10415422D01*
G01X3359150Y-10421518D01*
G01X3365246Y-10424566D01*
G01X3374644Y-10424566D01*
G01X3380740Y-10421518D01*
G01X3384042Y-10418470D01*
G01X3387090Y-10409072D01*
G01X3387090Y-10396626D01*
G01X3384042Y-10387482D01*
G01X3380740Y-10384434D01*
G01X3374644Y-10381386D01*
G01X3365246Y-10381386D01*
G01X3359150Y-10384434D01*
G01X3353054Y-10390530D01*
G01X3349752Y-10399928D01*
G01X3346704Y-10412120D01*
G01X3343656Y-10418470D01*
G01X3337560Y-10421518D01*
G01X3331210Y-10421518D01*
G01X3325114Y-10418470D01*
G01X3322066Y-10409072D01*
G01X3322066Y-10396626D01*
G01X2062480Y-10548366D02*
G01X2062480Y-10613390D01*
G01X2062480Y-10548366D02*
G01X2034540Y-10548366D01*
G01X2025396Y-10551414D01*
G01X2022348Y-10554462D01*
G01X2019046Y-10560812D01*
G01X2019046Y-10566908D01*
G01X2022348Y-10573004D01*
G01X2025396Y-10576052D01*
G01X2034540Y-10579354D01*
G01X2062480Y-10579354D01*
G01X2040890Y-10579354D02*
G01X2019046Y-10613390D01*
G01X1982724Y-10548366D02*
G01X1948688Y-10548366D01*
G01X1967230Y-10573004D01*
G01X1958086Y-10573004D01*
G01X1951736Y-10576052D01*
G01X1948688Y-10579354D01*
G01X1945640Y-10588498D01*
G01X1945640Y-10594848D01*
G01X1948688Y-10603992D01*
G01X1954784Y-10610342D01*
G01X1964182Y-10613390D01*
G01X1973580Y-10613390D01*
G01X1982724Y-10610342D01*
G01X1985772Y-10607040D01*
G01X1988820Y-10600944D01*
G01X1915414Y-10560812D02*
G01X1909318Y-10557510D01*
G01X1900174Y-10548366D01*
G01X1900174Y-10613390D01*
G01X3055620Y-10114534D02*
G01X3055620Y-10049510D01*
G01X3055620Y-10114534D02*
G01X3083560Y-10114534D01*
G01X3092704Y-10111486D01*
G01X3095752Y-10108438D01*
G01X3099054Y-10102088D01*
G01X3099054Y-10095992D01*
G01X3095752Y-10089896D01*
G01X3092704Y-10086848D01*
G01X3083560Y-10083546D01*
G01X3055620Y-10083546D01*
G01X3077210Y-10083546D02*
G01X3099054Y-10049510D01*
G01X3135376Y-10114534D02*
G01X3169412Y-10114534D01*
G01X3150870Y-10089896D01*
G01X3160014Y-10089896D01*
G01X3166364Y-10086848D01*
G01X3169412Y-10083546D01*
G01X3172460Y-10074402D01*
G01X3172460Y-10068052D01*
G01X3169412Y-10058908D01*
G01X3163316Y-10052558D01*
G01X3153918Y-10049510D01*
G01X3144520Y-10049510D01*
G01X3135376Y-10052558D01*
G01X3132328Y-10055860D01*
G01X3129280Y-10061956D01*
G01X3205734Y-10099040D02*
G01X3205734Y-10102088D01*
G01X3208782Y-10108438D01*
G01X3211830Y-10111486D01*
G01X3217926Y-10114534D01*
G01X3230372Y-10114534D01*
G01X3236722Y-10111486D01*
G01X3239770Y-10108438D01*
G01X3242818Y-10102088D01*
G01X3242818Y-10095992D01*
G01X3239770Y-10089896D01*
G01X3233420Y-10080498D01*
G01X3202686Y-10049510D01*
G01X3245866Y-10049510D01*
G01X4378165Y-7195823D02*
G01X4443189Y-7195823D01*
G01X4378165Y-7239257D02*
G01X4443189Y-7239257D01*
G01X4409153Y-7195823D02*
G01X4409153Y-7239257D01*
G01X4399755Y-7309615D02*
G01X4409153Y-7306567D01*
G01X4415249Y-7300217D01*
G01X4418297Y-7291073D01*
G01X4418297Y-7288025D01*
G01X4415249Y-7278627D01*
G01X4409153Y-7272531D01*
G01X4399755Y-7269483D01*
G01X4396707Y-7269483D01*
G01X4387309Y-7272531D01*
G01X4381213Y-7278627D01*
G01X4378165Y-7288025D01*
G01X4378165Y-7291073D01*
G01X4381213Y-7300217D01*
G01X4387309Y-7306567D01*
G01X4399755Y-7309615D01*
G01X4415249Y-7309615D01*
G01X4430743Y-7306567D01*
G01X4440141Y-7300217D01*
G01X4443189Y-7291073D01*
G01X4443189Y-7284723D01*
G01X4440141Y-7275579D01*
G01X4433791Y-7272531D01*
G01X4376166Y-3157223D02*
G01X4441190Y-3157223D01*
G01X4376166Y-3200657D02*
G01X4441190Y-3200657D01*
G01X4407154Y-3157223D02*
G01X4407154Y-3200657D01*
G01X4376166Y-3236979D02*
G01X4376166Y-3271015D01*
G01X4400804Y-3252473D01*
G01X4400804Y-3261617D01*
G01X4403852Y-3267967D01*
G01X4407154Y-3271015D01*
G01X4416298Y-3274063D01*
G01X4422648Y-3274063D01*
G01X4431792Y-3271015D01*
G01X4438142Y-3264919D01*
G01X4441190Y-3255521D01*
G01X4441190Y-3246123D01*
G01X4438142Y-3236979D01*
G01X4434840Y-3233931D01*
G01X4428744Y-3230883D01*
G01X185166Y-7195823D02*
G01X250190Y-7195823D01*
G01X185166Y-7239257D02*
G01X250190Y-7239257D01*
G01X216154Y-7195823D02*
G01X216154Y-7239257D01*
G01X185166Y-7300217D02*
G01X228346Y-7269483D01*
G01X228346Y-7315711D01*
G01X185166Y-7300217D02*
G01X250190Y-7300217D01*
G01X187706Y-4404360D02*
G01X252730Y-4404360D01*
G01X187706Y-4447794D02*
G01X252730Y-4447794D01*
G01X218694Y-4404360D02*
G01X218694Y-4447794D01*
G01X203200Y-4481068D02*
G01X200152Y-4481068D01*
G01X193802Y-4484116D01*
G01X190754Y-4487164D01*
G01X187706Y-4493260D01*
G01X187706Y-4505706D01*
G01X190754Y-4512056D01*
G01X193802Y-4515104D01*
G01X200152Y-4518152D01*
G01X206248Y-4518152D01*
G01X212344Y-4515104D01*
G01X221742Y-4508754D01*
G01X252730Y-4478020D01*
G01X252730Y-4521200D01*
G04 Text End*

G04 PolygonModel Start*
G01X2652840Y-10823720D02*
G01X2652840Y-10682719D01*
G01X2833561Y-10682719D02*
G01X2833561Y-10823720D01*
G01X2818321Y-10838960D02*
G01X2668080Y-10838960D01*
G01X2652840Y-10461480D02*
G01X2652840Y-10602481D01*
G01X2833561Y-10602481D02*
G01X2833561Y-10461480D01*
G01X2818321Y-10446240D02*
G01X2668080Y-10446240D01*
G01X2833561Y-10823720D02*
G02X2818321Y-10838960I-15240J0D01*
G01X2668080Y-10838960D02*
G02X2652840Y-10823720I0J15240D01*
G01X2833561Y-10461480D02*
G03X2818321Y-10446240I-15240J0D01*
G01X2668080Y-10446240D02*
G03X2652840Y-10461480I0J-15240D01*
G01X2325561Y-9508980D02*
G01X2325561Y-9649981D01*
G01X2144840Y-9649981D02*
G01X2144840Y-9508980D01*
G01X2160080Y-9493740D02*
G01X2310321Y-9493740D01*
G01X2325561Y-9871220D02*
G01X2325561Y-9730219D01*
G01X2144840Y-9730219D02*
G01X2144840Y-9871220D01*
G01X2160080Y-9886460D02*
G01X2310321Y-9886460D01*
G01X2144840Y-9508980D02*
G02X2160080Y-9493740I15240J0D01*
G01X2310321Y-9493740D02*
G02X2325561Y-9508980I0J-15240D01*
G01X2144840Y-9871220D02*
G03X2160080Y-9886460I15240J0D01*
G01X2310321Y-9886460D02*
G03X2325561Y-9871220I0J15240D01*
G01X4130309Y-6359520D02*
G01X4130309Y-6488013D01*
G01X4130309Y-6488013D02*
G01X3946891Y-6488013D01*
G01X3946891Y-6488013D02*
G01X3946891Y-6359520D01*
G01X4130309Y-6264280D02*
G01X4130309Y-6135787D01*
G01X4130309Y-6135787D02*
G01X3946891Y-6135787D01*
G01X3946891Y-6135787D02*
G01X3946891Y-6264280D01*
G01X1120409Y-6257920D02*
G01X1120409Y-6386413D01*
G01X1120409Y-6386413D02*
G01X936991Y-6386413D01*
G01X936991Y-6386413D02*
G01X936991Y-6257920D01*
G01X1120409Y-6162680D02*
G01X1120409Y-6034187D01*
G01X1120409Y-6034187D02*
G01X936991Y-6034187D01*
G01X936991Y-6034187D02*
G01X936991Y-6162680D01*
G01X3940180Y-8575309D02*
G01X3811687Y-8575309D01*
G01X3811687Y-8575309D02*
G01X3811687Y-8391891D01*
G01X3811687Y-8391891D02*
G01X3940180Y-8391891D01*
G01X4035420Y-8575309D02*
G01X4163913Y-8575309D01*
G01X4163913Y-8575309D02*
G01X4163913Y-8391891D01*
G01X4163913Y-8391891D02*
G01X4035420Y-8391891D01*
G01X3940180Y-8803909D02*
G01X3811687Y-8803909D01*
G01X3811687Y-8803909D02*
G01X3811687Y-8620491D01*
G01X3811687Y-8620491D02*
G01X3940180Y-8620491D01*
G01X4035420Y-8803909D02*
G01X4163913Y-8803909D01*
G01X4163913Y-8803909D02*
G01X4163913Y-8620491D01*
G01X4163913Y-8620491D02*
G01X4035420Y-8620491D01*
G01X2337059Y-10438021D02*
G01X2641341Y-10438021D01*
G01X2641341Y-10438021D02*
G01X2641341Y-9932779D01*
G01X2641341Y-9932779D02*
G01X2337059Y-9932779D01*
G01X2337059Y-9932779D02*
G01X2337059Y-10438021D01*
G01X2411540Y-9871220D02*
G01X2411540Y-9730219D01*
G01X2592261Y-9730219D02*
G01X2592261Y-9871220D01*
G01X2577021Y-9886460D02*
G01X2426780Y-9886460D01*
G01X2411540Y-9508980D02*
G01X2411540Y-9649981D01*
G01X2592261Y-9649981D02*
G01X2592261Y-9508980D01*
G01X2577021Y-9493740D02*
G01X2426780Y-9493740D01*
G01X2592261Y-9871220D02*
G02X2577021Y-9886460I-15240J0D01*
G01X2426780Y-9886460D02*
G02X2411540Y-9871220I0J15240D01*
G01X2592261Y-9508980D02*
G03X2577021Y-9493740I-15240J0D01*
G01X2426780Y-9493740D02*
G03X2411540Y-9508980I0J-15240D01*
G01X1698480Y-6297739D02*
G01X1839481Y-6297739D01*
G01X1839481Y-6478460D02*
G01X1698480Y-6478460D01*
G01X1683240Y-6463220D02*
G01X1683240Y-6312979D01*
G01X2060720Y-6297739D02*
G01X1919719Y-6297739D01*
G01X1919719Y-6478460D02*
G01X2060720Y-6478460D01*
G01X2075960Y-6463220D02*
G01X2075960Y-6312979D01*
G01X1698480Y-6478460D02*
G02X1683240Y-6463220I0J15240D01*
G01X1683240Y-6312979D02*
G02X1698480Y-6297739I15240J0D01*
G01X2060720Y-6478460D02*
G03X2075960Y-6463220I0J15240D01*
G01X2075960Y-6312979D02*
G03X2060720Y-6297739I-15240J0D01*
G01X2594120Y-4738560D02*
G01X2453119Y-4738560D01*
G01X2453119Y-4557839D02*
G01X2594120Y-4557839D01*
G01X2609360Y-4573079D02*
G01X2609360Y-4723320D01*
G01X2231880Y-4738560D02*
G01X2372881Y-4738560D01*
G01X2372881Y-4557839D02*
G01X2231880Y-4557839D01*
G01X2216640Y-4573079D02*
G01X2216640Y-4723320D01*
G01X2594120Y-4557839D02*
G02X2609360Y-4573079I0J-15240D01*
G01X2609360Y-4723320D02*
G02X2594120Y-4738560I-15240J0D01*
G01X2231880Y-4557839D02*
G03X2216640Y-4573079I0J-15240D01*
G01X2216640Y-4723320D02*
G03X2231880Y-4738560I15240J0D01*
G01X3343420Y-6414960D02*
G01X3202419Y-6414960D01*
G01X3202419Y-6234239D02*
G01X3343420Y-6234239D01*
G01X3358660Y-6249479D02*
G01X3358660Y-6399720D01*
G01X2981180Y-6414960D02*
G01X3122181Y-6414960D01*
G01X3122181Y-6234239D02*
G01X2981180Y-6234239D01*
G01X2965940Y-6249479D02*
G01X2965940Y-6399720D01*
G01X3343420Y-6234239D02*
G02X3358660Y-6249479I0J-15240D01*
G01X3358660Y-6399720D02*
G02X3343420Y-6414960I-15240J0D01*
G01X2981180Y-6234239D02*
G03X2965940Y-6249479I0J-15240D01*
G01X2965940Y-6399720D02*
G03X2981180Y-6414960I15240J0D01*
G01X1165591Y-10061580D02*
G01X1165591Y-9933087D01*
G01X1165591Y-9933087D02*
G01X1349009Y-9933087D01*
G01X1349009Y-9933087D02*
G01X1349009Y-10061580D01*
G01X1165591Y-10156820D02*
G01X1165591Y-10285313D01*
G01X1165591Y-10285313D02*
G01X1349009Y-10285313D01*
G01X1349009Y-10285313D02*
G01X1349009Y-10156820D01*
G01X3438891Y-10267980D02*
G01X3438891Y-10139487D01*
G01X3438891Y-10139487D02*
G01X3622309Y-10139487D01*
G01X3622309Y-10139487D02*
G01X3622309Y-10267980D01*
G01X3438891Y-10363220D02*
G01X3438891Y-10491714D01*
G01X3438891Y-10491714D02*
G01X3622309Y-10491714D01*
G01X3622309Y-10491714D02*
G01X3622309Y-10363220D01*
G01X1952620Y-10322291D02*
G01X2081113Y-10322291D01*
G01X2081113Y-10322291D02*
G01X2081113Y-10505709D01*
G01X2081113Y-10505709D02*
G01X1952620Y-10505709D01*
G01X1857380Y-10322291D02*
G01X1728887Y-10322291D01*
G01X1728887Y-10322291D02*
G01X1728887Y-10505709D01*
G01X1728887Y-10505709D02*
G01X1857380Y-10505709D01*
G01X3254009Y-10360020D02*
G01X3254009Y-10488513D01*
G01X3254009Y-10488513D02*
G01X3070591Y-10488513D01*
G01X3070591Y-10488513D02*
G01X3070591Y-10360020D01*
G01X3254009Y-10264780D02*
G01X3254009Y-10136287D01*
G01X3254009Y-10136287D02*
G01X3070591Y-10136287D01*
G01X3070591Y-10136287D02*
G01X3070591Y-10264780D01*
G54D11*
G01X4497799Y-7454900D02*
G01X4747798Y-7454900D01*
G01X4747798Y-7175904D02*
G01X4747798Y-10273896D01*
G01X4497799Y-7175904D02*
G01X4747798Y-7175904D01*
G01X4497799Y-10273896D02*
G01X4497799Y-7175904D01*
G01X4747798Y-10273896D02*
G01X4497799Y-10273896D01*
G01X4508500Y-3416300D02*
G01X4737100Y-3416300D01*
G01X4502810Y-3138297D02*
G01X4502810Y-5218303D01*
G01X4742815Y-5218303D01*
G01X4742815Y-3138297D01*
G01X4502810Y-3138297D01*
G01X317500Y-7454900D02*
G01X546100Y-7454900D01*
G01X311810Y-7176897D02*
G01X311810Y-9256903D01*
G01X551815Y-9256903D01*
G01X551815Y-7176897D01*
G01X311810Y-7176897D01*
G01X304800Y-5443901D02*
G01X558800Y-5443901D01*
G01X304800Y-4385899D02*
G01X304800Y-5443901D01*
G01X304800Y-4663252D02*
G01X558800Y-4663252D01*
G01X558800Y-4385899D02*
G01X558800Y-5443901D01*
G01X304800Y-4385899D02*
G01X558800Y-4385899D01*

G04 Circle Start*
G54D12*
G01X2397277Y-10375900D02*
G03X2427300Y-10375900I15011J0D01*
G03X2397277Y-10375900I-15011J0D01*
G01X2196948Y-10450551D02*
G03X2226970Y-10450551I15011J0D01*
G03X2196948Y-10450551I-15011J0D01*
G04 Circle End*

M02*

