G04 Layer: CustomLayer1*
G04 EasyEDA Pro v2.2.47.7, 2026-05-04 20:37:10*
G04 Gerber Generator version 0.3*
G04 Scale: 100 percent, Rotated: No, Reflected: No*
G04 Dimensions in millimeters*
G04 Leading zeros omitted, absolute positions, 4 integers and 5 decimals*
G04 Generated by one-click*
G04 Object Configs: Pad,Via,Track,Text,Image,Dimension,BoardOutline,BoardCutout,CopperFilled,SolidRegion,FPCStiffener,Line,PlaneZone,ComponentProperty,ComponentSilkscreen,TearDrop*
G04 Layer Configs: 1,15,16,2,3,4,5,6,7,8,9,10,11,13,14,71,72,56*
G04 Copper Areas: 0*
%FSLAX45Y45*%
%MOMM*%
%ADD10C,0.12*%
%ADD11C,0.4072*%
G75*


G04 PolygonModel Start*
G54D10*
G01X2173000Y-7234200D02*
G01X2078000Y-7329200D01*
G01X2174000Y-7148700D02*
G01X1992000Y-7330200D01*
G01X2139000Y-7087200D02*
G01X1931000Y-7295200D01*
G01X2090000Y-7053200D02*
G01X1896000Y-7247200D01*
G01X2023000Y-7040200D02*
G01X1884000Y-7179200D01*
G01X3176300Y-7234200D02*
G01X3081300Y-7329200D01*
G01X3177300Y-7148700D02*
G01X2995300Y-7330200D01*
G01X3142300Y-7087200D02*
G01X2934300Y-7295200D01*
G01X3093300Y-7053200D02*
G01X2899300Y-7247200D01*
G01X3026300Y-7040200D02*
G01X2887300Y-7179200D01*
G01X4179600Y-7234200D02*
G01X4084600Y-7329200D01*
G01X4180600Y-7148700D02*
G01X3998600Y-7330200D01*
G01X4145600Y-7087200D02*
G01X3937600Y-7295200D01*
G01X4096600Y-7053200D02*
G01X3902600Y-7247200D01*
G01X4029600Y-7040200D02*
G01X3890600Y-7179200D01*
G01X1169700Y-7234200D02*
G01X1074700Y-7329200D01*
G01X1170700Y-7148700D02*
G01X988700Y-7330200D01*
G01X1135700Y-7087200D02*
G01X927700Y-7295200D01*
G01X1086700Y-7053200D02*
G01X892700Y-7247200D01*
G01X1019700Y-7040200D02*
G01X880700Y-7179200D01*
G01X4179600Y-8720100D02*
G01X4084600Y-8815100D01*
G01X4180600Y-8634600D02*
G01X3998600Y-8816100D01*
G01X4145600Y-8573100D02*
G01X3937600Y-8781100D01*
G01X4096600Y-8539100D02*
G01X3902600Y-8733100D01*
G01X4029600Y-8526100D02*
G01X3890600Y-8665100D01*
G01X1169700Y-8720100D02*
G01X1074700Y-8815100D01*
G01X1170700Y-8634600D02*
G01X988700Y-8816100D01*
G01X1135700Y-8573100D02*
G01X927700Y-8781100D01*
G01X1086700Y-8539100D02*
G01X892700Y-8733100D01*
G01X1019700Y-8526100D02*
G01X880700Y-8665100D01*
G01X2681000Y-8720100D02*
G01X2586000Y-8815100D01*
G01X2682000Y-8634600D02*
G01X2500000Y-8816100D01*
G01X2647000Y-8573100D02*
G01X2439000Y-8781100D01*
G01X2598000Y-8539100D02*
G01X2404000Y-8733100D01*
G01X2531000Y-8526100D02*
G01X2392000Y-8665100D01*
G01X1677700Y-10460000D02*
G01X1582700Y-10555000D01*
G01X1678700Y-10374500D02*
G01X1496700Y-10556000D01*
G01X1643700Y-10313000D02*
G01X1435700Y-10521000D01*
G01X1594700Y-10279000D02*
G01X1400700Y-10473000D01*
G01X1527700Y-10266000D02*
G01X1388700Y-10405000D01*
G01X3684300Y-10460000D02*
G01X3589300Y-10555000D01*
G01X3685300Y-10374500D02*
G01X3503300Y-10556000D01*
G01X3650300Y-10313000D02*
G01X3442300Y-10521000D01*
G01X3601300Y-10279000D02*
G01X3407300Y-10473000D01*
G01X3534300Y-10266000D02*
G01X3395300Y-10405000D01*

G04 Circle Start*
G01X1882000Y-7188200D02*
G03X2182000Y-7188200I150000J0D01*
G03X1882000Y-7188200I-150000J0D01*
G01X2885300Y-7188200D02*
G03X3185300Y-7188200I150000J0D01*
G03X2885300Y-7188200I-150000J0D01*
G01X3888600Y-7188200D02*
G03X4188600Y-7188200I150000J0D01*
G03X3888600Y-7188200I-150000J0D01*
G01X878700Y-7188200D02*
G03X1178700Y-7188200I150000J0D01*
G03X878700Y-7188200I-150000J0D01*
G01X3888600Y-8674100D02*
G03X4188600Y-8674100I150000J0D01*
G03X3888600Y-8674100I-150000J0D01*
G01X878700Y-8674100D02*
G03X1178700Y-8674100I150000J0D01*
G03X878700Y-8674100I-150000J0D01*
G01X2390000Y-8674100D02*
G03X2690000Y-8674100I150000J0D01*
G03X2390000Y-8674100I-150000J0D01*
G01X1386700Y-10414000D02*
G03X1686700Y-10414000I150000J0D01*
G03X1386700Y-10414000I-150000J0D01*
G01X3393300Y-10414000D02*
G03X3693300Y-10414000I150000J0D01*
G03X3393300Y-10414000I-150000J0D01*
G04 Circle End*

M02*

