G04 Layer: BottomPasteMaskLayer*
G04 EasyEDA Pro v2.2.47.7, 2026-05-04 20:37:10*
G04 Gerber Generator version 0.3*
G04 Scale: 100 percent, Rotated: No, Reflected: No*
G04 Dimensions in millimeters*
G04 Leading zeros omitted, absolute positions, 4 integers and 5 decimals*
G04 Generated by one-click*
G04 Object Configs: Pad,Via,Track,Text,Image,Dimension,BoardOutline,BoardCutout,CopperFilled,SolidRegion,FPCStiffener,Line,PlaneZone,ComponentProperty,ComponentSilkscreen,TearDrop*
G04 Layer Configs: 1,15,16,2,3,4,5,6,7,8,9,10,11,13,14,71,72,56*
G04 Copper Areas: 0*
%FSLAX45Y45*%
%MOMM*%
%ADD10O,2.045X0.58801*%
%ADD11C,0.9600*%
G75*


G04 PolygonModel Start*
G36*
G01X2807200Y-10472102D02*
G01X2679202Y-10472102D01*
G01X2674201Y-10477104D01*
G01X2674201Y-10592105D01*
G01X2679202Y-10597104D01*
G01X2720205Y-10597606D01*
G01X2720205Y-10552605D01*
G01X2765204Y-10552605D01*
G01X2765204Y-10596606D01*
G01X2807200Y-10597104D01*
G01X2812202Y-10592105D01*
G01X2812202Y-10477104D01*
G01X2807200Y-10472102D01*
G37*
G36*
G01X2679200Y-10813097D02*
G01X2807198Y-10813097D01*
G01X2812199Y-10808096D01*
G01X2812199Y-10693095D01*
G01X2807198Y-10688096D01*
G01X2766195Y-10687594D01*
G01X2766195Y-10732595D01*
G01X2721196Y-10732595D01*
G01X2721196Y-10688594D01*
G01X2679200Y-10688096D01*
G01X2674198Y-10693095D01*
G01X2674198Y-10808096D01*
G01X2679200Y-10813097D01*
G37*
G36*
G01X2171200Y-9860597D02*
G01X2299198Y-9860597D01*
G01X2304199Y-9855596D01*
G01X2304199Y-9740595D01*
G01X2299198Y-9735596D01*
G01X2258195Y-9735094D01*
G01X2258195Y-9780095D01*
G01X2213196Y-9780095D01*
G01X2213196Y-9736094D01*
G01X2171200Y-9735596D01*
G01X2166198Y-9740595D01*
G01X2166198Y-9855596D01*
G01X2171200Y-9860597D01*
G37*
G36*
G01X2299200Y-9519602D02*
G01X2171202Y-9519602D01*
G01X2166201Y-9524604D01*
G01X2166201Y-9639605D01*
G01X2171202Y-9644604D01*
G01X2212205Y-9645106D01*
G01X2212205Y-9600105D01*
G01X2257204Y-9600105D01*
G01X2257204Y-9644106D01*
G01X2299200Y-9644604D01*
G01X2304202Y-9639605D01*
G01X2304202Y-9524604D01*
G01X2299200Y-9519602D01*
G37*
G36*
G01X4102600Y-6141898D02*
G01X3974602Y-6141898D01*
G01X3969601Y-6146899D01*
G01X3969601Y-6261900D01*
G01X3974602Y-6266899D01*
G01X4015605Y-6267402D01*
G01X4015605Y-6222401D01*
G01X4060604Y-6222401D01*
G01X4060604Y-6266401D01*
G01X4102600Y-6266899D01*
G01X4107602Y-6261900D01*
G01X4107602Y-6146899D01*
G01X4102600Y-6141898D01*
G37*
G36*
G01X4102600Y-6356899D02*
G01X4060604Y-6356901D01*
G01X4060604Y-6401399D01*
G01X4015605Y-6401399D01*
G01X4015605Y-6357402D01*
G01X3974602Y-6356899D01*
G01X3969601Y-6361900D01*
G01X3969601Y-6476898D01*
G01X3974602Y-6481900D01*
G01X4102600Y-6481900D01*
G01X4107602Y-6476898D01*
G01X4107602Y-6361900D01*
G01X4102600Y-6356899D01*
G37*
G36*
G01X1092700Y-6040298D02*
G01X964702Y-6040298D01*
G01X959701Y-6045299D01*
G01X959701Y-6160300D01*
G01X964702Y-6165299D01*
G01X1005705Y-6165802D01*
G01X1005705Y-6120801D01*
G01X1050704Y-6120801D01*
G01X1050704Y-6164801D01*
G01X1092700Y-6165299D01*
G01X1097702Y-6160300D01*
G01X1097702Y-6045299D01*
G01X1092700Y-6040298D01*
G37*
G36*
G01X1092700Y-6255299D02*
G01X1050704Y-6255301D01*
G01X1050704Y-6299799D01*
G01X1005705Y-6299799D01*
G01X1005705Y-6255802D01*
G01X964702Y-6255299D01*
G01X959701Y-6260300D01*
G01X959701Y-6375298D01*
G01X964702Y-6380300D01*
G01X1092700Y-6380300D01*
G01X1097702Y-6375298D01*
G01X1097702Y-6260300D01*
G01X1092700Y-6255299D01*
G37*
G36*
G01X4157802Y-8547600D02*
G01X4157802Y-8419602D01*
G01X4152801Y-8414601D01*
G01X4037800Y-8414601D01*
G01X4032801Y-8419602D01*
G01X4032298Y-8460605D01*
G01X4077299Y-8460605D01*
G01X4077299Y-8505604D01*
G01X4033299Y-8505604D01*
G01X4032801Y-8547600D01*
G01X4037800Y-8552602D01*
G01X4152801Y-8552602D01*
G01X4157802Y-8547600D01*
G37*
G36*
G01X3942801Y-8547600D02*
G01X3942799Y-8505604D01*
G01X3898301Y-8505604D01*
G01X3898301Y-8460605D01*
G01X3942298Y-8460605D01*
G01X3942801Y-8419602D01*
G01X3937800Y-8414601D01*
G01X3822802Y-8414601D01*
G01X3817800Y-8419602D01*
G01X3817800Y-8547600D01*
G01X3822802Y-8552602D01*
G01X3937800Y-8552602D01*
G01X3942801Y-8547600D01*
G37*
G36*
G01X4157802Y-8776200D02*
G01X4157802Y-8648202D01*
G01X4152801Y-8643201D01*
G01X4037800Y-8643201D01*
G01X4032801Y-8648202D01*
G01X4032298Y-8689205D01*
G01X4077299Y-8689205D01*
G01X4077299Y-8734204D01*
G01X4033299Y-8734204D01*
G01X4032801Y-8776200D01*
G01X4037800Y-8781202D01*
G01X4152801Y-8781202D01*
G01X4157802Y-8776200D01*
G37*
G36*
G01X3942801Y-8776200D02*
G01X3942799Y-8734204D01*
G01X3898301Y-8734204D01*
G01X3898301Y-8689205D01*
G01X3942298Y-8689205D01*
G01X3942801Y-8648202D01*
G01X3937800Y-8643201D01*
G01X3822802Y-8643201D01*
G01X3817800Y-8648202D01*
G01X3817800Y-8776200D01*
G01X3822802Y-8781202D01*
G01X3937800Y-8781202D01*
G01X3942801Y-8776200D01*
G37*
G36*
G01X2565900Y-9519602D02*
G01X2437902Y-9519602D01*
G01X2432901Y-9524604D01*
G01X2432901Y-9639605D01*
G01X2437902Y-9644604D01*
G01X2478905Y-9645106D01*
G01X2478905Y-9600105D01*
G01X2523904Y-9600105D01*
G01X2523904Y-9644106D01*
G01X2565900Y-9644604D01*
G01X2570902Y-9639605D01*
G01X2570902Y-9524604D01*
G01X2565900Y-9519602D01*
G37*
G36*
G01X2437900Y-9860597D02*
G01X2565898Y-9860597D01*
G01X2570899Y-9855596D01*
G01X2570899Y-9740595D01*
G01X2565898Y-9735596D01*
G01X2524895Y-9735094D01*
G01X2524895Y-9780095D01*
G01X2479896Y-9780095D01*
G01X2479896Y-9736094D01*
G01X2437900Y-9735596D01*
G01X2432898Y-9740595D01*
G01X2432898Y-9855596D01*
G01X2437900Y-9860597D01*
G37*
G36*
G01X2050098Y-6452100D02*
G01X2050098Y-6324102D01*
G01X2045096Y-6319101D01*
G01X1930095Y-6319101D01*
G01X1925096Y-6324102D01*
G01X1924594Y-6365105D01*
G01X1969595Y-6365105D01*
G01X1969595Y-6410104D01*
G01X1925594Y-6410104D01*
G01X1925096Y-6452100D01*
G01X1930095Y-6457102D01*
G01X2045096Y-6457102D01*
G01X2050098Y-6452100D01*
G37*
G36*
G01X1709103Y-6324100D02*
G01X1709103Y-6452098D01*
G01X1714104Y-6457099D01*
G01X1829105Y-6457099D01*
G01X1834104Y-6452098D01*
G01X1834606Y-6411095D01*
G01X1789605Y-6411095D01*
G01X1789605Y-6366096D01*
G01X1833606Y-6366096D01*
G01X1834104Y-6324100D01*
G01X1829105Y-6319098D01*
G01X1714104Y-6319098D01*
G01X1709103Y-6324100D01*
G37*
G36*
G01X2242503Y-4584200D02*
G01X2242503Y-4712198D01*
G01X2247504Y-4717199D01*
G01X2362505Y-4717199D01*
G01X2367504Y-4712198D01*
G01X2368006Y-4671195D01*
G01X2323005Y-4671195D01*
G01X2323005Y-4626196D01*
G01X2367006Y-4626196D01*
G01X2367504Y-4584200D01*
G01X2362505Y-4579198D01*
G01X2247504Y-4579198D01*
G01X2242503Y-4584200D01*
G37*
G36*
G01X2583498Y-4712200D02*
G01X2583498Y-4584202D01*
G01X2578496Y-4579201D01*
G01X2463495Y-4579201D01*
G01X2458496Y-4584202D01*
G01X2457994Y-4625205D01*
G01X2502995Y-4625205D01*
G01X2502995Y-4670204D01*
G01X2458994Y-4670204D01*
G01X2458496Y-4712200D01*
G01X2463495Y-4717202D01*
G01X2578496Y-4717202D01*
G01X2583498Y-4712200D01*
G37*
G36*
G01X2991803Y-6260600D02*
G01X2991803Y-6388598D01*
G01X2996804Y-6393599D01*
G01X3111805Y-6393599D01*
G01X3116804Y-6388598D01*
G01X3117306Y-6347595D01*
G01X3072305Y-6347595D01*
G01X3072305Y-6302596D01*
G01X3116306Y-6302596D01*
G01X3116804Y-6260600D01*
G01X3111805Y-6255598D01*
G01X2996804Y-6255598D01*
G01X2991803Y-6260600D01*
G37*
G36*
G01X3332798Y-6388600D02*
G01X3332798Y-6260602D01*
G01X3327796Y-6255601D01*
G01X3212795Y-6255601D01*
G01X3207796Y-6260602D01*
G01X3207294Y-6301605D01*
G01X3252295Y-6301605D01*
G01X3252295Y-6346604D01*
G01X3208294Y-6346604D01*
G01X3207796Y-6388600D01*
G01X3212795Y-6393602D01*
G01X3327796Y-6393602D01*
G01X3332798Y-6388600D01*
G37*
G36*
G01X1193300Y-10279202D02*
G01X1321298Y-10279202D01*
G01X1326299Y-10274201D01*
G01X1326299Y-10159200D01*
G01X1321298Y-10154201D01*
G01X1280295Y-10153698D01*
G01X1280295Y-10198699D01*
G01X1235296Y-10198699D01*
G01X1235296Y-10154699D01*
G01X1193300Y-10154201D01*
G01X1188298Y-10159200D01*
G01X1188298Y-10274201D01*
G01X1193300Y-10279202D01*
G37*
G36*
G01X1193300Y-10064201D02*
G01X1235296Y-10064199D01*
G01X1235296Y-10019701D01*
G01X1280295Y-10019701D01*
G01X1280295Y-10063698D01*
G01X1321298Y-10064201D01*
G01X1326299Y-10059200D01*
G01X1326299Y-9944202D01*
G01X1321298Y-9939200D01*
G01X1193300Y-9939200D01*
G01X1188298Y-9944202D01*
G01X1188298Y-10059200D01*
G01X1193300Y-10064201D01*
G37*
G36*
G01X3466600Y-10485603D02*
G01X3594598Y-10485603D01*
G01X3599599Y-10480601D01*
G01X3599599Y-10365600D01*
G01X3594598Y-10360602D01*
G01X3553595Y-10360099D01*
G01X3553595Y-10405100D01*
G01X3508596Y-10405100D01*
G01X3508596Y-10361099D01*
G01X3466600Y-10360602D01*
G01X3461598Y-10365600D01*
G01X3461598Y-10480601D01*
G01X3466600Y-10485603D01*
G37*
G36*
G01X3466600Y-10270602D02*
G01X3508596Y-10270599D01*
G01X3508596Y-10226101D01*
G01X3553595Y-10226101D01*
G01X3553595Y-10270099D01*
G01X3594598Y-10270602D01*
G01X3599599Y-10265600D01*
G01X3599599Y-10150602D01*
G01X3594598Y-10145601D01*
G01X3466600Y-10145601D01*
G01X3461598Y-10150602D01*
G01X3461598Y-10265600D01*
G01X3466600Y-10270602D01*
G37*
G36*
G01X1734998Y-10350000D02*
G01X1734998Y-10477998D01*
G01X1739999Y-10482999D01*
G01X1855000Y-10482999D01*
G01X1859999Y-10477998D01*
G01X1860502Y-10436995D01*
G01X1815501Y-10436995D01*
G01X1815501Y-10391996D01*
G01X1859501Y-10391996D01*
G01X1859999Y-10350000D01*
G01X1855000Y-10344998D01*
G01X1739999Y-10344998D01*
G01X1734998Y-10350000D01*
G37*
G36*
G01X1949999Y-10350000D02*
G01X1950001Y-10391996D01*
G01X1994499Y-10391996D01*
G01X1994499Y-10436995D01*
G01X1950502Y-10436995D01*
G01X1949999Y-10477998D01*
G01X1955000Y-10482999D01*
G01X2069998Y-10482999D01*
G01X2075000Y-10477998D01*
G01X2075000Y-10350000D01*
G01X2069998Y-10344998D01*
G01X1955000Y-10344998D01*
G01X1949999Y-10350000D01*
G37*
G36*
G01X3226300Y-10142398D02*
G01X3098302Y-10142398D01*
G01X3093301Y-10147399D01*
G01X3093301Y-10262400D01*
G01X3098302Y-10267399D01*
G01X3139305Y-10267902D01*
G01X3139305Y-10222901D01*
G01X3184304Y-10222901D01*
G01X3184304Y-10266901D01*
G01X3226300Y-10267399D01*
G01X3231302Y-10262400D01*
G01X3231302Y-10147399D01*
G01X3226300Y-10142398D01*
G37*
G36*
G01X3226300Y-10357399D02*
G01X3184304Y-10357401D01*
G01X3184304Y-10401899D01*
G01X3139305Y-10401899D01*
G01X3139305Y-10357902D01*
G01X3098302Y-10357399D01*
G01X3093301Y-10362400D01*
G01X3093301Y-10477398D01*
G01X3098302Y-10482400D01*
G01X3226300Y-10482400D01*
G01X3231302Y-10477398D01*
G01X3231302Y-10362400D01*
G01X3226300Y-10357399D01*
G37*

G04 Pad Start*
G54D10*
G01X2746197Y-9994900D03*
G01X2746197Y-10121900D03*
G01X2746197Y-10248900D03*
G01X2746197Y-10375900D03*
G01X2232203Y-9994900D03*
G01X2232203Y-10121900D03*
G01X2232203Y-10248900D03*
G01X2232203Y-10375900D03*
G04 Pad End*

M02*

